<svg width="2000" height="2000" viewBox="0 0 2000 2000" fill="none" xmlns="http://www.w3.org/2000/svg">
<path d="M680.835 1492.12C680.835 1492.12 667.98 1519.01 670.278 1524.6C672.575 1530.19 687.541 1529.94 687.541 1529.94L688.162 1493.3C688.162 1493.3 684.809 1483.56 680.835 1492.12Z" fill="white" stroke="#263238" stroke-width="2.1274" stroke-linecap="round" stroke-linejoin="round"/>
<path d="M716.045 1511.93C716.045 1511.93 732.253 1521.93 736.849 1524.35C741.444 1526.78 760.819 1530.87 761.192 1534.97C761.564 1539.07 742.562 1541.74 732.812 1543.11C714.677 1542.58 696.65 1540.12 679.034 1535.78C677.109 1534.29 684.313 1509.7 684.313 1509.7L716.045 1511.93Z" fill="white" stroke="#263238" stroke-width="2.1274" stroke-linecap="round" stroke-linejoin="round"/>
<path d="M779.573 1159.96C779.573 1159.96 771.127 1304.58 771.748 1323.59C772.369 1342.59 765.538 1355.75 764.979 1361.16C764.42 1366.56 719.088 1478.59 719.088 1478.59L710.456 1504.42L692.758 1477.35L711.388 1350.48L692.758 1163.18L740.015 1156.97L779.573 1159.96Z" fill="#525252" stroke="#263238" stroke-width="2.1274" stroke-linecap="round" stroke-linejoin="round"/>
<path d="M631.278 1164.18C631.278 1164.18 641.711 1226.71 652.64 1253.29C663.57 1279.87 677.48 1351.47 677.48 1351.47C677.48 1351.47 668.786 1387.49 674.499 1402.14C680.213 1416.8 680.709 1496.91 680.709 1496.91C680.029 1501.59 679.697 1506.33 679.716 1511.06C680.15 1513.86 680.523 1518.58 680.523 1518.58C680.523 1518.58 694.247 1516.22 699.153 1515.85C704.059 1515.47 720.391 1512.68 720.391 1512.68C720.391 1512.68 721.136 1502.56 722.254 1496.53C723.372 1490.51 719.335 1480.7 719.459 1478.65C719.584 1476.6 726.228 1423.5 726.228 1423.5C726.228 1423.5 736.164 1351.59 737.158 1338.12C738.151 1324.64 722.751 1180.94 722.751 1180.94C722.751 1180.94 680.026 1152.75 663.88 1150.89C647.735 1149.03 631.278 1164.18 631.278 1164.18Z" fill="#525252" stroke="#263238" stroke-width="2.1274" stroke-linecap="round" stroke-linejoin="round"/>
<path d="M679.903 906.962C679.903 906.962 620.35 940.371 620.101 943.601C619.853 946.83 631.962 1076.12 631.962 1076.12C631.962 1076.12 624.51 1149.83 623.952 1157.84C623.658 1163.6 623.783 1169.37 624.324 1175.11L658.355 1159.27C658.355 1159.27 718.405 1185.73 726.664 1187.4L742.623 1190.69L750.696 1176.16L751.504 1194.79C758.431 1189.63 764.818 1183.79 770.568 1177.34L783.609 1160.51L777.772 1078.17C777.772 1078.17 771.562 970.303 772.245 964.404C772.928 958.504 765.103 926.648 759.825 922.425C750.362 917.547 740.543 913.396 730.452 910.005L688.783 901.684L679.903 906.962Z" fill="white" stroke="#263238" stroke-width="2.1274" stroke-linecap="round" stroke-linejoin="round"/>
<path d="M671.085 842.69C672.376 848.557 674.466 854.22 677.295 859.519C680.711 864.238 690.212 878.149 690.212 878.149L711.326 865.729L707.413 828.842L671.085 842.69Z" fill="#263238" stroke="#263238" stroke-width="2.1274" stroke-linecap="round" stroke-linejoin="round"/>
<path d="M686.983 861.133L683.443 899.014L725.857 927.021L733.309 898.455L697.726 854.364L686.983 861.133Z" fill="white" stroke="#263238" stroke-width="2.1274" stroke-linecap="round" stroke-linejoin="round"/>
<path d="M712.133 891.686L727.534 912.986L731.632 901.746L712.133 891.686Z" fill="#263238"/>
<path d="M762.06 821.824L760.88 845.422L757.775 851.135L758.334 873.305L754.297 876.782C754.297 876.782 748.087 895.412 746.907 897.275C743.987 900.145 740.71 902.628 737.158 904.665C734.984 905.534 713.249 893.176 709.834 888.084C706.419 882.992 702.568 876.782 702.568 876.782L703.251 860.14L701.699 829.09L762.06 821.824Z" fill="white" stroke="#263238" stroke-width="2.1274" stroke-linecap="round" stroke-linejoin="round"/>
<path d="M743.618 852.812V859.022C742.165 859.724 740.549 860.019 738.942 859.877C737.335 859.735 735.796 859.161 734.489 858.215" stroke="#263238" stroke-width="2.1274" stroke-linecap="round" stroke-linejoin="round"/>
<path d="M746.473 885.042C746.473 885.042 744.423 885.476 739.89 882.558" stroke="#263238" stroke-width="2.1274" stroke-linecap="round" stroke-linejoin="round"/>
<path d="M729.893 834.989L760.632 836.728L762.061 821.824L726.912 831.45L729.893 834.989Z" fill="#263238"/>
<path d="M748.71 849.955L731.571 848.154" stroke="#263238" stroke-width="2.1274" stroke-linecap="round" stroke-linejoin="round"/>
<path d="M754.297 876.782L742.933 877.59" stroke="#263238" stroke-width="2.1274" stroke-linecap="round" stroke-linejoin="round"/>
<path d="M765.787 820.706C765.787 820.706 762.495 798.413 754.919 791.395C747.343 784.378 707.786 778.665 703.874 780.528C699.961 782.391 692.944 785.931 692.944 785.931C688.122 788.616 683.568 791.756 679.344 795.308C676.196 797.577 673.608 800.536 671.778 803.959C669.949 807.381 668.926 811.177 668.787 815.055C668.73 824.317 669.499 833.565 671.085 842.69L765.787 820.706Z" fill="#92E3A9" stroke="#263238" stroke-width="2.1274" stroke-linecap="round" stroke-linejoin="round"/>
<path d="M680.835 886.531L716.294 902.615L727.224 930.87L674.004 905.968L680.835 886.531Z" fill="white" stroke="#263238" stroke-width="2.1274" stroke-linecap="round" stroke-linejoin="round"/>
<path d="M705.178 854.736C705.178 854.736 701.142 839.087 692.758 844.49C684.375 849.893 694.125 866.97 695.491 869.33C696.857 871.689 701.701 872.062 704.371 866.597" fill="white"/>
<path d="M705.178 854.736C705.178 854.736 701.142 839.087 692.758 844.49C684.375 849.893 694.125 866.97 695.491 869.33C696.857 871.689 701.701 872.062 704.371 866.597" stroke="#263238" stroke-width="2.1274" stroke-linecap="round" stroke-linejoin="round"/>
<path d="M714.74 832.257C714.74 832.257 734.922 842.069 749.453 841.137C765.848 840.019 800.002 836.045 791.681 829.524C781.992 826.293 772.096 823.72 762.06 821.824C762.06 821.824 726.973 826.792 714.74 832.257Z" fill="#92E3A9" stroke="#263238" stroke-width="2.1274" stroke-linecap="round" stroke-linejoin="round"/>
<path d="M941.527 1131.27C922.277 1113.57 883.589 1110.96 881.85 1110.83L881.353 1119.09C881.726 1119.09 913.334 1121.21 931.653 1133.87L941.527 1131.27Z" fill="white" stroke="#263238" stroke-width="2.1274" stroke-miterlimit="10"/>
<path d="M919.481 1129.03C919.537 1129.2 919.627 1129.36 919.745 1129.5C919.863 1129.63 920.007 1129.75 920.169 1129.83C920.33 1129.91 920.507 1129.96 920.687 1129.97C920.867 1129.98 921.048 1129.96 921.22 1129.9L933.64 1125.86C933.977 1125.74 934.255 1125.49 934.416 1125.16C934.577 1124.84 934.61 1124.47 934.509 1124.12C934.395 1123.77 934.15 1123.48 933.826 1123.31C933.502 1123.14 933.124 1123.09 932.77 1123.19L920.35 1127.29C920.013 1127.42 919.735 1127.67 919.574 1127.99C919.413 1128.31 919.38 1128.68 919.481 1129.03V1129.03Z" fill="white" stroke="#263238" stroke-width="1.0637" stroke-miterlimit="10"/>
<path d="M905.697 1122.82C905.799 1123.17 906.029 1123.46 906.34 1123.65C906.651 1123.83 907.021 1123.89 907.374 1123.81L920.104 1120.46C920.451 1120.36 920.747 1120.13 920.931 1119.82C921.116 1119.51 921.175 1119.14 921.098 1118.78C921.054 1118.61 920.976 1118.44 920.868 1118.3C920.76 1118.15 920.624 1118.03 920.468 1117.93C920.312 1117.84 920.139 1117.78 919.959 1117.76C919.779 1117.73 919.597 1117.74 919.421 1117.79L907.001 1121.14C906.802 1121.16 906.607 1121.21 906.43 1121.31C906.254 1121.4 906.099 1121.53 905.976 1121.69C905.853 1121.85 905.764 1122.03 905.716 1122.23C905.668 1122.42 905.662 1122.62 905.697 1122.82V1122.82Z" fill="white" stroke="#263238" stroke-width="1.0637" stroke-miterlimit="10"/>
<path d="M889.922 1120.21C889.922 1120.21 889.922 1120.21 889.922 1120.52C890.007 1120.68 890.123 1120.82 890.262 1120.94C890.402 1121.05 890.563 1121.14 890.737 1121.19C890.91 1121.24 891.092 1121.26 891.272 1121.24C891.452 1121.22 891.626 1121.17 891.785 1121.08L904.205 1114.87C904.534 1114.71 904.785 1114.42 904.901 1114.07C905.018 1113.72 904.991 1113.34 904.826 1113.01C904.661 1112.68 904.373 1112.43 904.023 1112.31C903.674 1112.2 903.292 1112.22 902.963 1112.39L890.543 1118.6C890.269 1118.75 890.058 1119 889.945 1119.29C889.831 1119.59 889.823 1119.91 889.922 1120.21V1120.21Z" fill="white" stroke="#263238" stroke-width="1.0637" stroke-miterlimit="10"/>
<path d="M846.515 1127.97C846.515 1127.97 811.678 1133.44 809.256 1134.93C806.834 1136.42 807.206 1152.81 807.206 1152.81" stroke="#263238" stroke-width="2.1274" stroke-miterlimit="10"/>
<path d="M782.74 1124.25L795.595 1148.03C797.271 1150.98 799.947 1153.22 803.137 1154.36C806.328 1155.5 809.821 1155.46 812.983 1154.24L848.379 1140.77L845.461 1133.07L810.064 1146.48C808.751 1146.99 807.298 1147 805.975 1146.52C804.651 1146.04 803.545 1145.1 802.861 1143.87L790.006 1120.09L782.74 1124.25Z" fill="black"/>
<path d="M786.252 1122.51L766.59 1130.2L770.595 1140.44L790.257 1132.74L786.252 1122.51Z" fill="black" stroke="#263238" stroke-width="2.1274" stroke-miterlimit="10"/>
<path d="M838.871 1101.87L786.303 1122.44L790.308 1132.68L842.876 1112.11L838.871 1101.87Z" fill="white" stroke="#263238" stroke-width="2.1274" stroke-miterlimit="10"/>
<path d="M887.439 1107.79L884.396 1125.43L875.392 1125.74L870.672 1139.59L848.192 1142.01L827.141 1104.94L835.214 1093.01L872.411 1090.78L878.994 1105.12L887.439 1107.79Z" fill="#92E3A9" stroke="#263238" stroke-width="2.1274" stroke-linecap="round" stroke-linejoin="round"/>
<path d="M869.245 1100.03L877.007 1116.17L885.701 1117.98L887.44 1107.79L878.994 1105.12L872.412 1090.78L835.214 1093.01L828.818 1102.45L869.245 1100.03Z" fill="#92E3A9" stroke="#263238" stroke-width="2.1274" stroke-linecap="round" stroke-linejoin="round"/>
<path d="M661.213 1051.96L673.943 1071.03L788.454 1123.19L807.519 1141.01L826.583 1134.62L843.164 1132.07L822.795 1097.73L782.12 1096.49L705.8 1046.87L694.312 1032.84L661.213 1051.96Z" fill="white" stroke="#263238" stroke-width="2.1274" stroke-linecap="round" stroke-linejoin="round"/>
<path d="M620.1 943.601L647.237 1068.48L707.039 1036.69L667.606 947.637" fill="white"/>
<path d="M620.1 943.601L647.237 1068.48L707.039 1036.69L667.606 947.637" stroke="#263238" stroke-width="2.1274" stroke-linecap="round" stroke-linejoin="round"/>
<path d="M454.411 836.946C454.411 836.946 443.262 828.291 456.868 809.77C470.474 791.248 495.193 785.015 492.736 799.868C490.278 814.72 480.376 844.39 454.411 836.946Z" fill="#92E3A9"/>
<path d="M471.718 813.475C459.638 828.442 448.481 844.131 438.308 860.455Z" fill="#92E3A9"/>
<path d="M471.718 813.475C459.638 828.442 448.481 844.131 438.308 860.455" stroke="#263238" stroke-width="0.504988" stroke-linecap="round" stroke-linejoin="round"/>
<path d="M1447.65 1071.74C1447.65 1071.74 1442.63 1058.56 1463.89 1049.8C1485.16 1041.04 1509.52 1048.62 1499.69 1059.99C1489.86 1071.35 1465.96 1091.58 1447.65 1071.74Z" fill="#92E3A9"/>
<path d="M1474.65 1060.66C1456.56 1067.18 1438.87 1074.78 1421.69 1083.42Z" fill="#92E3A9"/>
<path d="M1474.65 1060.66C1456.56 1067.18 1438.87 1074.78 1421.69 1083.42" stroke="#263238" stroke-width="0.504988" stroke-linecap="round" stroke-linejoin="round"/>
<path d="M1677.46 1402.99C1677.46 1402.99 1663.21 1402.63 1663.21 1379.62C1663.21 1356.61 1679.31 1336.88 1686.15 1350.38C1692.99 1363.88 1702.75 1393.51 1677.46 1402.99Z" fill="#92E3A9"/>
<path d="M1677.42 1373.82C1676.62 1393.02 1676.98 1412.25 1678.49 1431.41Z" fill="#92E3A9"/>
<path d="M1677.42 1373.82C1676.62 1393.02 1676.98 1412.25 1678.49 1431.41" stroke="#263238" stroke-width="0.504988" stroke-linecap="round" stroke-linejoin="round"/>
<path d="M793.421 1162.35C793.421 1162.35 805.14 1154.48 818.354 1173.22C831.568 1191.95 829.823 1217.35 816.502 1210.37C803.181 1203.38 778.248 1184.47 793.421 1162.35Z" fill="#92E3A9"/>
<path d="M810.304 1185.97C799.869 1169.86 788.475 1154.4 776.182 1139.66Z" fill="#92E3A9"/>
<path d="M810.304 1185.97C799.869 1169.86 788.475 1154.4 776.182 1139.66" stroke="#263238" stroke-width="0.504988" stroke-linecap="round" stroke-linejoin="round"/>
<path d="M345.631 737.43C349.116 726.663 354.156 716.464 360.591 707.155C370.493 693.228 399.414 701.67 399.414 701.67C407.322 702.204 404.508 746.121 379.112 752.888C368.427 755.773 383.493 759.264 393.359 757.269C403.226 755.275 425.166 761.258 417.223 773.19C409.281 785.122 387.34 799.049 375.408 799.049C361.209 799.488 347.254 795.287 335.658 787.081C321.767 777.144 309.871 749.184 309.871 731.375C309.871 713.566 327.751 699.675 345.631 737.43Z" fill="#92E3A9"/>
<path d="M364.153 742.985C364.153 742.985 328.285 788.754 322.088 809.733Z" fill="#92E3A9"/>
<path d="M364.153 742.985C364.153 742.985 328.285 788.754 322.088 809.733" stroke="#263238" stroke-width="0.504988" stroke-linecap="round" stroke-linejoin="round"/>
<path d="M1322.45 746.797C1316.11 737.456 1311.16 727.247 1307.74 716.487C1302.94 700.067 1327.4 682.543 1327.4 682.543C1332.68 676.63 1365.55 705.944 1355.22 730.093C1350.77 740.422 1362.95 730.591 1367.51 721.544C1372.07 712.497 1390.24 698.962 1394.72 712.569C1399.21 726.175 1396.65 751.962 1389.31 761.365C1380.91 772.808 1369 781.199 1355.4 785.265C1339.02 790.073 1309.77 782.309 1295.7 771.267C1281.64 760.225 1281.71 737.608 1322.45 746.797Z" fill="#92E3A9"/>
<path d="M1338.27 735.684C1338.27 735.684 1352.16 792.102 1364.88 809.947" stroke="#263238" stroke-width="0.504988" stroke-linecap="round" stroke-linejoin="round"/>
<path d="M1695.27 1178.99C1688.92 1169.64 1683.96 1159.42 1680.56 1148.64C1675.75 1132.26 1700.18 1114.7 1700.18 1114.7C1705.49 1108.82 1738.33 1138.1 1728 1162.28C1723.58 1172.61 1735.73 1162.74 1740.29 1153.7C1744.85 1144.65 1763.05 1131.15 1767.54 1144.76C1772.02 1158.36 1769.46 1184.12 1762.12 1193.52C1753.71 1204.95 1741.81 1213.33 1728.21 1217.42C1711.83 1222.26 1682.59 1214.46 1668.52 1203.46C1654.45 1192.45 1654.52 1169.76 1695.27 1178.99Z" fill="#92E3A9"/>
<path d="M1711.08 1167.84C1711.08 1167.84 1724.97 1224.29 1737.69 1242.1Z" fill="#92E3A9"/>
<path d="M1711.08 1167.84C1711.08 1167.84 1724.97 1224.29 1737.69 1242.1" stroke="#263238" stroke-width="0.504988" stroke-linecap="round" stroke-linejoin="round"/>
<path d="M836.554 519.59C847.664 521.337 858.461 524.684 868.611 529.528C883.891 537.15 880.08 566.998 880.08 566.998C880.756 574.905 836.946 578.965 826.296 554.923C821.773 544.665 820.669 560.266 824.195 569.776C827.721 579.286 825.192 601.832 812.192 595.813C799.191 589.793 782.059 570.381 780.135 558.592C777.59 544.681 779.627 530.32 785.941 517.667C793.599 502.387 819.208 486.287 836.875 483.509C854.541 480.731 871.068 496.047 836.554 519.59Z" fill="#92E3A9"/>
<path d="M833.918 538.752C833.918 538.752 783.162 510.257 761.435 507.586Z" fill="#92E3A9"/>
<path d="M833.918 538.752C833.918 538.752 783.162 510.257 761.435 507.586" stroke="#263238" stroke-width="0.504988" stroke-linecap="round" stroke-linejoin="round"/>
<path d="M613.088 1325.23C620.667 1326.4 628.035 1328.67 634.958 1331.97C645.358 1337.17 642.758 1357.43 642.758 1357.43C643.221 1362.81 613.444 1365.55 606.214 1349.24C603.115 1342.12 602.403 1352.8 604.789 1359.32C607.176 1365.84 605.466 1381.08 596.633 1377.13C587.799 1373.18 576.152 1359.85 574.906 1351.88C573.081 1342.4 574.407 1332.6 578.681 1323.95C583.881 1313.55 601.299 1302.58 613.302 1300.73C625.305 1298.88 636.525 1309.24 613.088 1325.23Z" fill="#92E3A9"/>
<path d="M611.305 1338.23C611.305 1338.23 576.791 1319 562.045 1317.08Z" fill="#92E3A9"/>
<path d="M611.305 1338.23C611.305 1338.23 576.791 1319 562.045 1317.08" stroke="#263238" stroke-width="0.504988" stroke-linecap="round" stroke-linejoin="round"/>
<path d="M341.677 1110.56C347.314 1105.31 353.685 1100.91 360.59 1097.49C371.276 1092.54 385.523 1107.11 385.523 1107.11C390.046 1110.03 373.84 1135.17 356.53 1130.79C349.121 1128.91 357.029 1136.03 363.654 1138.13C370.279 1140.23 381.213 1151.02 372.522 1155.48C363.832 1159.93 346.308 1160.93 339.22 1156.97C330.656 1152.54 323.768 1145.44 319.594 1136.74C314.643 1126.27 316.78 1105.79 322.693 1095.18C328.605 1084.56 343.565 1082.25 341.677 1110.56Z" fill="#92E3A9"/>
<path d="M350.832 1120C350.832 1120 314.288 1135.28 303.781 1145.72Z" fill="#92E3A9"/>
<path d="M350.832 1120C350.832 1120 314.288 1135.28 303.781 1145.72" stroke="#263238" stroke-width="0.504988" stroke-linecap="round" stroke-linejoin="round"/>
<path d="M1674.5 722.079C1682.08 723.266 1689.45 725.545 1696.37 728.846C1706.77 734.047 1704.17 754.313 1704.17 754.313C1704.64 759.692 1674.86 762.434 1667.63 746.121C1664.53 738.998 1663.82 749.683 1666.2 756.201C1668.59 762.719 1666.88 777.964 1658.05 774.01C1649.21 770.056 1637.57 756.735 1636.32 748.721C1634.5 739.25 1635.83 729.445 1640.1 720.797C1645.3 710.432 1662.71 699.426 1674.72 697.609C1686.72 695.793 1697.94 706.087 1674.5 722.079Z" fill="#92E3A9"/>
<path d="M1672.72 735.115C1672.72 735.115 1638.21 715.881 1623.46 713.958Z" fill="#92E3A9"/>
<path d="M1672.72 735.115C1672.72 735.115 1638.21 715.881 1623.46 713.958" stroke="#263238" stroke-width="0.504988" stroke-linecap="round" stroke-linejoin="round"/>
<path d="M418.044 665.232C418.044 665.232 441.089 656.007 482.583 665.232C524.078 674.457 563.258 704.412 625.518 713.672C687.779 722.933 726.958 702.132 733.868 667.547C740.778 632.962 708.508 628.367 687.565 644.502C666.622 660.637 687.565 688.312 687.565 688.312" stroke="#263238" stroke-width="0.378741" stroke-linecap="round" stroke-linejoin="round" stroke-dasharray="1.01 1.01"/>
<path d="M613.978 736.718C613.978 736.718 643.968 748.223 694.688 736.718C745.408 725.214 750.003 667.548 789.182 637.593C828.362 607.639 860.668 639.873 860.668 667.548C860.668 695.223 839.902 699.818 819.173 699.818" stroke="#263238" stroke-width="0.378741" stroke-linecap="round" stroke-linejoin="round" stroke-dasharray="1.01 1.01"/>
<path d="M1193.06 1271.59C1193.06 1271.59 1223.01 1257.77 1262.23 1294.64C1301.44 1331.5 1347.53 1373 1409.75 1368.4C1471.98 1363.81 1497.38 1308.39 1550.23 1296.95C1603.09 1285.52 1628.59 1317.68 1628.59 1338.45C1628.59 1359.21 1594.01 1386.85 1575.56 1366.12" stroke="#263238" stroke-width="0.378741" stroke-linecap="round" stroke-linejoin="round" stroke-dasharray="1.01 1.01"/>
<path d="M1119.25 1317.68C1119.25 1317.68 1195.33 1294.64 1234.51 1326.91C1273.69 1359.18 1308.28 1407.62 1365.91 1407.62" stroke="#263238" stroke-width="0.378741" stroke-linecap="round" stroke-linejoin="round" stroke-dasharray="1.01 1.01"/>
<path d="M590.792 1115.43H588.122C585.423 1115.43 582.762 1114.79 580.359 1113.56C577.955 1112.33 575.877 1110.55 574.296 1108.36C572.714 1106.17 571.674 1103.64 571.26 1100.97C570.846 1098.3 571.07 1095.58 571.914 1093.01C575.33 1082.52 581.105 1071.9 590.544 1070.28C610.664 1066.93 665.933 1083.64 665.933 1095.12C665.933 1106.61 665.933 1111.83 659.226 1111.83H617.371L583.899 1148.72L583.154 1148.09C581.43 1146.64 580.044 1144.83 579.093 1142.79C578.142 1140.75 577.649 1138.52 577.649 1136.26C577.649 1134.01 578.142 1131.78 579.093 1129.74C580.044 1127.7 581.43 1125.89 583.154 1124.43C586.221 1121.92 588.809 1118.87 590.792 1115.43V1115.43Z" fill="#263238" stroke="#263238" stroke-width="2.1274" stroke-linecap="round" stroke-linejoin="round"/>
<path d="M969.162 1426.86H1524.95C1524.95 1426.86 1605.31 1373.27 1588.54 1232.61C1571.77 1091.96 1481.42 1185.79 1447.95 1279.5H1200.17C1200.17 1279.5 1146.58 1172.38 1059.58 1185.79C972.578 1199.2 969.162 1426.86 969.162 1426.86Z" fill="#263238" stroke="#263238" stroke-width="2.1274" stroke-linecap="round" stroke-linejoin="round"/>
<path d="M1105.72 1398.98C1106.51 1361.72 1095.77 1325.14 1074.98 1294.21V1255.09H1007.97C953.948 1255.09 910.168 1319.49 910.168 1398.98C910.168 1478.46 953.948 1542.98 1007.97 1542.98H1074.98V1503.86C1095.8 1472.91 1106.53 1436.27 1105.72 1398.98V1398.98Z" fill="#263238" stroke="#263238" stroke-width="2.1274" stroke-linecap="round" stroke-linejoin="round"/>
<path d="M1074.98 1542.86C1128.96 1542.86 1172.72 1478.44 1172.72 1398.98C1172.72 1319.51 1128.96 1255.09 1074.98 1255.09C1021 1255.09 977.235 1319.51 977.235 1398.98C977.235 1478.44 1021 1542.86 1074.98 1542.86Z" fill="#263238"/>
<path opacity="0.2" d="M1074.98 1542.86C1128.96 1542.86 1172.72 1478.44 1172.72 1398.98C1172.72 1319.51 1128.96 1255.09 1074.98 1255.09C1021 1255.09 977.235 1319.51 977.235 1398.98C977.235 1478.44 1021 1542.86 1074.98 1542.86Z" fill="white" stroke="#263238" stroke-width="2.1274" stroke-linecap="round" stroke-linejoin="round"/>
<path d="M1074.98 1542.86C1128.96 1542.86 1172.72 1478.44 1172.72 1398.98C1172.72 1319.51 1128.96 1255.09 1074.98 1255.09C1021 1255.09 977.235 1319.51 977.235 1398.98C977.235 1478.44 1021 1542.86 1074.98 1542.86Z" stroke="#263238" stroke-width="2.1274" stroke-linecap="round" stroke-linejoin="round"/>
<path d="M501.741 1255.09H438.461C387.416 1255.09 346.058 1319.49 346.058 1398.98C346.058 1478.46 387.416 1542.98 438.461 1542.98H501.741C552.786 1542.98 594.145 1478.59 594.145 1399.1C594.145 1319.61 552.786 1255.09 501.741 1255.09Z" fill="#263238" stroke="#263238" stroke-width="2.1274" stroke-linecap="round" stroke-linejoin="round"/>
<path d="M1074.98 1513.8C1118.06 1513.8 1152.98 1462.39 1152.98 1398.98C1152.98 1335.56 1118.06 1284.15 1074.98 1284.15C1031.91 1284.15 996.985 1335.56 996.985 1398.98C996.985 1462.39 1031.91 1513.8 1074.98 1513.8Z" fill="white" stroke="#263238" stroke-width="2.1274" stroke-linecap="round" stroke-linejoin="round"/>
<path d="M1563.58 1398.98C1564.34 1363.08 1557.68 1327.42 1544.02 1294.21V1255.09H1484.84C1450.43 1255.09 1422.74 1319.49 1422.74 1398.98C1422.74 1478.46 1450.56 1542.86 1484.84 1542.86H1544.02V1503.74C1557.68 1470.54 1564.34 1434.87 1563.58 1398.98V1398.98Z" fill="#263238" stroke="#263238" stroke-width="2.1274" stroke-linecap="round" stroke-linejoin="round"/>
<path d="M1544.02 1542.86C1578.38 1542.86 1606.24 1478.44 1606.24 1398.98C1606.24 1319.51 1578.38 1255.09 1544.02 1255.09C1509.65 1255.09 1481.79 1319.51 1481.79 1398.98C1481.79 1478.44 1509.65 1542.86 1544.02 1542.86Z" fill="#263238"/>
<path opacity="0.2" d="M1544.02 1542.86C1578.38 1542.86 1606.24 1478.44 1606.24 1398.98C1606.24 1319.51 1578.38 1255.09 1544.02 1255.09C1509.65 1255.09 1481.79 1319.51 1481.79 1398.98C1481.79 1478.44 1509.65 1542.86 1544.02 1542.86Z" fill="white" stroke="#263238" stroke-width="2.1274" stroke-linecap="round" stroke-linejoin="round"/>
<path d="M1544.02 1542.86C1578.38 1542.86 1606.24 1478.44 1606.24 1398.98C1606.24 1319.51 1578.38 1255.09 1544.02 1255.09C1509.65 1255.09 1481.79 1319.51 1481.79 1398.98C1481.79 1478.44 1509.65 1542.86 1544.02 1542.86Z" stroke="#263238" stroke-width="2.1274" stroke-linecap="round" stroke-linejoin="round"/>
<path d="M1593.63 1398.98C1593.63 1462.38 1571.4 1513.8 1543.95 1513.8C1516.51 1513.8 1494.27 1462.38 1494.27 1398.98C1494.27 1335.57 1516.51 1284.15 1543.95 1284.15C1571.4 1284.15 1593.63 1335.57 1593.63 1398.98Z" fill="white" stroke="#263238" stroke-width="2.1274" stroke-linecap="round" stroke-linejoin="round"/>
<path d="M992.574 1434.12C992.574 1319.49 1032.44 1226.53 1081.56 1226.53C1130.68 1226.53 1170.55 1319.67 1170.55 1434.12C1170.55 1440.33 1170.55 1446.54 1170.18 1452.75H1487.2C1487.2 1446.54 1486.88 1440.33 1486.88 1434.12C1486.88 1319.43 1515.95 1226.28 1551.97 1226.28C1575.87 1226.28 1596.74 1267.82 1607.85 1329.55V1160.45C1607.87 1152.73 1605.17 1145.25 1600.23 1139.32C1595.3 1133.38 1588.43 1129.37 1580.84 1127.97L1579.29 1127.66C1557.37 1123.25 1517.81 1081.52 1456.27 1028.8C1394.73 976.079 1339.83 971.67 1339.83 971.67H784.666C774.175 971.673 763.979 975.144 755.665 981.544L566.386 1127.66C566.386 1127.66 396.917 1160.58 359.658 1197.96C322.398 1235.34 326.683 1452.57 326.683 1452.57H993.071C992.698 1446.67 992.574 1440.46 992.574 1434.12Z" fill="white" stroke="#263238" stroke-width="2.1274" stroke-linecap="round" stroke-linejoin="round"/>
<path d="M1203.53 971.67H784.666C774.175 971.673 763.979 975.144 755.666 981.544L566.387 1127.66H1102.43L1203.53 971.67Z" fill="white" stroke="#263238" stroke-width="2.1274" stroke-linecap="round" stroke-linejoin="round"/>
<path d="M984.128 1186.41C953.948 1186.78 901.226 1188.77 878.559 1197.96C859.654 1205.41 841.308 1214.21 823.664 1224.29H930.971L984.128 1186.41Z" fill="#263238" stroke="#263238" stroke-width="2.1274" stroke-linecap="round" stroke-linejoin="round"/>
<path d="M937.679 1257.33V1237.58H823.416L844.095 1256.64C843.764 1256.84 843.453 1257.07 843.164 1257.33H937.679Z" fill="#263238" stroke="#263238" stroke-width="2.1274" stroke-linecap="round" stroke-linejoin="round"/>
<path d="M948.672 1228.7V1257.33C953.106 1256.93 957.389 1255.52 961.19 1253.21C964.991 1250.89 968.209 1247.73 970.593 1243.98C981.585 1226.4 1006.3 1186.29 1006.3 1186.29L948.672 1228.7Z" fill="#263238" stroke="#263238" stroke-width="2.1274" stroke-linecap="round" stroke-linejoin="round"/>
<path d="M370.463 1256.58L391.143 1237.52H342.395C340.904 1243.73 339.476 1250.31 338.234 1257.27H371.395C371.106 1257.01 370.795 1256.78 370.463 1256.58Z" fill="#263238" stroke="#263238" stroke-width="2.1274" stroke-linecap="round" stroke-linejoin="round"/>
<path d="M354.131 1205.54C350.807 1211.44 348.122 1217.69 346.12 1224.16H391.142C379.14 1217.31 366.786 1211.09 354.131 1205.54V1205.54Z" fill="#263238" stroke="#263238" stroke-width="2.1274" stroke-linecap="round" stroke-linejoin="round"/>
<path d="M1102.43 1127.66H1427.77C1427.77 1127.66 1473.91 1112.26 1460.74 1055.13C1456.27 1035.76 1364.05 991.417 1350.89 991.417H1192.53L1102.43 1127.66Z" fill="#263238"/>
<path opacity="0.2" d="M1102.43 1127.66H1427.77C1427.77 1127.66 1473.91 1112.26 1460.74 1055.13C1456.27 1035.76 1364.05 991.418 1350.89 991.418H1192.53L1102.43 1127.66Z" fill="white" stroke="#263238" stroke-width="2.1274" stroke-linecap="round" stroke-linejoin="round"/>
<path d="M1102.43 1127.66H1427.77C1427.77 1127.66 1473.91 1112.26 1460.74 1055.13C1456.27 1035.76 1364.05 991.417 1350.89 991.417H1192.53L1102.43 1127.66Z" stroke="#263238" stroke-width="2.1274" stroke-linecap="round" stroke-linejoin="round"/>
<path d="M742.873 991.417L566.325 1127.66H1102.43L1190.67 991.417H742.873Z" fill="#263238" stroke="#263238" stroke-width="2.1274" stroke-linecap="round" stroke-linejoin="round"/>
<path d="M399.401 1228.7V1274.84L432.314 1299H698.161L759.701 1272.67V1228.7H399.401Z" fill="#263238" stroke="#263238" stroke-width="2.1274" stroke-linecap="round" stroke-linejoin="round"/>
<path opacity="0.3" d="M411.697 1228.7H399.401V1240.99H411.697V1228.7Z" fill="white" stroke="#263238" stroke-width="2.1274" stroke-linecap="round" stroke-linejoin="round"/>
<path opacity="0.3" d="M425.234 1242.3H412.938V1254.59H425.234V1242.3Z" fill="white" stroke="#263238" stroke-width="2.1274" stroke-linecap="round" stroke-linejoin="round"/>
<path opacity="0.3" d="M438.836 1255.9H426.541V1268.19H438.836V1255.9Z" fill="white" stroke="#263238" stroke-width="2.1274" stroke-linecap="round" stroke-linejoin="round"/>
<path opacity="0.3" d="M452.435 1269.44H440.139V1281.73H452.435V1269.44Z" fill="white" stroke="#263238" stroke-width="2.1274" stroke-linecap="round" stroke-linejoin="round"/>
<path opacity="0.3" d="M757.281 1228.7H744.985V1240.99H757.281V1228.7Z" fill="white" stroke="#263238" stroke-width="2.1274" stroke-linecap="round" stroke-linejoin="round"/>
<path opacity="0.3" d="M743.681 1242.3H731.385V1254.59H743.681V1242.3Z" fill="white" stroke="#263238" stroke-width="2.1274" stroke-linecap="round" stroke-linejoin="round"/>
<path opacity="0.3" d="M730.081 1255.9H717.785V1268.19H730.081V1255.9Z" fill="white" stroke="#263238" stroke-width="2.1274" stroke-linecap="round" stroke-linejoin="round"/>
<path opacity="0.3" d="M716.542 1269.44H704.247V1281.73H716.542V1269.44Z" fill="white" stroke="#263238" stroke-width="2.1274" stroke-linecap="round" stroke-linejoin="round"/>
<path opacity="0.3" d="M471.311 1269.44H459.015V1281.73H471.311V1269.44Z" fill="white" stroke="#263238" stroke-width="2.1274" stroke-linecap="round" stroke-linejoin="round"/>
<path opacity="0.3" d="M490.128 1269.44H477.832V1281.73H490.128V1269.44Z" fill="white" stroke="#263238" stroke-width="2.1274" stroke-linecap="round" stroke-linejoin="round"/>
<path opacity="0.3" d="M509.007 1269.44H496.711V1281.73H509.007V1269.44Z" fill="white" stroke="#263238" stroke-width="2.1274" stroke-linecap="round" stroke-linejoin="round"/>
<path opacity="0.3" d="M527.885 1269.44H515.589V1281.73H527.885V1269.44Z" fill="white" stroke="#263238" stroke-width="2.1274" stroke-linecap="round" stroke-linejoin="round"/>
<path opacity="0.3" d="M546.764 1269.44H534.468V1281.73H546.764V1269.44Z" fill="white" stroke="#263238" stroke-width="2.1274" stroke-linecap="round" stroke-linejoin="round"/>
<path opacity="0.3" d="M565.58 1269.44H553.285V1281.73H565.58V1269.44Z" fill="white" stroke="#263238" stroke-width="2.1274" stroke-linecap="round" stroke-linejoin="round"/>
<path opacity="0.3" d="M584.459 1269.44H572.164V1281.73H584.459V1269.44Z" fill="white" stroke="#263238" stroke-width="2.1274" stroke-linecap="round" stroke-linejoin="round"/>
<path opacity="0.3" d="M603.335 1269.44H591.039V1281.73H603.335V1269.44Z" fill="white" stroke="#263238" stroke-width="2.1274" stroke-linecap="round" stroke-linejoin="round"/>
<path opacity="0.3" d="M622.214 1269.44H609.918V1281.73H622.214V1269.44Z" fill="white" stroke="#263238" stroke-width="2.1274" stroke-linecap="round" stroke-linejoin="round"/>
<path opacity="0.3" d="M641.092 1269.44H628.796V1281.73H641.092V1269.44Z" fill="white" stroke="#263238" stroke-width="2.1274" stroke-linecap="round" stroke-linejoin="round"/>
<path opacity="0.3" d="M659.908 1269.44H647.613V1281.73H659.908V1269.44Z" fill="white" stroke="#263238" stroke-width="2.1274" stroke-linecap="round" stroke-linejoin="round"/>
<path opacity="0.3" d="M678.787 1269.44H666.491V1281.73H678.787V1269.44Z" fill="white" stroke="#263238" stroke-width="2.1274" stroke-linecap="round" stroke-linejoin="round"/>
<path opacity="0.3" d="M697.663 1269.44H685.368V1281.73H697.663V1269.44Z" fill="white" stroke="#263238" stroke-width="2.1274" stroke-linecap="round" stroke-linejoin="round"/>
<path d="M887.129 1356.13H340.034L332.707 1297.51C329.353 1329.73 327.863 1364.08 327.18 1392.27L329.105 1400.09L340.034 1378.11H386.981L357.67 1402.27H792.366L776.779 1378.11H886.819L917.558 1395.68H939.541V1283.91L887.129 1356.13Z" fill="#263238" stroke="#263238" stroke-width="2.1274" stroke-linecap="round" stroke-linejoin="round"/>
<path d="M1316.8 1127.66H1335.12C1333.19 1100.71 1325.49 1041.34 1295.31 991.417H1276.68C1287.55 1014.39 1312.64 1073.57 1316.8 1127.66Z" fill="#263238" stroke="#263238" stroke-width="2.1274" stroke-linecap="round" stroke-linejoin="round"/>
<path d="M920.6 1028.43L927.307 1047.06C919.055 1054.95 914.236 1065.77 913.894 1077.18V1127.91H872.722L907.187 1028.55L920.6 1028.43ZM728.092 1053.27C699.837 1070.47 657.113 1108.41 636.434 1127.42H774.046L845.274 1018.12L798.389 1021.47C773.657 1029.04 750.024 1039.81 728.092 1053.52V1053.27ZM1012.69 1039.98L995.927 1036.63H972.515L965.809 1043.33C965.809 1043.33 982.575 1045.01 984.438 1055.07C985.591 1065.07 986.151 1075.12 986.115 1085.19H997.852C997.852 1085.19 997.852 1066.56 1006.24 1058.42C1010.97 1053.63 1016.01 1049.15 1021.33 1045.01L1012.69 1039.98Z" fill="#525252" stroke="#263238" stroke-width="2.1274" stroke-linecap="round" stroke-linejoin="round"/>
<path d="M1216.94 1115.43H1214.21C1211.51 1115.43 1208.85 1114.79 1206.44 1113.56C1204.04 1112.33 1201.96 1110.55 1200.38 1108.36C1198.8 1106.17 1197.76 1103.64 1197.35 1100.97C1196.93 1098.3 1197.16 1095.58 1198 1093.01C1201.42 1082.52 1207.19 1071.9 1216.94 1070.28C1237 1066.93 1292.27 1083.64 1292.27 1095.12C1292.27 1106.61 1292.27 1111.83 1285.56 1111.83H1243.7L1210.42 1148.96L1209.67 1148.34C1207.95 1146.89 1206.56 1145.08 1205.61 1143.04C1204.66 1140.99 1204.17 1138.77 1204.17 1136.51C1204.17 1134.26 1204.66 1132.03 1205.61 1129.99C1206.56 1127.95 1207.95 1126.13 1209.67 1124.68C1212.6 1122.03 1215.05 1118.9 1216.94 1115.43V1115.43Z" fill="white" stroke="#263238" stroke-width="2.1274" stroke-linecap="round" stroke-linejoin="round"/>
<path d="M1209.49 1148.34L1210.23 1148.96L1243.7 1112.08H1285.56C1291.09 1112.08 1291.77 1108.6 1292.2 1100.78H1197.38C1197.93 1104.84 1199.95 1108.57 1203.04 1111.26C1206.14 1113.96 1210.1 1115.44 1214.21 1115.43H1216.94C1215 1118.91 1212.48 1122.04 1209.49 1124.68C1207.76 1126.14 1206.38 1127.95 1205.43 1129.99C1204.47 1132.03 1203.98 1134.26 1203.98 1136.51C1203.98 1138.77 1204.47 1140.99 1205.43 1143.04C1206.38 1145.08 1207.76 1146.89 1209.49 1148.34V1148.34Z" fill="#263238" stroke="#263238" stroke-width="2.1274" stroke-linecap="round" stroke-linejoin="round"/>
<path d="M1312.88 1168.09H1275.19V1176.16H1312.88V1168.09Z" fill="#263238" stroke="#263238" stroke-width="2.1274" stroke-linecap="round" stroke-linejoin="round"/>
<path d="M1482.41 1168.09H1444.72V1176.16H1482.41V1168.09Z" fill="#263238" stroke="#263238" stroke-width="2.1274" stroke-linecap="round" stroke-linejoin="round"/>
<path d="M1485.08 1135.8C1485.08 1135.8 1512.34 1154.43 1528.18 1219.26C1528.18 1219.26 1460.86 1227.33 1460.86 1413.01" stroke="#263238" stroke-width="2.1274" stroke-linecap="round" stroke-linejoin="round"/>
<path d="M1452.61 1421.08H1170.36C1170.36 1425.22 1170.36 1429.57 1170.36 1434.12C1170.36 1440.33 1170.36 1446.54 1169.99 1452.75H1487.01C1487.01 1446.54 1486.7 1440.33 1486.7 1434.12C1486.7 1433.69 1486.7 1433.25 1486.7 1432.82L1452.61 1421.08Z" fill="#263238" stroke="#263238" stroke-width="2.1274" stroke-linecap="round" stroke-linejoin="round"/>
<path d="M992.574 1434.12C992.574 1429.78 992.574 1425.43 992.574 1421.08H326.745C326.745 1440.46 326.745 1452.82 326.745 1452.82H993.071C992.698 1446.67 992.574 1440.46 992.574 1434.12Z" fill="#263238" stroke="#263238" stroke-width="2.1274" stroke-linecap="round" stroke-linejoin="round"/>
<path d="M1595.93 1151.76C1592.58 1151.76 1589.29 1152.63 1586.38 1154.29C1583.46 1155.95 1581.03 1158.33 1579.32 1161.21C1577.61 1164.1 1576.68 1167.37 1576.62 1170.72C1576.56 1174.07 1577.37 1177.38 1578.98 1180.32L1607.73 1233.05V1160.45C1607.7 1157.57 1607.28 1154.71 1606.49 1151.94H1595.93V1151.76Z" fill="#263238" stroke="#263238" stroke-width="2.1274" stroke-linecap="round" stroke-linejoin="round"/>
<path d="M1337.47 1155.61C1337.47 1155.61 1397.71 1242.55 1337.47 1389.97" stroke="#263238" stroke-width="2.1274" stroke-linecap="round" stroke-linejoin="round"/>
</svg>
