<svg width="2000" height="2000" viewBox="0 0 2000 2000" fill="none" xmlns="http://www.w3.org/2000/svg">
<path d="M754.931 1709.22C442.656 1709.22 188.626 1455.16 188.626 1142.92C188.626 830.674 442.747 576.583 754.931 576.583C1067.11 576.583 1321.24 830.643 1321.24 1142.92C1321.24 1455.19 1067.3 1709.22 754.931 1709.22ZM754.931 612.778C462.624 612.778 224.821 850.611 224.821 1142.92C224.821 1435.22 462.714 1673.03 754.931 1673.03C1047.15 1673.03 1285.13 1435.22 1285.13 1142.92C1285.13 850.611 1047.33 612.778 754.931 612.778Z" fill="#263238"/>
<path d="M1325.47 1391.49C1326.07 1369.81 1068.63 1345.16 750.478 1336.44C432.322 1327.72 173.924 1338.23 173.33 1359.91C172.736 1381.59 430.17 1406.24 748.326 1414.96C1066.48 1423.68 1324.88 1413.17 1325.47 1391.49Z" fill="#263238"/>
<path d="M199.303 1276.09L321.341 1287.13C321.341 1287.13 309.276 1167.74 287.227 1140.47C265.178 1113.21 217.31 1107.96 195.141 1152.3C172.971 1196.64 199.303 1276.09 199.303 1276.09Z" fill="#263238"/>
<path d="M322.999 1288.69L198.185 1277.47L197.854 1276.54C196.918 1273.28 171.582 1196.03 193.902 1151.63C203.645 1132.15 219.329 1120.3 238.06 1118.21C247.561 1117.29 257.142 1118.74 265.948 1122.42C274.753 1126.11 282.509 1131.92 288.523 1139.33C310.722 1166.66 322.456 1281.91 322.938 1286.79L322.999 1288.69ZM200.417 1274.67L319.651 1285.38C318.022 1270.29 306.198 1166.11 286.049 1141.32C280.368 1134.28 273.03 1128.76 264.691 1125.26C256.353 1121.75 247.275 1120.37 238.272 1121.23C220.596 1123.16 205.756 1134.44 196.466 1152.99C176.136 1193.62 197.582 1265.62 200.417 1274.67Z" fill="#263238"/>
<path d="M302.489 1168.38H247.352V1358.55H302.489C324.568 1358.55 342.455 1315.99 342.455 1263.48C342.455 1210.96 324.659 1168.38 302.489 1168.38Z" fill="#263238"/>
<path d="M302.49 1360.06H245.845V1166.87H302.49C325.746 1166.87 343.964 1209.31 343.964 1263.39C343.964 1317.47 325.836 1360.06 302.49 1360.06ZM248.771 1357.04H302.49C323.604 1357.04 340.948 1315.06 340.948 1263.54C340.948 1212.02 323.695 1170.03 302.49 1170.03H248.861L248.771 1357.04Z" fill="#263238"/>
<path d="M247.351 1358.58C269.424 1358.58 287.317 1316 287.317 1263.48C287.317 1210.95 269.424 1168.38 247.351 1168.38C225.279 1168.38 207.386 1210.95 207.386 1263.48C207.386 1316 225.279 1358.58 247.351 1358.58Z" fill="#878787"/>
<path d="M247.352 1360.06C224.066 1360.06 205.848 1317.62 205.848 1263.54C205.848 1209.46 223.945 1167.02 247.352 1167.02C270.758 1167.02 288.825 1209.46 288.825 1263.54C288.825 1317.62 270.607 1360.06 247.352 1360.06ZM247.352 1169.88C226.238 1169.88 208.864 1211.87 208.864 1263.39C208.864 1314.91 226.117 1356.89 247.352 1356.89C268.586 1356.89 285.809 1314.91 285.809 1263.39C285.809 1211.87 268.556 1169.88 247.352 1169.88Z" fill="#263238"/>
<path d="M247.351 1344.16C265.942 1344.16 281.013 1309.78 281.013 1267.37C281.013 1224.96 265.942 1190.58 247.351 1190.58C228.76 1190.58 213.689 1224.96 213.689 1267.37C213.689 1309.78 228.76 1344.16 247.351 1344.16Z" fill="white"/>
<path d="M247.352 1345.67C227.626 1345.67 212.152 1311.29 212.152 1267.25C212.152 1223.21 227.626 1188.83 247.352 1188.83C267.079 1188.83 282.522 1223.21 282.522 1267.25C282.522 1311.29 267.079 1345.67 247.352 1345.67ZM247.352 1192.08C229.617 1192.08 215.169 1225.87 215.169 1267.49C215.169 1309.12 229.617 1342.9 247.352 1342.9C265.088 1342.9 279.506 1309.12 279.506 1267.49C279.506 1225.87 265.058 1192.08 247.352 1192.08Z" fill="#263238"/>
<path d="M728.174 1143.4H665.255C640.099 1143.4 619.709 1188.46 619.709 1244.05C619.709 1299.64 640.099 1344.68 665.255 1344.68H728.174C753.36 1344.68 773.75 1299.61 773.75 1244.05C773.75 1188.49 753.36 1143.4 728.174 1143.4Z" fill="#263238"/>
<path d="M728.175 1346.18H665.256C639.316 1346.18 618.202 1300.37 618.202 1244.05C618.202 1187.74 639.316 1141.89 665.256 1141.89H728.175C754.145 1141.89 775.259 1187.71 775.259 1244.05C775.259 1300.4 754.145 1346.18 728.175 1346.18ZM665.256 1144.91C640.975 1144.91 621.218 1189.4 621.218 1244.05C621.218 1298.71 640.975 1343.17 665.256 1343.17H728.175C752.487 1343.17 772.243 1298.71 772.243 1244.05C772.243 1189.4 752.487 1144.91 728.175 1144.91H665.256Z" fill="#263238"/>
<path d="M791.578 1174.68H716.171V1398.73H791.578C821.74 1398.73 846.172 1348.6 846.172 1286.76C846.172 1224.93 821.74 1174.68 791.578 1174.68Z" fill="#263238"/>
<path d="M791.578 1400.15H714.663V1173.17H791.578C822.525 1173.17 847.681 1224.09 847.681 1286.67C847.681 1349.26 822.525 1400.15 791.578 1400.15ZM717.679 1397.13H791.578C820.866 1397.13 844.664 1347.57 844.664 1286.67C844.664 1225.78 820.866 1176.19 791.578 1176.19H717.679V1397.13Z" fill="#263238"/>
<path d="M716.172 1398.64C746.323 1398.64 770.766 1348.51 770.766 1286.67C770.766 1224.84 746.323 1174.71 716.172 1174.71C686.02 1174.71 661.577 1224.84 661.577 1286.67C661.577 1348.51 686.02 1398.64 716.172 1398.64Z" fill="#878787"/>
<path d="M716.171 1400.15C685.224 1400.15 660.068 1349.23 660.068 1286.67C660.068 1224.12 685.224 1173.17 716.171 1173.17C747.118 1173.17 772.274 1224.09 772.274 1286.67C772.274 1349.26 747.088 1400.15 716.171 1400.15ZM716.171 1176.19C686.883 1176.19 663.085 1225.75 663.085 1286.67C663.085 1347.6 686.883 1397.13 716.171 1397.13C745.459 1397.13 769.257 1347.57 769.257 1286.67C769.257 1225.78 745.429 1176.19 716.171 1176.19Z" fill="#263238"/>
<path d="M716.17 1381.69C741.557 1381.69 762.138 1341.2 762.138 1291.26C762.138 1241.32 741.557 1200.83 716.17 1200.83C690.783 1200.83 670.202 1241.32 670.202 1291.26C670.202 1341.2 690.783 1381.69 716.17 1381.69Z" fill="white"/>
<path d="M716.171 1383.19C689.99 1383.19 668.695 1341.96 668.695 1291.26C668.695 1240.55 689.99 1199.32 716.171 1199.32C742.353 1199.32 763.648 1240.58 763.648 1291.26C763.648 1341.93 742.353 1383.19 716.171 1383.19ZM716.171 1202.22C691.649 1202.22 671.712 1242.12 671.712 1291.14C671.712 1340.15 691.649 1380.06 716.171 1380.06C740.694 1380.06 760.631 1340.18 760.631 1291.14C760.631 1242.09 740.694 1202.34 716.171 1202.34V1202.22Z" fill="#263238"/>
<path d="M1219.07 1152H1143.67C1113.5 1152 1089.07 1202.13 1089.07 1263.96C1089.07 1325.79 1113.5 1375.95 1143.67 1375.95H1219.07C1249.24 1375.95 1273.67 1325.79 1273.67 1263.96C1273.67 1202.13 1249.21 1152 1219.07 1152Z" fill="#263238"/>
<path d="M1219.07 1377.61H1143.67C1112.75 1377.61 1087.56 1326.7 1087.56 1264.11C1087.56 1201.52 1112.75 1150.64 1143.67 1150.64H1219.07C1249.99 1150.64 1275.18 1201.55 1275.18 1264.11C1275.18 1326.67 1249.99 1377.61 1219.07 1377.61ZM1143.67 1153.65C1114.41 1153.65 1090.58 1203.21 1090.58 1264.11C1090.58 1325.01 1114.41 1374.6 1143.67 1374.6H1219.07C1248.33 1374.6 1272.16 1325.04 1272.16 1264.11C1272.16 1203.18 1248.33 1153.65 1219.07 1153.65H1143.67Z" fill="#263238"/>
<path d="M479.031 895.916C466.286 897.3 453.657 899.588 441.237 902.763C414.416 909.562 388.19 918.519 362.814 929.548C313.619 951.506 253.866 996.147 235.708 1004.44C217.55 1012.74 189.559 1014.3 186.513 1026.4C184.179 1037.36 182.417 1048.44 181.234 1059.58C181.234 1059.58 169.169 1070.17 167.601 1099.67C166.032 1129.16 163.831 1227.53 166.093 1240.4C168.355 1253.28 167.601 1256.27 178.972 1262.33C190.344 1268.4 197.07 1275.97 199.392 1275.97C201.715 1275.97 186.422 1182.25 210.643 1160.44C234.864 1138.64 271.18 1143.79 286.291 1193.62C301.403 1243.45 296.124 1297.29 302.187 1300.31C306.503 1302.28 311.104 1303.57 315.82 1304.11L650.988 1331.25C650.988 1331.25 635.093 1259.38 653.25 1211.69C671.408 1164 706.216 1139.81 738.732 1151.94C771.247 1164.06 794.744 1220.01 801.53 1256.33C808.317 1292.65 810.579 1310.8 809.101 1323.68C807.623 1336.56 807.593 1342.6 817.426 1343.35C827.259 1344.1 1257.8 1330.5 1291.83 1326.7C1325.85 1322.9 1348.56 1318.38 1350.82 1309.3C1353.09 1300.22 1353.09 1305.53 1353.09 1300.25C1353.09 1294.97 1349.32 1204.93 1347.05 1192.05C1344.79 1179.17 1343.25 1170.13 1338 1162.55C1332.34 1155.21 1326.3 1148.16 1319.91 1141.44C1319.91 1141.44 1322.17 1124.79 1312.34 1113.45C1302.5 1102.11 1156.49 1045.34 1156.49 1045.34C1156.49 1045.34 1052.82 977.235 1014.24 954.553C975.66 931.87 914.369 909.309 853.078 899.325C791.788 889.341 691.919 885.691 634.429 884.937C590.241 884.334 512.753 892.206 479.031 895.916Z" fill="#92E3A9"/>
<path d="M819.629 1344.95H817.307C815.788 1344.95 814.285 1344.64 812.894 1344.03C811.502 1343.43 810.252 1342.54 809.223 1341.42C806.207 1337.83 806.689 1332.01 807.685 1323.5C809.132 1311.29 807.232 1294.4 800.144 1256.63C793.9 1223.27 771.58 1165.72 738.31 1153.35C706.79 1141.62 672.435 1165.84 654.76 1212.23C637.084 1258.62 652.377 1330.26 652.377 1330.98L652.799 1332.97L315.61 1305.56C310.705 1305.02 305.919 1303.69 301.434 1301.63C298.418 1300.07 297.754 1292.74 296.698 1274.85C295.492 1254.34 293.682 1223.33 284.633 1194.04C277.485 1170.52 264.877 1155.16 249.071 1150.79C236.463 1147.29 222.739 1151.18 211.428 1161.44C193.331 1177.88 198.036 1237.72 200.057 1263.27C201.022 1275.33 201.022 1276.21 200.238 1277.05L199.786 1277.53H199.062C197.523 1277.53 195.714 1276.15 192.456 1273.58C187.911 1269.88 183.046 1266.59 177.918 1263.75C167.149 1258.02 166.546 1254.34 164.917 1244.57C164.736 1243.39 164.525 1242.12 164.284 1240.74C161.931 1227.43 164.284 1126.42 165.762 1099.66C167.24 1072.91 177.163 1061.24 179.456 1058.95C180.673 1047.89 182.476 1036.9 184.855 1026.04C187.027 1017.35 199.936 1013.79 213.721 1010.02C220.93 1008.27 227.99 1005.95 234.835 1003.08C246.7 996.658 258.218 989.61 269.341 981.97C295.311 965.109 330.903 942.035 361.94 928.19C387.373 917.098 413.673 908.11 440.574 901.315C453.116 898.123 465.866 895.815 478.73 894.408L478.881 895.916L478.73 894.408C510.642 890.909 589.729 882.855 634.219 883.398C699.129 884.273 795.378 888.526 853.08 897.786C910.389 906.985 972.252 928.22 1014.75 953.225C1052.3 975.304 1152.66 1041.15 1156.94 1043.95C1164.75 1046.97 1303.35 1100.99 1313.24 1112.42C1322.29 1122.92 1321.57 1137.43 1321.23 1140.87C1327.53 1147.5 1333.48 1154.46 1339.06 1161.71C1344.43 1169.4 1346.03 1178.45 1348.11 1191L1348.26 1191.84C1350.55 1204.84 1354.29 1295.84 1354.29 1300.28C1354.29 1303.11 1354.29 1303.29 1353.81 1304.17C1352.93 1305.91 1352.32 1307.79 1352 1309.72C1349.47 1319.85 1327.03 1324.35 1291.68 1328.27C1258.65 1331.95 855.553 1344.95 819.629 1344.95ZM722.113 1147.44C727.968 1147.41 733.781 1148.44 739.276 1150.46C773.691 1163.28 796.585 1222 803.009 1256.03C810.158 1294.15 812.058 1311.26 810.61 1323.83C809.736 1331.31 809.283 1336.8 811.455 1339.46C812.248 1340.24 813.192 1340.85 814.229 1341.25C815.266 1341.66 816.375 1341.85 817.488 1341.81V1341.81C824.395 1341.81 1253.1 1329.44 1291.52 1325.16C1318.82 1322.14 1347.02 1317.83 1349.26 1308.9C1349.64 1306.68 1350.36 1304.54 1351.4 1302.54C1351.45 1301.76 1351.45 1300.97 1351.4 1300.19C1351.4 1295.78 1347.66 1205.2 1345.36 1192.26V1191.42C1343.19 1179.35 1341.65 1170.49 1336.68 1163.37C1331.02 1156.02 1324.98 1148.97 1318.58 1142.25L1318.1 1141.74V1141.02C1318.1 1140.87 1320.15 1124.88 1310.89 1114.2C1303.32 1105.46 1206.01 1066.12 1155.64 1046.55L1155.34 1046.4C1154.31 1045.7 1051.28 978.049 1013.15 955.638C970.925 930.814 909.423 909.73 852.537 900.591C795.016 891.361 698.918 887.108 634.098 886.234C589.729 885.66 510.853 893.744 479.002 897.243C466.279 898.621 453.669 900.898 441.268 904.06C414.532 910.807 388.394 919.735 363.117 930.754C332.29 944.508 296.759 967.522 270.909 984.323C259.705 992.102 248.096 999.28 236.132 1005.83C229.129 1008.76 221.908 1011.14 214.535 1012.95C201.656 1016.48 189.53 1019.79 187.781 1026.76C185.458 1037.72 183.696 1048.8 182.502 1059.94V1060.51L182.08 1060.91C182.08 1060.91 170.407 1071.55 168.959 1099.97C167.391 1130.52 165.219 1227.83 167.421 1240.34C167.662 1241.73 167.873 1243.03 168.085 1244.2C169.683 1253.86 170.045 1256.27 179.516 1261.22C184.841 1264.12 189.889 1267.5 194.598 1271.32C195.804 1272.26 197.101 1273.28 198.066 1273.94C198.066 1271.74 197.704 1267.73 197.373 1263.6C195.11 1235.4 190.465 1176.73 209.679 1159.3C221.744 1148.32 236.554 1144.22 250.187 1147.96C267.018 1152.63 280.35 1168.71 287.8 1193.2C296.849 1222.85 298.629 1254.07 299.865 1274.64C300.559 1286.01 301.253 1297.77 302.882 1298.77C307.033 1300.64 311.448 1301.86 315.972 1302.39L649.089 1329.53C646.736 1317.47 635.425 1254.13 651.834 1211.15C667.006 1171.39 694.303 1147.44 722.113 1147.44Z" fill="#263238"/>
<path d="M1052.73 1141.41L1074.65 1158.81L884.025 1143.67L815.918 1086.94L810.609 1065.73L948.332 1114.17L1052.73 1141.41Z" fill="#263238"/>
<path d="M1079.48 1160.68L883.423 1145.12L883.031 1144.82L814.562 1087.78L808.529 1063.38L948.876 1112.73L1053.54 1140.02L1079.48 1160.68ZM884.63 1142.35L1069.89 1157.07L1052.06 1142.92L947.971 1115.77L812.782 1068.24L817.277 1086.33L884.63 1142.35Z" fill="#263238"/>
<path d="M969.266 1150.43L986.157 1141.38H1047.51C1047.51 1141.38 980.155 1136.07 975.63 1136.07C971.106 1136.07 955.934 1142.1 949.901 1143.64C943.869 1145.18 921.156 1145.15 911.293 1139.84C901.43 1134.53 890.873 1112.69 890.873 1112.69L981.874 1122.95L948.393 1114.23L833.956 1073.94C824.243 1078.22 822.916 1090.46 822.735 1092.61L823.459 1093.21L874.163 1109.62L905.079 1145.36L969.266 1150.43Z" fill="white"/>
<path d="M969.598 1151.97L904.356 1146.81L873.318 1110.91L822.494 1094.39L821.197 1093.27V1092.52C821.378 1089.98 822.856 1077.16 833.262 1072.55L833.805 1072.31L948.755 1112.72L982.145 1121.44L981.602 1124.46L893.377 1114.53C896.393 1120.33 904.507 1134.65 911.897 1138.66C921.277 1143.73 943.326 1143.85 949.419 1142.31C951.591 1141.77 955.12 1140.6 958.83 1139.3C964.203 1137.15 969.797 1135.6 975.51 1134.68C980.034 1134.68 1044.88 1139.78 1047.48 1139.99V1143.01H986.519L969.598 1151.97ZM905.743 1143.88L969.085 1148.89L985.886 1139.84H1008.3C992.552 1138.63 977.591 1137.55 975.57 1137.55C970.199 1138.52 964.936 1140.02 959.855 1142.01C956.085 1143.28 952.526 1144.49 950.203 1145.03C943.597 1146.69 920.674 1146.57 910.539 1141.11C900.405 1135.65 889.908 1113.96 889.425 1113.21L888.249 1110.76L961.032 1118.97L947.971 1115.62L834.047 1075.56C826.476 1079.3 824.726 1088.59 824.364 1091.91L875.068 1108.32L905.743 1143.88Z" fill="#263238"/>
<path d="M1259.91 1139.93L1244.16 1140.89L1244.35 1143.9L1260.09 1142.94L1259.91 1139.93Z" fill="#263238"/>
<path d="M1097.43 1147.47L1064.7 1144.46L1064.97 1141.44L1097.34 1144.46C1101.02 1143.88 1157.45 1135.41 1185.26 1137.67C1206.74 1139.36 1223.99 1140.69 1231.35 1141.17L1231.14 1144.19C1223.78 1143.67 1206.5 1142.41 1185.02 1140.69C1156.73 1138.49 1098.18 1147.41 1097.55 1147.5L1097.43 1147.47Z" fill="#263238"/>
<path d="M1312.25 1113.42C1309.53 1110.4 1296.56 1103.74 1279.07 1095.89L1276.59 1096.77C1276.59 1096.77 1290.2 1106.6 1287.18 1116.44C1284.16 1126.27 1266.07 1137.55 1266.07 1137.55L1266.82 1154.2C1266.82 1154.2 1310.71 1151.18 1319.79 1141.35C1319.82 1141.41 1321.99 1124.76 1312.25 1113.42Z" fill="white"/>
<path d="M1265.4 1155.86L1264.53 1136.79L1265.28 1136.34C1265.46 1136.34 1283.02 1125.18 1285.82 1115.98C1288.51 1107.3 1275.93 1098.07 1275.81 1097.88L1273.46 1096.2L1279.25 1094.17L1279.79 1094.45C1299.76 1103.5 1310.77 1109.29 1313.39 1112.33C1323.56 1124.07 1321.38 1140.81 1321.29 1141.5V1141.98L1320.96 1142.34C1311.61 1152.48 1268.81 1155.56 1267 1155.68L1265.4 1155.86ZM1267.64 1138.42L1268.27 1152.63C1275.96 1152 1310.07 1148.74 1318.37 1140.57C1318.61 1137.82 1319.45 1123.89 1311.1 1114.23C1309.56 1112.48 1303.05 1108.2 1280.94 1098.19C1285.01 1102.02 1291.04 1109.23 1288.75 1116.74C1285.79 1126.09 1271.19 1136.1 1267.7 1138.42H1267.64Z" fill="#263238"/>
<path d="M1295.6 1141.41C1291.04 1136.86 1270.62 1139.12 1270.62 1139.12C1270.62 1139.12 1280.46 1136.86 1285.7 1135.35C1290.95 1133.84 1291.74 1132.33 1294.03 1121.71C1294.77 1118.89 1294.58 1115.89 1293.5 1113.18C1292.41 1110.47 1290.48 1108.17 1288 1106.63L1277.5 1096.5L1276.65 1096.8C1276.65 1096.8 1290.26 1106.63 1287.24 1116.47C1284.23 1126.3 1266.13 1137.58 1266.13 1137.58L1266.88 1154.23C1277.97 1153.39 1288.99 1151.84 1299.88 1149.58C1299.29 1146.5 1297.8 1143.65 1295.6 1141.41V1141.41Z" fill="#263238"/>
<path d="M1265.4 1155.86L1264.53 1136.8L1265.28 1136.34C1265.46 1136.34 1283.02 1125.18 1285.82 1115.98C1288.51 1107.3 1275.93 1098.07 1275.81 1097.89L1273.46 1096.2L1277.92 1094.63L1288.96 1105.31C1291.67 1107.04 1293.76 1109.58 1294.94 1112.57C1296.13 1115.55 1296.35 1118.84 1295.57 1121.96C1293.24 1132.69 1292.28 1134.96 1286.19 1136.7L1284.98 1137.04C1289.83 1137.31 1294.54 1138.15 1296.65 1140.23C1299.07 1142.72 1300.7 1145.87 1301.33 1149.28L1301.6 1150.73L1300.18 1151.06C1289.23 1153.34 1278.15 1154.9 1267 1155.74L1265.4 1155.86ZM1267.64 1138.42L1268.27 1152.63C1278.26 1151.83 1288.19 1150.44 1298.01 1148.47C1297.38 1146.2 1296.19 1144.12 1294.54 1142.44V1142.44C1291.52 1139.42 1278.4 1139.75 1270.8 1140.6L1270.29 1137.58C1270.29 1137.58 1280.15 1135.29 1285.37 1133.81C1289.71 1132.57 1290.35 1132 1292.64 1121.32C1293.25 1118.99 1293.16 1116.54 1292.39 1114.26C1291.62 1111.98 1290.19 1109.98 1288.3 1108.5C1289.38 1111.14 1289.54 1114.06 1288.75 1116.8C1285.79 1126.09 1271.19 1136.1 1267.7 1138.42H1267.64Z" fill="#263238"/>
<path d="M1321.99 1174.68C1321.99 1174.68 1212.29 1190.58 1021.63 1179.23C1021.63 1179.23 1035.23 1196.64 1069.29 1203.36C1103.34 1210.09 1205.47 1208.67 1257.68 1203.36C1309.89 1198.06 1311.4 1194.32 1317.43 1188.28C1319.2 1186.52 1320.52 1184.38 1321.31 1182.02C1322.1 1179.66 1322.33 1177.14 1321.99 1174.68V1174.68Z" fill="#263238"/>
<path d="M1149.37 1209.49C1116.01 1209.49 1085.24 1208.16 1069.07 1204.93C1034.87 1198.09 1021.09 1180.8 1020.51 1180.17L1018.46 1177.51L1021.81 1177.73C1210.09 1188.92 1320.75 1173.35 1321.87 1173.2L1323.29 1172.99L1323.56 1174.38C1323.98 1177.1 1323.75 1179.89 1322.89 1182.51C1322.03 1185.13 1320.57 1187.51 1318.61 1189.46L1317.83 1190.24C1312.1 1196.06 1308.33 1199.93 1257.92 1205.02C1231.23 1207.65 1188.52 1209.49 1149.37 1209.49ZM1025.43 1180.95C1030.74 1186.02 1044.61 1196.94 1069.68 1202.07C1102.19 1208.58 1203.12 1207.59 1257.62 1202.07C1306.94 1197.06 1310.41 1193.53 1315.65 1188.16L1316.47 1187.35C1317.89 1185.93 1319 1184.24 1319.73 1182.38C1320.46 1180.51 1320.8 1178.52 1320.72 1176.52C1306.73 1178.21 1199.68 1191.06 1025.43 1180.95V1180.95Z" fill="#263238"/>
<path d="M1346.3 1300.28C1292.4 1308.04 1238.08 1312.59 1183.63 1313.91C1099.63 1315.42 1001.27 1306.34 985.403 1312.4C969.538 1318.46 952.858 1329.78 946.041 1332.07C939.224 1334.36 907.463 1335.84 907.463 1335.84C907.463 1335.84 973.278 1280.61 999.761 1272.29C1026.24 1263.96 1061.05 1263.24 1070.88 1263.24C1080.72 1263.24 1297.86 1256.39 1309.92 1255.64C1321.99 1254.88 1334.05 1261.67 1337.91 1269.27C1341.78 1276.87 1346.3 1300.28 1346.3 1300.28Z" fill="#263238"/>
<path d="M903.059 1337.56L906.497 1334.54C909.182 1332.28 972.855 1279.01 999.308 1270.69C1027.03 1262 1063.8 1261.64 1070.88 1261.64C1081.92 1261.64 1298.58 1254.79 1309.86 1254.07C1323.19 1253.25 1335.5 1260.91 1339.3 1268.52C1343.1 1276.12 1347.57 1298.98 1347.78 1299.94L1348.08 1301.48L1346.51 1301.72C1292.53 1309.45 1238.14 1314 1183.63 1315.36C1145.54 1316.02 1105.21 1314.57 1069.47 1313.28C1027.48 1311.74 994.331 1310.53 985.916 1313.73C976.973 1317.42 968.296 1321.72 959.945 1326.61C955.656 1329.23 951.168 1331.51 946.523 1333.43C939.586 1335.75 908.85 1337.23 907.523 1337.29L903.059 1337.56ZM1311.82 1256.96H1310.07C1298.76 1257.69 1081.92 1264.53 1070.88 1264.53C1063.86 1264.53 1027.51 1264.96 1000.21 1273.58C977.802 1280.61 925.922 1322.48 911.957 1333.91C921.005 1333.4 940.551 1332.13 945.588 1330.44C950.044 1328.56 954.358 1326.36 958.498 1323.86C966.966 1318.89 975.776 1314.53 984.86 1310.8C993.909 1307.36 1027.09 1308.6 1069.56 1310.14C1105.18 1311.44 1145.57 1312.88 1183.6 1312.22C1237.44 1310.98 1291.16 1306.63 1344.49 1299.19C1343.4 1293.85 1339.72 1276.27 1336.62 1270.08C1333.51 1263.9 1322.89 1256.96 1311.82 1256.96Z" fill="#263238"/>
<path d="M925.621 1183C925.621 1183 883.996 1310.86 878.718 1309.36C873.44 1307.85 868.131 1301.78 868.131 1298.77C868.131 1295.75 877.964 1211 886.228 1195.13C894.493 1179.26 925.621 1183 925.621 1183Z" fill="#263238"/>
<path d="M878.99 1310.92C878.76 1310.96 878.526 1310.96 878.296 1310.92C872.263 1309.24 866.623 1302.6 866.623 1298.86C866.623 1295.12 876.456 1210.69 884.932 1194.5C893.408 1178.3 924.505 1181.44 925.802 1181.62L927.612 1181.83L927.069 1183.58C927.069 1183.88 916.512 1215.91 905.593 1247.34C885.203 1305.74 881.192 1310.92 878.99 1310.92ZM917.809 1184.24C908.338 1184.24 892.895 1185.84 887.646 1195.91C879.714 1211 869.549 1295.45 869.549 1298.86C869.549 1300.85 873.711 1306.19 878.598 1307.91C883.967 1302.12 908.61 1230.42 923.6 1184.48C922.243 1184.24 920.222 1184.15 917.809 1184.15V1184.24Z" fill="#263238"/>
<path d="M788.743 1166.02L787.688 1163.19C789.527 1162.52 791.458 1161.83 793.509 1161.17C807.052 1156.64 872.565 1142.04 875.37 1141.44L876.004 1144.46C875.34 1144.61 807.836 1159.54 794.565 1164.06C792.453 1164.7 790.523 1165.36 788.743 1166.02Z" fill="#263238"/>
<path d="M771.942 1173.02L770.615 1170.31C770.615 1170.31 773.149 1169.04 777.372 1167.29L778.548 1170.07C774.416 1171.78 771.973 1172.99 771.942 1173.02Z" fill="#263238"/>
<path d="M766.725 1043.05C766.725 1043.05 739.578 1040.76 727.513 1031.68C715.448 1022.6 614.041 911.389 614.041 911.389C614.041 911.389 877.331 916.697 908.338 918.205C939.346 919.714 939.376 925.776 974.908 938.626C1010.44 951.475 1123.22 1030.17 1123.22 1030.17L1145.15 1045.25C1145.15 1045.25 1092.18 1046.76 963.566 1043.74C834.953 1040.73 766.725 1043.05 766.725 1043.05Z" fill="#878787"/>
<path d="M1102.47 1047.18C1073.06 1047.18 1027.54 1046.82 963.415 1045.31C836.309 1042.29 767.357 1044.53 766.784 1044.56H766.603C765.487 1044.56 738.793 1042.14 726.487 1032.88C714.181 1023.62 616.936 916.969 612.804 912.414L610.421 909.82H613.95C616.574 909.82 877.602 915.129 908.308 916.637C929.422 917.663 936.51 920.83 949.45 926.621C955.784 929.426 963.626 932.925 975.299 937.148C1010.65 949.937 1119.36 1025.68 1123.94 1028.87L1149.7 1046.64H1145.08C1144.81 1046.82 1131.42 1047.18 1102.47 1047.18ZM838.903 1040.73C870.544 1040.73 912.289 1041.09 963.475 1042.29C1069.71 1044.8 1124.82 1044.2 1140.32 1043.89L1122.22 1031.44C1121.11 1030.62 1009.26 952.681 974.424 940.043C962.661 935.79 954.728 932.261 948.364 929.426C935.334 923.635 928.818 920.709 908.308 919.714C879.593 918.326 648.909 913.681 617.539 912.987C632.892 929.758 717.619 1022.36 728.448 1030.62C739.728 1039.07 765.276 1041.51 766.935 1041.66C768.594 1041.81 793.207 1040.73 838.903 1040.73V1040.73Z" fill="#263238"/>
<path d="M665.348 1077.86C665.348 1077.86 681.244 1058.95 680.429 1046.07C679.615 1033.19 625.231 956.031 597.271 933.348C569.31 910.666 532.964 901.557 512.513 901.557C492.063 901.557 431.557 912.898 393.733 927.285C355.909 941.673 306.743 964.386 306.743 964.386L246.961 1003.6C246.961 1003.6 320.347 1025.56 455.777 1045.98C591.208 1066.4 665.348 1077.86 665.348 1077.86Z" fill="#878787"/>
<path d="M665.981 1079.46H665.137C664.383 1079.46 589.428 1067.87 455.566 1047.69C321.704 1027.52 247.263 1005.47 246.539 1005.26L243.522 1004.35L305.989 963.209C306.683 962.877 355.848 940.225 393.28 925.988C432.07 911.269 492.425 900.169 512.604 900.169C534.743 900.048 570.939 910.093 598.085 932.172C625.925 954.733 681.063 1031.98 681.877 1045.98C682.661 1059.28 667.067 1078.04 666.403 1078.82L665.981 1079.46ZM250.52 1003.14C265.933 1007.49 337.63 1026.73 456.019 1044.59C582.219 1063.62 656.058 1074.75 664.745 1076.23C667.459 1072.82 679.615 1056.98 678.981 1046.07C678.288 1034 624.869 957.569 596.305 934.464C569.672 912.868 534.2 903.034 512.513 903.034C492.546 903.034 432.763 914.044 394.276 928.673C356.934 942.849 307.86 965.471 307.377 965.682L250.52 1003.14Z" fill="#263238"/>
<path d="M597.271 933.348C569.28 910.636 532.964 901.557 512.513 901.557C492.063 901.557 431.557 912.898 393.733 927.285C355.909 941.673 306.743 964.386 306.743 964.386L246.961 1003.6C246.961 1003.6 266.748 1009.63 304.632 1018.04L337.811 958.956L365.802 944.599L336.001 1024.77L342.275 1026.07L371.111 944.629C396.839 930.995 470.979 912.838 470.979 912.838C449.021 942.548 432.039 1019.61 427.515 1041.57C436.564 1043.05 446.065 1044.59 455.838 1046.01L457.376 1046.25C458.492 979.165 490.555 910.515 490.555 910.515C490.555 910.515 520.718 907.499 559.416 921.102C582.449 929.212 603.028 943.073 619.199 961.369L599.472 1067.84L607.466 1069.05L624.507 970.418L647.944 999.917L636.211 1073.39L665.348 1077.86C665.348 1077.86 681.244 1058.95 680.429 1046.07C679.615 1033.19 625.231 956.031 597.271 933.348Z" fill="#263238"/>
<path d="M665.98 1079.45L634.49 1074.66L646.344 1000.34L625.381 973.976L608.67 1070.74L597.661 1069.08L617.569 961.76C601.564 944.03 581.405 930.555 558.902 922.548C537.338 914.733 514.47 911.149 491.549 911.991C488.02 919.834 459.818 984.11 458.792 1046.25V1047.96L455.565 1047.45C445.762 1046 436.351 1044.44 427.212 1043.02L425.673 1042.78L425.975 1041.24C430.499 1019.25 446.455 947.101 467.388 915.249C451.915 919.17 394.545 934.101 372.255 945.653L343.178 1027.79L333.918 1025.92L362.965 947.704L338.835 960.101L305.505 1019.85L304.389 1019.61C266.897 1011.17 246.809 1005.19 246.628 1005.13L243.611 1004.23L306.078 963.087C306.772 962.755 355.937 940.103 393.369 925.866C432.158 911.147 492.514 900.047 512.693 900.047C534.742 900.047 570.937 910.091 598.083 932.17C625.924 954.732 681.061 1031.98 681.875 1045.97C682.66 1059.28 667.065 1078.04 666.402 1078.82L665.98 1079.45ZM637.958 1072.13L664.743 1076.23C667.458 1072.82 679.613 1056.98 678.98 1046.06C678.286 1034 624.868 957.567 596.304 934.463C569.67 912.866 534.199 903.033 512.512 903.033C492.544 903.033 432.762 914.042 394.274 928.671C356.933 942.848 307.858 965.47 307.375 965.681L250.519 1003.14C257.426 1005.1 275.554 1010.02 303.876 1016.41L336.663 957.929L368.515 941.581L337.96 1023.74L341.218 1024.41L369.812 943.632L370.325 943.361C395.933 929.787 467.509 912.172 470.555 911.448L474.597 910.453L472.124 913.801C451.01 942.516 434.33 1016.02 429.263 1040.48C437.829 1041.87 446.687 1043.26 455.836 1044.65C457.465 978.56 489.015 910.785 489.226 910.091L489.588 909.307H490.433C514.036 908.244 537.616 911.873 559.807 919.984C583.004 928.225 603.751 942.178 620.132 960.553L620.555 961.096L600.979 1066.67L605.986 1067.42L623.33 966.948L649.3 999.614L637.958 1072.13Z" fill="#263238"/>
<path d="M656.268 1024.89C656.268 1024.89 642.665 1012.83 635.848 1018.08C631.3 1022.15 627.908 1027.35 626.015 1033.16L612.381 1031.62C612.381 1031.62 600.316 999.857 591.267 999.103C582.219 998.349 539.056 996.087 529.223 999.857C519.39 1003.63 517.881 1011.92 517.158 1017.26C516.434 1022.6 514.895 1039.19 522.436 1042.99C529.977 1046.79 601.131 1055.06 601.131 1055.06L625.261 1064.1L621.46 1072.43L665.347 1077.74C665.347 1077.74 678.981 1053.61 680.428 1045.95C681.876 1038.28 656.268 1024.89 656.268 1024.89Z" fill="#263238"/>
<path d="M666.161 1079.46L619.197 1073.79L623.149 1065.07L600.617 1056.62C595.791 1056.05 529.222 1048.18 521.621 1044.38C512.964 1040.06 514.744 1022.42 515.588 1017.23C516.252 1012.55 517.639 1002.87 528.649 998.62C539.206 994.578 584.842 997.232 591.357 997.775C600.406 998.529 611.204 1024.56 613.496 1030.41L625.019 1031.71C626.995 1026.03 630.415 1020.97 634.942 1017.02C642.332 1011.26 655.573 1022.36 657.172 1023.75C661.968 1026.31 683.625 1038.31 681.996 1046.49C680.458 1054.21 667.246 1077.71 666.703 1078.7L666.161 1079.46ZM623.691 1071.31L664.441 1076.23C666.884 1071.82 677.622 1052.1 678.919 1045.76C679.794 1041.33 665.738 1031.65 655.483 1026.22L655.181 1026.01C651.652 1022.99 641.457 1015.57 636.692 1019.25C632.393 1023.16 629.182 1028.12 627.371 1033.64L626.979 1034.85L611.234 1033.1L610.903 1032.22C606.348 1020.16 596.907 1001.15 590.995 1000.67C580.619 999.796 538.874 997.655 529.614 1001.33C520.354 1005.01 519.087 1013.13 518.454 1017.53C517.127 1026.97 517.489 1038.98 522.948 1041.66C528.981 1044.68 581.434 1051.31 601.13 1053.73H601.492L627.221 1063.38L623.691 1071.31Z" fill="#263238"/>
<path d="M607.856 1035.48L612.38 1031.68C612.38 1031.68 600.315 999.916 591.266 999.162C582.218 998.408 539.055 996.146 529.222 999.916C519.389 1003.69 517.881 1011.98 517.157 1017.32C516.48 1022.01 516.348 1026.77 516.765 1031.5C537.758 1033.28 604.116 1038.64 607.856 1035.48Z" fill="white"/>
<path d="M596.184 1037.92C581.706 1037.92 555.072 1036.26 516.554 1033.01H515.318L515.167 1031.77C514.759 1026.92 514.891 1022.05 515.559 1017.23C516.223 1012.55 517.61 1002.87 528.62 998.62C539.176 994.578 584.813 997.232 591.328 997.775C601.07 998.59 612.442 1027.94 613.799 1031.29L614.191 1032.28L608.822 1036.78C607.797 1037.5 603.574 1037.92 596.184 1037.92ZM518.063 1030.11C568.796 1034.39 603.604 1036.14 606.922 1034.27L610.602 1031.26C605.927 1019.19 596.848 1001.09 591.086 1000.7C580.71 999.826 538.965 997.685 529.705 1001.36C520.445 1005.04 519.179 1013.16 518.545 1017.56C517.975 1021.72 517.813 1025.92 518.063 1030.11V1030.11Z" fill="#263238"/>
<path d="M633.586 1094.48L630.569 1093.66C633.043 1084.89 635.033 1078.94 635.064 1078.88L637.929 1079.85C637.929 1079.85 636.059 1085.79 633.586 1094.48Z" fill="#263238"/>
<path d="M609.366 1309.35C603.725 1309.35 345.291 1279.37 342.848 1279.19C338.183 1278.54 333.8 1276.57 330.21 1273.52L327.194 1271.38C319.563 1266.31 274.379 1142.22 269.885 1126.03C268.934 1122.3 268.298 1118.49 267.984 1114.65L271.001 1114.35C271.311 1118.02 271.917 1121.65 272.81 1125.21C278.632 1145.99 322.7 1264.41 328.943 1268.88L331.959 1271.02C335.174 1273.78 339.106 1275.58 343.301 1276.21C345.714 1276.51 604.118 1306.37 609.426 1306.37C613.709 1306.37 614.855 1305.64 616.273 1298.5C617.057 1294.57 617.661 1258.68 618.264 1223.96C618.777 1193.11 619.32 1161.17 620.043 1148.17C621.126 1134.44 623.468 1120.84 627.041 1107.54L630.057 1108.26C626.524 1121.37 624.202 1134.78 623.12 1148.32C622.426 1161.29 621.883 1193.17 621.371 1224.02C620.737 1260.49 620.164 1294.91 619.32 1299.1C617.661 1306.67 615.941 1309.35 609.366 1309.35Z" fill="#263238"/>
<path d="M266.898 1099.91C266.222 1079.31 266.655 1058.69 268.195 1038.13C268.949 1035.12 283.457 1027.27 295.341 1021.27L296.699 1023.96C284.875 1029.99 272.026 1037.11 270.97 1039.04C269.555 1059.27 269.162 1079.57 269.794 1099.85L266.898 1099.91Z" fill="#263238"/>
<path d="M429.173 1279.86H426.156V1276.05C426.156 1275.3 425.674 1267.82 424.98 1257.47C424.196 1245.41 423.08 1229.06 421.964 1211.39L424.98 1211.21C426.066 1228.88 427.152 1245.35 427.996 1257.26C428.841 1269.18 429.173 1275.36 429.173 1276.05V1279.86Z" fill="#263238"/>
<path d="M420.607 1186.35C418.284 1146.27 417.41 1121.17 417.953 1111.79C419.461 1086.18 430.018 1052.01 430.018 1051.68L433.034 1052.58C433.034 1052.91 422.477 1086.73 420.969 1111.97C420.426 1121.23 421.301 1146.21 423.623 1186.17L420.607 1186.35Z" fill="#263238"/>
<path d="M306.592 1069.44C304.993 1077.65 300.378 1083.65 296.276 1082.87C292.174 1082.08 290.243 1074.78 291.752 1066.58C293.26 1058.37 297.784 1052.37 302.037 1053.15C306.29 1053.94 308.19 1061.24 306.592 1069.44Z" fill="#263238"/>
<path d="M297.031 1084.43C296.69 1084.46 296.347 1084.46 296.006 1084.43C294.559 1084 293.266 1083.16 292.278 1082.02C291.29 1080.87 290.648 1079.47 290.426 1077.98C289.482 1074.17 289.42 1070.2 290.245 1066.36C292.024 1057.32 297.333 1050.77 302.31 1051.77C307.287 1052.76 309.82 1060.66 308.041 1069.86C307.366 1073.73 305.83 1077.39 303.546 1080.57C302.824 1081.67 301.862 1082.58 300.733 1083.25C299.605 1083.92 298.339 1084.32 297.031 1084.43V1084.43ZM301.314 1054.6C298.539 1054.6 294.679 1059.37 293.231 1066.85C292.469 1070.21 292.469 1073.71 293.231 1077.07C293.924 1079.55 295.101 1081.11 296.488 1081.39C297.876 1081.66 299.505 1080.63 301.103 1078.61C303.105 1075.8 304.446 1072.57 305.024 1069.17C306.563 1061.27 304.481 1055.17 301.676 1054.63L301.314 1054.6Z" fill="#263238"/>
<path d="M305.929 1063.68L287.831 1061.81C287.052 1061.71 286.261 1061.77 285.506 1061.99C284.751 1062.21 284.05 1062.58 283.444 1063.08C282.839 1063.58 282.343 1064.2 281.987 1064.9C281.632 1065.6 281.424 1066.37 281.376 1067.15C281.281 1068.61 281.747 1070.04 282.678 1071.16C283.61 1072.29 284.936 1073.01 286.383 1073.18L304.481 1075.48C305.325 1075.56 306.178 1075.47 306.985 1075.21C307.791 1074.95 308.533 1074.52 309.162 1073.95C309.792 1073.38 310.293 1072.68 310.635 1071.91C310.977 1071.13 311.152 1070.29 311.147 1069.44C311.096 1068.02 310.544 1066.66 309.59 1065.61C308.635 1064.56 307.338 1063.87 305.929 1063.68Z" fill="#92E3A9"/>
<path d="M305.326 1077.04C305.015 1077.07 304.701 1077.07 304.391 1077.04L286.293 1074.78C284.412 1074.57 282.688 1073.63 281.488 1072.17C280.288 1070.7 279.707 1068.83 279.868 1066.94C279.925 1065.97 280.183 1065.02 280.624 1064.15C281.065 1063.29 281.681 1062.52 282.432 1061.9C283.171 1061.27 284.03 1060.79 284.958 1060.5C285.886 1060.21 286.864 1060.11 287.831 1060.21L305.929 1062.08C307.372 1062.23 308.742 1062.79 309.871 1063.7C310.999 1064.61 311.838 1065.83 312.283 1067.21C312.728 1068.59 312.761 1070.07 312.377 1071.47C311.993 1072.87 311.209 1074.12 310.121 1075.08C308.805 1076.28 307.106 1076.98 305.326 1077.04V1077.04ZM287.228 1063.29C286.233 1063.28 285.269 1063.64 284.513 1064.28C284.072 1064.66 283.713 1065.12 283.459 1065.64C283.205 1066.16 283.06 1066.72 283.035 1067.3C282.965 1068.38 283.305 1069.44 283.989 1070.27C284.672 1071.11 285.646 1071.65 286.715 1071.8L304.813 1074.06C305.401 1074.14 305.999 1074.11 306.574 1073.96C307.148 1073.81 307.686 1073.54 308.156 1073.18C308.626 1072.82 309.019 1072.36 309.31 1071.85C309.602 1071.33 309.786 1070.76 309.853 1070.17C309.92 1069.58 309.867 1068.98 309.698 1068.41C309.53 1067.84 309.249 1067.31 308.871 1066.85C308.494 1066.39 308.029 1066.02 307.502 1065.74C306.976 1065.47 306.4 1065.3 305.808 1065.25V1065.25L287.711 1063.38L287.228 1063.29Z" fill="#263238"/>
<path d="M464.101 1089.5C462.261 1099.42 456.892 1106.69 452.036 1105.73C447.179 1104.76 444.917 1095.92 446.757 1086C448.597 1076.08 453.996 1068.81 458.822 1069.77C463.648 1070.74 465.941 1079.58 464.101 1089.5Z" fill="#263238"/>
<path d="M452.972 1107.33C452.58 1107.36 452.187 1107.36 451.795 1107.33C446.155 1106.18 443.289 1096.74 445.34 1085.85C446.698 1078.49 449.985 1072.31 453.907 1069.68C454.644 1069.13 455.488 1068.73 456.385 1068.51C457.282 1068.29 458.214 1068.26 459.125 1068.42C464.765 1069.56 467.631 1079 465.58 1089.89C464.222 1097.25 460.935 1103.44 457.044 1106.06C455.839 1106.87 454.424 1107.31 452.972 1107.33ZM457.948 1071.13C457.099 1071.18 456.282 1071.47 455.596 1071.98C452.368 1074.15 449.563 1079.76 448.296 1086.21C446.487 1095.96 449.02 1103.5 452.398 1104.31C452.928 1104.39 453.468 1104.36 453.987 1104.23C454.505 1104.09 454.991 1103.85 455.415 1103.53C458.612 1101.35 461.447 1095.77 462.684 1089.29C464.494 1079.55 461.99 1072.01 458.582 1071.19L457.948 1071.13Z" fill="#263238"/>
<path d="M463.316 1082.5L442.203 1080.24C441.292 1080.16 440.374 1080.27 439.506 1080.55C438.637 1080.84 437.835 1081.3 437.148 1081.9C436.46 1082.5 435.902 1083.24 435.506 1084.06C435.11 1084.89 434.884 1085.78 434.843 1086.69C434.702 1088.43 435.228 1090.16 436.314 1091.53C437.401 1092.9 438.967 1093.8 440.694 1094.05L461.808 1096.8C462.799 1096.91 463.801 1096.8 464.747 1096.49C465.694 1096.18 466.563 1095.67 467.297 1095C468.031 1094.32 468.613 1093.5 469.003 1092.58C469.393 1091.67 469.583 1090.68 469.56 1089.68V1089.68C469.595 1087.92 468.975 1086.21 467.822 1084.89C466.668 1083.56 465.062 1082.71 463.316 1082.5V1082.5Z" fill="#92E3A9"/>
<path d="M462.624 1098.37H461.568L440.454 1095.62C438.337 1095.3 436.422 1094.19 435.095 1092.51C433.768 1090.83 433.128 1088.71 433.305 1086.57C433.377 1085.42 433.681 1084.29 434.2 1083.25C434.718 1082.21 435.439 1081.29 436.322 1080.54C437.151 1079.84 438.113 1079.32 439.15 1079C440.186 1078.69 441.276 1078.58 442.354 1078.7L463.468 1080.96C465.576 1081.21 467.517 1082.23 468.911 1083.83C470.305 1085.44 471.053 1087.5 471.009 1089.62C471.008 1090.87 470.739 1092.11 470.218 1093.25C469.698 1094.39 468.939 1095.4 467.992 1096.23C466.52 1097.56 464.613 1098.33 462.624 1098.37V1098.37ZM441.51 1081.72C440.324 1081.72 439.18 1082.15 438.282 1082.92C437.49 1083.6 436.906 1084.49 436.599 1085.49C436.291 1086.48 436.271 1087.55 436.543 1088.55C436.814 1089.56 437.365 1090.47 438.132 1091.18C438.899 1091.88 439.851 1092.36 440.876 1092.55L461.99 1095.32C462.732 1095.41 463.485 1095.35 464.198 1095.12C464.911 1094.9 465.568 1094.52 466.122 1094.02C466.736 1093.48 467.226 1092.81 467.559 1092.06C467.892 1091.31 468.06 1090.5 468.053 1089.68C468.094 1088.3 467.619 1086.95 466.721 1085.91C465.823 1084.86 464.566 1084.18 463.197 1084.01L442.083 1081.75L441.51 1081.72Z" fill="#263238"/>
<path d="M218.215 1030.17C218.667 1025.1 208.14 1019.46 199.876 1015.84C192.878 1018.41 187.81 1021.54 186.423 1026.4C184.089 1037.36 182.327 1048.43 181.145 1059.58C181.145 1059.58 217.46 1038.49 218.215 1030.17Z" fill="#263238"/>
<path d="M179.335 1062.5L179.637 1059.49C180.781 1048.25 182.523 1037.09 184.855 1026.04C186.393 1019.85 193.361 1016.6 199.242 1014.42L199.815 1014.21L200.358 1014.45C213.751 1020.31 220.024 1025.49 219.602 1030.32C218.818 1038.98 187.962 1057.47 181.778 1061L179.335 1062.5ZM199.936 1017.47C192.727 1020.22 188.927 1023.17 188.022 1026.76C185.862 1036.72 184.221 1046.79 183.105 1056.92C196.89 1048.66 216.284 1035.3 216.827 1030.14C216.978 1026.97 210.704 1022.3 199.936 1017.47Z" fill="#263238"/>
<path d="M927.551 920.408L787.565 1042.6C812.751 1042.21 860.408 1041.84 929.179 1043.08L995.779 948.61C988.984 944.79 981.928 941.454 974.665 938.626C948.664 929.186 941.727 923.394 927.551 920.408Z" fill="white"/>
<path d="M929.873 1044.62H929.089C862.279 1043.41 815.255 1043.68 787.536 1044.13H783.403L927.068 918.748L927.822 918.899C935.284 920.65 942.52 923.251 949.389 926.651C955.723 929.456 963.595 932.955 975.238 937.177C982.503 940.038 989.558 943.404 996.352 947.252L997.86 948.066L929.873 1044.62ZM838.661 1040.73C863.003 1040.73 892.954 1040.94 928.335 1041.57L993.517 949.122C987.295 945.671 980.845 942.648 974.213 940.073C962.449 935.82 954.546 932.291 948.182 929.456C941.704 926.287 934.91 923.81 927.913 922.066L791.608 1041.06C803.954 1040.86 819.659 1040.75 838.722 1040.73H838.661Z" fill="#263238"/>
<path d="M1059.24 1045.46L1068.29 993.22C1057.94 986.434 1046.96 979.345 1036.17 972.589L1005.79 1044.68C1026 1045.07 1043.74 1045.31 1059.24 1045.46Z" fill="white"/>
<path d="M1060.48 1046.97H1059.21C1042.59 1046.79 1024.65 1046.55 1005.85 1046.19H1003.62L1004.47 1044.14C1014.39 1020.61 1025.13 995.091 1034.87 972.017L1035.44 970.418L1036.95 971.353C1046.91 977.597 1057.7 984.564 1069.08 992.014L1069.92 992.557L1060.48 1046.97ZM1008.12 1043.23C1025.61 1043.53 1042.38 1043.77 1057.98 1043.92L1066.72 993.945C1056.26 987.068 1046.24 980.643 1036.98 974.792C1027.69 996.78 1017.56 1020.85 1008.12 1043.23Z" fill="#263238"/>
<path d="M481.031 1727.79C542.216 1713.12 579.927 1651.63 565.26 1590.44C550.594 1529.26 489.103 1491.55 427.918 1506.22C366.732 1520.88 329.022 1582.37 343.688 1643.56C358.355 1704.74 419.845 1742.45 481.031 1727.79Z" fill="#263238"/>
<path d="M521.923 1624.65H477.222L496.254 1481.1L389.207 1626.55H433.908L414.906 1770.09L521.923 1624.65Z" fill="white"/>
<path d="M412.642 1775.76L432.188 1627.96H386.22L498.546 1475.46L478.97 1623.26H524.938L412.642 1775.76ZM392.192 1624.95H435.626L417.106 1764.48L518.905 1626.15H475.501L493.991 1486.71L392.192 1624.95Z" fill="#263238"/>
<path opacity="0.22" d="M1571.83 1415.75C1646.48 1415.75 1706.99 1401.03 1706.99 1382.88C1706.99 1364.73 1646.48 1350.02 1571.83 1350.02C1497.19 1350.02 1436.68 1364.73 1436.68 1382.88C1436.68 1401.03 1497.19 1415.75 1571.83 1415.75Z" fill="black"/>
<path d="M1488 803.538L1417.01 905.135C1417.01 905.135 1406.58 922.71 1424.18 937.682C1441.78 952.655 1456.04 936.381 1456.04 936.381L1499.65 882.995L1498.35 819.281L1488 803.538Z" fill="#263238" stroke="#263238" stroke-width="2.36622" stroke-linecap="round" stroke-linejoin="round"/>
<path d="M1556.36 784.001L1488 803.539L1504.11 985.389H1650.63L1686.28 803.699L1608.13 783.204L1565.65 784.664L1556.36 784.001Z" fill="#92E3A9" stroke="#263238" stroke-width="2.36622" stroke-linecap="round" stroke-linejoin="round"/>
<path d="M1472.36 909.887L1487.71 809.379C1487.71 809.379 1450.35 808.29 1449.85 811.503C1449.34 814.715 1408.75 906.834 1408.75 906.834C1408.75 906.834 1405.22 919.046 1415.89 931.709C1419.98 937 1425.59 940.914 1431.97 942.926C1438.35 944.938 1445.19 944.952 1451.57 942.966C1463.26 939.674 1472.36 909.887 1472.36 909.887Z" fill="#92E3A9" stroke="#263238" stroke-width="2.36622" stroke-linecap="round" stroke-linejoin="round"/>
<path d="M1438.86 823.475L1492.19 828.891L1490.87 801.998L1446.72 799.848L1438.86 823.475Z" fill="white" stroke="#263238" stroke-width="2.36622" stroke-linecap="round" stroke-linejoin="round"/>
<path d="M1623.26 662.757L1366.81 847.368C1357.25 842.584 1346.36 841.143 1335.89 843.276C1325.41 845.409 1315.95 850.993 1309.03 859.135C1302.1 867.277 1298.1 877.507 1297.67 888.189C1297.25 898.87 1300.41 909.387 1306.67 918.056C1312.92 926.726 1321.9 933.048 1332.17 936.012C1342.44 938.976 1353.41 938.411 1363.32 934.406C1373.23 930.401 1381.52 923.188 1386.85 913.921C1392.17 904.654 1394.24 893.868 1392.72 883.287L1649.17 698.702C1657.05 702.689 1665.89 704.41 1674.7 703.674C1683.51 702.938 1691.94 699.774 1699.06 694.533C1706.17 689.292 1711.7 682.181 1715.01 673.989C1718.33 665.797 1719.31 656.845 1717.84 648.13L1714.21 644.493L1683.09 673.19L1658.46 639.13L1693.47 613.883C1692.17 612.776 1690.96 611.559 1689.86 610.246C1689.86 610.246 1657.16 606.556 1642.53 617.175C1635.46 622.29 1629.93 629.242 1626.53 637.277C1623.14 645.312 1622 654.124 1623.26 662.757V662.757ZM1332.61 918.462L1314.46 893.269L1327.2 864.969L1358.07 861.836L1376.23 887.003L1363.52 915.303L1332.61 918.462Z" fill="white" stroke="#263238" stroke-width="2.36622" stroke-linecap="round" stroke-linejoin="round"/>
<path d="M1619.62 659.147L1363.17 843.731C1353.61 838.947 1342.72 837.506 1332.25 839.639C1321.77 841.772 1312.32 847.356 1305.39 855.498C1298.46 863.64 1294.47 873.87 1294.04 884.552C1293.61 895.233 1296.78 905.749 1303.03 914.419C1309.28 923.089 1318.27 929.411 1328.54 932.375C1338.81 935.339 1349.78 934.774 1359.69 930.769C1369.6 926.764 1377.88 919.551 1383.21 910.284C1388.54 901.017 1390.61 890.231 1389.08 879.65L1645.53 695.065C1653.42 699.052 1662.26 700.773 1671.07 700.037C1679.87 699.301 1688.3 696.137 1695.42 690.896C1702.54 685.655 1708.06 678.544 1711.38 670.352C1714.69 662.16 1715.67 653.208 1714.21 644.492L1679.43 669.58L1654.88 635.493L1689.89 610.246C1682.09 605.955 1673.25 603.928 1664.36 604.395C1655.46 604.861 1646.88 607.802 1639.57 612.887C1632.26 617.971 1626.52 624.996 1622.99 633.169C1619.46 641.343 1618.28 650.34 1619.59 659.147H1619.62ZM1329.01 914.825L1310.85 889.658L1323.56 861.412L1354.44 858.279L1372.6 883.446L1359.88 911.772L1329.01 914.825Z" fill="white" stroke="#263238" stroke-width="2.36622" stroke-linecap="round" stroke-linejoin="round"/>
<path d="M1686.28 803.697L1726.34 1040.58L1689.87 1044.48L1659.26 942.912L1686.28 803.697Z" fill="#92E3A9" stroke="#263238" stroke-width="2.36622" stroke-linecap="round" stroke-linejoin="round"/>
<path d="M1678 849.465L1665.63 957.885L1659.26 942.912L1678 849.465Z" fill="#263238" stroke="#263238" stroke-width="2.36622" stroke-linecap="round" stroke-linejoin="round"/>
<path d="M1440.16 776.751C1436.36 778.397 1431.8 784.556 1433.18 785.936C1435.14 787.927 1441.14 797.776 1444.01 796.29C1446.88 794.803 1451.42 790.396 1451.42 787.927C1451.42 785.458 1443.45 777.096 1443.45 777.069C1443.01 776.676 1442.45 776.433 1441.86 776.375C1441.27 776.318 1440.67 776.45 1440.16 776.751V776.751Z" fill="white" stroke="#263238" stroke-width="2.36622" stroke-linecap="round" stroke-linejoin="round"/>
<path d="M1445.76 761.115C1441.97 762.735 1437.4 768.92 1438.78 770.301C1440.74 772.292 1450.59 787.212 1453.57 785.725C1456.54 784.238 1460.95 779.805 1460.95 777.336C1460.95 774.867 1449.16 761.407 1449.13 761.407C1448.68 761 1448.1 760.751 1447.5 760.698C1446.89 760.645 1446.28 760.792 1445.76 761.115V761.115Z" fill="white" stroke="#263238" stroke-width="2.36622" stroke-linecap="round" stroke-linejoin="round"/>
<path d="M1457.36 752.832C1453.57 754.452 1449 760.637 1450.38 762.018C1452.37 763.982 1462.22 778.902 1465.17 777.415C1468.11 775.928 1472.57 771.522 1472.57 769.053C1472.57 766.584 1460.76 753.124 1460.73 753.124C1460.28 752.716 1459.71 752.467 1459.1 752.415C1458.49 752.362 1457.88 752.509 1457.36 752.832V752.832Z" fill="white" stroke="#263238" stroke-width="2.36622" stroke-linecap="round" stroke-linejoin="round"/>
<path d="M1471.06 747.63C1467.27 749.276 1462.7 755.435 1464.08 756.842C1466.04 758.807 1475.92 773.726 1478.87 772.24C1481.81 770.753 1486.25 766.319 1486.25 763.851C1486.25 761.382 1474.46 747.922 1474.43 747.922C1473.98 747.514 1473.4 747.265 1472.8 747.213C1472.19 747.16 1471.58 747.306 1471.06 747.63V747.63Z" fill="white" stroke="#263238" stroke-width="2.36622" stroke-linecap="round" stroke-linejoin="round"/>
<path d="M1497.58 1058.16H1506.32L1504.27 980.663H1497.79C1492.77 980.663 1487.96 982.657 1484.41 986.207C1480.86 989.757 1478.87 994.571 1478.87 999.591V1039.41C1478.84 1041.88 1479.31 1044.32 1480.25 1046.6C1481.18 1048.89 1482.56 1050.96 1484.3 1052.7C1486.04 1054.45 1488.11 1055.83 1490.39 1056.76C1492.67 1057.7 1495.12 1058.17 1497.58 1058.16V1058.16Z" fill="white" stroke="#263238" stroke-width="2.36622" stroke-linecap="round" stroke-linejoin="round"/>
<path d="M1504.27 998.264H1498.96C1496.24 998.264 1493.62 999.346 1491.7 1001.27C1489.77 1003.2 1488.69 1005.81 1488.69 1008.54V1028.85C1488.69 1031.46 1487.65 1033.96 1485.8 1035.81C1483.96 1037.66 1481.45 1038.7 1478.84 1038.7V1038.7" stroke="#263238" stroke-width="2.36622" stroke-linecap="round" stroke-linejoin="round"/>
<path d="M1504.27 994.998C1504.27 994.998 1509.58 1197.53 1509.58 1201.43C1509.58 1205.33 1518.05 1331.67 1518.05 1331.67C1516.38 1337 1515.07 1342.44 1514.15 1347.95C1514.71 1352.35 1515.59 1356.71 1516.8 1360.98H1572.15L1578.02 1067.92L1583.89 1361.64H1637.22C1637.22 1361.64 1640.49 1334.27 1638.52 1330.37C1637.28 1327.84 1636.2 1325.23 1635.28 1322.57L1654.16 1121.97L1650.89 994.998H1504.27Z" fill="white" stroke="#263238" stroke-width="2.36622" stroke-linecap="round" stroke-linejoin="round"/>
<path d="M1508.84 1159.75H1538.78V1178.65H1519.91" stroke="#263238" stroke-width="2.36622" stroke-linecap="round" stroke-linejoin="round"/>
<path d="M1538.78 1178.65V1248.31H1516.01" stroke="#263238" stroke-width="2.36622" stroke-linecap="round" stroke-linejoin="round"/>
<path d="M1648.85 1159.75H1618.88V1178.65H1637.78" stroke="#263238" stroke-width="2.36622" stroke-linecap="round" stroke-linejoin="round"/>
<path d="M1618.88 1178.65V1248.31H1641.68" stroke="#263238" stroke-width="2.36622" stroke-linecap="round" stroke-linejoin="round"/>
<path d="M1650.79 978.062H1504.27V998.238H1650.79V978.062Z" fill="#263238" stroke="#263238" stroke-width="2.36622" stroke-linecap="round" stroke-linejoin="round"/>
<path d="M1592.2 978.062H1562.89V998.238H1592.2V978.062Z" fill="white" stroke="#263238" stroke-width="2.36622" stroke-linecap="round" stroke-linejoin="round"/>
<path d="M1545.95 974.928H1532.92V996.617H1545.95V974.928Z" fill="white" stroke="#263238" stroke-width="2.36622" stroke-linecap="round" stroke-linejoin="round"/>
<path d="M1642.98 976.15H1633.21V1023.7H1642.98V976.15Z" fill="white" stroke="#263238" stroke-width="2.36622" stroke-linecap="round" stroke-linejoin="round"/>
<path d="M1562.23 1062.08L1585.67 1069.22" stroke="#263238" stroke-width="2.36622" stroke-linecap="round" stroke-linejoin="round"/>
<path d="M1572.66 1355.19H1553.76C1553.76 1355.19 1547.25 1335.02 1535.52 1336.32C1523.78 1337.62 1523.15 1353.89 1523.15 1353.89C1523.15 1353.89 1490.6 1374.73 1488.64 1378.64C1486.67 1382.54 1488.64 1391.01 1488.64 1391.01H1572.79L1572.66 1355.19Z" fill="#92E3A9" stroke="#263238" stroke-width="2.36622" stroke-linecap="round" stroke-linejoin="round"/>
<path d="M1488.56 1390.93H1572.71V1382.56H1487.76C1487.7 1385.37 1487.97 1388.18 1488.56 1390.93V1390.93Z" fill="white" stroke="#263238" stroke-width="2.36622" stroke-linecap="round" stroke-linejoin="round"/>
<path d="M1582.99 1355.19H1601.86C1601.86 1355.19 1608.36 1335.02 1620.1 1336.32C1631.83 1337.62 1632.47 1353.89 1632.47 1353.89C1632.47 1353.89 1665.02 1374.73 1666.98 1378.64C1668.95 1382.54 1666.98 1391.01 1666.98 1391.01H1582.83L1582.99 1355.19Z" fill="#92E3A9" stroke="#263238" stroke-width="2.36622" stroke-linecap="round" stroke-linejoin="round"/>
<path d="M1666.98 1390.93H1582.83V1382.56H1667.78C1667.83 1385.37 1667.56 1388.18 1666.98 1390.93V1390.93Z" fill="white" stroke="#263238" stroke-width="2.36622" stroke-linecap="round" stroke-linejoin="round"/>
<path d="M1560.95 995.662H1517.31V1041.24H1560.95V995.662Z" fill="white" stroke="#263238" stroke-width="2.36622" stroke-linecap="round" stroke-linejoin="round"/>
<path d="M1556.36 1018.44C1556.36 1021.85 1555.36 1025.19 1553.46 1028.03C1551.57 1030.88 1548.88 1033.09 1545.72 1034.4C1542.57 1035.71 1539.1 1036.06 1535.75 1035.39C1532.4 1034.73 1529.33 1033.09 1526.91 1030.68C1524.49 1028.27 1522.85 1025.19 1522.18 1021.84C1521.51 1018.49 1521.85 1015.02 1523.16 1011.87C1524.46 1008.71 1526.67 1006.02 1529.51 1004.12C1532.35 1002.22 1535.69 1001.21 1539.1 1001.21C1543.67 1001.21 1548.06 1003.03 1551.29 1006.26C1554.53 1009.49 1556.35 1013.87 1556.36 1018.44Z" fill="white" stroke="#263238" stroke-width="2.36622" stroke-linecap="round" stroke-linejoin="round"/>
<path d="M1548.16 1018.44C1548.16 1020.23 1547.63 1021.98 1546.64 1023.48C1545.65 1024.97 1544.24 1026.13 1542.59 1026.82C1540.93 1027.51 1539.11 1027.69 1537.35 1027.35C1535.59 1027 1533.98 1026.14 1532.71 1024.88C1531.44 1023.61 1530.58 1022 1530.23 1020.24C1529.87 1018.48 1530.05 1016.66 1530.74 1015.01C1531.42 1013.35 1532.58 1011.94 1534.07 1010.94C1535.56 1009.94 1537.31 1009.41 1539.1 1009.41C1541.5 1009.41 1543.8 1010.36 1545.49 1012.06C1547.19 1013.75 1548.15 1016.04 1548.16 1018.44V1018.44Z" fill="white" stroke="#263238" stroke-width="2.36622" stroke-linecap="round" stroke-linejoin="round"/>
<path d="M1542.77 1018.44C1542.81 1018.95 1542.75 1019.46 1542.58 1019.94C1542.42 1020.42 1542.16 1020.86 1541.81 1021.23C1541.47 1021.6 1541.05 1021.9 1540.59 1022.11C1540.12 1022.31 1539.62 1022.42 1539.12 1022.42C1538.61 1022.42 1538.11 1022.31 1537.64 1022.11C1537.18 1021.9 1536.76 1021.6 1536.42 1021.23C1536.07 1020.86 1535.81 1020.42 1535.65 1019.94C1535.48 1019.46 1535.42 1018.95 1535.47 1018.44C1535.54 1017.53 1535.96 1016.67 1536.64 1016.05C1537.31 1015.43 1538.2 1015.09 1539.12 1015.09C1540.03 1015.09 1540.92 1015.43 1541.59 1016.05C1542.27 1016.67 1542.69 1017.53 1542.77 1018.44V1018.44Z" fill="white" stroke="#263238" stroke-width="2.36622" stroke-linecap="round" stroke-linejoin="round"/>
<path d="M1556.86 777.92L1551 782.751C1548.28 784.985 1546.14 787.839 1544.75 791.073C1543.36 794.307 1542.77 797.826 1543.03 801.334L1545.69 836.616C1545.69 836.616 1569.58 819.997 1575.07 818.298C1580.57 816.599 1598.49 815.644 1598.49 815.644L1633.43 834.386C1633.43 834.386 1635.26 803.538 1630.98 790.344C1626.71 777.15 1618.51 770.911 1615.05 770.911C1611.6 770.911 1556.86 777.92 1556.86 777.92Z" fill="white" stroke="#263238" stroke-width="2.36622" stroke-linecap="round" stroke-linejoin="round"/>
<path d="M1537.27 702.127C1536.62 705.064 1536.48 708.089 1536.85 711.074C1537.7 713.728 1538.97 717.02 1538.97 717.02C1538.97 717.02 1527.9 727.639 1529.17 730.666C1530.45 733.692 1536.85 737.488 1536.85 737.488C1536.85 737.488 1532.57 770.699 1533.85 773.248C1535.12 775.796 1553.44 773.673 1553.44 773.673C1553.44 773.673 1557.71 792.415 1563.23 803.061C1568.76 813.706 1587.13 831.174 1590.5 830.75C1593.87 830.325 1612.24 803.485 1614.39 799.238C1616.54 794.99 1619.06 779.221 1619.06 773.248C1618.51 766.237 1617.51 759.268 1616.09 752.381C1616.09 752.381 1629.36 717.02 1629.71 710.649C1630.05 704.278 1590.5 686.331 1573.51 682.509C1556.52 678.686 1546.67 685.907 1543.24 689.756C1540.58 693.521 1538.56 697.702 1537.27 702.127Z" fill="white" stroke="#263238" stroke-width="2.36622" stroke-linecap="round" stroke-linejoin="round"/>
<path d="M1615.98 752.355C1615.98 752.355 1629.26 716.994 1629.6 710.622C1629.97 705.313 1603.59 692.49 1584.63 685.854L1583.62 699.977L1584.05 705.499L1583.2 721.693L1590.84 722.967C1590.84 722.967 1594.69 712.348 1599.79 711.047C1604.89 709.746 1610.01 721.666 1610.01 729.365C1610.01 737.064 1600.64 743.833 1598.09 743.833H1593.84C1593.84 743.833 1603.51 755.408 1616.22 753.55C1616.14 752.806 1615.98 752.355 1615.98 752.355Z" fill="#263238" stroke="#263238" stroke-width="2.36622" stroke-linecap="round" stroke-linejoin="round"/>
<path d="M1532.15 725.515L1573.06 723.391V709.772L1532.57 705.498C1532.57 705.498 1528.75 718.719 1532.15 725.515Z" stroke="#263238" stroke-width="2.36622" stroke-linecap="round" stroke-linejoin="round"/>
<path d="M1583.7 718.295L1592.83 719.543L1595.2 715.295L1573.06 709.773V723.392L1582.29 723.18L1583.7 718.295Z" fill="#92E3A9" stroke="#263238" stroke-width="2.36622" stroke-linecap="round" stroke-linejoin="round"/>
<path d="M1551.31 716.569C1551.31 718.693 1550.46 720.418 1549.4 720.418C1548.34 720.418 1547.49 718.693 1547.49 716.569C1547.49 714.445 1548.34 712.746 1549.4 712.746C1550.46 712.746 1551.31 714.472 1551.31 716.569Z" fill="#263238" stroke="#263238" stroke-width="2.36622" stroke-linecap="round" stroke-linejoin="round"/>
<path d="M1553.46 773.645L1572.6 770.672L1557.71 787.291L1553.46 773.645Z" fill="#263238" stroke="#263238" stroke-width="2.36622" stroke-linecap="round" stroke-linejoin="round"/>
<path d="M1542.79 739.584C1542.79 739.584 1554.31 740.009 1561.53 732.337" stroke="#263238" stroke-width="2.36622" stroke-linecap="round" stroke-linejoin="round"/>
<path d="M1536.85 696.977L1630.56 717.419C1630.56 717.419 1635.66 697.402 1635.66 687.606C1635.66 677.81 1609.24 656.944 1593.5 653.094C1577.76 649.245 1544.52 662.466 1541.94 668.412C1539.37 674.359 1536.85 696.977 1536.85 696.977Z" fill="#92E3A9" stroke="#263238" stroke-width="2.36622" stroke-linecap="round" stroke-linejoin="round"/>
<path d="M1536.85 696.976C1536.85 696.976 1496.52 693.153 1496.52 696.126C1496.52 699.1 1511.84 708.497 1524.61 709.772C1537.38 711.046 1561.24 702.524 1561.24 702.524L1536.85 696.976Z" fill="#92E3A9" stroke="#263238" stroke-width="2.36622" stroke-linecap="round" stroke-linejoin="round"/>
<path d="M1703.54 1104.4H1730.88V1133.71" stroke="#263238" stroke-width="9.46487" stroke-linecap="round" stroke-linejoin="round"/>
<path d="M1697.67 1054.25C1697.67 1054.25 1699 1064.02 1696.37 1065.32C1693.74 1066.62 1677.49 1082.92 1677.49 1086.16C1677.49 1089.4 1683.36 1104.4 1685.96 1109.6C1688.56 1114.81 1691.83 1118.07 1694.43 1118.07C1701.37 1116.95 1708.15 1114.98 1714.61 1112.21C1717.87 1110.27 1727.64 1072.38 1727.64 1066.62C1727.03 1060.85 1725.72 1055.17 1723.74 1049.71L1697.67 1054.25Z" fill="white" stroke="#263238" stroke-width="2.36622" stroke-linecap="round" stroke-linejoin="round"/>
<path d="M1689.23 1091.37C1692.01 1093.46 1694.27 1096.17 1695.84 1099.27C1697.42 1102.38 1698.26 1105.8 1698.31 1109.28" stroke="#263238" stroke-width="2.36622" stroke-linecap="round" stroke-linejoin="round"/>
<path d="M1693.98 1104.4H1669.69V1133.71" stroke="#263238" stroke-width="9.46487" stroke-linecap="round" stroke-linejoin="round"/>
<path d="M1645.48 1133.71H1755.01C1757.49 1133.71 1759.94 1134.19 1762.23 1135.14C1764.51 1136.09 1766.59 1137.48 1768.34 1139.23C1770.09 1140.98 1771.48 1143.06 1772.43 1145.34C1773.37 1147.63 1773.86 1150.08 1773.86 1152.56V1243.11H1630.5V1148.57C1630.5 1146.61 1630.89 1144.67 1631.65 1142.86C1632.4 1141.05 1633.51 1139.41 1634.9 1138.02C1636.29 1136.64 1637.94 1135.55 1639.76 1134.81C1641.57 1134.07 1643.52 1133.69 1645.48 1133.71Z" fill="#5E5E5E" stroke="#263238" stroke-width="2.36622" stroke-linecap="round" stroke-linejoin="round"/>
<path d="M1671.52 1133.71H1755.01C1757.49 1133.71 1759.94 1134.2 1762.23 1135.14C1764.51 1136.09 1766.59 1137.48 1768.34 1139.23C1770.09 1140.98 1771.48 1143.06 1772.43 1145.35C1773.37 1147.63 1773.86 1150.08 1773.86 1152.56V1243.11H1656.65V1148.58C1656.65 1144.63 1658.22 1140.85 1661.01 1138.06C1663.8 1135.28 1667.58 1133.71 1671.52 1133.71V1133.71Z" fill="#263238" stroke="#263238" stroke-width="2.36622" stroke-linecap="round" stroke-linejoin="round"/>
<path d="M1715.91 1172.02H1716.07C1716.95 1172.02 1717.79 1172.37 1718.41 1172.99C1719.04 1173.61 1719.39 1174.46 1719.39 1175.34V1181.31H1712.59V1175.34C1712.59 1174.46 1712.94 1173.61 1713.56 1172.99C1714.18 1172.37 1715.03 1172.02 1715.91 1172.02Z" fill="#263238" stroke="#263238" stroke-width="2.36622" stroke-linecap="round" stroke-linejoin="round"/>
<path d="M1708.74 1172.52C1708.59 1172.52 1708.43 1172.47 1708.31 1172.38C1708.19 1172.28 1708.11 1172.14 1708.08 1171.99L1706.46 1164.32C1706.44 1164.23 1706.44 1164.14 1706.45 1164.06C1706.46 1163.97 1706.5 1163.89 1706.54 1163.81C1706.59 1163.74 1706.65 1163.68 1706.72 1163.63C1706.79 1163.58 1706.88 1163.54 1706.96 1163.52C1707.05 1163.5 1707.14 1163.5 1707.22 1163.51C1707.31 1163.53 1707.39 1163.56 1707.46 1163.61C1707.54 1163.65 1707.6 1163.72 1707.65 1163.79C1707.7 1163.86 1707.74 1163.94 1707.76 1164.03L1709.4 1171.72C1709.44 1171.9 1709.4 1172.08 1709.3 1172.23C1709.2 1172.38 1709.05 1172.48 1708.87 1172.52H1708.74Z" fill="#263238"/>
<path d="M1713.17 1174.86H1712.99L1708.55 1172.2C1708.49 1172.14 1708.46 1172.05 1708.46 1171.96C1708.46 1171.87 1708.49 1171.79 1708.55 1171.72C1708.58 1171.69 1708.62 1171.67 1708.66 1171.65C1708.7 1171.64 1708.74 1171.63 1708.78 1171.63C1708.82 1171.63 1708.86 1171.64 1708.9 1171.65C1708.94 1171.67 1708.98 1171.69 1709.01 1171.72L1713.44 1174.38C1713.52 1174.43 1713.57 1174.5 1713.6 1174.59C1713.62 1174.68 1713.61 1174.77 1713.57 1174.86C1713.51 1174.89 1713.44 1174.91 1713.37 1174.91C1713.3 1174.91 1713.23 1174.89 1713.17 1174.86V1174.86Z" fill="#263238"/>
<path d="M1700.75 1182.64C1700.55 1182.59 1700.35 1182.6 1700.16 1182.68C1699.98 1182.76 1699.82 1182.89 1699.71 1183.06L1694.94 1192.06C1694.83 1192.27 1694.8 1192.51 1694.87 1192.73C1694.94 1192.96 1695.1 1193.15 1695.31 1193.25C1695.51 1193.36 1695.76 1193.39 1695.98 1193.32C1696.21 1193.25 1696.39 1193.09 1696.5 1192.88L1701.25 1183.88C1701.31 1183.78 1701.34 1183.68 1701.36 1183.56C1701.37 1183.45 1701.36 1183.34 1701.33 1183.23C1701.3 1183.12 1701.24 1183.02 1701.17 1182.93C1701.1 1182.84 1701.01 1182.77 1700.91 1182.72L1700.75 1182.64Z" fill="#263238"/>
<path d="M1707.09 1181.42C1707.02 1181.4 1706.93 1181.4 1706.86 1181.42L1700.38 1183.14C1700.32 1183.15 1700.27 1183.18 1700.22 1183.21C1700.18 1183.24 1700.14 1183.29 1700.11 1183.34C1700.08 1183.39 1700.07 1183.45 1700.06 1183.5C1700.06 1183.56 1700.07 1183.62 1700.09 1183.67C1700.1 1183.73 1700.12 1183.78 1700.16 1183.83C1700.19 1183.88 1700.23 1183.92 1700.28 1183.95C1700.33 1183.98 1700.39 1184 1700.45 1184C1700.5 1184.01 1700.56 1184.01 1700.62 1183.99L1707.07 1182.26C1707.13 1182.25 1707.18 1182.23 1707.23 1182.19C1707.27 1182.16 1707.31 1182.12 1707.34 1182.07C1707.37 1182.02 1707.39 1181.96 1707.4 1181.91C1707.41 1181.85 1707.4 1181.79 1707.39 1181.73C1707.36 1181.66 1707.33 1181.6 1707.28 1181.54C1707.23 1181.49 1707.16 1181.44 1707.09 1181.42V1181.42Z" fill="#263238"/>
<path d="M1699.26 1192.22C1699.07 1192.21 1698.87 1192.26 1698.71 1192.38C1698.55 1192.5 1698.44 1192.67 1698.39 1192.86L1695.73 1202.68C1695.7 1202.79 1695.69 1202.9 1695.7 1203.02C1695.72 1203.13 1695.75 1203.24 1695.81 1203.34C1695.87 1203.44 1695.94 1203.53 1696.04 1203.59C1696.13 1203.66 1696.23 1203.71 1696.34 1203.74C1696.45 1203.77 1696.57 1203.78 1696.68 1203.77C1696.79 1203.76 1696.9 1203.72 1697 1203.66C1697.1 1203.6 1697.19 1203.53 1697.26 1203.44C1697.33 1203.35 1697.38 1203.24 1697.4 1203.13L1700.06 1193.33C1700.09 1193.22 1700.1 1193.11 1700.09 1192.99C1700.07 1192.88 1700.04 1192.76 1699.98 1192.66C1699.92 1192.56 1699.85 1192.47 1699.76 1192.4C1699.67 1192.33 1699.56 1192.28 1699.45 1192.25L1699.26 1192.22Z" fill="#263238"/>
<path d="M1705.18 1189.56C1705.11 1189.54 1705.02 1189.54 1704.94 1189.56L1699.02 1192.67C1698.97 1192.7 1698.93 1192.73 1698.89 1192.78C1698.86 1192.82 1698.83 1192.87 1698.81 1192.92C1698.79 1192.98 1698.79 1193.04 1698.79 1193.09C1698.8 1193.15 1698.81 1193.2 1698.84 1193.25C1698.86 1193.3 1698.9 1193.35 1698.94 1193.39C1698.99 1193.42 1699.04 1193.45 1699.09 1193.47C1699.15 1193.49 1699.2 1193.49 1699.26 1193.49C1699.32 1193.48 1699.37 1193.47 1699.42 1193.44L1705.34 1190.33C1705.39 1190.31 1705.44 1190.27 1705.48 1190.23C1705.51 1190.19 1705.54 1190.14 1705.56 1190.08C1705.58 1190.03 1705.58 1189.97 1705.58 1189.91C1705.57 1189.86 1705.56 1189.8 1705.53 1189.75C1705.49 1189.69 1705.44 1189.64 1705.38 1189.61C1705.32 1189.58 1705.25 1189.56 1705.18 1189.56Z" fill="#263238"/>
<path d="M1703.4 1197.69C1703.2 1197.68 1703.01 1197.74 1702.84 1197.85C1702.68 1197.97 1702.56 1198.13 1702.5 1198.33L1699.85 1208.15C1699.8 1208.37 1699.84 1208.61 1699.95 1208.81C1700.07 1209 1700.26 1209.15 1700.48 1209.21C1700.59 1209.24 1700.71 1209.25 1700.82 1209.24C1700.94 1209.22 1701.05 1209.19 1701.15 1209.13C1701.24 1209.07 1701.33 1209 1701.4 1208.91C1701.47 1208.81 1701.52 1208.71 1701.55 1208.6L1704.2 1198.8C1704.26 1198.58 1704.23 1198.34 1704.11 1198.14C1704 1197.93 1703.81 1197.78 1703.59 1197.71L1703.4 1197.69Z" fill="#263238"/>
<path d="M1709.3 1195.03C1709.23 1195.01 1709.15 1195.01 1709.09 1195.03L1703.14 1198.14C1703.04 1198.2 1702.96 1198.3 1702.93 1198.41C1702.9 1198.53 1702.92 1198.65 1702.98 1198.75C1703 1198.8 1703.04 1198.85 1703.08 1198.88C1703.13 1198.92 1703.18 1198.95 1703.23 1198.97C1703.29 1198.98 1703.34 1198.99 1703.4 1198.98C1703.46 1198.98 1703.51 1198.96 1703.56 1198.94L1709.48 1195.83C1709.58 1195.77 1709.66 1195.67 1709.69 1195.56C1709.73 1195.45 1709.72 1195.33 1709.67 1195.22C1709.63 1195.16 1709.57 1195.11 1709.51 1195.08C1709.44 1195.04 1709.37 1195.03 1709.3 1195.03V1195.03Z" fill="#263238"/>
<path d="M1730.85 1182.64C1731.05 1182.59 1731.25 1182.6 1731.43 1182.68C1731.61 1182.75 1731.76 1182.89 1731.86 1183.06L1736.64 1192.06C1736.7 1192.16 1736.73 1192.27 1736.74 1192.39C1736.75 1192.5 1736.74 1192.61 1736.7 1192.72C1736.67 1192.83 1736.61 1192.93 1736.54 1193.02C1736.46 1193.11 1736.37 1193.18 1736.27 1193.23C1736.17 1193.28 1736.06 1193.32 1735.95 1193.33C1735.84 1193.34 1735.72 1193.33 1735.61 1193.3C1735.5 1193.27 1735.4 1193.22 1735.31 1193.14C1735.23 1193.07 1735.15 1192.98 1735.1 1192.88L1730.32 1183.88C1730.27 1183.78 1730.23 1183.67 1730.22 1183.56C1730.21 1183.44 1730.22 1183.33 1730.26 1183.22C1730.29 1183.11 1730.35 1183.01 1730.43 1182.92C1730.5 1182.84 1730.59 1182.77 1730.69 1182.72L1730.85 1182.64Z" fill="#263238"/>
<path d="M1724.51 1181.42C1724.59 1181.4 1724.67 1181.4 1724.75 1181.42L1731.2 1183.14C1731.26 1183.15 1731.31 1183.18 1731.35 1183.21C1731.4 1183.25 1731.44 1183.29 1731.47 1183.34C1731.5 1183.39 1731.52 1183.44 1731.53 1183.5C1731.53 1183.56 1731.53 1183.62 1731.52 1183.67C1731.5 1183.73 1731.48 1183.78 1731.45 1183.83C1731.41 1183.87 1731.37 1183.91 1731.32 1183.94C1731.27 1183.97 1731.21 1183.99 1731.16 1184C1731.1 1184.01 1731.04 1184 1730.99 1183.99L1724.51 1182.26C1724.45 1182.25 1724.4 1182.23 1724.35 1182.19C1724.3 1182.16 1724.27 1182.12 1724.24 1182.07C1724.21 1182.02 1724.19 1181.96 1724.18 1181.91C1724.17 1181.85 1724.18 1181.79 1724.19 1181.73C1724.21 1181.66 1724.25 1181.59 1724.31 1181.53C1724.37 1181.48 1724.43 1181.44 1724.51 1181.42V1181.42Z" fill="#263238"/>
<path d="M1732.32 1192.22C1732.52 1192.21 1732.72 1192.26 1732.88 1192.38C1733.04 1192.49 1733.16 1192.66 1733.22 1192.86L1735.87 1202.68C1735.9 1202.79 1735.91 1202.91 1735.89 1203.02C1735.88 1203.14 1735.84 1203.25 1735.78 1203.35C1735.67 1203.55 1735.47 1203.69 1735.25 1203.75C1735.02 1203.81 1734.78 1203.78 1734.58 1203.67C1734.38 1203.55 1734.23 1203.36 1734.17 1203.13L1731.52 1193.33C1731.46 1193.11 1731.49 1192.87 1731.61 1192.67C1731.72 1192.47 1731.91 1192.31 1732.13 1192.25L1732.32 1192.22Z" fill="#263238"/>
<path d="M1726.42 1189.56C1726.49 1189.54 1726.57 1189.54 1726.63 1189.56L1732.58 1192.67C1732.63 1192.7 1732.68 1192.73 1732.71 1192.77C1732.75 1192.82 1732.78 1192.87 1732.8 1192.92C1732.82 1192.98 1732.82 1193.03 1732.82 1193.09C1732.81 1193.15 1732.79 1193.2 1732.77 1193.25C1732.71 1193.35 1732.61 1193.43 1732.5 1193.46C1732.38 1193.5 1732.26 1193.49 1732.16 1193.44L1726.24 1190.33C1726.18 1190.31 1726.14 1190.27 1726.1 1190.23C1726.06 1190.19 1726.04 1190.14 1726.02 1190.08C1726 1190.03 1725.99 1189.97 1726 1189.91C1726.01 1189.86 1726.02 1189.8 1726.05 1189.75C1726.09 1189.69 1726.14 1189.64 1726.21 1189.6C1726.27 1189.57 1726.35 1189.56 1726.42 1189.56V1189.56Z" fill="#263238"/>
<path d="M1728.17 1197.69C1728.37 1197.67 1728.57 1197.73 1728.74 1197.85C1728.9 1197.96 1729.02 1198.13 1729.08 1198.32L1731.73 1208.15C1731.79 1208.37 1731.76 1208.6 1731.64 1208.8C1731.53 1209 1731.34 1209.15 1731.12 1209.21C1731.01 1209.25 1730.89 1209.26 1730.78 1209.25C1730.66 1209.23 1730.55 1209.2 1730.45 1209.14C1730.35 1209.08 1730.27 1209.01 1730.2 1208.91C1730.13 1208.82 1730.08 1208.71 1730.06 1208.6L1727.4 1198.8C1727.37 1198.69 1727.36 1198.57 1727.37 1198.46C1727.39 1198.34 1727.42 1198.23 1727.48 1198.13C1727.54 1198.03 1727.61 1197.94 1727.7 1197.87C1727.8 1197.8 1727.9 1197.74 1728.01 1197.71L1728.17 1197.69Z" fill="#263238"/>
<path d="M1722.17 1195.03C1722.25 1195.01 1722.33 1195.01 1722.41 1195.03L1728.33 1198.14C1728.43 1198.2 1728.51 1198.3 1728.54 1198.41C1728.58 1198.52 1728.57 1198.64 1728.52 1198.75C1728.49 1198.8 1728.46 1198.85 1728.41 1198.88C1728.37 1198.92 1728.32 1198.95 1728.27 1198.97C1728.21 1198.98 1728.15 1198.99 1728.1 1198.99C1728.04 1198.98 1727.98 1198.96 1727.93 1198.94L1722.17 1195.91C1722.07 1195.85 1722 1195.75 1721.96 1195.64C1721.93 1195.53 1721.94 1195.41 1721.99 1195.3C1722.01 1195.19 1722.08 1195.09 1722.17 1195.03Z" fill="#263238"/>
<path d="M1723.66 1172.52H1723.5C1723.33 1172.48 1723.19 1172.37 1723.09 1172.22C1723 1172.07 1722.96 1171.9 1723 1171.72L1724.62 1164.03C1724.68 1163.88 1724.79 1163.75 1724.93 1163.68C1725.08 1163.6 1725.24 1163.58 1725.4 1163.62C1725.56 1163.65 1725.7 1163.74 1725.8 1163.87C1725.9 1164 1725.95 1164.16 1725.94 1164.32L1724.3 1172.02C1724.26 1172.16 1724.18 1172.29 1724.06 1172.38C1723.95 1172.47 1723.81 1172.52 1723.66 1172.52V1172.52Z" fill="#263238"/>
<path d="M1719.23 1174.86C1719.17 1174.86 1719.11 1174.85 1719.06 1174.82C1719 1174.8 1718.96 1174.75 1718.93 1174.7C1718.87 1174.63 1718.84 1174.55 1718.84 1174.46C1718.84 1174.37 1718.87 1174.28 1718.93 1174.22L1723.37 1171.57C1723.43 1171.5 1723.52 1171.47 1723.61 1171.47C1723.7 1171.47 1723.78 1171.5 1723.85 1171.57C1723.9 1171.63 1723.93 1171.72 1723.93 1171.8C1723.93 1171.89 1723.9 1171.98 1723.85 1172.04L1719.41 1174.7L1719.23 1174.86Z" fill="#263238"/>
<path d="M1715.96 1182.8V1177.46" stroke="#263238" stroke-width="2.36622" stroke-miterlimit="10"/>
<path d="M1684 1036.01L1693.13 1057.52L1730.88 1055.55L1733.51 1030.81L1684 1036.01Z" fill="white" stroke="#263238" stroke-width="2.36622" stroke-linecap="round" stroke-linejoin="round"/>
<path d="M1697.35 1058.16L1726.34 1059.8L1724.69 1055.55L1697.35 1058.16Z" fill="#263238" stroke="#263238" stroke-width="2.36622" stroke-linecap="round" stroke-linejoin="round"/>
</svg>
