<svg width="354" height="120" viewBox="0 0 354 120" fill="none" xmlns="http://www.w3.org/2000/svg">
<path d="M124.387 85.1116C121.158 85.1116 118.154 84.2779 115.375 82.6104C112.622 80.9165 110.385 78.5476 108.665 75.5039C106.971 72.4336 106.124 68.834 106.124 64.705C106.124 60.3379 106.971 56.6456 108.665 53.6283C110.385 50.5845 112.622 48.2818 115.375 46.7202C118.154 45.1586 121.158 44.3778 124.387 44.3778C126.901 44.3778 129.111 44.7881 131.017 45.6086C132.949 46.4026 134.59 47.4878 135.94 48.8641C137.29 50.214 138.348 51.7226 139.116 53.3901C139.884 55.0576 140.373 56.7383 140.585 58.4322L131.136 58.6704C130.713 56.9765 129.919 55.5737 128.754 54.462C127.616 53.3504 126.134 52.7946 124.307 52.7946C122.799 52.7946 121.383 53.218 120.059 54.065C118.736 54.8855 117.651 56.1692 116.804 57.9161C115.983 59.6629 115.573 61.9259 115.573 64.705C115.573 67.3518 115.957 69.5619 116.724 71.3352C117.518 73.0821 118.577 74.4055 119.9 75.3054C121.224 76.1788 122.693 76.6155 124.307 76.6155C126.689 76.6155 128.423 76.0465 129.508 74.9083C130.593 73.7438 131.136 72.1954 131.136 70.2633H140.585C140.585 72.9894 139.963 75.4774 138.719 77.7272C137.475 79.9769 135.649 81.7767 133.24 83.1266C130.832 84.45 127.881 85.1116 124.387 85.1116ZM169.194 84L168.003 74.6304V59.1468C168.003 56.4471 167.447 54.4488 166.335 53.1519C165.25 51.855 163.397 51.2065 160.777 51.2065C159.268 51.2065 157.958 51.4315 156.847 51.8814C155.735 52.3314 154.875 52.9798 154.266 53.8268C153.684 54.6473 153.392 55.6531 153.392 56.8441H143.149C143.149 53.9327 143.851 51.5638 145.254 49.7375C146.656 47.8848 148.668 46.5349 151.288 45.688C153.935 44.8145 157.098 44.3778 160.777 44.3778C164.112 44.3778 167.023 44.9204 169.511 46.0056C171.999 47.0643 173.931 48.7053 175.308 50.9286C176.684 53.1519 177.372 55.9972 177.372 59.4644V84H169.194ZM156.569 85.1116C153.26 85.1116 150.494 84.5426 148.271 83.4045C146.074 82.2399 144.42 80.718 143.308 78.8388C142.197 76.9596 141.641 74.9216 141.641 72.7248C141.641 70.2897 142.276 68.2517 143.546 66.6107C144.843 64.9432 146.67 63.6993 149.025 62.8788C151.381 62.0318 154.16 61.6083 157.363 61.6083C159.454 61.6083 161.425 61.7671 163.278 62.0847C165.157 62.4023 167.023 62.8258 168.876 63.3552V68.834C167.42 68.3576 165.832 67.987 164.112 67.7224C162.392 67.4577 160.777 67.3253 159.268 67.3253C157.045 67.3253 155.219 67.7356 153.79 68.5561C152.36 69.3766 151.646 70.7661 151.646 72.7248C151.646 74.154 152.228 75.3848 153.392 76.417C154.557 77.4492 156.41 77.9654 158.951 77.9654C160.883 77.9654 162.524 77.5419 163.874 76.6949C165.224 75.8479 166.243 74.7892 166.931 73.5188C167.645 72.2483 168.003 70.9779 168.003 69.7074H170.226C170.226 72.4865 169.71 75.0539 168.678 77.4095C167.645 79.7387 166.11 81.6047 164.072 83.0075C162.061 84.4102 159.559 85.1116 156.569 85.1116ZM183.96 84V45.3307H193.329V84H183.96ZM191.026 67.0871C191.026 62.0318 191.596 57.8499 192.734 54.5414C193.872 51.233 195.394 48.7847 197.299 47.1966C199.231 45.5821 201.375 44.7748 203.731 44.7748C204.366 44.7748 204.962 44.8145 205.518 44.8939C206.1 44.9733 206.669 45.0925 207.225 45.2513L207.066 54.6208C206.378 54.462 205.637 54.3297 204.843 54.2238C204.049 54.1179 203.334 54.065 202.699 54.065C200.634 54.065 198.901 54.5679 197.498 55.5737C196.122 56.553 195.076 58.0087 194.361 59.9408C193.673 61.873 193.329 64.2551 193.329 67.0871H191.026Z" fill="#262626"/>
<path d="M207.906 45.4895H218.705L227.915 75.9803H227.201L236.412 45.4895H247.21L232.838 84H222.278L207.906 45.4895ZM276.395 45.3307H285.765V84H276.395V45.3307ZM249.954 45.3307H259.324V68.9928C259.324 71.5072 259.946 73.3997 261.19 74.6701C262.434 75.9141 264.141 76.5361 266.311 76.5361C268.164 76.5361 269.845 76.0597 271.353 75.1068C272.888 74.1275 274.106 72.6983 275.006 70.8191C275.932 68.9134 276.395 66.5578 276.395 63.7522H278.936C278.936 68.4634 278.328 72.3674 277.11 75.4642C275.893 78.5609 274.212 80.8768 272.068 82.4119C269.924 83.9471 267.449 84.7146 264.644 84.7146C261.891 84.7146 259.403 84.225 257.18 83.2457C254.957 82.2664 253.196 80.6915 251.9 78.5212C250.603 76.3508 249.954 73.4923 249.954 69.9456V45.3307ZM291.002 84V29.5294H300.371V84H291.002ZM299.101 60.0996L315.617 45.4895H328.321L299.101 69.7868V60.0996ZM317.84 84L300.61 59.4644L309.503 57.3205L329.274 84H317.84Z" fill="#262626"/>
<g style="mix-blend-mode:multiply" opacity="0.9">
<circle cx="82.2227" cy="80.9258" r="10.0508" fill="url(#paint0_linear_479_369)"/>
</g>
<path fill-rule="evenodd" clip-rule="evenodd" d="M52.0703 30.6753C51.9627 30.673 51.8546 30.6719 51.7461 30.6719C39.9281 30.6719 27.4297 44.1715 27.4297 60.8242C27.4297 77.4769 39.9281 90.9766 51.7461 90.9766C51.8546 90.9766 51.9627 90.9754 52.0703 90.9732V90.9766H69.5781V70.875H69.3457H56.9336H56.6094V70.8671C52.2832 70.6561 48.8281 66.2405 48.8281 60.8242C48.8281 55.408 52.2832 50.9924 56.6094 50.7813V50.7734H56.9336H69.3457H75.4141L88.0586 30.6719H52.0703V30.6753Z" fill="url(#paint1_linear_479_369)"/>
<defs>
<linearGradient id="paint0_linear_479_369" x1="65.5" y1="105.5" x2="67.5388" y2="57.9092" gradientUnits="userSpaceOnUse">
<stop offset="0.0880824" stop-color="#75F1C9"/>
<stop offset="0.314618" stop-color="#1DCF96"/>
<stop offset="0.640668" stop-color="#53A9DA"/>
<stop offset="0.838542" stop-color="#5D5FEF"/>
<stop offset="0.958333" stop-color="#7879F1"/>
</linearGradient>
<linearGradient id="paint1_linear_479_369" x1="30.0234" y1="90.9766" x2="89.3068" y2="25.9452" gradientUnits="userSpaceOnUse">
<stop stop-color="#2CD59F"/>
<stop offset="0.15625" stop-color="#1DCF96"/>
<stop offset="0.432292" stop-color="#53A9DA"/>
<stop offset="0.838542" stop-color="#5D5FEF"/>
<stop offset="0.958333" stop-color="#7879F1"/>
</linearGradient>
</defs>
</svg>
