<svg width="2724" height="1805" viewBox="0 0 2724 1805" fill="none" xmlns="http://www.w3.org/2000/svg">
<path d="M2643.83 479.946C2606.36 434.918 2553.24 522.322 2494.55 628.096C2462.39 686.056 2391.16 735.461 2360.06 808.275C2329.82 879.167 2340.76 970.749 2316.56 1035.41C2280.81 1130.77 2251.44 1129.97 2223.05 1179.38C2210.52 1150.86 2199.51 1116.78 2201.5 1081.7C2204.09 1037.13 2276.77 994.424 2278.43 937.856C2279.69 889.711 2210.19 830.027 2210.52 776.974C2210.52 726.508 2281.08 680.618 2280.15 628.891C2279.22 577.165 2207.2 521.062 2204.55 470.861C2201.83 416.814 2268.48 365.618 2263.64 317.406C2257.8 259.38 2180.74 211.964 2171.19 168.461C2153.55 88.2855 2158.73 -1.5061 2125.37 0.0191665C2093.94 1.47811 2112.11 98.896 2097.72 182.852C2089.82 229.273 2014.16 270.919 2010.18 332.792C2006.86 384.651 2075.3 449.905 2074.17 508.064C2073.11 562.377 2002.35 611.782 2002.75 668.084C2003.15 724.386 2074.7 785.529 2076.1 840.505C2077.62 898.597 2008.99 950.987 2011.11 1003.71C2012.23 1030.63 2026.69 1057.16 2042.87 1082.56C2022.65 1055.37 1996.45 1027.38 1986.37 995.219C1971.65 949.196 1994.53 890.441 1975.96 845.611C1956.07 797.002 1896.71 768.221 1872.64 730.155C1840.48 679.424 1827.28 611.782 1788.88 599.447C1729.73 580.348 1738.68 654.622 1761.63 747.199C1773.76 796.272 1754.27 865.108 1779.73 927.843C1801.55 981.691 1865.41 1023.8 1892.47 1079.24C1919.53 1134.68 1911.9 1207.89 1940.22 1257.9C1963.82 1299.48 2002.55 1327.99 2034.19 1353.79L2036.04 1358.89C2037.07 1359.99 2038.33 1360.83 2039.73 1361.37C2041.13 1361.91 2042.64 1362.13 2044.13 1362.01C2054.8 1370.64 2064.51 1380.37 2073.11 1391.06C2089.16 1412.28 2071.26 1453.73 2081.53 1464.01C2109.78 1492.45 2111.24 1469.18 2109.52 1444.57C2108.52 1430.32 2141.48 1407.37 2139.49 1386.08C2140.96 1383.66 2143.1 1381.72 2145.66 1380.51C2156.8 1377.99 2207.73 1421.1 2214.63 1407.04C2219.74 1396.83 2158 1353.99 2161.58 1340.72C2164.1 1331.37 2207.4 1334.56 2227.89 1330.45C2228.5 1330.87 2229.04 1331.38 2229.48 1331.97C2235.52 1339.8 2238.57 1374.55 2256.01 1368.11C2279.22 1359.49 2310.52 1251.73 2375.78 1148.54C2415.1 1086.34 2494.08 1037.6 2532.15 963.587C2570.22 889.579 2566.37 792.625 2590.91 723.192C2628.77 615.827 2678.11 521.327 2643.83 479.946ZM2089.36 1173.61C2092.14 1226.2 2074.31 1246.56 2057.26 1264.93C2046.78 1205.24 2087.7 1205.24 2067.41 1126.99C2065.48 1120.05 2062.72 1113.37 2059.19 1107.09C2074.7 1130.84 2088.3 1153.25 2089.36 1173.61ZM2115.42 1351.2C2116.44 1352.79 2117.12 1354.56 2117.43 1356.42C2117.74 1358.28 2117.66 1360.18 2117.21 1362.01C2110.58 1358.23 2103.95 1354.58 2097.85 1350.8C2106.47 1349.08 2113.17 1348.55 2115.42 1351.2V1351.2Z" fill="#92E3A9"/>
<path opacity="0.5" d="M2643.83 479.946C2606.36 434.918 2553.24 522.322 2494.55 628.096C2462.39 686.056 2391.16 735.461 2360.06 808.275C2329.82 879.167 2340.76 970.749 2316.56 1035.41C2280.81 1130.77 2251.44 1129.97 2223.05 1179.38C2210.52 1150.86 2199.51 1116.78 2201.5 1081.7C2204.09 1037.13 2276.77 994.424 2278.43 937.856C2279.69 889.711 2210.19 830.027 2210.52 776.974C2210.52 726.508 2281.08 680.618 2280.15 628.891C2279.22 577.165 2207.2 521.062 2204.55 470.861C2201.83 416.814 2268.48 365.618 2263.64 317.406C2257.8 259.38 2180.74 211.964 2171.19 168.461C2153.55 88.2855 2158.73 -1.5061 2125.37 0.0191665C2093.94 1.47811 2112.11 98.896 2097.72 182.852C2089.82 229.273 2014.16 270.919 2010.18 332.792C2006.86 384.651 2075.3 449.905 2074.17 508.064C2073.11 562.377 2002.35 611.782 2002.75 668.084C2003.15 724.386 2074.7 785.529 2076.1 840.505C2077.62 898.597 2008.99 950.987 2011.11 1003.71C2012.23 1030.63 2026.69 1057.16 2042.87 1082.56C2022.65 1055.37 1996.45 1027.38 1986.37 995.219C1971.65 949.196 1994.53 890.441 1975.96 845.611C1956.07 797.002 1896.71 768.221 1872.64 730.155C1840.48 679.424 1827.28 611.782 1788.88 599.447C1729.73 580.348 1738.68 654.622 1761.63 747.199C1773.76 796.272 1754.27 865.108 1779.73 927.843C1801.55 981.691 1865.41 1023.8 1892.47 1079.24C1919.53 1134.68 1911.9 1207.89 1940.22 1257.9C1963.82 1299.48 2002.55 1327.99 2034.19 1353.79L2036.04 1358.89C2037.07 1359.99 2038.33 1360.83 2039.73 1361.37C2041.13 1361.91 2042.64 1362.13 2044.13 1362.01C2054.8 1370.64 2064.51 1380.37 2073.11 1391.06C2089.16 1412.28 2071.26 1453.73 2081.53 1464.01C2109.78 1492.45 2111.24 1469.18 2109.52 1444.57C2108.52 1430.32 2141.48 1407.37 2139.49 1386.08C2140.96 1383.66 2143.1 1381.72 2145.66 1380.51C2156.8 1377.99 2207.73 1421.1 2214.63 1407.04C2219.74 1396.83 2158 1353.99 2161.58 1340.72C2164.1 1331.37 2207.4 1334.56 2227.89 1330.45C2228.5 1330.87 2229.04 1331.38 2229.48 1331.97C2235.52 1339.8 2238.57 1374.55 2256.01 1368.11C2279.22 1359.49 2310.52 1251.73 2375.78 1148.54C2415.1 1086.34 2494.08 1037.6 2532.15 963.587C2570.22 889.579 2566.37 792.625 2590.91 723.192C2628.77 615.827 2678.11 521.327 2643.83 479.946ZM2089.36 1173.61C2092.14 1226.2 2074.31 1246.56 2057.26 1264.93C2046.78 1205.24 2087.7 1205.24 2067.41 1126.99C2065.48 1120.05 2062.72 1113.37 2059.19 1107.09C2074.7 1130.84 2088.3 1153.25 2089.36 1173.61ZM2115.42 1351.2C2116.44 1352.79 2117.12 1354.56 2117.43 1356.42C2117.74 1358.28 2117.66 1360.18 2117.21 1362.01C2110.58 1358.23 2103.95 1354.58 2097.85 1350.8C2106.47 1349.08 2113.17 1348.55 2115.42 1351.2V1351.2Z" fill="white"/>
<g opacity="0.2">
<path opacity="0.2" d="M2190.76 1118.23L2184.12 1115.12L2164.23 1181.63L2165.03 1023.73L2201.17 920.944L2194.47 918.093L2165.16 1001.58L2165.89 854.629L2223.91 757.94L2217.75 753.895L2165.95 840.305L2166.75 679.423L2220.47 598.451L2214.5 594.207L2166.82 666.027L2167.48 529.549L2201.7 458.061L2195.33 454.48L2167.61 512.771L2168.34 360.975L2213.17 269.193L2206.8 265.679L2168.41 344.197L2169.14 200.623L2162.11 199.96L2161.38 342.008L2085.38 227.68L2079.61 231.261L2161.31 354.144L2160.45 521.061L2084.72 441.614L2079.88 446.257L2160.45 530.743L2159.72 670.868L2086.44 606.741L2082.06 611.913L2159.65 679.754L2158.86 842.427L2083.32 755.288L2078.22 759.665L2158.79 852.706L2158 1021.94L2157.4 1023.53L2083.99 914.313L2078.28 917.894L2157.86 1036.33L2157.07 1199.21L2096.46 1077.25L2090.16 1079.97L2157 1214.33L2156.01 1413.47L2163.04 1414.13L2164.1 1201.86L2190.76 1118.23Z" fill="black"/>
<path opacity="0.2" d="M2567.89 761.718L2564.71 755.153L2491.56 785.392L2528.37 709.726L2610.67 663.305L2606.82 657.071L2534.01 698.121L2595.08 572.585L2588.72 569.07L2534.4 680.547L2548.2 556.338L2541.17 554.879L2525.12 699.646L2485.79 780.485L2490.37 652.429L2483.34 651.567L2478.17 796.202L2433.47 888.049L2420.81 797.329L2413.84 797.661L2428.03 899.257L2376.9 1004.37L2372.53 894.018L2365.5 893.686L2370.41 1017.76L2313.37 1134.94L2307.34 1089.98L2300.31 1090.11L2307.6 1146.75L2216.02 1335.02L2222.46 1338.6L2309.13 1160.41L2309.46 1163.66L2391.23 1130.76L2388.11 1124.13L2315.36 1153.38L2314.9 1148.6L2375.98 1023L2454.1 998.863L2451.51 992.099L2380.29 1014.05L2435.46 900.649L2524.85 862.849L2521.61 856.284L2440.37 890.702L2486.72 795.274L2567.89 761.718Z" fill="black"/>
<path opacity="0.2" d="M2037.17 1156.3L2030.14 1155.24L2025.3 1225.27L1988.82 1146.75L2006.93 1056.89L1999.97 1054.9L1983.72 1135.81L1934.31 1029.5L1947.51 919.286L1940.55 917.894L1928.61 1017.23L1887.56 928.902L1891.67 930.626L1897.57 822.134L1890.54 821.139L1885.11 920.48L1883.32 919.75L1837.09 820.277L1845.98 718.615L1838.95 717.355L1831.06 807.345L1782.38 702.566L1776.02 705.086L1827.81 816.497L1771.11 781.615L1767.86 787.583L1832.98 827.638L1873.97 915.904L1820.05 893.688L1817.93 900.187L1878.28 925.056L1920.78 1016.57L1857.12 980.297L1854.07 986.398L1925.69 1027.18L1976.42 1136.34L1919.59 1115.38L1917.73 1122.01L1980.54 1145.16L2024.3 1239.39L2023.97 1244.5L1969.39 1215.45L1966.54 1221.62L2030.34 1255.64L2030.54 1252.72L2114.16 1432.7L2120.53 1430.18L2031.47 1238.6L2037.17 1156.3Z" fill="black"/>
</g>
<path d="M2094 1423.49C2094 1423.49 2100.23 1403 2056.6 1378.59C2039.07 1368.18 2021.01 1358.68 2002.49 1350.14C2002.49 1350.14 2012.76 1380.85 2035.31 1397.16C2057.86 1413.47 2067.48 1420.9 2067.48 1420.9C2049.27 1412.02 2029.42 1406.99 2009.18 1406.11C1990.92 1405.62 1972.95 1410.71 1957.66 1420.7C1976.67 1430.71 1996.27 1439.57 2016.35 1447.23C2040.28 1455.67 2065.44 1460.15 2090.82 1460.49C2090.82 1460.49 2033.92 1453.86 2022.78 1464.94C2012.38 1477.05 2003.17 1490.13 1995.26 1504C2018.72 1502 2042.31 1502.12 2065.75 1504.33C2095.92 1508.31 2135.85 1493.12 2135.85 1493.12L2169.93 1510.03L2184.26 1488.74C2184.26 1488.74 2192.28 1488.01 2219.4 1502.01C2244.43 1513.71 2270.24 1523.64 2296.66 1531.72L2245.93 1466.66L2297.19 1478.73C2322.86 1484.76 2364.17 1477.73 2364.17 1477.73C2364.17 1477.73 2360.26 1464.8 2332.14 1453.99C2304.02 1443.18 2250.31 1426.34 2250.31 1426.34C2250.31 1426.34 2294.54 1435.69 2323.92 1416.46C2341.88 1404.57 2358.11 1390.24 2372.13 1373.88C2372.13 1373.88 2330.22 1349.21 2290.69 1357.84C2263.83 1364.84 2238.69 1377.28 2216.82 1394.38C2216.82 1394.38 2242.68 1373.75 2250.97 1346.36C2255.7 1331.43 2259.03 1316.09 2260.92 1300.54C2260.92 1300.54 2212.97 1316.52 2200.77 1330.91C2188.57 1345.3 2168.01 1387.08 2168.01 1387.08C2168.01 1387.08 2188.57 1345.3 2164.56 1320.77C2140.56 1296.23 2120.33 1277.13 2120.33 1277.13C2120.33 1277.13 2100.1 1306.51 2095.92 1330.18C2091.75 1353.86 2122.12 1396.1 2122.12 1396.1L2095.06 1381.91L2094 1423.49Z" fill="#92E3A9"/>
<path opacity="0.3" d="M2094 1423.49C2094 1423.49 2100.23 1403 2056.6 1378.59C2039.07 1368.18 2021.01 1358.68 2002.49 1350.14C2002.49 1350.14 2012.76 1380.85 2035.31 1397.16C2057.86 1413.47 2067.48 1420.9 2067.48 1420.9C2049.27 1412.02 2029.42 1406.99 2009.18 1406.11C1990.92 1405.62 1972.95 1410.71 1957.66 1420.7C1976.67 1430.71 1996.27 1439.57 2016.35 1447.23C2040.28 1455.67 2065.44 1460.15 2090.82 1460.49C2090.82 1460.49 2033.92 1453.86 2022.78 1464.94C2012.38 1477.05 2003.17 1490.13 1995.26 1504C2018.72 1502 2042.31 1502.12 2065.75 1504.33C2095.92 1508.31 2135.85 1493.12 2135.85 1493.12L2169.93 1510.03L2184.26 1488.74C2184.26 1488.74 2192.28 1488.01 2219.4 1502.01C2244.43 1513.71 2270.24 1523.64 2296.66 1531.72L2245.93 1466.66L2297.19 1478.73C2322.86 1484.76 2364.17 1477.73 2364.17 1477.73C2364.17 1477.73 2360.26 1464.8 2332.14 1453.99C2304.02 1443.18 2250.31 1426.34 2250.31 1426.34C2250.31 1426.34 2294.54 1435.69 2323.92 1416.46C2341.88 1404.57 2358.11 1390.24 2372.13 1373.88C2372.13 1373.88 2330.22 1349.21 2290.69 1357.84C2263.83 1364.84 2238.69 1377.28 2216.82 1394.38C2216.82 1394.38 2242.68 1373.75 2250.97 1346.36C2255.7 1331.43 2259.03 1316.09 2260.92 1300.54C2260.92 1300.54 2212.97 1316.52 2200.77 1330.91C2188.57 1345.3 2168.01 1387.08 2168.01 1387.08C2168.01 1387.08 2188.57 1345.3 2164.56 1320.77C2140.56 1296.23 2120.33 1277.13 2120.33 1277.13C2120.33 1277.13 2100.1 1306.51 2095.92 1330.18C2091.75 1353.86 2122.12 1396.1 2122.12 1396.1L2095.06 1381.91L2094 1423.49Z" fill="white"/>
<path d="M975.918 570.534C975.918 570.534 933.144 536.248 922.136 514.165C912.852 495.398 906.087 468.872 915.504 448.911C917.545 444.154 920.578 439.888 924.398 436.396C928.218 432.904 932.739 430.267 937.659 428.661C942.58 427.054 947.786 426.515 952.931 427.079C958.076 427.644 963.041 429.299 967.496 431.934C994.022 448.579 996.675 505.345 989.977 532.667C989.579 535.055 976.382 570.932 975.918 570.534Z" fill="#92E3A9"/>
<path d="M1371.56 856.551C1369.77 858.209 1339.26 880.69 1339.06 880.16C1338.86 879.629 1322.02 827.505 1324.87 802.968C1327.26 782.079 1336.01 756.149 1354.91 744.876C1359.27 742.077 1364.17 740.24 1369.29 739.486C1374.41 738.732 1379.64 739.079 1384.61 740.503C1389.59 741.928 1394.21 744.398 1398.15 747.748C1402.1 751.097 1405.29 755.25 1407.5 759.929C1420.43 788.71 1391.98 837.651 1371.56 856.551Z" fill="#92E3A9"/>
<path d="M474.903 622.59C474.903 622.59 631.54 786.92 630.745 988.785C629.949 1190.65 471.587 1353.52 471.587 1353.52C471.587 1353.52 314.949 1189.19 315.811 987.326C316.673 785.461 474.903 622.59 474.903 622.59Z" fill="#92E3A9"/>
<path d="M698.254 1109.68C696.183 1107.43 694.298 1105.01 692.617 1102.45C681.21 1084.88 671.462 1059.35 678.823 1038.33C680.31 1033.36 682.835 1028.78 686.231 1024.86C689.626 1020.95 693.814 1017.81 698.518 1015.64C703.221 1013.47 708.332 1012.32 713.511 1012.28C718.691 1012.23 723.82 1013.29 728.56 1015.38C749.847 1025.59 760.259 1060.28 762.514 1088.66C771.002 1086.67 778.628 1085.14 785.194 1084.02C788.045 1077.39 790.83 1071.15 793.682 1064.59C796.534 1058.02 798.987 1051.32 801.706 1044.36C805.42 1034.28 808.802 1023.67 812.184 1013.13C799.783 1007.49 763.707 990.313 750.245 975.193C736.783 960.073 722.989 935.801 727.101 913.983C727.828 908.846 729.635 903.921 732.403 899.532C735.171 895.144 738.837 891.391 743.16 888.522C747.483 885.653 752.364 883.731 757.483 882.885C762.602 882.038 767.842 882.286 772.859 883.61C802.568 892.629 820.076 946.677 820.673 974.795C820.673 975.723 820.208 981.426 819.611 988.721C822.596 978.309 825.646 967.964 828.299 957.287C835.991 927.047 842.822 896.012 849.851 864.976C851.31 858.344 852.836 852.044 854.361 845.612C843.883 840.903 804.624 822.666 790.565 806.883C776.506 791.1 763.243 767.492 767.355 745.608C768.09 740.476 769.903 735.558 772.675 731.178C775.446 726.797 779.113 723.052 783.435 720.19C787.757 717.327 792.636 715.412 797.751 714.569C802.866 713.727 808.101 713.976 813.113 715.301C842.888 724.254 860.329 778.301 860.992 806.419C860.992 807.48 860.396 814.576 859.666 822.534C863.711 805.69 867.956 788.978 872.929 772.532C880.856 744.269 890.626 716.556 902.175 689.571C898.461 687.979 852.04 667.488 836.389 649.781C822.529 634.197 809.134 610.39 813.179 588.572C813.914 583.432 815.729 578.506 818.504 574.117C821.279 569.729 824.951 565.977 829.279 563.108C833.607 560.24 838.493 558.319 843.616 557.473C848.739 556.627 853.983 556.875 859.003 558.199C888.712 567.218 906.22 621.266 906.817 649.383C906.817 651.373 904.562 677.103 903.435 686.255L903.832 685.326C915.788 659.15 930.059 634.093 946.473 610.456C960.946 589.285 976.645 568.98 993.491 549.645C1008.94 531.607 1024.2 516.022 1037.72 502.295C1045.15 495 1052.05 488.369 1058.55 482.4H1057.88C1057.35 482.4 1072.41 447.253 1073.6 445.131C1087.53 420.727 1128.44 381.998 1158.75 388.696C1163.79 390.007 1168.51 392.358 1172.59 395.598C1176.67 398.837 1180.03 402.894 1182.46 407.509C1184.88 412.123 1186.31 417.192 1186.66 422.392C1187.01 427.592 1186.27 432.807 1184.48 437.704C1177.85 458.858 1154.64 473.116 1135.14 479.947C1115.64 486.777 1071.28 483.594 1060.4 482.599C1053.77 489.231 1046.74 495.863 1039.18 503.887C1025.92 517.813 1011.06 533.729 996.078 552.032C992.099 556.939 987.987 562.377 983.942 567.55C992.563 560.255 1004.57 550.44 1005.83 549.645C1029.24 534.525 1083.15 519.272 1107.02 539.432C1110.91 542.919 1114.02 547.175 1116.18 551.93C1118.33 556.685 1119.47 561.835 1119.52 567.054C1119.58 572.273 1118.55 577.446 1116.5 582.246C1114.45 587.047 1111.43 591.369 1107.62 594.938C1092.04 610.589 1065.11 612.446 1044.62 609.395C1024.13 606.344 984.937 581.94 976.78 576.569C967.96 588.108 959.14 600.243 950.651 613.44C934.956 637.149 921.397 662.204 910.132 688.311C909.469 689.836 909.005 691.428 908.408 692.953C912.056 688.642 933.807 666.427 935.531 664.901C957.15 647.261 1009.08 626.107 1035 643.481C1039.24 646.525 1042.8 650.417 1045.46 654.909C1048.12 659.401 1049.81 664.397 1050.43 669.578C1051.06 674.759 1050.6 680.014 1049.08 685.008C1047.57 690.002 1045.03 694.627 1041.64 698.59C1027.84 715.832 1001.25 720.673 980.56 719.943C956.752 719.081 909.801 695.009 908.077 694.08C897.513 720.431 888.653 747.433 881.55 774.919C876.179 795.278 871.603 816.101 867.16 837.057C872.067 831.486 892.293 810.531 893.686 809.403C915.305 791.763 967.23 770.609 993.16 787.983C997.399 791.027 1000.96 794.919 1003.62 799.411C1006.27 803.903 1007.96 808.899 1008.59 814.08C1009.21 819.261 1008.75 824.516 1007.24 829.51C1005.72 834.504 1003.19 839.129 999.791 843.092C985.998 860.334 959.405 865.241 938.781 864.445C915.504 863.583 870.409 840.704 866.629 838.781C864.573 848.264 862.584 857.814 860.595 867.363C853.963 898.532 848.061 929.766 840.7 960.205C838.246 970.816 835.461 981.161 832.676 991.639C840.302 983.548 854.361 969.092 855.753 968.03C877.306 950.391 929.298 929.236 955.227 946.544C959.468 949.594 963.03 953.492 965.686 957.99C968.343 962.488 970.036 967.489 970.66 972.675C971.283 977.862 970.823 983.121 969.308 988.121C967.793 993.12 965.256 997.751 961.859 1001.72C947.999 1018.96 921.472 1023.8 900.782 1023.07C880.091 1022.34 841.695 1003.91 830.951 998.536C826.243 1015.84 821.203 1032.89 815.434 1049.47C812.847 1056.5 810.592 1063.92 807.675 1070.55L803.298 1081.17C807.144 1080.7 809.332 1080.57 809.332 1080.57C809.332 1080.57 809.73 1090.38 808.802 1106.43C831.615 1089.92 864.441 1075.73 885.861 1085.67C890.504 1088.06 894.601 1091.38 897.893 1095.43C901.185 1099.48 903.6 1104.17 904.984 1109.2C906.368 1114.23 906.692 1119.49 905.934 1124.66C905.176 1129.82 903.354 1134.77 900.583 1139.19C899.186 1141.54 897.588 1143.75 895.808 1145.82C891.788 1170.17 881.658 1193.1 866.364 1212.47C865.17 1213.86 849.719 1228.39 841.628 1235.61C849.453 1231.3 857.212 1227.06 865.237 1222.35C876.908 1215.72 888.978 1208.49 900.716 1201.46L918.82 1189.72C924.987 1185.88 930.491 1181.43 936.46 1177.26C945.081 1170.96 953.636 1163.99 962.19 1157.36C954.896 1145.76 934.139 1110.94 931.088 1091.05C928.038 1071.15 929.696 1042.83 945.015 1026.92C948.454 1023.05 952.678 1019.97 957.405 1017.87C962.133 1015.77 967.254 1014.7 972.427 1014.74C977.6 1014.78 982.705 1015.92 987.401 1018.09C992.097 1020.26 996.276 1023.4 999.659 1027.32C1019.55 1051.46 1004.83 1106.3 990.043 1130.17C989.579 1130.9 985.931 1135.61 981.554 1141.18C989.711 1134.15 997.868 1127.19 1005.89 1119.83C1028.7 1098.87 1051.25 1076.85 1074 1054.9L1088.26 1041.24C1082.09 1031.49 1059.21 994.292 1056.09 973.203C1052.98 952.115 1054.7 924.992 1069.95 909.076C1073.39 905.212 1077.62 902.126 1082.34 900.025C1087.07 897.925 1092.19 896.857 1097.37 896.895C1102.54 896.933 1107.64 898.074 1112.34 900.244C1117.04 902.413 1121.22 905.56 1124.6 909.474C1144.49 933.613 1129.77 988.456 1115.05 1012.33C1114.52 1013.19 1110.14 1018.96 1105.23 1025C1117.77 1013.26 1130.37 1001.65 1143.23 990.578C1165.16 971.351 1188.35 953.627 1212.66 937.525C1210.41 934.077 1182.76 891.104 1179.51 867.562C1176.39 846.805 1178.11 819.417 1193.37 803.501C1196.8 799.633 1201.02 796.542 1205.75 794.436C1210.47 792.33 1215.59 791.256 1220.76 791.288C1225.94 791.319 1231.04 792.454 1235.74 794.618C1240.44 796.781 1244.62 799.923 1248.01 803.833C1267.91 828.038 1253.18 882.881 1238.46 906.688C1237.4 908.413 1221.48 928.573 1215.58 935.602L1216.44 935.005C1240.64 919.895 1266.14 906.978 1292.64 896.41C1316.13 887.119 1340.13 879.192 1364.53 872.668C1387.27 866.037 1408.36 861.793 1427.13 858.013C1437.28 856.023 1446.63 854.365 1455.38 852.973L1454.85 852.575C1454.39 852.177 1486.02 831.354 1488.01 830.293C1512.88 817.759 1568.05 808.342 1589.67 830.956C1593.18 834.818 1595.84 839.368 1597.5 844.317C1599.15 849.266 1599.76 854.505 1599.28 859.701C1598.8 864.897 1597.24 869.936 1594.71 874.497C1592.18 879.059 1588.72 883.043 1584.56 886.197C1567.39 900.057 1540.46 899.062 1520.44 893.823C1500.41 888.584 1465.2 861.063 1456.64 854.034C1447.62 855.692 1438.01 857.548 1427.4 859.87C1408.76 864.047 1387.61 868.955 1365.32 875.852C1359.36 877.709 1352.99 879.897 1346.76 881.953C1357.96 880.759 1373.28 879.3 1374.81 879.3C1402.46 879.831 1455.71 897.338 1464.73 927.512C1466.06 932.516 1466.33 937.741 1465.54 942.857C1464.74 947.973 1462.89 952.867 1460.1 957.231C1457.32 961.595 1453.65 965.332 1449.35 968.207C1445.04 971.082 1440.19 973.032 1435.09 973.933C1413.6 978.177 1390.13 964.648 1374.67 950.589C1359.22 936.53 1339.92 894.354 1335.95 885.202C1322.28 889.911 1308.36 895.083 1294.1 901.317C1268.15 912.302 1243.24 925.62 1219.69 941.106C1218.3 942.035 1217.04 943.096 1215.65 944.024C1221.09 942.499 1251.39 936 1253.58 935.801C1281.17 933.215 1335.95 944.687 1348.15 973.734C1350.06 978.58 1350.94 983.772 1350.73 988.978C1350.52 994.184 1349.23 999.289 1346.93 1003.97C1344.63 1008.64 1341.38 1012.79 1337.39 1016.13C1333.4 1019.48 1328.75 1021.96 1323.74 1023.4C1302.85 1030.04 1278.05 1019.23 1261.21 1006.96C1241.84 992.899 1215.72 946.478 1214.79 944.687C1191.69 960.811 1169.65 978.399 1148.8 997.342C1133.28 1011.27 1118.16 1026.06 1103.11 1041.04C1110.21 1039.19 1138.39 1033.22 1140.45 1033.02C1168.03 1030.43 1222.88 1041.91 1235.01 1070.89C1236.93 1075.73 1237.81 1080.92 1237.6 1086.13C1237.39 1091.34 1236.09 1096.44 1233.79 1101.12C1231.5 1105.79 1228.25 1109.94 1224.26 1113.29C1220.26 1116.63 1215.61 1119.11 1210.61 1120.56C1189.72 1127.19 1164.92 1116.38 1148.14 1104.18C1129.17 1090.38 1103.97 1046.02 1101.72 1042.3L1081.23 1062.73C1059.08 1085.21 1036.86 1107.82 1014.31 1129.44C1006.56 1136.94 998.598 1144.03 990.64 1151.13C1001.32 1148.67 1020.95 1144.5 1022.67 1144.5C1050.26 1141.91 1105.03 1153.38 1117.24 1182.43C1119.15 1187.28 1120.03 1192.47 1119.82 1197.67C1119.61 1202.88 1118.32 1207.98 1116.02 1212.66C1113.72 1217.34 1110.47 1221.48 1106.48 1224.83C1102.49 1228.18 1097.84 1230.65 1092.83 1232.1C1071.94 1238.73 1047.14 1227.92 1030.3 1215.65C1013.45 1203.38 991.436 1166.58 985.334 1155.97C972.071 1167.77 958.808 1179.11 944.816 1189.72C938.781 1194.1 932.879 1199.01 926.844 1202.99L909.071 1215.12C896.604 1222.95 885.065 1230.24 873.261 1237.27C867.359 1240.85 861.656 1243.9 855.886 1247.49C866.364 1243.31 883.076 1237.01 884.667 1236.61C911.591 1229.98 967.429 1232.7 983.809 1259.49C986.455 1264.01 988.124 1269.04 988.71 1274.24C989.296 1279.45 988.786 1284.72 987.212 1289.72C985.637 1294.72 983.034 1299.33 979.57 1303.26C976.106 1307.19 971.857 1310.35 967.098 1312.54C947.203 1322.29 921.34 1315.39 902.838 1305.91C882.479 1295.43 851.907 1256.9 848.127 1252.19C833.936 1260.42 820.009 1268.31 806.812 1275.47C771.665 1294.57 740.961 1309.82 717.154 1321.23C639.763 1389.2 530.873 1396.7 530.873 1396.7C530.873 1396.7 525.17 1264.06 601.963 1176.93C628.703 1147.68 661.587 1124.71 698.254 1109.68V1109.68ZM836.389 1238.93C834.002 1233.49 815.434 1191.38 814.174 1167.64C809.863 1166.85 805.553 1165.92 801.375 1164.92C793.526 1206.71 777.16 1246.44 753.296 1281.64C767.355 1275.01 782.607 1267.31 798.788 1258.96C810.791 1252.79 823.458 1246.03 836.389 1238.93Z" fill="#92E3A9"/>
<path d="M127.674 1084.35C127.674 1084.35 258.117 1088.39 338.027 1172.75C417.938 1257.1 416.876 1389.73 416.876 1389.73C416.876 1389.73 286.433 1385.69 206.523 1301.33C126.613 1216.98 127.674 1084.35 127.674 1084.35Z" fill="#92E3A9"/>
<g opacity="0.5">
<path opacity="0.5" d="M975.918 570.531C975.918 570.531 933.144 536.245 922.136 514.162C912.852 495.395 906.087 468.869 915.504 448.908C917.545 444.151 920.578 439.885 924.398 436.393C928.218 432.901 932.739 430.264 937.659 428.658C942.58 427.051 947.786 426.512 952.931 427.077C958.076 427.641 963.041 429.296 967.496 431.931C994.022 448.576 996.675 505.342 989.977 532.664C989.579 535.052 976.382 570.929 975.918 570.531Z" fill="white"/>
<path opacity="0.5" d="M1371.56 856.549C1369.77 858.207 1339.26 880.688 1339.06 880.158C1338.86 879.627 1322.02 827.503 1324.87 802.966C1327.26 782.077 1336.01 756.147 1354.91 744.874C1359.27 742.075 1364.17 740.238 1369.29 739.484C1374.41 738.73 1379.64 739.077 1384.61 740.501C1389.59 741.926 1394.21 744.396 1398.15 747.746C1402.1 751.095 1405.29 755.248 1407.5 759.927C1420.43 788.708 1391.98 837.649 1371.56 856.549Z" fill="white"/>
<path opacity="0.5" d="M474.903 622.587C474.903 622.587 631.54 786.917 630.745 988.782C629.949 1190.65 471.587 1353.52 471.587 1353.52C471.587 1353.52 314.949 1189.19 315.811 987.323C316.673 785.458 474.903 622.587 474.903 622.587Z" fill="white"/>
<path opacity="0.5" d="M698.254 1109.68C696.183 1107.42 694.298 1105.01 692.617 1102.45C681.21 1084.88 671.462 1059.34 678.823 1038.32C680.31 1033.36 682.835 1028.77 686.231 1024.86C689.626 1020.95 693.814 1017.8 698.518 1015.63C703.221 1013.46 708.332 1012.32 713.511 1012.28C718.691 1012.23 723.82 1013.29 728.56 1015.38C749.847 1025.59 760.259 1060.27 762.514 1088.66C771.002 1086.67 778.628 1085.14 785.194 1084.01C788.045 1077.38 790.83 1071.15 793.682 1064.58C796.534 1058.02 798.987 1051.32 801.706 1044.36C805.42 1034.28 808.802 1023.67 812.184 1013.12C799.783 1007.49 763.707 990.31 750.245 975.19C736.783 960.07 722.989 935.798 727.101 913.98C727.828 908.843 729.635 903.918 732.403 899.529C735.171 895.141 738.837 891.388 743.16 888.519C747.483 885.65 752.364 883.729 757.483 882.882C762.602 882.035 767.842 882.283 772.859 883.608C802.568 892.626 820.076 946.674 820.673 974.792C820.673 975.72 820.208 981.423 819.611 988.718C822.596 978.306 825.646 967.961 828.299 957.284C835.991 927.044 842.822 896.009 849.851 864.973C851.31 858.341 852.836 852.041 854.361 845.609C843.883 840.9 804.624 822.664 790.565 806.88C776.506 791.097 763.243 767.489 767.355 745.605C768.09 740.473 769.903 735.556 772.675 731.175C775.446 726.794 779.113 723.049 783.435 720.187C787.757 717.324 792.636 715.409 797.751 714.566C802.866 713.724 808.101 713.973 813.113 715.298C842.888 724.251 860.329 778.298 860.992 806.416C860.992 807.477 860.396 814.573 859.666 822.531C863.711 805.687 867.956 788.975 872.929 772.529C880.856 744.266 890.626 716.553 902.175 689.568C898.461 687.976 852.04 667.485 836.389 649.778C822.529 634.194 809.134 610.387 813.179 588.569C813.914 583.429 815.729 578.503 818.504 574.114C821.279 569.726 824.951 565.974 829.279 563.105C833.607 560.237 838.493 558.316 843.616 557.47C848.739 556.624 853.983 556.872 859.003 558.196C888.712 567.215 906.22 621.263 906.817 649.38C906.817 651.37 904.562 677.101 903.435 686.252L903.832 685.324C915.788 659.147 930.059 634.09 946.473 610.453C960.946 589.282 976.645 568.977 993.491 549.642C1008.94 531.604 1024.2 516.02 1037.72 502.292C1045.15 494.997 1052.05 488.366 1058.55 482.397H1057.88C1057.35 482.397 1072.41 447.25 1073.6 445.128C1087.53 420.724 1128.44 381.995 1158.75 388.693C1163.79 390.004 1168.51 392.355 1172.59 395.595C1176.67 398.834 1180.03 402.892 1182.46 407.506C1184.88 412.12 1186.31 417.189 1186.66 422.389C1187.01 427.589 1186.27 432.804 1184.48 437.701C1177.85 458.855 1154.64 473.113 1135.14 479.944C1115.64 486.774 1071.28 483.591 1060.4 482.596C1053.77 489.228 1046.74 495.86 1039.18 503.884C1025.92 517.81 1011.06 533.726 996.078 552.029C992.099 556.936 987.987 562.374 983.942 567.547C992.563 560.252 1004.57 550.437 1005.83 549.642C1029.24 534.522 1083.15 519.269 1107.02 539.429C1110.91 542.916 1114.02 547.172 1116.18 551.927C1118.33 556.682 1119.47 561.832 1119.52 567.051C1119.58 572.27 1118.55 577.443 1116.5 582.243C1114.45 587.044 1111.43 591.366 1107.62 594.935C1092.04 610.586 1065.11 612.443 1044.62 609.392C1024.13 606.342 984.937 581.937 976.78 576.566C967.96 588.105 959.14 600.241 950.651 613.437C934.956 637.146 921.397 662.201 910.132 688.308C909.469 689.833 909.005 691.425 908.408 692.95C912.056 688.639 933.807 666.424 935.531 664.898C957.15 647.258 1009.08 626.104 1035 643.478C1039.24 646.522 1042.8 650.414 1045.46 654.906C1048.12 659.398 1049.81 664.394 1050.43 669.575C1051.06 674.756 1050.6 680.011 1049.08 685.005C1047.57 689.999 1045.03 694.624 1041.64 698.587C1027.84 715.829 1001.25 720.67 980.56 719.94C956.752 719.078 909.801 695.006 908.077 694.077C897.513 720.428 888.653 747.43 881.55 774.916C876.179 795.275 871.603 816.098 867.16 837.054C872.067 831.483 892.293 810.528 893.686 809.4C915.305 791.76 967.23 770.606 993.16 787.98C997.399 791.024 1000.96 794.916 1003.62 799.408C1006.27 803.9 1007.96 808.896 1008.59 814.077C1009.21 819.258 1008.75 824.513 1007.24 829.507C1005.72 834.501 1003.19 839.126 999.791 843.089C985.998 860.331 959.405 865.238 938.781 864.442C915.504 863.58 870.409 840.701 866.629 838.778C864.573 848.261 862.584 857.811 860.595 867.36C853.963 898.529 848.061 929.763 840.7 960.202C838.246 970.813 835.461 981.158 832.676 991.636C840.302 983.545 854.361 969.089 855.753 968.028C877.306 950.388 929.298 929.233 955.227 946.541C959.468 949.591 963.03 953.489 965.686 957.987C968.343 962.485 970.036 967.486 970.66 972.672C971.283 977.859 970.823 983.119 969.308 988.118C967.793 993.117 965.256 997.748 961.859 1001.72C947.999 1018.96 921.472 1023.8 900.782 1023.07C880.091 1022.34 841.695 1003.9 830.951 998.533C826.243 1015.84 821.203 1032.88 815.434 1049.46C812.847 1056.49 810.592 1063.92 807.675 1070.55L803.298 1081.16C807.144 1080.7 809.332 1080.57 809.332 1080.57C809.332 1080.57 809.73 1090.38 808.802 1106.43C831.615 1089.92 864.441 1075.72 885.861 1085.67C890.504 1088.05 894.601 1091.37 897.893 1095.42C901.185 1099.47 903.6 1104.16 904.984 1109.19C906.368 1114.23 906.692 1119.49 905.934 1124.65C905.176 1129.82 903.354 1134.77 900.583 1139.19C899.186 1141.53 897.588 1143.75 895.808 1145.82C891.788 1170.17 881.658 1193.1 866.364 1212.47C865.17 1213.86 849.719 1228.38 841.628 1235.61C849.453 1231.3 857.212 1227.06 865.237 1222.35C876.908 1215.72 888.978 1208.49 900.716 1201.46L918.82 1189.72C924.987 1185.87 930.491 1181.43 936.46 1177.25C945.081 1170.95 953.636 1163.99 962.19 1157.36C954.896 1145.75 934.139 1110.94 931.088 1091.04C928.038 1071.15 929.696 1042.83 945.015 1026.92C948.454 1023.05 952.678 1019.97 957.405 1017.87C962.133 1015.76 967.254 1014.7 972.427 1014.74C977.6 1014.77 982.705 1015.91 987.401 1018.08C992.097 1020.25 996.276 1023.4 999.659 1027.31C1019.55 1051.45 1004.83 1106.3 990.043 1130.17C989.579 1130.9 985.931 1135.61 981.554 1141.18C989.711 1134.15 997.868 1127.19 1005.89 1119.82C1028.7 1098.87 1051.25 1076.85 1074 1054.9L1088.26 1041.24C1082.09 1031.49 1059.21 994.289 1056.09 973.2C1052.98 952.112 1054.7 924.989 1069.95 909.073C1073.39 905.209 1077.62 902.123 1082.34 900.022C1087.07 897.922 1092.19 896.854 1097.37 896.892C1102.54 896.93 1107.64 898.072 1112.34 900.241C1117.04 902.41 1121.22 905.557 1124.6 909.471C1144.49 933.61 1129.77 988.453 1115.05 1012.33C1114.52 1013.19 1110.14 1018.96 1105.23 1024.99C1117.77 1013.25 1130.37 1001.65 1143.23 990.575C1165.16 971.349 1188.35 953.624 1212.66 937.522C1210.41 934.074 1182.76 891.101 1179.51 867.559C1176.39 846.802 1178.11 819.414 1193.37 803.498C1196.8 799.63 1201.02 796.539 1205.75 794.433C1210.47 792.327 1215.59 791.253 1220.76 791.285C1225.94 791.316 1231.04 792.451 1235.74 794.615C1240.44 796.778 1244.62 799.92 1248.01 803.83C1267.91 828.035 1253.18 882.878 1238.46 906.686C1237.4 908.41 1221.48 928.57 1215.58 935.599L1216.44 935.002C1240.64 919.892 1266.14 906.976 1292.64 896.407C1316.13 887.116 1340.13 879.189 1364.53 872.666C1387.27 866.034 1408.36 861.79 1427.13 858.01C1437.28 856.02 1446.63 854.362 1455.38 852.97L1454.85 852.572C1454.39 852.174 1486.02 831.351 1488.01 830.29C1512.88 817.756 1568.05 808.339 1589.67 830.953C1593.18 834.815 1595.84 839.365 1597.5 844.314C1599.15 849.263 1599.76 854.502 1599.28 859.698C1598.8 864.894 1597.24 869.933 1594.71 874.494C1592.18 879.056 1588.72 883.04 1584.56 886.194C1567.39 900.054 1540.46 899.059 1520.44 893.82C1500.41 888.581 1465.2 861.06 1456.64 854.031C1447.62 855.689 1438.01 857.546 1427.4 859.867C1408.76 864.045 1387.61 868.952 1365.32 875.849C1359.36 877.706 1352.99 879.894 1346.76 881.95C1357.96 880.756 1373.28 879.297 1374.81 879.297C1402.46 879.828 1455.71 897.335 1464.73 927.509C1466.06 932.513 1466.33 937.738 1465.54 942.854C1464.74 947.97 1462.89 952.864 1460.1 957.228C1457.32 961.592 1453.65 965.329 1449.35 968.204C1445.04 971.079 1440.19 973.029 1435.09 973.93C1413.6 978.174 1390.13 964.645 1374.67 950.586C1359.22 936.528 1339.92 894.351 1335.95 885.199C1322.28 889.908 1308.36 895.08 1294.1 901.314C1268.15 912.299 1243.24 925.617 1219.69 941.103C1218.3 942.032 1217.04 943.093 1215.65 944.021C1221.09 942.496 1251.39 935.997 1253.58 935.798C1281.17 933.212 1335.95 944.685 1348.15 973.731C1350.06 978.577 1350.94 983.769 1350.73 988.975C1350.52 994.181 1349.23 999.286 1346.93 1003.96C1344.63 1008.64 1341.38 1012.78 1337.39 1016.13C1333.4 1019.48 1328.75 1021.95 1323.74 1023.4C1302.85 1030.03 1278.05 1019.22 1261.21 1006.95C1241.84 992.896 1215.72 946.475 1214.79 944.684C1191.69 960.808 1169.65 978.396 1148.8 997.339C1133.28 1011.27 1118.16 1026.05 1103.11 1041.04C1110.21 1039.18 1138.39 1033.22 1140.45 1033.02C1168.03 1030.43 1222.88 1041.9 1235.01 1070.88C1236.93 1075.73 1237.81 1080.92 1237.6 1086.13C1237.39 1091.33 1236.09 1096.44 1233.79 1101.12C1231.5 1105.79 1228.25 1109.94 1224.26 1113.28C1220.26 1116.63 1215.61 1119.11 1210.61 1120.55C1189.72 1127.19 1164.92 1116.38 1148.14 1104.17C1129.17 1090.38 1103.97 1046.01 1101.72 1042.3L1081.23 1062.73C1059.08 1085.21 1036.86 1107.82 1014.31 1129.44C1006.56 1136.93 998.598 1144.03 990.64 1151.13C1001.32 1148.67 1020.95 1144.49 1022.67 1144.49C1050.26 1141.91 1105.03 1153.38 1117.24 1182.43C1119.15 1187.27 1120.03 1192.46 1119.82 1197.67C1119.61 1202.88 1118.32 1207.98 1116.02 1212.66C1113.72 1217.33 1110.47 1221.48 1106.48 1224.83C1102.49 1228.17 1097.84 1230.65 1092.83 1232.1C1071.94 1238.73 1047.14 1227.92 1030.3 1215.65C1013.45 1203.38 991.436 1166.58 985.334 1155.97C972.071 1167.77 958.808 1179.11 944.816 1189.72C938.781 1194.1 932.879 1199.01 926.844 1202.98L909.071 1215.12C896.604 1222.95 885.065 1230.24 873.261 1237.27C867.359 1240.85 861.656 1243.9 855.886 1247.48C866.364 1243.3 883.076 1237 884.667 1236.61C911.591 1229.97 967.429 1232.69 983.809 1259.49C986.455 1264.01 988.124 1269.03 988.71 1274.24C989.296 1279.45 988.786 1284.72 987.212 1289.72C985.637 1294.71 983.034 1299.33 979.57 1303.26C976.106 1307.19 971.857 1310.35 967.098 1312.54C947.203 1322.29 921.34 1315.39 902.838 1305.91C882.479 1295.43 851.907 1256.9 848.127 1252.19C833.936 1260.41 820.009 1268.31 806.812 1275.47C771.665 1294.57 740.961 1309.82 717.154 1321.23C639.763 1389.2 530.873 1396.69 530.873 1396.69C530.873 1396.69 525.17 1264.06 601.963 1176.92C628.703 1147.67 661.587 1124.71 698.254 1109.68V1109.68ZM836.389 1238.93C834.002 1233.49 815.434 1191.38 814.174 1167.64C809.863 1166.84 805.553 1165.91 801.375 1164.92C793.526 1206.71 777.16 1246.44 753.296 1281.63C767.355 1275 782.607 1267.31 798.788 1258.95C810.791 1252.79 823.458 1246.02 836.389 1238.93Z" fill="white"/>
<path opacity="0.5" d="M127.674 1084.35C127.674 1084.35 258.117 1088.39 338.027 1172.75C417.938 1257.1 416.876 1389.73 416.876 1389.73C416.876 1389.73 286.433 1385.69 206.523 1301.33C126.613 1216.98 127.674 1084.35 127.674 1084.35Z" fill="white"/>
</g>
<g opacity="0.2">
<path opacity="0.2" d="M468.47 1169.76L340.282 1052.65L345.786 1046.42L468.537 1158.62L469.2 1005.1L468.537 1005.57L360.111 844.484L366.875 839.776L469.266 991.838L470.792 622.592H479.015L477.954 873.265L559.522 801.512L564.96 807.812L477.887 884.34L477.158 1063.59L600.837 952.38L606.275 958.614L477.092 1074.73L476.428 1237.94L569.337 1163.79L574.443 1170.36L476.362 1248.61L475.898 1353.66L467.675 1353.59L468.47 1169.76Z" fill="black"/>
<path opacity="0.2" d="M586.512 1214.99L594.669 1214L605.014 1306.77L660.056 1244.24H659.99L673.916 1131.96L682.073 1133.02L669.606 1233.43L806.349 1078.05L812.516 1083.62L719.674 1189.06L778.43 1189.79L778.364 1198.15L712.446 1197.28L647.324 1271.23L739.237 1271.36V1279.71L640.029 1279.58L580.809 1346.83L645.666 1350.8L645.135 1359.09L573.846 1354.78L534.454 1399.55L528.287 1393.98L597.72 1315.13L586.512 1214.99Z" fill="black"/>
<path opacity="0.2" d="M276.818 1248.01L167.728 1225.53L169.386 1217.31L267.003 1237.47L124.689 1087.27L130.592 1081.43L227.147 1183.36L232.254 1123.87L240.41 1124.6L234.707 1191.38L302.416 1262.8L309.379 1169.7L317.602 1170.36L310.042 1270.89L371.583 1335.88L380.337 1270.5L388.427 1271.62L378.878 1343.58L419.861 1386.81L413.959 1392.65L341.741 1316.39L242.665 1320.3L242.334 1311.94L334.115 1308.36L276.884 1247.88L276.818 1248.01Z" fill="black"/>
</g>
<path d="M813.245 1415.99L0.612305 1545.64L1497.76 1805L2724 1592.79L813.245 1415.99Z" fill="#92E3A9"/>
<path d="M2112.09 1528.71L2181.21 1574.74L2162.79 1617.35L2259.17 1642.07L2350.24 1580.05L2208.41 1517.22L2112.09 1528.71Z" fill="#263238"/>
<path d="M2259.18 1644.96H2258.48L2162.1 1620.24C2161.69 1620.14 2161.31 1619.96 2160.99 1619.7C2160.66 1619.44 2160.39 1619.11 2160.19 1618.74C2160.02 1618.36 2159.93 1617.95 2159.93 1617.53C2159.93 1617.11 2160.02 1616.7 2160.19 1616.32L2177.52 1575.89L2110.36 1531.14C2109.87 1530.81 2109.5 1530.34 2109.29 1529.79C2109.09 1529.24 2109.05 1528.64 2109.2 1528.08C2109.34 1527.51 2109.64 1526.99 2110.07 1526.6C2110.51 1526.21 2111.05 1525.96 2111.63 1525.88L2207.95 1514.33C2208.44 1514.16 2208.97 1514.16 2209.45 1514.33L2351.28 1577.16C2351.76 1577.37 2352.17 1577.69 2352.47 1578.11C2352.78 1578.53 2352.97 1579.02 2353.02 1579.53C2353.05 1580.04 2352.95 1580.56 2352.73 1581.02C2352.51 1581.49 2352.17 1581.89 2351.75 1582.19L2260.68 1644.15C2260.28 1644.57 2259.75 1644.86 2259.18 1644.96V1644.96ZM2166.78 1615.39L2258.66 1638.95L2344.3 1580.63L2207.89 1520.51L2120.17 1530.91L2182.83 1572.48C2183.39 1572.86 2183.79 1573.42 2183.98 1574.06C2184.17 1574.7 2184.13 1575.39 2183.87 1576.01L2166.78 1615.39Z" fill="#263238"/>
<path d="M409.487 1429.5L1387.86 1496.72C1395.72 1497.24 1403.61 1496.83 1411.37 1495.51L1573.76 1466.63C1588 1464.13 1601.5 1458.47 1613.27 1450.08C1625.05 1441.7 1634.81 1430.78 1641.83 1418.14C1648.85 1405.51 1652.96 1391.46 1653.86 1377.03C1654.77 1362.6 1652.43 1348.15 1647.04 1334.73L1641.67 1321.45C1634.86 1304.53 1623.43 1289.86 1608.67 1279.13C1593.91 1268.41 1576.42 1262.06 1558.22 1260.82L453.029 1185.17C416.532 1182.62 415.204 1203.13 396.436 1234.54L366.175 1285.07C355.147 1303.56 350.564 1325.18 353.145 1346.55C355.727 1367.93 365.326 1387.84 380.439 1403.17V1403.17C397.071 1420.03 385.868 1428.11 409.487 1429.5Z" fill="#263238"/>
<path d="M1394.27 1499.84C1392.02 1499.84 1389.77 1499.84 1387.46 1499.84L409.255 1432.39C393.836 1431.35 391.468 1427.42 388.292 1420.09C386.083 1414.43 382.72 1409.3 378.417 1405.02C362.909 1389.27 353.058 1368.82 350.404 1346.88C347.75 1324.94 352.443 1302.74 363.749 1283.74L393.952 1233.16C397.647 1226.98 400.708 1221.14 403.422 1215.83C414.626 1194.35 422.075 1180.14 453.202 1182.28L1558.28 1258.16C1577.01 1259.51 1594.99 1266.08 1610.17 1277.13C1625.36 1288.17 1637.15 1303.24 1644.21 1320.65L1649.52 1333.87C1655.07 1347.68 1657.46 1362.56 1656.53 1377.41C1655.6 1392.26 1651.37 1406.72 1644.14 1419.73C1636.92 1432.75 1626.88 1443.98 1614.77 1452.62C1602.65 1461.27 1588.76 1467.1 1574.1 1469.69L1411.66 1498.57C1405.91 1499.48 1400.09 1499.91 1394.27 1499.84V1499.84ZM447.196 1188C424.443 1188 418.322 1199.55 408.389 1218.72C405.675 1223.92 402.614 1229.86 398.802 1236.04L368.542 1286.63C357.838 1304.57 353.391 1325.55 355.899 1346.29C358.408 1367.02 367.729 1386.34 382.402 1401.2C387.214 1405.91 390.974 1411.57 393.432 1417.84C395.973 1423.61 396.897 1425.81 409.544 1426.67L1387.86 1493.83C1395.49 1494.36 1403.15 1493.95 1410.67 1492.62L1573.06 1464.04C1586.88 1461.61 1599.99 1456.13 1611.42 1447.99C1622.85 1439.86 1632.31 1429.27 1639.13 1417C1645.94 1404.74 1649.93 1391.11 1650.8 1377.1C1651.67 1363.1 1649.4 1349.08 1644.15 1336.06L1638.84 1322.78C1632.18 1306.42 1621.09 1292.23 1606.8 1281.84C1592.52 1271.44 1575.61 1265.24 1557.99 1263.94L452.797 1188H447.196Z" fill="#263238"/>
<path d="M1556.14 1303.2L1497.24 1299.16L1496.49 1310.71C1467.03 1320.47 1441.14 1338.78 1422.12 1363.31C1403.1 1387.83 1391.81 1417.46 1389.68 1448.42C1387.55 1479.38 1394.68 1510.27 1410.16 1537.17C1425.64 1564.06 1448.78 1585.75 1476.62 1599.45L1475.81 1611L1534.72 1615.05C1555.6 1617.21 1576.7 1615.15 1596.77 1608.99C1616.84 1602.82 1635.46 1592.68 1651.53 1579.16C1667.59 1565.65 1680.77 1549.04 1690.28 1530.32C1699.79 1511.6 1705.43 1491.16 1706.87 1470.22C1708.31 1449.27 1705.51 1428.25 1698.65 1408.41C1691.8 1388.57 1681.01 1370.31 1666.95 1354.72C1652.88 1339.14 1635.82 1326.54 1616.79 1317.69C1597.75 1308.84 1577.12 1303.91 1556.14 1303.2V1303.2Z" fill="#263238"/>
<path d="M1545.63 1618.69C1541.94 1618.69 1538.24 1618.69 1534.49 1618.34L1475.64 1614.3C1475.27 1614.27 1474.9 1614.17 1474.56 1614C1474.22 1613.84 1473.92 1613.6 1473.68 1613.31C1473.18 1612.72 1472.91 1611.96 1472.93 1611.18L1473.62 1601.59C1445.67 1587.47 1422.5 1565.41 1407.01 1538.19C1391.53 1510.96 1384.41 1479.78 1386.56 1448.53C1388.7 1417.29 1400.01 1387.37 1419.07 1362.51C1438.13 1337.66 1464.1 1318.98 1493.72 1308.81L1494.41 1299.22C1494.43 1298.84 1494.52 1298.46 1494.68 1298.12C1494.84 1297.77 1495.08 1297.46 1495.36 1297.21C1495.65 1296.96 1495.98 1296.76 1496.34 1296.64C1496.71 1296.52 1497.09 1296.47 1497.47 1296.51L1556.32 1300.55C1597.42 1303.48 1635.78 1322.22 1663.36 1352.84C1690.93 1383.46 1705.56 1423.58 1704.18 1464.76C1702.79 1505.94 1685.5 1544.99 1655.94 1573.69C1626.38 1602.39 1586.84 1618.52 1545.63 1618.69V1618.69ZM1478.93 1608.69L1534.89 1612.56C1555.41 1614.72 1576.15 1612.73 1595.87 1606.7C1615.6 1600.66 1633.9 1590.71 1649.7 1577.45C1665.49 1564.18 1678.45 1547.87 1687.8 1529.48C1697.15 1511.09 1702.69 1491.01 1704.11 1470.43C1705.52 1449.85 1702.77 1429.2 1696.02 1409.71C1689.28 1390.21 1678.67 1372.28 1664.84 1356.98C1651.01 1341.68 1634.23 1329.32 1615.52 1320.65C1596.8 1311.97 1576.53 1307.16 1555.91 1306.5L1499.95 1302.63L1499.38 1311.29C1499.33 1311.87 1499.12 1312.42 1498.76 1312.87C1498.4 1313.32 1497.91 1313.66 1497.36 1313.83C1468.39 1323.39 1442.92 1341.36 1424.21 1365.45C1405.5 1389.54 1394.39 1418.66 1392.31 1449.09C1390.22 1479.52 1397.24 1509.89 1412.49 1536.31C1427.73 1562.73 1450.5 1584.01 1477.89 1597.43C1478.41 1597.69 1478.84 1598.1 1479.13 1598.6C1479.42 1599.11 1479.55 1599.69 1479.51 1600.26L1478.93 1608.69Z" fill="#263238"/>
<path d="M1486.56 1611.52C1572.92 1611.52 1642.94 1541.51 1642.94 1455.14C1642.94 1368.77 1572.92 1298.75 1486.56 1298.75C1400.19 1298.75 1330.17 1368.77 1330.17 1455.14C1330.17 1541.51 1400.19 1611.52 1486.56 1611.52Z" fill="#878787"/>
<path d="M1486.67 1614.41C1482.98 1614.41 1479.34 1614.41 1475.64 1614.07C1433.86 1611.31 1394.84 1592.25 1366.98 1560.99C1339.11 1529.74 1324.64 1488.79 1326.68 1446.97C1328.72 1405.15 1347.1 1365.8 1377.87 1337.4C1408.64 1309 1449.33 1293.83 1491.18 1295.14C1533.03 1296.46 1572.69 1314.16 1601.61 1344.43C1630.54 1374.7 1646.42 1415.13 1645.83 1456.99C1645.23 1498.86 1628.22 1538.82 1598.45 1568.26C1568.68 1597.71 1528.54 1614.28 1486.67 1614.41V1614.41ZM1486.67 1301.7C1446.48 1301.79 1407.94 1317.65 1379.33 1345.88C1350.73 1374.11 1334.36 1412.45 1333.74 1452.63C1333.13 1492.81 1348.33 1531.63 1376.06 1560.72C1403.78 1589.81 1441.83 1606.84 1482 1608.15C1522.16 1609.46 1561.24 1594.94 1590.8 1567.72C1620.37 1540.5 1638.06 1502.76 1640.07 1462.62C1642.07 1422.48 1628.23 1383.16 1601.53 1353.13C1574.83 1323.09 1537.39 1304.75 1497.3 1302.05C1493.49 1301.82 1489.96 1301.7 1486.44 1301.7H1486.67Z" fill="#263238"/>
<path d="M1516.61 1564.89C1577.29 1548.35 1613.07 1485.75 1596.53 1425.07C1579.99 1364.39 1517.38 1328.61 1456.7 1345.15C1396.02 1361.69 1360.24 1424.29 1376.79 1484.97C1393.33 1545.65 1455.93 1581.43 1516.61 1564.89Z" fill="white"/>
<path d="M1486.73 1571.91C1484.02 1571.91 1481.3 1571.91 1478.53 1571.91C1448.04 1570.83 1419.2 1557.83 1398.2 1535.7C1377.21 1513.56 1365.75 1484.07 1366.28 1453.57C1366.82 1423.07 1379.32 1393.99 1401.08 1372.61C1422.84 1351.23 1452.12 1339.25 1482.63 1339.25C1513.14 1339.25 1542.42 1351.23 1564.18 1372.61C1585.94 1393.99 1598.44 1423.07 1598.97 1453.57C1599.51 1484.07 1588.05 1513.56 1567.06 1535.7C1546.06 1557.83 1517.22 1570.83 1486.73 1571.91V1571.91ZM1486.38 1344.15C1464.76 1344.18 1443.62 1350.52 1425.55 1362.4C1407.49 1374.28 1393.28 1391.17 1384.69 1411.01C1376.09 1430.85 1373.48 1452.77 1377.16 1474.07C1380.85 1495.38 1390.68 1515.14 1405.45 1530.94C1420.21 1546.73 1439.27 1557.87 1460.27 1562.98C1481.28 1568.1 1503.33 1566.97 1523.7 1559.73C1544.07 1552.48 1561.89 1539.45 1574.95 1522.23C1588.02 1505 1595.78 1484.33 1597.26 1462.76V1462.76C1599.27 1433.4 1589.55 1404.45 1570.22 1382.26C1550.89 1360.07 1523.54 1346.47 1494.18 1344.44C1491.81 1344.26 1488.98 1344.15 1486.38 1344.15Z" fill="#263238"/>
<path d="M2010.34 1334.39L1951.49 1330.34C1910.97 1328.95 1871.49 1343.35 1841.38 1370.5C1811.27 1397.65 1792.89 1435.44 1790.1 1475.89C1787.31 1516.34 1800.34 1556.29 1826.45 1587.31C1852.55 1618.34 1889.68 1638.01 1930.01 1642.19L1988.91 1646.23C2009.79 1648.4 2030.9 1646.33 2050.97 1640.17C2071.03 1634.01 2089.66 1623.86 2105.72 1610.35C2121.79 1596.83 2134.97 1580.22 2144.47 1561.5C2153.98 1542.78 2159.62 1522.34 2161.06 1501.4C2162.5 1480.45 2159.71 1459.44 2152.85 1439.59C2145.99 1419.75 2135.21 1401.49 2121.14 1385.91C2107.08 1370.32 2090.02 1357.73 2070.98 1348.88C2051.94 1340.03 2031.32 1335.1 2010.34 1334.39V1334.39Z" fill="#263238"/>
<path d="M2000 1649.69C1996.36 1649.69 1992.66 1649.69 1988.97 1649.29L1930.12 1645.25C1908.98 1644.2 1888.26 1638.96 1869.17 1629.81C1850.09 1620.66 1833.01 1607.8 1818.95 1591.98C1804.89 1576.15 1794.13 1557.69 1787.3 1537.66C1780.46 1517.62 1777.68 1496.43 1779.14 1475.31C1780.59 1454.2 1786.23 1433.58 1795.75 1414.67C1805.26 1395.76 1818.45 1378.94 1834.54 1365.19C1850.63 1351.44 1869.3 1341.04 1889.46 1334.59C1909.62 1328.14 1930.87 1325.77 1951.95 1327.63L2010.8 1331.67C2051.64 1334.94 2089.65 1353.83 2116.93 1384.4C2144.21 1414.98 2158.65 1454.89 2157.26 1495.84C2155.87 1536.79 2138.75 1575.63 2109.46 1604.28C2080.18 1632.94 2040.97 1649.2 2000 1649.69V1649.69ZM1940.92 1332.89C1901.24 1333.07 1863.17 1348.62 1834.7 1376.27C1806.23 1403.92 1789.57 1441.52 1788.23 1481.18C1786.88 1520.84 1800.95 1559.48 1827.48 1589C1854.02 1618.51 1890.95 1636.6 1930.53 1639.47L1989.37 1643.52C2029.1 1644.82 2067.79 1630.65 2097.29 1604.01C2126.79 1577.36 2144.8 1540.31 2147.53 1500.65C2150.26 1460.99 2137.5 1421.82 2111.93 1391.38C2086.37 1360.94 2049.99 1341.6 2010.45 1337.45L1951.55 1333.41C1947.68 1333 1944.16 1332.89 1940.63 1332.89H1940.92Z" fill="#263238"/>
<path d="M568.583 1235.35L489.814 1229.98L485.252 1296.39C457.959 1352.36 453.527 1416.75 472.894 1475.93L468.332 1542.4L547.101 1547.83C600.287 1551.47 648.161 1484.3 654.109 1398.2C660.057 1312.1 621.712 1239.05 568.583 1235.35Z" fill="#263238"/>
<path d="M551.2 1550.83H546.926L468.099 1545.4C467.344 1545.34 466.641 1544.99 466.144 1544.42C465.647 1543.84 465.395 1543.1 465.443 1542.34L469.947 1476.45C450.643 1416.85 455.091 1352.1 482.363 1295.7L486.926 1229.86C486.988 1229.11 487.339 1228.4 487.907 1227.9C488.18 1227.64 488.508 1227.44 488.868 1227.32C489.228 1227.2 489.61 1227.16 489.986 1227.21L568.755 1232.58C623.443 1236.39 663.001 1310.77 656.995 1398.49C651.105 1483.84 604.155 1550.83 551.2 1550.83ZM471.391 1539.74L547.273 1544.94C598.669 1548.35 645.446 1482.57 651.221 1398.03C656.995 1313.48 619.805 1241.76 568.351 1238.24L492.758 1233.04L488.369 1296.56C488.447 1296.92 488.447 1297.3 488.369 1297.66C461.21 1352.86 456.571 1416.45 475.434 1475.01C475.494 1475.39 475.494 1475.78 475.434 1476.16L471.391 1539.74Z" fill="#263238"/>
<path d="M581.08 1395.32C587.135 1308.83 548.839 1235.68 495.545 1231.95C442.251 1228.22 394.139 1295.32 388.084 1381.81C382.029 1468.31 420.325 1541.45 473.619 1545.18C526.913 1548.91 575.026 1481.82 581.08 1395.32Z" fill="#878787"/>
<path d="M472.547 1545.46C471.046 1545.46 469.602 1545.46 468.101 1545.46C413.471 1541.7 373.855 1467.27 379.919 1379.55C382.806 1337.27 395.684 1298.24 416.243 1269.54C436.801 1240.83 463.192 1225.42 489.988 1227.26C516.783 1229.11 540.633 1247.53 557.265 1279.24C573.896 1310.94 581.115 1350.9 578.228 1393.18C575.34 1435.45 562.404 1474.31 541.904 1503.19C522.211 1530.5 497.726 1545.46 472.547 1545.46ZM485.599 1232.69C462.499 1232.69 439.4 1246.78 420.92 1272.71C400.997 1300.55 388.523 1338.54 385.693 1379.78C379.919 1464.32 417.051 1535.99 468.505 1539.51C493.164 1541.18 517.591 1527.04 537.226 1499.66C556.861 1472.29 569.623 1433.77 572.453 1392.6C575.282 1351.42 568.064 1311.75 552.183 1281.72C536.302 1251.69 514.3 1234.54 489.583 1232.86L485.599 1232.69Z" fill="#263238"/>
<path d="M547.278 1390.87C551.477 1329.74 524.34 1278.09 486.667 1275.51C448.994 1272.92 415.049 1320.37 410.85 1381.49C406.651 1442.62 433.787 1494.27 471.461 1496.86C509.134 1499.44 543.078 1451.99 547.278 1390.87Z" fill="white"/>
<path d="M474.336 1499.84H471.275C432.064 1497.13 403.709 1444 407.752 1381.4C409.115 1353.41 418.058 1326.33 433.623 1303.03C448.58 1282.19 467.406 1271.39 486.637 1272.77C525.848 1275.43 554.202 1328.56 550.16 1391.16H547.273H550.16C545.944 1452.02 512.277 1499.84 474.336 1499.84ZM483.691 1278.32C467.464 1278.32 451.525 1288.13 438.59 1306.32C423.649 1328.63 415.065 1354.58 413.758 1381.4C409.658 1440.82 435.644 1491.12 471.506 1493.66C507.368 1496.2 540.112 1449.83 544.212 1390.35C548.254 1330.93 522.325 1280.63 486.463 1278.14C485.537 1278.14 484.611 1278.2 483.691 1278.32Z" fill="#263238"/>
<path d="M1874.74 1176.68L1697.8 1009.96C1649.72 964.722 1587.47 937.523 1521.61 932.977L1024.97 898.848L1332.54 1139.37L1874.74 1176.68Z" fill="white"/>
<path d="M1874.74 1179.79L1332.54 1142.55C1331.95 1142.51 1331.38 1142.29 1330.92 1141.91L1023.18 901.331C1022.7 900.949 1022.36 900.424 1022.2 899.833C1022.04 899.242 1022.07 898.616 1022.28 898.043C1022.5 897.471 1022.9 896.984 1023.41 896.651C1023.93 896.318 1024.53 896.157 1025.14 896.191L1521.78 930.32C1588.26 934.868 1651.12 962.269 1699.71 1007.88L1876.71 1174.6C1877.14 1175 1877.43 1175.53 1877.54 1176.11C1877.66 1176.69 1877.59 1177.29 1877.34 1177.83C1877.15 1178.38 1876.8 1178.86 1876.34 1179.2C1875.88 1179.55 1875.32 1179.76 1874.74 1179.79ZM1333.64 1136.83L1867.18 1173.27L1695.78 1012.32C1648.19 967.539 1586.57 940.605 1521.38 936.095L1033.98 902.601L1333.64 1136.83Z" fill="#263238"/>
<path d="M1711.26 1030.4C1663.2 985.128 1600.93 957.906 1535.07 953.363L1126.44 925.297C1167.13 944.424 1202.74 972.874 1230.38 1008.34L1332.54 1139.37L1866.2 1176.04L1711.26 1030.4Z" fill="#263238"/>
<path d="M1866.2 1178.99L1332.54 1142.32C1332.14 1142.28 1331.75 1142.17 1331.39 1141.98C1331.03 1141.79 1330.72 1141.53 1330.46 1141.22L1228.42 1010.13C1201.06 975.03 1165.83 946.86 1125.57 927.894C1124.96 927.605 1124.48 927.113 1124.19 926.503C1123.91 925.893 1123.85 925.204 1124.02 924.554C1124.19 923.904 1124.59 923.334 1125.13 922.942C1125.68 922.551 1126.34 922.362 1127.01 922.408L1535.7 950.474C1602.22 955.133 1665.08 982.609 1713.68 1028.26L1868.22 1174.02C1868.65 1174.42 1868.94 1174.95 1869.05 1175.53C1869.17 1176.11 1869.1 1176.72 1868.85 1177.25C1868.62 1177.77 1868.25 1178.2 1867.78 1178.51C1867.31 1178.81 1866.76 1178.98 1866.2 1178.99ZM1334.04 1136.66L1858.34 1172.63L1709.52 1032.48C1661.92 987.725 1600.31 960.796 1535.12 956.249L1140.82 929.165C1176.55 948.248 1207.89 974.609 1232.81 1006.55L1334.04 1136.66Z" fill="#263238"/>
<path d="M1332.54 1139.43L1319.2 1138.62L1346.28 1159.81L1414.77 1164.55L1332.54 1139.43Z" fill="white"/>
<path d="M1414.78 1167.43L1346.11 1162.47C1345.53 1162.45 1344.96 1162.25 1344.49 1161.89L1317.41 1140.7C1316.93 1140.32 1316.58 1139.8 1316.41 1139.2C1316.24 1138.61 1316.27 1137.98 1316.49 1137.41C1316.68 1136.81 1317.08 1136.3 1317.6 1135.97C1318.13 1135.63 1318.75 1135.49 1319.37 1135.56L1332.71 1136.31H1333.41L1415.64 1161.43C1416.41 1161.54 1417.1 1161.96 1417.56 1162.58C1418.02 1163.2 1418.21 1163.98 1418.1 1164.75C1417.98 1165.52 1417.57 1166.2 1416.94 1166.66C1416.32 1167.12 1415.54 1167.32 1414.78 1167.2V1167.43ZM1347.44 1157.04L1389.89 1159.93L1332.14 1142.31H1328.38L1347.44 1157.04Z" fill="#263238"/>
<path d="M1417.2 1110.38L1319.2 1138.62L1439.84 1211.21L1835.3 1351.08L2356.77 1453.99L2318.6 1358.99L1417.2 1110.38Z" fill="#263238"/>
<path d="M2356.77 1456.99H2356.19L1834.78 1354.14L1438.86 1214.16H1438.34L1317.7 1141.11C1317.22 1140.82 1316.83 1140.4 1316.59 1139.9C1316.34 1139.39 1316.25 1138.83 1316.31 1138.28C1316.4 1137.72 1316.64 1137.19 1317 1136.76C1317.37 1136.33 1317.85 1136.02 1318.39 1135.85L1416.57 1107.61C1417.07 1107.44 1417.62 1107.44 1418.13 1107.61L2319.35 1356.22C2319.79 1356.34 2320.2 1356.55 2320.54 1356.86C2320.88 1357.16 2321.14 1357.53 2321.31 1357.95L2359.43 1452.89C2359.61 1453.32 2359.68 1453.8 2359.64 1454.27C2359.59 1454.73 2359.43 1455.18 2359.16 1455.57C2358.9 1455.96 2358.54 1456.28 2358.13 1456.5C2357.71 1456.72 2357.24 1456.83 2356.77 1456.82V1456.99ZM1441.05 1208.67L1836.28 1348.42L2352.27 1450.12L2316.64 1361.42L1417.26 1113.39L1326.36 1139.37L1441.05 1208.67Z" fill="#263238"/>
<path d="M2357.23 1564.98L1766.58 1524.38L1760.86 1445.84L1713.16 1266.65L1897.61 1265.5L2170.65 1371.29L2336.73 1396.53L2375.77 1487.83L2357.23 1564.98Z" fill="#E5E5E5"/>
<path d="M2357.23 1567.87L1766.64 1527.44C1765.94 1527.4 1765.28 1527.11 1764.78 1526.62C1764.28 1526.13 1763.98 1525.48 1763.92 1524.78L1758.15 1446.25L1710.56 1267.57C1710.45 1267.14 1710.43 1266.69 1710.51 1266.25C1710.59 1265.81 1710.77 1265.4 1711.02 1265.03C1711.3 1264.69 1711.65 1264.41 1712.05 1264.22C1712.45 1264.03 1712.89 1263.93 1713.33 1263.93L1897.73 1262.78C1898.09 1262.7 1898.46 1262.7 1898.82 1262.78L2171.57 1368.4L2337.19 1393.46C2337.67 1393.55 2338.13 1393.75 2338.51 1394.05C2338.89 1394.36 2339.19 1394.75 2339.39 1395.2L2378.43 1486.56C2378.6 1487.14 2378.6 1487.76 2378.43 1488.35L2359.83 1565.5C2359.73 1566.13 2359.42 1566.7 2358.94 1567.13C2358.47 1567.56 2357.87 1567.82 2357.23 1567.87V1567.87ZM1769.29 1521.67L2354.98 1562.09L2372.77 1488.29L2334.94 1399.24L2170.47 1374.23C2170.27 1374.29 2170.05 1374.29 2169.84 1374.23L1897.26 1268.67L1717.15 1269.77L1763.86 1445.38L1769.29 1521.67Z" fill="#263238"/>
<path d="M1804.17 1428.11L1819.88 1487.19C1821.51 1493.3 1825.01 1498.74 1829.88 1502.76C1834.76 1506.78 1840.78 1509.17 1847.08 1509.6L2132.94 1529.23L2332 1596.34C2334.27 1596.46 2336.55 1596.14 2338.7 1595.38C2340.85 1594.62 2342.83 1593.45 2344.52 1591.92C2346.22 1590.4 2347.6 1588.56 2348.58 1586.5C2349.56 1584.44 2350.13 1582.21 2350.25 1579.94L2347.99 1549.85C2348.4 1540.61 2337.95 1511.62 2328.71 1510.98L2155.92 1432.79L2118.21 1430.19L1819.25 1409.64C1816.93 1409.53 1814.62 1409.96 1812.51 1410.91C1810.39 1411.86 1808.52 1413.28 1807.06 1415.08C1805.59 1416.88 1804.57 1418.99 1804.07 1421.25C1803.57 1423.52 1803.6 1425.87 1804.17 1428.11V1428.11Z" fill="#263238"/>
<path d="M2333.21 1599.4H2331.82C2331.58 1599.45 2331.32 1599.45 2331.07 1599.4L2132.36 1532.06L1846.85 1512.43C1839.95 1511.95 1833.38 1509.32 1828.04 1504.92C1822.71 1500.52 1818.89 1494.56 1817.11 1487.88L1801.4 1428.81C1800.68 1426.09 1800.62 1423.23 1801.22 1420.48C1801.82 1417.73 1803.06 1415.17 1804.85 1412.99C1806.64 1410.82 1808.92 1409.11 1811.51 1407.99C1814.09 1406.87 1816.9 1406.39 1819.71 1406.57L2156.33 1429.67C2156.67 1429.62 2157.02 1429.62 2157.36 1429.67L2329.51 1507.86C2341.35 1509.65 2351.23 1540.72 2350.88 1549.62L2353.13 1579.41C2353 1584.62 2350.84 1589.57 2347.12 1593.21C2343.41 1596.85 2338.42 1598.91 2333.21 1598.93V1599.4ZM2332.57 1593.62C2336.28 1593.71 2339.88 1592.41 2342.68 1589.98C2344.08 1588.7 2345.22 1587.15 2346.02 1585.43C2346.82 1583.7 2347.28 1581.83 2347.36 1579.93L2345.16 1550.19C2345.45 1540.78 2335.12 1514.45 2328.53 1513.99C2328.21 1514.05 2327.87 1514.05 2327.55 1513.99L2155.46 1435.85L1819.3 1412.75C1817.42 1412.64 1815.53 1412.97 1813.8 1413.73C1812.06 1414.48 1810.53 1415.63 1809.33 1417.09C1808.12 1418.55 1807.28 1420.27 1806.86 1422.12C1806.45 1423.96 1806.48 1425.88 1806.95 1427.71L1822.65 1486.79C1824.14 1492.3 1827.31 1497.22 1831.72 1500.85C1836.12 1504.48 1841.56 1506.65 1847.25 1507.06L2133.17 1526.69H2133.86L2332.57 1593.62Z" fill="#263238"/>
<path d="M2341.7 1409.98L2323.22 1404.67L2234.17 1394.33L2251.38 1403.74L2341.7 1409.98Z" fill="white"/>
<path d="M2341.7 1412.87L2251.38 1406.63C2250.95 1406.64 2250.53 1406.52 2250.17 1406.28L2232.84 1396.87C2232.23 1396.56 2231.75 1396.04 2231.49 1395.41C2231.23 1394.78 2231.2 1394.07 2231.4 1393.42C2231.61 1392.77 2232.05 1392.21 2232.63 1391.85C2233.21 1391.49 2233.9 1391.34 2234.57 1391.44L2323.39 1401.78L2342.33 1407.21C2343.02 1407.4 2343.62 1407.84 2343.99 1408.46C2344.37 1409.07 2344.5 1409.8 2344.35 1410.5C2344.25 1411.14 2343.93 1411.72 2343.44 1412.15C2342.96 1412.58 2342.34 1412.84 2341.7 1412.87ZM2252.25 1400.91L2286.89 1403.28L2248.55 1398.89L2252.25 1400.91Z" fill="#263238"/>
<path d="M1929.89 1381.68L1904.08 1284.61L1762.07 1291.37L1782.52 1371.58L1929.89 1381.68Z" fill="white"/>
<path d="M1929.89 1384.57L1782.58 1374.47C1781.97 1374.42 1781.39 1374.19 1780.92 1373.79C1780.45 1373.4 1780.12 1372.86 1779.98 1372.27L1759.48 1292.12C1759.39 1291.7 1759.38 1291.27 1759.47 1290.85C1759.56 1290.43 1759.74 1290.03 1760 1289.69C1760.24 1289.34 1760.56 1289.05 1760.93 1288.84C1761.3 1288.63 1761.71 1288.51 1762.13 1288.48L1904.14 1281.72C1904.8 1281.67 1905.46 1281.86 1906 1282.25C1906.54 1282.64 1906.92 1283.21 1907.08 1283.86L1932.9 1380.93C1933.01 1381.38 1933.01 1381.85 1932.91 1382.3C1932.81 1382.75 1932.61 1383.17 1932.32 1383.53C1932.03 1383.89 1931.66 1384.17 1931.23 1384.35C1930.81 1384.53 1930.35 1384.61 1929.89 1384.57V1384.57ZM1784.83 1368.81L1926.02 1378.51L1901.83 1287.61L1765.66 1294.08L1784.83 1368.81Z" fill="#263238"/>
<path d="M2214.36 1401.2L2197.15 1391.79L1962.64 1333L1966.85 1384.22L2214.36 1401.2Z" fill="#263238"/>
<path d="M2214.36 1404.09L1966.85 1387.11C1966.16 1387.07 1965.51 1386.78 1965.02 1386.29C1964.53 1385.8 1964.24 1385.15 1964.2 1384.46L1959.92 1333.23C1959.89 1332.78 1959.97 1332.32 1960.16 1331.9C1960.34 1331.48 1960.61 1331.1 1960.96 1330.81C1961.3 1330.5 1961.71 1330.28 1962.15 1330.17C1962.6 1330.06 1963.06 1330.06 1963.5 1330.17L2198.02 1388.96H2198.71L2216.04 1398.43C2216.62 1398.73 2217.08 1399.22 2217.33 1399.82C2217.58 1400.43 2217.62 1401.1 2217.42 1401.72C2217.31 1402.43 2216.93 1403.07 2216.36 1403.51C2215.79 1403.95 2215.08 1404.16 2214.36 1404.09ZM1969.57 1381.51L2201.49 1397.45L2196.06 1394.5L1965.87 1336.76L1969.57 1381.51Z" fill="#263238"/>
<path d="M446.561 1087.4L625.581 945.912C681.205 901.959 751.197 880.282 821.927 885.102L1024.05 899.02C1064.13 901.8 1103.18 913.01 1138.64 931.917C1174.1 950.825 1205.16 977.004 1229.81 1008.74L1332.54 1139.37L446.561 1087.4Z" fill="white"/>
<path d="M1332.54 1142.32L446.561 1090.11C445.971 1090.09 445.403 1089.88 444.937 1089.52C444.471 1089.15 444.13 1088.65 443.962 1088.09C443.793 1087.54 443.79 1086.95 443.954 1086.39C444.119 1085.84 444.443 1085.34 444.886 1084.97L623.907 943.486C680.124 898.992 750.924 877.081 822.447 882.042L1024.57 895.959C1065.04 898.751 1104.48 910.043 1140.3 929.098C1176.12 948.152 1207.52 974.543 1232.46 1006.55L1334.5 1137.64C1334.84 1138.07 1335.05 1138.58 1335.11 1139.13C1335.17 1139.67 1335.07 1140.22 1334.83 1140.71C1334.59 1141.2 1334.21 1141.61 1333.74 1141.89C1333.28 1142.18 1332.74 1142.32 1332.19 1142.32H1332.54ZM454.761 1084.57L1326.77 1135.96L1228.59 1009.9C1204.16 978.536 1173.4 952.675 1138.3 933.998C1103.21 915.322 1064.57 904.25 1024.91 901.503L822.793 887.586C752.704 882.736 683.327 904.214 628.238 947.818L454.761 1084.57Z" fill="#263238"/>
<path d="M540.519 1093.69L694.072 963.64C740.627 923.546 801.038 903.291 862.352 907.219L1035.08 919.115C1069.76 921.732 1103.44 931.958 1133.72 949.066C1164 966.173 1190.15 989.742 1210.29 1018.1L1296.91 1137.52L540.519 1093.69Z" fill="#263238"/>
<path d="M1296.91 1140.59L540.402 1096.58C539.824 1096.55 539.269 1096.34 538.806 1095.99C538.344 1095.64 537.995 1095.17 537.803 1094.62C537.627 1094.07 537.616 1093.48 537.77 1092.93C537.923 1092.38 538.236 1091.88 538.669 1091.5L692.281 961.45C739.319 920.901 800.373 900.397 862.351 904.337L1035.13 916.233C1070.27 918.929 1104.38 929.323 1135.05 946.678C1165.72 964.034 1192.19 987.925 1212.6 1016.66L1299.22 1136.02C1299.55 1136.45 1299.75 1136.96 1299.8 1137.49C1299.85 1138.02 1299.75 1138.56 1299.51 1139.04C1299.27 1139.51 1298.89 1139.91 1298.43 1140.19C1297.97 1140.46 1297.44 1140.6 1296.91 1140.59V1140.59ZM547.909 1091.21L1290.96 1134.47L1207.98 1020.01C1188.07 991.935 1162.23 968.587 1132.29 951.62C1102.35 934.654 1069.04 924.485 1034.73 921.835L861.946 909.939C801.38 906.198 741.765 926.374 695.919 966.128L547.909 1091.21Z" fill="#263238"/>
<path d="M938.579 912.476C897.929 972.163 872.312 1040.79 863.91 1112.52L919.811 1115.75C925.586 1062.68 943.95 968.145 1000.66 916.749L938.579 912.476Z" fill="#878787"/>
<path d="M920.099 1118.64L864.198 1115.4C863.799 1115.38 863.408 1115.28 863.05 1115.1C862.692 1114.92 862.375 1114.67 862.12 1114.36C861.632 1113.74 861.405 1112.95 861.484 1112.17C869.895 1039.97 895.653 970.882 936.558 910.799C936.848 910.388 937.24 910.06 937.696 909.847C938.151 909.634 938.655 909.544 939.156 909.586L1000.95 914.148C1001.51 914.183 1002.05 914.382 1002.5 914.72C1002.95 915.059 1003.3 915.523 1003.49 916.054C1003.66 916.597 1003.68 917.179 1003.54 917.731C1003.39 918.283 1003.1 918.783 1002.68 919.172C946.606 970.107 928.646 1064.58 922.929 1116.38C922.784 1117.03 922.425 1117.6 921.91 1118.01C921.396 1118.42 920.757 1118.64 920.099 1118.64ZM867.432 1109.8L917.558 1112.75C923.333 1061.12 941.293 971.319 994.017 919.172L940.311 915.477C900.928 973.569 875.855 1040.16 867.144 1109.8H867.432Z" fill="#263238"/>
<path d="M737.036 934.478C708.51 986.306 690.329 1043.18 683.503 1101.95L696.15 1102.7C701.925 1054.31 716.304 978.483 754.534 925.932C748.643 928.53 742.811 931.475 737.036 934.478Z" fill="#878787"/>
<path d="M696.15 1105.65L683.329 1104.72C682.934 1104.7 682.547 1104.6 682.193 1104.42C681.838 1104.25 681.524 1104 681.27 1103.7C681.015 1103.39 680.825 1103.04 680.713 1102.66C680.6 1102.28 680.567 1101.88 680.615 1101.49C687.534 1042.32 705.85 985.06 734.552 932.863C734.813 932.371 735.215 931.968 735.707 931.708C741.482 928.59 747.546 925.933 753.378 923.161C753.959 922.899 754.61 922.836 755.23 922.983C755.851 923.129 756.405 923.477 756.807 923.971C757.209 924.465 757.436 925.079 757.453 925.716C757.47 926.353 757.276 926.977 756.901 927.492C719.884 978.427 704.927 1050.96 699.152 1102.88C699.108 1103.64 698.77 1104.35 698.21 1104.87C697.65 1105.38 696.911 1105.66 696.15 1105.65ZM686.736 1099.29L693.609 1099.7C699.383 1050.21 713.416 983.278 746.218 933.036C743.85 934.191 741.54 935.346 739.172 936.617C711.601 987.055 693.81 1042.25 686.736 1099.29V1099.29Z" fill="#263238"/>
<path d="M1209.54 1132.61L1296.91 1137.69L1228.42 1043.28L1209.54 1132.61Z" fill="#878787"/>
<path d="M1296.91 1140.58L1209.54 1135.5C1209.13 1135.47 1208.72 1135.35 1208.36 1135.17C1207.99 1134.98 1207.67 1134.72 1207.4 1134.4C1207.15 1134.07 1206.97 1133.68 1206.88 1133.28C1206.8 1132.87 1206.79 1132.44 1206.88 1132.04L1225.76 1042.7C1225.87 1042.15 1226.13 1041.64 1226.52 1041.24C1226.91 1040.84 1227.41 1040.56 1227.96 1040.45C1228.51 1040.34 1229.08 1040.39 1229.6 1040.59C1230.12 1040.8 1230.57 1041.15 1230.9 1041.6L1299.39 1136.02C1299.72 1136.44 1299.92 1136.95 1299.97 1137.48C1300.02 1138.02 1299.92 1138.55 1299.68 1139.03C1299.44 1139.51 1299.07 1139.91 1298.61 1140.18C1298.15 1140.46 1297.62 1140.6 1297.08 1140.58H1296.91ZM1213.06 1129.96L1290.96 1134.46L1229.86 1050.26L1213.06 1129.96Z" fill="#263238"/>
<path d="M1213.46 1075.39L1257.06 1119.28L1255.97 1135.39L1192.1 1131L1213.46 1075.39Z" fill="#263238"/>
<path d="M1255.97 1138.27L1192.1 1133.88C1191.64 1133.86 1191.2 1133.73 1190.81 1133.5C1190.41 1133.26 1190.08 1132.94 1189.84 1132.56C1189.64 1132.15 1189.54 1131.71 1189.54 1131.26C1189.54 1130.81 1189.64 1130.36 1189.84 1129.96L1211.15 1074.34C1211.34 1073.9 1211.63 1073.5 1212 1073.19C1212.37 1072.88 1212.81 1072.67 1213.29 1072.58C1213.76 1072.48 1214.25 1072.5 1214.71 1072.64C1215.18 1072.77 1215.6 1073.02 1215.95 1073.36L1259.55 1117.19C1259.83 1117.49 1260.04 1117.85 1260.18 1118.24C1260.32 1118.62 1260.38 1119.04 1260.35 1119.45L1259.26 1135.62C1259.2 1136.37 1258.84 1137.08 1258.28 1137.58C1257.96 1137.85 1257.59 1138.06 1257.2 1138.18C1256.8 1138.3 1256.38 1138.33 1255.97 1138.27ZM1196.2 1128.4L1253.31 1132.32L1254.12 1120.37L1214.62 1080.58L1196.2 1128.4Z" fill="#263238"/>
<path d="M1195.13 1056.64L1114.88 1051.12C1104.09 1050.38 1094.74 1058.52 1094 1069.31L1091.56 1104.92C1090.82 1115.7 1098.96 1125.05 1109.75 1125.79L1190 1131.3C1200.79 1132.04 1210.13 1123.9 1210.87 1113.11L1213.32 1077.51C1214.06 1066.72 1205.92 1057.38 1195.13 1056.64Z" fill="white"/>
<path d="M1191.52 1134.23H1189.96L1109.63 1128.46C1103.7 1128.02 1098.18 1125.26 1094.27 1120.78C1092.33 1118.56 1090.84 1115.98 1089.9 1113.18C1088.96 1110.39 1088.58 1107.43 1088.78 1104.49L1091.27 1068.8C1091.7 1062.88 1094.45 1057.36 1098.93 1053.46C1103.41 1049.55 1109.24 1047.57 1115.17 1047.96L1195.5 1053.73C1201.43 1054.16 1206.94 1056.91 1210.85 1061.39C1214.75 1065.87 1216.73 1071.71 1216.35 1077.64L1213.87 1113.33C1213.47 1118.99 1210.95 1124.3 1206.8 1128.17C1202.66 1132.05 1197.19 1134.22 1191.52 1134.23ZM1190.36 1128.46C1192.54 1128.61 1194.74 1128.34 1196.81 1127.64C1198.89 1126.95 1200.8 1125.85 1202.45 1124.41C1204.1 1122.97 1205.45 1121.22 1206.41 1119.26C1207.38 1117.3 1207.95 1115.16 1208.09 1112.98L1210.57 1077.29C1210.86 1072.89 1209.39 1068.56 1206.49 1065.24C1203.59 1061.91 1199.5 1059.87 1195.1 1059.56L1114.77 1053.79C1112.59 1053.63 1110.4 1053.91 1108.32 1054.6C1106.25 1055.3 1104.33 1056.39 1102.68 1057.83C1101.03 1059.27 1099.69 1061.02 1098.72 1062.99C1097.75 1064.95 1097.18 1067.08 1097.04 1069.26L1094.56 1104.95C1094.4 1107.14 1094.68 1109.33 1095.37 1111.41C1096.06 1113.49 1097.16 1115.41 1098.6 1117.06C1100.04 1118.72 1101.79 1120.07 1103.75 1121.04C1105.71 1122.02 1107.85 1122.59 1110.03 1122.74L1190.36 1128.46Z" fill="#263238"/>
<path d="M1308.75 1406.46C1311.75 1362.74 1328.15 1262.61 1462.36 1271.79C1563.94 1278.78 1585.42 1425.46 1585.42 1425.46C1585.42 1425.46 1588.94 1488.98 1604.88 1515.55C1608.93 1522.42 1611.99 1527.44 1614.24 1531.25L1637.34 1532.81L1766.7 1524.38L1760.92 1445.84L1713.22 1266.82L1332.6 1139.77L446.561 1087.4L376.107 1107.09C363.909 1109.14 351.964 1112.49 340.476 1117.08C318.59 1125.86 291.506 1139.83 289.196 1152.83L256.106 1337.62C251.139 1365.57 319.225 1396.99 345.212 1408.42L372.816 1426.9C364.701 1403.87 361.037 1379.51 362.017 1355.12C365.944 1298.24 394.471 1198.33 489.064 1204.97C537.746 1208.32 567.082 1220.28 584.811 1238.64L586.197 1240.31C592.17 1246.92 597.009 1254.48 600.519 1262.66C614.883 1289.73 623.698 1319.4 626.448 1349.92C633.378 1421.36 656.593 1456.47 679.577 1465.94L683.215 1467.5L1338.78 1512.54C1318.57 1479.39 1306.32 1441.97 1308.75 1406.46Z" fill="white"/>
<path d="M1637.4 1535.7L1614.3 1534.14C1613.84 1534.11 1613.39 1533.97 1613 1533.73C1612.61 1533.48 1612.28 1533.15 1612.04 1532.75L1602.69 1516.99C1586.58 1489.96 1583 1428.29 1582.82 1425.63C1582.82 1424.47 1560.53 1281.26 1462.42 1274.67C1405.59 1270.75 1364.24 1286.22 1338.95 1320.87C1323.47 1342.3 1314.35 1371.11 1311.92 1406.57C1309.09 1447.69 1326.53 1485.92 1341.61 1510.52C1341.89 1510.97 1342.04 1511.48 1342.05 1512.01C1342.05 1512.54 1341.91 1513.06 1341.63 1513.51C1341.35 1513.96 1340.95 1514.33 1340.48 1514.57C1340.01 1514.8 1339.48 1514.9 1338.95 1514.85L683.33 1470.21H682.406L678.826 1468.65C665.255 1462.88 632.627 1440.36 623.907 1350.27C621.171 1320.14 612.475 1290.85 598.324 1264.11C594.934 1256.11 590.23 1248.73 584.406 1242.28L583.598 1241.35L582.963 1240.89C564.599 1221.89 533.876 1211.15 489.121 1208.09C378.937 1200.47 366.232 1339.76 365.135 1355.7C364.149 1379.7 367.756 1403.67 375.76 1426.32C375.957 1426.9 375.968 1427.52 375.792 1428.1C375.616 1428.68 375.261 1429.19 374.779 1429.56C374.287 1429.9 373.702 1430.08 373.104 1430.08C372.506 1430.08 371.922 1429.9 371.429 1429.56L343.652 1410.79C280.129 1382.9 249.522 1358.01 253.276 1337.04L286.308 1152.25C289.137 1136.66 320.957 1121.81 339.379 1114.36C351.073 1109.7 363.23 1106.29 375.645 1104.2L446.041 1084.39H446.965L1332.71 1136.37C1332.96 1136.31 1333.22 1136.31 1333.46 1136.37L1714.09 1263.41C1714.53 1263.58 1714.94 1263.84 1715.26 1264.2C1715.58 1264.55 1715.81 1264.97 1715.93 1265.43L1763.63 1444.46L1769.41 1523.57C1769.44 1523.95 1769.4 1524.32 1769.28 1524.68C1769.16 1525.04 1768.97 1525.37 1768.72 1525.65C1768.2 1526.23 1767.47 1526.58 1766.69 1526.63L1637.4 1535.7ZM1615.91 1528.48L1637.4 1529.98L1763.52 1521.72L1757.74 1446.07L1710.56 1268.9L1331.79 1142.31L446.907 1090.34L376.684 1110.03C364.57 1112.07 352.705 1115.38 341.285 1119.91C311.948 1131.46 293.469 1144.28 291.794 1153.52L258.762 1338.31C256.914 1348.48 265.865 1370.71 346.135 1406.05L367.387 1420.2C360.78 1399.19 357.906 1377.18 358.898 1355.18C364.037 1280.8 401.17 1196.19 489.063 1202.2C534.8 1205.32 566.504 1216.41 585.966 1236.04C586.326 1236.16 586.646 1236.38 586.89 1236.68L588.333 1238.47C594.49 1245.28 599.449 1253.09 603.001 1261.57C617.485 1288.92 626.397 1318.87 629.219 1349.69C634.994 1410.04 654.282 1452.48 680.616 1463.34L683.792 1464.67L1333.58 1508.96C1318.8 1483.44 1303.09 1446.25 1305.86 1406.17C1308.4 1369.61 1317.87 1339.81 1333.98 1317.47C1360.32 1281.14 1403.57 1264.8 1462.53 1268.84C1565.27 1275.89 1588.08 1423.44 1588.31 1424.76C1588.54 1426.09 1592.01 1487.94 1607.37 1513.75L1615.91 1528.48Z" fill="#263238"/>
<path d="M849.242 1392.42C855.883 1407.84 860.792 1417.83 860.792 1417.83Z" fill="white"/>
<path d="M861.081 1420.72C860.547 1420.72 860.023 1420.58 859.565 1420.3C859.108 1420.03 858.733 1419.64 858.482 1419.16C858.482 1419.16 853.169 1408.88 846.586 1393.58C846.295 1392.88 846.289 1392.1 846.57 1391.4C846.851 1390.7 847.395 1390.13 848.087 1389.83C848.435 1389.67 848.811 1389.58 849.194 1389.57C849.577 1389.56 849.958 1389.62 850.314 1389.76C850.671 1389.9 850.995 1390.11 851.267 1390.38C851.539 1390.65 851.754 1390.97 851.899 1391.33C858.366 1406.4 863.448 1416.39 863.448 1416.45C863.798 1417.13 863.867 1417.93 863.64 1418.66C863.414 1419.39 862.91 1420.01 862.236 1420.38C861.882 1420.58 861.487 1420.7 861.081 1420.72V1420.72Z" fill="#263238"/>
<path d="M861.08 1139.37C861.08 1139.37 821.927 1231.02 821.927 1286.69C821.927 1311.81 829.896 1340.86 838.674 1365.23" fill="white"/>
<path d="M838.501 1368.11C837.898 1368.13 837.306 1367.95 836.809 1367.61C836.311 1367.26 835.934 1366.78 835.729 1366.21C824.526 1335.02 818.866 1308.46 818.866 1286.69C818.866 1231.08 856.807 1141.85 858.424 1138.1C858.742 1137.43 859.309 1136.9 860.006 1136.63C860.703 1136.37 861.477 1136.38 862.164 1136.67C862.851 1136.96 863.399 1137.51 863.692 1138.2C863.985 1138.88 864.001 1139.66 863.737 1140.35C863.333 1141.28 824.641 1232.23 824.641 1286.69C824.641 1307.59 830.416 1333.7 841.215 1364.3C841.454 1365.02 841.401 1365.81 841.066 1366.49C840.731 1367.17 840.141 1367.69 839.425 1367.94C839.13 1368.05 838.817 1368.11 838.501 1368.11V1368.11Z" fill="#263238"/>
<path d="M1782.52 1371.58L1835.59 1375.22L1814.97 1288.88L1762.07 1291.36L1782.52 1371.58Z" fill="#949494"/>
<path d="M1835.59 1378.1L1782.58 1374.46C1781.97 1374.42 1781.39 1374.19 1780.92 1373.79C1780.45 1373.4 1780.12 1372.86 1779.98 1372.27L1759.48 1292.12C1759.39 1291.7 1759.38 1291.26 1759.47 1290.85C1759.56 1290.43 1759.74 1290.03 1760 1289.69C1760.24 1289.34 1760.56 1289.05 1760.93 1288.84C1761.3 1288.63 1761.71 1288.51 1762.13 1288.48L1815.09 1285.99C1815.76 1285.94 1816.43 1286.13 1816.98 1286.53C1817.52 1286.94 1817.89 1287.53 1818.03 1288.19L1838.59 1374.81C1838.71 1375.25 1838.71 1375.71 1838.61 1376.15C1838.51 1376.59 1838.31 1377.01 1838.01 1377.35C1837.69 1377.64 1837.3 1377.86 1836.88 1377.99C1836.46 1378.12 1836.02 1378.16 1835.59 1378.1V1378.1ZM1784.83 1368.81L1831.84 1372.04L1812.72 1291.88L1765.71 1294.08L1784.83 1368.81Z" fill="#263238"/>
<path d="M2313.63 1408.02L2341.7 1409.98L2323.22 1404.67L2294.52 1401.32L2313.63 1408.02Z" fill="white"/>
<path d="M2341.7 1412.87L2313.57 1410.9H2312.82L2293.71 1404.15C2293.05 1403.91 2292.49 1403.44 2292.15 1402.82C2291.81 1402.2 2291.71 1401.48 2291.86 1400.8C2292.03 1400.1 2292.44 1399.49 2293.02 1399.07C2293.61 1398.66 2294.32 1398.47 2295.04 1398.54L2323.91 1401.89L2342.85 1407.32C2343.54 1407.51 2344.14 1407.96 2344.51 1408.57C2344.89 1409.18 2345.02 1409.91 2344.87 1410.61C2344.73 1411.32 2344.33 1411.95 2343.74 1412.37C2343.14 1412.79 2342.42 1412.97 2341.7 1412.87Z" fill="#263238"/>
<path d="M657.92 1175.41L620.499 1172.81C618.809 1172.7 617.157 1172.25 615.64 1171.5C614.122 1170.75 612.768 1169.71 611.657 1168.43C610.545 1167.15 609.698 1165.66 609.164 1164.06C608.63 1162.45 608.419 1160.75 608.545 1159.06V1159.06C608.782 1155.65 610.361 1152.47 612.937 1150.22C615.513 1147.97 618.876 1146.83 622.289 1147.05L659.71 1149.65C661.411 1149.75 663.075 1150.18 664.606 1150.92C666.137 1151.67 667.504 1152.71 668.628 1153.99C669.751 1155.27 670.609 1156.76 671.15 1158.38C671.691 1159.99 671.905 1161.7 671.78 1163.39C671.663 1165.09 671.211 1166.76 670.45 1168.28C669.689 1169.81 668.635 1171.17 667.347 1172.28C666.059 1173.4 664.563 1174.25 662.945 1174.78C661.328 1175.32 659.62 1175.53 657.92 1175.41Z" fill="white"/>
<path d="M658.845 1178.29H657.748L620.326 1175.75C616.153 1175.47 612.263 1173.54 609.512 1170.39C606.761 1167.24 605.375 1163.12 605.658 1158.95C605.942 1154.78 607.871 1150.88 611.023 1148.13C614.174 1145.38 618.29 1144 622.463 1144.28L659.884 1146.82C661.955 1146.89 663.991 1147.36 665.878 1148.22C667.765 1149.08 669.464 1150.29 670.88 1151.81C672.296 1153.32 673.4 1155.09 674.129 1157.03C674.858 1158.97 675.198 1161.04 675.13 1163.11C675.062 1165.18 674.586 1167.21 673.731 1169.1C672.876 1170.99 671.657 1172.69 670.145 1174.1C668.633 1175.52 666.856 1176.62 664.918 1177.35C662.979 1178.08 660.915 1178.42 658.845 1178.35V1178.29ZM621.366 1149.94C618.836 1149.95 616.402 1150.91 614.55 1152.63C612.698 1154.36 611.564 1156.71 611.375 1159.24C611.305 1160.57 611.504 1161.9 611.96 1163.15C612.417 1164.4 613.122 1165.54 614.032 1166.51C614.881 1167.51 615.922 1168.32 617.093 1168.91C618.264 1169.49 619.54 1169.84 620.846 1169.92L658.267 1172.52C659.584 1172.61 660.906 1172.44 662.155 1172.01C663.405 1171.58 664.557 1170.91 665.544 1170.04C666.539 1169.19 667.354 1168.15 667.94 1166.98C668.525 1165.8 668.869 1164.53 668.951 1163.22C669.124 1160.57 668.253 1157.96 666.525 1155.95C665.665 1154.95 664.614 1154.13 663.434 1153.55C662.253 1152.96 660.968 1152.62 659.653 1152.54L622.232 1149.94H621.366Z" fill="#263238"/>
<path d="M956.135 1195.85L918.714 1193.31C917.026 1193.19 915.378 1192.74 913.864 1191.99C912.35 1191.23 911 1190.19 909.89 1188.91C908.779 1187.63 907.932 1186.15 907.395 1184.55C906.858 1182.94 906.642 1181.25 906.76 1179.56V1179.56C906.997 1176.15 908.576 1172.97 911.152 1170.72C913.728 1168.47 917.09 1167.33 920.504 1167.55L957.925 1170.15C959.615 1170.26 961.267 1170.7 962.785 1171.45C964.302 1172.21 965.656 1173.25 966.768 1174.53C967.879 1175.81 968.726 1177.29 969.26 1178.9C969.794 1180.51 970.005 1182.2 969.879 1183.89V1183.89C969.769 1185.58 969.326 1187.23 968.574 1188.75C967.822 1190.27 966.777 1191.62 965.499 1192.73C964.221 1193.85 962.736 1194.69 961.128 1195.23C959.521 1195.76 957.824 1195.97 956.135 1195.85Z" fill="white"/>
<path d="M957.058 1198.79H955.961L918.54 1196.25C914.515 1195.77 910.831 1193.76 908.245 1190.64C905.66 1187.51 904.372 1183.52 904.646 1179.47C904.92 1175.43 906.735 1171.64 909.718 1168.9C912.701 1166.16 916.623 1164.66 920.676 1164.72L958.098 1167.32C962.266 1167.62 966.148 1169.55 968.896 1172.7C971.645 1175.85 973.036 1179.96 972.766 1184.13C972.502 1188.11 970.733 1191.85 967.817 1194.59C964.901 1197.32 961.055 1198.85 957.058 1198.85V1198.79ZM919.579 1170.44C917.051 1170.43 914.617 1171.39 912.771 1173.12C910.926 1174.85 909.808 1177.21 909.646 1179.74C909.532 1181.05 909.687 1182.38 910.105 1183.63C910.522 1184.88 911.191 1186.03 912.072 1187.01C912.928 1188.02 913.978 1188.83 915.159 1189.42C916.34 1190.01 917.628 1190.35 918.944 1190.42L956.365 1192.96C957.67 1193.07 958.984 1192.91 960.226 1192.5C961.467 1192.08 962.61 1191.41 963.584 1190.54C965.582 1188.8 966.808 1186.34 966.992 1183.69C967.176 1181.05 966.303 1178.44 964.565 1176.45C963.705 1175.45 962.654 1174.63 961.474 1174.05C960.294 1173.46 959.008 1173.12 957.693 1173.04L920.272 1170.44H919.579Z" fill="#263238"/>
<path d="M1279.64 1484.19C1279.07 1484.19 1278.52 1484.01 1278.04 1483.7C1277.57 1483.38 1277.2 1482.93 1276.99 1482.4C1273.12 1472.66 1270.31 1462.54 1268.61 1452.2C1268.48 1451.45 1268.64 1450.67 1269.08 1450.05C1269.51 1449.42 1270.17 1448.99 1270.92 1448.85C1271.29 1448.77 1271.68 1448.77 1272.05 1448.85C1272.42 1448.93 1272.77 1449.08 1273.09 1449.29C1273.4 1449.51 1273.66 1449.78 1273.87 1450.1C1274.07 1450.42 1274.21 1450.78 1274.27 1451.16C1275.93 1461.04 1278.62 1470.71 1282.3 1480.03C1282.45 1480.38 1282.53 1480.75 1282.53 1481.13C1282.53 1481.51 1282.46 1481.89 1282.31 1482.24C1282.17 1482.59 1281.95 1482.91 1281.68 1483.17C1281.41 1483.44 1281.09 1483.65 1280.74 1483.78C1280.41 1484 1280.03 1484.14 1279.64 1484.19V1484.19Z" fill="#263238"/>
<path d="M1268.9 1436.6C1268.19 1436.59 1267.5 1436.32 1266.97 1435.85C1266.44 1435.37 1266.1 1434.71 1266.01 1434C1257.52 1354.31 1276.47 1237.08 1283.34 1210.75C1288.62 1190.03 1300.06 1171.41 1316.14 1157.33C1316.75 1156.88 1317.51 1156.68 1318.27 1156.78C1319.02 1156.87 1319.71 1157.26 1320.18 1157.85C1320.65 1158.46 1320.86 1159.24 1320.76 1160.01C1320.66 1160.77 1320.27 1161.47 1319.66 1161.95C1304.65 1175.29 1293.95 1192.8 1288.94 1212.25C1281.84 1238.35 1263.07 1354.43 1271.62 1433.43C1271.66 1433.8 1271.62 1434.17 1271.51 1434.53C1271.41 1434.89 1271.23 1435.23 1271 1435.52C1270.76 1435.81 1270.47 1436.05 1270.14 1436.22C1269.81 1436.4 1269.45 1436.51 1269.07 1436.54L1268.9 1436.6Z" fill="#263238"/>
<path d="M1589.41 1387.98C1588.64 1387.98 1587.91 1387.67 1587.36 1387.13C1586.82 1386.59 1586.52 1385.85 1586.52 1385.09C1586 1349.23 1577.16 1263.47 1506.94 1241.24C1455.95 1225.07 1413.27 1242.85 1386.48 1260.64C1386.16 1260.89 1385.8 1261.08 1385.41 1261.18C1385.03 1261.29 1384.62 1261.31 1384.22 1261.25C1383.83 1261.18 1383.45 1261.04 1383.11 1260.82C1382.77 1260.61 1382.48 1260.32 1382.26 1259.99C1382.04 1259.65 1381.89 1259.27 1381.82 1258.88C1381.75 1258.48 1381.77 1258.08 1381.87 1257.69C1381.96 1257.3 1382.14 1256.93 1382.39 1256.62C1382.64 1256.3 1382.95 1256.04 1383.3 1255.85C1411.14 1237.37 1455.49 1218.89 1508.67 1235.69C1582.53 1259.08 1591.77 1347.9 1592.29 1385.03C1592.29 1385.79 1592 1386.53 1591.47 1387.07C1590.94 1387.62 1590.22 1387.95 1589.46 1387.98H1589.41Z" fill="#263238"/>
<path d="M1351.77 1289.52C1351.22 1289.51 1350.69 1289.35 1350.23 1289.05C1349.77 1288.76 1349.4 1288.34 1349.17 1287.84C1348.95 1287.35 1348.86 1286.79 1348.93 1286.25C1349 1285.71 1349.23 1285.2 1349.58 1284.78C1355.29 1278.32 1361.55 1272.37 1368.29 1266.99C1368.88 1266.51 1369.63 1266.29 1370.39 1266.36C1371.15 1266.44 1371.84 1266.81 1372.33 1267.4C1372.58 1267.69 1372.76 1268.03 1372.87 1268.4C1372.99 1268.77 1373.02 1269.15 1372.99 1269.53C1372.95 1269.91 1372.84 1270.28 1372.65 1270.62C1372.47 1270.96 1372.22 1271.26 1371.92 1271.5C1365.48 1276.65 1359.47 1282.33 1353.97 1288.48C1353.7 1288.8 1353.36 1289.06 1352.98 1289.24C1352.61 1289.42 1352.19 1289.52 1351.77 1289.52Z" fill="#263238"/>
<path d="M289.195 1152.82L276.722 1222.47L306 1224.49L310.909 1153.4L289.426 1151.9C289.369 1152.25 289.253 1152.54 289.195 1152.82Z" fill="#92E3A9"/>
<path d="M306.001 1227.38L276.722 1225.36C276.316 1225.34 275.92 1225.23 275.561 1225.04C275.201 1224.85 274.888 1224.59 274.643 1224.26C274.382 1223.96 274.195 1223.59 274.095 1223.2C273.995 1222.81 273.985 1222.41 274.066 1222.01L286.482 1152.37C286.536 1152.01 286.633 1151.66 286.77 1151.33C286.99 1150.68 287.399 1150.11 287.945 1149.7C288.491 1149.29 289.148 1149.05 289.831 1149.02L311.256 1150.52C312.017 1150.58 312.725 1150.93 313.231 1151.5C313.737 1152.07 314.002 1152.82 313.97 1153.58L309.061 1224.73C309.002 1225.48 308.648 1226.18 308.075 1226.68C307.503 1227.18 306.758 1227.43 306.001 1227.38ZM280.129 1219.82L303.229 1221.43L307.964 1156.06L291.91 1154.97L280.129 1219.82Z" fill="#263238"/>
<path d="M1698.15 1121.64L1776.11 1114.6L1856.55 1049.34L1948.95 1050.26C1948.95 1050.26 1975.98 1127.36 2048.91 1173.33C2097.83 1204.11 2202.35 1209.13 2202.93 1211.21C2204.31 1216.52 2211.94 1280.91 2211.94 1280.91C2211.94 1280.91 2310.4 1353.04 2318.6 1358.81C2326.8 1364.59 2336.73 1396.35 2336.73 1396.35L2028.87 1310.65L1897.9 1265.49L1731.64 1263.41L1501.28 1175.17L1374.99 1139.66C1374.99 1139.66 1639.36 1095.89 1698.15 1121.64Z" fill="white"/>
<path d="M2336.73 1399.24H2335.98L2027.78 1313.43L1897.09 1268.33L1731.29 1266.42C1730.97 1266.48 1730.64 1266.48 1730.31 1266.42L1500.3 1178.18L1374.18 1142.78C1373.56 1142.58 1373.02 1142.18 1372.65 1141.65C1372.27 1141.12 1372.08 1140.48 1372.1 1139.83C1372.12 1139.17 1372.37 1138.53 1372.82 1138.04C1373.26 1137.54 1373.86 1137.22 1374.52 1137.12C1385.26 1135.33 1638.43 1093.81 1698.61 1118.99L1774.78 1111.83L1854.76 1046.97C1855.01 1046.75 1855.3 1046.57 1855.62 1046.46C1855.94 1046.35 1856.27 1046.31 1856.61 1046.34L1949.01 1047.26C1949.6 1047.28 1950.18 1047.47 1950.67 1047.82C1951.15 1048.17 1951.52 1048.66 1951.72 1049.23C1951.72 1049.98 1979.27 1125.92 2050.47 1170.5C2087.95 1194.12 2158.92 1202.38 2189.07 1205.9C2204.95 1207.75 2204.95 1207.75 2205.53 1210.17C2206.85 1215.2 2213.21 1268.33 2214.48 1278.95C2224.93 1286.63 2312.65 1350.96 2320.27 1356.28C2329.05 1362.4 2338.46 1391.97 2339.5 1395.31C2339.65 1395.8 2339.67 1396.33 2339.55 1396.83C2339.43 1397.32 2339.17 1397.78 2338.81 1398.14C2338.56 1398.47 2338.25 1398.73 2337.89 1398.92C2337.53 1399.11 2337.14 1399.22 2336.73 1399.24V1399.24ZM1731.87 1260.64L1897.61 1262.72C1897.91 1262.66 1898.23 1262.66 1898.53 1262.72L2029.51 1307.88L2332.34 1392.2C2328.24 1380.3 2321.66 1364.59 2316.98 1361.3C2308.78 1355.53 2214.07 1286.23 2210.09 1283.17C2209.76 1282.94 2209.49 1282.65 2209.28 1282.31C2209.07 1281.97 2208.93 1281.6 2208.88 1281.2C2206.1 1257.41 2201.71 1221.84 2200.27 1213.46C2198.02 1213.06 2193.28 1212.54 2188.37 1211.96C2157.65 1208.38 2085.81 1199.95 2047.24 1175.7C1980.65 1133.77 1951.6 1065.4 1946.81 1053.1L1857.59 1052.17L1777.95 1116.85C1777.5 1117.2 1776.96 1117.42 1776.4 1117.49L1698.43 1124.53C1697.96 1124.65 1697.47 1124.65 1696.99 1124.53C1647.04 1102.64 1442.26 1132.39 1388.44 1140.7L1502.09 1172.64L1731.87 1260.64Z" fill="#263238"/>
<path d="M2028.87 1313.54C2028.39 1313.54 2027.91 1313.43 2027.49 1313.2L1889.47 1238.12L1731.87 1266.42C1731.5 1266.49 1731.12 1266.49 1730.74 1266.42C1730.37 1266.34 1730.02 1266.19 1729.71 1265.97C1729.4 1265.76 1729.13 1265.48 1728.93 1265.16C1728.72 1264.84 1728.58 1264.48 1728.52 1264.11C1728.39 1263.36 1728.55 1262.59 1728.99 1261.96C1729.42 1261.33 1730.08 1260.9 1730.83 1260.76L1889.18 1232.23C1889.83 1232.1 1890.51 1232.2 1891.09 1232.52L2029.97 1308.34C2030.3 1308.52 2030.6 1308.76 2030.84 1309.05C2031.07 1309.34 2031.25 1309.68 2031.36 1310.04C2031.47 1310.4 2031.5 1310.78 2031.46 1311.15C2031.42 1311.52 2031.31 1311.88 2031.13 1312.21C2030.88 1312.6 2030.55 1312.92 2030.16 1313.15C2029.77 1313.38 2029.33 1313.52 2028.87 1313.54V1313.54Z" fill="#263238"/>
<path d="M2177.46 1294.31H2176.71L2031.88 1254.87C2031.22 1254.71 2030.64 1254.31 2030.25 1253.76C2029.86 1253.21 2029.68 1252.54 2029.74 1251.87C2029.8 1251.19 2030.09 1250.56 2030.57 1250.08C2031.04 1249.59 2031.67 1249.29 2032.34 1249.21L2115.5 1241.41L2184.22 1211.5C2184.57 1211.35 2184.94 1211.27 2185.32 1211.26C2185.7 1211.25 2186.08 1211.32 2186.43 1211.46C2186.79 1211.6 2187.11 1211.81 2187.39 1212.07C2187.66 1212.34 2187.88 1212.65 2188.03 1213C2188.18 1213.35 2188.26 1213.72 2188.27 1214.1C2188.28 1214.49 2188.21 1214.86 2188.07 1215.22C2187.93 1215.57 2187.72 1215.89 2187.46 1216.17C2187.19 1216.44 2186.88 1216.66 2186.53 1216.81L2117.23 1246.9C2116.94 1246.95 2116.65 1246.95 2116.36 1246.9L2048.57 1253.14L2177.98 1288.36C2178.72 1288.58 2179.34 1289.07 2179.72 1289.74C2180.1 1290.41 2180.2 1291.2 2180 1291.94C2179.89 1292.56 2179.59 1293.12 2179.13 1293.55C2178.67 1293.98 2178.08 1294.24 2177.46 1294.31Z" fill="#263238"/>
<path d="M1998.27 1247.07C1997.78 1247.1 1997.3 1246.98 1996.88 1246.73L1789.91 1135.97C1789.57 1135.79 1789.27 1135.55 1789.03 1135.25C1788.78 1134.96 1788.6 1134.62 1788.48 1134.26C1788.37 1133.89 1788.33 1133.51 1788.37 1133.13C1788.4 1132.75 1788.52 1132.38 1788.7 1132.04C1788.88 1131.7 1789.12 1131.41 1789.42 1131.17C1789.72 1130.93 1790.06 1130.75 1790.42 1130.65C1790.79 1130.54 1791.17 1130.5 1791.55 1130.55C1791.92 1130.59 1792.29 1130.7 1792.62 1130.88L1999.65 1241.65C2000.32 1242.02 2000.81 1242.64 2001.02 1243.38C2001.24 1244.11 2001.16 1244.9 2000.81 1245.57C2000.56 1246.03 2000.2 1246.42 1999.75 1246.68C1999.3 1246.95 1998.79 1247.08 1998.27 1247.07V1247.07Z" fill="#263238"/>
<path d="M2251.38 1403.74L2375.77 1487.82L2341.7 1409.98L2251.38 1403.74Z" fill="white"/>
<path d="M2375.77 1490.71C2375.2 1490.73 2374.63 1490.57 2374.15 1490.25L2249.76 1406.17C2249.24 1405.81 2248.85 1405.29 2248.66 1404.69C2248.46 1404.08 2248.47 1403.44 2248.68 1402.84C2248.89 1402.24 2249.29 1401.73 2249.82 1401.38C2250.35 1401.03 2250.98 1400.87 2251.61 1400.92L2341.93 1407.09C2342.45 1407.14 2342.95 1407.33 2343.38 1407.63C2343.8 1407.94 2344.14 1408.35 2344.35 1408.83L2378.43 1486.67C2378.67 1487.25 2378.73 1487.9 2378.58 1488.51C2378.44 1489.12 2378.1 1489.67 2377.62 1490.08C2377.09 1490.48 2376.44 1490.71 2375.77 1490.71V1490.71ZM2261.89 1407.38L2369.13 1480.09L2339.79 1412.99L2261.89 1407.38Z" fill="#263238"/>
<path d="M1475.76 891.052H1475.35L1066.44 832.668C1066.06 832.611 1065.7 832.481 1065.37 832.285C1065.05 832.089 1064.76 831.831 1064.54 831.525C1064.31 831.219 1064.15 830.872 1064.06 830.503C1063.97 830.134 1063.95 829.751 1064.01 829.376C1064.14 828.624 1064.55 827.951 1065.17 827.499C1065.78 827.047 1066.55 826.85 1067.3 826.951L1476.16 885.277C1476.93 885.33 1477.64 885.686 1478.14 886.265C1478.65 886.845 1478.9 887.6 1478.85 888.366C1478.79 889.132 1478.44 889.845 1477.86 890.349C1477.28 890.852 1476.52 891.105 1475.76 891.052V891.052Z" fill="#263238"/>
<path d="M1214.62 828.625L992.632 793.571C991.866 793.449 991.181 793.027 990.726 792.399C990.271 791.771 990.084 790.988 990.207 790.222C990.329 789.456 990.751 788.77 991.379 788.316C992.007 787.861 992.79 787.674 993.556 787.797L1215.54 822.792C1216.29 822.933 1216.96 823.362 1217.4 823.987C1217.85 824.612 1218.03 825.385 1217.91 826.142C1217.86 826.522 1217.74 826.889 1217.54 827.221C1217.35 827.553 1217.09 827.843 1216.79 828.074C1216.48 828.306 1216.13 828.473 1215.76 828.568C1215.38 828.662 1215 828.682 1214.62 828.625Z" fill="#263238"/>
<path d="M1029.24 1535.76L804.602 1527.21C803.836 1527.21 803.102 1526.91 802.561 1526.37C802.019 1525.82 801.715 1525.09 801.715 1524.32C801.715 1523.56 802.019 1522.82 802.561 1522.28C803.102 1521.74 803.836 1521.44 804.602 1521.44L1029.13 1529.98C1029.51 1529.99 1029.89 1530.07 1030.24 1530.23C1030.59 1530.39 1030.91 1530.61 1031.18 1530.89C1031.44 1531.17 1031.64 1531.5 1031.78 1531.86C1031.91 1532.22 1031.97 1532.6 1031.96 1532.99C1031.92 1533.7 1031.62 1534.37 1031.12 1534.88C1030.62 1535.39 1029.96 1535.7 1029.24 1535.76V1535.76Z" fill="#263238"/>
<path d="M1099.12 1578.61L874.594 1570.06C874.214 1570.05 873.842 1569.96 873.497 1569.8C873.152 1569.64 872.843 1569.41 872.585 1569.13C872.328 1568.85 872.128 1568.53 871.997 1568.17C871.866 1567.82 871.806 1567.44 871.822 1567.06C871.837 1566.68 871.926 1566.31 872.085 1565.96C872.244 1565.62 872.47 1565.31 872.748 1565.05C873.027 1564.79 873.354 1564.59 873.711 1564.46C874.067 1564.33 874.445 1564.27 874.825 1564.29L1099.35 1572.83C1100.12 1572.83 1100.85 1573.14 1101.39 1573.68C1101.93 1574.22 1102.24 1574.95 1102.24 1575.72C1102.24 1576.49 1101.93 1577.22 1101.39 1577.76C1100.85 1578.3 1100.12 1578.61 1099.35 1578.61H1099.12Z" fill="#263238"/>
</svg>
