<svg width="2000" height="2000" viewBox="0 0 2000 2000" fill="none" xmlns="http://www.w3.org/2000/svg">
<path d="M1809.22 827.793C1785.48 799.272 1751.84 854.634 1714.66 921.631C1694.29 958.343 1649.18 989.636 1629.48 1035.76C1610.33 1080.66 1617.26 1138.67 1601.92 1179.62C1579.28 1240.03 1560.68 1239.52 1542.7 1270.81C1534.76 1252.75 1527.79 1231.16 1529.05 1208.94C1530.68 1180.72 1576.72 1153.66 1577.77 1117.83C1578.57 1087.34 1534.55 1049.53 1534.76 1015.93C1534.76 983.966 1579.45 954.899 1578.86 922.135C1578.28 889.372 1532.66 853.836 1530.98 822.038C1529.26 787.805 1571.47 755.377 1568.4 724.84C1564.71 688.086 1515.9 658.053 1509.85 630.498C1498.68 579.714 1501.95 522.84 1480.83 523.806C1460.92 524.73 1472.42 586.435 1463.31 639.613C1458.31 669.016 1410.38 695.395 1407.86 734.585C1405.76 767.432 1449.11 808.765 1448.4 845.603C1447.73 880.005 1402.91 911.298 1403.16 946.96C1403.41 982.622 1448.73 1021.35 1449.62 1056.17C1450.58 1092.97 1407.11 1126.15 1408.45 1159.54C1409.17 1176.6 1418.32 1193.4 1428.57 1209.49C1415.76 1192.27 1399.17 1174.54 1392.78 1154.17C1383.46 1125.02 1397.95 1087.8 1386.19 1059.41C1373.59 1028.62 1335.99 1010.39 1320.75 986.276C1300.37 954.143 1292.02 911.298 1267.69 903.485C1230.23 891.388 1235.9 938.433 1250.43 997.071C1258.12 1028.15 1245.77 1071.76 1261.9 1111.49C1275.72 1145.6 1316.17 1172.27 1333.31 1207.39C1350.44 1242.5 1345.61 1288.88 1363.55 1320.55C1378.5 1346.88 1403.03 1364.95 1423.07 1381.29L1424.25 1384.52C1424.9 1385.21 1425.7 1385.75 1426.58 1386.09C1427.47 1386.43 1428.42 1386.57 1429.37 1386.5C1436.13 1391.96 1442.28 1398.13 1447.73 1404.89C1457.89 1418.33 1446.55 1444.59 1453.06 1451.1C1470.95 1469.12 1471.88 1454.37 1470.79 1438.79C1470.16 1429.76 1491.03 1415.23 1489.77 1401.74C1490.7 1400.21 1492.06 1398.98 1493.68 1398.21C1500.74 1396.62 1533 1423.92 1537.36 1415.02C1540.6 1408.55 1501.49 1381.41 1503.76 1373.01C1505.36 1367.09 1532.79 1369.11 1545.76 1366.5C1546.15 1366.77 1546.49 1367.09 1546.77 1367.47C1550.59 1372.42 1552.53 1394.43 1563.57 1390.36C1578.28 1384.9 1598.1 1316.64 1639.43 1251.28C1664.34 1211.88 1714.37 1181.01 1738.48 1134.13C1762.59 1087.25 1760.16 1025.84 1775.7 981.866C1799.68 913.86 1830.93 854.004 1809.22 827.793ZM1458.02 1267.16C1459.78 1300.47 1448.48 1313.37 1437.69 1325C1431.05 1287.2 1456.97 1287.2 1444.11 1237.63C1442.89 1233.24 1441.14 1229 1438.9 1225.03C1448.73 1240.07 1457.34 1254.26 1458.02 1267.16ZM1474.52 1379.65C1475.17 1380.65 1475.6 1381.78 1475.8 1382.96C1475.99 1384.13 1475.95 1385.34 1475.66 1386.5C1471.46 1384.1 1467.26 1381.79 1463.39 1379.4C1468.85 1378.3 1473.1 1377.97 1474.52 1379.65V1379.65Z" fill="#92E3A9"/>
<path opacity="0.5" d="M1809.22 827.793C1785.48 799.272 1751.84 854.634 1714.66 921.631C1694.29 958.343 1649.18 989.636 1629.48 1035.76C1610.33 1080.66 1617.26 1138.67 1601.92 1179.62C1579.28 1240.03 1560.68 1239.52 1542.7 1270.81C1534.76 1252.75 1527.79 1231.16 1529.05 1208.94C1530.68 1180.72 1576.72 1153.66 1577.77 1117.83C1578.57 1087.34 1534.55 1049.53 1534.76 1015.93C1534.76 983.966 1579.45 954.899 1578.86 922.135C1578.28 889.372 1532.66 853.836 1530.98 822.038C1529.26 787.805 1571.47 755.377 1568.4 724.84C1564.71 688.086 1515.9 658.053 1509.85 630.498C1498.68 579.714 1501.95 522.84 1480.83 523.806C1460.92 524.73 1472.42 586.435 1463.31 639.613C1458.31 669.016 1410.38 695.395 1407.86 734.585C1405.76 767.432 1449.11 808.765 1448.4 845.603C1447.73 880.005 1402.91 911.298 1403.16 946.96C1403.41 982.622 1448.73 1021.35 1449.62 1056.17C1450.58 1092.97 1407.11 1126.15 1408.45 1159.54C1409.17 1176.6 1418.32 1193.4 1428.57 1209.49C1415.76 1192.27 1399.17 1174.54 1392.78 1154.17C1383.46 1125.02 1397.95 1087.8 1386.19 1059.41C1373.59 1028.62 1335.99 1010.39 1320.75 986.276C1300.37 954.143 1292.02 911.298 1267.69 903.485C1230.23 891.388 1235.9 938.433 1250.43 997.071C1258.12 1028.15 1245.77 1071.76 1261.9 1111.49C1275.72 1145.6 1316.17 1172.27 1333.31 1207.39C1350.44 1242.5 1345.61 1288.88 1363.55 1320.55C1378.5 1346.88 1403.03 1364.95 1423.07 1381.29L1424.25 1384.52C1424.9 1385.21 1425.7 1385.75 1426.58 1386.09C1427.47 1386.43 1428.42 1386.57 1429.37 1386.5C1436.13 1391.96 1442.28 1398.13 1447.73 1404.89C1457.89 1418.33 1446.55 1444.59 1453.06 1451.1C1470.95 1469.12 1471.88 1454.37 1470.79 1438.79C1470.16 1429.76 1491.03 1415.23 1489.77 1401.74C1490.7 1400.21 1492.06 1398.98 1493.68 1398.21C1500.74 1396.62 1533 1423.92 1537.36 1415.02C1540.6 1408.55 1501.49 1381.41 1503.76 1373.01C1505.36 1367.09 1532.79 1369.11 1545.76 1366.5C1546.15 1366.77 1546.49 1367.09 1546.77 1367.47C1550.59 1372.42 1552.53 1394.43 1563.57 1390.36C1578.28 1384.9 1598.1 1316.64 1639.43 1251.28C1664.34 1211.88 1714.37 1181.01 1738.48 1134.13C1762.59 1087.25 1760.16 1025.84 1775.7 981.866C1799.68 913.86 1830.93 854.004 1809.22 827.793ZM1458.02 1267.16C1459.78 1300.47 1448.48 1313.37 1437.69 1325C1431.05 1287.2 1456.97 1287.2 1444.11 1237.63C1442.89 1233.24 1441.14 1229 1438.9 1225.03C1448.73 1240.07 1457.34 1254.26 1458.02 1267.16ZM1474.52 1379.65C1475.17 1380.65 1475.6 1381.78 1475.8 1382.96C1475.99 1384.13 1475.95 1385.34 1475.66 1386.5C1471.46 1384.1 1467.26 1381.79 1463.39 1379.4C1468.85 1378.3 1473.1 1377.97 1474.52 1379.65V1379.65Z" fill="white"/>
<g opacity="0.2">
<path opacity="0.2" d="M1522.24 1232.09L1518.04 1230.11L1505.44 1272.24L1505.94 1172.23L1528.84 1107.12L1524.59 1105.32L1506.03 1158.2L1506.49 1065.12L1543.24 1003.88L1539.34 1001.31L1506.53 1056.04L1507.04 954.142L1541.06 902.854L1537.28 900.166L1507.08 945.657L1507.5 859.212L1529.17 813.931L1525.14 811.663L1507.58 848.585L1508.04 752.436L1536.44 694.302L1532.41 692.076L1508.09 741.809L1508.55 650.869L1504.1 650.449L1503.63 740.423L1455.5 668.007L1451.84 670.275L1503.59 748.11L1503.05 853.835L1455.08 803.514L1452.01 806.454L1503.05 859.968L1502.58 948.723L1456.17 908.105L1453.4 911.381L1502.54 954.352L1502.04 1057.39L1454.19 1002.2L1450.96 1004.97L1502 1063.9L1501.49 1171.1L1501.11 1172.1L1454.61 1102.92L1451 1105.19L1501.41 1180.21L1500.9 1283.37L1462.51 1206.13L1458.52 1207.85L1500.86 1292.95L1500.23 1419.09L1504.68 1419.51L1505.36 1285.05L1522.24 1232.09Z" fill="black"/>
<path opacity="0.2" d="M1761.12 1006.27L1759.11 1002.11L1712.77 1021.26L1736.09 973.336L1788.21 943.933L1785.78 939.985L1739.66 965.986L1778.34 886.471L1774.31 884.245L1739.91 954.855L1748.65 876.18L1744.19 875.256L1734.03 966.952L1709.12 1018.16L1712.02 937.045L1707.57 936.498L1704.29 1028.11L1675.98 1086.29L1667.96 1028.82L1663.54 1029.03L1672.53 1093.39L1640.15 1159.96L1637.38 1090.07L1632.92 1089.86L1636.03 1168.45L1599.91 1242.67L1596.09 1214.19L1591.63 1214.27L1596.25 1250.15L1538.25 1369.4L1542.32 1371.67L1597.22 1258.8L1597.43 1260.86L1649.22 1240.02L1647.25 1235.82L1601.17 1254.35L1600.87 1251.32L1639.56 1171.77L1689.04 1156.48L1687.4 1152.19L1642.29 1166.1L1677.24 1094.27L1733.86 1070.32L1731.8 1066.17L1680.35 1087.97L1709.71 1027.52L1761.12 1006.27Z" fill="black"/>
<path opacity="0.2" d="M1424.96 1256.2L1420.51 1255.52L1417.44 1299.88L1394.34 1250.15L1405.81 1193.23L1401.39 1191.97L1391.1 1243.22L1359.81 1175.88L1368.17 1106.07L1363.76 1105.19L1356.2 1168.11L1330.2 1112.16L1332.8 1113.26L1336.54 1044.54L1332.09 1043.91L1328.64 1106.83L1327.51 1106.37L1298.23 1043.36L1303.86 978.967L1299.41 978.169L1294.41 1035.17L1263.58 968.802L1259.55 970.398L1292.35 1040.97L1256.44 1018.87L1254.38 1022.65L1295.63 1048.02L1321.59 1103.93L1287.44 1089.86L1286.09 1093.98L1324.32 1109.73L1351.24 1167.69L1310.92 1144.72L1308.98 1148.58L1354.35 1174.41L1386.48 1243.55L1350.49 1230.28L1349.31 1234.48L1389.09 1249.14L1416.81 1308.83L1416.6 1312.06L1382.03 1293.66L1380.22 1297.57L1420.63 1319.12L1420.76 1317.27L1473.73 1431.27L1477.76 1429.68L1421.35 1308.32L1424.96 1256.2Z" fill="black"/>
</g>
<path d="M1460.96 1425.43C1460.96 1425.43 1464.91 1412.46 1437.27 1397C1426.16 1390.4 1414.72 1384.39 1402.99 1378.98C1402.99 1378.98 1409.5 1398.43 1423.78 1408.76C1438.06 1419.09 1444.16 1423.8 1444.16 1423.8C1432.62 1418.17 1420.05 1414.98 1407.23 1414.43C1395.67 1414.12 1384.28 1417.34 1374.6 1423.67C1386.64 1430.01 1399.05 1435.62 1411.77 1440.47C1426.93 1445.82 1442.87 1448.65 1458.94 1448.87C1458.94 1448.87 1422.9 1444.67 1415.84 1451.69C1409.26 1459.36 1403.42 1467.65 1398.41 1476.43C1413.27 1475.17 1428.22 1475.24 1443.06 1476.64C1462.18 1479.16 1487.46 1469.54 1487.46 1469.54L1509.05 1480.25L1518.13 1466.77C1518.13 1466.77 1523.21 1466.3 1540.39 1475.17C1556.24 1482.58 1572.59 1488.87 1589.32 1493.99L1557.19 1452.78L1589.66 1460.42C1605.91 1464.25 1632.08 1459.79 1632.08 1459.79C1632.08 1459.79 1629.61 1451.6 1611.8 1444.76C1593.99 1437.91 1559.96 1427.24 1559.96 1427.24C1559.96 1427.24 1587.98 1433.16 1606.59 1420.98C1617.97 1413.45 1628.24 1404.38 1637.12 1394.02C1637.12 1394.02 1610.58 1378.39 1585.54 1383.85C1568.53 1388.29 1552.6 1396.17 1538.75 1406.99C1538.75 1406.99 1555.13 1393.93 1560.38 1376.58C1563.38 1367.12 1565.49 1357.41 1566.68 1347.56C1566.68 1347.56 1536.31 1357.68 1528.58 1366.8C1520.86 1375.91 1507.83 1402.37 1507.83 1402.37C1507.83 1402.37 1520.86 1375.91 1505.65 1360.37C1490.44 1344.83 1477.63 1332.73 1477.63 1332.73C1477.63 1332.73 1464.82 1351.34 1462.18 1366.33C1459.53 1381.33 1478.77 1408.09 1478.77 1408.09L1461.63 1399.1L1460.96 1425.43Z" fill="#92E3A9"/>
<path opacity="0.3" d="M1460.96 1425.43C1460.96 1425.43 1464.91 1412.46 1437.27 1397C1426.16 1390.4 1414.72 1384.39 1402.99 1378.98C1402.99 1378.98 1409.5 1398.43 1423.78 1408.76C1438.06 1419.09 1444.16 1423.8 1444.16 1423.8C1432.62 1418.17 1420.05 1414.98 1407.23 1414.43C1395.67 1414.12 1384.28 1417.34 1374.6 1423.67C1386.64 1430.01 1399.05 1435.62 1411.77 1440.47C1426.93 1445.82 1442.87 1448.65 1458.94 1448.87C1458.94 1448.87 1422.9 1444.67 1415.84 1451.69C1409.26 1459.36 1403.42 1467.65 1398.41 1476.43C1413.27 1475.17 1428.22 1475.24 1443.06 1476.64C1462.18 1479.16 1487.46 1469.54 1487.46 1469.54L1509.05 1480.25L1518.13 1466.77C1518.13 1466.77 1523.21 1466.3 1540.39 1475.17C1556.24 1482.58 1572.59 1488.87 1589.32 1493.99L1557.19 1452.78L1589.66 1460.42C1605.91 1464.25 1632.08 1459.79 1632.08 1459.79C1632.08 1459.79 1629.61 1451.6 1611.8 1444.76C1593.99 1437.91 1559.96 1427.24 1559.96 1427.24C1559.96 1427.24 1587.98 1433.16 1606.59 1420.98C1617.97 1413.45 1628.24 1404.38 1637.12 1394.02C1637.12 1394.02 1610.58 1378.39 1585.54 1383.85C1568.53 1388.29 1552.6 1396.17 1538.75 1406.99C1538.75 1406.99 1555.13 1393.93 1560.38 1376.58C1563.38 1367.12 1565.49 1357.41 1566.68 1347.56C1566.68 1347.56 1536.31 1357.68 1528.58 1366.8C1520.86 1375.91 1507.83 1402.37 1507.83 1402.37C1507.83 1402.37 1520.86 1375.91 1505.65 1360.37C1490.44 1344.83 1477.63 1332.73 1477.63 1332.73C1477.63 1332.73 1464.82 1351.34 1462.18 1366.33C1459.53 1381.33 1478.77 1408.09 1478.77 1408.09L1461.63 1399.1L1460.96 1425.43Z" fill="white"/>
<path d="M752.761 885.172C752.761 885.172 725.668 863.455 718.695 849.468C712.814 837.581 708.53 820.779 714.495 808.135C715.787 805.123 717.708 802.42 720.128 800.209C722.548 797.997 725.411 796.327 728.528 795.309C731.644 794.291 734.942 793.95 738.201 794.307C741.459 794.665 744.604 795.713 747.426 797.382C764.228 807.925 765.908 843.881 761.666 861.187C761.414 862.699 753.055 885.424 752.761 885.172Z" fill="#92E3A9"/>
<path d="M1003.36 1066.34C1002.23 1067.39 982.904 1081.63 982.778 1081.29C982.652 1080.95 971.983 1047.94 973.789 1032.4C975.301 1019.16 980.846 1002.74 992.817 995.6C995.575 993.828 998.68 992.664 1001.92 992.186C1005.17 991.709 1008.48 991.928 1011.63 992.831C1014.78 993.733 1017.71 995.297 1020.21 997.419C1022.7 999.541 1024.72 1002.17 1026.13 1005.14C1034.32 1023.37 1016.3 1054.36 1003.36 1066.34Z" fill="#92E3A9"/>
<path d="M435.416 918.144C435.416 918.144 534.631 1022.23 534.127 1150.09C533.623 1277.95 433.316 1381.12 433.316 1381.12C433.316 1381.12 334.102 1277.03 334.648 1149.17C335.194 1021.31 435.416 918.144 435.416 918.144Z" fill="#92E3A9"/>
<path d="M576.888 1226.67C575.576 1225.24 574.382 1223.71 573.317 1222.09C566.093 1210.96 559.918 1194.79 564.58 1181.47C565.522 1178.33 567.122 1175.42 569.272 1172.95C571.423 1170.47 574.076 1168.48 577.055 1167.1C580.034 1165.73 583.271 1165 586.552 1164.97C589.832 1164.95 593.082 1165.62 596.084 1166.94C609.567 1173.41 616.162 1195.38 617.59 1213.35C622.967 1212.09 627.797 1211.13 631.956 1210.41C633.762 1206.21 635.526 1202.26 637.332 1198.11C639.138 1193.95 640.693 1189.7 642.415 1185.29C644.767 1178.91 646.909 1172.19 649.052 1165.51C641.197 1161.94 618.346 1151.06 609.819 1141.48C601.292 1131.91 592.555 1116.53 595.16 1102.71C595.62 1099.46 596.765 1096.34 598.518 1093.56C600.271 1090.78 602.593 1088.4 605.331 1086.59C608.069 1084.77 611.161 1083.55 614.404 1083.02C617.646 1082.48 620.965 1082.64 624.143 1083.48C642.961 1089.19 654.05 1123.42 654.428 1141.23C654.428 1141.82 654.134 1145.43 653.756 1150.05C655.646 1143.46 657.578 1136.9 659.259 1130.14C664.131 1110.99 668.458 1091.33 672.91 1071.67C673.834 1067.47 674.8 1063.48 675.766 1059.41C669.13 1056.42 644.263 1044.87 635.358 1034.88C626.453 1024.88 618.052 1009.93 620.656 996.064C621.122 992.813 622.271 989.699 624.026 986.924C625.782 984.149 628.104 981.777 630.842 979.964C633.579 978.151 636.67 976.938 639.909 976.404C643.149 975.87 646.465 976.028 649.64 976.868C668.5 982.538 679.547 1016.77 679.967 1034.58C679.967 1035.25 679.589 1039.75 679.127 1044.79C681.689 1034.12 684.377 1023.53 687.528 1013.12C692.549 995.216 698.736 977.663 706.052 960.57C703.699 959.562 674.296 946.582 664.383 935.367C655.604 925.496 647.119 910.416 649.682 896.597C650.148 893.341 651.297 890.221 653.055 887.441C654.812 884.662 657.138 882.285 659.879 880.468C662.621 878.651 665.715 877.435 668.96 876.899C672.205 876.363 675.527 876.52 678.707 877.359C697.525 883.071 708.614 917.305 708.992 935.115C708.992 936.375 707.564 952.673 706.85 958.47L707.102 957.882C714.674 941.301 723.713 925.43 734.111 910.458C743.277 897.049 753.222 884.187 763.892 871.94C773.679 860.515 783.34 850.644 791.909 841.949C796.613 837.329 800.982 833.128 805.098 829.348H804.678C804.342 829.348 813.877 807.085 814.633 805.741C823.454 790.284 849.371 765.753 868.567 769.995C871.762 770.826 874.748 772.315 877.334 774.367C879.919 776.419 882.048 778.988 883.582 781.911C885.116 784.834 886.023 788.045 886.244 791.338C886.465 794.632 885.995 797.935 884.865 801.037C880.664 814.436 865.963 823.467 853.614 827.794C841.264 832.12 813.163 830.104 806.274 829.474C802.074 833.674 797.621 837.875 792.833 842.957C784.432 851.778 775.023 861.859 765.53 873.452C763.01 876.561 760.405 880.005 757.843 883.282C763.304 878.661 770.907 872.444 771.705 871.94C786.532 862.363 820.682 852.702 835.804 865.472C838.263 867.68 840.237 870.376 841.6 873.388C842.963 876.4 843.685 879.662 843.721 882.967C843.756 886.273 843.104 889.55 841.807 892.59C840.509 895.631 838.593 898.368 836.182 900.629C826.311 910.542 809.257 911.719 796.277 909.786C783.298 907.854 758.473 892.397 753.307 888.994C747.72 896.303 742.134 903.99 736.757 912.349C726.816 927.366 718.227 943.236 711.092 959.772C710.672 960.738 710.378 961.746 710 962.712C712.31 959.982 726.088 945.91 727.18 944.944C740.873 933.771 773.763 920.372 790.187 931.377C792.872 933.305 795.127 935.77 796.809 938.615C798.491 941.46 799.564 944.624 799.959 947.906C800.354 951.188 800.062 954.516 799.103 957.68C798.144 960.843 796.538 963.773 794.387 966.282C785.65 977.204 768.806 980.27 755.701 979.808C740.621 979.262 710.882 964.014 709.79 963.426C703.099 980.117 697.487 997.22 692.988 1014.63C689.586 1027.53 686.688 1040.71 683.873 1053.99C686.982 1050.46 699.793 1037.19 700.675 1036.47C714.369 1025.3 747.258 1011.9 763.682 1022.9C766.367 1024.83 768.622 1027.3 770.304 1030.14C771.986 1032.99 773.059 1036.15 773.454 1039.43C773.849 1042.72 773.558 1046.04 772.598 1049.21C771.639 1052.37 770.033 1055.3 767.882 1057.81C759.145 1068.73 742.302 1071.84 729.238 1071.34C714.495 1070.79 685.931 1056.3 683.537 1055.08C682.235 1061.09 680.975 1067.14 679.715 1073.18C675.514 1092.93 671.776 1112.71 667.113 1131.99C665.559 1138.71 663.795 1145.26 662.031 1151.9C666.861 1146.78 675.766 1137.62 676.648 1136.95C690.3 1125.77 723.231 1112.37 739.655 1123.34C742.342 1125.27 744.597 1127.74 746.28 1130.59C747.963 1133.44 749.035 1136.6 749.43 1139.89C749.825 1143.17 749.533 1146.51 748.574 1149.67C747.614 1152.84 746.008 1155.77 743.856 1158.29C735.077 1169.21 718.275 1172.27 705.17 1171.81C692.064 1171.35 667.743 1159.67 660.939 1156.27C657.956 1167.23 654.764 1178.03 651.11 1188.53C649.472 1192.98 648.043 1197.69 646.195 1201.89L643.423 1208.61C645.859 1208.31 647.245 1208.23 647.245 1208.23C647.245 1208.23 647.497 1214.45 646.909 1224.61C661.359 1214.15 682.151 1205.16 695.719 1211.46C698.66 1212.97 701.255 1215.08 703.34 1217.64C705.425 1220.21 706.954 1223.18 707.831 1226.36C708.708 1229.55 708.913 1232.88 708.433 1236.15C707.953 1239.42 706.799 1242.56 705.043 1245.36C704.158 1246.85 703.147 1248.25 702.019 1249.56C699.473 1264.98 693.056 1279.51 683.369 1291.78C682.613 1292.66 672.826 1301.86 667.701 1306.44C672.658 1303.7 677.573 1301.02 682.655 1298.03C690.048 1293.83 697.693 1289.26 705.128 1284.8L716.595 1277.37C720.501 1274.93 723.988 1272.12 727.768 1269.47C733.229 1265.48 738.647 1261.07 744.066 1256.87C739.445 1249.52 726.298 1227.47 724.366 1214.87C722.433 1202.26 723.484 1184.33 733.187 1174.25C735.365 1171.8 738.041 1169.84 741.035 1168.51C744.029 1167.18 747.273 1166.51 750.55 1166.53C753.826 1166.56 757.06 1167.28 760.034 1168.65C763.009 1170.03 765.656 1172.02 767.798 1174.5C780.4 1189.79 771.075 1224.53 761.708 1239.65C761.414 1240.11 759.103 1243.09 756.331 1246.62C761.498 1242.17 766.664 1237.76 771.747 1233.1C786.196 1219.82 800.478 1205.88 814.885 1191.97L823.916 1183.32C820.01 1177.15 805.518 1153.58 803.544 1140.22C801.57 1126.87 802.662 1109.69 812.323 1099.6C814.501 1097.16 817.177 1095.2 820.171 1093.87C823.166 1092.54 826.41 1091.87 829.686 1091.89C832.963 1091.91 836.196 1092.64 839.171 1094.01C842.145 1095.38 844.792 1097.38 846.935 1099.86C859.536 1115.15 850.211 1149.88 840.886 1165.01C840.55 1165.55 837.778 1169.21 834.669 1173.03C842.608 1165.59 850.589 1158.24 858.738 1151.23C872.625 1139.05 887.318 1127.82 902.717 1117.62C901.289 1115.44 883.773 1088.22 881.715 1073.31C879.74 1060.16 880.832 1042.81 890.494 1032.73C892.669 1030.28 895.342 1028.33 898.335 1026.99C901.327 1025.66 904.57 1024.98 907.847 1025C911.123 1025.02 914.358 1025.74 917.334 1027.11C920.31 1028.48 922.96 1030.47 925.105 1032.94C937.707 1048.28 928.382 1083.01 919.057 1098.09C918.385 1099.18 908.303 1111.95 904.565 1116.41L905.111 1116.03C920.438 1106.46 936.59 1098.28 953.374 1091.58C968.25 1085.7 983.453 1080.68 998.907 1076.54C1013.31 1072.34 1026.67 1069.66 1038.56 1067.26C1044.99 1066 1050.91 1064.95 1056.45 1064.07L1056.12 1063.82C1055.82 1063.56 1075.86 1050.38 1077.12 1049.7C1092.87 1041.76 1127.82 1035.8 1141.51 1050.12C1143.74 1052.57 1145.42 1055.45 1146.47 1058.59C1147.52 1061.72 1147.9 1065.04 1147.6 1068.33C1147.3 1071.62 1146.31 1074.81 1144.7 1077.7C1143.1 1080.59 1140.91 1083.12 1138.28 1085.11C1127.4 1093.89 1110.35 1093.26 1097.66 1089.94C1084.97 1086.63 1062.67 1069.19 1057.25 1064.74C1051.54 1065.79 1045.45 1066.97 1038.73 1068.44C1026.92 1071.08 1013.52 1074.19 999.411 1078.56C995.631 1079.74 991.598 1081.12 987.65 1082.42C994.749 1081.67 1004.45 1080.74 1005.42 1080.74C1022.93 1081.08 1056.66 1092.17 1062.38 1111.28C1063.22 1114.45 1063.39 1117.76 1062.89 1121C1062.38 1124.24 1061.21 1127.34 1059.44 1130.11C1057.68 1132.87 1055.36 1135.24 1052.63 1137.06C1049.9 1138.88 1046.83 1140.11 1043.6 1140.69C1029.99 1143.37 1015.12 1134.8 1005.33 1125.9C995.547 1116.99 983.324 1090.28 980.803 1084.48C972.15 1087.47 963.329 1090.74 954.298 1094.69C937.859 1101.65 922.084 1110.08 907.169 1119.89C906.287 1120.48 905.489 1121.15 904.607 1121.74C908.051 1120.78 927.247 1116.66 928.634 1116.53C946.108 1114.89 980.803 1122.16 988.532 1140.56C989.744 1143.63 990.302 1146.92 990.169 1150.22C990.036 1153.51 989.216 1156.75 987.76 1159.71C986.305 1162.67 984.247 1165.3 981.718 1167.42C979.189 1169.54 976.245 1171.1 973.074 1172.02C959.843 1176.22 944.133 1169.37 933.464 1161.6C921.199 1152.7 904.649 1123.3 904.061 1122.16C889.431 1132.37 875.471 1143.51 862.266 1155.51C852.437 1164.33 842.86 1173.7 833.325 1183.19C837.82 1182.02 855.672 1178.24 856.974 1178.11C874.448 1176.47 909.186 1183.74 916.872 1202.1C918.085 1205.17 918.642 1208.45 918.509 1211.75C918.376 1215.05 917.556 1218.28 916.101 1221.24C914.645 1224.21 912.587 1226.83 910.058 1228.95C907.529 1231.07 904.585 1232.64 901.415 1233.56C888.183 1237.76 872.474 1230.91 861.846 1223.18C849.833 1214.45 833.871 1186.34 832.443 1183.99L819.464 1196.93C805.434 1211.17 791.363 1225.49 777.081 1239.19C772.167 1243.93 767.126 1248.43 762.086 1252.92C768.848 1251.37 781.282 1248.72 782.374 1248.72C799.848 1247.08 834.543 1254.35 842.272 1272.75C843.485 1275.82 844.042 1279.11 843.909 1282.4C843.776 1285.7 842.956 1288.93 841.501 1291.9C840.045 1294.86 837.987 1297.48 835.458 1299.6C832.929 1301.72 829.985 1303.29 826.815 1304.21C813.583 1308.41 797.874 1301.56 787.204 1293.79C776.535 1286.02 762.59 1262.71 758.725 1255.99C750.324 1263.46 741.924 1270.65 733.061 1277.37C729.238 1280.14 725.5 1283.25 721.677 1285.77L710.42 1293.46C702.523 1298.41 695.214 1303.03 687.738 1307.49C683.999 1309.75 680.387 1311.69 676.732 1313.95C683.369 1311.31 693.954 1307.32 694.962 1307.07C712.016 1302.86 747.384 1304.59 757.759 1321.56C759.435 1324.42 760.492 1327.6 760.864 1330.9C761.235 1334.2 760.911 1337.54 759.914 1340.7C758.917 1343.87 757.269 1346.79 755.074 1349.28C752.88 1351.77 750.189 1353.77 747.174 1355.16C734.573 1361.34 718.191 1356.97 706.472 1350.96C693.576 1344.32 674.212 1319.92 671.818 1316.94C662.829 1322.14 654.008 1327.14 645.649 1331.68C623.387 1343.78 603.939 1353.44 588.859 1360.66C539.84 1403.72 470.868 1408.46 470.868 1408.46C470.868 1408.46 467.256 1324.46 515.897 1269.26C532.834 1250.74 553.663 1236.19 576.888 1226.67V1226.67ZM664.383 1308.54C662.871 1305.09 651.11 1278.42 650.312 1263.38C647.581 1262.88 644.851 1262.29 642.205 1261.66C637.233 1288.13 626.867 1313.29 611.751 1335.59C620.656 1331.39 630.317 1326.51 640.567 1321.22C648.169 1317.31 656.192 1313.03 664.383 1308.54Z" fill="#92E3A9"/>
<path d="M215.481 1210.62C215.481 1210.62 298.104 1213.19 348.719 1266.62C399.335 1320.04 398.663 1404.05 398.663 1404.05C398.663 1404.05 316.04 1401.49 265.424 1348.06C214.809 1294.63 215.481 1210.62 215.481 1210.62Z" fill="#92E3A9"/>
<g opacity="0.5">
<path opacity="0.5" d="M752.761 885.17C752.761 885.17 725.668 863.453 718.695 849.466C712.814 837.579 708.53 820.777 714.495 808.133C715.787 805.121 717.708 802.419 720.128 800.207C722.548 797.995 725.411 796.325 728.528 795.307C731.644 794.289 734.942 793.948 738.201 794.306C741.459 794.663 744.604 795.711 747.426 797.38C764.228 807.923 765.908 843.879 761.666 861.185C761.414 862.697 753.055 885.422 752.761 885.17Z" fill="white"/>
<path opacity="0.5" d="M1003.36 1066.33C1002.23 1067.39 982.904 1081.62 982.778 1081.29C982.652 1080.95 971.983 1047.94 973.789 1032.4C975.301 1019.16 980.846 1002.74 992.817 995.599C995.575 993.827 998.68 992.663 1001.92 992.185C1005.17 991.708 1008.48 991.928 1011.63 992.83C1014.78 993.732 1017.71 995.297 1020.2 997.418C1022.7 999.54 1024.72 1002.17 1026.13 1005.13C1034.32 1023.36 1016.3 1054.36 1003.36 1066.33Z" fill="white"/>
<path opacity="0.5" d="M435.416 918.143C435.416 918.143 534.631 1022.23 534.127 1150.09C533.623 1277.95 433.316 1381.12 433.316 1381.12C433.316 1381.12 334.102 1277.03 334.648 1149.17C335.194 1021.31 435.416 918.143 435.416 918.143Z" fill="white"/>
<path opacity="0.5" d="M576.888 1226.67C575.576 1225.24 574.382 1223.71 573.317 1222.09C566.093 1210.96 559.918 1194.79 564.58 1181.47C565.522 1178.33 567.122 1175.42 569.272 1172.94C571.423 1170.47 574.076 1168.47 577.055 1167.1C580.034 1165.73 583.271 1165 586.552 1164.97C589.832 1164.94 593.082 1165.61 596.084 1166.94C609.567 1173.4 616.162 1195.37 617.59 1213.35C622.967 1212.09 627.797 1211.12 631.956 1210.41C633.762 1206.21 635.526 1202.26 637.332 1198.1C639.138 1193.95 640.693 1189.7 642.415 1185.29C644.767 1178.91 646.909 1172.19 649.052 1165.51C641.197 1161.94 618.346 1151.06 609.819 1141.48C601.292 1131.9 592.555 1116.53 595.16 1102.71C595.62 1099.46 596.765 1096.34 598.518 1093.56C600.271 1090.78 602.593 1088.4 605.331 1086.58C608.069 1084.77 611.161 1083.55 614.404 1083.01C617.646 1082.48 620.965 1082.63 624.143 1083.47C642.961 1089.19 654.05 1123.42 654.428 1141.23C654.428 1141.82 654.134 1145.43 653.756 1150.05C655.646 1143.46 657.578 1136.9 659.259 1130.14C664.131 1110.99 668.458 1091.33 672.91 1071.67C673.834 1067.47 674.8 1063.48 675.766 1059.4C669.13 1056.42 644.263 1044.87 635.358 1034.87C626.453 1024.88 618.052 1009.92 620.656 996.062C621.122 992.812 622.271 989.697 624.026 986.922C625.782 984.147 628.104 981.775 630.842 979.962C633.579 978.149 636.67 976.936 639.909 976.402C643.149 975.868 646.465 976.026 649.64 976.866C668.5 982.536 679.547 1016.77 679.967 1034.58C679.967 1035.25 679.589 1039.75 679.127 1044.79C681.689 1034.12 684.377 1023.53 687.528 1013.12C692.549 995.214 698.736 977.661 706.052 960.568C703.699 959.56 674.296 946.58 664.383 935.365C655.604 925.494 647.119 910.414 649.682 896.595C650.148 893.339 651.297 890.219 653.055 887.439C654.812 884.66 657.138 882.283 659.879 880.466C662.621 878.649 665.715 877.433 668.96 876.897C672.205 876.361 675.527 876.518 678.707 877.357C697.525 883.07 708.614 917.303 708.992 935.113C708.992 936.373 707.564 952.671 706.85 958.468L707.102 957.88C714.674 941.299 723.713 925.428 734.111 910.457C743.277 897.047 753.222 884.186 763.892 871.938C773.679 860.513 783.34 850.642 791.909 841.947C796.613 837.327 800.982 833.126 805.098 829.346H804.678C804.342 829.346 813.877 807.083 814.633 805.739C823.454 790.282 849.371 765.751 868.567 769.993C871.762 770.824 874.748 772.313 877.334 774.365C879.919 776.417 882.048 778.987 883.582 781.909C885.116 784.832 886.023 788.043 886.244 791.336C886.465 794.63 885.995 797.933 884.865 801.035C880.664 814.434 865.963 823.465 853.614 827.792C841.264 832.118 813.163 830.102 806.274 829.472C802.074 833.672 797.621 837.873 792.833 842.955C784.432 851.776 775.023 861.857 765.53 873.451C763.01 876.559 760.405 880.003 757.843 883.28C763.304 878.659 770.907 872.442 771.705 871.938C786.532 862.361 820.682 852.7 835.804 865.47C838.263 867.678 840.237 870.374 841.6 873.386C842.963 876.398 843.685 879.66 843.721 882.965C843.756 886.271 843.104 889.548 841.807 892.588C840.509 895.629 838.593 898.366 836.182 900.627C826.311 910.541 809.257 911.717 796.277 909.784C783.298 907.852 758.473 892.395 753.307 888.992C747.72 896.301 742.134 903.988 736.757 912.347C726.816 927.364 718.227 943.234 711.092 959.77C710.672 960.736 710.378 961.744 710 962.71C712.31 959.98 726.088 945.908 727.18 944.942C740.873 933.769 773.763 920.37 790.187 931.375C792.872 933.303 795.127 935.768 796.809 938.613C798.491 941.459 799.564 944.623 799.959 947.904C800.354 951.186 800.062 954.514 799.103 957.678C798.144 960.841 796.538 963.771 794.387 966.28C785.65 977.202 768.806 980.268 755.701 979.806C740.621 979.26 710.882 964.012 709.79 963.424C703.099 980.115 697.487 997.218 692.988 1014.63C689.586 1027.52 686.688 1040.71 683.873 1053.99C686.982 1050.46 699.793 1037.18 700.675 1036.47C714.369 1025.3 747.258 1011.9 763.682 1022.9C766.367 1024.83 768.622 1027.3 770.304 1030.14C771.986 1032.99 773.059 1036.15 773.454 1039.43C773.849 1042.71 773.558 1046.04 772.598 1049.21C771.639 1052.37 770.033 1055.3 767.882 1057.81C759.145 1068.73 742.302 1071.84 729.238 1071.33C714.495 1070.79 685.931 1056.3 683.537 1055.08C682.235 1061.08 680.975 1067.13 679.715 1073.18C675.514 1092.92 671.776 1112.71 667.113 1131.99C665.559 1138.71 663.795 1145.26 662.031 1151.9C666.861 1146.77 675.766 1137.62 676.648 1136.94C690.3 1125.77 723.231 1112.37 739.655 1123.34C742.342 1125.27 744.597 1127.74 746.28 1130.59C747.963 1133.43 749.035 1136.6 749.43 1139.89C749.825 1143.17 749.533 1146.5 748.574 1149.67C747.614 1152.84 746.008 1155.77 743.856 1158.28C735.077 1169.2 718.275 1172.27 705.17 1171.81C692.064 1171.35 667.743 1159.67 660.939 1156.27C657.956 1167.23 654.764 1178.03 651.11 1188.53C649.472 1192.98 648.043 1197.68 646.195 1201.88L643.423 1208.6C645.859 1208.31 647.245 1208.23 647.245 1208.23C647.245 1208.23 647.497 1214.44 646.909 1224.61C661.359 1214.15 682.151 1205.16 695.719 1211.46C698.66 1212.97 701.255 1215.07 703.34 1217.64C705.425 1220.2 706.954 1223.17 707.831 1226.36C708.708 1229.55 708.913 1232.88 708.433 1236.15C707.953 1239.42 706.799 1242.56 705.043 1245.36C704.158 1246.84 703.147 1248.25 702.019 1249.56C699.473 1264.98 693.056 1279.51 683.369 1291.77C682.613 1292.66 672.826 1301.85 667.701 1306.43C672.658 1303.7 677.573 1301.01 682.655 1298.03C690.048 1293.83 697.693 1289.25 705.128 1284.8L716.595 1277.37C720.501 1274.93 723.988 1272.12 727.768 1269.47C733.229 1265.48 738.647 1261.07 744.066 1256.87C739.445 1249.52 726.298 1227.46 724.366 1214.86C722.433 1202.26 723.484 1184.33 733.187 1174.24C735.365 1171.8 738.041 1169.84 741.035 1168.51C744.029 1167.18 747.273 1166.51 750.55 1166.53C753.826 1166.55 757.06 1167.28 760.034 1168.65C763.009 1170.02 765.656 1172.02 767.798 1174.5C780.4 1189.79 771.075 1224.52 761.708 1239.65C761.414 1240.11 759.103 1243.09 756.331 1246.62C761.498 1242.17 766.664 1237.76 771.747 1233.09C786.196 1219.82 800.478 1205.87 814.885 1191.97L823.916 1183.32C820.01 1177.14 805.518 1153.58 803.544 1140.22C801.57 1126.86 802.662 1109.68 812.323 1099.6C814.501 1097.16 817.177 1095.2 820.171 1093.87C823.166 1092.54 826.41 1091.86 829.686 1091.89C832.963 1091.91 836.196 1092.63 839.171 1094.01C842.145 1095.38 844.792 1097.38 846.935 1099.85C859.536 1115.14 850.211 1149.88 840.886 1165C840.55 1165.55 837.778 1169.2 834.669 1173.03C842.608 1165.59 850.589 1158.24 858.738 1151.23C872.625 1139.05 887.318 1127.82 902.717 1117.62C901.289 1115.44 883.773 1088.22 881.715 1073.31C879.74 1060.16 880.832 1042.81 890.494 1032.73C892.669 1030.28 895.342 1028.32 898.335 1026.99C901.327 1025.66 904.57 1024.98 907.847 1025C911.123 1025.02 914.358 1025.73 917.334 1027.1C920.31 1028.48 922.96 1030.47 925.105 1032.94C937.707 1048.27 928.382 1083.01 919.057 1098.09C918.385 1099.18 908.303 1111.95 904.565 1116.4L905.111 1116.03C920.438 1106.46 936.59 1098.27 953.374 1091.58C968.25 1085.7 983.453 1080.67 998.907 1076.54C1013.31 1072.34 1026.67 1069.65 1038.56 1067.26C1044.99 1066 1050.91 1064.95 1056.45 1064.07L1056.12 1063.82C1055.82 1063.56 1075.86 1050.37 1077.12 1049.7C1092.87 1041.76 1127.82 1035.8 1141.51 1050.12C1143.74 1052.57 1145.42 1055.45 1146.47 1058.58C1147.52 1061.72 1147.9 1065.04 1147.6 1068.33C1147.3 1071.62 1146.31 1074.81 1144.7 1077.7C1143.1 1080.59 1140.91 1083.11 1138.28 1085.11C1127.4 1093.89 1110.35 1093.26 1097.66 1089.94C1084.97 1086.62 1062.67 1069.19 1057.25 1064.74C1051.54 1065.79 1045.45 1066.97 1038.73 1068.44C1026.92 1071.08 1013.52 1074.19 999.411 1078.56C995.631 1079.73 991.598 1081.12 987.65 1082.42C994.749 1081.67 1004.45 1080.74 1005.42 1080.74C1022.93 1081.08 1056.66 1092.17 1062.38 1111.28C1063.22 1114.45 1063.39 1117.76 1062.89 1121C1062.38 1124.24 1061.21 1127.34 1059.44 1130.1C1057.68 1132.87 1055.36 1135.24 1052.63 1137.06C1049.9 1138.88 1046.83 1140.11 1043.6 1140.68C1029.99 1143.37 1015.12 1134.8 1005.33 1125.9C995.547 1116.99 983.324 1090.28 980.803 1084.48C972.15 1087.46 963.329 1090.74 954.298 1094.69C937.859 1101.65 922.084 1110.08 907.169 1119.89C906.287 1120.48 905.489 1121.15 904.607 1121.74C908.051 1120.77 927.247 1116.66 928.634 1116.53C946.108 1114.89 980.803 1122.16 988.532 1140.56C989.744 1143.63 990.302 1146.92 990.169 1150.21C990.036 1153.51 989.216 1156.74 987.76 1159.71C986.305 1162.67 984.247 1165.29 981.718 1167.41C979.189 1169.53 976.245 1171.1 973.074 1172.02C959.843 1176.22 944.133 1169.37 933.464 1161.6C921.199 1152.7 904.649 1123.29 904.061 1122.16C889.431 1132.37 875.471 1143.51 862.266 1155.51C852.437 1164.33 842.86 1173.7 833.325 1183.19C837.82 1182.02 855.672 1178.24 856.974 1178.11C874.448 1176.47 909.186 1183.74 916.872 1202.09C918.085 1205.16 918.642 1208.45 918.509 1211.75C918.376 1215.05 917.556 1218.28 916.101 1221.24C914.645 1224.2 912.587 1226.83 910.058 1228.95C907.529 1231.07 904.585 1232.64 901.415 1233.56C888.183 1237.76 872.474 1230.91 861.846 1223.18C849.833 1214.44 833.871 1186.34 832.443 1183.99L819.464 1196.93C805.434 1211.17 791.363 1225.49 777.081 1239.18C772.167 1243.93 767.126 1248.42 762.086 1252.92C768.848 1251.37 781.282 1248.72 782.374 1248.72C799.848 1247.08 834.543 1254.35 842.272 1272.75C843.485 1275.82 844.042 1279.1 843.909 1282.4C843.776 1285.7 842.956 1288.93 841.501 1291.89C840.045 1294.86 837.987 1297.48 835.458 1299.6C832.929 1301.72 829.985 1303.29 826.815 1304.21C813.583 1308.41 797.874 1301.56 787.204 1293.79C776.535 1286.02 762.59 1262.71 758.725 1255.99C750.324 1263.46 741.924 1270.65 733.061 1277.37C729.238 1280.14 725.5 1283.25 721.677 1285.77L710.42 1293.45C702.523 1298.41 695.214 1303.03 687.738 1307.48C683.999 1309.75 680.387 1311.68 676.732 1313.95C683.369 1311.31 693.954 1307.32 694.962 1307.06C712.016 1302.86 747.384 1304.59 757.759 1321.55C759.435 1324.42 760.492 1327.6 760.864 1330.9C761.235 1334.2 760.911 1337.54 759.914 1340.7C758.917 1343.87 757.269 1346.79 755.074 1349.28C752.88 1351.77 750.189 1353.77 747.174 1355.16C734.573 1361.33 718.191 1356.96 706.472 1350.96C693.576 1344.32 674.212 1319.92 671.818 1316.93C662.829 1322.14 654.008 1327.14 645.649 1331.68C623.387 1343.78 603.939 1353.44 588.859 1360.66C539.84 1403.72 470.868 1408.46 470.868 1408.46C470.868 1408.46 467.256 1324.45 515.897 1269.26C532.834 1250.73 553.663 1236.19 576.888 1226.67V1226.67ZM664.383 1308.53C662.871 1305.09 651.11 1278.42 650.312 1263.38C647.581 1262.87 644.851 1262.29 642.205 1261.66C637.233 1288.13 626.867 1313.29 611.751 1335.58C620.656 1331.38 630.317 1326.51 640.567 1321.22C648.169 1317.31 656.192 1313.03 664.383 1308.53Z" fill="white"/>
<path opacity="0.5" d="M215.481 1210.62C215.481 1210.62 298.104 1213.18 348.719 1266.61C399.335 1320.04 398.663 1404.05 398.663 1404.05C398.663 1404.05 316.04 1401.49 265.424 1348.06C214.809 1294.63 215.481 1210.62 215.481 1210.62Z" fill="white"/>
</g>
<g opacity="0.2">
<path opacity="0.2" d="M431.342 1264.72L350.147 1190.54L353.634 1186.6L431.384 1257.67L431.804 1160.43L431.384 1160.72L362.707 1058.69L366.991 1055.71L431.846 1152.03L432.812 918.145H438.021L437.349 1076.92L489.014 1031.47L492.459 1035.46L437.307 1083.94L436.845 1197.47L515.183 1127.03L518.628 1130.98L436.803 1204.53L436.383 1307.9L495.231 1260.94L498.465 1265.1L436.341 1314.67L436.047 1381.2L430.838 1381.16L431.342 1264.72Z" fill="black"/>
<path opacity="0.2" d="M506.11 1293.37L511.277 1292.74L517.829 1351.51L552.693 1311.9H552.651L561.472 1240.78L566.639 1241.45L558.742 1305.05L645.355 1206.63L649.262 1210.16L590.455 1276.95L627.671 1277.41L627.629 1282.7L585.877 1282.16L544.628 1328.99L602.847 1329.08V1334.37L540.008 1334.28L502.498 1376.88L543.578 1379.4L543.242 1384.65L498.087 1381.92L473.137 1410.27L469.23 1406.74L513.209 1356.8L506.11 1293.37Z" fill="black"/>
<path opacity="0.2" d="M309.949 1314.29L240.852 1300.05L241.902 1294.84L303.732 1307.61L213.591 1212.47L217.329 1208.77L278.488 1273.33L281.722 1235.66L286.889 1236.12L283.276 1278.42L326.163 1323.66L330.573 1264.68L335.782 1265.1L330.993 1328.78L369.974 1369.94L375.518 1328.53L380.643 1329.24L374.594 1374.82L400.553 1402.2L396.814 1405.9L351.071 1357.6L288.317 1360.07L288.107 1354.78L346.241 1352.51L309.991 1314.2L309.949 1314.29Z" fill="black"/>
</g>
<path d="M649.724 1420.69L135 1502.8L1083.29 1667.08L1860 1532.67L649.724 1420.69Z" fill="#92E3A9"/>
<path d="M1472.41 1492.08L1516.2 1521.23L1504.53 1548.23L1565.58 1563.88L1623.26 1524.6L1533.43 1484.8L1472.41 1492.08Z" fill="#263238"/>
<path d="M1565.58 1565.71H1565.14L1504.09 1550.06C1503.83 1549.99 1503.59 1549.88 1503.38 1549.71C1503.18 1549.55 1503.01 1549.34 1502.88 1549.11C1502.77 1548.87 1502.72 1548.6 1502.72 1548.34C1502.72 1548.07 1502.77 1547.81 1502.88 1547.57L1513.86 1521.97L1471.32 1493.62C1471.01 1493.41 1470.77 1493.11 1470.64 1492.77C1470.51 1492.42 1470.49 1492.04 1470.58 1491.68C1470.67 1491.32 1470.86 1490.99 1471.14 1490.75C1471.41 1490.5 1471.75 1490.34 1472.12 1490.29L1533.13 1482.97C1533.44 1482.87 1533.78 1482.87 1534.08 1482.97L1623.92 1522.77C1624.22 1522.9 1624.48 1523.11 1624.67 1523.37C1624.87 1523.64 1624.99 1523.95 1625.02 1524.27C1625.04 1524.6 1624.98 1524.92 1624.84 1525.22C1624.69 1525.51 1624.48 1525.77 1624.21 1525.95L1566.53 1565.2C1566.28 1565.47 1565.94 1565.65 1565.58 1565.71V1565.71ZM1507.05 1546.99L1565.25 1561.91L1619.49 1524.97L1533.1 1486.89L1477.53 1493.47L1517.22 1519.81C1517.57 1520.05 1517.83 1520.4 1517.95 1520.81C1518.07 1521.21 1518.05 1521.65 1517.88 1522.04L1507.05 1546.99Z" fill="#263238"/>
<path d="M393.98 1429.24L1013.69 1471.82C1018.66 1472.15 1023.66 1471.89 1028.57 1471.05L1131.43 1452.76C1140.45 1451.17 1149 1447.59 1156.46 1442.28C1163.92 1436.97 1170.1 1430.05 1174.55 1422.05C1179 1414.04 1181.6 1405.15 1182.17 1396.01C1182.74 1386.87 1181.27 1377.71 1177.85 1369.22L1174.45 1360.8C1170.14 1350.08 1162.89 1340.79 1153.54 1334C1144.2 1327.21 1133.12 1323.18 1121.59 1322.4L421.56 1274.48C398.443 1272.87 397.602 1285.86 385.714 1305.75L366.547 1337.76C359.561 1349.47 356.658 1363.17 358.293 1376.7C359.928 1390.24 366.009 1402.85 375.582 1412.56V1412.56C386.116 1423.24 379.02 1428.36 393.98 1429.24Z" fill="#263238"/>
<path d="M1017.75 1473.79C1016.32 1473.79 1014.89 1473.79 1013.43 1473.79L393.834 1431.07C384.068 1430.41 382.568 1427.93 380.556 1423.28C379.157 1419.7 377.027 1416.45 374.301 1413.73C364.479 1403.76 358.239 1390.81 356.558 1376.91C354.877 1363.01 357.849 1348.95 365.01 1336.92L384.141 1304.88C386.482 1300.96 388.42 1297.27 390.14 1293.9C397.236 1280.3 401.954 1271.3 421.67 1272.65L1121.63 1320.71C1133.49 1321.57 1144.88 1325.73 1154.5 1332.73C1164.12 1339.72 1171.59 1349.27 1176.06 1360.29L1179.42 1368.67C1182.93 1377.42 1184.45 1386.84 1183.86 1396.25C1183.27 1405.66 1180.59 1414.81 1176.01 1423.05C1171.44 1431.3 1165.08 1438.41 1157.41 1443.89C1149.73 1449.36 1140.93 1453.06 1131.65 1454.7L1028.76 1472.99C1025.12 1473.57 1021.43 1473.84 1017.75 1473.79V1473.79ZM417.866 1276.27C403.454 1276.27 399.577 1283.59 393.285 1295.73C391.566 1299.02 389.628 1302.79 387.213 1306.71L368.046 1338.75C361.266 1350.11 358.45 1363.4 360.038 1376.53C361.627 1389.67 367.532 1401.9 376.825 1411.32C379.873 1414.3 382.255 1417.89 383.812 1421.85C385.421 1425.51 386.006 1426.9 394.017 1427.45L1013.69 1469.99C1018.52 1470.32 1023.37 1470.06 1028.14 1469.22L1130.99 1451.12C1139.75 1449.58 1148.05 1446.11 1155.29 1440.95C1162.52 1435.8 1168.52 1429.09 1172.84 1421.33C1177.15 1413.56 1179.68 1404.92 1180.23 1396.05C1180.78 1387.18 1179.34 1378.3 1176.02 1370.06L1172.66 1361.65C1168.44 1351.28 1161.41 1342.3 1152.36 1335.71C1143.32 1329.12 1132.61 1325.2 1121.45 1324.37L421.414 1276.27H417.866Z" fill="#263238"/>
<path d="M1120.28 1349.24L1082.97 1346.68L1082.49 1354C1063.83 1360.18 1047.44 1371.78 1035.39 1387.31C1023.34 1402.85 1016.19 1421.61 1014.84 1441.22C1013.49 1460.83 1018 1480.4 1027.81 1497.44C1037.62 1514.47 1052.27 1528.21 1069.91 1536.89L1069.4 1544.21L1106.71 1546.77C1119.93 1548.14 1133.3 1546.83 1146.01 1542.93C1158.72 1539.02 1170.52 1532.6 1180.69 1524.04C1190.87 1515.48 1199.22 1504.96 1205.24 1493.1C1211.26 1481.24 1214.83 1468.3 1215.74 1455.03C1216.66 1441.76 1214.89 1428.45 1210.54 1415.88C1206.2 1403.31 1199.37 1391.75 1190.46 1381.88C1181.55 1372.01 1170.74 1364.03 1158.69 1358.42C1146.63 1352.82 1133.57 1349.69 1120.28 1349.24V1349.24Z" fill="#263238"/>
<path d="M1113.62 1549.07C1111.28 1549.07 1108.94 1549.07 1106.56 1548.85L1069.29 1546.29C1069.05 1546.28 1068.82 1546.21 1068.6 1546.11C1068.39 1546 1068.2 1545.85 1068.04 1545.67C1067.73 1545.29 1067.56 1544.81 1067.57 1544.32L1068.01 1538.24C1050.3 1529.3 1035.63 1515.33 1025.82 1498.08C1016.01 1480.84 1011.5 1461.09 1012.86 1441.3C1014.22 1421.51 1021.38 1402.55 1033.45 1386.81C1045.53 1371.07 1061.97 1359.24 1080.74 1352.79L1081.17 1346.72C1081.18 1346.48 1081.24 1346.24 1081.34 1346.02C1081.45 1345.8 1081.59 1345.61 1081.78 1345.45C1081.96 1345.29 1082.17 1345.16 1082.4 1345.09C1082.63 1345.01 1082.87 1344.98 1083.11 1345L1120.39 1347.56C1146.42 1349.42 1170.72 1361.29 1188.18 1380.69C1205.65 1400.08 1214.92 1425.49 1214.04 1451.58C1213.16 1477.66 1202.21 1502.39 1183.49 1520.57C1164.76 1538.75 1139.72 1548.97 1113.62 1549.07V1549.07ZM1071.37 1542.74L1106.82 1545.19C1119.81 1546.56 1132.94 1545.3 1145.44 1541.48C1157.93 1537.66 1169.53 1531.35 1179.53 1522.95C1189.54 1514.55 1197.74 1504.21 1203.67 1492.57C1209.59 1480.92 1213.1 1468.2 1214 1455.17C1214.89 1442.13 1213.15 1429.05 1208.88 1416.7C1204.6 1404.36 1197.88 1393 1189.12 1383.31C1180.36 1373.61 1169.74 1365.79 1157.88 1360.29C1146.03 1354.8 1133.19 1351.75 1120.13 1351.33L1084.69 1348.88L1084.32 1354.37C1084.29 1354.73 1084.16 1355.08 1083.93 1355.37C1083.7 1355.65 1083.39 1355.87 1083.04 1355.98C1064.69 1362.03 1048.56 1373.41 1036.71 1388.67C1024.86 1403.93 1017.82 1422.37 1016.5 1441.65C1015.18 1460.93 1019.63 1480.16 1029.28 1496.89C1038.94 1513.63 1053.36 1527.11 1070.71 1535.61C1071.04 1535.78 1071.31 1536.03 1071.5 1536.35C1071.68 1536.67 1071.76 1537.04 1071.74 1537.4L1071.37 1542.74Z" fill="#263238"/>
<path d="M1076.2 1544.53C1130.9 1544.53 1175.25 1500.19 1175.25 1445.48C1175.25 1390.78 1130.9 1346.43 1076.2 1346.43C1021.49 1346.43 977.146 1390.78 977.146 1445.48C977.146 1500.19 1021.49 1544.53 1076.2 1544.53Z" fill="#878787"/>
<path d="M1076.27 1546.37C1073.93 1546.37 1071.63 1546.37 1069.29 1546.15C1042.82 1544.4 1018.1 1532.32 1000.46 1512.53C982.809 1492.73 973.643 1466.79 974.934 1440.31C976.225 1413.82 987.868 1388.89 1007.36 1370.91C1026.85 1352.92 1052.62 1343.31 1079.13 1344.14C1105.64 1344.97 1130.76 1356.18 1149.08 1375.36C1167.4 1394.53 1177.46 1420.14 1177.08 1446.66C1176.71 1473.17 1165.93 1498.48 1147.08 1517.13C1128.22 1535.78 1102.79 1546.28 1076.27 1546.37V1546.37ZM1076.27 1348.29C1050.82 1348.35 1026.4 1358.4 1008.28 1376.28C990.166 1394.16 979.797 1418.44 979.408 1443.89C979.02 1469.34 988.644 1493.93 1006.21 1512.36C1023.77 1530.78 1047.87 1541.57 1073.31 1542.4C1098.75 1543.23 1123.5 1534.03 1142.23 1516.79C1160.96 1499.55 1172.16 1475.64 1173.43 1450.22C1174.7 1424.8 1165.94 1399.89 1149.02 1380.87C1132.11 1361.84 1108.4 1350.23 1083 1348.51C1080.59 1348.37 1078.36 1348.29 1076.13 1348.29H1076.27Z" fill="#263238"/>
<path d="M1095.24 1515C1133.67 1504.52 1156.33 1464.87 1145.86 1426.43C1135.38 1388 1095.73 1365.33 1057.29 1375.81C1018.86 1386.29 996.194 1425.94 1006.67 1464.38C1017.15 1502.81 1056.8 1525.48 1095.24 1515Z" fill="white"/>
<path d="M1076.31 1519.44C1074.59 1519.44 1072.87 1519.44 1071.11 1519.44C1051.8 1518.76 1033.53 1510.53 1020.24 1496.51C1006.94 1482.49 999.678 1463.81 1000.02 1444.49C1000.36 1425.17 1008.27 1406.75 1022.06 1393.21C1035.84 1379.67 1054.39 1372.08 1073.71 1372.08C1093.03 1372.08 1111.58 1379.67 1125.37 1393.21C1139.15 1406.75 1147.07 1425.17 1147.41 1444.49C1147.75 1463.81 1140.49 1482.49 1127.19 1496.51C1113.89 1510.53 1095.62 1518.76 1076.31 1519.44V1519.44ZM1076.09 1375.18C1062.39 1375.2 1049 1379.21 1037.56 1386.74C1026.12 1394.26 1017.12 1404.96 1011.67 1417.53C1006.23 1430.1 1004.57 1443.98 1006.91 1457.47C1009.25 1470.97 1015.47 1483.49 1024.82 1493.49C1034.18 1503.5 1046.25 1510.55 1059.55 1513.79C1072.86 1517.03 1086.82 1516.31 1099.73 1511.73C1112.63 1507.14 1123.91 1498.88 1132.19 1487.97C1140.47 1477.06 1145.38 1463.97 1146.32 1450.31V1450.31C1147.6 1431.71 1141.43 1413.37 1129.19 1399.32C1116.95 1385.26 1099.62 1376.65 1081.03 1375.36C1079.53 1375.25 1077.74 1375.18 1076.09 1375.18Z" fill="#263238"/>
<path d="M1407.96 1369L1370.69 1366.44C1345.02 1365.55 1320.02 1374.67 1300.95 1391.87C1281.88 1409.07 1270.23 1433 1268.46 1458.62C1266.7 1484.24 1274.95 1509.55 1291.49 1529.2C1308.02 1548.85 1331.54 1561.31 1357.08 1563.96L1394.39 1566.52C1407.62 1567.89 1420.99 1566.59 1433.7 1562.68C1446.41 1558.78 1458.2 1552.35 1468.38 1543.79C1478.56 1535.23 1486.9 1524.71 1492.92 1512.85C1498.95 1501 1502.52 1488.05 1503.43 1474.78C1504.34 1461.52 1502.57 1448.2 1498.23 1435.63C1493.89 1423.07 1487.06 1411.5 1478.15 1401.63C1469.24 1391.76 1458.43 1383.78 1446.37 1378.17C1434.32 1372.57 1421.25 1369.45 1407.96 1369V1369Z" fill="#263238"/>
<path d="M1401.41 1568.71C1399.11 1568.71 1396.77 1568.71 1394.43 1568.46L1357.16 1565.9C1343.76 1565.24 1330.64 1561.91 1318.55 1556.12C1306.46 1550.32 1295.65 1542.18 1286.74 1532.15C1277.84 1522.13 1271.02 1510.43 1266.69 1497.75C1262.36 1485.06 1260.6 1471.63 1261.52 1458.26C1262.44 1444.88 1266.02 1431.83 1272.04 1419.85C1278.07 1407.87 1286.42 1397.22 1296.61 1388.51C1306.81 1379.8 1318.63 1373.21 1331.4 1369.12C1344.17 1365.04 1357.63 1363.54 1370.98 1364.72L1408.26 1367.28C1434.13 1369.35 1458.2 1381.31 1475.48 1400.68C1492.76 1420.04 1501.91 1445.32 1501.03 1471.26C1500.15 1497.2 1489.3 1521.8 1470.75 1539.95C1452.2 1558.1 1427.37 1568.4 1401.41 1568.71V1568.71ZM1364 1368.05C1338.86 1368.16 1314.74 1378.01 1296.71 1395.52C1278.68 1413.04 1268.13 1436.85 1267.28 1461.97C1266.43 1487.1 1275.34 1511.57 1292.14 1530.27C1308.95 1548.96 1332.34 1560.42 1357.41 1562.24L1394.68 1564.8C1419.85 1565.62 1444.35 1556.65 1463.04 1539.77C1481.72 1522.9 1493.13 1499.43 1494.86 1474.31C1496.59 1449.19 1488.51 1424.37 1472.31 1405.09C1456.12 1385.81 1433.08 1373.57 1408.04 1370.93L1370.73 1368.37C1368.28 1368.12 1366.04 1368.05 1363.81 1368.05H1364Z" fill="#263238"/>
<path d="M494.753 1306.27L444.86 1302.86L441.971 1344.93C424.684 1380.38 421.876 1421.17 434.143 1458.65L431.253 1500.75L481.146 1504.19C514.834 1506.49 545.158 1463.95 548.925 1409.42C552.693 1354.88 528.405 1308.61 494.753 1306.27Z" fill="#263238"/>
<path d="M483.743 1506.09H481.036L431.107 1502.65C430.628 1502.62 430.183 1502.39 429.869 1502.03C429.554 1501.67 429.394 1501.19 429.425 1500.71L432.278 1458.98C420.05 1421.23 422.867 1380.21 440.142 1344.49L443.032 1302.79C443.071 1302.31 443.294 1301.87 443.653 1301.55C443.826 1301.38 444.034 1301.25 444.262 1301.18C444.49 1301.1 444.732 1301.08 444.97 1301.11L494.863 1304.51C529.502 1306.92 554.558 1354.04 550.754 1409.6C547.023 1463.66 517.285 1506.09 483.743 1506.09ZM433.192 1499.07L481.256 1502.36C513.81 1504.52 543.439 1462.86 547.096 1409.31C550.754 1355.76 527.198 1310.33 494.607 1308.09L446.726 1304.8L443.946 1345.04C443.996 1345.27 443.996 1345.5 443.946 1345.73C426.743 1380.7 423.805 1420.98 435.753 1458.06C435.791 1458.31 435.791 1458.55 435.753 1458.8L433.192 1499.07Z" fill="#263238"/>
<path d="M502.669 1407.59C506.504 1352.81 482.248 1306.48 448.491 1304.12C414.734 1301.75 384.26 1344.25 380.425 1399.04C376.59 1453.82 400.846 1500.15 434.603 1502.51C468.36 1504.88 498.834 1462.38 502.669 1407.59Z" fill="#878787"/>
<path d="M433.924 1502.69C432.972 1502.69 432.058 1502.69 431.107 1502.69C396.504 1500.31 371.411 1453.16 375.252 1397.6C377.081 1370.83 385.238 1346.1 398.26 1327.92C411.282 1309.74 427.998 1299.97 444.97 1301.14C461.942 1302.31 477.049 1313.98 487.584 1334.06C498.118 1354.15 502.69 1379.46 500.862 1406.23C499.033 1433.01 490.839 1457.63 477.854 1475.91C465.381 1493.22 449.872 1502.69 433.924 1502.69ZM442.19 1304.58C427.559 1304.58 412.928 1313.51 401.223 1329.93C388.603 1347.56 380.702 1371.63 378.91 1397.75C375.252 1451.3 398.772 1496.69 431.363 1498.92C446.982 1499.98 462.454 1491.02 474.891 1473.68C487.328 1456.35 495.411 1431.95 497.204 1405.87C498.996 1379.79 494.424 1354.66 484.365 1335.64C474.306 1316.62 460.37 1305.75 444.714 1304.69L442.19 1304.58Z" fill="#263238"/>
<path d="M481.258 1404.77C483.918 1366.06 466.73 1333.34 442.868 1331.7C419.005 1330.06 397.505 1360.12 394.845 1398.84C392.185 1437.55 409.374 1470.27 433.236 1471.9C457.098 1473.54 478.599 1443.49 481.258 1404.77Z" fill="white"/>
<path d="M435.058 1473.79H433.119C408.282 1472.08 390.322 1438.42 392.883 1398.77C393.747 1381.05 399.411 1363.89 409.27 1349.14C418.744 1335.93 430.668 1329.09 442.849 1329.97C467.685 1331.65 485.645 1365.3 483.085 1404.95H481.256H483.085C480.414 1443.51 459.089 1473.79 435.058 1473.79ZM440.983 1333.48C430.705 1333.48 420.609 1339.7 412.416 1351.22C402.952 1365.35 397.515 1381.79 396.687 1398.77C394.09 1436.41 410.55 1468.27 433.265 1469.88C455.98 1471.49 476.72 1442.12 479.317 1404.44C481.878 1366.8 465.454 1334.94 442.739 1333.37C442.152 1333.37 441.566 1333.41 440.983 1333.48Z" fill="#263238"/>
<path d="M1322.08 1269.1L1210 1163.5C1179.55 1134.85 1140.12 1117.62 1098.4 1114.74L783.83 1093.12L978.645 1245.47L1322.08 1269.1Z" fill="white"/>
<path d="M1322.08 1271.08L978.645 1247.48C978.27 1247.46 977.912 1247.32 977.621 1247.08L782.696 1094.7C782.393 1094.46 782.174 1094.12 782.072 1093.75C781.97 1093.38 781.99 1092.98 782.128 1092.62C782.267 1092.25 782.517 1091.94 782.843 1091.73C783.168 1091.52 783.552 1091.42 783.94 1091.44L1098.51 1113.06C1140.62 1115.94 1180.44 1133.3 1211.21 1162.18L1323.32 1267.79C1323.59 1268.04 1323.78 1268.38 1323.85 1268.75C1323.92 1269.11 1323.88 1269.49 1323.72 1269.83C1323.6 1270.18 1323.38 1270.48 1323.09 1270.7C1322.8 1270.93 1322.44 1271.06 1322.08 1271.08ZM979.34 1243.86L1317.29 1266.94L1208.72 1165C1178.58 1136.63 1139.55 1119.57 1098.26 1116.72L789.536 1095.5L979.34 1243.86Z" fill="#263238"/>
<path d="M1218.52 1176.45C1188.08 1147.78 1148.65 1130.53 1106.92 1127.65L848.098 1109.88C873.873 1121.99 896.43 1140.01 913.939 1162.48L978.645 1245.47L1316.66 1268.7L1218.52 1176.45Z" fill="#263238"/>
<path d="M1316.66 1270.56L978.645 1247.34C978.39 1247.32 978.142 1247.24 977.916 1247.12C977.69 1247.01 977.49 1246.84 977.329 1246.64L912.695 1163.61C895.365 1141.38 873.049 1123.54 847.549 1111.52C847.165 1111.34 846.857 1111.03 846.678 1110.64C846.499 1110.26 846.461 1109.82 846.569 1109.41C846.677 1109 846.926 1108.63 847.272 1108.39C847.618 1108.14 848.039 1108.02 848.464 1108.05L1107.33 1125.83C1149.46 1128.78 1189.28 1146.18 1220.06 1175.1L1317.94 1267.42C1318.22 1267.68 1318.4 1268.01 1318.47 1268.38C1318.55 1268.75 1318.5 1269.13 1318.35 1269.47C1318.2 1269.79 1317.96 1270.07 1317.67 1270.26C1317.37 1270.46 1317.02 1270.56 1316.66 1270.56ZM979.596 1243.75L1311.69 1266.54L1217.43 1177.77C1187.27 1149.42 1148.25 1132.36 1106.96 1129.48L857.206 1112.33C879.84 1124.42 899.69 1141.11 915.475 1161.34L979.596 1243.75Z" fill="#263238"/>
<path d="M978.645 1245.51L970.196 1245L987.351 1258.42L1030.73 1261.42L978.645 1245.51Z" fill="white"/>
<path d="M1030.73 1263.25L987.241 1260.1C986.87 1260.09 986.511 1259.96 986.217 1259.74L969.062 1246.31C968.755 1246.07 968.533 1245.74 968.427 1245.37C968.322 1244.99 968.339 1244.59 968.477 1244.23C968.6 1243.85 968.85 1243.53 969.183 1243.32C969.516 1243.1 969.912 1243.01 970.305 1243.06L978.755 1243.53H979.194L1031.28 1259.45C1031.77 1259.52 1032.2 1259.78 1032.49 1260.17C1032.79 1260.57 1032.91 1261.06 1032.84 1261.55C1032.76 1262.03 1032.5 1262.47 1032.11 1262.76C1031.71 1263.05 1031.22 1263.18 1030.73 1263.1V1263.25ZM988.082 1256.67L1014.97 1258.49L978.389 1247.34H976.012L988.082 1256.67Z" fill="#263238"/>
<path d="M1032.27 1227.11L970.196 1245L1046.61 1290.98L1297.09 1379.57L1627.4 1444.75L1603.22 1384.58L1032.27 1227.11Z" fill="#263238"/>
<path d="M1627.4 1446.65H1627.03L1296.77 1381.51L1045.99 1292.84H1045.66L969.245 1246.57C968.941 1246.39 968.696 1246.12 968.54 1245.81C968.384 1245.49 968.324 1245.13 968.367 1244.78C968.42 1244.42 968.571 1244.09 968.804 1243.82C969.037 1243.55 969.342 1243.35 969.684 1243.24L1031.87 1225.36C1032.19 1225.25 1032.53 1225.25 1032.85 1225.36L1603.69 1382.82C1603.97 1382.9 1604.23 1383.04 1604.44 1383.23C1604.66 1383.42 1604.83 1383.66 1604.94 1383.92L1629.08 1444.06C1629.19 1444.33 1629.24 1444.63 1629.21 1444.93C1629.18 1445.22 1629.08 1445.51 1628.91 1445.76C1628.74 1446 1628.52 1446.2 1628.25 1446.34C1627.99 1446.48 1627.69 1446.55 1627.4 1446.54V1446.65ZM1047.38 1289.37L1297.72 1377.89L1624.54 1442.3L1601.97 1386.12L1032.31 1229.01L974.732 1245.47L1047.38 1289.37Z" fill="#263238"/>
<path d="M1627.69 1515.05L1253.57 1489.34L1249.95 1439.59L1219.73 1326.09L1336.56 1325.36L1509.5 1392.37L1614.7 1408.36L1639.43 1466.19L1627.69 1515.05Z" fill="#E5E5E5"/>
<path d="M1627.69 1516.88L1253.6 1491.28C1253.16 1491.25 1252.74 1491.07 1252.43 1490.76C1252.11 1490.45 1251.92 1490.04 1251.88 1489.6L1248.23 1439.85L1218.09 1326.68C1218.01 1326.4 1218 1326.12 1218.05 1325.84C1218.1 1325.56 1218.21 1325.3 1218.38 1325.07C1218.55 1324.85 1218.78 1324.67 1219.03 1324.55C1219.28 1324.43 1219.56 1324.37 1219.84 1324.37L1336.64 1323.64C1336.86 1323.59 1337.1 1323.59 1337.33 1323.64L1510.09 1390.54L1614.99 1406.42C1615.3 1406.47 1615.59 1406.6 1615.83 1406.79C1616.07 1406.98 1616.26 1407.23 1616.38 1407.51L1641.11 1465.38C1641.22 1465.75 1641.22 1466.14 1641.11 1466.51L1629.33 1515.38C1629.27 1515.78 1629.07 1516.15 1628.77 1516.42C1628.47 1516.69 1628.09 1516.86 1627.69 1516.88V1516.88ZM1255.29 1487.62L1626.26 1513.22L1637.53 1466.48L1613.57 1410.07L1509.39 1394.24C1509.26 1394.27 1509.12 1394.27 1508.99 1394.24L1336.34 1327.37L1222.26 1328.07L1251.85 1439.3L1255.29 1487.62Z" fill="#263238"/>
<path d="M1277.38 1428.36L1287.33 1465.78C1288.36 1469.65 1290.57 1473.1 1293.66 1475.65C1296.75 1478.19 1300.56 1479.71 1304.56 1479.98L1485.62 1492.41L1611.7 1534.92C1613.14 1534.99 1614.59 1534.79 1615.95 1534.31C1617.31 1533.83 1618.56 1533.09 1619.64 1532.12C1620.71 1531.16 1621.58 1529.99 1622.21 1528.68C1622.83 1527.38 1623.19 1525.97 1623.26 1524.53L1621.84 1505.47C1622.09 1499.62 1615.47 1481.26 1609.62 1480.85L1500.18 1431.33L1476.29 1429.68L1286.93 1416.66C1285.46 1416.59 1284 1416.87 1282.66 1417.47C1281.32 1418.06 1280.13 1418.97 1279.21 1420.11C1278.28 1421.25 1277.63 1422.58 1277.31 1424.02C1276.99 1425.45 1277.02 1426.94 1277.38 1428.36V1428.36Z" fill="#263238"/>
<path d="M1612.47 1536.85H1611.59C1611.44 1536.89 1611.27 1536.89 1611.12 1536.85L1485.25 1494.2L1304.41 1481.77C1300.04 1481.46 1295.88 1479.8 1292.5 1477.01C1289.12 1474.23 1286.7 1470.45 1285.57 1466.22L1275.62 1428.8C1275.17 1427.08 1275.13 1425.27 1275.51 1423.53C1275.89 1421.79 1276.68 1420.16 1277.81 1418.79C1278.94 1417.41 1280.39 1416.32 1282.02 1415.62C1283.66 1414.91 1285.44 1414.6 1287.22 1414.72L1500.43 1429.35C1500.65 1429.32 1500.87 1429.32 1501.09 1429.35L1610.13 1478.88C1617.63 1480.01 1623.88 1499.69 1623.66 1505.32L1625.09 1524.2C1625.01 1527.49 1623.64 1530.63 1621.28 1532.93C1618.93 1535.24 1615.77 1536.54 1612.47 1536.56V1536.85ZM1612.07 1533.2C1614.42 1533.25 1616.7 1532.43 1618.47 1530.89C1619.36 1530.08 1620.08 1529.1 1620.59 1528C1621.1 1526.91 1621.38 1525.73 1621.43 1524.53L1620.04 1505.69C1620.23 1499.73 1613.68 1483.05 1609.51 1482.75C1609.3 1482.79 1609.09 1482.79 1608.89 1482.75L1499.88 1433.26L1286.96 1418.63C1285.77 1418.56 1284.57 1418.77 1283.47 1419.25C1282.37 1419.73 1281.4 1420.46 1280.64 1421.38C1279.88 1422.3 1279.35 1423.39 1279.08 1424.56C1278.82 1425.73 1278.84 1426.95 1279.13 1428.11L1289.08 1465.53C1290.03 1469.02 1292.03 1472.13 1294.82 1474.43C1297.62 1476.74 1301.06 1478.11 1304.67 1478.36L1485.76 1490.8H1486.2L1612.07 1533.2Z" fill="#263238"/>
<path d="M1617.85 1416.88L1606.14 1413.51L1549.74 1406.96L1560.64 1412.93L1617.85 1416.88Z" fill="white"/>
<path d="M1617.85 1418.71L1560.64 1414.76C1560.37 1414.76 1560.1 1414.68 1559.87 1414.54L1548.9 1408.57C1548.51 1408.38 1548.21 1408.05 1548.04 1407.65C1547.88 1407.25 1547.86 1406.8 1547.99 1406.39C1548.12 1405.98 1548.39 1405.62 1548.76 1405.39C1549.13 1405.16 1549.57 1405.07 1550 1405.14L1606.25 1411.68L1618.25 1415.12C1618.69 1415.24 1619.06 1415.52 1619.3 1415.91C1619.54 1416.3 1619.62 1416.76 1619.53 1417.21C1619.46 1417.61 1619.26 1417.98 1618.95 1418.25C1618.65 1418.53 1618.26 1418.69 1617.85 1418.71ZM1561.19 1411.13L1583.14 1412.63L1558.85 1409.85L1561.19 1411.13Z" fill="#263238"/>
<path d="M1357.01 1398.95L1340.66 1337.47L1250.71 1341.75L1263.66 1392.55L1357.01 1398.95Z" fill="white"/>
<path d="M1357.01 1400.78L1263.7 1394.38C1263.31 1394.36 1262.94 1394.21 1262.65 1393.96C1262.35 1393.71 1262.14 1393.37 1262.05 1392.99L1249.07 1342.22C1249.01 1341.96 1249.01 1341.68 1249.07 1341.42C1249.12 1341.15 1249.24 1340.9 1249.4 1340.69C1249.55 1340.46 1249.75 1340.28 1249.99 1340.15C1250.22 1340.01 1250.48 1339.94 1250.75 1339.92L1340.7 1335.64C1341.12 1335.61 1341.53 1335.73 1341.87 1335.98C1342.22 1336.22 1342.46 1336.58 1342.56 1336.99L1358.91 1398.48C1358.98 1398.76 1358.98 1399.06 1358.92 1399.35C1358.86 1399.63 1358.73 1399.9 1358.55 1400.13C1358.36 1400.35 1358.13 1400.53 1357.86 1400.64C1357.59 1400.76 1357.3 1400.81 1357.01 1400.78V1400.78ZM1265.13 1390.8L1354.56 1396.94L1339.23 1339.37L1252.98 1343.47L1265.13 1390.8Z" fill="#263238"/>
<path d="M1537.19 1411.32L1526.29 1405.36L1377.75 1368.12L1380.42 1400.56L1537.19 1411.32Z" fill="#263238"/>
<path d="M1537.19 1413.15L1380.42 1402.39C1379.98 1402.37 1379.57 1402.18 1379.26 1401.87C1378.95 1401.56 1378.76 1401.15 1378.74 1400.71L1376.03 1368.27C1376.01 1367.98 1376.06 1367.69 1376.18 1367.42C1376.29 1367.15 1376.47 1366.92 1376.69 1366.73C1376.9 1366.53 1377.16 1366.4 1377.44 1366.33C1377.72 1366.26 1378.02 1366.26 1378.3 1366.33L1526.84 1403.56H1527.28L1538.25 1409.56C1538.62 1409.75 1538.91 1410.06 1539.07 1410.44C1539.23 1410.83 1539.26 1411.25 1539.13 1411.65C1539.06 1412.1 1538.82 1412.5 1538.46 1412.78C1538.1 1413.06 1537.65 1413.19 1537.19 1413.15ZM1382.14 1398.84L1529.04 1408.94L1525.6 1407.07L1379.8 1370.5L1382.14 1398.84Z" fill="#263238"/>
<path d="M417.464 1212.55L530.856 1122.94C566.088 1095.1 610.421 1081.37 655.221 1084.42L783.245 1093.23C808.636 1094.99 833.369 1102.1 855.827 1114.07C878.286 1126.05 897.963 1142.63 913.573 1162.73L978.645 1245.47L417.464 1212.55Z" fill="white"/>
<path d="M978.645 1247.34L417.463 1214.27C417.09 1214.26 416.73 1214.12 416.435 1213.9C416.14 1213.67 415.924 1213.35 415.817 1212.99C415.71 1212.64 415.709 1212.27 415.813 1211.92C415.917 1211.56 416.122 1211.25 416.403 1211.02L529.795 1121.4C565.403 1093.22 610.248 1079.34 655.55 1082.48L783.574 1091.3C809.213 1093.06 834.191 1100.22 856.88 1112.29C879.569 1124.35 899.46 1141.07 915.255 1161.34L979.889 1244.38C980.103 1244.65 980.237 1244.97 980.273 1245.32C980.309 1245.66 980.247 1246.01 980.094 1246.32C979.941 1246.63 979.703 1246.89 979.407 1247.07C979.112 1247.25 978.772 1247.34 978.426 1247.34H978.645ZM422.658 1210.76L974.987 1243.31L912.805 1163.46C897.33 1143.6 877.843 1127.22 855.614 1115.39C833.386 1103.56 808.914 1096.55 783.793 1094.81L655.77 1085.99C611.375 1082.92 567.432 1096.52 532.538 1124.14L422.658 1210.76Z" fill="#263238"/>
<path d="M476.976 1216.54L574.237 1134.16C603.725 1108.77 641.99 1095.94 680.826 1098.43L790.231 1105.96C812.199 1107.62 833.531 1114.1 852.712 1124.93C871.893 1135.77 888.451 1150.7 901.209 1168.66L956.076 1244.3L476.976 1216.54Z" fill="#263238"/>
<path d="M956.076 1246.24L476.903 1218.37C476.537 1218.35 476.185 1218.22 475.892 1218C475.6 1217.78 475.379 1217.47 475.257 1217.13C475.146 1216.78 475.138 1216.41 475.236 1216.06C475.333 1215.71 475.531 1215.39 475.806 1215.15L573.103 1132.78C602.897 1107.09 641.569 1094.11 680.826 1096.6L790.268 1104.14C812.523 1105.84 834.13 1112.43 853.556 1123.42C872.981 1134.41 889.75 1149.55 902.672 1167.75L957.54 1243.35C957.747 1243.62 957.875 1243.94 957.907 1244.28C957.939 1244.62 957.875 1244.96 957.722 1245.26C957.569 1245.56 957.333 1245.82 957.041 1245.99C956.75 1246.16 956.416 1246.25 956.076 1246.24V1246.24ZM481.658 1214.97L952.309 1242.37L899.746 1169.87C887.138 1152.09 870.771 1137.3 851.806 1126.55C832.842 1115.8 811.745 1109.36 790.012 1107.69L680.57 1100.15C642.207 1097.78 604.447 1110.56 575.408 1135.74L481.658 1214.97Z" fill="#263238"/>
<path d="M729.109 1101.76C703.361 1139.56 687.135 1183.03 681.814 1228.46L717.221 1230.51C720.879 1196.9 732.511 1137.02 768.431 1104.46L729.109 1101.76Z" fill="#878787"/>
<path d="M717.405 1232.34L681.997 1230.29C681.744 1230.28 681.496 1230.22 681.269 1230.1C681.043 1229.99 680.842 1229.83 680.68 1229.63C680.372 1229.24 680.227 1228.74 680.278 1228.24C685.605 1182.51 701.92 1138.75 727.829 1100.7C728.013 1100.44 728.262 1100.23 728.55 1100.09C728.839 1099.96 729.158 1099.9 729.475 1099.93L768.614 1102.82C768.971 1102.84 769.314 1102.97 769.6 1103.18C769.886 1103.39 770.103 1103.69 770.223 1104.02C770.335 1104.37 770.345 1104.74 770.255 1105.09C770.164 1105.44 769.975 1105.75 769.711 1106C734.194 1138.26 722.818 1198.1 719.197 1230.91C719.105 1231.32 718.878 1231.68 718.552 1231.94C718.226 1232.2 717.821 1232.34 717.405 1232.34ZM684.045 1226.74L715.795 1228.61C719.453 1195.91 730.829 1139.03 764.225 1106L730.207 1103.66C705.262 1140.46 689.38 1182.63 683.862 1226.74H684.045Z" fill="#263238"/>
<path d="M601.452 1115.69C583.383 1148.52 571.867 1184.55 567.544 1221.77L575.554 1222.25C579.212 1191.59 588.32 1143.57 612.535 1110.28C608.804 1111.93 605.109 1113.79 601.452 1115.69Z" fill="#878787"/>
<path d="M575.554 1224.11L567.434 1223.53C567.183 1223.51 566.938 1223.45 566.714 1223.34C566.489 1223.23 566.29 1223.07 566.129 1222.88C565.968 1222.68 565.848 1222.46 565.777 1222.22C565.705 1221.98 565.684 1221.73 565.715 1221.48C570.097 1184 581.699 1147.73 599.879 1114.67C600.043 1114.36 600.298 1114.1 600.61 1113.94C604.268 1111.96 608.109 1110.28 611.803 1108.53C612.171 1108.36 612.583 1108.32 612.976 1108.41C613.369 1108.5 613.72 1108.73 613.975 1109.04C614.229 1109.35 614.373 1109.74 614.384 1110.14C614.395 1110.55 614.272 1110.94 614.034 1111.27C590.588 1143.53 581.114 1189.47 577.456 1222.36C577.428 1222.84 577.214 1223.29 576.859 1223.62C576.504 1223.95 576.037 1224.12 575.554 1224.11ZM569.592 1220.09L573.945 1220.34C577.602 1189 586.491 1146.6 607.267 1114.78C605.768 1115.51 604.304 1116.24 602.805 1117.05C585.341 1149 574.073 1183.96 569.592 1220.09V1220.09Z" fill="#263238"/>
<path d="M900.734 1241.19L956.076 1244.41L912.695 1184.61L900.734 1241.19Z" fill="#878787"/>
<path d="M956.077 1246.24L900.734 1243.02C900.473 1243 900.22 1242.93 899.988 1242.81C899.755 1242.69 899.549 1242.53 899.38 1242.33C899.222 1242.11 899.111 1241.87 899.054 1241.61C898.998 1241.35 898.997 1241.09 899.051 1240.83L911.012 1184.24C911.077 1183.89 911.243 1183.57 911.491 1183.32C911.738 1183.06 912.055 1182.89 912.402 1182.81C912.751 1182.75 913.111 1182.78 913.442 1182.91C913.772 1183.04 914.059 1183.26 914.268 1183.55L957.649 1243.35C957.857 1243.62 957.985 1243.94 958.017 1244.28C958.049 1244.62 957.985 1244.96 957.832 1245.26C957.679 1245.56 957.443 1245.81 957.151 1245.99C956.86 1246.16 956.525 1246.25 956.186 1246.24H956.077ZM902.965 1239.51L952.309 1242.36L913.609 1189.03L902.965 1239.51Z" fill="#263238"/>
<path d="M903.221 1204.95L930.838 1232.74L930.143 1242.95L889.687 1240.17L903.221 1204.95Z" fill="#263238"/>
<path d="M930.143 1244.78L889.687 1242C889.399 1241.98 889.119 1241.9 888.871 1241.75C888.623 1241.61 888.413 1241.4 888.261 1241.16C888.135 1240.9 888.069 1240.62 888.069 1240.33C888.069 1240.05 888.135 1239.77 888.261 1239.51L901.758 1204.29C901.874 1204 902.058 1203.75 902.294 1203.56C902.53 1203.36 902.81 1203.23 903.11 1203.16C903.41 1203.1 903.721 1203.12 904.015 1203.2C904.308 1203.29 904.576 1203.45 904.794 1203.66L932.411 1231.43C932.589 1231.62 932.727 1231.84 932.815 1232.09C932.903 1232.33 932.94 1232.59 932.923 1232.85L932.228 1243.1C932.188 1243.57 931.966 1244.02 931.606 1244.34C931.408 1244.51 931.175 1244.64 930.922 1244.72C930.67 1244.79 930.404 1244.81 930.143 1244.78ZM892.284 1238.52L928.46 1241.01L928.972 1233.44L903.953 1208.24L892.284 1238.52Z" fill="#263238"/>
<path d="M891.609 1193.07L840.776 1189.58C833.944 1189.11 828.025 1194.27 827.555 1201.1L826.006 1223.65C825.536 1230.48 830.695 1236.4 837.527 1236.87L888.36 1240.36C895.193 1240.83 901.112 1235.67 901.581 1228.84L903.13 1206.29C903.6 1199.46 898.442 1193.54 891.609 1193.07Z" fill="white"/>
<path d="M889.321 1242.22H888.334L837.454 1238.56C833.696 1238.28 830.2 1236.54 827.724 1233.7C826.493 1232.29 825.552 1230.66 824.955 1228.89C824.359 1227.11 824.119 1225.24 824.249 1223.38L825.822 1200.78C826.094 1197.02 827.838 1193.53 830.674 1191.05C833.511 1188.58 837.21 1187.33 840.965 1187.57L891.845 1191.23C895.599 1191.5 899.093 1193.24 901.566 1196.08C904.039 1198.92 905.291 1202.62 905.05 1206.37L903.477 1228.98C903.228 1232.56 901.629 1235.92 899.003 1238.38C896.376 1240.84 892.917 1242.21 889.321 1242.22ZM888.59 1238.56C889.972 1238.66 891.36 1238.48 892.674 1238.04C893.989 1237.6 895.203 1236.91 896.247 1236C897.29 1235.09 898.144 1233.98 898.757 1232.73C899.37 1231.49 899.731 1230.14 899.819 1228.76L901.392 1206.15C901.573 1203.36 900.644 1200.62 898.807 1198.52C896.97 1196.41 894.375 1195.12 891.589 1194.92L840.709 1191.26C839.327 1191.17 837.939 1191.34 836.625 1191.78C835.31 1192.22 834.096 1192.92 833.052 1193.83C832.009 1194.74 831.155 1195.85 830.542 1197.09C829.929 1198.33 829.568 1199.68 829.48 1201.07L827.907 1223.67C827.807 1225.06 827.982 1226.45 828.422 1227.76C828.861 1229.08 829.556 1230.3 830.467 1231.34C831.378 1232.39 832.487 1233.25 833.73 1233.86C834.973 1234.48 836.325 1234.85 837.71 1234.94L888.59 1238.56Z" fill="#263238"/>
<path d="M963.575 1414.65C965.477 1386.96 975.865 1323.53 1060.87 1329.35C1125.21 1333.77 1138.82 1426.68 1138.82 1426.68C1138.82 1426.68 1141.05 1466.92 1151.15 1483.74C1153.71 1488.1 1155.65 1491.28 1157.07 1493.69L1171.7 1494.68L1253.64 1489.34L1249.98 1439.59L1219.77 1326.2L978.682 1245.73L417.463 1212.55L372.838 1225.03C365.111 1226.33 357.546 1228.45 350.269 1231.35C336.406 1236.91 319.251 1245.77 317.788 1254L296.829 1371.05C293.683 1388.75 336.809 1408.65 353.269 1415.89L370.753 1427.6C365.613 1413.01 363.292 1397.58 363.913 1382.13C366.4 1346.1 384.47 1282.82 444.385 1287.03C475.22 1289.15 493.802 1296.72 505.031 1308.35L505.909 1309.41C509.692 1313.6 512.757 1318.38 514.981 1323.57C524.079 1340.71 529.662 1359.5 531.404 1378.84C535.794 1424.08 550.498 1446.32 565.056 1452.32L567.361 1453.31L982.595 1481.84C969.793 1460.85 962.039 1437.14 963.575 1414.65Z" fill="white"/>
<path d="M1171.74 1496.51L1157.11 1495.52C1156.82 1495.5 1156.54 1495.41 1156.29 1495.26C1156.04 1495.1 1155.83 1494.89 1155.68 1494.64L1149.76 1484.66C1139.55 1467.54 1137.28 1428.47 1137.17 1426.79C1137.17 1426.06 1123.06 1335.34 1060.91 1331.17C1024.92 1328.69 998.727 1338.49 982.705 1360.44C972.902 1374.01 967.123 1392.26 965.587 1414.72C963.795 1440.76 974.841 1464.98 984.388 1480.56C984.567 1480.84 984.664 1481.17 984.666 1481.51C984.668 1481.84 984.577 1482.17 984.402 1482.46C984.226 1482.74 983.975 1482.97 983.675 1483.12C983.375 1483.27 983.039 1483.33 982.705 1483.3L567.434 1455.03H566.849L564.581 1454.04C555.985 1450.38 535.318 1436.12 529.795 1379.06C528.063 1359.97 522.554 1341.42 513.591 1324.48C511.443 1319.41 508.464 1314.74 504.776 1310.65L504.263 1310.07L503.861 1309.78C492.229 1297.74 472.77 1290.94 444.422 1289C374.631 1284.17 366.583 1372.4 365.888 1382.49C365.264 1397.7 367.548 1412.88 372.619 1427.23C372.743 1427.59 372.75 1427.99 372.639 1428.35C372.527 1428.72 372.303 1429.04 371.997 1429.28C371.685 1429.49 371.315 1429.61 370.936 1429.61C370.557 1429.61 370.187 1429.49 369.875 1429.28L352.281 1417.39C312.045 1399.72 292.659 1383.96 295.037 1370.68L315.959 1253.63C317.752 1243.75 337.906 1234.35 349.574 1229.63C356.981 1226.68 364.682 1224.52 372.546 1223.2L417.134 1210.65H417.72L978.755 1243.57C978.911 1243.53 979.074 1243.53 979.23 1243.57L1220.32 1324.04C1220.6 1324.14 1220.86 1324.31 1221.06 1324.54C1221.26 1324.76 1221.41 1325.03 1221.49 1325.32L1251.7 1438.71L1255.36 1488.83C1255.38 1489.06 1255.35 1489.3 1255.27 1489.53C1255.2 1489.76 1255.08 1489.96 1254.92 1490.14C1254.59 1490.51 1254.13 1490.73 1253.64 1490.76L1171.74 1496.51ZM1158.13 1491.94L1171.74 1492.89L1251.63 1487.66L1247.97 1439.74L1218.09 1327.52L978.17 1247.34L417.683 1214.42L373.204 1226.89C365.531 1228.18 358.015 1230.28 350.782 1233.14C332.2 1240.46 320.495 1248.58 319.434 1254.43L298.511 1371.48C297.341 1377.92 303.011 1392 353.854 1414.39L367.315 1423.35C363.13 1410.04 361.31 1396.1 361.938 1382.16C365.193 1335.05 388.713 1281.46 444.385 1285.27C473.355 1287.24 493.436 1294.27 505.763 1306.7C505.991 1306.78 506.194 1306.92 506.348 1307.11L507.263 1308.24C511.162 1312.56 514.304 1317.51 516.554 1322.87C525.728 1340.2 531.372 1359.17 533.16 1378.69C536.818 1416.91 549.035 1443.8 565.715 1450.68L567.726 1451.52L979.304 1479.57C969.94 1463.4 959.99 1439.85 961.746 1414.46C963.356 1391.31 969.354 1372.43 979.56 1358.28C996.239 1335.27 1023.64 1324.92 1060.98 1327.48C1126.06 1331.94 1140.5 1425.4 1140.65 1426.24C1140.8 1427.08 1142.99 1466.26 1152.72 1482.61L1158.13 1491.94Z" fill="#263238"/>
<path d="M672.523 1405.76C676.729 1415.52 679.838 1421.85 679.838 1421.85Z" fill="white"/>
<path d="M680.021 1423.68C679.683 1423.68 679.351 1423.59 679.062 1423.42C678.772 1423.24 678.534 1422.99 678.375 1422.7C678.375 1422.7 675.01 1416.18 670.84 1406.49C670.656 1406.05 670.652 1405.55 670.83 1405.11C671.008 1404.66 671.353 1404.31 671.791 1404.11C672.011 1404.01 672.25 1403.96 672.492 1403.95C672.735 1403.94 672.976 1403.98 673.202 1404.07C673.428 1404.16 673.633 1404.29 673.806 1404.47C673.978 1404.64 674.114 1404.84 674.205 1405.06C678.302 1414.61 681.521 1420.94 681.521 1420.98C681.742 1421.41 681.786 1421.91 681.643 1422.38C681.499 1422.84 681.18 1423.23 680.753 1423.46C680.529 1423.59 680.279 1423.67 680.021 1423.68V1423.68Z" fill="#263238"/>
<path d="M680.021 1245.47C680.021 1245.47 655.221 1303.52 655.221 1338.78C655.221 1354.7 660.269 1373.09 665.829 1388.53" fill="white"/>
<path d="M665.719 1390.36C665.337 1390.37 664.962 1390.25 664.647 1390.04C664.333 1389.82 664.093 1389.51 663.964 1389.15C656.867 1369.4 653.283 1352.57 653.283 1338.78C653.283 1303.56 677.315 1247.05 678.339 1244.67C678.54 1244.24 678.899 1243.91 679.341 1243.74C679.782 1243.57 680.272 1243.58 680.707 1243.76C681.143 1243.95 681.49 1244.29 681.675 1244.73C681.861 1245.16 681.871 1245.65 681.704 1246.1C681.448 1246.68 656.941 1304.29 656.941 1338.78C656.941 1352.03 660.598 1368.56 667.438 1387.95C667.59 1388.4 667.556 1388.9 667.344 1389.33C667.132 1389.76 666.758 1390.09 666.305 1390.25C666.118 1390.32 665.919 1390.36 665.719 1390.36V1390.36Z" fill="#263238"/>
<path d="M1263.66 1392.55L1297.28 1394.86L1284.22 1340.17L1250.71 1341.75L1263.66 1392.55Z" fill="#949494"/>
<path d="M1297.28 1396.69L1263.7 1394.38C1263.31 1394.35 1262.94 1394.21 1262.65 1393.96C1262.35 1393.71 1262.14 1393.37 1262.05 1392.99L1249.07 1342.22C1249.01 1341.96 1249.01 1341.68 1249.07 1341.42C1249.12 1341.15 1249.24 1340.9 1249.4 1340.69C1249.55 1340.46 1249.75 1340.28 1249.99 1340.15C1250.22 1340.01 1250.48 1339.94 1250.75 1339.92L1284.29 1338.35C1284.72 1338.31 1285.14 1338.43 1285.49 1338.69C1285.83 1338.94 1286.07 1339.32 1286.16 1339.73L1299.18 1394.6C1299.25 1394.88 1299.26 1395.17 1299.19 1395.45C1299.13 1395.73 1299 1395.99 1298.81 1396.21C1298.61 1396.4 1298.36 1396.53 1298.1 1396.62C1297.83 1396.7 1297.55 1396.72 1297.28 1396.69V1396.69ZM1265.13 1390.8L1294.9 1392.85L1282.79 1342.08L1253.02 1343.47L1265.13 1390.8Z" fill="#263238"/>
<path d="M1600.07 1415.63L1617.85 1416.88L1606.14 1413.51L1587.96 1411.39L1600.07 1415.63Z" fill="white"/>
<path d="M1617.85 1418.71L1600.03 1417.46H1599.56L1587.45 1413.18C1587.03 1413.03 1586.68 1412.73 1586.46 1412.34C1586.25 1411.95 1586.18 1411.5 1586.28 1411.06C1586.39 1410.62 1586.65 1410.23 1587.02 1409.97C1587.39 1409.71 1587.84 1409.59 1588.29 1409.63L1606.58 1411.76L1618.58 1415.19C1619.02 1415.31 1619.39 1415.6 1619.63 1415.98C1619.87 1416.37 1619.95 1416.83 1619.86 1417.28C1619.77 1417.73 1619.51 1418.13 1619.14 1418.39C1618.76 1418.66 1618.3 1418.77 1617.85 1418.71Z" fill="#263238"/>
<path d="M551.339 1268.3L527.637 1266.65C526.566 1266.58 525.52 1266.3 524.559 1265.82C523.597 1265.35 522.74 1264.69 522.036 1263.88C521.332 1263.07 520.795 1262.13 520.457 1261.11C520.119 1260.09 519.986 1259.02 520.065 1257.95V1257.95C520.215 1255.78 521.216 1253.77 522.847 1252.34C524.479 1250.92 526.609 1250.2 528.771 1250.34L552.473 1251.98C553.55 1252.04 554.604 1252.32 555.574 1252.79C556.544 1253.26 557.41 1253.92 558.122 1254.73C558.833 1255.54 559.376 1256.49 559.719 1257.51C560.062 1258.53 560.198 1259.61 560.118 1260.69C560.044 1261.77 559.758 1262.82 559.276 1263.78C558.794 1264.75 558.126 1265.61 557.31 1266.32C556.494 1267.03 555.547 1267.56 554.522 1267.9C553.498 1268.24 552.416 1268.38 551.339 1268.3Z" fill="white"/>
<path d="M551.925 1270.13H551.23L527.527 1268.52C524.884 1268.34 522.42 1267.12 520.677 1265.12C518.935 1263.12 518.057 1260.52 518.236 1257.87C518.416 1255.23 519.638 1252.77 521.634 1251.02C523.631 1249.28 526.237 1248.4 528.881 1248.58L552.583 1250.19C553.895 1250.24 555.185 1250.54 556.38 1251.08C557.575 1251.62 558.651 1252.39 559.548 1253.35C560.445 1254.31 561.144 1255.43 561.606 1256.66C562.068 1257.89 562.283 1259.2 562.24 1260.51C562.197 1261.82 561.896 1263.11 561.354 1264.3C560.812 1265.5 560.04 1266.57 559.082 1267.47C558.124 1268.37 556.999 1269.07 555.771 1269.53C554.543 1269.99 553.236 1270.21 551.925 1270.16V1270.13ZM528.186 1252.17C526.583 1252.17 525.042 1252.78 523.868 1253.87C522.695 1254.96 521.977 1256.46 521.858 1258.06C521.813 1258.9 521.939 1259.74 522.228 1260.53C522.517 1261.32 522.964 1262.05 523.54 1262.67C524.078 1263.3 524.738 1263.81 525.479 1264.18C526.221 1264.55 527.029 1264.77 527.856 1264.82L551.559 1266.47C552.393 1266.53 553.23 1266.42 554.022 1266.15C554.813 1265.88 555.543 1265.45 556.168 1264.9C556.799 1264.36 557.315 1263.7 557.686 1262.96C558.056 1262.22 558.274 1261.41 558.326 1260.58C558.435 1258.9 557.884 1257.25 556.79 1255.97C556.245 1255.34 555.579 1254.82 554.831 1254.45C554.084 1254.08 553.27 1253.86 552.437 1253.81L528.734 1252.17H528.186Z" fill="#263238"/>
<path d="M740.229 1281.25L716.526 1279.64C715.457 1279.56 714.414 1279.28 713.455 1278.8C712.496 1278.32 711.64 1277.66 710.937 1276.85C710.234 1276.04 709.697 1275.1 709.357 1274.09C709.017 1273.07 708.88 1272 708.955 1270.93V1270.93C709.105 1268.77 710.105 1266.75 711.737 1265.33C713.368 1263.9 715.498 1263.18 717.66 1263.32L741.363 1264.97C742.433 1265.04 743.48 1265.32 744.441 1265.79C745.402 1266.27 746.26 1266.93 746.964 1267.74C747.668 1268.55 748.204 1269.49 748.543 1270.51C748.881 1271.53 749.014 1272.6 748.935 1273.67V1273.67C748.865 1274.74 748.584 1275.79 748.108 1276.75C747.632 1277.71 746.97 1278.57 746.16 1279.27C745.351 1279.98 744.41 1280.52 743.392 1280.85C742.374 1281.19 741.299 1281.32 740.229 1281.25Z" fill="white"/>
<path d="M740.814 1283.11H740.119L716.417 1281.5C713.867 1281.2 711.534 1279.92 709.896 1277.94C708.259 1275.97 707.442 1273.44 707.616 1270.88C707.79 1268.31 708.94 1265.92 710.829 1264.18C712.718 1262.44 715.203 1261.49 717.77 1261.53L741.473 1263.18C744.113 1263.37 746.572 1264.59 748.313 1266.58C750.053 1268.58 750.934 1271.18 750.763 1273.82C750.596 1276.35 749.476 1278.72 747.629 1280.45C745.782 1282.18 743.346 1283.15 740.814 1283.15V1283.11ZM717.075 1265.15C715.474 1265.15 713.932 1265.76 712.763 1266.85C711.594 1267.95 710.886 1269.44 710.784 1271.04C710.711 1271.87 710.809 1272.71 711.074 1273.51C711.338 1274.3 711.762 1275.03 712.32 1275.65C712.862 1276.29 713.527 1276.8 714.275 1277.18C715.023 1277.55 715.839 1277.76 716.673 1277.81L740.375 1279.42C741.202 1279.49 742.034 1279.39 742.82 1279.12C743.607 1278.86 744.331 1278.44 744.947 1277.88C746.213 1276.78 746.99 1275.22 747.106 1273.55C747.223 1271.87 746.67 1270.22 745.569 1268.96C745.024 1268.32 744.359 1267.81 743.611 1267.44C742.863 1267.07 742.049 1266.85 741.216 1266.8L717.514 1265.15H717.075Z" fill="#263238"/>
<path d="M945.14 1463.88C944.778 1463.88 944.426 1463.77 944.127 1463.57C943.827 1463.37 943.594 1463.08 943.457 1462.75C941.006 1456.58 939.227 1450.17 938.153 1443.62C938.068 1443.14 938.174 1442.65 938.448 1442.25C938.722 1441.86 939.142 1441.58 939.616 1441.5C939.852 1441.45 940.095 1441.45 940.33 1441.5C940.566 1441.55 940.789 1441.64 940.987 1441.78C941.185 1441.91 941.354 1442.09 941.483 1442.29C941.612 1442.49 941.698 1442.72 941.738 1442.96C942.786 1449.22 944.49 1455.35 946.822 1461.25C946.917 1461.47 946.967 1461.71 946.969 1461.95C946.971 1462.19 946.924 1462.42 946.832 1462.65C946.74 1462.87 946.604 1463.07 946.433 1463.24C946.261 1463.4 946.058 1463.54 945.835 1463.63C945.627 1463.76 945.388 1463.85 945.14 1463.88V1463.88Z" fill="#263238"/>
<path d="M938.336 1433.74C937.884 1433.73 937.449 1433.56 937.112 1433.26C936.776 1432.96 936.561 1432.54 936.507 1432.09C931.13 1381.62 943.128 1307.36 947.481 1290.68C950.825 1277.56 958.069 1265.77 968.257 1256.85C968.644 1256.56 969.126 1256.44 969.604 1256.5C970.081 1256.56 970.516 1256.8 970.818 1257.18C971.115 1257.57 971.247 1258.06 971.185 1258.54C971.124 1259.03 970.873 1259.47 970.489 1259.77C960.977 1268.22 954.202 1279.31 951.029 1291.63C946.53 1308.17 934.642 1381.69 940.056 1431.73C940.081 1431.96 940.059 1432.2 939.992 1432.43C939.924 1432.66 939.813 1432.87 939.663 1433.05C939.513 1433.24 939.329 1433.39 939.12 1433.5C938.911 1433.61 938.682 1433.68 938.446 1433.7L938.336 1433.74Z" fill="#263238"/>
<path d="M1141.34 1402.94C1140.86 1402.94 1140.39 1402.75 1140.05 1402.4C1139.71 1402.06 1139.52 1401.6 1139.52 1401.11C1139.19 1378.4 1133.59 1324.08 1089.11 1310C1056.81 1299.75 1029.78 1311.02 1012.81 1322.29C1012.61 1322.44 1012.38 1322.56 1012.14 1322.63C1011.89 1322.69 1011.63 1322.71 1011.38 1322.67C1011.13 1322.63 1010.89 1322.54 1010.68 1322.4C1010.46 1322.26 1010.28 1322.08 1010.14 1321.87C1010 1321.66 1009.9 1321.42 1009.86 1321.17C1009.82 1320.92 1009.83 1320.66 1009.89 1320.41C1009.95 1320.17 1010.06 1319.94 1010.22 1319.74C1010.38 1319.54 1010.57 1319.37 1010.8 1319.25C1028.43 1307.54 1056.52 1295.84 1090.21 1306.48C1136.99 1321.3 1142.84 1377.55 1143.17 1401.07C1143.17 1401.56 1142.99 1402.02 1142.65 1402.37C1142.32 1402.72 1141.86 1402.92 1141.38 1402.94H1141.34Z" fill="#263238"/>
<path d="M990.826 1340.57C990.48 1340.57 990.141 1340.47 989.85 1340.28C989.559 1340.1 989.328 1339.83 989.182 1339.51C989.036 1339.2 988.983 1338.85 989.028 1338.51C989.073 1338.16 989.214 1337.84 989.436 1337.57C993.053 1333.48 997.018 1329.71 1001.29 1326.31C1001.66 1326.01 1002.14 1325.86 1002.62 1325.91C1003.1 1325.96 1003.54 1326.19 1003.85 1326.57C1004 1326.75 1004.12 1326.97 1004.19 1327.2C1004.26 1327.43 1004.29 1327.68 1004.26 1327.92C1004.24 1328.16 1004.17 1328.39 1004.05 1328.61C1003.94 1328.82 1003.78 1329.01 1003.59 1329.16C999.508 1332.43 995.703 1336.02 992.216 1339.92C992.048 1340.12 991.836 1340.29 991.595 1340.4C991.355 1340.52 991.092 1340.57 990.826 1340.57Z" fill="#263238"/>
<path d="M317.788 1253.99L309.887 1298.11L328.432 1299.39L331.542 1254.36L317.934 1253.41C317.898 1253.63 317.825 1253.81 317.788 1253.99Z" fill="#92E3A9"/>
<path d="M328.432 1301.22L309.887 1299.94C309.63 1299.93 309.379 1299.86 309.152 1299.74C308.924 1299.62 308.726 1299.45 308.571 1299.24C308.405 1299.05 308.287 1298.82 308.223 1298.57C308.16 1298.33 308.154 1298.07 308.205 1297.82L316.069 1253.7C316.103 1253.48 316.165 1253.26 316.252 1253.05C316.391 1252.64 316.65 1252.28 316.996 1252.02C317.342 1251.75 317.758 1251.6 318.191 1251.58L331.761 1252.53C332.243 1252.57 332.691 1252.79 333.012 1253.16C333.333 1253.52 333.501 1253.99 333.48 1254.47L330.371 1299.54C330.334 1300.02 330.109 1300.46 329.747 1300.78C329.384 1301.09 328.912 1301.25 328.432 1301.22ZM312.045 1296.43L326.677 1297.45L329.676 1256.05L319.507 1255.35L312.045 1296.43Z" fill="#263238"/>
<path d="M1210.22 1234.24L1259.6 1229.78L1310.55 1188.45L1369.08 1189.03C1369.08 1189.03 1386.2 1237.86 1432.4 1266.98C1463.38 1286.48 1529.58 1289.66 1529.95 1290.98C1530.83 1294.34 1535.66 1335.13 1535.66 1335.13C1535.66 1335.13 1598.02 1380.81 1603.22 1384.47C1608.41 1388.13 1614.7 1408.25 1614.7 1408.25L1419.7 1353.96L1336.74 1325.36L1231.44 1324.04L1085.53 1268.15L1005.53 1245.66C1005.53 1245.66 1172.98 1217.93 1210.22 1234.24Z" fill="white"/>
<path d="M1614.7 1410.08H1614.23L1419.01 1355.72L1336.23 1327.15L1231.22 1325.95C1231.01 1325.98 1230.8 1325.98 1230.6 1325.95L1084.9 1270.05L1005.02 1247.63C1004.63 1247.51 1004.29 1247.25 1004.05 1246.92C1003.81 1246.58 1003.69 1246.18 1003.7 1245.77C1003.71 1245.34 1003.88 1244.94 1004.16 1244.63C1004.44 1244.31 1004.82 1244.11 1005.24 1244.05C1012.04 1242.91 1172.4 1216.61 1210.51 1232.56L1258.76 1228.03L1309.42 1186.95C1309.58 1186.8 1309.76 1186.69 1309.96 1186.62C1310.17 1186.56 1310.38 1186.53 1310.59 1186.55L1369.12 1187.13C1369.5 1187.14 1369.86 1187.26 1370.17 1187.49C1370.48 1187.71 1370.71 1188.02 1370.84 1188.38C1370.84 1188.85 1388.28 1236.95 1433.38 1265.19C1457.12 1280.15 1502.08 1285.38 1521.17 1287.61C1531.23 1288.78 1531.23 1288.78 1531.6 1290.32C1532.44 1293.5 1536.46 1327.15 1537.27 1333.88C1543.89 1338.75 1599.45 1379.5 1604.28 1382.86C1609.84 1386.74 1615.8 1405.47 1616.46 1407.59C1616.55 1407.9 1616.56 1408.23 1616.49 1408.54C1616.41 1408.86 1616.25 1409.15 1616.02 1409.38C1615.86 1409.59 1615.67 1409.75 1615.44 1409.87C1615.21 1409.99 1614.96 1410.06 1614.7 1410.08V1410.08ZM1231.58 1322.29L1336.56 1323.6C1336.76 1323.57 1336.95 1323.57 1337.15 1323.6L1420.11 1352.21L1611.92 1405.61C1609.32 1398.08 1605.16 1388.13 1602.19 1386.04C1597 1382.39 1537.01 1338.49 1534.49 1336.55C1534.28 1336.41 1534.1 1336.23 1533.97 1336.01C1533.84 1335.8 1533.75 1335.56 1533.72 1335.31C1531.96 1320.24 1529.18 1297.71 1528.27 1292.4C1526.84 1292.15 1523.84 1291.82 1520.73 1291.45C1501.27 1289.18 1455.77 1283.84 1431.34 1268.48C1389.16 1241.93 1370.76 1198.62 1367.73 1190.83L1311.21 1190.24L1260.77 1231.21C1260.49 1231.43 1260.14 1231.57 1259.78 1231.61L1210.4 1236.07C1210.1 1236.15 1209.79 1236.15 1209.49 1236.07C1177.85 1222.21 1048.14 1241.05 1014.05 1246.32L1086.04 1266.54L1231.58 1322.29Z" fill="#263238"/>
<path d="M1419.7 1355.79C1419.4 1355.8 1419.1 1355.72 1418.83 1355.57L1331.4 1308.02L1231.58 1325.95C1231.35 1325.99 1231.1 1325.99 1230.87 1325.94C1230.63 1325.9 1230.41 1325.8 1230.21 1325.66C1230.01 1325.53 1229.85 1325.35 1229.72 1325.15C1229.59 1324.95 1229.5 1324.72 1229.46 1324.48C1229.38 1324.01 1229.48 1323.52 1229.76 1323.12C1230.03 1322.72 1230.45 1322.45 1230.92 1322.36L1331.22 1304.29C1331.63 1304.21 1332.06 1304.27 1332.43 1304.47L1420.4 1352.5C1420.61 1352.61 1420.8 1352.76 1420.95 1352.95C1421.1 1353.13 1421.21 1353.35 1421.28 1353.57C1421.35 1353.8 1421.37 1354.04 1421.34 1354.28C1421.32 1354.51 1421.25 1354.74 1421.13 1354.95C1420.98 1355.2 1420.77 1355.4 1420.52 1355.55C1420.27 1355.69 1419.99 1355.78 1419.7 1355.79V1355.79Z" fill="#263238"/>
<path d="M1513.82 1343.61H1513.34L1421.61 1318.63C1421.19 1318.53 1420.83 1318.28 1420.58 1317.93C1420.33 1317.58 1420.21 1317.15 1420.25 1316.73C1420.29 1316.3 1420.48 1315.9 1420.78 1315.59C1421.08 1315.29 1421.47 1315.09 1421.9 1315.04L1474.57 1310.11L1518.1 1291.16C1518.32 1291.06 1518.56 1291.01 1518.8 1291.01C1519.04 1291 1519.28 1291.05 1519.5 1291.13C1519.73 1291.22 1519.93 1291.35 1520.11 1291.52C1520.28 1291.69 1520.42 1291.89 1520.51 1292.11C1520.61 1292.33 1520.66 1292.57 1520.67 1292.81C1520.67 1293.05 1520.63 1293.29 1520.54 1293.51C1520.45 1293.74 1520.32 1293.94 1520.15 1294.12C1519.98 1294.29 1519.78 1294.43 1519.56 1294.52L1475.67 1313.58C1475.49 1313.61 1475.3 1313.61 1475.12 1313.58L1432.18 1317.53L1514.15 1339.84C1514.62 1339.98 1515.01 1340.29 1515.25 1340.72C1515.49 1341.14 1515.55 1341.64 1515.43 1342.11C1515.36 1342.5 1515.17 1342.86 1514.88 1343.13C1514.59 1343.4 1514.21 1343.57 1513.82 1343.61Z" fill="#263238"/>
<path d="M1400.32 1313.69C1400.01 1313.71 1399.71 1313.63 1399.44 1313.47L1268.34 1243.32C1268.13 1243.2 1267.94 1243.05 1267.78 1242.87C1267.63 1242.68 1267.51 1242.46 1267.44 1242.23C1267.37 1242 1267.34 1241.76 1267.37 1241.52C1267.39 1241.28 1267.46 1241.04 1267.58 1240.83C1267.69 1240.62 1267.85 1240.43 1268.03 1240.28C1268.22 1240.13 1268.44 1240.01 1268.67 1239.95C1268.9 1239.88 1269.14 1239.86 1269.38 1239.88C1269.62 1239.91 1269.85 1239.98 1270.06 1240.1L1401.2 1310.25C1401.62 1310.49 1401.93 1310.89 1402.06 1311.35C1402.2 1311.81 1402.15 1312.31 1401.93 1312.74C1401.77 1313.03 1401.54 1313.28 1401.26 1313.44C1400.97 1313.61 1400.65 1313.7 1400.32 1313.69V1313.69Z" fill="#263238"/>
<path d="M1560.64 1412.93L1639.43 1466.18L1617.85 1416.88L1560.64 1412.93Z" fill="white"/>
<path d="M1639.43 1468.01C1639.07 1468.03 1638.71 1467.92 1638.4 1467.72L1559.62 1414.46C1559.29 1414.24 1559.04 1413.91 1558.92 1413.52C1558.79 1413.14 1558.8 1412.73 1558.93 1412.35C1559.06 1411.97 1559.32 1411.65 1559.65 1411.43C1559.99 1411.21 1560.39 1411.11 1560.79 1411.14L1617.99 1415.05C1618.32 1415.08 1618.64 1415.2 1618.91 1415.39C1619.18 1415.58 1619.39 1415.84 1619.53 1416.15L1641.11 1465.45C1641.27 1465.82 1641.3 1466.23 1641.21 1466.62C1641.12 1467.01 1640.9 1467.35 1640.6 1467.61C1640.26 1467.87 1639.85 1468.01 1639.43 1468.01V1468.01ZM1567.3 1415.23L1635.22 1461.28L1616.64 1418.78L1567.3 1415.23Z" fill="#263238"/>
<path d="M1069.36 1088.19H1069.1L810.093 1051.21C809.855 1051.17 809.627 1051.09 809.421 1050.96C809.215 1050.84 809.035 1050.68 808.893 1050.48C808.75 1050.29 808.647 1050.07 808.589 1049.84C808.532 1049.6 808.521 1049.36 808.557 1049.12C808.638 1048.65 808.901 1048.22 809.29 1047.93C809.678 1047.65 810.163 1047.52 810.642 1047.59L1069.62 1084.53C1070.1 1084.56 1070.55 1084.79 1070.87 1085.16C1071.19 1085.52 1071.35 1086 1071.32 1086.49C1071.28 1086.97 1071.06 1087.42 1070.69 1087.74C1070.32 1088.06 1069.84 1088.22 1069.36 1088.19V1088.19Z" fill="#263238"/>
<path d="M903.953 1048.65L763.347 1026.44C762.861 1026.37 762.427 1026.1 762.139 1025.7C761.851 1025.3 761.733 1024.81 761.81 1024.32C761.888 1023.84 762.155 1023.4 762.553 1023.11C762.951 1022.83 763.447 1022.71 763.932 1022.78L904.538 1044.95C905.015 1045.04 905.438 1045.31 905.718 1045.71C905.998 1046.1 906.113 1046.59 906.038 1047.07C906.006 1047.31 905.927 1047.55 905.805 1047.76C905.683 1047.97 905.52 1048.15 905.326 1048.3C905.131 1048.44 904.91 1048.55 904.674 1048.61C904.439 1048.67 904.193 1048.68 903.953 1048.65Z" fill="#263238"/>
<path d="M786.537 1496.55L644.248 1491.13C643.763 1491.13 643.298 1490.94 642.955 1490.6C642.612 1490.25 642.419 1489.79 642.419 1489.3C642.419 1488.82 642.612 1488.35 642.955 1488.01C643.298 1487.67 643.763 1487.47 644.248 1487.47L786.464 1492.89C786.707 1492.89 786.947 1492.95 787.17 1493.04C787.392 1493.14 787.593 1493.29 787.76 1493.46C787.927 1493.64 788.057 1493.85 788.142 1494.08C788.227 1494.3 788.266 1494.55 788.256 1494.79C788.231 1495.24 788.043 1495.67 787.726 1495.99C787.41 1496.31 786.987 1496.51 786.537 1496.55V1496.55Z" fill="#263238"/>
<path d="M830.797 1523.69L688.581 1518.27C688.341 1518.26 688.105 1518.21 687.886 1518.11C687.668 1518.01 687.472 1517.86 687.309 1517.69C687.146 1517.51 687.019 1517.3 686.936 1517.08C686.853 1516.85 686.815 1516.61 686.825 1516.37C686.835 1516.13 686.891 1515.89 686.992 1515.68C687.093 1515.46 687.235 1515.26 687.412 1515.1C687.589 1514.94 687.796 1514.81 688.022 1514.73C688.247 1514.64 688.487 1514.6 688.727 1514.61L830.943 1520.03C831.428 1520.03 831.893 1520.22 832.236 1520.56C832.579 1520.91 832.772 1521.37 832.772 1521.86C832.772 1522.34 832.579 1522.81 832.236 1523.15C831.893 1523.49 831.428 1523.69 830.943 1523.69H830.797Z" fill="#263238"/>
</svg>
