<svg width="2000" height="2000" viewBox="0 0 2000 2000" fill="none" xmlns="http://www.w3.org/2000/svg">
<path d="M453.476 908.431C453.476 908.431 508.593 913.902 536.471 948.066C546.506 935.905 559.113 926.121 573.384 919.418C587.655 912.716 603.234 909.261 619.001 909.304C631.949 893.69 640.197 874.719 642.783 854.601C645.37 834.482 642.19 814.042 633.613 795.66C625.035 777.279 611.414 761.711 594.333 750.769C577.253 739.828 557.416 733.962 537.132 733.855C516.848 733.748 496.951 739.404 479.756 750.165C462.561 760.926 448.776 776.349 440.006 794.64C431.235 812.93 427.839 833.335 430.214 853.48C432.588 873.625 440.635 892.681 453.418 908.431H453.476Z" fill="#92E3A9"/>
<path opacity="0.2" d="M453.476 908.431C453.476 908.431 508.593 913.902 536.471 948.066C546.506 935.905 559.113 926.121 573.384 919.418C587.655 912.716 603.234 909.261 619.001 909.304C631.949 893.69 640.197 874.719 642.783 854.601C645.37 834.482 642.19 814.042 633.613 795.66C625.035 777.279 611.414 761.711 594.333 750.769C577.253 739.828 557.416 733.962 537.132 733.855C516.848 733.748 496.951 739.404 479.756 750.165C462.561 760.926 448.776 776.349 440.006 794.64C431.235 812.93 427.839 833.335 430.214 853.48C432.588 873.625 440.635 892.681 453.418 908.431H453.476Z" fill="white"/>
<path d="M540.138 1057.43L534.667 781.843L533.329 1060.28L540.138 1057.43Z" fill="#828282"/>
<path d="M537.461 937.53C537.461 937.53 556.085 904.006 589.551 893.821C589.551 893.821 554.223 902.144 536.53 931.012L537.461 937.53Z" fill="#828282"/>
<path d="M536.065 844.409C536.065 844.409 556.086 809.023 589.552 798.838C589.552 798.838 553.874 808.499 536.181 837.367L536.065 844.409Z" fill="#828282"/>
<path d="M536.646 891.319C536.646 891.319 556.085 856.399 589.551 846.446C589.551 846.446 554.223 854.769 536.53 883.637L536.646 891.319Z" fill="#828282"/>
<path d="M534.726 866.874C534.726 866.874 516.742 833.408 484.44 823.165C484.44 823.165 518.546 831.546 535.599 860.356L534.726 866.874Z" fill="#828282"/>
<path d="M534.726 913.378C534.726 913.378 516.742 879.912 484.44 869.669C484.44 869.669 518.546 878.05 535.599 906.86L534.726 913.378Z" fill="#828282"/>
<path d="M1655.68 799.594C1655.68 799.594 1710.8 805.065 1738.73 839.229C1748.76 827.073 1761.36 817.291 1775.62 810.588C1789.88 803.886 1805.45 800.429 1821.21 800.467C1834.15 784.847 1842.4 765.87 1844.97 745.746C1847.55 725.622 1844.36 705.18 1835.78 686.799C1827.19 668.418 1813.56 652.854 1796.47 641.921C1779.38 630.987 1759.53 625.133 1739.24 625.04C1718.96 624.947 1699.06 630.62 1681.87 641.397C1664.68 652.174 1650.9 667.612 1642.15 685.914C1633.39 704.216 1630.02 724.628 1632.41 744.774C1634.81 764.921 1642.88 783.972 1655.68 799.711V799.594Z" fill="#92E3A9"/>
<path opacity="0.2" d="M1655.68 799.594C1655.68 799.594 1710.8 805.065 1738.73 839.229C1748.76 827.073 1761.36 817.291 1775.62 810.588C1789.88 803.886 1805.45 800.429 1821.21 800.467C1834.15 784.847 1842.4 765.87 1844.97 745.746C1847.55 725.622 1844.36 705.18 1835.78 686.799C1827.19 668.418 1813.56 652.854 1796.47 641.921C1779.38 630.987 1759.53 625.133 1739.24 625.04C1718.96 624.947 1699.06 630.62 1681.87 641.397C1664.68 652.174 1650.9 667.612 1642.15 685.914C1633.39 704.216 1630.02 724.628 1632.41 744.774C1634.81 764.921 1642.88 783.972 1655.68 799.711V799.594Z" fill="white"/>
<path d="M1742.34 948.646L1736.87 673.063L1735.53 951.498L1742.34 948.646Z" fill="#828282"/>
<path d="M1739.67 828.812C1739.67 828.812 1758.29 795.346 1792.05 785.103C1792.05 785.103 1756.72 793.484 1739.03 822.293L1739.67 828.812Z" fill="#828282"/>
<path d="M1738.27 735.806C1738.27 735.806 1758.29 700.42 1791.76 690.234C1791.76 690.234 1756.08 699.896 1738.44 728.764L1738.27 735.806Z" fill="#828282"/>
<path d="M1738.79 782.541C1738.79 782.541 1758.23 747.62 1791.7 737.668C1791.7 737.668 1756.37 746.049 1738.68 774.859L1738.79 782.541Z" fill="#828282"/>
<path d="M1736.93 758.096C1736.93 758.096 1719 724.63 1686.64 714.387C1686.64 714.387 1720.75 722.768 1737.8 751.577L1736.93 758.096Z" fill="#828282"/>
<path d="M1736.93 804.6C1736.93 804.6 1719 771.134 1686.64 760.891C1686.64 760.891 1720.75 769.272 1737.8 798.139L1736.93 804.6Z" fill="#828282"/>
<path d="M515.286 782.483C515.286 782.483 590.482 789.933 628.604 836.552C642.296 819.956 659.499 806.602 678.973 797.454C698.447 788.306 719.708 783.59 741.223 783.647C758.879 762.324 770.116 736.426 773.625 708.965C777.134 681.505 772.772 653.613 761.045 628.535C749.319 603.458 730.711 582.227 707.387 567.314C684.064 552.401 656.984 544.42 629.301 544.298C601.617 544.177 574.469 551.921 551.016 566.629C527.562 581.338 508.769 602.405 496.823 627.378C484.878 652.352 480.271 680.205 483.54 707.695C486.808 735.185 497.818 761.181 515.286 782.658V782.483Z" fill="#92E3A9"/>
<path opacity="0.4" d="M515.286 782.483C515.286 782.483 590.482 789.933 628.604 836.552C642.296 819.956 659.499 806.602 678.973 797.454C698.447 788.306 719.708 783.59 741.223 783.647C758.879 762.324 770.116 736.426 773.625 708.965C777.134 681.505 772.772 653.613 761.045 628.535C749.319 603.458 730.711 582.227 707.387 567.314C684.064 552.401 656.984 544.42 629.301 544.298C601.617 544.177 574.469 551.921 551.016 566.629C527.562 581.338 508.769 602.405 496.823 627.378C484.878 652.352 480.271 680.205 483.54 707.695C486.808 735.185 497.818 761.181 515.286 782.658V782.483Z" fill="white"/>
<path d="M633.551 985.895L626.16 609.857L624.297 989.737L633.551 985.895Z" fill="#828282"/>
<path d="M629.943 822.351C629.943 822.351 655.319 776.663 701.007 762.694C701.007 762.694 652.816 774.335 628.663 813.446L629.943 822.351Z" fill="#828282"/>
<path d="M628.022 695.414C628.022 695.414 655.318 647.223 701.006 633.255C701.006 633.255 652.35 646.467 628.196 685.636L628.022 695.414Z" fill="#828282"/>
<path d="M628.779 759.261C628.779 759.261 655.319 711.943 701.007 697.975C701.007 697.975 652.816 709.615 628.663 748.726L628.779 759.261Z" fill="#828282"/>
<path d="M626.159 725.911C626.159 725.911 601.656 680.223 557.598 666.255C557.598 666.255 604.159 677.895 627.44 717.006L626.159 725.911Z" fill="#828282"/>
<path d="M626.159 789.35C626.159 789.35 601.656 743.662 557.598 729.693C557.598 729.693 604.159 741.334 627.44 780.445L626.159 789.35Z" fill="#828282"/>
<path d="M1102.94 1045.2H523.551V1248.44H1102.94V1045.2Z" fill="#92E3A9" stroke="#263238" stroke-width="3.58794" stroke-miterlimit="10"/>
<path d="M1070.23 1045.2H556.202V1248.44H1070.23V1045.2Z" fill="white" stroke="#263238" stroke-width="3.58794" stroke-miterlimit="10"/>
<path d="M657.53 1078.38V1248.15" stroke="#263238" stroke-width="3.58794" stroke-miterlimit="10"/>
<path d="M860.303 1078.38V1248.15" stroke="#263238" stroke-width="3.58794" stroke-miterlimit="10"/>
<path d="M936.314 1078.38V1248.15" stroke="#263238" stroke-width="3.58794" stroke-miterlimit="10"/>
<path d="M1012.38 1078.38V1248.15" stroke="#263238" stroke-width="3.58794" stroke-miterlimit="10"/>
<path d="M556.143 1117.95H1070.87" stroke="#263238" stroke-width="3.58794" stroke-miterlimit="10"/>
<path d="M556.143 1162.83H1070.87" stroke="#263238" stroke-width="3.58794" stroke-miterlimit="10"/>
<path d="M556.143 1209.56H1070.87" stroke="#263238" stroke-width="3.58794" stroke-miterlimit="10"/>
<path d="M795.118 1045.2H758.975V1248.44H795.118V1045.2Z" fill="#92E3A9" stroke="#263238" stroke-width="3.58794" stroke-miterlimit="10"/>
<path d="M465.64 1075.35H1124.59V921.584H603.228L465.64 1075.35Z" fill="#263238" stroke="#263238" stroke-width="3.58794" stroke-miterlimit="10"/>
<path d="M675.63 915.531H1127.97V782.309H784.234L675.63 915.531Z" fill="white" stroke="#263238" stroke-width="3.58794" stroke-miterlimit="10"/>
<path d="M871.129 840.16H679.24V948.705H871.129V840.16Z" fill="#92E3A9" stroke="#263238" stroke-width="3.58794" stroke-miterlimit="10"/>
<path d="M755.133 885.382H693.731V933.631H755.133V885.382Z" fill="white" stroke="#263238" stroke-width="3.58794" stroke-miterlimit="10"/>
<path d="M834.927 885.382H773.524V933.631H834.927V885.382Z" fill="white" stroke="#263238" stroke-width="3.58794" stroke-miterlimit="10"/>
<path d="M632.155 873.334H1131.81V740.111H752.165L632.155 873.334Z" fill="#263238" stroke="#263238" stroke-width="3.58794" stroke-miterlimit="10"/>
<path d="M1559.12 948.705H1751.01V840.16H1559.12V948.705Z" fill="#92E3A9" stroke="#263238" stroke-width="3.58794" stroke-miterlimit="10"/>
<path d="M1675.12 933.632H1736.52V885.383H1675.12V933.632Z" fill="white" stroke="#263238" stroke-width="3.58794" stroke-miterlimit="10"/>
<path d="M1595.27 933.632H1656.67V885.383H1595.27V933.632Z" fill="white" stroke="#263238" stroke-width="3.58794" stroke-miterlimit="10"/>
<path d="M1798.04 873.334H1298.38V740.111H1678.09L1798.04 873.334Z" fill="#263238" stroke="#263238" stroke-width="3.58794" stroke-miterlimit="10"/>
<path d="M1117.38 806.985L845.811 915.531V1006.03H1113.71L1117.38 806.985Z" fill="#263238" stroke="#263238" stroke-width="3.58794" stroke-miterlimit="10"/>
<path d="M1243.21 762.636L823.87 936.075L808.33 910.059L1227.67 736.562L1243.21 762.636Z" fill="#525252" stroke="#263238" stroke-width="3.58794" stroke-miterlimit="10"/>
<path d="M1779.65 948.705L1196.07 797.382V1248.44H1779.65V948.705Z" fill="#92E3A9" stroke="#263238" stroke-width="3.58794" stroke-miterlimit="10"/>
<path d="M1636.36 1248.44H1779.65V948.705L1636.36 911.515V1248.44Z" fill="#263238" stroke="#263238" stroke-width="3.58794" stroke-miterlimit="10"/>
<path d="M1818.3 968.086L1464.96 875.605L1475.43 847.843L1828.77 940.325L1818.3 968.086Z" fill="#525252" stroke="#263238" stroke-width="3.58794" stroke-miterlimit="10"/>
<path d="M1102.94 1248.44H1488.82V616.958L1102.94 771.191V1248.44Z" fill="white" stroke="#263238" stroke-width="3.58794" stroke-miterlimit="10"/>
<path d="M1139.09 1036.18H1488.82V616.958L1139.09 756.757V1036.18Z" fill="#263238" stroke="#263238" stroke-width="3.58794" stroke-miterlimit="10"/>
<path d="M1102.94 1036.01H1318.4V829.393L1102.94 771.191V1036.01Z" fill="white" stroke="#263238" stroke-width="3.58794" stroke-miterlimit="10"/>
<path d="M1241.52 1036.01H1318.4V829.392L1241.52 808.614V1036.01Z" fill="#92E3A9" stroke="#263238" stroke-width="3.58794" stroke-miterlimit="10"/>
<path d="M1318.4 1044.74H1241.52V1247.86H1318.4V1044.74Z" fill="#92E3A9" stroke="#263238" stroke-width="3.58794" stroke-miterlimit="10"/>
<path d="M1528.05 1021.46H1059.82V1050.56H1528.05V1021.46Z" fill="#525252" stroke="#263238" stroke-width="3.58794" stroke-miterlimit="10"/>
<path d="M1547.37 608.869L1127.97 782.309L1112.43 756.235L1531.83 582.795L1547.37 608.869Z" fill="#525252" stroke="#263238" stroke-width="3.58794" stroke-miterlimit="10"/>
<path d="M1350.07 845.864L1066.57 767.933L1077.04 740.171L1360.54 818.102L1350.07 845.864Z" fill="#525252" stroke="#263238" stroke-width="3.58794" stroke-miterlimit="10"/>
<path d="M1458.15 727.541H1377.77V860.531H1458.15V727.541Z" fill="white" stroke="#263238" stroke-width="3.58794" stroke-miterlimit="10"/>
<path d="M1458.15 876.827H1377.77V1009.82H1458.15V876.827Z" fill="white" stroke="#263238" stroke-width="3.58794" stroke-miterlimit="10"/>
<path d="M1220.57 846.854H1143.68V998.177H1220.57V846.854Z" fill="white" stroke="#263238" stroke-width="3.58794" stroke-miterlimit="10"/>
<path d="M1220.57 1063.94H1143.68V1176.1H1220.57V1063.94Z" fill="white" stroke="#263238" stroke-width="3.58794" stroke-miterlimit="10"/>
<path d="M1743.8 1009H1664.12V1211.02H1743.8V1009Z" fill="white" stroke="#263238" stroke-width="3.58794" stroke-miterlimit="10"/>
<path d="M1392.38 1066.33H1330.98V1232.2H1392.38V1066.33Z" fill="white" stroke="#263238" stroke-width="3.58794" stroke-miterlimit="10"/>
<path d="M1472.17 1066.33H1410.77V1232.2H1472.17V1066.33Z" fill="#263238" stroke="#263238" stroke-width="3.58794" stroke-miterlimit="10"/>
<path d="M1088.34 927.578H874.737V951.673H1088.34V927.578Z" fill="white" stroke="#263238" stroke-width="3.58794" stroke-miterlimit="10"/>
<path d="M1464.95 1072.27H1418.28V1104.86H1464.95V1072.27Z" fill="white" stroke="#263238" stroke-width="3.58794" stroke-miterlimit="10"/>
<path d="M1464.95 1109.86H1418.28V1142.46H1464.95V1109.86Z" fill="white" stroke="#263238" stroke-width="3.58794" stroke-miterlimit="10"/>
<path d="M1464.95 1147.52H1418.28V1180.11H1464.95V1147.52Z" fill="white" stroke="#263238" stroke-width="3.58794" stroke-miterlimit="10"/>
<path d="M1464.95 1185.12H1418.28V1217.71H1464.95V1185.12Z" fill="white" stroke="#263238" stroke-width="3.58794" stroke-miterlimit="10"/>
<path d="M1331.6 1584.18C1392.43 1569.99 1430.25 1509.17 1416.06 1448.33C1401.87 1387.5 1341.04 1349.69 1280.21 1363.88C1219.37 1378.07 1181.56 1438.89 1195.75 1499.72C1209.94 1560.56 1270.76 1598.37 1331.6 1584.18Z" fill="#263238" stroke="#263238" stroke-width="3.58794" stroke-miterlimit="10"/>
<path d="M593.708 1554.02C637.88 1509.85 637.88 1438.23 593.708 1394.06C549.537 1349.89 477.92 1349.89 433.748 1394.06C389.577 1438.23 389.577 1509.85 433.748 1554.02C477.92 1598.19 549.537 1598.19 593.708 1554.02Z" fill="#263238" stroke="#263238" stroke-width="3.58794" stroke-miterlimit="10"/>
<path d="M1229.61 1259.69C1229.61 1259.69 1199.6 1240.92 1062.57 1195.86C925.535 1150.81 837.279 1135.76 702.149 1139.56C567.019 1143.37 384.886 1194 351.114 1207.19C317.342 1220.38 302.295 1224.1 309.819 1233.44C317.342 1242.78 358.596 1276.64 352.974 1291.64C347.353 1306.65 255.462 1389.37 249.714 1402.34C243.965 1415.32 268.523 1460.55 272.243 1471.83C275.962 1483.12 296.673 1486.84 313.538 1488.74C330.403 1490.64 1531.87 1488.74 1531.87 1488.74C1531.87 1488.74 1548.77 1468.11 1545.01 1441.82C1541.25 1415.53 1537.24 1380.87 1520.29 1358.68C1506.59 1340.67 1492.43 1321.7 1456.88 1317.93C1434.36 1315.52 1235.27 1261.59 1229.61 1259.69Z" fill="#92E3A9"/>
<path d="M1229.61 1259.69C1229.61 1259.69 1199.6 1240.92 1062.57 1195.86C925.535 1150.81 837.279 1135.76 702.149 1139.56C567.019 1143.37 384.886 1194 351.114 1207.19C317.342 1220.38 302.295 1224.1 309.819 1233.44C317.342 1242.78 358.596 1276.64 352.974 1291.64C347.353 1306.65 255.462 1389.37 249.714 1402.34C243.965 1415.32 268.523 1460.55 272.243 1471.83C275.962 1483.12 296.673 1486.84 313.538 1488.74C330.403 1490.64 1531.87 1488.74 1531.87 1488.74C1531.87 1488.74 1548.77 1468.11 1545.01 1441.82C1541.25 1415.53 1537.24 1380.87 1520.29 1358.68C1506.59 1340.67 1492.43 1321.7 1456.88 1317.93C1434.36 1315.52 1235.27 1261.59 1229.61 1259.69Z" fill="#92E3A9"/>
<path opacity="0.15" d="M1229.61 1259.69C1229.61 1259.69 1199.6 1240.92 1062.57 1195.86C925.535 1150.81 837.279 1135.76 702.149 1139.56C567.019 1143.37 384.886 1194 351.114 1207.19C317.342 1220.38 302.295 1224.1 309.819 1233.44C317.342 1242.78 358.596 1276.64 352.974 1291.64C347.353 1306.65 255.462 1389.37 249.714 1402.34C243.965 1415.32 268.523 1460.55 272.243 1471.83C275.962 1483.12 296.673 1486.84 313.538 1488.74C330.403 1490.64 1531.87 1488.74 1531.87 1488.74C1531.87 1488.74 1548.77 1468.11 1545.01 1441.82C1541.25 1415.53 1537.24 1380.87 1520.29 1358.68C1506.59 1340.67 1492.43 1321.7 1456.88 1317.93C1434.36 1315.52 1235.27 1261.59 1229.61 1259.69Z" fill="black"/>
<path d="M1229.61 1259.69C1229.61 1259.69 1199.6 1240.92 1062.57 1195.86C925.535 1150.81 837.279 1135.76 702.149 1139.56C567.019 1143.37 384.886 1194 351.114 1207.19C317.342 1220.38 302.295 1224.1 309.819 1233.44C317.342 1242.78 358.596 1276.64 352.974 1291.64C347.353 1306.65 255.462 1389.37 249.714 1402.34C243.965 1415.32 268.523 1460.55 272.243 1471.83C275.962 1483.12 296.673 1486.84 313.538 1488.74C330.403 1490.64 1531.87 1488.74 1531.87 1488.74C1531.87 1488.74 1548.77 1468.11 1545.01 1441.82C1541.25 1415.53 1537.24 1380.87 1520.29 1358.68C1506.59 1340.67 1492.43 1321.7 1456.88 1317.93C1434.36 1315.52 1235.27 1261.59 1229.61 1259.69Z" stroke="#263238" stroke-width="3.58794" stroke-miterlimit="10"/>
<path d="M1531.87 1391.1H1460.52V1409.87H1531.87V1391.1Z" fill="#263238" stroke="#263238" stroke-width="3.58794" stroke-miterlimit="10"/>
<path d="M1426.28 1358.64H1437.65C1444.93 1358.62 1452.04 1360.79 1458.06 1364.86C1464.09 1368.93 1468.76 1374.71 1471.47 1381.46L1482.92 1409.87H1445.73L1426.28 1358.64Z" fill="white" stroke="#263238" stroke-width="3.58794" stroke-miterlimit="10"/>
<path d="M1530.98 1377.83C1530.56 1379.01 1530.18 1380.19 1529.84 1381.46L1522.19 1409.87H1540.03C1538.05 1398.92 1535.02 1388.19 1530.98 1377.83V1377.83Z" fill="white" stroke="#263238" stroke-width="3.58794" stroke-miterlimit="10"/>
<path d="M1229.61 1259.69C1229.61 1259.69 1199.6 1240.92 1062.57 1195.86C1031.25 1185.59 1002.55 1176.88 975.2 1169.57H878.575L857.949 1175.24L1135.78 1259.77L1229.61 1259.69Z" fill="#263238" stroke="#263238" stroke-width="3.58794" stroke-miterlimit="10"/>
<path d="M217.844 1229.59V1356.4C217.844 1356.4 295.025 1292.99 285.473 1274.95C275.92 1256.9 217.844 1229.59 217.844 1229.59Z" fill="#8F8F8F" stroke="#263238" stroke-width="3.58794" stroke-miterlimit="10"/>
<path d="M1135.78 1259.69C1135.78 1259.69 1105.72 1240.92 968.69 1195.86C831.658 1150.81 743.445 1135.76 608.272 1139.56C473.1 1143.37 291.01 1194 257.449 1207.19C223.889 1220.38 208.63 1224.1 216.153 1233.44C223.677 1242.78 264.973 1276.64 259.309 1291.64C253.645 1306.65 161.501 1389.37 155.88 1402.34C150.258 1415.32 174.646 1460.55 178.408 1471.83C182.17 1483.12 202.797 1486.84 219.704 1488.74C236.611 1490.64 1437.99 1488.74 1437.99 1488.74C1437.99 1488.74 1454.9 1468.11 1451.14 1441.82C1447.37 1415.53 1443.19 1380.91 1426.28 1358.64C1412.59 1340.63 1398.39 1321.65 1362.88 1317.89C1340.52 1315.52 1141.4 1261.59 1135.78 1259.69Z" fill="#92E3A9"/>
<path opacity="0.15" d="M1426.28 1358.64C1412.59 1340.63 1398.39 1321.65 1362.88 1317.89C1356.96 1317.26 1338.66 1313.03 1314.86 1307.11C1201.42 1305.97 1138.23 1351.83 968.733 1367.39C748.01 1387.59 595.296 1332.43 411.347 1310.33C334.63 1301.15 272.708 1312.44 226.509 1328.67C197.556 1357.92 159.388 1394.06 155.837 1402.34C150.216 1415.49 174.604 1460.55 178.366 1471.83C182.128 1483.12 202.755 1486.84 219.662 1488.74C236.569 1490.64 1437.95 1488.74 1437.95 1488.74C1437.95 1488.74 1454.86 1468.11 1451.09 1441.82C1447.33 1415.53 1443.19 1380.91 1426.28 1358.64Z" fill="black"/>
<path d="M1135.78 1259.69C1135.78 1259.69 1105.72 1240.92 968.69 1195.86C831.658 1150.81 743.445 1135.76 608.272 1139.56C473.1 1143.37 291.01 1194 257.449 1207.19C223.889 1220.38 208.63 1224.1 216.153 1233.44C223.677 1242.78 264.973 1276.64 259.309 1291.64C253.645 1306.65 161.501 1389.37 155.88 1402.34C150.258 1415.32 174.646 1460.55 178.408 1471.83C182.17 1483.12 202.797 1486.84 219.704 1488.74C236.611 1490.64 1437.99 1488.74 1437.99 1488.74C1437.99 1488.74 1454.9 1468.11 1451.14 1441.82C1447.37 1415.53 1443.19 1380.91 1426.28 1358.64C1412.59 1340.63 1398.39 1321.65 1362.88 1317.89C1340.52 1315.52 1141.4 1261.59 1135.78 1259.69Z" stroke="#263238" stroke-width="3.58794" stroke-miterlimit="10"/>
<path d="M425.844 1190.45L500.954 1269.79H1053.06V1251.78C1053.06 1251.78 939.906 1207.36 820.584 1184.15C701.262 1160.95 671.463 1163.02 617.698 1164.04C563.934 1165.05 425.844 1190.45 425.844 1190.45Z" fill="#8F8F8F"/>
<path d="M695.048 1235.09C624.771 1219.04 551.251 1225.11 484.554 1252.46L500.954 1269.79H1053.06V1251.78C1053.06 1251.78 1034.76 1244.6 1005.08 1234.5C942.992 1258.33 819.823 1262.56 695.048 1235.09Z" fill="#263238" stroke="#263238" stroke-width="3.58794" stroke-miterlimit="10"/>
<path d="M425.844 1190.45L500.954 1269.79H1053.06V1251.78C1053.06 1251.78 939.906 1207.36 820.584 1184.15C701.262 1160.95 671.463 1163.02 617.698 1164.04C563.934 1165.05 425.844 1190.45 425.844 1190.45Z" stroke="#263238" stroke-width="3.58794" stroke-miterlimit="10"/>
<path d="M675.478 1280.36V1452.77" stroke="#263238" stroke-width="3.58794" stroke-miterlimit="10"/>
<path d="M411.528 1584.3C472.378 1570.17 510.254 1509.39 496.128 1448.54C482.001 1387.69 421.221 1349.81 360.371 1363.94C299.521 1378.07 261.644 1438.85 275.77 1499.7C289.897 1560.55 350.678 1598.42 411.528 1584.3Z" fill="#263238" stroke="#263238" stroke-width="3.58794" stroke-miterlimit="10"/>
<path d="M386.071 1392.41C369.922 1392.41 354.137 1397.2 340.712 1406.17C327.287 1415.15 316.826 1427.9 310.652 1442.82C304.478 1457.74 302.869 1474.16 306.029 1490C309.189 1505.83 316.975 1520.38 328.402 1531.79C339.829 1543.2 354.384 1550.96 370.225 1554.09C386.066 1557.23 402.481 1555.6 417.393 1549.4C432.305 1543.2 445.043 1532.72 453.996 1519.28C462.949 1505.84 467.715 1490.05 467.69 1473.9C467.645 1452.28 459.028 1431.56 443.727 1416.28C428.427 1401.01 407.692 1392.42 386.071 1392.41V1392.41ZM441.019 1457.67L393.467 1466.59L406.951 1420.73C415.039 1423.92 422.298 1428.9 428.184 1435.3C434.07 1441.7 438.43 1449.35 440.934 1457.67H441.019ZM390.297 1469.93V1478.13H382.14V1469.93H390.297ZM369.882 1419.21L378.801 1466.76L332.898 1453.23C336.045 1445.16 340.981 1437.9 347.336 1432.01C353.69 1426.11 361.298 1421.74 369.586 1419.21H369.882ZM331.376 1490.39L378.927 1481.47L365.359 1527.33C357.233 1524.18 349.935 1519.21 344.023 1512.81C338.111 1506.41 333.742 1498.74 331.249 1490.39H331.376ZM402.555 1528.85L393.637 1481.34L439.413 1495.04C436.209 1503.1 431.215 1510.34 424.809 1516.2C418.402 1522.05 410.75 1526.38 402.428 1528.85H402.555Z" fill="white" stroke="#263238" stroke-width="3.58794" stroke-miterlimit="10"/>
<path d="M411.389 1473.9C411.389 1468.89 409.901 1463.98 407.115 1459.81C404.328 1455.64 400.367 1452.39 395.733 1450.47C391.099 1448.55 386 1448.05 381.08 1449.03C376.161 1450.01 371.642 1452.42 368.095 1455.97C364.548 1459.52 362.133 1464.04 361.155 1468.96C360.176 1473.87 360.678 1478.97 362.598 1483.61C364.517 1488.24 367.768 1492.2 371.938 1494.99C376.109 1497.78 381.012 1499.26 386.028 1499.26C392.754 1499.26 399.205 1496.59 403.961 1491.84C408.717 1487.08 411.389 1480.63 411.389 1473.9V1473.9Z" fill="white" stroke="#263238" stroke-width="3.58794" stroke-miterlimit="10"/>
<path d="M1262.01 1554.02C1306.18 1509.85 1306.18 1438.23 1262.01 1394.06C1217.84 1349.89 1146.22 1349.89 1102.05 1394.06C1057.88 1438.23 1057.88 1509.85 1102.05 1554.02C1146.22 1598.19 1217.84 1598.19 1262.01 1554.02Z" fill="#263238" stroke="#263238" stroke-width="3.58794" stroke-miterlimit="10"/>
<path d="M1182.02 1392.41C1165.87 1392.41 1150.08 1397.2 1136.66 1406.17C1123.23 1415.15 1112.77 1427.9 1106.6 1442.82C1100.42 1457.74 1098.82 1474.16 1101.97 1490C1105.13 1505.83 1112.92 1520.38 1124.35 1531.79C1135.77 1543.2 1150.33 1550.96 1166.17 1554.09C1182.01 1557.23 1198.43 1555.6 1213.34 1549.4C1228.25 1543.2 1240.99 1532.72 1249.94 1519.28C1258.89 1505.84 1263.66 1490.05 1263.64 1473.9C1263.59 1452.28 1254.97 1431.56 1239.67 1416.28C1224.37 1401.01 1203.64 1392.42 1182.02 1392.41V1392.41ZM1236.96 1457.67L1189.46 1466.59L1202.94 1420.73C1211.02 1423.92 1218.26 1428.9 1224.13 1435.3C1230.01 1441.7 1234.35 1449.35 1236.84 1457.67H1236.96ZM1186.24 1469.93V1478.13H1178.04V1469.93H1186.24ZM1165.79 1419.21L1174.7 1466.76L1128.84 1453.23C1132 1445.14 1136.95 1437.87 1143.33 1431.98C1149.71 1426.08 1157.34 1421.72 1165.66 1419.21H1165.79ZM1127.32 1490.39L1174.87 1481.47L1161.35 1527.33C1153.21 1524.18 1145.91 1519.22 1139.99 1512.81C1134.07 1506.41 1129.69 1498.74 1127.19 1490.39H1127.32ZM1198.5 1528.85L1189.58 1481.34L1235.32 1495.04C1232.12 1503.1 1227.14 1510.34 1220.74 1516.19C1214.34 1522.05 1206.69 1526.38 1198.37 1528.85H1198.5Z" fill="white" stroke="#263238" stroke-width="3.58794" stroke-miterlimit="10"/>
<path d="M1207.33 1473.9C1207.33 1468.89 1205.85 1463.98 1203.06 1459.81C1200.27 1455.64 1196.31 1452.39 1191.68 1450.47C1187.05 1448.55 1181.95 1448.05 1177.03 1449.03C1172.11 1450.01 1167.59 1452.42 1164.04 1455.97C1160.49 1459.52 1158.08 1464.04 1157.1 1468.96C1156.12 1473.87 1156.62 1478.97 1158.54 1483.61C1160.46 1488.24 1163.71 1492.2 1167.88 1494.99C1172.05 1497.78 1176.96 1499.26 1181.97 1499.26C1188.7 1499.26 1195.15 1496.59 1199.91 1491.84C1204.66 1487.08 1207.33 1480.63 1207.33 1473.9Z" fill="white" stroke="#263238" stroke-width="3.58794" stroke-miterlimit="10"/>
<path d="M1426.28 1358.64C1426.28 1358.64 1342.09 1354.41 1338.32 1358.64C1334.56 1362.86 1366.47 1396.68 1377.76 1404.24C1386.68 1410.2 1428.69 1409.06 1445.68 1408.47C1442.26 1390.3 1436.72 1372.16 1426.28 1358.64Z" fill="white" stroke="#263238" stroke-width="3.58794" stroke-miterlimit="10"/>
<path d="M689.3 1164.59C683.763 1164.2 678.564 1163.95 673.492 1163.78L659.332 1269.45H696.866L689.3 1164.59Z" fill="#263238" stroke="#263238" stroke-width="3.58794" stroke-miterlimit="10"/>
<path d="M508.344 1437.45L499.514 1450.71L426.963 1482.25C426.963 1482.25 416.867 1484.15 416.867 1487.3C416.867 1490.44 414.967 1499.29 416.867 1500.56C418.767 1501.83 431.341 1497.39 431.341 1497.39C431.341 1497.39 427.56 1501.81 431.341 1503.07C435.122 1504.34 438.904 1498.66 438.904 1498.66C442.608 1496.33 446.189 1493.8 449.633 1491.1C451.41 1488.76 452.893 1486.21 454.047 1483.52L520.99 1466.49L534.868 1445.67C534.868 1445.67 506.462 1442.5 508.344 1437.45Z" fill="#B5B5B5" stroke="#263238" stroke-width="3.58794" stroke-linecap="round" stroke-linejoin="round"/>
<path d="M513.391 1407.71L505.177 1434.67L526.653 1447.46L535.32 1426.43L513.391 1407.71Z" fill="white" stroke="#263238" stroke-width="3.58794" stroke-linecap="round" stroke-linejoin="round"/>
<path d="M506.028 1425.98L532.082 1441.52L527.504 1449.74L502.844 1436.94C503.014 1433.09 504.106 1429.33 506.028 1425.98Z" fill="white" stroke="#263238" stroke-width="3.58794" stroke-linecap="round" stroke-linejoin="round"/>
<path d="M454.464 1568.48C454.464 1568.48 436.19 1577.62 431.16 1581.72C426.13 1585.83 425.226 1585.34 426.583 1588.58H485.077L483.701 1567.56L454.464 1568.48Z" fill="white" stroke="#263238" stroke-width="3.58794" stroke-linecap="round" stroke-linejoin="round"/>
<path d="M484.859 1585.43H426.583C425.787 1586.28 425.877 1586.97 426.583 1588.63H485.076L484.859 1585.43Z" fill="white" stroke="#263238" stroke-width="3.58794" stroke-linecap="round" stroke-linejoin="round"/>
<path d="M533.04 1459.8C533.04 1459.8 510.659 1450.66 492.386 1448.83C474.112 1447 436.19 1447.91 434.362 1456.07C432.535 1464.23 461.32 1553.77 461.32 1553.77C461.32 1553.77 456.291 1556.97 455.893 1559.2C455.495 1561.42 454.536 1568.24 454.536 1568.24L483.773 1572.8C483.773 1572.8 484.678 1563.67 484.678 1555C484.678 1546.33 474.637 1492.85 474.637 1492.85L533.565 1511.6L511.636 1558.18C511.636 1558.18 504.797 1571.9 512.559 1578.76C520.321 1585.61 533.112 1584.18 533.112 1584.18L637.29 1585.56L635.481 1568.64C635.481 1568.64 620.41 1566.36 617.66 1566.36C614.91 1566.36 562.368 1553.12 562.368 1553.12C562.368 1553.12 604.416 1509.24 608.975 1501.93C611.688 1497.89 613.536 1493.32 614.401 1488.53C615.267 1483.73 615.132 1478.81 614.005 1474.07C611.255 1463.11 609.427 1460.81 609.427 1460.81C609.427 1460.81 577.367 1476.21 560.921 1472.59C550.847 1470.28 541.356 1465.93 533.04 1459.8V1459.8Z" fill="#263238" stroke="#263238" stroke-width="3.58794" stroke-linecap="round" stroke-linejoin="round"/>
<path d="M458.571 1319.52C458.571 1319.52 461.773 1330.04 461.773 1331.41C461.773 1332.79 459.475 1339.62 461.321 1341.9C463.166 1344.18 468.558 1344.65 468.558 1344.65C468.558 1344.65 476.772 1354.24 480.427 1357.9C484.081 1361.55 488.188 1362.93 492.766 1360.65C497.343 1358.37 501.45 1352.42 501.45 1352.42L510.135 1361.1L530.236 1337.8L522.999 1328.66C522.999 1328.66 524.808 1318.15 517.969 1304.45C511.13 1290.76 487.356 1287.08 471.815 1289.83C456.273 1292.58 452.636 1301.7 452.636 1303.53C452.636 1305.36 458.571 1319.52 458.571 1319.52Z" fill="white" stroke="#263238" stroke-width="3.58794" stroke-linecap="round" stroke-linejoin="round"/>
<path d="M466.803 1277.95C466.803 1277.95 457.195 1270.71 450.809 1273.84C444.422 1276.97 447.19 1279.77 446.231 1285.26C445.272 1290.74 429.333 1291.19 429.333 1300.33C429.333 1309.46 440.749 1312.67 443.029 1313.12C445.308 1313.57 443.499 1323.63 450.266 1323.63C457.032 1323.63 458.498 1319.52 458.498 1319.52C458.498 1319.52 453.468 1304.9 458.95 1302.62C464.432 1300.34 476.772 1295.77 474.944 1304.43C473.117 1313.1 479.522 1315.85 483.176 1314.95C486.831 1314.04 491.391 1314.48 492.223 1316.3C493.055 1318.13 497.651 1321.33 497.651 1316.77C497.651 1312.21 499.93 1308.09 504.037 1308.09C508.144 1308.09 511.274 1314.95 510.895 1320.43C510.586 1323.73 509.329 1326.87 507.276 1329.47L522.818 1328.55C522.818 1328.55 526.925 1308 523.27 1293.38C519.615 1278.76 502.409 1270.64 491.915 1269.26C481.422 1267.89 468.16 1273.84 466.803 1277.95Z" fill="#263238" stroke="#263238" stroke-width="3.58794" stroke-linecap="round" stroke-linejoin="round"/>
<path d="M470.729 1327.68C471.869 1329.49 472.14 1331.3 471.362 1331.75C470.584 1332.21 468.992 1331.3 467.871 1329.56C466.749 1327.83 466.441 1325.95 467.237 1325.49C468.033 1325.04 469.589 1326.04 470.729 1327.68Z" fill="#263238"/>
<path d="M476.664 1348.2C478.847 1347.77 480.825 1346.62 482.291 1344.95C483.757 1343.27 484.628 1341.16 484.769 1338.94" stroke="#263238" stroke-width="3.58794" stroke-linecap="round" stroke-linejoin="round"/>
<path d="M462.75 1323.87C462.75 1323.87 463.51 1319.61 468.539 1321.55" stroke="#263238" stroke-width="3.58794" stroke-linecap="round" stroke-linejoin="round"/>
<path d="M511.112 1368.86C511.112 1368.86 507.493 1399.02 511.564 1408.16C515.635 1417.3 530.308 1453.84 530.308 1453.84C530.308 1453.84 527.106 1476.21 536.242 1482.18C545.379 1488.15 580.099 1489.03 593.361 1480.8C606.623 1472.57 612.087 1466.18 612.087 1460.25C612.087 1454.31 603.403 1428.26 589.706 1402.23C579.677 1383.16 565.833 1366.36 549.034 1352.87C539.445 1345.11 535.79 1341.45 533.963 1341.45C532.135 1341.45 510.207 1360.2 511.112 1368.86Z" fill="white" stroke="#263238" stroke-width="3.58794" stroke-linecap="round" stroke-linejoin="round"/>
<path d="M530.308 1335.52L505.63 1363.38L510.66 1378.47L538.522 1342.37L530.308 1335.52Z" fill="white" stroke="#263238" stroke-width="3.58794" stroke-linecap="round" stroke-linejoin="round"/>
<path d="M530.76 1437.4C530.76 1437.4 480.499 1466.18 474.112 1468.48C467.725 1470.78 447.154 1470.76 441.201 1470.29C440.471 1470.16 439.722 1470.19 439.005 1470.38C438.289 1470.58 437.624 1470.92 437.058 1471.4C436.491 1471.88 436.037 1472.48 435.727 1473.15C435.418 1473.83 435.261 1474.56 435.267 1475.3L434.362 1492.67C434.362 1492.67 439.374 1494.04 441.599 1492.67C443.825 1491.29 446.159 1486.26 446.159 1486.26C446.159 1486.26 454.391 1487.19 457.123 1485.36C458.916 1484.14 460.599 1482.77 462.153 1481.25C470.595 1480.55 478.987 1479.34 487.284 1477.63C496.42 1475.34 538.45 1461.64 544.855 1460.27C551.259 1458.89 553.539 1455.24 553.991 1453.03C554.444 1450.82 530.76 1437.4 530.76 1437.4Z" fill="white" stroke="#263238" stroke-width="3.58794" stroke-linecap="round" stroke-linejoin="round"/>
<path d="M473.461 1468.66C466.477 1470.74 446.973 1470.74 441.201 1470.31C440.471 1470.18 439.722 1470.21 439.005 1470.4C438.289 1470.6 437.624 1470.94 437.058 1471.42C436.491 1471.9 436.037 1472.5 435.727 1473.17C435.418 1473.84 435.261 1474.58 435.267 1475.32L434.362 1492.69C434.362 1492.69 439.374 1494.06 441.599 1492.69C443.825 1491.31 446.159 1486.28 446.159 1486.28C446.159 1486.28 454.391 1487.21 457.123 1485.38C458.916 1484.16 460.599 1482.79 462.153 1481.27C462.153 1481.27 469.824 1480.6 477.586 1479.46L473.461 1468.66Z" fill="#92E3A9" stroke="#263238" stroke-width="3.58794" stroke-linecap="round" stroke-linejoin="round"/>
<path d="M534.415 1369.33C534.415 1369.33 526.653 1378 527.558 1384.4C528.462 1390.81 530.76 1437.4 530.76 1437.4L556.796 1447.91L564.033 1410.91C564.033 1410.91 569.985 1401.3 569.062 1392.17" fill="white"/>
<path d="M534.415 1369.33C534.415 1369.33 526.653 1378 527.558 1384.4C528.462 1390.81 530.76 1437.4 530.76 1437.4L556.796 1447.91L564.033 1410.91C564.033 1410.91 569.985 1401.3 569.062 1392.17" stroke="#263238" stroke-width="3.58794" stroke-linecap="round" stroke-linejoin="round"/>
<path d="M528.481 1439.69L554.969 1455.67C554.969 1455.67 558.588 1455.67 559.094 1449.74C559.601 1443.8 562.278 1442.88 559.999 1439.69C557.719 1436.51 533.493 1426.43 531.213 1426.43C528.934 1426.43 526.654 1431.91 528.481 1439.69Z" fill="white" stroke="#263238" stroke-width="3.58794" stroke-linecap="round" stroke-linejoin="round"/>
<path d="M635.39 1568.98C635.39 1568.98 649.087 1557.12 651.384 1557.57C653.682 1558.02 671.938 1575.39 671.938 1575.39C671.938 1575.39 688.836 1584.53 688.836 1585.9C688.836 1587.28 686.104 1587.71 686.104 1587.71L637.254 1585.9L635.39 1568.98Z" fill="white" stroke="#263238" stroke-width="3.58794" stroke-linecap="round" stroke-linejoin="round"/>
<path d="M688.764 1585.9C688.764 1584.53 671.865 1575.39 671.865 1575.39C671.865 1575.39 653.592 1558.02 651.312 1557.57C650.498 1557.41 648.218 1558.82 645.649 1560.7L667.758 1576.29L683.861 1587.64L686.032 1587.73C686.032 1587.73 688.764 1587.26 688.764 1585.9Z" fill="white" stroke="#263238" stroke-width="3.58794" stroke-linecap="round" stroke-linejoin="round"/>
<path d="M533.492 1511.88L528.933 1492.69" stroke="#999999" stroke-width="3.58794" stroke-linecap="round" stroke-linejoin="round"/>
</svg>
