<svg width="1361" height="1204" viewBox="0 0 1361 1204" fill="none" xmlns="http://www.w3.org/2000/svg">
<g clip-path="url(#clip0_817_299)">
<path d="M1072.3 801.152H483L501.334 777.037H1048.59L1072.3 801.152Z" fill="white" stroke="#263238" stroke-width="2.7848" stroke-linecap="round" stroke-linejoin="round"/>
<path d="M833.441 780.334C827.034 777.71 820.836 774.617 814.888 771.072C814.888 771.072 849.174 600.757 850.459 544.801C851.738 488.847 859.352 373.168 859.352 373.168H705.829C705.829 373.168 713.443 488.883 714.722 544.801C716.007 600.72 743.048 771.072 743.048 771.072C737.106 774.623 730.908 777.716 724.495 780.334C716.263 783.445 705.978 787.65 711.099 789.625C718.089 791.874 725.483 792.575 732.764 791.677C743.524 788.816 753.892 784.664 763.654 779.305C767.752 776.235 773.278 444.347 773.278 444.347H784.259C784.259 444.347 790.041 776.235 794.14 779.305C803.907 784.67 814.287 788.822 825.059 791.677C832.334 792.569 839.716 791.874 846.688 789.625C851.738 787.543 841.566 783.445 833.441 780.334Z" fill="#263238" stroke="#263238" stroke-width="2.7848" stroke-linecap="round" stroke-linejoin="round"/>
<path d="M760.508 158.278L712.165 200.217V379.499H836.773V198.936L797.031 159.229L760.508 158.278Z" fill="white" stroke="#263238" stroke-width="2.7848" stroke-linecap="round" stroke-linejoin="round"/>
<path d="M790.185 202.486L777.925 196.85L768.633 201.241L776.354 226.309L763.214 359.737L775.658 373.167L790.185 359.188L781.292 226.309L790.185 202.486Z" fill="#92E3A9"/>
<path d="M694.818 191.142L617.087 289.474L669.674 295.512L695.514 272.201L694.818 191.142Z" fill="white" stroke="#263238" stroke-width="2.7848" stroke-linecap="round" stroke-linejoin="round"/>
<path d="M752.53 157.181L694.818 191.141V603.538H756.593V159.23L752.53 157.181Z" fill="white" stroke="#263238" stroke-width="2.7848" stroke-linecap="round" stroke-linejoin="round"/>
<path d="M858.841 191.142L937.628 279.337L885.043 285.375L858.4 272.201L858.841 191.142Z" fill="white" stroke="#263238" stroke-width="2.7848" stroke-linecap="round" stroke-linejoin="round"/>
<path d="M801.093 157.181L858.84 191.141V603.538H797.03V159.23L801.093 157.181Z" fill="white" stroke="#263238" stroke-width="2.7848" stroke-linecap="round" stroke-linejoin="round"/>
<path d="M778.257 196.85L750.514 209.475V173.173H804.972V209.475L778.257 196.85Z" fill="white" stroke="#263238" stroke-width="2.7848" stroke-linecap="round" stroke-linejoin="round"/>
<path d="M804.971 173.172L777.924 196.849L751.43 173.172V110.008H804.971V173.172Z" fill="white" stroke="#263238" stroke-width="2.7848" stroke-linecap="round" stroke-linejoin="round"/>
<g style="mix-blend-mode:multiply">
<g style="mix-blend-mode:multiply">
<path d="M750.591 150.741L769.798 172.992H787.257L804.971 153.413L803.288 134.859L751.43 132.407L750.591 150.741Z" fill="#E1BEE7"/>
</g>
</g>
<path d="M745.612 93.2487C745.612 93.2487 735.695 90.6505 736.683 97.6038C737.67 104.557 740.668 117.475 745.647 120.476L750.59 123.44L745.612 93.2487Z" fill="white" stroke="#263238" stroke-width="2.7848" stroke-linecap="round" stroke-linejoin="round"/>
<path d="M812.14 93.2487C812.14 93.2487 822.062 90.6505 821.074 97.6038C820.087 104.557 817.083 117.475 812.14 120.476L807.167 123.44L812.14 93.2487Z" fill="white" stroke="#263238" stroke-width="2.7848" stroke-linecap="round" stroke-linejoin="round"/>
<path d="M816.791 81.72C816.821 76.2502 815.661 70.8394 813.388 65.862C811.122 60.8846 807.797 56.4593 803.651 52.8923C799.505 49.3252 794.633 46.7014 789.375 45.2025C784.11 43.7036 778.59 43.3653 773.183 44.2109C767.782 45.0566 762.625 47.066 758.074 50.1003C753.524 53.1346 749.687 57.1213 746.826 61.7846C743.964 66.4479 742.156 71.6767 741.514 77.1091C740.877 82.5415 741.424 88.0479 743.126 93.2476L752.709 138.443L770.274 163.072H787.221L804.24 141.627L814.632 94.3089C816.059 90.2658 816.791 86.0085 816.791 81.72Z" fill="white" stroke="#263238" stroke-width="2.7848" stroke-linecap="round" stroke-linejoin="round"/>
<path d="M750.592 89.223C750.592 89.223 756.665 82.6358 762.114 84.8315C767.568 87.0273 765.445 93.6144 781.327 95.2612C790.256 96.3462 799.315 95.3951 807.827 92.48L808.666 78.72L750.479 70.7422L750.592 89.223Z" fill="#E1BEE7"/>
<path d="M808.665 78.7197C806.559 83.4527 805.22 88.494 804.715 93.6507C805.554 99.8016 807.231 105.81 809.688 111.509C809.688 111.509 821.585 86.6976 820.669 77.7316C819.753 68.7657 807.826 75.7554 808.665 78.7197Z" fill="#263238" stroke="#263238" stroke-width="2.7848" stroke-linecap="round" stroke-linejoin="round"/>
<path d="M746.089 109.533C746.089 109.533 746.089 107.996 746.344 105.653C746.892 99.2491 748.391 86.8799 752.055 84.6841C757.028 81.7199 756.516 66.057 756.516 66.057C756.516 66.057 749.563 73.8885 773.428 81.8297C797.287 89.7709 816.643 86.6969 829.563 69.7897C842.483 52.8825 830.55 40.9889 828.54 46.954C826.523 52.9191 822.574 60.8604 815.62 54.8953C808.666 48.9302 797.763 37 777.889 37C758.015 37 749.087 54.8953 749.087 54.8953C745.898 56.4435 743.192 58.8324 741.253 61.8051C739.319 64.7777 738.231 68.2214 738.112 71.7659C738.29 83.696 746.089 109.533 746.089 109.533Z" fill="#263238" stroke="#263238" stroke-width="2.7848" stroke-linecap="round" stroke-linejoin="round"/>
<path d="M815.981 78.0611C801.931 78.61 789.962 69.1317 777.738 60.7879C765.52 52.4441 757.246 60.7879 757.246 60.7879C758.198 56.2478 760.613 52.1463 764.128 49.117C767.638 46.0876 772.052 44.2988 776.68 44.0271C793.294 42.9659 798.635 65.765 814.155 67.7778" stroke="white" stroke-width="2.7848" stroke-linecap="round" stroke-linejoin="round"/>
<path d="M776.354 108.692H743.084L746.749 119.671C747.07 120.721 747.724 121.642 748.605 122.299C749.485 122.957 750.55 123.318 751.65 123.33H768.811C769.959 123.324 771.072 122.935 771.976 122.226C772.874 121.517 773.517 120.528 773.79 119.415L776.354 108.692Z" fill="white" stroke="#263238" stroke-width="2.7848" stroke-linecap="round" stroke-linejoin="round"/>
<path d="M813.203 108.692H779.976L783.634 119.671C783.949 120.721 784.586 121.644 785.466 122.302C786.34 122.961 787.405 123.321 788.5 123.33H805.667C806.815 123.332 807.939 122.947 808.843 122.237C809.753 121.527 810.402 120.534 810.675 119.415L813.203 108.692Z" fill="white" stroke="#263238" stroke-width="2.7848" stroke-linecap="round" stroke-linejoin="round"/>
<path d="M743.084 108.691L741.442 92.4785" stroke="#263238" stroke-width="2.7848" stroke-linecap="round" stroke-linejoin="round"/>
<path d="M813.204 108.692L817.011 93.3213" stroke="#263238" stroke-width="2.7848" stroke-linecap="round" stroke-linejoin="round"/>
<path d="M776.353 108.692H779.976" stroke="#263238" stroke-width="2.7848" stroke-linecap="round" stroke-linejoin="round"/>
<path d="M775.438 113.888H781.327" stroke="#263238" stroke-width="2.7848" stroke-linecap="round" stroke-linejoin="round"/>
<path d="M785.097 134.857C785.097 134.857 782.575 138.517 779.642 138.517C776.716 138.517 774.158 134.857 774.158 134.857" stroke="#263238" stroke-width="2.7848" stroke-linecap="round" stroke-linejoin="round"/>
<path d="M751.579 157.218L757.248 210.062L756.665 328.888L724.092 216.979L742.758 208.525L722.741 199.669L740.967 162.378L751.579 157.218Z" fill="white" stroke="#263238" stroke-width="2.7848" stroke-linecap="round" stroke-linejoin="round"/>
<path d="M805.334 157.218L797.137 206.366L797.428 330.608L832.857 216.979L814.191 208.525L834.172 199.669L815.946 162.378L805.334 157.218Z" fill="white" stroke="#263238" stroke-width="2.7848" stroke-linecap="round" stroke-linejoin="round"/>
<path d="M699.427 294.195L722.15 280.837V293.389L699.427 294.195Z" fill="white" stroke="#263238" stroke-width="2.7848" stroke-linecap="round" stroke-linejoin="round"/>
<path d="M810.789 268.358C810.789 268.358 802.152 255.037 799.041 255.037C795.93 255.037 788.833 266.785 790.404 270.737C791.98 274.689 800.617 265.248 800.617 265.248L806.875 282.484L810.789 268.358Z" fill="white" stroke="#263238" stroke-width="2.7848" stroke-linecap="round" stroke-linejoin="round"/>
<path d="M807.827 272.201L796.079 273.007C792.777 275.305 789.042 276.9 785.098 277.69C779.608 278.496 776.461 280.069 781.184 283.985C785.901 287.901 796.079 281.643 796.079 281.643L807.827 286.328C808.779 285.415 809.54 284.319 810.058 283.105C810.575 281.891 810.843 280.584 810.843 279.264C810.843 277.944 810.575 276.638 810.058 275.423C809.54 274.21 808.779 273.114 807.827 272.201Z" fill="white" stroke="#263238" stroke-width="2.7848" stroke-linecap="round" stroke-linejoin="round"/>
<path d="M812.359 295.732C815.078 298.445 818.641 300.149 822.46 300.562C828.682 301.148 841.638 291.56 841.638 291.56L839.371 281.423L821.33 275.678L812.359 295.732Z" fill="white" stroke="#263238" stroke-width="2.7848" stroke-linecap="round" stroke-linejoin="round"/>
<path d="M810.788 263.601C810.788 263.601 799.04 279.264 799.04 282.411C799.04 285.558 808.444 295.732 812.359 295.732C814.922 295.732 821.62 291.048 825.903 287.79C826.421 287.404 826.861 286.918 827.2 286.362C827.533 285.804 827.753 285.187 827.848 284.545C827.943 283.903 827.908 283.248 827.753 282.618C827.592 281.988 827.313 281.395 826.926 280.874C822.459 274.726 813.643 263.601 810.788 263.601Z" fill="white" stroke="#263238" stroke-width="2.7848" stroke-linecap="round" stroke-linejoin="round"/>
<path d="M803.288 288.192L817.374 270.15" stroke="#263238" stroke-width="2.7848" stroke-linecap="round" stroke-linejoin="round"/>
<path d="M824.143 279.154L807.826 293.244" stroke="#263238" stroke-width="2.7848" stroke-linecap="round" stroke-linejoin="round"/>
<path d="M831.905 277.178V325.777L925.736 314.798C930.12 314.188 934.123 311.985 936.984 308.61C939.845 305.235 941.368 300.924 941.249 296.501V289.511C941.208 287.093 940.672 284.71 939.691 282.502C938.703 280.294 937.288 278.307 935.515 276.658C933.748 275.009 931.666 273.732 929.394 272.904C927.122 272.075 924.707 271.712 922.298 271.835L831.905 277.178Z" fill="white" stroke="#263238" stroke-width="2.7848" stroke-linecap="round" stroke-linejoin="round"/>
<path d="M777.739 346.233H728.522C726.815 346.235 725.179 345.576 723.953 344.395C722.722 343.215 722.002 341.604 721.931 339.902L718.969 259.392C718.945 258.51 719.1 257.632 719.415 256.809C719.736 255.987 720.218 255.236 720.831 254.602C721.443 253.968 722.181 253.463 722.99 253.117C723.799 252.77 724.673 252.589 725.56 252.585H780.672C781.552 252.584 782.427 252.762 783.241 253.107C784.056 253.451 784.794 253.956 785.407 254.591C786.019 255.226 786.501 255.979 786.822 256.804C787.138 257.628 787.286 258.508 787.257 259.392L784.294 339.902C784.235 341.601 783.521 343.212 782.296 344.393C781.076 345.574 779.44 346.234 777.739 346.233Z" fill="#263238" stroke="#263238" stroke-width="2.7848" stroke-linecap="round" stroke-linejoin="round"/>
<path d="M699.428 294.158L718.237 287.9L748.062 288.669C748.062 288.669 751.173 294.158 748.062 294.964C744.951 295.768 731.597 296.537 731.597 296.537L749.639 300.453C749.639 300.453 749.639 305.942 746.486 305.942C743.339 305.942 729.218 314.578 725.298 317.69C721.384 320.8 697.084 316.152 697.084 316.152L686.104 315.347V295.732L699.428 294.158Z" fill="white" stroke="#263238" stroke-width="2.7848" stroke-linecap="round" stroke-linejoin="round"/>
<path d="M692.361 291.815V340.451L620.234 331.046C615.852 330.429 611.847 328.225 608.981 324.853C606.114 321.48 604.584 317.173 604.681 312.748V305.795C604.727 303.381 605.257 301.001 606.24 298.795C607.223 296.59 608.639 294.604 610.403 292.956C612.167 291.308 614.244 290.03 616.512 289.2C618.779 288.369 621.19 288.001 623.601 288.119L692.361 291.815Z" fill="white" stroke="#263238" stroke-width="2.7848" stroke-linecap="round" stroke-linejoin="round"/>
<path d="M858.84 418.511H819.277V430.148H858.84V418.511Z" fill="white" stroke="#263238" stroke-width="2.7848" stroke-linecap="round" stroke-linejoin="round"/>
<path d="M734.375 418.511H694.818V430.148H734.375V418.511Z" fill="white" stroke="#263238" stroke-width="2.7848" stroke-linecap="round" stroke-linejoin="round"/>
<path d="M976.529 788.672V530.346C976.529 523.189 978.058 516.115 981.014 509.596C983.965 503.077 988.277 497.263 993.655 492.542L1042.99 449.396C1048.27 444.766 1052.51 439.061 1055.42 432.661C1058.32 426.261 1059.82 419.315 1059.82 412.288V393.002C1059.82 389.447 1059.12 385.927 1057.76 382.644C1056.4 379.36 1054.4 376.378 1051.88 373.866C1049.37 371.354 1046.39 369.363 1043.1 368.006C1039.81 366.649 1036.29 365.953 1032.74 365.958H674.581C667.407 365.958 660.525 368.807 655.457 373.879C650.384 378.951 647.534 385.829 647.534 393.002V419.314C647.524 431.856 642.735 443.922 634.14 453.055L590.225 499.642C581.484 508.964 576.617 521.263 576.612 534.042V788.672" stroke="#263238" stroke-width="2.7848" stroke-linecap="round" stroke-linejoin="round"/>
<path d="M573.063 635.668V788.673" stroke="white" stroke-width="2.7848" stroke-linecap="round" stroke-linejoin="round"/>
<path d="M643.875 407.422V419.315C643.865 431.857 639.075 443.923 630.481 453.056L586.566 499.643C577.824 508.964 572.957 521.263 572.952 534.042V612.979" stroke="white" stroke-width="2.7848" stroke-linecap="round" stroke-linejoin="round"/>
<path d="M686.103 365.958H670.917C663.749 365.958 656.867 368.807 651.796 373.879C646.724 378.951 643.875 385.829 643.875 393.002" stroke="white" stroke-width="2.7848" stroke-linecap="round" stroke-linejoin="round"/>
<path d="M972.871 692.357V530.347C972.871 523.191 974.4 516.117 977.356 509.598C980.307 503.079 984.619 497.265 989.997 492.544L1039.33 449.398C1044.62 444.768 1048.85 439.063 1051.75 432.663C1054.66 426.263 1056.16 419.317 1056.16 412.29V393.004" stroke="white" stroke-width="2.7848" stroke-linecap="round" stroke-linejoin="round"/>
<path d="M972.871 788.674V712.046" stroke="white" stroke-width="2.7848" stroke-linecap="round" stroke-linejoin="round"/>
<path d="M623.747 739.611H522.561V812.515H623.747V739.611Z" fill="#92E3A9" stroke="#263238" stroke-width="2.7848" stroke-linecap="round" stroke-linejoin="round"/>
<path d="M623.747 814.562H522.561V866.384H623.747V814.562Z" fill="#92E3A9" stroke="#263238" stroke-width="2.7848" stroke-linecap="round" stroke-linejoin="round"/>
<path d="M1021.8 814.562H920.608V866.384H1021.8V814.562Z" fill="#92E3A9" stroke="#263238" stroke-width="2.7848" stroke-linecap="round" stroke-linejoin="round"/>
<path d="M603.548 906.309H542.836L522.598 866.419H623.786L603.548 906.309Z" fill="#92E3A9" stroke="#263238" stroke-width="2.7848" stroke-linecap="round" stroke-linejoin="round"/>
<path d="M535.918 867.848L549.203 899.939" stroke="#263238" stroke-width="2.7848" stroke-linecap="round" stroke-linejoin="round"/>
<path d="M554.509 882.664L555.826 886.364" stroke="#263238" stroke-width="2.7848" stroke-linecap="round" stroke-linejoin="round"/>
<path d="M549.202 868.776L552.716 878.621" stroke="#263238" stroke-width="2.7848" stroke-linecap="round" stroke-linejoin="round"/>
<path d="M1001.6 907.238H940.851L920.608 867.348H1021.83L1001.6 907.238Z" fill="#92E3A9" stroke="#263238" stroke-width="2.7848" stroke-linecap="round" stroke-linejoin="round"/>
<path d="M931.262 868.776L944.545 898.304" stroke="#263238" stroke-width="2.7848" stroke-linecap="round" stroke-linejoin="round"/>
<path d="M944.546 868.776L950.548 881.548" stroke="#263238" stroke-width="2.7848" stroke-linecap="round" stroke-linejoin="round"/>
<path d="M1000.86 891.825L996.362 900.867" stroke="#263238" stroke-width="2.7848" stroke-linecap="round" stroke-linejoin="round"/>
<path d="M1012.32 868.776L1003.14 887.294" stroke="#263238" stroke-width="2.7848" stroke-linecap="round" stroke-linejoin="round"/>
<path d="M1021.8 740.538H920.608V813.442H1021.8V740.538Z" fill="#92E3A9" stroke="#263238" stroke-width="2.7848" stroke-linecap="round" stroke-linejoin="round"/>
<path d="M632.969 813.4H911.46V854.022C911.46 863.73 907.605 873.039 900.747 879.904C893.882 886.762 884.573 890.617 874.865 890.617H669.198C659.496 890.617 650.185 886.762 643.322 879.904C636.459 873.039 632.604 863.73 632.604 854.022V813.4H632.969Z" fill="#92E3A9" stroke="#263238" stroke-width="2.7848" stroke-linecap="round" stroke-linejoin="round"/>
<path d="M1072.3 803.01H483V848.831H1072.3V803.01Z" fill="#92E3A9" stroke="#263238" stroke-width="2.7848" stroke-linecap="round" stroke-linejoin="round"/>
<path d="M483 830.604H663.487L714.65 816.512H963.829L975.613 804.692" stroke="#263238" stroke-width="2.7848" stroke-linecap="round" stroke-linejoin="round"/>
<path d="M119.387 1113.53L383.278 1110.74L987.105 1101.96L1221.98 1081.98L1263.15 1090.11C1263.15 1090.11 1285.8 1071.59 1284.04 1024.93C1282.29 978.272 1246.02 900.503 1135.43 893.591C1024.84 886.673 962.586 959.237 936.681 995.541C910.769 1031.84 407.798 1042.2 407.798 1042.2C407.798 1042.2 397.441 940.25 305.842 916.058C214.243 891.865 155.507 922.976 120.961 960.849C86.4143 998.729 96.7711 1097.39 96.7711 1097.39L119.387 1113.53Z" fill="#263238" stroke="#263238" stroke-width="2.7848" stroke-linecap="round" stroke-linejoin="round"/>
<path d="M540.64 784.972C540.64 784.972 563.915 780.142 565.854 791.777C567.794 803.419 566.842 809.236 561.024 812.127C552.122 815.839 542.246 816.523 532.918 814.066C530.737 813.531 528.73 812.442 527.089 810.908C525.448 809.373 524.228 807.44 523.545 805.304C522.863 803.163 522.74 800.885 523.189 798.684C523.638 796.483 524.645 794.43 526.112 792.729C530.234 788.976 535.228 786.311 540.64 784.972Z" fill="white" stroke="#263238" stroke-width="2.7848" stroke-linecap="round" stroke-linejoin="round"/>
<path d="M1359.65 946.834C1357.71 939.078 1319.91 918.728 1319.91 918.728C1319.91 918.728 1285 867.494 1265.63 848.941C1255.07 838.71 1243.73 829.317 1231.71 820.835C1231.71 820.835 1273.4 816.956 1273.4 810.187C1273.4 803.418 1263.7 802.424 1256.89 800.485C1250.09 798.546 1200.68 799.533 1200.68 799.533H920.578L644.351 815.017L559.084 820.835C559.084 820.835 555.205 810.187 547.447 810.187C540.946 809.961 534.467 809.313 528.051 808.248C528.051 808.248 524.172 799.533 537.749 786.911C551.326 774.282 621.111 731.686 621.111 731.686C620.599 725.154 617.857 718.992 613.354 714.233C608.601 708.957 602.599 704.953 595.901 702.592L564.903 697.762C560.035 697.762 484.392 738.461 376.874 821.822C376.874 821.822 231.48 833.457 159.752 857.685C88.0247 881.913 56.0401 908.08 41.5116 944.895C41.5116 944.895 43.4512 957.518 39.5721 961.396C35.6929 965.28 9.52706 973.989 3.70833 983.685C-2.11037 993.381 8.57555 1066.06 8.57555 1066.06C8.57555 1066.06 -3.06185 1073.82 1.76877 1081.61C6.59942 1089.41 39.5721 1103.9 66.7264 1108.73C83.6496 1111.7 100.78 1113.33 117.96 1113.6H119.278C116.349 1099.26 114.939 1084.65 115.069 1070.01C114.774 1052.13 118.041 1034.38 124.679 1017.77C131.318 1001.17 141.195 986.052 153.735 973.305C166.274 960.557 181.226 950.433 197.718 943.521C214.211 936.609 231.914 933.052 249.796 933.052C267.678 933.052 285.381 936.609 301.873 943.521C318.366 950.433 333.317 960.557 345.857 973.305C358.397 986.052 368.273 1001.17 374.912 1017.77C381.55 1034.38 384.817 1052.13 384.523 1070.01C384.523 1085.2 384.047 1098.7 383.169 1110.82H394.147L439.709 1107.93L986.85 1102.15C985.898 1092.37 985.386 1081.73 985.386 1070.12C985.089 1051.61 988.474 1033.22 995.356 1016.02C1002.23 998.823 1012.46 983.173 1025.46 969.974C1038.44 956.768 1053.93 946.287 1071.01 939.131C1088.09 931.975 1106.43 928.287 1124.94 928.287C1143.47 928.287 1161.8 931.975 1178.88 939.131C1195.96 946.287 1211.44 956.768 1224.44 969.974C1237.42 983.173 1247.66 998.823 1254.53 1016.02C1261.41 1033.22 1264.8 1051.61 1264.5 1070.12C1264.5 1076.87 1264.01 1083.61 1263.04 1090.29L1312.95 1079.82L1353.68 1036.2C1356.75 1028.82 1358.39 1020.92 1358.51 1012.93C1358.66 1000.16 1361.59 954.591 1359.65 946.834Z" fill="white"/>
<path d="M1358.66 1012.74C1358.66 1006.52 1359.36 992.323 1359.87 978.565C1155.45 848.175 1035.67 916.939 882.556 960.85C716.589 1008.43 512.937 927.914 326.299 909.617C221.635 899.373 113.532 931.572 38.767 962.058C32.9483 966.192 9.23428 974.502 3.70834 983.686C-1.81761 992.871 8.57555 1066.07 8.57555 1066.07C8.57555 1066.07 -3.06185 1073.82 1.76877 1081.62C6.59942 1089.41 39.5721 1103.9 66.7264 1108.73C83.6496 1111.7 100.781 1113.33 117.96 1113.6H119.278C116.349 1099.26 114.939 1084.65 115.069 1070.02C114.774 1052.13 118.041 1034.38 124.68 1017.77C131.318 1001.17 141.195 986.054 153.735 973.306C166.274 960.559 181.226 950.435 197.718 943.523C214.211 936.61 231.914 933.053 249.796 933.053C267.678 933.053 285.381 936.61 301.873 943.523C318.366 950.435 333.317 960.559 345.857 973.306C358.397 986.054 368.274 1001.17 374.912 1017.77C381.55 1034.38 384.817 1052.13 384.523 1070.02C384.523 1085.2 384.047 1098.71 383.169 1110.82H394.147L439.709 1107.93L986.85 1102.15C985.898 1092.38 985.387 1081.73 985.387 1070.12C985.089 1051.61 988.474 1033.22 995.356 1016.02C1002.23 998.825 1012.46 983.175 1025.46 969.975C1038.44 956.77 1053.93 946.289 1071.01 939.133C1088.09 931.977 1106.43 928.289 1124.94 928.289C1143.47 928.289 1161.8 931.977 1178.88 939.133C1195.96 946.289 1211.44 956.77 1224.44 969.975C1237.42 983.175 1247.66 998.825 1254.54 1016.02C1261.41 1033.22 1264.8 1051.61 1264.5 1070.12C1264.5 1076.87 1264.01 1083.61 1263.04 1090.29L1312.95 1079.82L1353.68 1036.2C1356.83 1028.77 1358.52 1020.81 1358.66 1012.74Z" fill="#92E3A9"/>
<path opacity="0.5" d="M1358.66 1012.74C1358.66 1006.52 1359.36 992.323 1359.87 978.565C1155.45 848.175 1035.67 916.939 882.556 960.85C716.589 1008.43 512.937 927.914 326.299 909.617C221.635 899.373 113.532 931.572 38.767 962.058C32.9483 966.192 9.23428 974.502 3.70834 983.686C-1.81761 992.871 8.57555 1066.07 8.57555 1066.07C8.57555 1066.07 -3.06185 1073.82 1.76877 1081.62C6.59942 1089.41 39.5721 1103.9 66.7264 1108.73C83.6496 1111.7 100.781 1113.33 117.96 1113.6H119.278C116.349 1099.26 114.939 1084.65 115.069 1070.02C114.774 1052.13 118.041 1034.38 124.68 1017.77C131.318 1001.17 141.195 986.054 153.735 973.306C166.274 960.559 181.226 950.435 197.718 943.523C214.211 936.61 231.914 933.053 249.796 933.053C267.678 933.053 285.381 936.61 301.873 943.523C318.366 950.435 333.317 960.559 345.857 973.306C358.397 986.054 368.274 1001.17 374.912 1017.77C381.55 1034.38 384.817 1052.13 384.523 1070.02C384.523 1085.2 384.047 1098.71 383.169 1110.82H394.147L439.709 1107.93L986.85 1102.15C985.898 1092.38 985.387 1081.73 985.387 1070.12C985.089 1051.61 988.474 1033.22 995.356 1016.02C1002.23 998.825 1012.46 983.175 1025.46 969.975C1038.44 956.77 1053.93 946.289 1071.01 939.133C1088.09 931.977 1106.43 928.289 1124.94 928.289C1143.47 928.289 1161.8 931.977 1178.88 939.133C1195.96 946.289 1211.44 956.77 1224.44 969.975C1237.42 983.175 1247.66 998.825 1254.54 1016.02C1261.41 1033.22 1264.8 1051.61 1264.5 1070.12C1264.5 1076.87 1264.01 1083.61 1263.04 1090.29L1312.95 1079.82L1353.68 1036.2C1356.83 1028.77 1358.52 1020.81 1358.66 1012.74Z" fill="white"/>
<path d="M1359.65 946.834C1357.71 939.078 1319.91 918.728 1319.91 918.728C1319.91 918.728 1285 867.494 1265.63 848.941C1255.07 838.71 1243.73 829.317 1231.71 820.835C1231.71 820.835 1273.4 816.956 1273.4 810.187C1273.4 803.418 1263.7 802.424 1256.89 800.485C1250.09 798.546 1200.68 799.533 1200.68 799.533H920.578L644.351 815.017L559.084 820.835C559.084 820.835 555.205 810.187 547.447 810.187C540.946 809.961 534.467 809.313 528.051 808.248C528.051 808.248 524.172 799.533 537.749 786.911C551.326 774.282 621.111 731.686 621.111 731.686C620.599 725.154 617.857 718.992 613.354 714.233C608.601 708.957 602.599 704.953 595.901 702.592L564.903 697.762C560.035 697.762 484.392 738.461 376.874 821.822C376.874 821.822 231.48 833.457 159.752 857.685C88.0247 881.913 56.0401 908.08 41.5116 944.895C41.5116 944.895 43.4512 957.518 39.5721 961.396C35.6929 965.28 9.52706 973.989 3.70833 983.685C-2.11037 993.381 8.57555 1066.06 8.57555 1066.06C8.57555 1066.06 -3.06185 1073.82 1.76877 1081.61C6.59942 1089.41 39.5721 1103.9 66.7264 1108.73C83.6496 1111.7 100.78 1113.33 117.96 1113.6H119.278C116.349 1099.26 114.939 1084.65 115.069 1070.01C114.774 1052.13 118.041 1034.38 124.679 1017.77C131.318 1001.17 141.195 986.052 153.735 973.305C166.274 960.557 181.226 950.433 197.718 943.521C214.211 936.609 231.914 933.052 249.796 933.052C267.678 933.052 285.381 936.609 301.873 943.521C318.366 950.433 333.317 960.557 345.857 973.305C358.397 986.052 368.273 1001.17 374.912 1017.77C381.55 1034.38 384.817 1052.13 384.523 1070.01C384.523 1085.2 384.047 1098.7 383.169 1110.82H394.147L439.709 1107.93L986.85 1102.15C985.898 1092.37 985.386 1081.73 985.386 1070.12C985.089 1051.61 988.474 1033.22 995.356 1016.02C1002.23 998.823 1012.46 983.173 1025.46 969.974C1038.44 956.768 1053.93 946.287 1071.01 939.131C1088.09 931.975 1106.43 928.287 1124.94 928.287C1143.47 928.287 1161.8 931.975 1178.88 939.131C1195.96 946.287 1211.44 956.768 1224.44 969.974C1237.42 983.173 1247.66 998.823 1254.53 1016.02C1261.41 1033.22 1264.8 1051.61 1264.5 1070.12C1264.5 1076.87 1264.01 1083.61 1263.04 1090.29L1312.95 1079.82L1353.68 1036.2C1356.75 1028.82 1358.39 1020.92 1358.51 1012.93C1358.66 1000.16 1361.59 954.591 1359.65 946.834Z" stroke="#263238" stroke-width="2.7848" stroke-linecap="round" stroke-linejoin="round"/>
<path d="M585.25 727.807C585.25 727.807 491.236 782.081 444.723 846.05L1207.49 805.357L1158.78 799.533H920.578L644.351 815.017L559.084 820.835C559.084 820.835 555.205 810.187 547.447 810.187C540.946 809.961 534.467 809.313 528.051 808.248C528.051 808.248 524.172 799.533 537.749 786.911C551.326 774.282 621.111 731.686 621.111 731.686C620.599 725.154 617.857 718.992 613.354 714.233C608.601 708.957 602.599 704.953 595.901 702.592L564.903 697.762C564.903 697.762 585.25 710.355 585.25 727.807Z" fill="white" stroke="#263238" stroke-width="2.7848" stroke-linecap="round" stroke-linejoin="round"/>
<path d="M771.082 751.048C766.883 750.614 762.671 751.774 759.287 754.296C755.896 756.812 753.576 760.512 752.785 764.658C751.233 771.981 750.34 779.428 750.114 786.911C750.114 801.55 771.451 812.127 771.451 812.127L760.762 827.64L805.375 825.701C805.405 821.739 804.751 817.801 803.436 814.066L801.497 810.187C801.497 810.187 807.314 803.418 797.612 783.033C787.916 762.648 779.315 752.036 771.451 751.048H771.082Z" fill="#263238" stroke="#263238" stroke-width="2.7848" stroke-linecap="round" stroke-linejoin="round"/>
<path d="M954.502 800.486L969.141 816.005L1167.85 810.188L1194.02 808.249C1194.02 808.249 1204.67 808.249 1200.79 799.534C1199.5 796.923 1197.59 794.674 1195.22 792.979C1192.85 791.29 1190.1 790.207 1187.21 789.838C1187.21 789.838 1183.33 778.203 1178.5 774.325C1175.32 771.386 1171.19 769.673 1166.87 769.495C1163.98 769.495 1159.1 753.975 1152.23 753.975C1145.35 753.975 1124.12 761.732 1121.19 763.671C1118.27 765.61 1098.91 748.158 1085.37 751.049C1071.83 753.94 995.231 785.96 985.535 789.838C975.833 793.717 954.502 800.486 954.502 800.486Z" fill="#263238" stroke="#263238" stroke-width="2.7848" stroke-linecap="round" stroke-linejoin="round"/>
<path d="M1045.62 793.717C1045.62 793.717 1043.68 747.206 1037.86 742.483C1032.05 737.766 1021.4 732.787 1017.52 735.713L1013.64 738.604C1013.64 738.604 1008.77 732.787 1000.06 737.653C991.353 742.519 987.475 764.772 987.475 774.468C987.517 777.376 988.141 780.243 989.301 782.908C990.467 785.567 992.144 787.976 994.244 789.987L977.773 799.683L986.487 813.222L1045.62 793.717Z" fill="#263238" stroke="#263238" stroke-width="2.7848" stroke-linecap="round" stroke-linejoin="round"/>
<path d="M559.084 820.835C559.084 820.835 555.205 810.187 547.447 810.187C540.946 809.961 534.467 809.313 528.051 808.248C528.051 808.248 524.172 799.533 537.749 786.911C551.326 774.282 621.111 731.686 621.111 731.686C620.599 725.154 617.857 718.992 613.354 714.233C608.601 708.957 602.599 704.953 595.901 702.592L564.903 697.762C564.903 697.762 585.25 710.355 585.25 727.807C585.25 727.807 491.236 782.081 444.723 846.05L569.55 839.388L559.084 820.835Z" fill="#263238" stroke="#263238" stroke-width="2.7848" stroke-linecap="round" stroke-linejoin="round"/>
<path d="M489.296 798.547C489.296 798.547 503.935 794.668 512.534 802.425C521.135 810.188 524.172 828.592 519.341 831.703C514.511 834.814 493.175 834.594 493.175 834.594L503.825 844.296L479.599 845.242L478.611 834.594C478.611 834.594 465.07 825.886 467.009 815.202C468.949 804.513 489.296 798.547 489.296 798.547Z" fill="white" stroke="#263238" stroke-width="2.7848" stroke-linecap="round" stroke-linejoin="round"/>
<path d="M1286.94 875.108C1286.94 875.108 1233.65 835.402 1137.7 847.001C1041.74 858.601 966.137 894.577 935.14 1048.61" stroke="#263238" stroke-width="2.7848" stroke-linecap="round" stroke-linejoin="round"/>
<path d="M945.788 1072.83C945.788 1072.83 954.502 1067.02 951.611 1061.19C949.47 1057.13 946.264 1053.73 942.338 1051.34C938.412 1048.96 933.915 1047.69 929.323 1047.66C917.688 1047.66 434.037 1064.13 434.037 1064.13L436.964 1085.42L945.788 1072.83Z" stroke="#263238" stroke-width="2.7848" stroke-linecap="round" stroke-linejoin="round"/>
<path d="M434.037 1064.13C434.037 1064.13 434.037 1006.93 414.678 970.111C395.319 933.296 367.104 899.372 300.28 874.96C233.456 850.554 115.179 890.479 115.179 890.479C86.837 902.971 62.8785 923.66 46.3791 949.875L42.5 956.644" stroke="#263238" stroke-width="2.7848" stroke-linecap="round" stroke-linejoin="round"/>
<path d="M96.4786 946.614C76.6441 964.912 55.2722 974.132 48.9045 967.071C42.5369 960.01 53.113 939.369 72.9478 920.995C92.7828 902.626 114.118 893.477 120.522 900.538C126.926 907.605 116.277 928.246 96.4786 946.614Z" stroke="#263238" stroke-width="2.7848" stroke-linecap="round" stroke-linejoin="round"/>
<path d="M3.67236 1025.37C5.61193 1045.9 8.57622 1066.07 8.57622 1066.07C8.57622 1066.07 36.6816 1074.77 46.3795 1073.82C56.0774 1072.87 59.9202 1069.94 63.7991 1053.47C67.6781 1037.01 58.9684 1031.15 58.9684 1031.15L3.70897 1025.33L3.67236 1025.37Z" fill="#263238" stroke="#263238" stroke-width="2.7848" stroke-linecap="round" stroke-linejoin="round"/>
<path d="M818.325 900.318H808.629C804.655 900.312 800.842 898.73 798.029 895.916C795.221 893.102 793.633 889.295 793.627 885.316C793.627 881.336 795.203 877.512 798.017 874.692C800.831 871.873 804.649 870.284 808.629 870.278H818.325C820.306 870.278 822.257 870.665 824.083 871.42C825.909 872.176 827.569 873.282 828.961 874.68C830.358 876.078 831.465 877.738 832.226 879.558C832.982 881.384 833.368 883.341 833.368 885.316C833.356 889.301 831.768 893.114 828.949 895.928C826.129 898.742 822.31 900.324 818.325 900.318Z" fill="white" stroke="#263238" stroke-width="2.7848" stroke-linecap="round" stroke-linejoin="round"/>
<path d="M792.64 891.723C790.802 891.723 789.041 890.992 787.744 889.695C786.447 888.398 785.722 886.637 785.722 884.805C785.722 882.973 786.447 881.213 787.744 879.916C789.041 878.619 790.802 877.887 792.64 877.887L844.968 876.936C846.794 876.93 848.549 877.632 849.858 878.893C851.172 880.16 851.94 881.885 851.993 883.705C852.017 884.615 851.856 885.519 851.523 886.364C851.196 887.214 850.702 887.988 850.072 888.642C849.447 889.296 848.692 889.826 847.859 890.189C847.032 890.551 846.134 890.754 845.224 890.772L792.895 891.723H792.64Z" fill="white" stroke="#263238" stroke-width="2.7848" stroke-linecap="round" stroke-linejoin="round"/>
<path d="M1144.98 1186.81C1205.93 1176.96 1247.36 1119.56 1237.51 1058.62C1227.65 997.669 1170.26 956.245 1109.31 966.095C1048.36 975.946 1006.94 1033.34 1016.79 1094.28C1026.64 1155.23 1084.04 1196.66 1144.98 1186.81Z" fill="#263238" stroke="#263238" stroke-width="2.7848" stroke-linecap="round" stroke-linejoin="round"/>
<path d="M1137.46 1145.47C1179.19 1138.65 1207.49 1099.3 1200.67 1057.57C1193.86 1015.84 1154.5 987.54 1112.77 994.357C1071.04 1001.18 1042.74 1040.53 1049.56 1082.26C1056.38 1123.99 1095.74 1152.29 1137.46 1145.47Z" fill="white" stroke="#263238" stroke-width="2.7848" stroke-linecap="round" stroke-linejoin="round"/>
<path d="M1157.28 1102.16C1175.08 1084.37 1175.08 1055.52 1157.28 1037.73C1139.49 1019.93 1110.64 1019.93 1092.85 1037.73C1075.06 1055.52 1075.06 1084.37 1092.85 1102.16C1110.64 1119.96 1139.49 1119.96 1157.28 1102.16Z" stroke="#263238" stroke-width="2.7848" stroke-linecap="round" stroke-linejoin="round"/>
<path d="M1145.46 1069.94C1145.46 1065.91 1144.27 1061.97 1142.04 1058.6C1139.8 1055.25 1136.63 1052.63 1132.9 1051.08C1129.17 1049.53 1125.07 1049.12 1121.12 1049.91C1117.16 1050.69 1113.53 1052.63 1110.67 1055.48C1107.82 1058.33 1105.87 1061.96 1105.08 1065.92C1104.3 1069.87 1104.69 1073.97 1106.23 1077.7C1107.78 1081.42 1110.39 1084.61 1113.74 1086.85C1117.1 1089.09 1121.04 1090.29 1125.07 1090.29C1127.75 1090.29 1130.4 1089.77 1132.87 1088.75C1135.34 1087.73 1137.59 1086.23 1139.49 1084.34C1141.38 1082.45 1142.88 1080.21 1143.91 1077.74C1144.93 1075.27 1145.46 1072.61 1145.46 1069.94Z" stroke="#263238" stroke-width="2.7848" stroke-linecap="round" stroke-linejoin="round"/>
<path d="M267.058 1185.28C328.005 1175.43 369.428 1118.04 359.578 1057.09C349.728 996.146 292.335 954.721 231.387 964.572C170.439 974.422 129.017 1031.81 138.867 1092.76C148.717 1153.71 206.109 1195.13 267.058 1185.28Z" fill="#263238" stroke="#263238" stroke-width="2.7848" stroke-linecap="round" stroke-linejoin="round"/>
<path d="M267.53 1144.47C308.661 1134.67 334.061 1093.39 324.262 1052.25C314.463 1011.12 273.176 985.725 232.046 995.522C190.915 1005.32 165.515 1046.61 175.314 1087.74C185.113 1128.87 226.399 1154.27 267.53 1144.47Z" fill="white" stroke="#263238" stroke-width="2.7848" stroke-linecap="round" stroke-linejoin="round"/>
<path d="M260.533 1114.22C285.015 1108.4 300.148 1083.84 294.334 1059.35C288.519 1034.88 263.959 1019.74 239.477 1025.56C214.995 1031.37 199.862 1055.93 205.676 1080.41C211.49 1104.9 236.05 1120.03 260.533 1114.22Z" stroke="#263238" stroke-width="2.7848" stroke-linecap="round" stroke-linejoin="round"/>
<path d="M270.235 1069.94C270.235 1065.92 269.042 1061.99 266.806 1058.64C264.57 1055.29 261.393 1052.68 257.674 1051.15C253.957 1049.61 249.865 1049.2 245.919 1049.99C241.972 1050.77 238.346 1052.71 235.5 1055.56C232.655 1058.4 230.717 1062.03 229.932 1065.97C229.147 1069.92 229.55 1074.01 231.09 1077.73C232.63 1081.45 235.238 1084.62 238.584 1086.86C241.93 1089.1 245.864 1090.29 249.888 1090.29C255.284 1090.29 260.46 1088.15 264.276 1084.33C268.091 1080.51 270.235 1075.34 270.235 1069.94Z" stroke="#263238" stroke-width="2.7848" stroke-linecap="round" stroke-linejoin="round"/>
<path d="M855.948 825.445C865.341 851.375 868.94 879.041 866.489 906.505C862.825 953.789 834.945 1050.62 834.945 1050.62C837.27 1054.81 838.02 1059.7 837.062 1064.39C836.105 1069.09 833.493 1073.29 829.71 1076.24" stroke="#263238" stroke-width="2.7848" stroke-linecap="round" stroke-linejoin="round"/>
<path d="M444.723 846.05C439.381 852.23 434.696 858.952 430.743 866.102C426.022 875.584 424.449 991.043 424.449 991.043" stroke="#263238" stroke-width="2.7848" stroke-linecap="round" stroke-linejoin="round"/>
<path d="M403.151 833.678C410.47 830.495 421.448 815.38 460.093 783.068C498.738 750.757 560.512 715.839 560.512 715.839L548.765 705.376C520.439 720.711 457.714 759.245 376.765 821.822L364.213 835.254C364.213 835.254 395.831 836.83 403.151 833.678Z" fill="#263238" stroke="#263238" stroke-width="2.7848" stroke-linecap="round" stroke-linejoin="round"/>
<path d="M376.509 821.786C373.947 821.971 355.649 823.505 329.922 826.396C329.922 833.243 364.322 835.182 364.322 835.182L376.509 821.786Z" stroke="#263238" stroke-width="2.7848" stroke-linecap="round" stroke-linejoin="round"/>
<path d="M1315.81 921.179C1315.81 921.179 1309.18 897.284 1281.3 876.06C1253.42 854.83 1227.58 861.421 1224.94 874.079C1222.31 886.744 1241.52 908.556 1263.4 919.829C1285.29 931.095 1303.4 925.831 1315.81 921.179Z" fill="#263238" stroke="#263238" stroke-width="2.7848" stroke-linecap="round" stroke-linejoin="round"/>
<path d="M1251.25 957.518C1251.25 957.518 1278.92 985.184 1284.19 1024.93C1284.19 1024.93 1282.47 1033.56 1294.59 1033.56C1314.03 1033.56 1333.32 1030 1351.49 1023.06" stroke="#263238" stroke-width="2.7848" stroke-linecap="round" stroke-linejoin="round"/>
<path d="M1359.65 946.835C1359.65 946.835 1358.41 950.493 1332.49 962.717C1316.74 970.016 1299.71 974.132 1282.36 974.828" fill="#92E3A9"/>
<path d="M3.7085 983.686C3.7085 983.686 15.5289 969.636 55.2718 988.629C70.4062 996.059 86.3789 1001.65 102.846 1005.28" stroke="#263238" stroke-width="2.7848" stroke-linecap="round" stroke-linejoin="round"/>
<path d="M12.0894 1078.5C37.1522 1083.27 62.6249 1085.53 88.1353 1085.27C88.1353 1085.27 81.2185 1012.67 138.235 957.19" stroke="#263238" stroke-width="2.7848" stroke-linecap="round" stroke-linejoin="round"/>
<path d="M-47.4355 1203.96H1409.63" stroke="#263238" stroke-width="3.38826" stroke-linecap="round" stroke-linejoin="round"/>
</g>
<defs>
<clipPath id="clip0_817_299">
<rect width="1361" height="1203.96" fill="white"/>
</clipPath>
</defs>
</svg>
