<svg width="2855" height="1753" viewBox="0 0 2855 1753" fill="none" xmlns="http://www.w3.org/2000/svg">
<path d="M1204.5 944.5L8 1262.5L1204.5 1315.5L2524.5 944.5H1204.5Z" fill="#92E3A9"/>
<path d="M597.921 505.44H593.367C588.835 505.44 584.368 504.37 580.332 502.31C576.297 500.25 572.807 497.26 570.149 493.59C567.491 489.92 565.74 485.67 565.041 481.19C564.342 476.72 564.714 472.14 566.127 467.832C571.862 450.122 581.56 432.243 597.921 429.545C631.654 423.894 724.419 452.061 724.419 471.71C724.419 491.36 724.419 499.79 713.119 499.79H642.87L586.62 561.69L585.439 560.68C582.534 558.25 580.197 555.21 578.593 551.78C576.99 548.35 576.158 544.61 576.158 540.82C576.158 537.03 576.99 533.29 578.593 529.86C580.197 526.43 582.534 523.39 585.439 520.96C590.456 516.54 594.677 511.29 597.921 505.44Z" fill="#263238" stroke="#263238" stroke-width="7" stroke-linecap="round" stroke-linejoin="round"/>
<path d="M1233.2 1028.3H2166.5C2166.5 1028.3 2301.43 938.32 2273.27 702.19C2245.1 466.061 2093.39 623.51 2037.14 780.96H1621.12C1621.12 780.96 1531.14 600.99 1384.99 623.51C1238.85 646.03 1233.2 1028.3 1233.2 1028.3Z" fill="#263238" stroke="#263238" stroke-width="7" stroke-linecap="round" stroke-linejoin="round"/>
<path d="M1462.5 981.58C1462.5 912.18 1442.68 849.77 1410.88 805.67V739.89H1298.38C1207.64 739.89 1134.19 848.09 1134.19 981.58C1134.19 1115.08 1207.64 1222.86 1298.38 1222.86H1410.88V1157.08C1442.68 1113.23 1462.5 1050.91 1462.5 981.58Z" fill="#263238" stroke="#263238" stroke-width="7" stroke-linecap="round" stroke-linejoin="round"/>
<path d="M1410.88 1223.2C1501.57 1223.2 1575.08 1115.02 1575.08 981.58C1575.08 848.15 1501.57 739.97 1410.88 739.97C1320.2 739.97 1246.69 848.15 1246.69 981.58C1246.69 1115.02 1320.2 1223.2 1410.88 1223.2Z" fill="#263238"/>
<path opacity="0.2" d="M1410.88 1223.2C1501.57 1223.2 1575.08 1115.02 1575.08 981.58C1575.08 848.15 1501.57 739.97 1410.88 739.97C1320.2 739.97 1246.69 848.15 1246.69 981.58C1246.69 1115.02 1320.2 1223.2 1410.88 1223.2Z" fill="white"/>
<path d="M1410.88 1223.2C1501.57 1223.2 1575.08 1115.02 1575.08 981.58C1575.08 848.15 1501.57 739.97 1410.88 739.97C1320.2 739.97 1246.69 848.15 1246.69 981.58C1246.69 1115.02 1320.2 1223.2 1410.88 1223.2Z" stroke="#263238" stroke-width="7" stroke-linecap="round" stroke-linejoin="round"/>
<path d="M448.314 739.89H341.634C255.952 739.89 186.462 848.09 186.462 981.58C186.462 1115.08 256.289 1222.86 341.634 1222.86H447.977C533.658 1222.86 603.148 1114.66 603.148 981.25C603.148 847.83 533.996 739.89 448.314 739.89Z" fill="#263238" stroke="#263238" stroke-width="7" stroke-linecap="round" stroke-linejoin="round"/>
<path d="M1410.88 1174.37C1483.22 1174.37 1541.85 1088.06 1541.85 981.58C1541.85 875.11 1483.22 788.8 1410.88 788.8C1338.55 788.8 1279.92 875.11 1279.92 981.58C1279.92 1088.06 1338.55 1174.37 1410.88 1174.37Z" fill="white" stroke="#263238" stroke-width="7" stroke-linecap="round" stroke-linejoin="round"/>
<path d="M2231.36 981.58C2231.36 912.18 2218.71 849.77 2198.47 805.67V739.89H2099.12C2041.44 739.89 1994.63 848.09 1994.63 981.58C1994.63 1115.08 2041.44 1222.86 2099.12 1222.86H2198.47V1157.08C2218.71 1113.23 2231.36 1050.91 2231.36 981.58Z" fill="#263238" stroke="#263238" stroke-width="7" stroke-linecap="round" stroke-linejoin="round"/>
<path d="M2198.46 1223.2C2256.17 1223.2 2302.95 1115.02 2302.95 981.58C2302.95 848.15 2256.17 739.97 2198.46 739.97C2140.76 739.97 2093.98 848.15 2093.98 981.58C2093.98 1115.02 2140.76 1223.2 2198.46 1223.2Z" fill="#263238"/>
<path opacity="0.2" d="M2198.46 1223.2C2256.17 1223.2 2302.95 1115.02 2302.95 981.58C2302.95 848.15 2256.17 739.97 2198.46 739.97C2140.76 739.97 2093.98 848.15 2093.98 981.58C2093.98 1115.02 2140.76 1223.2 2198.46 1223.2Z" fill="white"/>
<path d="M2198.46 1223.2C2256.17 1223.2 2302.95 1115.02 2302.95 981.58C2302.95 848.15 2256.17 739.97 2198.46 739.97C2140.76 739.97 2093.98 848.15 2093.98 981.58C2093.98 1115.02 2140.76 1223.2 2198.46 1223.2Z" stroke="#263238" stroke-width="7" stroke-linecap="round" stroke-linejoin="round"/>
<path d="M2198.46 1174.37C2244.48 1174.37 2281.78 1088.06 2281.78 981.58C2281.78 875.11 2244.48 788.8 2198.46 788.8C2152.45 788.8 2115.14 875.11 2115.14 981.58C2115.14 1088.06 2152.45 1174.37 2198.46 1174.37Z" fill="white" stroke="#263238" stroke-width="7" stroke-linecap="round" stroke-linejoin="round"/>
<path d="M1272.49 1040.53C1272.49 848 1339.45 691.9 1421.93 691.9C1504.41 691.9 1571.37 848 1571.37 1040.53C1571.37 1051.16 1571.37 1061.62 1570.69 1071.9H2103.08C2102.75 1061.62 2102.58 1051.16 2102.58 1040.53C2102.58 848 2151.32 691.9 2211.45 691.9C2251.59 691.9 2286.68 761.65 2305.48 865.37V581.01C2305.48 568.04 2300.95 555.49 2292.66 545.52C2284.37 535.56 2272.86 528.81 2260.11 526.44L2257.58 525.94C2220.64 518.52 2154.27 448.435 2050.97 359.886C1947.66 271.337 1855.4 264 1855.4 264H923.527C905.885 264.069 888.767 270.003 874.867 280.866L557.018 526.19C557.018 526.19 272.902 581.51 210.159 644.26C147.416 707 154.837 1072.16 154.837 1072.16H1273.17C1272.75 1061.62 1272.49 1051.16 1272.49 1040.53Z" fill="#B9BAFA"/>
<path opacity="0.3" d="M1457.01 525.94L1506.35 264H923.526C905.884 264.069 888.766 270.003 874.866 280.866L557.017 526.19C557.017 526.19 272.902 581.51 210.158 644.26C147.415 707 154.836 1072.16 154.836 1072.16H1152.66C1159.91 874.99 1205.11 781.21 1205.11 781.21H929.598C1143.21 550.39 1457.01 525.94 1457.01 525.94Z" fill="black"/>
<path d="M1272.49 1040.53C1272.49 848 1339.45 691.9 1421.93 691.9C1504.41 691.9 1571.37 848 1571.37 1040.53C1571.37 1051.16 1571.37 1061.62 1570.69 1071.9H2103.08C2102.75 1061.62 2102.58 1051.16 2102.58 1040.53C2102.58 848 2151.32 691.9 2211.45 691.9C2251.59 691.9 2286.68 761.65 2305.48 865.37V581.01C2305.48 568.04 2300.95 555.49 2292.66 545.52C2284.37 535.56 2272.86 528.81 2260.11 526.44L2257.58 525.94C2220.64 518.52 2154.27 448.435 2050.97 359.886C1947.66 271.337 1855.4 264 1855.4 264H923.527C905.885 264.069 888.767 270.003 874.867 280.866L557.018 526.19C557.018 526.19 272.902 581.51 210.159 644.26C147.416 707 154.837 1072.16 154.837 1072.16H1273.17C1272.75 1061.62 1272.49 1051.16 1272.49 1040.53Z" stroke="#263238" stroke-width="7" stroke-linecap="round" stroke-linejoin="round"/>
<path d="M1626.69 264H923.527C905.885 264.069 888.767 270.003 874.867 280.866L557.018 526.19H1457.01L1626.69 264Z" fill="#B9BAFA" stroke="#263238" stroke-width="7" stroke-linecap="round" stroke-linejoin="round"/>
<path d="M1258.33 624.61C1207.73 625.28 1119.09 628.65 1080.72 644C1048.93 656.49 1018.09 671.28 988.463 688.28H1169.19L1258.33 624.61Z" fill="#263238" stroke="#263238" stroke-width="7" stroke-linecap="round" stroke-linejoin="round"/>
<path d="M1180.32 743.6V710.37H988.463L1023.21 742.42C1022.66 742.75 1022.15 743.14 1021.69 743.6H1180.32Z" fill="#263238" stroke="#263238" stroke-width="7" stroke-linecap="round" stroke-linejoin="round"/>
<path d="M1198.7 695.61V743.85C1206.17 743.2 1213.39 740.84 1219.79 736.95C1226.2 733.06 1231.62 727.75 1235.64 721.42C1254.11 691.9 1295.6 624.61 1295.6 624.61L1198.7 695.61Z" fill="#263238" stroke="#263238" stroke-width="7" stroke-linecap="round" stroke-linejoin="round"/>
<path d="M227.869 742.16L262.614 710.12H180.727C178.197 720.49 175.836 731.62 173.812 743.35H229.387C228.913 742.91 228.406 742.52 227.869 742.16Z" fill="#263238" stroke="#263238" stroke-width="7" stroke-linecap="round" stroke-linejoin="round"/>
<path d="M200.462 656.74C194.808 666.72 190.282 677.29 186.969 688.28H262.867C242.657 676.63 221.824 666.1 200.462 656.74Z" fill="#263238" stroke="#263238" stroke-width="7" stroke-linecap="round" stroke-linejoin="round"/>
<path d="M1457.01 525.94H2002.98C2002.98 525.94 2080.48 500.13 2058.3 404.161C2050.8 371.608 1895.96 297.227 1873.87 297.227H1608.22L1457.01 525.94Z" fill="#263238"/>
<path opacity="0.2" d="M1457.01 525.94H2002.98C2002.98 525.94 2080.48 500.13 2058.3 404.161C2050.8 371.608 1895.96 297.227 1873.87 297.227H1608.22L1457.01 525.94Z" fill="white" stroke="#263238" stroke-width="7" stroke-linecap="round" stroke-linejoin="round"/>
<path d="M1457.01 525.94H2002.98C2002.98 525.94 2080.48 500.13 2058.3 404.161C2050.8 371.608 1895.96 297.227 1873.87 297.227H1608.22L1457.01 525.94Z" stroke="#263238" stroke-width="7" stroke-linecap="round" stroke-linejoin="round"/>
<path d="M853.194 297.227L556.765 525.94H1457.01L1605.19 297.227H853.194Z" fill="#263238" stroke="#263238" stroke-width="7" stroke-linecap="round" stroke-linejoin="round"/>
<path d="M276.444 695.61V773.12L331.766 813.68H778.138L881.445 769.4V695.61H276.444Z" fill="#263238" stroke="#263238" stroke-width="7" stroke-linecap="round" stroke-linejoin="round"/>
<path opacity="0.3" d="M297.106 695.61H276.444V716.27H297.106V695.61Z" fill="white"/>
<path opacity="0.3" d="M319.877 718.47H299.215V739.13H319.877V718.47Z" fill="white"/>
<path opacity="0.3" d="M342.73 741.24H322.068V761.9H342.73V741.24Z" fill="white"/>
<path opacity="0.3" d="M365.5 764.09H344.838V784.75H365.5V764.09Z" fill="white"/>
<path opacity="0.3" d="M877.398 695.61H856.736V716.27H877.398V695.61Z" fill="white"/>
<path opacity="0.3" d="M854.543 718.47H833.881V739.13H854.543V718.47Z" fill="white"/>
<path opacity="0.3" d="M831.773 741.24H811.112V761.9H831.773V741.24Z" fill="white"/>
<path opacity="0.3" d="M809.003 764.09H788.341V784.75H809.003V764.09Z" fill="white"/>
<path opacity="0.3" d="M397.209 764.09H376.547V784.75H397.209V764.09Z" fill="white"/>
<path opacity="0.3" d="M428.832 764.09H408.171V784.75H428.832V764.09Z" fill="white"/>
<path opacity="0.3" d="M460.542 764.09H439.881V784.75H460.542V764.09Z" fill="white"/>
<path opacity="0.3" d="M492.251 764.09H471.59V784.75H492.251V764.09Z" fill="white"/>
<path opacity="0.3" d="M523.876 764.09H503.215V784.75H523.876V764.09Z" fill="white"/>
<path opacity="0.3" d="M555.585 764.09H534.924V784.75H555.585V764.09Z" fill="white"/>
<path opacity="0.3" d="M587.21 764.09H566.548V784.75H587.21V764.09Z" fill="white"/>
<path opacity="0.3" d="M618.919 764.09H598.258V784.75H618.919V764.09Z" fill="white"/>
<path opacity="0.3" d="M650.628 764.09H629.966V784.75H650.628V764.09Z" fill="white"/>
<path opacity="0.3" d="M682.252 764.09H661.591V784.75H682.252V764.09Z" fill="white"/>
<path opacity="0.3" d="M713.96 764.09H693.299V784.75H713.96V764.09Z" fill="white"/>
<path opacity="0.3" d="M745.585 764.09H724.924V784.75H745.585V764.09Z" fill="white"/>
<path opacity="0.3" d="M777.295 764.09H756.634V784.75H777.295V764.09Z" fill="white"/>
<path d="M1095.4 909.56H176.848L164.536 811.15C158.885 865.29 156.102 922.89 155.175 970.28L158.379 983.36L176.848 946.5H255.614L206.702 986.73H937.105L911.047 946.17H1095.73L1147.43 975.68H1184.28V787.87L1095.4 909.56Z" fill="#263238" stroke="#263238" stroke-width="7" stroke-linecap="round" stroke-linejoin="round"/>
<path d="M1649.21 505.44H1644.65C1640.13 505.43 1635.67 504.35 1631.65 502.28C1627.62 500.21 1624.14 497.22 1621.5 493.55C1618.85 489.89 1617.1 485.64 1616.41 481.17C1615.72 476.7 1616.09 472.13 1617.5 467.832C1623.15 450.122 1632.93 432.243 1649.21 429.545C1682.94 423.894 1775.71 452.061 1775.71 471.71C1775.71 491.36 1775.71 499.79 1764.49 499.79H1694.24L1637.99 561.69L1636.81 560.68C1633.91 558.25 1631.57 555.21 1629.97 551.78C1628.36 548.35 1627.53 544.61 1627.53 540.82C1627.53 537.03 1628.36 533.29 1629.97 529.86C1631.57 526.43 1633.91 523.39 1636.81 520.96C1641.8 516.54 1645.99 511.29 1649.21 505.44Z" fill="#B9BAFA"/>
<path d="M1816.86 525.94H1847.73C1844.44 480.65 1831.53 380.969 1780.85 297.227H1749.99C1767.78 335.767 1809.95 435.195 1816.86 525.94Z" fill="#263238" stroke="#263238" stroke-width="7" stroke-linecap="round" stroke-linejoin="round"/>
<path d="M1151.65 359.296L1162.95 390.161C1149.06 403.396 1140.97 421.584 1140.43 440.761V525.94H1071.19L1129.21 359.296H1151.65ZM828.4 401.462C780.921 430.388 709.238 494.23 674.409 525.94H905.564L1025.15 342.429L946.465 347.995C904.943 360.581 865.249 378.556 828.4 401.462ZM1306.31 378.945L1278.14 373.295H1238.85L1227.55 384.595C1227.55 384.595 1255.71 387.378 1258.5 404.245C1260.41 421.042 1261.34 437.938 1261.28 454.844H1281.01C1281.01 454.844 1281.01 423.894 1295.01 409.895C1302.96 401.861 1311.41 394.34 1320.31 387.378L1306.31 378.945Z" fill="white" stroke="#263238" stroke-width="7" stroke-linecap="round" stroke-linejoin="round"/>
<path d="M1636.81 560.68L1637.99 561.69L1694.24 499.79H1764.49C1773.77 499.79 1775.37 493.97 1775.62 480.82H1616.4C1617.36 487.64 1620.74 493.88 1625.93 498.41C1631.12 502.93 1637.77 505.43 1644.65 505.44H1649.21C1645.97 511.29 1641.75 516.54 1636.73 520.96C1633.83 523.4 1631.5 526.44 1629.9 529.87C1628.3 533.31 1627.48 537.05 1627.49 540.84C1627.5 544.63 1628.33 548.37 1629.95 551.8C1631.56 555.22 1633.9 558.26 1636.81 560.68Z" fill="#263238" stroke="#263238" stroke-width="7" stroke-linecap="round" stroke-linejoin="round"/>
<path d="M1810.28 593.82H1747.03V607.4H1810.28V593.82Z" fill="#263238"/>
<path d="M2095.07 593.82H2031.82V607.4H2095.07V593.82Z" fill="#263238"/>
<path d="M2099.54 539.77C2099.54 539.77 2145.34 570.89 2171.9 679.93C2171.9 679.93 2058.9 693.419 2058.9 1005.37" stroke="#263238" stroke-width="7" stroke-linecap="round" stroke-linejoin="round"/>
<path d="M2045.15 1018.69H1571.03C1571.03 1025.94 1571.03 1033.2 1571.03 1040.53C1571.03 1051.16 1571.03 1061.62 1570.36 1071.9H2102.75C2102.41 1061.62 2102.24 1051.16 2102.24 1040.53V1038.42L2045.15 1018.69Z" fill="#263238" stroke="#263238" stroke-width="7" stroke-linecap="round" stroke-linejoin="round"/>
<path d="M1272.5 1040.53C1272.5 1033.2 1272.5 1025.94 1272.5 1018.69H154.5C154.5 1051.16 154.5 1071.9 154.5 1071.9H1273.17C1272.75 1061.62 1272.5 1051.16 1272.5 1040.53Z" fill="#263238" stroke="#263238" stroke-width="7" stroke-linecap="round" stroke-linejoin="round"/>
<path d="M2285.66 566.75C2280.05 566.75 2274.52 568.22 2269.64 571C2264.76 573.78 2260.68 577.78 2257.82 582.61C2254.95 587.45 2253.39 592.94 2253.29 598.56C2253.19 604.18 2254.55 609.72 2257.24 614.65L2305.48 703.2V581.01C2305.42 576.19 2304.74 571.4 2303.46 566.75H2285.66Z" fill="#263238" stroke="#263238" stroke-width="7" stroke-linecap="round" stroke-linejoin="round"/>
<path d="M1851.61 572.91C1851.61 572.91 1952.8 719.06 1851.61 966.49" stroke="#263238" stroke-width="7" stroke-linecap="round" stroke-linejoin="round"/>
<path d="M1851.28 1674C2342.72 1674 2741.1 1663.64 2741.1 1650.86C2741.1 1638.09 2342.72 1627.73 1851.28 1627.73C1359.85 1627.73 961.466 1638.09 961.466 1650.86C961.466 1663.64 1359.85 1674 1851.28 1674Z" fill="#2E353A"/>
<path d="M2692.75 1389.95C2678.03 1372.29 2671.04 1372.11 2668.18 1373.46C2668.18 1364.14 2668.18 1354.65 2668.18 1344.99C2678.38 1353.67 2687.28 1361 2687.28 1361C2683.43 1345.74 2676.62 1331.39 2667.22 1318.77C2666.62 1308 2665.79 1297.07 2664.62 1286.56C2663.75 1278.7 2663.06 1270.72 2662.41 1262.73C2665.92 1276.66 2669.35 1292.07 2680.38 1303.1C2689.76 1313.08 2698.46 1323.68 2706.42 1334.83C2706.42 1334.83 2698.13 1298.98 2681.59 1283.83C2673.77 1277.04 2667.16 1268.98 2662.02 1260C2660.71 1242.37 2659.89 1224.58 2659.45 1207.13C2659.96 1199.61 2659.96 1192.07 2659.45 1184.56L2658.98 1185.17C2658.98 1182.43 2658.98 1179.74 2658.98 1177.09C2659.41 1188.5 2662.58 1199.64 2668.21 1209.58C2673.85 1219.51 2681.78 1227.94 2691.36 1234.17C2691.36 1234.17 2691.36 1201.1 2676.21 1181.78C2661.06 1162.46 2659.67 1166.63 2659.67 1166.63C2659.37 1169.19 2659.19 1171.71 2659.15 1174.1C2659.15 1149.62 2659.72 1126.74 2660.54 1107.08C2661.28 1114.78 2664.3 1122.08 2669.22 1128.04C2683.02 1143.19 2696.78 1143.19 2696.78 1143.19C2696.78 1143.19 2691.27 1111.51 2681.63 1101.83C2675.45 1095.8 2668.71 1090.38 2661.49 1085.64C2662.93 1059.59 2664.45 1042.88 2664.49 1042.23C2664.52 1041.96 2664.5 1041.7 2664.42 1041.44C2664.34 1041.18 2664.22 1040.94 2664.05 1040.74C2663.88 1040.53 2663.67 1040.36 2663.43 1040.24C2663.19 1040.11 2662.93 1040.04 2662.67 1040.02C2662.13 1039.98 2661.61 1040.15 2661.2 1040.49C2660.78 1040.83 2660.52 1041.31 2660.45 1041.84C2660.45 1042.71 2655.24 1098.27 2654.98 1167.72C2653.2 1156.43 2650.12 1145.39 2645.78 1134.81C2637.53 1118.23 2623.73 1119.62 2623.73 1119.62C2623.16 1119.51 2622.58 1119.44 2622 1119.41C2620.35 1081.38 2619.61 1046.92 2619.39 1018.4C2625.47 1036.46 2652.68 1072.74 2652.68 1072.74C2652.68 1072.74 2652.68 1021.74 2641.66 1014.84C2638.29 1012.93 2634.55 1011.79 2630.7 1011.48C2626.85 1011.17 2622.97 1011.71 2619.35 1013.06C2619.35 1001.04 2619.35 990.144 2619.35 980.595L2621.04 980.377L2619.35 979.249C2619.35 952.381 2620.09 936.408 2620.09 935.843C2620.1 935.577 2620.06 935.312 2619.96 935.063C2619.87 934.813 2619.73 934.584 2619.55 934.39C2619.37 934.196 2619.15 934.04 2618.9 933.932C2618.66 933.824 2618.4 933.765 2618.13 933.76C2617.86 933.748 2617.6 933.789 2617.34 933.881C2617.09 933.973 2616.86 934.114 2616.66 934.295C2616.47 934.477 2616.31 934.695 2616.19 934.939C2616.08 935.182 2616.02 935.445 2616.01 935.713C2616.01 936.147 2615.48 951.209 2615.31 976.645C2609.49 973.389 2600.38 969.439 2593.61 972.044C2582.58 976.384 2575.68 1023.05 2575.68 1023.05C2575.68 1023.05 2594.26 988.321 2615.44 981.419C2615.44 1008.9 2615.44 1047.18 2617.09 1091.76C2612.19 1091.11 2594.95 1089.67 2586.71 1100.44C2577.03 1112.81 2563.27 1155.56 2563.27 1155.56L2617.09 1093.62C2617.38 1102.3 2617.73 1111.22 2618.13 1120.36C2616.96 1121.66 2617.44 1124.18 2618.44 1127.13C2619.83 1156 2621.69 1186.82 2624.34 1218.28C2616.52 1227.01 2609.46 1236.39 2603.24 1246.32C2588.05 1269.76 2586.71 1305.62 2586.71 1305.62C2586.71 1305.62 2620.82 1270.11 2627.55 1254.35C2630.29 1286.17 2632.37 1316.03 2633.93 1343.34C2630.26 1352.73 2625.01 1361.42 2618.39 1369.03C2604.59 1385.57 2604.59 1422.81 2604.59 1422.81C2604.59 1422.81 2630.63 1410.66 2635.36 1370.42C2639.44 1456.06 2638.4 1510.49 2638.36 1511.27C2638.35 1511.54 2638.4 1511.81 2638.5 1512.06C2638.6 1512.31 2638.74 1512.53 2638.93 1512.73C2639.11 1512.92 2639.33 1513.08 2639.58 1513.18C2639.82 1513.29 2640.09 1513.35 2640.36 1513.36C2640.62 1513.36 2640.89 1513.31 2641.13 1513.22C2641.38 1513.12 2641.61 1512.97 2641.8 1512.79C2641.99 1512.6 2642.14 1512.38 2642.24 1512.13C2642.34 1511.89 2642.4 1511.63 2642.4 1511.36C2642.4 1510.4 2644.09 1425.46 2635.23 1300.58C2635.66 1305.65 2636.93 1310.61 2639.01 1315.25C2641.7 1320.59 2653.03 1331.36 2664.01 1341.08C2664.32 1352.93 2664.32 1364.6 2664.01 1376.02C2658.79 1380.68 2655.3 1386.97 2654.12 1393.86C2650.96 1408.88 2648.66 1424.07 2647.21 1439.35C2654.65 1431.61 2659.97 1422.09 2662.67 1411.7C2660.69 1448.27 2656.66 1484.7 2650.6 1520.82C2650.51 1521.36 2650.63 1521.9 2650.94 1522.35C2651.25 1522.8 2651.72 1523.1 2652.25 1523.21H2652.64C2653.12 1523.21 2653.58 1523.03 2653.95 1522.73C2654.31 1522.42 2654.56 1521.99 2654.64 1521.52C2662.56 1473.86 2667.06 1425.7 2668.09 1377.41C2670.65 1381.75 2676.17 1391 2683.11 1400.89C2692.75 1414.7 2716.19 1435.36 2716.19 1435.36C2716.19 1435.36 2713.45 1414.78 2692.75 1389.95ZM2656.89 1308.61C2634.84 1292.07 2634.84 1286.56 2634.84 1286.56C2634.7 1289.27 2634.7 1291.97 2634.84 1294.68C2633.58 1277.32 2632.11 1259.26 2630.5 1240.59C2630.82 1232.23 2630.09 1223.86 2628.33 1215.68C2626.29 1190.85 2624.73 1166.67 2623.47 1143.5C2627.81 1153.65 2646.61 1179.39 2655.37 1191.24V1191.72C2650.78 1200.44 2647.18 1209.66 2644.65 1219.2C2640.43 1233.32 2641.41 1248.49 2647.43 1261.95C2651.43 1251.98 2654.47 1241.64 2656.5 1231.09C2657.37 1249.84 2658.72 1268.76 2660.84 1287.17C2661.8 1296.11 2662.55 1305.07 2663.1 1314.04C2661.17 1312.08 2659.09 1310.27 2656.89 1308.61Z" fill="#2E353A"/>
<path d="M2683.59 1659.24H2610.88L2595.35 1495.65H2699.17L2683.59 1659.24Z" fill="#2E353A"/>
<path d="M2025.31 1070.08V1228.12H1842.57C1832.85 1228.12 1823.21 1230.03 1814.22 1233.75C1805.23 1237.47 1797.07 1242.92 1790.19 1249.8C1783.3 1256.67 1777.85 1264.84 1774.12 1273.83C1770.4 1282.81 1768.48 1292.45 1768.48 1302.17C1768.48 1321.82 1776.29 1340.67 1790.18 1354.57C1804.08 1368.46 1822.92 1376.27 1842.57 1376.27C1846.88 1376.27 1851.01 1377.98 1854.05 1381.02C1857.1 1384.07 1858.81 1388.19 1858.81 1392.5V1639.91H2207.18V1070.08C2207.18 1046.06 2197.7 1023 2180.79 1005.93C2163.89 988.864 2140.92 979.16 2116.9 978.931C2104.89 978.874 2092.99 981.189 2081.88 985.744C2070.77 990.299 2060.67 997.005 2052.16 1005.47C2043.65 1013.94 2036.9 1024.01 2032.29 1035.1C2027.68 1046.19 2025.31 1058.08 2025.31 1070.08Z" fill="#92E3A9" stroke="#2E353A" stroke-width="4" stroke-miterlimit="10"/>
<path d="M2083.17 1070.08V1228.12H1900.43C1890.71 1228.12 1881.07 1230.03 1872.08 1233.75C1863.09 1237.47 1854.93 1242.92 1848.05 1249.8C1841.16 1256.67 1835.71 1264.84 1831.98 1273.83C1828.26 1282.81 1826.34 1292.45 1826.34 1302.17C1826.34 1321.82 1834.15 1340.67 1848.04 1354.57C1861.94 1368.46 1880.78 1376.27 1900.43 1376.27C1904.74 1376.27 1908.87 1377.98 1911.91 1381.02C1914.96 1384.07 1916.67 1388.2 1916.67 1392.5V1639.91H2265.17V1070.08C2265.17 1046.06 2255.69 1023 2238.78 1005.93C2221.88 988.865 2198.91 979.16 2174.89 978.931C2162.87 978.857 2150.96 981.16 2139.83 985.707C2128.71 990.255 2118.59 996.957 2110.07 1005.43C2101.55 1013.9 2094.78 1023.97 2090.16 1035.07C2085.55 1046.17 2083.17 1058.07 2083.17 1070.08Z" fill="#92E3A9" stroke="#2E353A" stroke-width="4" stroke-miterlimit="10"/>
<path d="M2131.22 1333.99L2059.6 1347.01C2059.6 1347.01 2057.43 1383.91 2044.41 1407.78C2035.47 1422.76 2021.69 1434.24 2005.35 1440.33L1987.98 1520.63C1987.98 1520.63 2029.22 1616.13 2029.22 1626.98C2029.22 1637.83 2014.03 1640 2014.03 1640H1927.22V1307.95H2142.07L2131.22 1333.99Z" fill="#2E353A"/>
<path d="M2053.53 1273.57V1066.48C2053.53 1017.82 2094.37 978.366 2144.68 978.366H2522.31C2572.66 978.366 2613.46 1017.82 2613.46 1066.48V1308.55H2134.57L2053.53 1273.57Z" fill="#92E3A9" stroke="#2E353A" stroke-width="4" stroke-miterlimit="10"/>
<path d="M2366.61 978.323L2358.62 1011.75L2406.85 1026.46C2406.85 1026.46 2426.77 1033.62 2434.93 1051.85C2443.09 1070.08 2448.3 1109.32 2448.3 1109.32L2449.65 1146.74V1221.13H2293.39L2314.74 1014.52L2334.79 979.799L2366.61 978.323Z" fill="#2E353A"/>
<path d="M2238.39 1432.69C2176.09 1438.82 2113.52 1441.64 2050.92 1441.16C1956.38 1439.77 1899.96 1429.87 1899.96 1429.87" stroke="#2E353A" stroke-width="4" stroke-miterlimit="10"/>
<path d="M2217.9 1021.04C2217.9 1021.04 2045.41 1114.18 2036.95 1125.64C2028.48 1137.1 2023.19 1160.37 2052.83 1162.67C2082.48 1164.97 2194.64 1122.47 2194.64 1122.47L2217.9 1021.04Z" fill="white"/>
<path d="M2203.1 1060.53L2187.78 1087.49L2172.94 1060.75L2180.75 1098.77L2169.72 1098.38L2174.5 1110.02L2079.48 1146.48C2079.48 1146.48 2110.65 1150.08 2134.39 1141.27C2158.13 1132.46 2179.45 1126.77 2179.45 1126.77L2203.1 1060.53Z" fill="#92E3A9"/>
<g style="mix-blend-mode:multiply" opacity="0.3">
<path d="M2203.1 1060.53L2187.78 1087.49L2172.94 1060.75L2180.75 1098.77L2169.72 1098.38L2174.5 1110.02L2079.48 1146.48C2079.48 1146.48 2110.65 1150.08 2134.39 1141.27C2158.13 1132.46 2179.45 1126.77 2179.45 1126.77L2203.1 1060.53Z" fill="black"/>
</g>
<path d="M2217.9 1021.04C2217.9 1021.04 2045.41 1114.18 2036.95 1125.64C2028.48 1137.1 2023.19 1160.37 2052.83 1162.67C2082.48 1164.97 2194.64 1122.47 2194.64 1122.47L2217.9 1021.04Z" stroke="#2E353A" stroke-width="4" stroke-linecap="round" stroke-linejoin="round"/>
<path d="M2169.64 929.231C2178.07 925.903 2185.92 921.259 2192.9 915.472C2200.32 908.049 2203.49 914.43 2203.49 918.64C2203.49 922.851 2205.62 933.485 2195.03 937.695C2184.44 941.906 2169.64 939.822 2169.64 929.231Z" fill="white" stroke="#2E353A" stroke-width="4" stroke-linecap="round" stroke-linejoin="round"/>
<path d="M2145.63 939.345C2150.29 935.232 2155.35 931.597 2160.74 928.494C2165.08 926.931 2191.38 919.378 2197.24 922.07C2203.1 924.761 2210.87 936.524 2213.26 941.211C2215.65 945.899 2214.04 952.714 2208.92 952.453C2203.8 952.193 2190.73 936.914 2190.73 936.914L2169.03 944.12C2169.03 944.12 2160.04 948.113 2155.66 945.552C2151.28 942.991 2146.81 944.467 2145.63 939.345Z" fill="white" stroke="#2E353A" stroke-width="4" stroke-linecap="round" stroke-linejoin="round"/>
<path d="M2146.89 932.14C2146.89 932.14 2156.79 928.407 2159.65 930.62C2165.02 934.062 2170.87 936.667 2177.02 938.347C2186.09 941.255 2196.2 944.597 2198.37 951.368C2200.54 958.14 2189.69 968.427 2189.69 968.427C2180.11 961.837 2170.17 955.78 2159.91 950.283C2150.76 945.682 2135.91 935.308 2146.89 932.14Z" fill="white" stroke="#2E353A" stroke-width="4" stroke-linecap="round" stroke-linejoin="round"/>
<path d="M2164.21 943.729L2154.66 936.784C2154.66 936.784 2145.98 930.012 2141.64 935.308C2141.64 935.308 2127.88 987.178 2125.75 993.515C2123.63 999.852 2022.15 1095.26 2016.85 1116.27C2014.82 1124.68 2016.1 1133.55 2020.43 1141.04C2024.76 1148.53 2031.81 1154.07 2040.12 1156.5C2052.83 1159.67 2069.76 1125.82 2077.14 1108.76C2084.52 1091.7 2142.77 1002.93 2142.77 1002.93C2146.21 1004.08 2149.92 1004.08 2153.36 1002.93C2157.42 999.973 2160.99 996.4 2163.95 992.343L2174.54 988.002C2179.79 985.919 2192.51 964.737 2193.55 961.568C2193.61 961.252 2193.61 960.929 2193.55 960.613C2186.26 951.108 2164.21 943.729 2164.21 943.729Z" fill="white"/>
<g style="mix-blend-mode:multiply">
<path d="M2031.78 1152.77C2034.35 1154.44 2037.16 1155.7 2040.11 1156.5C2052.83 1159.67 2069.76 1125.82 2077.14 1108.76C2084.52 1091.7 2142.77 1002.93 2142.77 1002.93C2142.77 1002.93 2033.99 1124.47 2030.87 1141.83C2030.21 1145.5 2030.53 1149.27 2031.78 1152.77Z" fill="#92E3A9"/>
</g>
<g style="mix-blend-mode:multiply" opacity="0.3">
<path d="M2031.78 1152.77C2034.35 1154.44 2037.16 1155.7 2040.11 1156.5C2052.83 1159.67 2069.76 1125.82 2077.14 1108.76C2084.52 1091.7 2142.77 1002.93 2142.77 1002.93C2142.77 1002.93 2033.99 1124.47 2030.87 1141.83C2030.21 1145.5 2030.53 1149.27 2031.78 1152.77Z" fill="black"/>
</g>
<path d="M2164.21 943.729L2154.66 936.784C2154.66 936.784 2145.98 930.012 2141.64 935.308C2141.64 935.308 2127.88 987.178 2125.75 993.515C2123.63 999.852 2022.15 1095.26 2016.85 1116.27C2014.82 1124.68 2016.1 1133.55 2020.43 1141.04C2024.76 1148.53 2031.81 1154.07 2040.12 1156.5C2052.83 1159.67 2069.76 1125.82 2077.14 1108.76C2084.52 1091.7 2142.77 1002.93 2142.77 1002.93C2146.21 1004.08 2149.92 1004.08 2153.36 1002.93C2157.42 999.973 2160.99 996.4 2163.95 992.343L2174.54 988.002C2179.79 985.919 2192.51 964.737 2193.55 961.568C2193.61 961.252 2193.61 960.929 2193.55 960.613C2186.26 951.108 2164.21 943.729 2164.21 943.729Z" stroke="#2E353A" stroke-width="4" stroke-linecap="round" stroke-linejoin="round"/>
<path d="M2154.49 976.5C2159.14 978.214 2163.98 979.365 2168.9 979.929" stroke="#2E353A" stroke-width="4" stroke-linecap="round" stroke-linejoin="round"/>
<path d="M2162.04 980.624C2162.04 980.624 2153.36 991.953 2163.95 992.474" stroke="#2E353A" stroke-width="4" stroke-linecap="round" stroke-linejoin="round"/>
<path d="M2149.24 952.671C2149.24 952.671 2173.02 964.13 2177.15 968.254C2178.94 969.694 2180.25 971.662 2180.87 973.881C2181.49 976.1 2181.41 978.458 2180.62 980.624" stroke="#2E353A" stroke-width="4" stroke-linecap="round" stroke-linejoin="round"/>
<path d="M2218.95 947.679C2218.95 947.679 2213.74 956.36 2216.34 958.791C2218.95 961.222 2226.76 962.698 2227.41 956.838C2228.06 950.978 2226.76 945.683 2218.95 947.679Z" fill="#FDDEAC" stroke="#2E353A" stroke-width="4" stroke-linecap="round" stroke-linejoin="round"/>
<path d="M1971.66 1570.03C1971.66 1570.03 1997.1 1606.71 1997.1 1615.22C1997.1 1623.72 1953.35 1634.97 1934.99 1636.35C1916.63 1637.74 1872.92 1642 1854.56 1639.18C1836.2 1636.35 1854.56 1629.32 1872.92 1616.6C1891.28 1603.89 1908.21 1599.68 1912.42 1585.57L1971.66 1570.03Z" fill="#2E353A" stroke="#2E353A" stroke-width="4" stroke-miterlimit="10"/>
<path d="M1934.99 1636.35C1953.35 1634.97 1997.1 1623.68 1997.1 1615.22C1996.57 1611.95 1995.45 1608.8 1993.8 1605.93C1968.73 1617.9 1941.58 1624.89 1913.85 1626.5C1884.46 1628.02 1865.75 1628.28 1854.77 1628.24C1846.09 1633.84 1842.88 1637.4 1854.55 1639.18C1872.96 1642.17 1916.67 1637.83 1934.99 1636.35Z" fill="white" stroke="#2E353A" stroke-width="4" stroke-miterlimit="10"/>
<path d="M1980.17 1247.87C1980.17 1247.87 1879.95 1239.19 1860.2 1245.05C1840.45 1250.91 1837.63 1276.09 1843.27 1294.45C1848.91 1312.81 1912.41 1585.74 1912.41 1585.74L1971.66 1570.2L1939.24 1365.15L1980.17 1247.87Z" fill="white"/>
<path d="M1963.11 1269.49C1963.11 1269.49 1921.1 1259.33 1922.57 1266.58C1924.05 1273.83 1926.91 1285.42 1926.91 1285.42C1926.91 1285.42 1902.26 1256.42 1899.35 1275.26C1896.44 1294.1 1938.41 1381.04 1938.41 1381.04L1963.11 1269.49Z" fill="#92E3A9"/>
<g style="mix-blend-mode:multiply" opacity="0.3">
<path d="M1963.11 1269.49C1963.11 1269.49 1921.1 1259.33 1922.57 1266.58C1924.05 1273.83 1926.91 1285.42 1926.91 1285.42C1926.91 1285.42 1902.26 1256.42 1899.35 1275.26C1896.44 1294.1 1938.41 1381.04 1938.41 1381.04L1963.11 1269.49Z" fill="black"/>
</g>
<path d="M1980.17 1247.87C1980.17 1247.87 1879.95 1239.19 1860.2 1245.05C1840.45 1250.91 1837.63 1276.09 1843.27 1294.45C1848.91 1312.81 1912.41 1585.74 1912.41 1585.74L1971.66 1570.2L1939.24 1365.15L1980.17 1247.87Z" stroke="#2E353A" stroke-width="4" stroke-miterlimit="10"/>
<path d="M1917.54 1285.77L1940.24 1319.19L1937.59 1281.73" stroke="#2E353A" stroke-width="4" stroke-linecap="round" stroke-linejoin="round"/>
<path d="M2301.5 1001.98C2301.5 1001.98 2221.07 1017.87 2217.9 1021.03C2214.74 1024.2 2141.73 1235.89 2141.73 1235.89H2329.02C2329.02 1235.89 2414.75 1027.54 2407.15 1022.12C2399.56 1016.69 2317.39 999.765 2301.5 1001.98Z" fill="white" stroke="#2E353A" stroke-width="4" stroke-linecap="round" stroke-linejoin="round"/>
<path d="M2364.62 1099.73L2360.93 1107.8L2337.4 1090.87L2354.33 1114.44L2313.83 1111.49L2340.35 1128.42L2296.95 1204.21L2342.57 1196.83L2372.69 1128.42L2364.62 1099.73Z" fill="#92E3A9"/>
<g style="mix-blend-mode:multiply" opacity="0.3">
<path d="M2364.62 1099.73L2360.93 1107.8L2337.4 1090.87L2354.33 1114.44L2313.83 1111.49L2340.35 1128.42L2296.95 1204.21L2342.57 1196.83L2372.69 1128.42L2364.62 1099.73Z" fill="black"/>
</g>
<path d="M2327.33 1080.46L2372.73 1122.47L2329.59 1116.79" stroke="#2E353A" stroke-width="4" stroke-linecap="round" stroke-linejoin="round"/>
<path d="M2301.5 1001.98C2301.5 1001.98 2285.01 1005.23 2266.78 1009.1C2262.79 1025.64 2254.23 1062.57 2255.06 1073.95C2256.1 1088.79 2267.73 1083.5 2277.28 1081.37C2285.62 1079.5 2331.58 1026.98 2346.21 1007.1C2326.5 1003.54 2308.14 1001.11 2301.5 1001.98Z" fill="#2E353A" stroke="#2E353A" stroke-width="4" stroke-linecap="round" stroke-linejoin="round"/>
<path d="M2179.23 1151.25H2215.6L2187.52 1240.32H2150.1L2179.23 1151.25Z" fill="#2E353A"/>
<path d="M2283.53 991.388C2283.53 991.388 2262.35 1065.48 2269.77 1066.57C2277.2 1067.65 2323.73 1015.74 2327.98 1005.15C2332.24 994.557 2347.08 959.615 2347.08 959.615C2347.08 959.615 2317.39 989.305 2283.53 991.388Z" fill="white" stroke="#2E353A" stroke-width="4" stroke-linecap="round" stroke-linejoin="round"/>
<g style="mix-blend-mode:multiply">
<path d="M2327.98 1005.15C2332.32 994.6 2347.08 959.615 2347.08 959.615C2347.08 959.615 2317.39 989.305 2283.53 991.388L2282.06 996.597C2287.4 1000.94 2297.34 1008.19 2302.07 1009.23C2306.8 1010.27 2297.73 1033.75 2291.17 1049.55C2307.02 1033.71 2325.38 1011.66 2327.98 1005.15Z" fill="#92E3A9"/>
</g>
<g style="mix-blend-mode:multiply" opacity="0.3">
<path d="M2327.98 1005.15C2332.32 994.6 2347.08 959.615 2347.08 959.615C2347.08 959.615 2317.39 989.305 2283.53 991.388L2282.06 996.597C2287.4 1000.94 2297.34 1008.19 2302.07 1009.23C2306.8 1010.27 2297.73 1033.75 2291.17 1049.55C2307.02 1033.71 2325.38 1011.66 2327.98 1005.15Z" fill="black"/>
</g>
<path d="M2252.19 872.413C2252.19 872.413 2206.05 877.535 2199.63 848.063C2193.21 818.59 2220.2 813.121 2236.83 826.36C2249.55 836.43 2227.84 807.131 2245.77 796.887C2263.7 786.644 2266.3 799.448 2286.83 803.311C2307.36 807.174 2316.3 800.75 2348.34 800.75C2380.37 800.75 2384.28 834.086 2384.28 854.574C2384.28 875.061 2372.73 927.669 2372.73 927.669C2372.73 927.669 2353.5 932.791 2339.4 927.669C2325.29 922.547 2308.62 905.966 2313.74 895.635C2318.87 885.305 2306.06 880.226 2293.21 880.226C2280.36 880.226 2252.19 872.413 2252.19 872.413Z" fill="#2E353A" stroke="#2E353A" stroke-width="4" stroke-linecap="round" stroke-linejoin="round"/>
<path d="M2313.27 861.519C2321.45 860.515 2329.56 858.964 2337.53 856.874C2372.73 847.802 2384.06 862.56 2384.06 862.56" stroke="white" stroke-width="4" stroke-linecap="round" stroke-linejoin="round"/>
<path d="M2281.93 861.432C2286.43 862.229 2290.99 862.607 2295.56 862.56" stroke="white" stroke-width="4" stroke-linecap="round" stroke-linejoin="round"/>
<path d="M2343.22 876.19C2343.22 876.19 2367.05 873.889 2378.37 886.39" stroke="white" stroke-width="4" stroke-linecap="round" stroke-linejoin="round"/>
<path d="M2052.53 1146.61C2052.53 1147.71 2052.2 1148.8 2051.58 1149.72C2050.97 1150.64 2050.09 1151.36 2049.07 1151.78C2048.05 1152.2 2046.92 1152.31 2045.84 1152.1C2044.75 1151.88 2043.75 1151.35 2042.97 1150.57C2042.19 1149.78 2041.65 1148.79 2041.44 1147.7C2041.22 1146.61 2041.33 1145.49 2041.76 1144.46C2042.18 1143.44 2042.9 1142.57 2043.82 1141.95C2044.74 1141.34 2045.82 1141.01 2046.93 1141.01C2047.66 1141.01 2048.39 1141.15 2049.07 1141.43C2049.75 1141.72 2050.37 1142.13 2050.89 1142.65C2051.41 1143.17 2051.82 1143.78 2052.1 1144.46C2052.38 1145.14 2052.53 1145.87 2052.53 1146.61Z" fill="#FDDEAC" stroke="#2E353A" stroke-width="4" stroke-miterlimit="10"/>
<path d="M2055.7 1148.3C2059.58 1148.3 2062.73 1145.15 2062.73 1141.27C2062.73 1137.38 2059.58 1134.24 2055.7 1134.24C2051.81 1134.24 2048.67 1137.38 2048.67 1141.27C2048.67 1145.15 2051.81 1148.3 2055.7 1148.3Z" fill="#FDDEAC" stroke="#2E353A" stroke-width="4" stroke-miterlimit="10"/>
<path d="M2053.74 1156.59C2056.57 1156.59 2058.87 1154.3 2058.87 1151.47C2058.87 1148.64 2056.57 1146.35 2053.74 1146.35C2050.92 1146.35 2048.62 1148.64 2048.62 1151.47C2048.62 1154.3 2050.92 1156.59 2053.74 1156.59Z" fill="white" stroke="#2E353A" stroke-width="4" stroke-miterlimit="10"/>
<path d="M2178.01 1146.35C2178.02 1147.46 2177.7 1148.54 2177.09 1149.47C2176.48 1150.4 2175.61 1151.12 2174.59 1151.55C2173.57 1151.98 2172.44 1152.1 2171.35 1151.89C2170.26 1151.68 2169.26 1151.15 2168.47 1150.37C2167.68 1149.58 2167.15 1148.59 2166.93 1147.5C2166.71 1146.41 2166.82 1145.28 2167.24 1144.26C2167.66 1143.23 2168.38 1142.36 2169.3 1141.74C2170.22 1141.12 2171.31 1140.79 2172.42 1140.79C2173.89 1140.79 2175.31 1141.37 2176.36 1142.42C2177.41 1143.46 2178 1144.87 2178.01 1146.35Z" fill="white" stroke="#2E353A" stroke-width="4" stroke-miterlimit="10"/>
<path d="M2188.21 1141.01C2188.22 1142.41 2187.81 1143.79 2187.04 1144.96C2186.27 1146.13 2185.16 1147.04 2183.87 1147.58C2182.57 1148.12 2181.15 1148.26 2179.77 1147.99C2178.39 1147.72 2177.13 1147.05 2176.14 1146.05C2175.14 1145.06 2174.47 1143.8 2174.2 1142.42C2173.93 1141.04 2174.07 1139.62 2174.61 1138.32C2175.15 1137.03 2176.07 1135.92 2177.24 1135.15C2178.41 1134.38 2179.78 1133.97 2181.18 1133.98C2183.05 1133.98 2184.84 1134.72 2186.15 1136.04C2187.47 1137.35 2188.21 1139.14 2188.21 1141.01Z" fill="#FDDEAC" stroke="#2E353A" stroke-width="4" stroke-miterlimit="10"/>
<path d="M2184.35 1151.25C2184.35 1152.26 2184.05 1153.25 2183.49 1154.1C2182.92 1154.94 2182.12 1155.6 2181.19 1155.98C2180.25 1156.37 2179.22 1156.47 2178.23 1156.27C2177.24 1156.08 2176.32 1155.59 2175.61 1154.87C2174.89 1154.16 2174.4 1153.24 2174.21 1152.25C2174.01 1151.26 2174.11 1150.23 2174.5 1149.29C2174.88 1148.35 2175.54 1147.56 2176.38 1146.99C2177.23 1146.43 2178.22 1146.13 2179.23 1146.13C2179.9 1146.12 2180.57 1146.25 2181.2 1146.51C2181.82 1146.76 2182.39 1147.14 2182.86 1147.62C2183.34 1148.09 2183.72 1148.66 2183.97 1149.28C2184.23 1149.91 2184.36 1150.58 2184.35 1151.25Z" fill="white" stroke="#2E353A" stroke-width="4" stroke-miterlimit="10"/>
<path d="M2115.77 1136.15C2115.77 1137.25 2115.44 1138.34 2114.83 1139.26C2114.21 1140.18 2113.34 1140.9 2112.31 1141.32C2111.29 1141.74 2110.17 1141.85 2109.08 1141.64C2107.99 1141.42 2107 1140.89 2106.21 1140.11C2105.43 1139.32 2104.9 1138.32 2104.68 1137.24C2104.46 1136.15 2104.58 1135.03 2105 1134C2105.42 1132.98 2106.14 1132.11 2107.06 1131.49C2107.98 1130.88 2109.06 1130.55 2110.17 1130.55C2110.91 1130.55 2111.64 1130.69 2112.31 1130.97C2112.99 1131.25 2113.61 1131.67 2114.13 1132.19C2114.65 1132.71 2115.06 1133.32 2115.35 1134C2115.63 1134.68 2115.77 1135.41 2115.77 1136.15Z" fill="white" stroke="#2E353A" stroke-width="4" stroke-miterlimit="10"/>
<path d="M2125.97 1130.81C2125.97 1132.21 2125.56 1133.57 2124.78 1134.74C2124 1135.9 2122.9 1136.81 2121.6 1137.34C2120.31 1137.88 2118.89 1138.02 2117.52 1137.75C2116.14 1137.47 2114.88 1136.8 2113.89 1135.81C2112.9 1134.82 2112.23 1133.56 2111.96 1132.19C2111.68 1130.82 2111.82 1129.39 2112.36 1128.1C2112.89 1126.81 2113.8 1125.7 2114.97 1124.92C2116.13 1124.15 2117.5 1123.73 2118.9 1123.73C2119.83 1123.73 2120.75 1123.91 2121.61 1124.26C2122.47 1124.61 2123.25 1125.13 2123.91 1125.79C2124.57 1126.45 2125.09 1127.23 2125.44 1128.09C2125.8 1128.95 2125.98 1129.88 2125.97 1130.81Z" fill="#FDDEAC" stroke="#2E353A" stroke-width="4" stroke-miterlimit="10"/>
<path d="M2116.99 1146.13C2119.81 1146.13 2122.11 1143.84 2122.11 1141.01C2122.11 1138.18 2119.81 1135.89 2116.99 1135.89C2114.16 1135.89 2111.86 1138.18 2111.86 1141.01C2111.86 1143.84 2114.16 1146.13 2116.99 1146.13Z" fill="white" stroke="#2E353A" stroke-width="4" stroke-miterlimit="10"/>
<path d="M2096.28 1135.41C2099.37 1135.41 2101.88 1132.9 2101.88 1129.81C2101.88 1126.72 2099.37 1124.21 2096.28 1124.21C2093.19 1124.21 2090.68 1126.72 2090.68 1129.81C2090.68 1132.9 2093.19 1135.41 2096.28 1135.41Z" fill="#FDDEAC" stroke="#2E353A" stroke-width="4" stroke-miterlimit="10"/>
<path d="M2112.13 1124.47C2112.2 1125.44 2112.08 1126.42 2111.76 1127.34C2111.44 1128.26 2110.93 1129.11 2110.27 1129.83C2109.6 1130.54 2108.8 1131.11 2107.91 1131.51C2107.01 1131.9 2106.05 1132.1 2105.07 1132.1C2104.1 1132.1 2103.13 1131.9 2102.24 1131.51C2101.34 1131.11 2100.54 1130.54 2099.88 1129.83C2099.21 1129.11 2098.71 1128.26 2098.39 1127.34C2098.07 1126.42 2097.94 1125.44 2098.02 1124.47C2098.16 1122.69 2098.96 1121.04 2100.27 1119.83C2101.58 1118.62 2103.29 1117.95 2105.07 1117.95C2106.85 1117.95 2108.57 1118.62 2109.87 1119.83C2111.18 1121.04 2111.99 1122.69 2112.13 1124.47Z" fill="#FDDEAC" stroke="#2E353A" stroke-width="4" stroke-miterlimit="10"/>
<path d="M2108.22 1134.71C2108.22 1135.73 2107.92 1136.72 2107.35 1137.56C2106.79 1138.4 2105.99 1139.06 2105.06 1139.45C2104.12 1139.83 2103.09 1139.93 2102.1 1139.74C2101.1 1139.54 2100.19 1139.05 2099.47 1138.34C2098.76 1137.62 2098.27 1136.71 2098.07 1135.71C2097.88 1134.72 2097.98 1133.69 2098.36 1132.75C2098.75 1131.82 2099.41 1131.02 2100.25 1130.46C2101.09 1129.89 2102.08 1129.59 2103.1 1129.59C2103.77 1129.59 2104.44 1129.71 2105.06 1129.97C2105.69 1130.23 2106.25 1130.6 2106.73 1131.08C2107.21 1131.56 2107.58 1132.12 2107.84 1132.75C2108.1 1133.37 2108.22 1134.04 2108.22 1134.71Z" fill="#FDDEAC" stroke="#2E353A" stroke-width="4" stroke-miterlimit="10"/>
<path d="M2140.08 1134.71C2140.08 1135.82 2139.75 1136.9 2139.13 1137.82C2138.52 1138.75 2137.64 1139.46 2136.62 1139.89C2135.6 1140.31 2134.47 1140.42 2133.39 1140.21C2132.3 1139.99 2131.3 1139.46 2130.52 1138.67C2129.74 1137.89 2129.2 1136.89 2128.99 1135.81C2128.77 1134.72 2128.88 1133.59 2129.31 1132.57C2129.73 1131.55 2130.45 1130.67 2131.37 1130.06C2132.29 1129.44 2133.37 1129.11 2134.48 1129.11C2135.22 1129.11 2135.95 1129.25 2136.63 1129.53C2137.31 1129.81 2137.93 1130.22 2138.45 1130.74C2138.97 1131.26 2139.38 1131.88 2139.66 1132.56C2139.94 1133.25 2140.08 1133.98 2140.08 1134.71Z" fill="white" stroke="#2E353A" stroke-width="4" stroke-miterlimit="10"/>
<path d="M2143.25 1136.36C2147.13 1136.36 2150.28 1133.22 2150.28 1129.33C2150.28 1125.45 2147.13 1122.3 2143.25 1122.3C2139.36 1122.3 2136.21 1125.45 2136.21 1129.33C2136.21 1133.22 2139.36 1136.36 2143.25 1136.36Z" fill="#FDDEAC" stroke="#2E353A" stroke-width="4" stroke-miterlimit="10"/>
<path d="M2141.29 1144.7C2144.12 1144.7 2146.42 1142.4 2146.42 1139.58C2146.42 1136.75 2144.12 1134.45 2141.29 1134.45C2138.46 1134.45 2136.17 1136.75 2136.17 1139.58C2136.17 1142.4 2138.46 1144.7 2141.29 1144.7Z" fill="white" stroke="#2E353A" stroke-width="4" stroke-miterlimit="10"/>
<path d="M2160 1133.24C2160.4 1132.21 2161.1 1131.32 2162 1130.68C2162.91 1130.04 2163.98 1129.69 2165.09 1129.66C2166.2 1129.64 2167.29 1129.94 2168.22 1130.53C2169.16 1131.12 2169.89 1131.98 2170.34 1132.99C2170.79 1134 2170.93 1135.13 2170.74 1136.22C2170.55 1137.31 2170.04 1138.32 2169.28 1139.12C2168.52 1139.92 2167.53 1140.48 2166.45 1140.72C2165.37 1140.97 2164.25 1140.88 2163.21 1140.49C2162.53 1140.22 2161.9 1139.83 2161.36 1139.32C2160.83 1138.81 2160.4 1138.2 2160.1 1137.53C2159.81 1136.86 2159.64 1136.13 2159.62 1135.39C2159.61 1134.66 2159.74 1133.92 2160 1133.24Z" fill="white" stroke="#2E353A" stroke-width="4" stroke-miterlimit="10"/>
<path d="M2148.54 1134.32C2149.05 1133.02 2149.93 1131.89 2151.08 1131.09C2152.22 1130.29 2153.58 1129.84 2154.98 1129.81C2156.38 1129.78 2157.75 1130.17 2158.93 1130.92C2160.12 1131.67 2161.05 1132.75 2161.61 1134.03C2162.17 1135.31 2162.35 1136.73 2162.1 1138.11C2161.86 1139.49 2161.22 1140.76 2160.25 1141.77C2159.28 1142.79 2158.04 1143.49 2156.67 1143.79C2155.31 1144.1 2153.88 1143.99 2152.58 1143.48C2151.71 1143.15 2150.92 1142.64 2150.25 1142C2149.58 1141.36 2149.04 1140.59 2148.66 1139.74C2148.29 1138.89 2148.08 1137.97 2148.06 1137.04C2148.04 1136.11 2148.2 1135.19 2148.54 1134.32Z" fill="#FDDEAC" stroke="#2E353A" stroke-width="4" stroke-miterlimit="10"/>
<path d="M2155.92 1126.42C2156.16 1125.79 2156.52 1125.22 2156.98 1124.73C2157.44 1124.24 2157.99 1123.85 2158.61 1123.58C2159.22 1123.31 2159.88 1123.16 2160.56 1123.15C2161.23 1123.14 2161.9 1123.26 2162.52 1123.52C2163.47 1123.88 2164.29 1124.51 2164.87 1125.34C2165.46 1126.17 2165.78 1127.16 2165.81 1128.17C2165.83 1129.19 2165.56 1130.19 2165.01 1131.04C2164.47 1131.9 2163.68 1132.58 2162.75 1132.99C2161.82 1133.39 2160.8 1133.52 2159.8 1133.34C2158.8 1133.17 2157.87 1132.7 2157.14 1131.99C2156.41 1131.29 2155.9 1130.38 2155.68 1129.39C2155.47 1128.4 2155.55 1127.37 2155.92 1126.42Z" fill="#FDDEAC" stroke="#2E353A" stroke-width="4" stroke-miterlimit="10"/>
<path d="M2169.81 1142.27C2170.21 1141.23 2170.91 1140.35 2171.82 1139.71C2172.73 1139.08 2173.81 1138.73 2174.91 1138.71C2176.02 1138.68 2177.11 1138.99 2178.04 1139.59C2178.98 1140.18 2179.71 1141.05 2180.16 1142.06C2180.6 1143.08 2180.73 1144.2 2180.54 1145.29C2180.34 1146.38 2179.83 1147.39 2179.06 1148.19C2178.29 1148.99 2177.3 1149.54 2176.22 1149.77C2175.14 1150.01 2174.01 1149.92 2172.98 1149.52C2171.6 1148.97 2170.49 1147.91 2169.9 1146.55C2169.3 1145.19 2169.27 1143.65 2169.81 1142.27Z" fill="#FDDEAC" stroke="#2E353A" stroke-width="4" stroke-miterlimit="10"/>
<path d="M2158.35 1143.52C2158.86 1142.22 2159.75 1141.1 2160.9 1140.3C2162.04 1139.5 2163.41 1139.05 2164.81 1139.03C2166.21 1139 2167.58 1139.39 2168.76 1140.15C2169.94 1140.9 2170.87 1141.99 2171.43 1143.27C2171.99 1144.56 2172.15 1145.98 2171.9 1147.36C2171.66 1148.73 2171 1150.01 2170.03 1151.01C2169.06 1152.02 2167.81 1152.72 2166.44 1153.02C2165.07 1153.31 2163.65 1153.2 2162.35 1152.68C2160.6 1152 2159.2 1150.65 2158.46 1148.93C2157.71 1147.21 2157.67 1145.27 2158.35 1143.52Z" fill="white" stroke="#2E353A" stroke-width="4" stroke-miterlimit="10"/>
<path d="M2165.69 1135.45C2166.05 1134.52 2166.69 1133.71 2167.51 1133.14C2168.33 1132.57 2169.31 1132.25 2170.31 1132.23C2171.31 1132.21 2172.3 1132.49 2173.14 1133.03C2173.99 1133.56 2174.66 1134.34 2175.06 1135.26C2175.47 1136.18 2175.59 1137.19 2175.42 1138.18C2175.24 1139.17 2174.78 1140.08 2174.09 1140.81C2173.4 1141.54 2172.51 1142.04 2171.53 1142.26C2170.55 1142.48 2169.53 1142.41 2168.6 1142.05C2167.97 1141.81 2167.4 1141.45 2166.91 1140.99C2166.43 1140.52 2166.04 1139.97 2165.77 1139.36C2165.5 1138.74 2165.35 1138.08 2165.34 1137.41C2165.32 1136.74 2165.44 1136.08 2165.69 1135.45Z" fill="#FDDEAC" stroke="#2E353A" stroke-width="4" stroke-miterlimit="10"/>
<path d="M2086.12 1131.59C2086.39 1130.9 2086.79 1130.27 2087.29 1129.74C2087.8 1129.21 2088.41 1128.78 2089.09 1128.49C2089.76 1128.19 2090.49 1128.04 2091.22 1128.02C2091.96 1128.01 2092.69 1128.15 2093.37 1128.42C2094.69 1129 2095.73 1130.08 2096.28 1131.41C2096.83 1132.74 2096.84 1134.24 2096.32 1135.58C2095.79 1136.92 2094.77 1138.01 2093.46 1138.62C2092.15 1139.23 2090.66 1139.3 2089.29 1138.84C2087.91 1138.3 2086.8 1137.23 2086.21 1135.87C2085.62 1134.51 2085.59 1132.97 2086.12 1131.59Z" fill="white" stroke="#2E353A" stroke-width="4" stroke-miterlimit="10"/>
<path d="M2074.67 1132.85C2075.17 1131.54 2076.04 1130.41 2077.19 1129.6C2078.33 1128.79 2079.69 1128.34 2081.09 1128.3C2082.49 1128.26 2083.87 1128.64 2085.06 1129.39C2086.24 1130.14 2087.18 1131.23 2087.74 1132.51C2088.31 1133.79 2088.49 1135.21 2088.24 1136.59C2088 1137.97 2087.36 1139.25 2086.39 1140.26C2085.42 1141.27 2084.17 1141.98 2082.8 1142.28C2081.44 1142.58 2080.01 1142.47 2078.7 1141.96C2077.84 1141.63 2077.05 1141.13 2076.37 1140.49C2075.7 1139.86 2075.16 1139.09 2074.79 1138.24C2074.41 1137.4 2074.21 1136.48 2074.19 1135.56C2074.17 1134.63 2074.33 1133.71 2074.67 1132.85Z" fill="white" stroke="#2E353A" stroke-width="4" stroke-miterlimit="10"/>
<path d="M2082 1124.73C2082.5 1123.46 2083.47 1122.45 2084.72 1121.9C2085.96 1121.36 2087.38 1121.33 2088.64 1121.82C2089.91 1122.32 2090.93 1123.3 2091.47 1124.54C2092.02 1125.79 2092.05 1127.2 2091.55 1128.46C2091.06 1129.73 2090.08 1130.75 2088.83 1131.29C2087.59 1131.84 2086.18 1131.87 2084.91 1131.37C2083.64 1130.88 2082.63 1129.9 2082.08 1128.65C2081.53 1127.41 2081.51 1126 2082 1124.73Z" fill="#FDDEAC" stroke="#2E353A" stroke-width="4" stroke-miterlimit="10"/>
<path d="M2118.68 1147.61C2118.68 1148.71 2118.35 1149.8 2117.74 1150.72C2117.12 1151.64 2116.25 1152.35 2115.22 1152.78C2114.2 1153.2 2113.07 1153.31 2111.99 1153.1C2110.9 1152.88 2109.9 1152.35 2109.12 1151.56C2108.34 1150.78 2107.8 1149.78 2107.59 1148.7C2107.37 1147.61 2107.48 1146.49 2107.91 1145.46C2108.33 1144.44 2109.05 1143.56 2109.97 1142.95C2110.89 1142.33 2111.97 1142.01 2113.08 1142.01C2113.82 1142 2114.55 1142.14 2115.23 1142.42C2115.91 1142.7 2116.53 1143.11 2117.05 1143.63C2117.57 1144.15 2117.99 1144.77 2118.27 1145.46C2118.54 1146.14 2118.69 1146.87 2118.68 1147.61Z" fill="white" stroke="#2E353A" stroke-width="4" stroke-miterlimit="10"/>
<path d="M2129.05 1142.22C2129.06 1143.63 2128.65 1145 2127.88 1146.17C2127.1 1147.34 2126 1148.25 2124.7 1148.79C2123.41 1149.34 2121.98 1149.48 2120.61 1149.21C2119.23 1148.94 2117.97 1148.26 2116.97 1147.27C2115.98 1146.28 2115.31 1145.01 2115.04 1143.64C2114.76 1142.26 2114.91 1140.83 2115.45 1139.54C2115.99 1138.24 2116.9 1137.14 2118.07 1136.37C2119.24 1135.59 2120.62 1135.18 2122.02 1135.19C2123.88 1135.2 2125.66 1135.95 2126.98 1137.26C2128.3 1138.58 2129.04 1140.36 2129.05 1142.22Z" fill="#FDDEAC" stroke="#2E353A" stroke-width="4" stroke-miterlimit="10"/>
<path d="M2119.89 1157.59C2122.72 1157.59 2125.02 1155.3 2125.02 1152.47C2125.02 1149.64 2122.72 1147.34 2119.89 1147.34C2117.07 1147.34 2114.77 1149.64 2114.77 1152.47C2114.77 1155.3 2117.07 1157.59 2119.89 1157.59Z" fill="white" stroke="#2E353A" stroke-width="4" stroke-miterlimit="10"/>
<path d="M2068.68 1151.25C2067.69 1151.76 2066.58 1151.97 2065.48 1151.85C2064.38 1151.73 2063.34 1151.28 2062.49 1150.57C2061.64 1149.86 2061.03 1148.91 2060.72 1147.84C2060.41 1146.78 2060.42 1145.65 2060.76 1144.59C2061.09 1143.54 2061.73 1142.61 2062.59 1141.91C2063.46 1141.22 2064.51 1140.8 2065.61 1140.7C2066.71 1140.61 2067.82 1140.84 2068.79 1141.37C2069.76 1141.91 2070.55 1142.72 2071.06 1143.7C2071.41 1144.35 2071.62 1145.06 2071.69 1145.8C2071.75 1146.53 2071.67 1147.27 2071.45 1147.98C2071.23 1148.68 2070.87 1149.33 2070.39 1149.89C2069.92 1150.45 2069.33 1150.92 2068.68 1151.25Z" fill="white" stroke="#2E353A" stroke-width="4" stroke-miterlimit="10"/>
<path d="M2078.18 1157.85C2077.36 1158.36 2076.43 1158.69 2075.47 1158.83C2074.51 1158.97 2073.53 1158.91 2072.59 1158.66C2071.66 1158.4 2070.78 1157.95 2070.03 1157.34C2069.27 1156.73 2068.65 1155.98 2068.2 1155.12C2067.74 1154.26 2067.48 1153.31 2067.41 1152.34C2067.33 1151.37 2067.46 1150.4 2067.79 1149.49C2068.11 1148.57 2068.62 1147.73 2069.28 1147.02C2069.94 1146.31 2070.74 1145.74 2071.63 1145.35C2073.27 1144.63 2075.12 1144.56 2076.81 1145.16C2078.5 1145.75 2079.9 1146.96 2080.73 1148.55C2081.56 1150.13 2081.76 1151.97 2081.29 1153.7C2080.81 1155.42 2079.7 1156.91 2078.18 1157.85Z" fill="white" stroke="#2E353A" stroke-width="4" stroke-miterlimit="10"/>
<path d="M2067.29 1159.11C2066.39 1159.58 2065.37 1159.77 2064.36 1159.66C2063.36 1159.55 2062.4 1159.15 2061.63 1158.5C2060.85 1157.85 2060.28 1156.98 2060 1156.01C2059.71 1155.03 2059.72 1154 2060.03 1153.03C2060.33 1152.07 2060.91 1151.21 2061.7 1150.58C2062.49 1149.94 2063.46 1149.56 2064.46 1149.47C2065.47 1149.38 2066.49 1149.59 2067.38 1150.08C2068.26 1150.57 2068.99 1151.31 2069.46 1152.21C2069.77 1152.8 2069.97 1153.45 2070.03 1154.12C2070.09 1154.79 2070.02 1155.47 2069.82 1156.11C2069.61 1156.75 2069.29 1157.35 2068.85 1157.86C2068.42 1158.38 2067.89 1158.8 2067.29 1159.11Z" fill="white" stroke="#2E353A" stroke-width="4" stroke-miterlimit="10"/>
<path d="M2078.49 1140.53C2077.5 1141.04 2076.39 1141.25 2075.29 1141.13C2074.19 1141.01 2073.15 1140.56 2072.3 1139.85C2071.45 1139.14 2070.84 1138.19 2070.53 1137.12C2070.22 1136.06 2070.23 1134.93 2070.57 1133.87C2070.9 1132.82 2071.54 1131.88 2072.4 1131.19C2073.27 1130.5 2074.32 1130.08 2075.42 1129.98C2076.52 1129.89 2077.63 1130.12 2078.6 1130.65C2079.57 1131.19 2080.36 1132 2080.87 1132.98C2081.21 1133.63 2081.42 1134.34 2081.48 1135.08C2081.55 1135.81 2081.47 1136.55 2081.24 1137.25C2081.02 1137.95 2080.67 1138.6 2080.19 1139.16C2079.72 1139.73 2079.14 1140.19 2078.49 1140.53Z" fill="white" stroke="#2E353A" stroke-width="4" stroke-miterlimit="10"/>
<path d="M2087.95 1147.34C2086.29 1148.21 2084.36 1148.38 2082.57 1147.82C2080.79 1147.25 2079.3 1146.01 2078.44 1144.35C2077.58 1142.69 2077.41 1140.76 2077.97 1138.98C2078.53 1137.19 2079.78 1135.71 2081.44 1134.84C2082.26 1134.42 2083.15 1134.15 2084.08 1134.07C2085 1133.99 2085.93 1134.09 2086.81 1134.37C2087.69 1134.65 2088.51 1135.1 2089.22 1135.69C2089.93 1136.29 2090.51 1137.02 2090.94 1137.84C2091.37 1138.66 2091.63 1139.56 2091.71 1140.48C2091.79 1141.4 2091.69 1142.33 2091.41 1143.21C2091.14 1144.09 2090.69 1144.91 2090.09 1145.62C2089.5 1146.33 2088.77 1146.92 2087.95 1147.34Z" fill="#FDDEAC" stroke="#2E353A" stroke-width="4" stroke-miterlimit="10"/>
<path d="M2076.97 1148.39C2076.07 1148.84 2075.07 1149.03 2074.07 1148.91C2073.08 1148.8 2072.14 1148.39 2071.37 1147.75C2070.61 1147.1 2070.05 1146.24 2069.77 1145.28C2069.49 1144.32 2069.51 1143.3 2069.81 1142.34C2070.11 1141.39 2070.68 1140.54 2071.46 1139.91C2072.24 1139.29 2073.19 1138.9 2074.19 1138.81C2075.18 1138.72 2076.18 1138.92 2077.06 1139.4C2077.95 1139.87 2078.67 1140.6 2079.14 1141.49C2079.45 1142.08 2079.65 1142.73 2079.71 1143.4C2079.77 1144.07 2079.7 1144.75 2079.49 1145.39C2079.29 1146.03 2078.97 1146.63 2078.53 1147.14C2078.1 1147.66 2077.56 1148.08 2076.97 1148.39Z" fill="white" stroke="#2E353A" stroke-width="4" stroke-miterlimit="10"/>
<path d="M2156.79 1145.39C2155.81 1145.9 2154.69 1146.11 2153.59 1145.99C2152.49 1145.87 2151.45 1145.42 2150.6 1144.71C2149.76 1144 2149.14 1143.05 2148.83 1141.99C2148.52 1140.92 2148.54 1139.79 2148.87 1138.73C2149.2 1137.68 2149.84 1136.75 2150.71 1136.05C2151.57 1135.36 2152.62 1134.94 2153.72 1134.84C2154.83 1134.75 2155.93 1134.98 2156.9 1135.51C2157.87 1136.05 2158.66 1136.86 2159.18 1137.84C2159.52 1138.49 2159.73 1139.2 2159.8 1139.94C2159.87 1140.67 2159.79 1141.41 2159.56 1142.12C2159.34 1142.82 2158.98 1143.47 2158.51 1144.03C2158.03 1144.6 2157.45 1145.06 2156.79 1145.39Z" fill="#FDDEAC" stroke="#2E353A" stroke-width="4" stroke-miterlimit="10"/>
<path d="M2166.29 1151.99C2165.05 1152.64 2163.65 1152.91 2162.25 1152.76C2160.86 1152.61 2159.54 1152.06 2158.47 1151.16C2157.39 1150.26 2156.6 1149.06 2156.21 1147.72C2155.82 1146.37 2155.83 1144.94 2156.25 1143.6C2156.67 1142.26 2157.48 1141.08 2158.58 1140.21C2159.67 1139.33 2161 1138.8 2162.4 1138.68C2163.79 1138.56 2165.19 1138.86 2166.42 1139.53C2167.65 1140.21 2168.65 1141.24 2169.29 1142.48C2170.13 1144.15 2170.29 1146.07 2169.73 1147.85C2169.17 1149.63 2167.94 1151.11 2166.29 1151.99Z" fill="#FDDEAC" stroke="#2E353A" stroke-width="4" stroke-miterlimit="10"/>
<path d="M2155.44 1153.25C2154.55 1153.71 2153.55 1153.9 2152.55 1153.8C2151.56 1153.69 2150.61 1153.29 2149.84 1152.65C2149.07 1152.01 2148.51 1151.15 2148.23 1150.19C2147.94 1149.23 2147.95 1148.21 2148.24 1147.25C2148.54 1146.29 2149.11 1145.44 2149.88 1144.81C2150.66 1144.18 2151.61 1143.79 2152.6 1143.69C2153.6 1143.59 2154.61 1143.79 2155.49 1144.27C2156.37 1144.74 2157.1 1145.46 2157.57 1146.35C2158.2 1147.54 2158.33 1148.94 2157.93 1150.24C2157.53 1151.53 2156.64 1152.61 2155.44 1153.25Z" fill="white" stroke="#2E353A" stroke-width="4" stroke-miterlimit="10"/>
<path d="M2102.66 1154.46C2101.68 1154.97 2100.57 1155.18 2099.47 1155.06C2098.37 1154.94 2097.33 1154.49 2096.48 1153.78C2095.63 1153.07 2095.01 1152.12 2094.7 1151.06C2094.4 1149.99 2094.41 1148.86 2094.74 1147.81C2095.08 1146.75 2095.72 1145.82 2096.58 1145.13C2097.44 1144.43 2098.49 1144.01 2099.6 1143.92C2100.7 1143.82 2101.81 1144.05 2102.78 1144.59C2103.75 1145.12 2104.54 1145.93 2105.05 1146.91C2105.39 1147.56 2105.6 1148.28 2105.66 1149.01C2105.72 1149.74 2105.64 1150.48 2105.42 1151.18C2105.2 1151.88 2104.84 1152.53 2104.37 1153.1C2103.89 1153.66 2103.31 1154.13 2102.66 1154.46Z" fill="white" stroke="#2E353A" stroke-width="4" stroke-miterlimit="10"/>
<path d="M2111.76 1161.23C2115.3 1159.63 2116.87 1155.46 2115.27 1151.92C2113.66 1148.38 2109.5 1146.81 2105.96 1148.41C2102.42 1150.01 2100.85 1154.18 2102.45 1157.72C2104.05 1161.26 2108.22 1162.83 2111.76 1161.23Z" fill="white" stroke="#2E353A" stroke-width="4" stroke-miterlimit="10"/>
<path d="M2101.27 1162.32C2100.08 1162.87 2098.72 1162.94 2097.47 1162.51C2096.23 1162.09 2095.2 1161.2 2094.59 1160.04C2093.98 1158.87 2093.84 1157.52 2094.21 1156.25C2094.57 1154.99 2095.41 1153.91 2096.54 1153.25C2097.14 1152.9 2097.8 1152.67 2098.49 1152.59C2099.18 1152.5 2099.88 1152.55 2100.55 1152.75C2101.21 1152.94 2101.83 1153.26 2102.37 1153.7C2102.91 1154.14 2103.35 1154.68 2103.67 1155.3C2103.99 1155.91 2104.19 1156.59 2104.24 1157.28C2104.29 1157.97 2104.2 1158.67 2103.98 1159.32C2103.75 1159.98 2103.4 1160.58 2102.93 1161.1C2102.47 1161.61 2101.9 1162.03 2101.27 1162.32Z" fill="white" stroke="#2E353A" stroke-width="4" stroke-miterlimit="10"/>
<path d="M2085.65 1149.6C2084.99 1149.94 2084.28 1150.15 2083.55 1150.21C2082.82 1150.28 2082.08 1150.19 2081.38 1149.97C2080.67 1149.75 2080.02 1149.39 2079.46 1148.92C2078.9 1148.45 2078.43 1147.87 2078.09 1147.21C2077.76 1146.56 2077.55 1145.85 2077.48 1145.12C2077.42 1144.38 2077.5 1143.65 2077.72 1142.94C2077.95 1142.24 2078.3 1141.59 2078.78 1141.03C2079.25 1140.47 2079.83 1140 2080.48 1139.66C2081.8 1138.98 2083.34 1138.84 2084.75 1139.29C2086.17 1139.74 2087.35 1140.73 2088.03 1142.05C2088.72 1143.37 2088.85 1144.9 2088.4 1146.32C2087.96 1147.74 2086.97 1148.92 2085.65 1149.6Z" fill="#FDDEAC" stroke="#2E353A" stroke-width="4" stroke-miterlimit="10"/>
<path d="M2095.11 1156.03C2093.88 1156.67 2092.48 1156.92 2091.1 1156.77C2089.72 1156.62 2088.41 1156.06 2087.35 1155.17C2086.29 1154.27 2085.51 1153.08 2085.12 1151.75C2084.74 1150.41 2084.75 1148.99 2085.17 1147.67C2085.59 1146.34 2086.39 1145.17 2087.47 1144.3C2088.55 1143.43 2089.87 1142.9 2091.25 1142.78C2092.64 1142.66 2094.03 1142.95 2095.25 1143.61C2096.47 1144.28 2097.46 1145.29 2098.11 1146.52C2098.54 1147.34 2098.81 1148.24 2098.89 1149.16C2098.98 1150.08 2098.88 1151.02 2098.6 1151.9C2098.32 1152.79 2097.87 1153.61 2097.27 1154.31C2096.67 1155.02 2095.94 1155.6 2095.11 1156.03Z" fill="white" stroke="#2E353A" stroke-width="4" stroke-miterlimit="10"/>
<path d="M2084.26 1157.46C2083.36 1157.93 2082.34 1158.12 2081.34 1158.01C2080.33 1157.9 2079.37 1157.5 2078.6 1156.85C2077.82 1156.2 2077.25 1155.33 2076.97 1154.36C2076.68 1153.39 2076.69 1152.35 2077 1151.38C2077.3 1150.42 2077.89 1149.56 2078.68 1148.93C2079.47 1148.29 2080.43 1147.91 2081.44 1147.82C2082.45 1147.73 2083.46 1147.94 2084.35 1148.43C2085.24 1148.92 2085.96 1149.66 2086.43 1150.56C2087.05 1151.76 2087.18 1153.16 2086.77 1154.46C2086.36 1155.75 2085.46 1156.83 2084.26 1157.46Z" fill="white" stroke="#2E353A" stroke-width="4" stroke-miterlimit="10"/>
<path d="M2099.32 1141.05C2098.34 1141.56 2097.23 1141.77 2096.12 1141.65C2095.02 1141.53 2093.98 1141.08 2093.14 1140.37C2092.29 1139.66 2091.67 1138.71 2091.36 1137.64C2091.05 1136.58 2091.07 1135.45 2091.4 1134.39C2091.73 1133.34 2092.37 1132.41 2093.24 1131.71C2094.1 1131.02 2095.15 1130.6 2096.25 1130.5C2097.36 1130.41 2098.46 1130.64 2099.44 1131.17C2100.41 1131.71 2101.2 1132.52 2101.71 1133.5C2102.05 1134.15 2102.26 1134.86 2102.33 1135.6C2102.4 1136.33 2102.32 1137.07 2102.1 1137.77C2101.87 1138.48 2101.51 1139.13 2101.04 1139.69C2100.56 1140.25 2099.98 1140.72 2099.32 1141.05Z" fill="#FDDEAC" stroke="#2E353A" stroke-width="4" stroke-miterlimit="10"/>
<path d="M2108.78 1147.65C2107.55 1148.28 2106.16 1148.54 2104.78 1148.38C2103.4 1148.23 2102.1 1147.67 2101.04 1146.77C2099.98 1145.88 2099.2 1144.69 2098.81 1143.36C2098.43 1142.03 2098.44 1140.62 2098.86 1139.29C2099.27 1137.97 2100.07 1136.8 2101.15 1135.93C2102.23 1135.05 2103.54 1134.52 2104.92 1134.39C2106.3 1134.27 2107.69 1134.55 2108.91 1135.21C2110.13 1135.87 2111.13 1136.87 2111.78 1138.1C2112.21 1138.92 2112.47 1139.82 2112.55 1140.75C2112.64 1141.68 2112.54 1142.61 2112.26 1143.49C2111.98 1144.38 2111.53 1145.21 2110.93 1145.92C2110.34 1146.63 2109.61 1147.22 2108.78 1147.65Z" fill="#FDDEAC" stroke="#2E353A" stroke-width="4" stroke-miterlimit="10"/>
<path d="M2097.93 1148.91C2097.03 1149.38 2096.01 1149.57 2095.01 1149.46C2094 1149.35 2093.05 1148.95 2092.27 1148.3C2091.49 1147.65 2090.93 1146.78 2090.64 1145.81C2090.36 1144.83 2090.37 1143.8 2090.67 1142.83C2090.97 1141.87 2091.56 1141.01 2092.35 1140.38C2093.14 1139.74 2094.1 1139.36 2095.11 1139.27C2096.12 1139.18 2097.13 1139.39 2098.02 1139.88C2098.91 1140.37 2099.63 1141.11 2100.1 1142.01C2100.73 1143.21 2100.85 1144.61 2100.44 1145.91C2100.04 1147.2 2099.13 1148.28 2097.93 1148.91Z" fill="#FDDEAC" stroke="#2E353A" stroke-width="4" stroke-miterlimit="10"/>
<path d="M2066.25 1134.84C2065.26 1135.35 2064.15 1135.56 2063.05 1135.44C2061.95 1135.32 2060.91 1134.87 2060.06 1134.16C2059.21 1133.45 2058.6 1132.5 2058.29 1131.44C2057.98 1130.37 2057.99 1129.24 2058.33 1128.19C2058.66 1127.13 2059.3 1126.2 2060.16 1125.51C2061.03 1124.81 2062.08 1124.39 2063.18 1124.3C2064.28 1124.2 2065.39 1124.43 2066.36 1124.97C2067.33 1125.5 2068.12 1126.31 2068.63 1127.29C2068.97 1127.94 2069.18 1128.66 2069.24 1129.39C2069.31 1130.12 2069.23 1130.86 2069 1131.56C2068.78 1132.26 2068.42 1132.91 2067.95 1133.48C2067.48 1134.04 2066.9 1134.5 2066.25 1134.84Z" fill="#FDDEAC" stroke="#2E353A" stroke-width="4" stroke-miterlimit="10"/>
<path d="M2075.33 1141.65C2078.86 1140.05 2080.44 1135.88 2078.84 1132.34C2077.23 1128.8 2073.07 1127.23 2069.53 1128.83C2065.99 1130.43 2064.42 1134.6 2066.02 1138.14C2067.62 1141.68 2071.79 1143.25 2075.33 1141.65Z" fill="#FDDEAC" stroke="#2E353A" stroke-width="4" stroke-miterlimit="10"/>
<path d="M2064.86 1142.7C2063.66 1143.33 2062.26 1143.45 2060.97 1143.05C2059.68 1142.65 2058.6 1141.75 2057.98 1140.55C2057.35 1139.35 2057.22 1137.96 2057.63 1136.67C2058.03 1135.38 2058.93 1134.3 2060.12 1133.67C2060.72 1133.36 2061.37 1133.17 2062.03 1133.11C2062.7 1133.05 2063.37 1133.12 2064.01 1133.32C2064.65 1133.52 2065.24 1133.84 2065.76 1134.27C2066.27 1134.7 2066.69 1135.23 2067 1135.82C2067.31 1136.41 2067.51 1137.06 2067.57 1137.73C2067.63 1138.39 2067.55 1139.07 2067.35 1139.71C2067.16 1140.34 2066.83 1140.94 2066.4 1141.45C2065.97 1141.97 2065.45 1142.39 2064.86 1142.7Z" fill="#FDDEAC" stroke="#2E353A" stroke-width="4" stroke-miterlimit="10"/>
<path d="M2136.3 1143.48C2135.65 1143.89 2134.91 1144.16 2134.15 1144.28C2133.39 1144.39 2132.61 1144.35 2131.86 1144.14C2131.11 1143.94 2130.42 1143.59 2129.82 1143.1C2129.21 1142.62 2128.72 1142.01 2128.36 1141.33C2128 1140.64 2127.79 1139.89 2127.74 1139.12C2127.69 1138.35 2127.79 1137.58 2128.05 1136.85C2128.31 1136.12 2128.72 1135.46 2129.25 1134.9C2129.78 1134.33 2130.42 1133.89 2131.14 1133.59C2131.78 1133.24 2132.49 1133.03 2133.22 1132.96C2133.95 1132.89 2134.68 1132.96 2135.38 1133.18C2136.08 1133.4 2136.73 1133.76 2137.29 1134.23C2137.85 1134.7 2138.31 1135.28 2138.64 1135.93C2139.33 1137.24 2139.47 1138.77 2139.03 1140.19C2138.59 1141.61 2137.61 1142.79 2136.3 1143.48Z" fill="#FDDEAC" stroke="#2E353A" stroke-width="4" stroke-miterlimit="10"/>
<path d="M2145.76 1150.08C2144.1 1150.94 2142.17 1151.1 2140.39 1150.54C2138.61 1149.98 2137.13 1148.74 2136.26 1147.08C2135.54 1145.44 2135.47 1143.59 2136.07 1141.9C2136.66 1140.22 2137.87 1138.82 2139.46 1137.98C2141.04 1137.15 2142.88 1136.95 2144.61 1137.43C2146.33 1137.9 2147.82 1139.01 2148.76 1140.53C2149.62 1142.2 2149.78 1144.13 2149.22 1145.92C2148.66 1147.71 2147.42 1149.2 2145.76 1150.08Z" fill="#FDDEAC" stroke="#2E353A" stroke-width="4" stroke-miterlimit="10"/>
<path d="M2134.91 1151.34C2134.01 1151.81 2133 1152 2131.99 1151.89C2130.98 1151.78 2130.03 1151.38 2129.25 1150.73C2128.47 1150.08 2127.91 1149.21 2127.62 1148.24C2127.34 1147.27 2127.35 1146.23 2127.65 1145.26C2127.96 1144.3 2128.54 1143.44 2129.33 1142.81C2130.12 1142.17 2131.08 1141.79 2132.09 1141.7C2133.1 1141.61 2134.11 1141.82 2135 1142.31C2135.89 1142.8 2136.62 1143.54 2137.08 1144.44C2137.71 1145.64 2137.83 1147.04 2137.42 1148.34C2137.02 1149.63 2136.11 1150.71 2134.91 1151.34Z" fill="#FDDEAC" stroke="#2E353A" stroke-width="4" stroke-miterlimit="10"/>
<path d="M2166.9 1257.38H2062.21L2039.77 1146.61H2189.34L2166.9 1257.38Z" fill="white" stroke="#2E353A" stroke-width="4" stroke-miterlimit="10"/>
<path d="M2110.87 1257.38L2187.13 1146.61H2155.88L2081.44 1257.38H2110.87Z" fill="#2E353A"/>
<path d="M2060.52 1249.17L2130.09 1146.61H2094.2L2052.88 1211.41L2060.52 1249.17Z" fill="#2E353A"/>
<path d="M2248.24 1239.41C2248.24 1239.41 2136.78 1232.33 2083.3 1228.12C2029.83 1223.91 1991.59 1206.94 1974.79 1230.94C1957.99 1254.95 1868.62 1548.41 1868.62 1548.41L1858.81 1568.38C1858.81 1568.38 1906.77 1603.67 1916.67 1603.67C1926.56 1603.67 1968.76 1454.09 1994.28 1427.27C2019.8 1400.44 2037.9 1335.34 2037.9 1335.34H2234.05L2248.24 1239.41Z" fill="white"/>
<path d="M2068.29 1263.11C2061.34 1267.54 2055.02 1272.88 2049.49 1278.99C2049.49 1278.99 2034.99 1247.18 2030.65 1258.77C2026.31 1270.36 2036.47 1294.92 2036.47 1294.92C2036.47 1294.92 2016.2 1284.81 2017.63 1297.83C2018.53 1305.99 2019.03 1314.19 2019.11 1322.4C2019.11 1322.4 1994.5 1374.49 1977.13 1415.03C1959.77 1455.57 1909.12 1574.15 1903.34 1592.99C1902.92 1594.41 1902.63 1595.86 1902.48 1597.33C1906.78 1600.24 1911.6 1602.3 1916.67 1603.41C1926.52 1603.41 1968.76 1453.83 1994.28 1427.01C2019.8 1400.18 2037.9 1335.34 2037.9 1335.34H2225.85C2228.63 1329.04 2230.75 1324.27 2231.71 1322.31L2162.26 1244.18C2162.26 1244.18 2083.04 1252.6 2068.29 1263.11Z" fill="#92E3A9"/>
<g style="mix-blend-mode:multiply" opacity="0.3">
<path d="M2068.29 1263.11C2061.34 1267.54 2055.02 1272.88 2049.49 1278.99C2049.49 1278.99 2034.99 1247.18 2030.65 1258.77C2026.31 1270.36 2036.47 1294.92 2036.47 1294.92C2036.47 1294.92 2016.2 1284.81 2017.63 1297.83C2018.53 1305.99 2019.03 1314.19 2019.11 1322.4C2019.11 1322.4 1994.5 1374.49 1977.13 1415.03C1959.77 1455.57 1909.12 1574.15 1903.34 1592.99C1902.92 1594.41 1902.63 1595.86 1902.48 1597.33C1906.78 1600.24 1911.6 1602.3 1916.67 1603.41C1926.52 1603.41 1968.76 1453.83 1994.28 1427.01C2019.8 1400.18 2037.9 1335.34 2037.9 1335.34H2225.85C2228.63 1329.04 2230.75 1324.27 2231.71 1322.31L2162.26 1244.18C2162.26 1244.18 2083.04 1252.6 2068.29 1263.11Z" fill="black"/>
</g>
<path d="M2248.24 1239.41C2248.24 1239.41 2136.78 1232.33 2083.3 1228.12C2029.83 1223.91 1991.59 1206.94 1974.79 1230.94C1957.99 1254.95 1868.62 1548.41 1868.62 1548.41L1858.81 1568.38C1858.81 1568.38 1906.77 1603.67 1916.67 1603.67C1926.56 1603.67 1968.76 1454.09 1994.28 1427.27C2019.8 1400.44 2037.9 1335.34 2037.9 1335.34H2234.05L2248.24 1239.41Z" stroke="#2E353A" stroke-width="4" stroke-miterlimit="10"/>
<path d="M2053.53 1294.45L2037.99 1335.33L2067.63 1307.12" stroke="#2E353A" stroke-width="4" stroke-linecap="round" stroke-linejoin="round"/>
<path d="M1858.81 1568.38C1858.81 1568.38 1819.31 1569.81 1808.02 1568.38C1796.74 1566.95 1768.48 1552.88 1762.84 1564.04C1757.2 1575.19 1781.2 1593.64 1799.52 1607.75C1817.83 1621.86 1872.92 1640.22 1889.84 1643.04C1906.77 1645.86 1916.67 1603.54 1916.67 1603.54L1858.81 1568.38Z" fill="#2E353A" stroke="#2E353A" stroke-width="4" stroke-miterlimit="10"/>
<path d="M1902.13 1636.92C1883.77 1631.75 1848.43 1621.47 1829.16 1613.35C1809.89 1605.23 1778.64 1576.5 1764.05 1562.26C1763.58 1562.77 1763.17 1563.34 1762.84 1563.95C1757.2 1575.24 1781.2 1593.56 1799.52 1607.66C1817.83 1621.77 1872.92 1640.13 1889.84 1642.95C1892.24 1643.13 1894.65 1642.66 1896.8 1641.6C1898.96 1640.54 1900.8 1638.92 1902.13 1636.92Z" fill="white" stroke="#2E353A" stroke-width="4" stroke-miterlimit="10"/>
<path d="M2407.41 1070.08V1228.12H2208.83C2164.34 1228.12 2128.31 1261.29 2128.31 1302.17C2128.31 1343.1 2164.34 1376.27 2208.83 1376.27H2210.22C2212.35 1376.26 2214.47 1376.68 2216.44 1377.49C2218.41 1378.3 2220.2 1379.5 2221.71 1381.01C2223.22 1382.52 2224.42 1384.31 2225.23 1386.28C2226.04 1388.25 2226.46 1390.37 2226.45 1392.5V1639.91H2605.26V1070.08C2605.26 1020.08 2561.42 979.452 2507.12 978.931C2452.16 978.67 2407.41 1019.56 2407.41 1070.08Z" fill="#92E3A9" stroke="#2E353A" stroke-width="4" stroke-linecap="round" stroke-linejoin="round"/>
<path d="M2449.52 1221.13V1146.74L2448.17 1109.32C2448.17 1109.32 2442.96 1070.26 2434.8 1051.85C2430.81 1043.53 2424.52 1036.52 2416.66 1031.67C2410.59 1043.57 2407.43 1056.73 2407.41 1070.08V1221.13H2449.52Z" fill="#2E353A"/>
<path d="M2442.96 1070.08V1228.12H2260.23C2240.59 1228.12 2221.75 1235.93 2207.86 1249.81C2193.98 1263.7 2186.18 1282.53 2186.18 1302.17C2186.17 1311.9 2188.08 1321.54 2191.8 1330.52C2195.52 1339.51 2200.97 1347.68 2207.85 1354.56C2214.73 1361.44 2222.89 1366.9 2231.88 1370.63C2240.86 1374.35 2250.5 1376.27 2260.23 1376.27C2262.36 1376.26 2264.47 1376.68 2266.44 1377.49C2268.42 1378.31 2270.21 1379.5 2271.72 1381.01C2273.23 1382.52 2274.42 1384.31 2275.23 1386.28C2276.05 1388.25 2276.46 1390.37 2276.46 1392.5V1639.91H2625.01V1070.08C2625.01 1046.05 2615.52 1022.99 2598.6 1005.92C2581.68 988.848 2558.71 979.149 2534.68 978.931C2522.66 978.857 2510.75 981.16 2499.62 985.707C2488.5 990.255 2478.38 996.957 2469.86 1005.43C2461.34 1013.9 2454.57 1023.97 2449.96 1035.07C2445.34 1046.17 2442.96 1058.07 2442.96 1070.08Z" fill="#92E3A9" stroke="#2E353A" stroke-width="4" stroke-linecap="round" stroke-linejoin="round"/>
<path opacity="0.3" d="M2442.96 1070.08V1228.12H2260.23C2240.59 1228.12 2221.75 1235.93 2207.86 1249.81C2193.98 1263.7 2186.18 1282.53 2186.18 1302.17C2186.17 1311.9 2188.08 1321.54 2191.8 1330.52C2195.52 1339.51 2200.97 1347.68 2207.85 1354.56C2214.73 1361.44 2222.89 1366.9 2231.88 1370.63C2240.86 1374.35 2250.5 1376.27 2260.23 1376.27C2262.36 1376.26 2264.47 1376.68 2266.44 1377.49C2268.42 1378.31 2270.21 1379.5 2271.72 1381.01C2273.23 1382.52 2274.42 1384.31 2275.23 1386.28C2276.05 1388.25 2276.46 1390.37 2276.46 1392.5V1639.91H2625.01V1070.08C2625.01 1046.05 2615.52 1022.99 2598.6 1005.92C2581.68 988.848 2558.71 979.149 2534.68 978.931C2522.66 978.857 2510.75 981.16 2499.62 985.707C2488.5 990.255 2478.38 996.957 2469.86 1005.43C2461.34 1013.9 2454.57 1023.97 2449.96 1035.07C2445.34 1046.17 2442.96 1058.07 2442.96 1070.08Z" fill="black"/>
<path d="M2359.71 1076.07L2388.32 1205.16C2388.32 1205.16 2400.82 1232.81 2428.34 1229.64C2455.85 1226.47 2469.79 1190.58 2461.32 1171.31C2452.86 1152.03 2407.33 1022.12 2407.33 1022.12L2372.6 1013.44" fill="white"/>
<g style="mix-blend-mode:multiply">
<path d="M2387.45 1018.78C2396.62 1027.06 2403.24 1037.78 2406.55 1049.68C2410.89 1068.09 2446.3 1165.18 2445.61 1176.25C2444.92 1187.32 2417.61 1190.97 2417.61 1190.97C2417.61 1190.97 2437.93 1206.46 2441.18 1213.75L2444.44 1221.05C2444.44 1221.05 2462.5 1211.54 2463.97 1195.35C2464.29 1183.88 2461.77 1172.5 2456.64 1162.23L2407.37 1022.12L2387.45 1018.78Z" fill="#92E3A9"/>
</g>
<g style="mix-blend-mode:multiply" opacity="0.3">
<path d="M2387.45 1018.78C2396.62 1027.06 2403.24 1037.78 2406.55 1049.68C2410.89 1068.09 2446.3 1165.18 2445.61 1176.25C2444.92 1187.32 2417.61 1190.97 2417.61 1190.97C2417.61 1190.97 2437.93 1206.46 2441.18 1213.75L2444.44 1221.05C2444.44 1221.05 2462.5 1211.54 2463.97 1195.35C2464.29 1183.88 2461.77 1172.5 2456.64 1162.23L2407.37 1022.12L2387.45 1018.78Z" fill="black"/>
</g>
<path d="M2359.71 1076.07L2388.32 1205.16C2388.32 1205.16 2400.82 1232.81 2428.34 1229.64C2455.85 1226.47 2469.79 1190.58 2461.32 1171.31C2452.86 1152.03 2407.33 1022.12 2407.33 1022.12L2372.6 1013.44" stroke="#2E353A" stroke-width="4" stroke-linecap="round" stroke-linejoin="round"/>
<path d="M2444.4 1221.14C2444.4 1221.14 2445.26 1202.12 2422 1192.57C2398.73 1183.02 2390.18 1191.53 2372.17 1192.57C2332.8 1196.42 2293.68 1202.42 2254.97 1210.54C2224.24 1217.97 2202.23 1204.81 2193.77 1214.32C2188.92 1219.63 2184.98 1225.72 2182.14 1232.33C2182.14 1232.33 2319.52 1230.68 2367.13 1228.56C2414.75 1226.43 2439.1 1234.81 2444.4 1221.14Z" fill="white"/>
<g style="mix-blend-mode:multiply">
<path d="M2425.69 1195.35C2425.69 1195.35 2427.16 1199.69 2415.4 1207.11C2403.64 1214.54 2238.09 1229.82 2238.09 1229.82H2428.55C2428.55 1229.82 2447.22 1224.95 2447.22 1220.57C2447.22 1216.19 2437.45 1195.35 2425.69 1195.35Z" fill="#92E3A9"/>
</g>
<g style="mix-blend-mode:multiply" opacity="0.3">
<path d="M2425.69 1195.35C2425.69 1195.35 2427.16 1199.69 2415.4 1207.11C2403.64 1214.54 2238.09 1229.82 2238.09 1229.82H2428.55C2428.55 1229.82 2447.22 1224.95 2447.22 1220.57C2447.22 1216.19 2437.45 1195.35 2425.69 1195.35Z" fill="black"/>
</g>
<path d="M2444.4 1221.14C2444.4 1221.14 2445.26 1202.12 2422 1192.57C2398.73 1183.02 2390.18 1191.53 2372.17 1192.57C2332.8 1196.42 2293.68 1202.42 2254.97 1210.54C2224.24 1217.97 2202.23 1204.81 2193.77 1214.32C2188.92 1219.63 2184.98 1225.72 2182.14 1232.33C2182.14 1232.33 2319.52 1230.68 2367.13 1228.56C2414.75 1226.43 2439.1 1234.81 2444.4 1221.14Z" stroke="#2E353A" stroke-width="4" stroke-linecap="round" stroke-linejoin="round"/>
<path d="M1896.27 1127.81C1895.7 1127.81 1895.14 1127.69 1894.62 1127.47C1893.6 1127.01 1892.8 1126.17 1892.38 1125.14C1891.96 1124.1 1891.95 1122.95 1892.36 1121.91L1914.41 1070.47C1914.72 1069.77 1915.22 1069.16 1915.84 1068.71C1916.47 1068.26 1917.2 1067.98 1917.97 1067.91L1960.81 1064.27C1961.43 1064.06 1962.09 1064 1962.74 1064.09C1963.39 1064.17 1964.01 1064.41 1964.56 1064.77C1965.1 1065.13 1965.56 1065.61 1965.89 1066.17C1966.23 1066.73 1966.43 1067.36 1966.49 1068.01C1966.55 1068.66 1966.46 1069.32 1966.22 1069.93C1965.99 1070.54 1965.62 1071.09 1965.15 1071.54C1964.67 1071.99 1964.1 1072.33 1963.48 1072.53C1962.86 1072.73 1962.2 1072.78 1961.55 1072.69L1921.18 1076.16L1900.17 1125.25C1899.83 1126.01 1899.29 1126.65 1898.59 1127.1C1897.9 1127.56 1897.1 1127.8 1896.27 1127.81Z" fill="white" stroke="#2E353A" stroke-width="4" stroke-miterlimit="10"/>
<path d="M1911.46 1226H1859.07L1847.87 1115.22H1922.66L1911.46 1226Z" fill="#2E353A" stroke="#2E353A" stroke-width="4" stroke-miterlimit="10"/>
<path d="M1925.09 1107.67H1845.48V1123.6H1925.09V1107.67Z" fill="white" stroke="#2E353A" stroke-width="4" stroke-miterlimit="10"/>
<path d="M2252.19 872.413C2252.19 872.413 2240.65 939.084 2244.51 959.615C2248.37 980.146 2265 999.331 2298.33 998.073C2331.67 996.814 2347.08 959.615 2347.08 959.615C2347.08 959.615 2379.11 958.313 2382.98 941.645C2386.84 924.977 2379.11 913.431 2370.17 913.431C2362.72 914.05 2355.41 915.776 2348.47 918.553C2348.47 918.553 2325.42 909.612 2326.76 900.627C2328.11 891.642 2347.3 877.535 2343.43 872.413C2339.57 867.291 2252.19 872.413 2252.19 872.413Z" fill="white"/>
<g style="mix-blend-mode:multiply">
<path d="M2382.98 941.645C2386.84 924.977 2379.11 913.431 2370.17 913.431C2362.72 914.049 2355.41 915.775 2348.47 918.553C2348.47 918.553 2325.42 909.611 2326.77 900.626C2328.11 891.641 2347.3 877.534 2343.43 872.412C2342.48 871.11 2336.01 870.459 2326.94 870.242C2324.6 875.234 2311.14 905.271 2319.21 926.67C2327.89 950.239 2326.59 974.416 2317 984.095C2308.58 992.516 2289.31 996.379 2284.84 997.117C2289.37 997.808 2293.97 998.07 2298.55 997.898C2331.89 996.596 2347.3 959.441 2347.3 959.441C2347.3 959.441 2379.11 958.312 2382.98 941.645Z" fill="#92E3A9"/>
</g>
<g style="mix-blend-mode:multiply" opacity="0.3">
<path d="M2382.98 941.645C2386.84 924.977 2379.11 913.431 2370.17 913.431C2362.72 914.049 2355.41 915.775 2348.47 918.553C2348.47 918.553 2325.42 909.611 2326.77 900.626C2328.11 891.641 2347.3 877.534 2343.43 872.412C2342.48 871.11 2336.01 870.459 2326.94 870.242C2324.6 875.234 2311.14 905.271 2319.21 926.67C2327.89 950.239 2326.59 974.416 2317 984.095C2308.58 992.516 2289.31 996.379 2284.84 997.117C2289.37 997.808 2293.97 998.07 2298.55 997.898C2331.89 996.596 2347.3 959.441 2347.3 959.441C2347.3 959.441 2379.11 958.312 2382.98 941.645Z" fill="black"/>
</g>
<path d="M2252.19 872.413C2252.19 872.413 2240.65 939.084 2244.51 959.615C2248.37 980.146 2265 999.331 2298.33 998.073C2331.67 996.814 2347.08 959.615 2347.08 959.615C2347.08 959.615 2379.11 958.313 2382.98 941.645C2386.84 924.977 2379.11 913.431 2370.17 913.431C2362.72 914.05 2355.41 915.776 2348.47 918.553C2348.47 918.553 2325.42 909.612 2326.76 900.627C2328.11 891.642 2347.3 877.535 2343.43 872.413C2339.57 867.291 2252.19 872.413 2252.19 872.413Z" stroke="#2E353A" stroke-width="4" stroke-linecap="round" stroke-linejoin="round"/>
<path d="M2253.5 936.523C2253.5 936.523 2284.23 951.889 2312.44 937.782C2312.44 937.782 2309.88 968.557 2280.41 971.118C2250.94 973.679 2253.5 936.523 2253.5 936.523Z" fill="#2E353A" stroke="#2E353A" stroke-width="4" stroke-linecap="round" stroke-linejoin="round"/>
<path d="M2275.29 905.749L2273.98 913.432C2273.98 913.432 2263.74 918.554 2267.56 923.676C2269.02 925.212 2270.84 926.366 2272.85 927.04C2274.87 927.713 2277.01 927.884 2279.11 927.539" stroke="#2E353A" stroke-width="4" stroke-linecap="round" stroke-linejoin="round"/>
<path d="M2300.03 901.756C2300.03 905.445 2298.34 908.484 2296.25 908.484C2294.17 908.484 2292.43 905.445 2292.43 901.756C2292.43 898.066 2294.12 894.984 2296.25 894.984C2298.38 894.984 2300.03 898.023 2300.03 901.756Z" fill="#2E353A"/>
<path d="M2265.48 898.24C2265.48 901.93 2263.74 904.968 2261.66 904.968C2259.57 904.968 2257.84 901.93 2257.84 898.24C2257.84 894.551 2259.57 891.469 2261.66 891.469C2263.74 891.469 2265.48 894.507 2265.48 898.24Z" fill="#2E353A"/>
<path d="M2265.95 968.21C2270.32 970.742 2275.4 971.764 2280.41 971.118C2286.3 970.783 2292 968.848 2296.88 965.522C2301.75 962.195 2305.64 957.602 2308.1 952.237C2283.79 951.152 2271.81 959.703 2265.95 968.21Z" fill="white" stroke="#2E353A" stroke-width="4" stroke-linecap="round" stroke-linejoin="round"/>
<path d="M2293.21 880.096C2293.21 880.096 2308.45 868.854 2311.97 886.39" stroke="#2E353A" stroke-width="4" stroke-linecap="round" stroke-linejoin="round"/>
<path d="M2271.64 881.702C2271.64 881.702 2264.48 872.11 2258.1 880.878" stroke="#2E353A" stroke-width="4" stroke-linecap="round" stroke-linejoin="round"/>
<path d="M905.998 1370.02H889.07L939.377 1321.4H956.305L905.998 1370.02Z" fill="white" stroke="#2E353A" stroke-width="4" stroke-linecap="round" stroke-linejoin="round"/>
<path d="M894.366 1370.02H877.438L927.745 1321.4H944.673L894.366 1370.02Z" fill="#2E353A" stroke="#2E353A" stroke-width="4" stroke-linecap="round" stroke-linejoin="round"/>
<path d="M979.571 1370.02H996.499L946.192 1321.4H929.264L979.571 1370.02Z" fill="white" stroke="#2E353A" stroke-width="4" stroke-linecap="round" stroke-linejoin="round"/>
<path d="M991.248 1370.02H1008.18L957.869 1321.4H940.94L991.248 1370.02Z" fill="#2E353A" stroke="#2E353A" stroke-width="4" stroke-linecap="round" stroke-linejoin="round"/>
<path d="M1388.58 1370.02H1371.65L1421.96 1321.4H1438.89L1388.58 1370.02Z" fill="white" stroke="#2E353A" stroke-width="4" stroke-linecap="round" stroke-linejoin="round"/>
<path d="M1376.91 1370.02H1359.98L1410.33 1321.4H1427.26L1376.91 1370.02Z" fill="#2E353A" stroke="#2E353A" stroke-width="4" stroke-linecap="round" stroke-linejoin="round"/>
<path d="M1462.16 1370.02H1479.08L1428.78 1321.4H1411.85L1462.16 1370.02Z" fill="#2E353A" stroke="#2E353A" stroke-width="4" stroke-linecap="round" stroke-linejoin="round"/>
<path d="M1473.83 1370.02H1490.76L1440.45 1321.4H1423.52L1473.83 1370.02Z" fill="white" stroke="#2E353A" stroke-width="4" stroke-linecap="round" stroke-linejoin="round"/>
<path d="M1505.04 937H905.564V1336.2H1505.04V937Z" fill="#2E353A" stroke="#2E353A" stroke-width="4" stroke-linecap="round" stroke-linejoin="round"/>
<path d="M1495.14 937H895.667V1336.2H1495.14V937Z" fill="#2E353A" stroke="#2E353A" stroke-width="4" stroke-linecap="round" stroke-linejoin="round"/>
<path d="M1485.33 1336.16V937H885.858V942.556L872.663 970.509V1336.16H1485.33Z" fill="#2E353A" stroke="#2E353A" stroke-width="4" stroke-linecap="round" stroke-linejoin="round"/>
<path d="M1485.33 1336.16V937L1469.53 970.509V1336.16H1485.33Z" fill="#2E353A" stroke="#2E353A" stroke-width="4" stroke-linecap="round" stroke-linejoin="round"/>
<path d="M872.663 970.509H1469.53L1485.33 937H885.858L872.663 970.509Z" fill="white" stroke="#2E353A" stroke-width="4" stroke-linecap="round" stroke-linejoin="round"/>
<path d="M900.486 1289.41H1427.87" stroke="white" stroke-width="4" stroke-linecap="round" stroke-linejoin="round"/>
<path d="M1315.01 1255.21H1010.74C1009.14 1255.08 1007.65 1254.35 1006.57 1253.17C1005.48 1251.99 1004.88 1250.45 1004.88 1248.85C1004.88 1247.25 1005.48 1245.7 1006.57 1244.53C1007.65 1243.35 1009.14 1242.62 1010.74 1242.49H1315.01C1316.61 1242.62 1318.09 1243.35 1319.18 1244.53C1320.26 1245.7 1320.87 1247.25 1320.87 1248.85C1320.87 1250.45 1320.26 1251.99 1319.18 1253.17C1318.09 1254.35 1316.61 1255.08 1315.01 1255.21Z" fill="#2E353A" stroke="white" stroke-width="4" stroke-linecap="round" stroke-linejoin="round"/>
<path d="M1001.27 1146.09V1001.41H1308.24V1154.2" stroke="white" stroke-width="4" stroke-linecap="round" stroke-linejoin="round"/>
<path d="M1574.4 1393.32H817.061V1676.94H1574.4V1393.32Z" fill="#2E353A" stroke="#2E353A" stroke-width="4" stroke-linecap="round" stroke-linejoin="round"/>
<path d="M1574.36 1393.32H1297.47V1676.94H1574.36V1393.32Z" fill="#92E3A9" stroke="#2E353A" stroke-width="4" stroke-linecap="round" stroke-linejoin="round"/>
<g style="mix-blend-mode:multiply" opacity="0.3">
<path d="M1574.36 1393.32H1297.47V1676.94H1574.36V1393.32Z" fill="black"/>
</g>
<path d="M1590.46 1365.81H801V1397.54H1590.46V1365.81Z" fill="#2E353A" stroke="#2E353A" stroke-width="4" stroke-linecap="round" stroke-linejoin="round"/>
<path d="M1573.71 1385.34H817.494V1417.07H1573.71V1385.34Z" fill="#2E353A" stroke="#2E353A" stroke-width="4" stroke-linecap="round" stroke-linejoin="round"/>
<path d="M1590.46 1365.81H1325.91V1397.54H1590.46V1365.81Z" fill="#92E3A9" stroke="#2E353A" stroke-width="4" stroke-linecap="round" stroke-linejoin="round"/>
<g style="mix-blend-mode:multiply" opacity="0.3">
<path d="M1590.46 1365.81H1325.91V1397.54H1590.46V1365.81Z" fill="black"/>
</g>
</svg>
