<svg width="4526" height="2869" viewBox="0 0 4526 2869" fill="none" xmlns="http://www.w3.org/2000/svg">
<path d="M4324.47 505.313H1863.81V2732.93H4324.47V505.313Z" fill="#263238" stroke="#263238" stroke-width="8.85159" stroke-miterlimit="10" stroke-linecap="round"/>
<path d="M2142.89 509.97H2030.21V2727.37H2142.89V509.97Z" fill="#C9C9C9" stroke="#263238" stroke-width="8.85159" stroke-miterlimit="10" stroke-linecap="round"/>
<path d="M2250.2 509.97H2137.52V2727.37H2250.2V509.97Z" fill="#BABABA" stroke="#263238" stroke-width="8.85159" stroke-miterlimit="10" stroke-linecap="round"/>
<path d="M2357.45 509.97H2244.77V2727.37H2357.45V509.97Z" fill="#C9C9C9" stroke="#263238" stroke-width="8.85159" stroke-miterlimit="10" stroke-linecap="round"/>
<path d="M2464.76 509.97H2352.08V2727.37H2464.76V509.97Z" fill="#BABABA" stroke="#263238" stroke-width="8.85159" stroke-miterlimit="10" stroke-linecap="round"/>
<path d="M2572 509.97H2459.33V2727.37H2572V509.97Z" fill="#C9C9C9" stroke="#263238" stroke-width="8.85159" stroke-miterlimit="10" stroke-linecap="round"/>
<path d="M2679.32 509.97H2566.64V2727.37H2679.32V509.97Z" fill="#BABABA" stroke="#263238" stroke-width="8.85159" stroke-miterlimit="10" stroke-linecap="round"/>
<path d="M2786.63 509.97H2673.95V2727.37H2786.63V509.97Z" fill="#C9C9C9" stroke="#263238" stroke-width="8.85159" stroke-miterlimit="10" stroke-linecap="round"/>
<path d="M2893.87 509.97H2781.2V2727.37H2893.87V509.97Z" fill="#BABABA" stroke="#263238" stroke-width="8.85159" stroke-miterlimit="10" stroke-linecap="round"/>
<path d="M3001.18 509.97H2888.51V2727.37H3001.18V509.97Z" fill="#C9C9C9" stroke="#263238" stroke-width="8.85159" stroke-miterlimit="10" stroke-linecap="round"/>
<path d="M3108.49 509.97H2995.82V2727.37H3108.49V509.97Z" fill="#BABABA" stroke="#263238" stroke-width="8.85159" stroke-miterlimit="10" stroke-linecap="round"/>
<path d="M3215.74 509.97H3103.06V2727.37H3215.74V509.97Z" fill="#C9C9C9" stroke="#263238" stroke-width="8.85159" stroke-miterlimit="10" stroke-linecap="round"/>
<path d="M3323.05 509.97H3210.38V2727.37H3323.05V509.97Z" fill="#BABABA" stroke="#263238" stroke-width="8.85159" stroke-miterlimit="10" stroke-linecap="round"/>
<path d="M3430.3 509.97H3317.62V2727.37H3430.3V509.97Z" fill="#C9C9C9" stroke="#263238" stroke-width="8.85159" stroke-miterlimit="10" stroke-linecap="round"/>
<path d="M3537.61 509.97H3424.93V2727.37H3537.61V509.97Z" fill="#BABABA" stroke="#263238" stroke-width="8.85159" stroke-miterlimit="10" stroke-linecap="round"/>
<path d="M3644.92 509.97H3532.24V2727.37H3644.92V509.97Z" fill="#C9C9C9" stroke="#263238" stroke-width="8.85159" stroke-miterlimit="10" stroke-linecap="round"/>
<path d="M3752.17 509.97H3639.49V2727.37H3752.17V509.97Z" fill="#BABABA" stroke="#263238" stroke-width="8.85159" stroke-miterlimit="10" stroke-linecap="round"/>
<path d="M3859.48 509.97H3746.8V2727.37H3859.48V509.97Z" fill="#C9C9C9" stroke="#263238" stroke-width="8.85159" stroke-miterlimit="10" stroke-linecap="round"/>
<path d="M3966.73 509.97H3854.05V2727.37H3966.73V509.97Z" fill="#BABABA" stroke="#263238" stroke-width="8.85159" stroke-miterlimit="10" stroke-linecap="round"/>
<path d="M4074.04 509.97H3961.36V2727.37H4074.04V509.97Z" fill="#C9C9C9" stroke="#263238" stroke-width="8.85159" stroke-miterlimit="10" stroke-linecap="round"/>
<path d="M2138.49 700.543C2138.49 700.543 2156.79 1037.54 2140.56 1271.3L2138.49 700.543Z" fill="#263238"/>
<path d="M2351.95 772.304C2351.95 772.304 2390.74 1119.84 2349.95 1309.38L2351.95 772.304Z" fill="#263238"/>
<path d="M2248.9 1466.33V2058.74C2248.9 2058.74 2292.22 1786.33 2248.9 1466.33Z" fill="#263238"/>
<path d="M2566.44 614.047V1158.36C2566.44 1158.36 2609.69 814.447 2566.44 614.047Z" fill="#263238"/>
<path d="M2459.65 1203.16V1819.55C2459.65 1819.55 2494.24 1358.7 2459.65 1203.16Z" fill="#263238"/>
<path d="M2673.24 651.412V1514.23C2673.24 1514.23 2730.97 1138.84 2673.24 651.412Z" fill="#263238"/>
<path d="M2678.99 2652.12V1744.5C2678.99 1744.5 2716.55 2313.77 2678.99 2652.12Z" fill="#263238"/>
<path d="M3103.32 2155.71V1248.02C3103.32 1248.02 3140.88 1817.35 3103.32 2155.71Z" fill="#263238"/>
<path d="M2993.62 1889.5V981.878C2993.62 981.878 3031.18 1551.21 2993.62 1889.5Z" fill="#263238"/>
<path d="M3213.03 1569.57V661.888C3213.03 661.888 3250.59 1231.28 3213.03 1569.57Z" fill="#263238"/>
<path d="M3319.82 2499.62V1591.94C3319.82 1591.94 3357.38 2161.27 3319.82 2499.62Z" fill="#263238"/>
<path d="M3429.52 2080.92V1173.1C3429.52 1173.1 3467.08 1742.56 3429.52 2080.92Z" fill="#263238"/>
<path d="M3637.36 2379.97V1472.35C3637.36 1472.35 3674.92 2041.61 3637.36 2379.97Z" fill="#263238"/>
<path d="M3533.47 1476.93V569.184C3533.47 569.184 3570.97 1138.45 3533.47 1476.93Z" fill="#263238"/>
<path d="M3747.06 1763.89V856.338C3747.06 856.338 3784.56 1425.6 3747.06 1763.89Z" fill="#263238"/>
<path d="M3960.65 2526.51V1619.15C3960.65 1619.15 3998.21 2188.03 3960.65 2526.51Z" fill="#263238"/>
<path d="M3853.99 2649.15V1741.53C3853.99 1741.53 3891.41 2310.86 3853.99 2649.15Z" fill="#263238"/>
<path d="M3853.99 1417.01V509.387C3853.99 509.387 3891.41 1078.65 3853.99 1417.01Z" fill="#263238"/>
<path d="M3963.88 1692.14V784.52C3963.88 784.52 4001.05 1354.11 3963.88 1692.14Z" fill="#263238"/>
<path d="M2892.64 2702.99V1795.31C2892.64 1795.31 2930.14 2364.64 2892.64 2702.99Z" fill="#263238"/>
<path d="M2136.29 2347.06V1439.44C2136.29 1439.44 2173.85 2008.71 2136.29 2347.06Z" fill="#263238"/>
<path d="M2355.7 2667.06V1759.44C2355.7 1759.44 2393 2328.7 2355.7 2667.06Z" fill="#263238"/>
<path d="M2889.73 593.101V1726.53C2889.73 1726.53 2930.14 1055.19 2889.73 593.101Z" fill="#263238"/>
<path d="M1917.15 505.313H1623.01V2732.93H1917.15V505.313Z" fill="white" stroke="#263238" stroke-width="8.85159" stroke-miterlimit="10" stroke-linecap="round"/>
<path d="M4471.54 505.313H4177.41V2732.93H4471.54V505.313Z" fill="white" stroke="#263238" stroke-width="8.85159" stroke-miterlimit="10" stroke-linecap="round"/>
<path d="M4520.74 185.644H1568.39V529.686H4520.74V185.644Z" fill="#263238" stroke="#263238" stroke-width="8.85159" stroke-miterlimit="10" stroke-linecap="round"/>
<path d="M3259.84 2787.58H3830.74C3819.66 2717.78 3775.35 2730.08 3769.03 2621.39C3766.04 2566.88 3816.45 2499.52 3812.02 2427.84C3808.47 2368.9 3750.31 2308.41 3745.54 2240.94C3741.55 2180.11 3791.08 2112.53 3786.31 2046.95C3781.77 1984.9 3722.83 1925.08 3717.62 1860.93C3712.42 1796.78 3761.16 1729.75 3755.4 1666.16C3749.64 1602.57 3689.71 1544.29 3683.28 1481.47C3676.74 1416.99 3723.83 1347.64 3716.52 1286.04C3708.87 1220.56 3647.05 1164.17 3638.96 1103.68C3629.55 1036.54 3673.31 964.749 3663.12 906.806C3650.6 835.789 3584.45 784.383 3570.5 731.979C3544.57 634.373 3548.34 540.202 3517.21 534.108C3484.52 527.572 3477.1 619.749 3452.39 722.451C3439.87 774.301 3374.84 826.815 3364.65 897.832C3356.01 955.442 3401.76 1025.35 3394.23 1092.27C3387.58 1152.21 3327.75 1209.71 3321.44 1274.85C3316.01 1336.12 3364.87 1403.59 3359.99 1467.62C3355.34 1529.89 3296.95 1589.49 3292.86 1652.42C3288.76 1715.35 3339.28 1781.82 3335.84 1844.31C3332.41 1906.8 3274.91 1968.62 3272.03 2030.22C3268.92 2095.25 3320.22 2160.95 3317.78 2221.33C3315.01 2287.8 3258.4 2349.62 3256.29 2408.12C3253.75 2479.14 3305.93 2544.61 3304.38 2598.68C3300.83 2716.01 3247.1 2691.74 3245.22 2786.14L3259.84 2787.58Z" fill="#92E3A9"/>
<path d="M3504.91 722.229V2761.21" stroke="#263238" stroke-width="8.85159" stroke-miterlimit="10"/>
<path d="M3594.09 935.942L3501.14 1016.26L3425.03 914.781" stroke="#263238" stroke-width="8.85159" stroke-miterlimit="10"/>
<path d="M3594.09 1290.91L3501.14 1371.12L3425.03 1269.75" stroke="#263238" stroke-width="8.85159" stroke-miterlimit="10"/>
<path d="M3594.09 1624.61L3501.14 1704.94L3425.03 1603.56" stroke="#263238" stroke-width="8.85159" stroke-miterlimit="10"/>
<path d="M3594.09 2021.79L3501.14 2102.11L3425.03 2000.74" stroke="#263238" stroke-width="8.85159" stroke-miterlimit="10"/>
<path d="M3594.09 2423.19L3501.14 2503.51L3425.03 2402.14" stroke="#263238" stroke-width="8.85159" stroke-miterlimit="10"/>
<path d="M2659.36 2787.58H3154.48C3144.95 2727.09 3106.07 2737.72 3100.86 2643.55C3098.31 2596.24 3142.07 2537.75 3138.31 2475.7C3135.09 2424.63 3084.68 2372.11 3080.81 2313.62C3077.26 2260.88 3120.36 2202.27 3116.15 2145.33C3112.16 2091.59 3060.75 2039.97 3056.54 1984.13C3052.33 1928.29 3094.32 1870.35 3089.78 1815.17C3085.24 1760 3032.72 1709.37 3027.3 1655.08C3021.53 1599.13 3062.3 1538.97 3056.1 1485.57C3049.45 1428.74 2995.94 1379.77 2988.63 1327.48C2980.54 1269.2 3018.54 1206.94 3009.68 1156.75C2998.6 1095.15 2941.43 1050.5 2929.36 1005.08C2907.2 920.434 2909.75 838.892 2883.16 833.574C2854.8 827.813 2848.37 907.804 2826.88 997.322C2815.8 1041.64 2760.4 1087.73 2750.87 1149.33C2743.34 1199.29 2783 1260.12 2776.47 1317.95C2770.71 1369.91 2718.52 1419.76 2713.43 1476.27C2708.66 1529.34 2750.99 1587.94 2746.66 1643.45C2742.34 1698.95 2692.04 1748.92 2688.5 1803.65C2684.95 1858.38 2728.72 1915.88 2725.72 1969.84C2722.73 2023.79 2672.88 2077.64 2670.33 2131.04C2667.67 2187.54 2712.21 2244.48 2709.99 2297.22C2707.67 2355.27 2658.59 2408.01 2656.81 2459.2C2654.6 2520.8 2699.8 2577.63 2698.47 2624.49C2695.37 2726.2 2648.84 2705.15 2647.17 2787.02L2659.36 2787.58Z" fill="#92E3A9"/>
<path d="M2871.63 996.544V2764.75" stroke="#263238" stroke-width="8.85159" stroke-miterlimit="10"/>
<path d="M2948.97 1181.9L2868.42 1251.58L2802.39 1163.62" stroke="#263238" stroke-width="8.85159" stroke-miterlimit="10"/>
<path d="M2948.97 1489.67L2868.42 1559.35L2802.39 1471.39" stroke="#263238" stroke-width="8.85159" stroke-miterlimit="10"/>
<path d="M2948.97 1779.16L2868.42 1848.74L2802.39 1760.88" stroke="#263238" stroke-width="8.85159" stroke-miterlimit="10"/>
<path d="M2948.97 2123.61L2868.42 2193.18L2802.39 2105.22" stroke="#263238" stroke-width="8.85159" stroke-miterlimit="10"/>
<path d="M2948.97 2471.6L2868.42 2541.29L2802.39 2453.32" stroke="#263238" stroke-width="8.85159" stroke-miterlimit="10"/>
<path d="M916.411 2787.57H1605.08C1591.9 2703.37 1537.72 2718.22 1530.52 2588.15C1526.97 2522.34 1587.8 2441.02 1582.48 2354.72C1578.16 2283.59 1508.03 2210.69 1502.6 2129.26C1497.73 2055.81 1558 1974.16 1551.79 1895.16C1546.25 1820.38 1475.13 1748.59 1468.92 1670.81C1462.72 1595.03 1521.32 1512.71 1514.46 1435.94C1507.59 1359.16 1435.13 1288.81 1427.49 1213.25C1419.62 1135.7 1476.34 1051.83 1467.7 977.378C1458.4 898.496 1383.94 830.249 1373.86 757.46C1362.78 676.472 1415.41 589.946 1403 520.037C1387.93 434.396 1308.16 372.354 1291.32 309.536C1260.08 191.766 1263.96 78.2067 1227.07 70.7838C1187.63 62.9177 1178.65 174.262 1148.85 298.568C1133.78 361.053 1055.79 424.425 1043.04 510.066C1032.63 579.531 1087.36 663.953 1078.72 744.608C1070.63 816.843 998.063 886.309 990.973 964.859C984.326 1038.64 1043.27 1119.96 1037.5 1197.52C1031.85 1272.52 961.392 1344.09 956.517 1420.32C951.642 1496.54 1011.91 1576.53 1008.26 1651.76C1003.94 1729.31 934.802 1801.77 931.257 1876C927.49 1954.55 989.422 2033.76 986.652 2106.55C983.328 2187.31 915.082 2261.66 912.534 2331.79C909.542 2417.43 972.471 2496.53 970.477 2561.67C966.267 2703.26 901.455 2673.9 899.128 2787.8L916.411 2787.57Z" fill="#92E3A9"/>
<path d="M1212 296.353V2755.78" stroke="#263238" stroke-width="8.85159" stroke-miterlimit="10"/>
<path d="M1319.58 554.269L1207.46 651.099L1115.72 528.787" stroke="#263238" stroke-width="8.85159" stroke-miterlimit="10"/>
<path d="M1319.58 982.252L1207.46 1079.08L1115.72 956.881" stroke="#263238" stroke-width="8.85159" stroke-miterlimit="10"/>
<path d="M1319.58 1384.87L1207.46 1481.7L1115.72 1359.38" stroke="#263238" stroke-width="8.85159" stroke-miterlimit="10"/>
<path d="M1319.58 1863.92L1207.46 1960.75L1115.72 1838.44" stroke="#263238" stroke-width="8.85159" stroke-miterlimit="10"/>
<path d="M1319.58 2348.07L1207.46 2444.9L1115.72 2322.59" stroke="#263238" stroke-width="8.85159" stroke-miterlimit="10"/>
<path d="M3052.12 743.336C3377.27 743.336 3640.85 578.132 3640.85 374.341C3640.85 170.551 3377.27 5.3457 3052.12 5.3457C2726.98 5.3457 2463.4 170.551 2463.4 374.341C2463.4 578.132 2726.98 743.336 3052.12 743.336Z" fill="#263238" stroke="#263238" stroke-width="8.85159" stroke-miterlimit="10" stroke-linecap="round"/>
<path d="M1005.97 2560.06C1005.97 2560.06 961.556 2592.39 971.511 2606.74C981.466 2621.09 1041.39 2656.64 1059.95 2677.85C1078.5 2699.05 1118.13 2720.58 1156.91 2727.69C1195.7 2734.8 1242.44 2740.62 1239.6 2713.47C1236.75 2686.32 1189.69 2677.85 1176.89 2662.14C1164.09 2646.43 1145.08 2605.12 1145.08 2605.12L1027.17 2535.24L1005.97 2560.06Z" fill="white" stroke="#263238" stroke-width="8.85159" stroke-miterlimit="10" stroke-linecap="round"/>
<path d="M1499.21 1774.3C1499.21 1774.3 1475.36 2160.42 1464.95 2212.59C1454.54 2264.76 1145.34 2605.31 1145.34 2605.31C1145.34 2605.31 1082.77 2608.74 1061.89 2598.33C1042.37 2587.03 1023.76 2574.23 1006.23 2560.06C1006.23 2560.06 1051.48 2497.48 1065.38 2487.08C1079.27 2476.67 1114.05 2459.28 1124.46 2452.3C1134.87 2445.32 1204.43 2306.26 1204.43 2306.26L1241.21 1797.57L1499.21 1774.3Z" fill="#263238" stroke="#263238" stroke-width="8.85159" stroke-miterlimit="10" stroke-linecap="round"/>
<path d="M1383.82 2613.07L1415.17 2665.82C1419.44 2672.94 1502.12 2712.82 1502.12 2721.42C1502.12 2730.02 1490.74 2742.82 1483.63 2745.66C1476.52 2748.51 1373.73 2749.93 1342.45 2745.66C1311.16 2741.39 1288.27 2729.95 1265.45 2724.26C1242.63 2718.57 1226.67 2725.69 1225.5 2700.02C1224.34 2674.36 1236.36 2624.39 1236.36 2624.39C1236.36 2624.39 1248.32 2625.87 1288.08 2613.07C1327.84 2600.27 1383.82 2613.07 1383.82 2613.07Z" fill="white" stroke="#263238" stroke-width="8.85159" stroke-miterlimit="10" stroke-linecap="round"/>
<path d="M1156.98 1801.97C1156.98 1801.97 1191.11 2217.57 1208.7 2248.93C1226.28 2280.28 1246.97 2572.15 1246.97 2572.15C1246.97 2572.15 1213.87 2604.47 1231.26 2621.73C1248.65 2639 1232.62 2643.91 1232.62 2643.91C1232.62 2643.91 1285.24 2631.3 1302.63 2624.51C1320.02 2617.73 1389.25 2619.34 1389.25 2619.34C1389.25 2619.34 1410.39 2579.33 1413.88 2551.53C1417.37 2523.73 1396.49 2433.29 1396.49 2422.89C1396.49 2412.48 1410.39 1932.49 1410.39 1932.49L1495.46 1829.05L1156.98 1801.97Z" fill="#263238" stroke="#263238" stroke-width="8.85159" stroke-miterlimit="10" stroke-linecap="round"/>
<path d="M1350.91 1045.04L1346.78 1082.14C1308.17 1090.08 1268.78 1093.53 1229.38 1092.42C1165.45 1090.35 1157.04 1118.28 1157.04 1118.28C1157.04 1118.28 971.576 1382.23 979.851 1402.72C988.125 1423.21 1056.13 1442.93 1056.13 1442.93L1169.58 1343.95L1157.17 1801.84C1157.17 1801.84 1192.28 1845.15 1295.38 1849.29C1398.49 1853.42 1482.86 1836.94 1495.46 1828.67C1508.07 1820.39 1528.5 1428.51 1528.5 1428.51L1601.29 1427.74C1601.29 1427.74 1588.36 1251.12 1580.02 1203.67C1571.68 1156.22 1542.91 1133.6 1495.46 1117.05C1448.01 1100.5 1431.53 1082.01 1431.53 1082.01L1392.35 1030.3C1377.2 1029.94 1362.44 1035.19 1350.91 1045.04Z" fill="white" stroke="#263238" stroke-width="8.85159" stroke-miterlimit="10" stroke-linecap="round"/>
<path d="M1295.19 1849.42C1398.62 1853.56 1482.66 1837.07 1495.27 1828.8C1507.87 1820.52 1528.3 1428.64 1528.3 1428.64L1621.13 1433.56C1621.13 1433.56 1588.1 1251.26 1579.82 1203.81C1571.55 1156.36 1542.72 1133.73 1495.27 1117.18C1447.82 1100.63 1431.33 1082.15 1431.33 1082.15L1392.16 1030.43C1377.1 1030.05 1362.43 1035.2 1350.91 1044.91L1346.78 1082.02C1308.18 1090 1268.78 1093.49 1229.38 1092.42C1165.45 1090.36 1157.04 1118.28 1157.04 1118.28C1157.04 1118.28 1063.76 1210.6 1022.52 1288.69L1128.99 1379.58L1169.65 1344.09L1157.24 1801.97C1157.24 1801.97 1192.08 1845.41 1295.19 1849.42Z" fill="#A3A3A3" stroke="#263238" stroke-width="8.85159" stroke-miterlimit="10" stroke-linecap="round"/>
<path d="M1548.66 1700.61C1601.87 1647.47 1610.01 1564.27 1610.01 1564.27L1600.96 1433.17L1528.3 1428.64L1523.65 1546.56C1513.86 1569.62 1509.32 1594.57 1510.33 1619.61C1511.62 1636.91 1510.53 1654.31 1507.1 1671.32H1506.58C1506.58 1671.32 1486.6 1710.76 1484.73 1717.61C1482.85 1724.46 1519.7 1740.11 1529.98 1742.63C1540.26 1745.15 1554.42 1745.15 1555 1736.16C1555.58 1727.18 1565.28 1725.3 1556.87 1716.77C1554.49 1714.77 1552.53 1712.3 1551.12 1709.53C1549.71 1706.75 1548.87 1703.72 1548.66 1700.61Z" fill="white" stroke="#263238" stroke-width="8.85159" stroke-miterlimit="10" stroke-linecap="round"/>
<path d="M1532.31 1540.8C1532.31 1540.8 1570.19 1524.38 1595.79 1545.91" stroke="#263238" stroke-width="8.85159" stroke-miterlimit="10" stroke-linecap="round"/>
<path d="M1548.67 1700.6C1545.58 1697.78 1541.81 1695.81 1537.73 1694.89C1533.64 1693.97 1529.39 1694.13 1525.39 1695.37" stroke="#263238" stroke-width="8.85159" stroke-miterlimit="10" stroke-linecap="round"/>
<path d="M1506.19 1658.78C1523.26 1649.08 1552.54 1653.93 1564.89 1666.08C1573.36 1675.36 1578.05 1687.47 1578.05 1700.02C1578.05 1712.58 1573.36 1724.68 1564.89 1733.96C1551.96 1747.67 1533.35 1752.58 1516.34 1742.04C1499.34 1731.5 1488.09 1729.11 1487.25 1712.11C1486.59 1697.44 1489.47 1682.83 1495.66 1669.51C1497.97 1664.93 1501.65 1661.18 1506.19 1658.78Z" fill="#92E3A9" stroke="#263238" stroke-width="8.85159" stroke-miterlimit="10" stroke-linecap="round"/>
<path d="M1238.63 1268.26L1169.39 1344.08L1238.63 1310.86" stroke="#263238" stroke-width="8.85159" stroke-miterlimit="10" stroke-linecap="round"/>
<path d="M1525.84 1406.99L1528.3 1281.83" stroke="#263238" stroke-width="8.85159" stroke-miterlimit="10" stroke-linecap="round"/>
<path d="M1526.04 1300.78C1526.04 1315.58 1509.88 1327.54 1489.9 1327.54C1469.93 1327.54 1453.83 1315.58 1453.83 1300.78C1453.83 1285.97 1469.99 1274.01 1489.9 1274.01C1509.81 1274.01 1526.04 1286.04 1526.04 1300.78Z" fill="#92E3A9" stroke="#263238" stroke-width="8.85159" stroke-miterlimit="10" stroke-linecap="round"/>
<path d="M1508.46 1300.77C1508.46 1308.34 1500.12 1314.48 1489.9 1314.48C1479.69 1314.48 1471.42 1308.01 1471.42 1300.77C1471.42 1293.53 1479.69 1287.07 1489.9 1287.07C1500.12 1287.07 1508.46 1293.21 1508.46 1300.77Z" fill="white" stroke="#263238" stroke-width="8.85159" stroke-miterlimit="10" stroke-linecap="round"/>
<path d="M1798 1986.08L2184.71 2021.7L2178.12 2643.13L1785.91 2007.22L1798 1986.08Z" fill="white" stroke="#263238" stroke-width="8.85159" stroke-miterlimit="10" stroke-linecap="round"/>
<path d="M1973.45 2222.94L1987.6 2241.43" stroke="#263238" stroke-width="8.85159" stroke-miterlimit="10" stroke-linecap="round"/>
<path d="M1824.51 2029.13L1956.58 2201.02" stroke="#263238" stroke-width="8.85159" stroke-miterlimit="10" stroke-linecap="round"/>
<path d="M1857.99 2020.21L1942.94 2035.85" stroke="#263238" stroke-width="8.85159" stroke-miterlimit="10" stroke-linecap="round"/>
<path d="M2023.81 2144.65L2045.72 2158.75" stroke="#263238" stroke-width="8.85159" stroke-miterlimit="10" stroke-linecap="round"/>
<path d="M1889.28 2058.22L2012.37 2137.35" stroke="#263238" stroke-width="8.85159" stroke-miterlimit="10" stroke-linecap="round"/>
<path d="M1763.68 1963.39L1798.97 1997.84" stroke="#263238" stroke-width="8.85159" stroke-miterlimit="10" stroke-linecap="round"/>
<path d="M1382.92 1591.16L1763.68 1963.39" stroke="#263238" stroke-width="8.85159" stroke-miterlimit="10" stroke-linecap="round"/>
<path d="M1193.57 1572.54C1193.57 1572.54 1100.41 1569.44 1091.11 1681.21C1081.8 1792.98 1202.42 2560.39 968.668 2737.9C756.954 2898.55 549.313 2872.3 415.692 2810.37C306.764 2759.82 643.696 2726.78 798.327 2767.12C910.293 2796.34 685.004 2863.44 461.461 2864.09C204.56 2864.67 70.1625 2773.59 5 2767.12" stroke="#263238" stroke-width="8.85159" stroke-miterlimit="10" stroke-linecap="round"/>
<path d="M1251.88 1587.48L1311.55 1569.44L1364.1 1614.11C1366.7 1616.32 1370.03 1617.47 1373.44 1617.32C1376.84 1617.18 1380.06 1615.75 1382.46 1613.33L1410.78 1585.02C1412.08 1583.76 1413.11 1582.25 1413.81 1580.59C1414.52 1578.92 1414.88 1577.13 1414.88 1575.32C1414.88 1573.51 1414.52 1571.72 1413.81 1570.06C1413.11 1568.39 1412.08 1566.88 1410.78 1565.63C1392.22 1547.01 1349.17 1507.44 1311.48 1497.75C1261.77 1485.34 1215.23 1519.47 1215.23 1519.47L1251.88 1587.48Z" fill="#263238" stroke="#263238" stroke-width="8.85159" stroke-miterlimit="10" stroke-linecap="round"/>
<path d="M1043.59 1367.03L1208.57 1494.9C1208.57 1494.9 1239.53 1503.18 1249.81 1513.46C1260.09 1523.73 1301.53 1556.77 1288.99 1569.18C1276.45 1581.59 1291.05 1577.39 1276.64 1581.53C1262.22 1585.66 1251.88 1587.99 1251.88 1587.99C1251.88 1587.99 1216.84 1602.41 1196.22 1600.34C1175.6 1598.27 1142.56 1550.89 1142.56 1540.54C1142.56 1530.2 973.453 1435.36 967.247 1422.95C961.041 1410.54 1018.96 1330.19 1018.96 1330.19" fill="white"/>
<path d="M1043.59 1367.03L1208.57 1494.9C1208.57 1494.9 1239.53 1503.18 1249.81 1513.46C1260.09 1523.73 1301.53 1556.77 1288.99 1569.18C1276.45 1581.59 1291.05 1577.39 1276.64 1581.53C1262.22 1585.66 1251.88 1587.99 1251.88 1587.99C1251.88 1587.99 1216.84 1602.41 1196.22 1600.34C1175.6 1598.27 1142.56 1550.89 1142.56 1540.54C1142.56 1530.2 973.453 1435.36 967.247 1422.95C961.041 1410.54 1018.96 1330.19 1018.96 1330.19" stroke="#263238" stroke-width="8.85159" stroke-miterlimit="10" stroke-linecap="round"/>
<path d="M1151.8 1429.74L1080.18 1510.55L1142.56 1540.03C1142.56 1540.03 1155.49 1572.99 1170.23 1589.54C1184.97 1606.09 1184.9 1611.59 1199.58 1611.59C1214.25 1611.59 1264.22 1595.04 1264.22 1595.04C1264.22 1595.04 1267.97 1598.59 1290.08 1584.05C1312.19 1569.5 1301.14 1560.13 1291.96 1545.26C1282.78 1530.39 1236.81 1497.49 1224.01 1488.31C1211.21 1479.13 1205.59 1473.63 1200.09 1469.95C1194.6 1466.26 1151.8 1429.74 1151.8 1429.74Z" fill="#92E3A9" stroke="#263238" stroke-width="8.85159" stroke-miterlimit="10" stroke-linecap="round"/>
<path d="M1495.27 1117.18C1447.82 1100.7 1431.33 1082.15 1431.33 1082.15L1392.16 1030.43C1377.1 1030.05 1362.43 1035.2 1350.91 1044.91L1346.78 1082.02C1346.78 1082.02 1342.38 1082.99 1334.88 1084.34C1344.51 1104.97 1380.97 1187.78 1435.47 1189.26C1474.26 1190.49 1498.56 1153.06 1511.75 1123.39C1506.52 1121.39 1500.89 1119.19 1495.27 1117.18Z" fill="white" stroke="#263238" stroke-width="8.85159" stroke-miterlimit="10" stroke-linecap="round"/>
<path d="M1542.72 1032.62L1524.16 1088.35L1501.47 1081.88C1501.47 1081.88 1495.01 1131.4 1482.92 1137.54C1470.83 1143.68 1458.16 1145.82 1433.4 1127.26C1408.64 1108.71 1383.88 1086.02 1383.88 1065.4C1383.88 1044.78 1396.29 968.429 1408.64 951.945C1420.99 935.46 1542.72 1032.62 1542.72 1032.62Z" fill="white" stroke="#263238" stroke-width="8.85159" stroke-miterlimit="10" stroke-linecap="round"/>
<path d="M1500.38 1039.93C1499.34 1046 1495.79 1050.53 1492.36 1049.95C1488.93 1049.36 1486.99 1043.93 1488.03 1037.86C1489.06 1031.78 1492.62 1027.19 1496.04 1027.77C1499.47 1028.36 1501.41 1033.79 1500.38 1039.93Z" fill="#263238"/>
<path d="M1456.09 974.892C1456.09 974.892 1447.82 999.651 1425.13 1001.72C1402.44 1003.79 1388.02 972.824 1388.02 972.824L1383.88 1065.65L1350.92 1045.03C1350.92 1045.03 1357.06 966.618 1365.33 943.927C1373.61 921.237 1406.57 910.958 1406.57 910.958C1406.57 910.958 1441.68 950.133 1456.09 974.892Z" fill="#263238" stroke="#263238" stroke-width="8.85159" stroke-miterlimit="10" stroke-linecap="round"/>
<path d="M1392.16 1030.87C1357.06 1024.41 1365.33 979.158 1388.02 973.146C1410.71 967.134 1402.44 1004.05 1402.44 1004.05" fill="white"/>
<path d="M1392.16 1030.87C1357.06 1024.41 1365.33 979.158 1388.02 973.146C1410.71 967.134 1402.44 1004.05 1402.44 1004.05" stroke="#263238" stroke-width="8.85159" stroke-miterlimit="10" stroke-linecap="round"/>
<path d="M1365.14 943.931L1470.31 999.656C1487.94 1007.27 1506.85 1011.46 1526.04 1012C1541.37 1012.32 1556.66 1010.14 1571.29 1005.54L1585.64 943.479C1586.93 937.868 1587.01 932.05 1585.9 926.403C1584.79 920.756 1582.49 915.407 1579.18 910.704C1564.52 889.322 1546.59 870.385 1526.04 854.591C1486.86 825.76 1427.32 845.994 1394.36 864.547C1361.39 883.1 1365.14 943.931 1365.14 943.931Z" fill="#92E3A9" stroke="#263238" stroke-width="8.85159" stroke-miterlimit="10" stroke-linecap="round"/>
<path d="M1570.97 952.142C1568.32 966.687 1550.28 975.544 1530.69 971.988C1511.11 968.433 1497.34 953.694 1499.99 939.149C1502.64 924.603 1520.67 915.747 1540.26 919.302C1559.85 922.858 1573.62 937.597 1570.97 952.142Z" fill="#92E3A9" stroke="#263238" stroke-width="8.85159" stroke-miterlimit="10" stroke-linecap="round"/>
<path d="M1553.64 948.973C1552.28 956.408 1543.04 960.997 1533.02 959.123C1523 957.248 1515.89 949.814 1517.25 942.315C1518.6 934.816 1527.85 930.291 1537.93 932.166C1548.02 934.04 1555.06 941.539 1553.64 948.973Z" fill="white" stroke="#263238" stroke-width="8.85159" stroke-miterlimit="10" stroke-linecap="round"/>
<path d="M1454.03 993.45C1478.44 988.324 1503.37 986.154 1528.3 986.985C1565.41 989.054 1598.31 1022.02 1598.31 1022.02C1598.31 1022.02 1630.64 1054.73 1628.44 1060.81C1626.24 1066.89 1579.83 1057.06 1548.92 1054.99C1518.02 1052.92 1454.03 993.45 1454.03 993.45Z" fill="#92E3A9" stroke="#263238" stroke-width="8.85159" stroke-miterlimit="10" stroke-linecap="round"/>
<path d="M1461.27 1072.83C1463.25 1079.31 1467.01 1085.1 1472.12 1089.54C1477.22 1093.99 1483.48 1096.91 1490.16 1097.98" stroke="#263238" stroke-width="8.85159" stroke-miterlimit="10" stroke-linecap="round"/>
<path d="M1451.95 1140.71L1447.43 1176.72L1482.92 1137.8L1451.95 1140.71Z" fill="#263238"/>
<path d="M1491.33 1706.81C1491.33 1706.81 1471.93 1736.48 1483.12 1746.76C1490.74 1753.74 1515.44 1766.15 1530.57 1773.01C1534.07 1774.66 1538.03 1775.1 1541.82 1774.27C1545.61 1773.44 1549.01 1771.38 1551.51 1768.42C1556.71 1762.96 1560.95 1756.66 1564.05 1749.8C1566.12 1741.59 1546.6 1723.16 1546.6 1723.16L1538.45 1726.27C1538.45 1726.27 1507.68 1694.46 1501.54 1695.5C1495.4 1696.53 1491.33 1706.81 1491.33 1706.81Z" fill="#92E3A9" stroke="#263238" stroke-width="8.85159" stroke-miterlimit="10" stroke-linecap="round"/>
<path d="M1548.21 1708.1C1548.21 1708.1 1534.51 1724.4 1540 1728.73C1545.5 1733.06 1563.08 1751.03 1566.38 1747.73C1569.67 1744.44 1581.25 1738.68 1574.65 1730.41C1568.06 1722.13 1557.33 1707.33 1548.21 1708.1Z" fill="#92E3A9" stroke="#263238" stroke-width="8.85159" stroke-miterlimit="10" stroke-linecap="round"/>
<path d="M3776.99 2129.86V2498.33H2338.38V2129.86H2067.9V2667.7C2067.88 2677.64 2069.83 2687.47 2073.62 2696.65C2077.41 2705.83 2082.97 2714.18 2089.99 2721.2C2097.01 2728.23 2105.35 2733.8 2114.53 2737.6C2123.7 2741.4 2133.54 2743.35 2143.47 2743.34H2262.81C2282.84 2743.34 2302.05 2735.39 2316.22 2721.23C2330.39 2707.07 2338.36 2687.86 2338.38 2667.83V2643.01H2469.41L2530.76 2604.22H3579.05L3657.14 2648.83H3776.99V2668.22C3777.01 2688.25 3784.98 2707.46 3799.15 2721.62C3813.32 2735.77 3832.53 2743.73 3852.56 2743.73H3971.9C3981.82 2743.74 3991.65 2741.79 4000.81 2738C4009.98 2734.21 4018.31 2728.65 4025.33 2721.63C4032.35 2714.62 4037.92 2706.3 4041.72 2697.13C4045.51 2687.97 4047.47 2678.14 4047.47 2668.22V2129.86H3776.99Z" fill="#263238" stroke="#263238" stroke-width="8.85159" stroke-miterlimit="10" stroke-linecap="round"/>
<path d="M3991.68 1865.13C3980.56 1842.76 3891.35 1750.77 3891.35 1750.77C3891.35 1750.77 3721.66 1427.16 3693.41 1374.41C3639.75 1274.34 3551.19 1290.76 3551.19 1290.76L3054.91 1265.67L3052.13 1266.45L3049.35 1265.67L2553.06 1290.76C2553.06 1290.76 2462.17 1281.45 2410.84 1374.41C2381.88 1426.77 2212.9 1750.77 2212.9 1750.77C2212.9 1750.77 2123.69 1842.76 2112.51 1865.13C2101.32 1887.5 2056.85 1971.02 2056.85 1987.63C2056.85 2002.57 2067.9 2256.1 2117.55 2445.39C2123.16 2466.26 2133.79 2485.45 2148.5 2501.29C2163.21 2517.13 2181.57 2529.14 2201.98 2536.28C2211.83 2540.24 2222.05 2543.25 2232.49 2545.26H2594.95L2686.94 2386.36C2722.19 2357.15 2766.64 2341.35 2812.42 2341.76H3291.96C3337.74 2341.35 3382.19 2357.15 3417.44 2386.36L3509.43 2545.26H3871.89C3882.31 2543.26 3892.51 2540.25 3902.34 2536.28C3922.76 2529.15 3941.13 2517.15 3955.86 2501.31C3970.58 2485.47 3981.22 2466.27 3986.83 2445.39C4036.48 2256.1 4047.53 2002.57 4047.53 1987.63C4047.47 1971.02 4002.67 1887.43 3991.68 1865.13Z" fill="#92E3A9" stroke="#263238" stroke-width="8.85159" stroke-miterlimit="10" stroke-linecap="round"/>
<path d="M2594.89 2545.4L2575.5 2590H3523.32L3509.36 2545.4L3417.37 2386.5C3417.37 2386.5 3381.1 2344.67 3291.89 2341.89C3202.68 2339.11 2812.36 2341.89 2812.36 2341.89C2766.45 2340.71 2721.74 2356.6 2686.88 2386.5L2594.89 2545.4Z" fill="#787878" stroke="#263238" stroke-width="8.85159" stroke-miterlimit="10" stroke-linecap="round"/>
<path d="M2675.7 2015.69C2675.7 2015.69 2751.01 2149.51 2773.31 2171.81C2795.61 2194.11 2820.7 2194.11 2851.4 2196.89C2882.11 2199.67 3303.01 2196.89 3303.01 2196.89C3303.01 2196.89 3336.5 2191.33 3353.24 2166.25C3369.99 2141.17 3425.71 2015.69 3425.71 2015.69H2675.7Z" fill="#263238" stroke="#263238" stroke-width="8.85159" stroke-miterlimit="10" stroke-linecap="round"/>
<path d="M2750.43 2033.86C2750.43 2033.86 2810.68 2140.97 2828.58 2158.88C2846.49 2176.79 2866.53 2176.72 2891.09 2178.98C2915.66 2181.25 3252.78 2178.98 3252.78 2178.98C3252.78 2178.98 3279.61 2174.52 3292.99 2154.42C3306.38 2134.31 3351.17 2033.86 3351.17 2033.86H2750.43Z" fill="#787878" stroke="#263238" stroke-width="8.85159" stroke-miterlimit="10" stroke-linecap="round"/>
<path d="M3365.27 2498.33L3348.59 2452.24C3343.42 2438.04 3333.94 2425.81 3321.49 2417.25C3309.03 2408.7 3294.21 2404.25 3279.1 2404.53L2826.26 2409.12C2810.7 2409.44 2795.66 2414.76 2783.36 2424.29C2771.07 2433.83 2762.17 2447.08 2757.99 2462.06L2746.74 2498.33H3365.27Z" fill="#263238" stroke="#263238" stroke-width="8.85159" stroke-miterlimit="10" stroke-linecap="round"/>
<path d="M2739.76 2520.31L2725.93 2564.92H3389.45L3373.35 2520.31H2739.76Z" fill="#263238" stroke="#263238" stroke-width="8.85159" stroke-miterlimit="10" stroke-linecap="round"/>
<path d="M3891.35 1750.77C3891.35 1750.77 3905.25 1642.04 3930.14 1642.04C3955.03 1642.04 4066.73 1672.75 4069.51 1695.05C4072.29 1717.35 4047.21 1742.43 4024.91 1747.99C4002.61 1753.55 3955.22 1759.18 3955.22 1759.18L3944.49 1801L3891.35 1750.77Z" fill="#92E3A9" stroke="#263238" stroke-width="8.85159" stroke-miterlimit="10" stroke-linecap="round"/>
<path d="M2212.9 1750.77C2212.9 1750.77 2198.94 1642.04 2174.11 1642.04C2149.29 1642.04 2037.52 1672.75 2034.74 1695.05C2031.96 1717.35 2057.04 1742.43 2079.34 1747.99C2101.65 1753.55 2149.03 1759.18 2149.03 1759.18L2160.15 1801L2212.9 1750.77Z" fill="#92E3A9" stroke="#263238" stroke-width="8.85159" stroke-miterlimit="10" stroke-linecap="round"/>
<path d="M2288.15 1686.65C2288.15 1686.65 3375.54 1644.82 3807.7 1686.65L3618.09 1341.18C3618.09 1341.18 3127.37 1279.83 2488.93 1343.96C2488.93 1343.7 2357.9 1550.05 2288.15 1686.65Z" fill="white" stroke="#263238" stroke-width="8.85159" stroke-miterlimit="10" stroke-linecap="round"/>
<path d="M2536.32 2001.72C2536.32 2001.72 2586.49 2054.67 2603.23 2152.28C2603.23 2152.28 2366.24 2141.1 2274.25 2104.9C2182.26 2068.7 2170.82 2066.11 2168.29 2049.11C2165.77 2032.11 2173.85 1912.51 2210.12 1892.99C2246.39 1873.47 2285.37 1879.03 2321.63 1906.89C2357.9 1934.75 2402.5 1976.64 2427.59 1984.98C2452.67 1993.32 2536.32 2001.72 2536.32 2001.72Z" fill="white" stroke="#263238" stroke-width="8.85159" stroke-miterlimit="10" stroke-linecap="round"/>
<path d="M2354.78 2056.03C2380.31 2030.51 2380.31 1989.13 2354.78 1963.6C2329.26 1938.08 2287.88 1938.08 2262.36 1963.6C2236.83 1989.13 2236.83 2030.51 2262.36 2056.03C2287.88 2081.56 2329.26 2081.56 2354.78 2056.03Z" fill="white" stroke="#263238" stroke-width="8.85159" stroke-miterlimit="10" stroke-linecap="round"/>
<path d="M2490.62 2091.52C2490.62 2097.53 2488.83 2103.41 2485.49 2108.41C2482.15 2113.4 2477.4 2117.3 2471.85 2119.6C2466.29 2121.89 2460.18 2122.49 2454.28 2121.31C2448.39 2120.14 2442.97 2117.24 2438.73 2112.98C2434.48 2108.73 2431.59 2103.31 2430.43 2097.41C2429.26 2091.51 2429.87 2085.4 2432.18 2079.85C2434.49 2074.3 2438.4 2069.56 2443.4 2066.23C2448.41 2062.9 2454.29 2061.12 2460.3 2061.14C2464.28 2061.14 2468.23 2061.92 2471.91 2063.45C2475.6 2064.98 2478.94 2067.22 2481.76 2070.04C2484.58 2072.86 2486.81 2076.21 2488.33 2079.9C2489.85 2083.58 2490.62 2087.53 2490.62 2091.52Z" fill="white" stroke="#263238" stroke-width="8.85159" stroke-miterlimit="10" stroke-linecap="round"/>
<path d="M3576.01 2001.72C3576.01 2001.72 3525.78 2054.67 3509.04 2152.28C3509.04 2152.28 3746.03 2141.1 3838.08 2104.9C3930.14 2068.7 3941.52 2066.11 3944.04 2049.11C3946.56 2032.11 3938.41 1912.51 3902.21 1892.99C3866.01 1873.47 3826.9 1879.03 3790.63 1906.89C3754.37 1934.75 3709.83 1976.64 3684.74 1984.98C3659.66 1993.32 3576.01 2001.72 3576.01 2001.72Z" fill="white" stroke="#263238" stroke-width="8.85159" stroke-miterlimit="10" stroke-linecap="round"/>
<path d="M3833.58 2073.51C3868.7 2065.18 3890.42 2029.96 3882.09 1994.84C3873.77 1959.72 3838.54 1938 3803.42 1946.33C3768.3 1954.65 3746.58 1989.88 3754.91 2025C3763.24 2060.12 3798.46 2081.84 3833.58 2073.51Z" fill="white" stroke="#263238" stroke-width="8.85159" stroke-miterlimit="10" stroke-linecap="round"/>
<path d="M3636.52 2091.52C3636.52 2097.53 3638.3 2103.41 3641.64 2108.41C3644.98 2113.4 3649.73 2117.3 3655.29 2119.6C3660.85 2121.89 3666.96 2122.49 3672.85 2121.31C3678.75 2120.14 3684.16 2117.24 3688.41 2112.98C3692.66 2108.73 3695.54 2103.31 3696.71 2097.41C3697.87 2091.51 3697.26 2085.4 3694.95 2079.85C3692.64 2074.3 3688.74 2069.56 3683.73 2066.23C3678.73 2062.9 3672.85 2061.12 3666.84 2061.14C3662.85 2061.14 3658.9 2061.92 3655.22 2063.45C3651.54 2064.98 3648.19 2067.22 3645.38 2070.04C3642.56 2072.86 3640.33 2076.21 3638.81 2079.9C3637.29 2083.58 3636.51 2087.53 3636.52 2091.52Z" fill="white" stroke="#263238" stroke-width="8.85159" stroke-miterlimit="10" stroke-linecap="round"/>
<path d="M3874.61 2249.83C3874.61 2249.83 3615.31 2300.06 3604.13 2308.4C3592.95 2316.74 3570.71 2364.19 3570.71 2364.19L3623.65 2350.23C3623.65 2350.23 3746.48 2355.79 3788.18 2336.26C3829.87 2316.74 3874.61 2249.83 3874.61 2249.83Z" fill="#263238" stroke="#263238" stroke-width="8.85159" stroke-miterlimit="10" stroke-linecap="round"/>
<path d="M2249.17 2249.83C2249.17 2249.83 2508.46 2300.06 2519.58 2308.4C2530.7 2316.74 2553.06 2364.19 2553.06 2364.19L2500.05 2350.23C2500.05 2350.23 2377.23 2355.79 2335.6 2336.26C2293.97 2316.74 2249.17 2249.83 2249.17 2249.83Z" fill="#263238" stroke="#263238" stroke-width="8.85159" stroke-miterlimit="10" stroke-linecap="round"/>
<path d="M3549.64 2044.65L3480.4 2021.57H3425.71" stroke="#263238" stroke-width="8.85159" stroke-miterlimit="10" stroke-linecap="round"/>
<path d="M2567.03 2041.35L2613.18 2014.98L2675.7 2015.62" stroke="#263238" stroke-width="8.85159" stroke-miterlimit="10" stroke-linecap="round"/>
<path d="M3745.9 1732.81C3752.95 1728.8 3760.06 1724.98 3767.23 1721.49" stroke="#263238" stroke-width="8.85159" stroke-miterlimit="10" stroke-linecap="round"/>
<path d="M3438.96 2128.63C3482.6 2032.69 3582.35 1841.99 3721.72 1747.86" stroke="#263238" stroke-width="8.85159" stroke-miterlimit="10" stroke-linecap="round"/>
<path d="M3414.4 2186.42C3414.4 2186.42 3417.82 2177.3 3424.48 2161.47" stroke="#263238" stroke-width="8.85159" stroke-miterlimit="10" stroke-linecap="round"/>
<path d="M2382.08 1747.87C2370.48 1740.8 2358.5 1734.21 2346.13 1728.09" stroke="#263238" stroke-width="8.85159" stroke-miterlimit="10" stroke-linecap="round"/>
<path d="M2661.34 2130.69C2632.77 2045.36 2558.36 1868.81 2406.64 1763.77" stroke="#263238" stroke-width="8.85159" stroke-miterlimit="10" stroke-linecap="round"/>
<path d="M2675.82 2179.82C2675.82 2179.82 2673.82 2170.97 2669.36 2155.58" stroke="#263238" stroke-width="8.85159" stroke-miterlimit="10" stroke-linecap="round"/>
<path d="M2267.01 1883.04C2267.01 1883.04 2237.33 1810.5 2237.33 1767.64L2267.01 1883.04Z" fill="white"/>
<path d="M2267.01 1883.04C2267.01 1883.04 2237.33 1810.5 2237.33 1767.64" stroke="#263238" stroke-width="8.85159" stroke-miterlimit="10" stroke-linecap="round"/>
<path d="M3852.95 1879.74C3860.96 1849.4 3866.47 1818.47 3869.44 1787.23L3852.95 1879.74Z" fill="white"/>
<path d="M3852.95 1879.74C3860.96 1849.4 3866.47 1818.47 3869.44 1787.23" stroke="#263238" stroke-width="8.85159" stroke-miterlimit="10" stroke-linecap="round"/>
<path d="M3955.22 2189.71L3935.44 2446.61L3569.55 2463.35C3569.55 2463.35 3506.91 2387.53 3503.61 2354.56C3500.31 2321.59 3546.47 2272.13 3559.66 2268.84C3572.84 2265.54 3803.63 2219.38 3803.63 2219.38" stroke="#263238" stroke-width="8.85159" stroke-miterlimit="10" stroke-linecap="round"/>
<path d="M2164.61 2189.71L2184.39 2446.61L2550.41 2463.1C2550.41 2463.1 2613.05 2387.27 2616.35 2354.3C2619.65 2321.33 2573.49 2271.88 2560.3 2268.58C2547.12 2265.28 2316.27 2219.12 2316.27 2219.12" stroke="#263238" stroke-width="8.85159" stroke-miterlimit="10" stroke-linecap="round"/>
<path d="M2776.48 2078.14L3045.53 2099.66C3056.96 2100.57 3068.43 2100.57 3079.86 2099.66L3327.84 2080.27" stroke="#263238" stroke-width="8.85159" stroke-miterlimit="10" stroke-linecap="round"/>
<path d="M2794.19 2105.93L3045.53 2126.04C3056.96 2126.97 3068.44 2126.97 3079.86 2126.04L3319.05 2107.48" stroke="#263238" stroke-width="8.85159" stroke-miterlimit="10" stroke-linecap="round"/>
<path d="M2812.23 2134.12L3045.53 2152.8C3056.96 2153.67 3068.43 2153.67 3079.86 2152.8L3307.09 2135.15" stroke="#263238" stroke-width="8.85159" stroke-miterlimit="10" stroke-linecap="round"/>
<path d="M2966.41 1516.63C2841.7 1589.94 2500.96 1655.23 2324.8 1685.35C2517.83 1678.5 3422.74 1649.41 3807.7 1686.65L3637.94 1377.06C3391.12 1360.57 3094.34 1441.38 2966.41 1516.63Z" fill="#787878"/>
<path d="M2288.15 1686.65C2288.15 1686.65 3375.54 1644.82 3807.7 1686.65L3618.09 1341.18C3618.09 1341.18 3127.37 1279.83 2488.93 1343.96C2488.93 1343.7 2357.9 1550.05 2288.15 1686.65Z" stroke="#263238" stroke-width="8.85159" stroke-miterlimit="10" stroke-linecap="round"/>
<path d="M2627.41 1729.57C2627.41 1729.57 2633.87 1748.64 2684.68 1796.41C2735.49 1844.18 2777 1777.34 2831.17 1748.64C2885.34 1719.94 2821.6 1694.53 3015.8 1834.62C3209.99 1974.7 3295.9 2003.34 3372.31 1920.53C3448.72 1837.72 3556.94 1713.67 3607.88 1742.3C3658.82 1770.94 3690.69 1825.05 3735.23 1825.05C3779.77 1825.05 3837.11 1735.9 3837.11 1735.9" stroke="white" stroke-width="8.85159" stroke-miterlimit="10" stroke-linecap="round"/>
<path d="M2627.41 1745.47C2627.41 1745.47 2633.87 1764.87 2684.68 1812.32C2735.49 1859.77 2777 1793.25 2831.17 1764.61C2885.34 1735.97 2821.6 1710.44 3015.8 1850.52C3209.99 1990.61 3295.9 2019.25 3372.31 1936.5C3448.72 1853.76 3556.94 1729.64 3607.88 1758.21C3658.82 1786.78 3690.69 1840.96 3735.23 1840.96C3779.77 1840.96 3837.11 1751.87 3837.11 1751.87" stroke="#263238" stroke-width="8.85159" stroke-miterlimit="10" stroke-linecap="round"/>
<path d="M2203.85 1817.03C2203.85 1817.03 2103.07 1913.03 2105.46 1989.83C2107.85 2066.63 2177.47 2078.65 2189.5 2133.86C2201.52 2189.07 2321.5 2225.07 2439.09 2193.85C2556.68 2162.63 2607.17 2193.85 2643.11 2258.5C2679.06 2323.14 2739.05 2328.25 2787.34 2304.39" stroke="#263238" stroke-width="8.85159" stroke-miterlimit="10" stroke-linecap="round"/>
<path d="M2215.87 1805.01C2215.87 1805.01 2115.03 1901.07 2117.48 1977.87C2119.94 2054.67 2189.43 2066.63 2201.52 2121.84C2213.61 2177.04 2333.46 2213.05 2451.18 2181.57C2568.9 2150.09 2619.26 2181.57 2655.2 2246.21C2691.15 2310.86 2751.2 2315.77 2799.17 2291.79" stroke="white" stroke-width="8.85159" stroke-miterlimit="10" stroke-linecap="round"/>
<path d="M3972.68 1934.62C3972.68 1934.62 3951.08 2102.7 3886.31 2133.86C3821.53 2165.02 3555.07 2189.07 3492.68 2232.25C3430.3 2275.44 3428.04 2369.04 3428.04 2369.04" stroke="white" stroke-width="8.85159" stroke-miterlimit="10" stroke-linecap="round"/>
<path d="M3972.68 1948.85C3972.68 1948.85 3950.95 2116.92 3886.31 2148.28C3821.66 2179.63 3555.07 2203.42 3492.68 2246.67C3430.3 2289.91 3428.04 2383.46 3428.04 2383.46" stroke="#263238" stroke-width="8.85159" stroke-miterlimit="10" stroke-linecap="round"/>
<path d="M3108.75 1324.63C3108.75 1324.63 3146.9 1318.17 3169.33 1378.42C3191.76 1438.67 3232.1 1584.76 3299.39 1586.96C3366.69 1589.16 3377.87 1456.9 3415.76 1403.11C3453.64 1349.33 3525.65 1360.51 3568.19 1396.65" stroke="white" stroke-width="8.85159" stroke-miterlimit="10" stroke-linecap="round"/>
<path d="M3106.49 1338.08C3106.49 1338.08 3144.63 1331.61 3167.06 1391.86C3189.5 1452.11 3229.83 1598.21 3297.13 1600.41C3364.43 1602.61 3375.61 1470.47 3413.75 1416.56C3451.89 1362.64 3523.65 1373.96 3566.25 1410.09" stroke="#263238" stroke-width="8.85159" stroke-miterlimit="10" stroke-linecap="round"/>
<path d="M2281.23 1799.45C2281.23 1799.45 2310.58 1820.01 2348.78 1867.01C2386.99 1914 2401.6 1890.47 2419.25 1855.24C2436.89 1820.01 2477.94 1896.35 2513.18 1949.23C2548.41 2002.11 2557.26 2010.91 2563.15 1981.56" stroke="white" stroke-width="8.85159" stroke-miterlimit="10" stroke-linecap="round"/>
<path d="M2280.07 1811.02C2280.07 1811.02 2309.41 1831.58 2347.62 1878.51C2385.83 1925.44 2400.44 1902.04 2418.08 1866.81C2435.73 1831.58 2476.78 1907.93 2512.08 1960.74C2547.37 2013.56 2556.1 2022.41 2561.98 1993.06" stroke="#263238" stroke-width="8.85159" stroke-miterlimit="10" stroke-linecap="round"/>
</svg>
