<svg width="2000" height="2000" viewBox="0 0 2000 2000" fill="none" xmlns="http://www.w3.org/2000/svg">
<path d="M1249.27 1293.47V1473.29H547.212V1293.47H415.216V1555.95C415.208 1560.79 416.156 1565.6 418.006 1570.08C419.856 1574.56 422.571 1578.63 425.997 1582.06C429.423 1585.48 433.492 1588.2 437.97 1590.06C442.448 1591.91 447.248 1592.86 452.095 1592.86H510.332C520.108 1592.86 529.483 1588.98 536.399 1582.07C543.314 1575.16 547.203 1565.79 547.212 1556.01V1543.9H611.159L641.098 1524.97H1152.68L1190.79 1546.74H1249.27V1556.2C1249.28 1565.98 1253.17 1575.35 1260.09 1582.26C1267 1589.17 1276.38 1593.05 1286.15 1593.05H1344.39C1349.23 1593.05 1354.03 1592.1 1358.5 1590.25C1362.98 1588.4 1367.04 1585.69 1370.47 1582.27C1373.89 1578.84 1376.61 1574.78 1378.46 1570.31C1380.32 1565.84 1381.27 1561.04 1381.27 1556.2V1293.47H1249.27Z" fill="#263238" stroke="#263238" stroke-width="4.22754" stroke-miterlimit="10" stroke-linecap="round"/>
<path d="M1354.04 1164.28C1348.62 1153.37 1305.08 1108.47 1305.08 1108.47C1305.08 1108.47 1222.27 950.546 1208.48 924.803C1182.3 875.968 1139.08 883.981 1139.08 883.981L896.887 871.74L895.53 872.119L894.174 871.74L651.982 883.981C651.982 883.981 607.626 879.438 582.577 924.803C568.443 950.357 485.978 1108.47 485.978 1108.47C485.978 1108.47 442.442 1153.37 436.984 1164.28C431.526 1175.2 409.821 1215.96 409.821 1224.07C409.821 1231.35 415.216 1355.08 439.445 1447.45C442.185 1457.64 447.37 1467.01 454.55 1474.74C461.73 1482.47 470.688 1488.33 480.646 1491.81C485.457 1493.75 490.444 1495.22 495.537 1496.2H672.425L717.317 1418.65C734.519 1404.4 756.21 1396.68 778.551 1396.88H1012.57C1034.91 1396.68 1056.6 1404.4 1073.81 1418.65L1118.7 1496.2H1295.59C1300.67 1495.22 1305.65 1493.75 1310.45 1491.81C1320.41 1488.33 1329.38 1482.48 1336.56 1474.75C1343.75 1467.02 1348.94 1457.65 1351.68 1447.45C1375.91 1355.08 1381.3 1231.35 1381.3 1224.07C1381.27 1215.96 1359.41 1175.17 1354.04 1164.28Z" fill="#92E3A9" stroke="#263238" stroke-width="4.22754" stroke-miterlimit="10" stroke-linecap="round"/>
<path d="M672.394 1496.26L662.93 1518.03H1125.48L1118.67 1496.26L1073.78 1418.71C1073.78 1418.71 1056.08 1398.3 1012.54 1396.95C969.006 1395.59 778.521 1396.95 778.521 1396.95C756.118 1396.37 734.298 1404.13 717.287 1418.71L672.394 1496.26Z" fill="#787878" stroke="#263238" stroke-width="4.22754" stroke-miterlimit="10" stroke-linecap="round"/>
<path d="M711.828 1237.76C711.828 1237.76 748.581 1303.06 759.465 1313.95C770.348 1324.83 782.589 1324.83 797.574 1326.19C812.559 1327.54 1017.97 1326.19 1017.97 1326.19C1017.97 1326.19 1034.31 1323.47 1042.48 1311.23C1050.65 1298.99 1077.84 1237.76 1077.84 1237.76H711.828Z" fill="#263238" stroke="#263238" stroke-width="4.22754" stroke-miterlimit="10" stroke-linecap="round"/>
<path d="M748.297 1246.62C748.297 1246.62 777.699 1298.9 786.438 1307.64C795.177 1316.37 804.956 1316.34 816.945 1317.45C828.933 1318.55 993.454 1317.45 993.454 1317.45C993.454 1317.45 1006.55 1315.27 1013.08 1305.46C1019.61 1295.65 1041.47 1246.62 1041.47 1246.62H748.297Z" fill="#787878" stroke="#263238" stroke-width="4.22754" stroke-miterlimit="10" stroke-linecap="round"/>
<path d="M1048.35 1473.29L1040.21 1450.8C1037.68 1443.87 1033.06 1437.9 1026.98 1433.73C1020.9 1429.55 1013.67 1427.38 1006.29 1427.52L785.301 1429.76C777.709 1429.91 770.369 1432.51 764.368 1437.16C758.368 1441.82 754.026 1448.28 751.987 1455.59L746.498 1473.29H1048.35Z" fill="#263238" stroke="#263238" stroke-width="4.22754" stroke-miterlimit="10" stroke-linecap="round"/>
<path d="M743.092 1484.02L736.341 1505.79H1060.15L1052.29 1484.02H743.092Z" fill="#263238" stroke="#263238" stroke-width="4.22754" stroke-miterlimit="10" stroke-linecap="round"/>
<path d="M1305.08 1108.47C1305.08 1108.47 1311.87 1055.41 1324.01 1055.41C1336.16 1055.41 1390.67 1070.4 1392.03 1081.28C1393.39 1092.16 1381.14 1104.4 1370.26 1107.12C1359.38 1109.83 1336.25 1112.58 1336.25 1112.58L1331.02 1132.99L1305.08 1108.47Z" fill="#92E3A9" stroke="#263238" stroke-width="4.22754" stroke-miterlimit="10" stroke-linecap="round"/>
<path d="M485.978 1108.47C485.978 1108.47 479.163 1055.41 467.049 1055.41C454.935 1055.41 400.389 1070.4 399.032 1081.28C397.675 1092.16 409.916 1104.4 420.8 1107.12C431.684 1109.83 454.808 1112.58 454.808 1112.58L460.235 1132.99L485.978 1108.47Z" fill="#92E3A9" stroke="#263238" stroke-width="4.22754" stroke-miterlimit="10" stroke-linecap="round"/>
<path d="M522.699 1077.18C522.699 1077.18 1053.36 1056.77 1264.26 1077.18L1171.73 908.589C1171.73 908.589 932.252 878.65 620.687 909.945C620.687 909.819 556.739 1010.52 522.699 1077.18Z" fill="white" stroke="#263238" stroke-width="4.22754" stroke-miterlimit="10" stroke-linecap="round"/>
<path d="M643.811 1230.94C643.811 1230.94 668.292 1256.78 676.463 1304.42C676.463 1304.42 560.809 1298.96 515.916 1281.29C471.024 1263.63 465.44 1262.36 464.21 1254.07C462.979 1245.77 466.923 1187.41 484.621 1177.88C502.319 1168.35 521.343 1171.07 539.041 1184.66C556.739 1198.26 578.507 1218.7 590.748 1222.77C602.988 1226.84 643.811 1230.94 643.811 1230.94Z" fill="white" stroke="#263238" stroke-width="4.22754" stroke-miterlimit="10" stroke-linecap="round"/>
<path d="M555.217 1257.45C567.673 1244.99 567.673 1224.8 555.217 1212.34C542.761 1199.88 522.567 1199.88 510.111 1212.34C497.655 1224.8 497.655 1244.99 510.111 1257.45C522.567 1269.9 542.761 1269.9 555.217 1257.45Z" fill="white" stroke="#263238" stroke-width="4.22754" stroke-miterlimit="10" stroke-linecap="round"/>
<path d="M621.506 1274.76C621.506 1277.7 620.636 1280.56 619.005 1283C617.374 1285.44 615.057 1287.34 612.345 1288.46C609.634 1289.59 606.651 1289.88 603.774 1289.3C600.897 1288.73 598.255 1287.31 596.183 1285.24C594.11 1283.16 592.701 1280.51 592.132 1277.64C591.564 1274.76 591.862 1271.78 592.989 1269.07C594.116 1266.36 596.021 1264.04 598.464 1262.42C600.906 1260.79 603.776 1259.93 606.71 1259.94C608.656 1259.94 610.582 1260.32 612.379 1261.06C614.177 1261.81 615.809 1262.9 617.183 1264.28C618.558 1265.66 619.647 1267.29 620.389 1269.09C621.13 1270.89 621.51 1272.82 621.506 1274.76V1274.76Z" fill="white" stroke="#263238" stroke-width="4.22754" stroke-miterlimit="10" stroke-linecap="round"/>
<path d="M1151.19 1230.94C1151.19 1230.94 1126.68 1256.78 1118.51 1304.42C1118.51 1304.42 1234.16 1298.96 1279.09 1281.29C1324.01 1263.63 1329.56 1262.36 1330.79 1254.07C1332.02 1245.77 1328.05 1187.41 1310.38 1177.88C1292.72 1168.35 1273.63 1171.07 1255.93 1184.66C1238.23 1198.26 1216.5 1218.7 1204.26 1222.77C1192.02 1226.84 1151.19 1230.94 1151.19 1230.94Z" fill="white" stroke="#263238" stroke-width="4.22754" stroke-miterlimit="10" stroke-linecap="round"/>
<path d="M1276.89 1265.98C1294.03 1261.91 1304.63 1244.72 1300.56 1227.58C1296.5 1210.44 1279.31 1199.84 1262.17 1203.91C1245.03 1207.97 1234.43 1225.16 1238.5 1242.3C1242.56 1259.44 1259.75 1270.04 1276.89 1265.98Z" fill="white" stroke="#263238" stroke-width="4.22754" stroke-miterlimit="10" stroke-linecap="round"/>
<path d="M1180.72 1274.76C1180.72 1277.7 1181.59 1280.56 1183.22 1283C1184.85 1285.44 1187.17 1287.34 1189.88 1288.46C1192.59 1289.59 1195.58 1289.88 1198.45 1289.3C1201.33 1288.73 1203.97 1287.31 1206.04 1285.24C1208.12 1283.16 1209.53 1280.51 1210.1 1277.64C1210.66 1274.76 1210.37 1271.78 1209.24 1269.07C1208.11 1266.36 1206.21 1264.04 1203.76 1262.42C1201.32 1260.79 1198.45 1259.93 1195.52 1259.94C1193.57 1259.94 1191.65 1260.32 1189.85 1261.06C1188.05 1261.81 1186.42 1262.9 1185.04 1264.28C1183.67 1265.66 1182.58 1267.29 1181.84 1269.09C1181.1 1270.89 1180.72 1272.82 1180.72 1274.76Z" fill="white" stroke="#263238" stroke-width="4.22754" stroke-miterlimit="10" stroke-linecap="round"/>
<path d="M1296.91 1352.02C1296.91 1352.02 1170.37 1376.54 1164.92 1380.61C1159.46 1384.68 1148.61 1407.83 1148.61 1407.83L1174.44 1401.02C1174.44 1401.02 1234.38 1403.73 1254.73 1394.2C1275.08 1384.68 1296.91 1352.02 1296.91 1352.02Z" fill="#263238" stroke="#263238" stroke-width="4.22754" stroke-miterlimit="10" stroke-linecap="round"/>
<path d="M503.676 1352.02C503.676 1352.02 630.213 1376.54 635.64 1380.61C641.066 1384.68 651.981 1407.83 651.981 1407.83L626.112 1401.02C626.112 1401.02 566.172 1403.73 545.855 1394.2C525.538 1384.68 503.676 1352.02 503.676 1352.02Z" fill="#263238" stroke="#263238" stroke-width="4.22754" stroke-miterlimit="10" stroke-linecap="round"/>
<path d="M1138.32 1251.89L1104.53 1240.63H1077.84" stroke="#263238" stroke-width="4.22754" stroke-miterlimit="10" stroke-linecap="round"/>
<path d="M658.796 1250.28L681.321 1237.41L711.827 1237.73" stroke="#263238" stroke-width="4.22754" stroke-miterlimit="10" stroke-linecap="round"/>
<path d="M1234.1 1099.7C1237.54 1097.75 1241.01 1095.89 1244.51 1094.18" stroke="#263238" stroke-width="4.22754" stroke-miterlimit="10" stroke-linecap="round"/>
<path d="M1084.31 1292.87C1105.61 1246.05 1154.28 1152.99 1222.3 1107.05" stroke="#263238" stroke-width="4.22754" stroke-miterlimit="10" stroke-linecap="round"/>
<path d="M1072.32 1321.07C1072.32 1321.07 1074 1316.63 1077.25 1308.9" stroke="#263238" stroke-width="4.22754" stroke-miterlimit="10" stroke-linecap="round"/>
<path d="M568.538 1107.05C562.88 1103.6 557.034 1100.39 550.997 1097.4" stroke="#263238" stroke-width="4.22754" stroke-miterlimit="10" stroke-linecap="round"/>
<path d="M704.824 1293.88C690.88 1252.24 654.569 1166.08 580.526 1114.82" stroke="#263238" stroke-width="4.22754" stroke-miterlimit="10" stroke-linecap="round"/>
<path d="M711.891 1317.86C711.891 1317.86 710.913 1313.53 708.736 1306.03" stroke="#263238" stroke-width="4.22754" stroke-miterlimit="10" stroke-linecap="round"/>
<path d="M512.383 1173.02C512.383 1173.02 497.903 1137.62 497.903 1116.71Z" fill="white"/>
<path d="M512.383 1173.02C512.383 1173.02 497.903 1137.62 497.903 1116.71" stroke="#263238" stroke-width="4.22754" stroke-miterlimit="10" stroke-linecap="round"/>
<path d="M1286.34 1171.41C1290.25 1156.61 1292.94 1141.51 1294.39 1126.27Z" fill="white"/>
<path d="M1286.34 1171.41C1290.25 1156.61 1292.94 1141.51 1294.39 1126.27" stroke="#263238" stroke-width="4.22754" stroke-miterlimit="10" stroke-linecap="round"/>
<path d="M1336.25 1322.68L1326.6 1448.06L1148.04 1456.23C1148.04 1456.23 1117.47 1419.22 1115.86 1403.13C1114.25 1387.04 1136.77 1362.91 1143.21 1361.3C1149.65 1359.69 1262.27 1337.16 1262.27 1337.16" stroke="#263238" stroke-width="4.22754" stroke-miterlimit="10" stroke-linecap="round"/>
<path d="M462.412 1322.68L472.066 1448.06L650.689 1456.1C650.689 1456.1 681.259 1419.09 682.868 1403.01C684.477 1386.92 661.952 1362.78 655.516 1361.17C649.08 1359.56 536.423 1337.04 536.423 1337.04" stroke="#263238" stroke-width="4.22754" stroke-miterlimit="10" stroke-linecap="round"/>
<path d="M761.01 1268.23L892.312 1278.74C897.887 1279.18 903.488 1279.18 909.063 1278.74L1030.08 1269.27" stroke="#263238" stroke-width="4.22754" stroke-miterlimit="10" stroke-linecap="round"/>
<path d="M769.654 1281.8L892.312 1291.61C897.886 1292.07 903.489 1292.07 909.064 1291.61L1025.79 1282.55" stroke="#263238" stroke-width="4.22754" stroke-miterlimit="10" stroke-linecap="round"/>
<path d="M778.456 1295.55L892.312 1304.67C897.888 1305.1 903.488 1305.1 909.064 1304.67L1019.95 1296.06" stroke="#263238" stroke-width="4.22754" stroke-miterlimit="10" stroke-linecap="round"/>
<path d="M853.698 994.208C792.842 1029.98 626.554 1061.85 540.587 1076.55C634.788 1073.2 1076.39 1059.01 1264.26 1077.18L1181.42 926.096C1060.97 918.051 916.131 957.486 853.698 994.208Z" fill="#787878"/>
<path d="M522.699 1077.18C522.699 1077.18 1053.36 1056.77 1264.26 1077.18L1171.73 908.589C1171.73 908.589 932.252 878.65 620.687 909.945C620.687 909.819 556.739 1010.52 522.699 1077.18Z" stroke="#263238" stroke-width="4.22754" stroke-miterlimit="10" stroke-linecap="round"/>
<path d="M1417.4 915.354H1208.38C1202.84 915.354 1198.35 919.843 1198.35 925.382V1106.7C1198.35 1112.24 1202.84 1116.73 1208.38 1116.73H1417.4C1422.94 1116.73 1427.43 1112.24 1427.43 1106.7V925.382C1427.43 919.843 1422.94 915.354 1417.4 915.354Z" fill="#263238"/>
<path d="M1417.4 1117.92H1208.38C1205.42 1117.91 1202.58 1116.74 1200.49 1114.64C1198.39 1112.55 1197.21 1109.71 1197.21 1106.74V925.45C1197.21 922.486 1198.38 919.644 1200.48 917.548C1202.58 915.452 1205.42 914.274 1208.38 914.274H1417.4C1420.36 914.28 1423.2 915.46 1425.29 917.555C1427.39 919.649 1428.57 922.488 1428.57 925.45V1106.74C1428.57 1109.71 1427.39 1112.55 1425.29 1114.64C1423.2 1116.74 1420.36 1117.91 1417.4 1117.92ZM1208.38 916.546C1206.03 916.546 1203.77 917.482 1202.1 919.148C1200.44 920.813 1199.5 923.072 1199.5 925.427V1106.72C1199.51 1109.08 1200.45 1111.33 1202.11 1112.99C1203.77 1114.66 1206.03 1115.6 1208.38 1115.6H1417.4C1419.75 1115.6 1422.01 1114.66 1423.67 1112.99C1425.34 1111.33 1426.27 1109.08 1426.28 1106.72V925.427C1426.28 923.072 1425.34 920.813 1423.68 919.148C1422.01 917.482 1419.75 916.546 1417.4 916.546H1208.38Z" fill="#263238"/>
<path d="M1410.12 904.43H1201.11C1195.57 904.43 1191.08 908.92 1191.08 914.458V1095.78C1191.08 1101.31 1195.57 1105.8 1201.11 1105.8H1410.12C1415.66 1105.8 1420.15 1101.31 1420.15 1095.78V914.458C1420.15 908.92 1415.66 904.43 1410.12 904.43Z" fill="white"/>
<path d="M1410.12 1106.97H1201.11C1198.15 1106.97 1195.31 1105.79 1193.21 1103.69C1191.12 1101.6 1189.94 1098.76 1189.93 1095.8V914.504C1189.93 911.537 1191.11 908.692 1193.2 906.593C1195.3 904.493 1198.14 903.311 1201.11 903.305H1410.12C1413.09 903.311 1415.93 904.493 1418.03 906.593C1420.12 908.692 1421.3 911.537 1421.3 914.504V1095.8C1421.29 1098.76 1420.11 1101.6 1418.02 1103.69C1415.93 1105.79 1413.09 1106.97 1410.12 1106.97ZM1201.11 905.577C1198.75 905.583 1196.49 906.523 1194.83 908.193C1193.16 909.862 1192.23 912.123 1192.23 914.481V1095.77C1192.23 1098.13 1193.17 1100.38 1194.84 1102.05C1196.5 1103.71 1198.75 1104.65 1201.11 1104.66H1410.12C1412.48 1104.65 1414.73 1103.71 1416.4 1102.05C1418.06 1100.38 1419 1098.13 1419.01 1095.77V914.481C1419.01 912.123 1418.07 909.862 1416.41 908.193C1414.74 906.523 1412.48 905.583 1410.12 905.577H1201.11Z" fill="#263238"/>
<path d="M1241.38 985.07H1220.25V1082.76H1241.38V985.07Z" fill="#263238"/>
<path d="M1241.36 1083.93H1220.25C1219.94 1083.93 1219.65 1083.81 1219.44 1083.6C1219.22 1083.38 1219.1 1083.09 1219.1 1082.79V985.071C1219.1 984.767 1219.22 984.475 1219.44 984.26C1219.65 984.045 1219.94 983.924 1220.25 983.924H1241.36C1241.66 983.924 1241.96 984.045 1242.17 984.26C1242.39 984.475 1242.51 984.767 1242.51 985.071V1082.79C1242.51 1083.09 1242.39 1083.38 1242.17 1083.6C1241.96 1083.81 1241.66 1083.93 1241.36 1083.93ZM1221.4 1081.64H1240.21V986.219H1221.4V1081.64Z" fill="#263238"/>
<path d="M1271.31 1000.91H1250.17V1082.76H1271.31V1000.91Z" fill="#92E3A9"/>
<path d="M1271.29 1083.93H1250.29C1249.98 1083.93 1249.69 1083.81 1249.48 1083.6C1249.26 1083.38 1249.14 1083.09 1249.14 1082.79V1000.88C1249.14 1000.58 1249.26 1000.29 1249.48 1000.07C1249.69 999.855 1249.98 999.734 1250.29 999.734H1271.4C1271.7 999.734 1272 999.855 1272.21 1000.07C1272.43 1000.29 1272.55 1000.58 1272.55 1000.88V1082.74C1272.56 1082.9 1272.53 1083.07 1272.47 1083.22C1272.4 1083.37 1272.31 1083.51 1272.19 1083.63C1272.07 1083.74 1271.93 1083.82 1271.77 1083.88C1271.62 1083.93 1271.45 1083.95 1271.29 1083.93ZM1251.32 1081.64H1270.14V1002.08H1251.32V1081.64Z" fill="#263238"/>
<path d="M1301.23 1014.12H1280.1V1082.79H1301.23V1014.12Z" fill="white"/>
<path d="M1301.21 1083.93H1280.12C1279.82 1083.93 1279.52 1083.81 1279.31 1083.6C1279.09 1083.38 1278.97 1083.09 1278.97 1082.79V1014.12C1278.97 1013.82 1279.09 1013.53 1279.31 1013.31C1279.52 1013.1 1279.82 1012.98 1280.12 1012.98H1301.23C1301.54 1012.98 1301.83 1013.1 1302.04 1013.31C1302.26 1013.53 1302.38 1013.82 1302.38 1014.12V1082.79C1302.38 1082.94 1302.35 1083.09 1302.29 1083.23C1302.23 1083.37 1302.15 1083.5 1302.04 1083.61C1301.93 1083.71 1301.8 1083.8 1301.66 1083.85C1301.51 1083.91 1301.36 1083.94 1301.21 1083.93ZM1281.25 1081.64H1300.06V1015.27H1281.25V1081.64Z" fill="#263238"/>
<path d="M1331.16 973.619H1310.02V1082.76H1331.16V973.619Z" fill="#263238"/>
<path d="M1331.13 1083.93H1309.95C1309.65 1083.93 1309.36 1083.81 1309.14 1083.6C1308.93 1083.38 1308.81 1083.09 1308.81 1082.79V973.619C1308.81 973.315 1308.93 973.023 1309.14 972.808C1309.36 972.593 1309.65 972.472 1309.95 972.472H1331.07C1331.37 972.472 1331.66 972.593 1331.88 972.808C1332.09 973.023 1332.21 973.315 1332.21 973.619V1082.79C1332.21 1083.08 1332.1 1083.36 1331.9 1083.57C1331.7 1083.79 1331.43 1083.92 1331.13 1083.93V1083.93ZM1311.17 1081.64H1329.99V974.767H1311.17V1081.64Z" fill="#263238"/>
<path d="M1361.08 986.838H1339.95V1082.79H1361.08V986.838Z" fill="#92E3A9"/>
<path d="M1361.06 1083.93H1339.95C1339.64 1083.93 1339.35 1083.81 1339.14 1083.6C1338.92 1083.38 1338.8 1083.09 1338.8 1082.79V986.839C1338.8 986.535 1338.92 986.243 1339.14 986.027C1339.35 985.812 1339.64 985.691 1339.95 985.691H1361.06C1361.36 985.691 1361.66 985.812 1361.87 986.027C1362.09 986.243 1362.21 986.535 1362.21 986.839V1082.79C1362.21 1083.09 1362.09 1083.38 1361.87 1083.6C1361.66 1083.81 1361.36 1083.93 1361.06 1083.93ZM1341.09 1081.64H1359.91V987.986H1341.09V1081.64Z" fill="#263238"/>
<path d="M1391.01 941.056H1369.87V1082.76H1391.01V941.056Z" fill="white"/>
<path d="M1391.01 1083.93H1369.87C1369.57 1083.93 1369.28 1083.81 1369.06 1083.6C1368.85 1083.38 1368.73 1083.09 1368.73 1082.79V941.056C1368.73 940.751 1368.85 940.459 1369.06 940.244C1369.28 940.029 1369.57 939.908 1369.87 939.908H1391.01C1391.31 939.914 1391.6 940.037 1391.81 940.251C1392.03 940.465 1392.15 940.753 1392.16 941.056V1082.79C1392.15 1083.09 1392.03 1083.38 1391.81 1083.59C1391.6 1083.81 1391.31 1083.93 1391.01 1083.93V1083.93ZM1371.02 1081.64H1389.86V942.203H1371.02V1081.64Z" fill="#263238"/>
<path d="M1242.81 929.742H1221.67V932.037H1242.81V929.742Z" fill="#263238"/>
<path d="M1242.81 938.531H1221.67V940.826H1242.81V938.531Z" fill="#263238"/>
<path d="M1242.81 947.344H1221.67V949.639H1242.81V947.344Z" fill="#263238"/>
<path d="M1335.2 929.742H1249.83V932.037H1335.2V929.742Z" fill="#263238"/>
<path d="M1335.2 938.531H1249.83V940.826H1335.2V938.531Z" fill="#263238"/>
<path d="M1335.2 947.344H1249.83V949.639H1335.2V947.344Z" fill="#263238"/>
<path d="M1433.73 668.824H1224.72C1219.18 668.824 1214.69 673.314 1214.69 678.853V860.17C1214.69 865.708 1219.18 870.198 1224.72 870.198H1433.73C1439.27 870.198 1443.76 865.708 1443.76 860.17V678.853C1443.76 673.314 1439.27 668.824 1433.73 668.824Z" fill="#263238"/>
<path d="M1433.73 871.368H1224.76C1221.8 871.362 1218.96 870.182 1216.87 868.088C1214.77 865.993 1213.59 863.154 1213.59 860.192V678.898C1213.58 677.427 1213.87 675.97 1214.43 674.61C1214.99 673.25 1215.81 672.014 1216.85 670.972C1217.89 669.93 1219.12 669.103 1220.48 668.537C1221.83 667.971 1223.29 667.679 1224.76 667.676H1433.78C1436.74 667.682 1439.58 668.861 1441.67 670.956C1443.77 673.05 1444.95 675.89 1444.95 678.852V860.146C1444.96 861.62 1444.67 863.081 1444.11 864.444C1443.54 865.807 1442.72 867.045 1441.67 868.088C1440.63 869.13 1439.39 869.957 1438.03 870.52C1436.67 871.083 1435.21 871.371 1433.73 871.368V871.368ZM1224.76 669.971C1222.41 669.977 1220.15 670.914 1218.49 672.579C1216.82 674.243 1215.89 676.498 1215.88 678.852V860.146C1215.89 862.499 1216.82 864.755 1218.49 866.419C1220.15 868.083 1222.41 869.021 1224.76 869.027H1433.78C1436.13 869.021 1438.39 868.083 1440.05 866.419C1441.71 864.755 1442.65 862.499 1442.66 860.146V678.852C1442.65 676.498 1441.71 674.243 1440.05 672.579C1438.39 670.914 1436.13 669.977 1433.78 669.971H1224.76Z" fill="#263238"/>
<path d="M1424.02 657.166H1215.01C1209.47 657.166 1204.98 661.656 1204.98 667.195V848.512C1204.98 854.05 1209.47 858.54 1215.01 858.54H1424.02C1429.56 858.54 1434.05 854.05 1434.05 848.512V667.195C1434.05 661.656 1429.56 657.166 1424.02 657.166Z" fill="white"/>
<path d="M1424.02 859.71H1215.01C1212.05 859.704 1209.21 858.525 1207.11 856.43C1205.02 854.335 1203.84 851.496 1203.83 848.534V667.24C1203.83 664.274 1205.01 661.429 1207.1 659.329C1209.2 657.23 1212.04 656.047 1215.01 656.041H1424.02C1426.99 656.047 1429.83 657.23 1431.93 659.329C1434.02 661.429 1435.2 664.274 1435.2 667.24V848.534C1435.19 851.496 1434.01 854.335 1431.92 856.43C1429.83 858.525 1426.99 859.704 1424.02 859.71V859.71ZM1215.01 658.313C1212.65 658.319 1210.39 659.26 1208.73 660.929C1207.06 662.598 1206.13 664.859 1206.13 667.217V848.511C1206.13 850.865 1207.07 853.12 1208.74 854.784C1210.4 856.449 1212.65 857.386 1215.01 857.392H1424.02C1426.38 857.386 1428.63 856.449 1430.3 854.784C1431.96 853.12 1432.9 850.865 1432.91 848.511V667.217C1432.91 664.859 1431.97 662.598 1430.31 660.929C1428.64 659.26 1426.38 658.319 1424.02 658.313H1215.01Z" fill="#263238"/>
<path d="M1229.9 820.445H1227.61V828.225H1229.9V820.445Z" fill="#263238"/>
<path d="M1248.56 820.445H1246.26V828.225H1248.56V820.445Z" fill="#263238"/>
<path d="M1267.22 820.445H1264.92V828.225H1267.22V820.445Z" fill="#263238"/>
<path d="M1285.87 820.445H1283.58V828.225H1285.87V820.445Z" fill="#263238"/>
<path d="M1304.53 820.445H1302.23V828.225H1304.53V820.445Z" fill="#263238"/>
<path d="M1323.19 820.445H1320.89V828.225H1323.19V820.445Z" fill="#263238"/>
<path d="M1341.85 820.445H1339.55V828.225H1341.85V820.445Z" fill="#263238"/>
<path d="M1360.5 820.445H1358.21V828.225H1360.5V820.445Z" fill="#263238"/>
<path d="M1379.16 820.445H1376.87V828.225H1379.16V820.445Z" fill="#263238"/>
<path d="M1397.82 820.445H1395.52V828.225H1397.82V820.445Z" fill="#263238"/>
<path d="M1416.47 820.445H1414.18V828.225H1416.47V820.445Z" fill="#263238"/>
<path d="M1407.55 711.6L1387.33 722.501L1371.01 689.845L1350.01 717.039L1331.36 700.723L1313.48 680.505L1294.82 702.283L1276.17 755.134L1255.95 735.696L1235.75 750.475V799.448H1407.55V711.6Z" fill="#92E3A9"/>
<path d="M1407.55 800.594H1235.75C1235.45 800.594 1235.16 800.473 1234.94 800.258C1234.73 800.043 1234.61 799.751 1234.61 799.447V750.474C1234.6 750.296 1234.64 750.119 1234.72 749.959C1234.8 749.799 1234.92 749.661 1235.06 749.556L1255.28 734.777C1255.49 734.61 1255.75 734.518 1256.02 734.518C1256.28 734.518 1256.54 734.61 1256.75 734.777L1275.68 752.976L1293.74 701.8C1293.79 701.666 1293.86 701.542 1293.95 701.433L1312.61 679.678C1312.71 679.547 1312.85 679.442 1313 679.371C1313.15 679.299 1313.31 679.263 1313.48 679.265C1313.64 679.266 1313.81 679.302 1313.96 679.369C1314.11 679.436 1314.24 679.533 1314.35 679.655L1332.23 699.873L1349.85 715.294L1370.09 689.041C1370.22 688.888 1370.37 688.767 1370.56 688.691C1370.74 688.615 1370.93 688.585 1371.13 688.605C1371.32 688.624 1371.5 688.691 1371.65 688.799C1371.81 688.907 1371.94 689.054 1372.02 689.224L1387.83 720.825L1407 710.498C1407.17 710.401 1407.36 710.351 1407.56 710.351C1407.76 710.351 1407.95 710.401 1408.12 710.498C1408.29 710.598 1408.44 710.742 1408.54 710.915C1408.64 711.088 1408.69 711.284 1408.69 711.485V799.447C1408.69 799.751 1408.57 800.043 1408.36 800.258C1408.14 800.473 1407.85 800.594 1407.55 800.594ZM1236.9 798.299H1406.4V713.527L1387.88 723.51C1387.59 723.623 1387.27 723.623 1386.98 723.51C1386.84 723.465 1386.7 723.391 1386.58 723.293C1386.46 723.194 1386.37 723.073 1386.3 722.936L1370.81 691.909L1350.98 717.75C1350.88 717.874 1350.76 717.978 1350.62 718.053C1350.48 718.128 1350.33 718.173 1350.18 718.186C1350.02 718.203 1349.86 718.188 1349.71 718.141C1349.56 718.093 1349.42 718.015 1349.3 717.91L1330.65 701.594L1313.55 682.248L1295.88 702.902L1277.29 755.684C1277.23 755.864 1277.12 756.026 1276.98 756.154C1276.84 756.283 1276.67 756.374 1276.49 756.418C1276.3 756.462 1276.1 756.458 1275.91 756.406C1275.72 756.354 1275.55 756.256 1275.41 756.12L1255.9 737.348L1236.95 751.117L1236.9 798.299Z" fill="#263238"/>
<path d="M1257.35 678.921H1236.21V681.216H1257.35V678.921Z" fill="#263238"/>
<path d="M1257.35 687.732H1236.21V690.027H1257.35V687.732Z" fill="#263238"/>
<path d="M1257.35 696.521H1236.21V698.816H1257.35V696.521Z" fill="#263238"/>
<path d="M1407.55 754.651L1387.33 762.132L1371.01 725.827L1350.01 751.254L1331.36 745.035L1313.48 783.887L1294.82 731.817L1276.17 783.887L1255.95 764.473L1235.75 790.129V808.763H1407.55V754.651Z" fill="#263238"/>
<path d="M1407.55 809.912H1235.75C1235.45 809.912 1235.16 809.791 1234.94 809.576C1234.73 809.36 1234.61 809.068 1234.61 808.764V790.107C1234.6 789.851 1234.68 789.6 1234.84 789.396L1255.05 763.762C1255.15 763.637 1255.28 763.535 1255.42 763.46C1255.56 763.385 1255.72 763.339 1255.88 763.326C1256.2 763.313 1256.51 763.429 1256.75 763.647L1275.68 781.845L1293.74 731.358C1293.82 731.137 1293.97 730.945 1294.16 730.809C1294.36 730.674 1294.59 730.601 1294.82 730.601V730.601C1295.06 730.601 1295.29 730.674 1295.48 730.809C1295.67 730.945 1295.82 731.137 1295.9 731.358L1313.62 780.79L1330.32 744.554C1330.44 744.296 1330.65 744.091 1330.91 743.977C1331.16 743.862 1331.46 743.847 1331.72 743.934L1349.62 749.901L1370.12 725.093C1370.24 724.944 1370.4 724.828 1370.58 724.757C1370.76 724.685 1370.96 724.661 1371.15 724.686C1371.34 724.712 1371.53 724.785 1371.68 724.901C1371.84 725.016 1371.96 725.169 1372.05 725.346L1387.95 760.687L1407.13 753.573C1407.31 753.502 1407.49 753.478 1407.68 753.502C1407.86 753.526 1408.04 753.598 1408.19 753.71C1408.35 753.812 1408.47 753.951 1408.56 754.116C1408.65 754.28 1408.7 754.465 1408.69 754.651V808.764C1408.69 808.915 1408.66 809.064 1408.61 809.203C1408.55 809.342 1408.46 809.469 1408.36 809.576C1408.25 809.682 1408.12 809.767 1407.99 809.824C1407.85 809.882 1407.7 809.912 1407.55 809.912ZM1236.9 807.617H1406.4V756.304L1387.72 763.188C1387.45 763.285 1387.15 763.277 1386.88 763.167C1386.61 763.057 1386.4 762.852 1386.27 762.592L1370.71 727.939L1350.98 751.989C1350.83 752.168 1350.63 752.297 1350.4 752.359C1350.18 752.42 1349.94 752.412 1349.72 752.334L1332.05 746.436L1314.58 784.37C1314.49 784.578 1314.34 784.754 1314.15 784.873C1313.95 784.992 1313.73 785.049 1313.5 785.035C1313.27 785.029 1313.05 784.953 1312.87 784.818C1312.68 784.683 1312.55 784.494 1312.47 784.278L1294.82 735.191L1277.24 784.255C1277.18 784.435 1277.08 784.597 1276.94 784.726C1276.8 784.854 1276.63 784.945 1276.44 784.989C1276.25 785.034 1276.05 785.03 1275.86 784.977C1275.68 784.925 1275.5 784.827 1275.36 784.691L1256.09 766.149L1236.9 790.497V807.617Z" fill="#263238"/>
<path d="M1527.96 777.227C1527.96 777.227 1520.35 757.078 1498.57 759.258C1476.79 761.438 1467.01 778.856 1470.82 790.284C1472.39 795.53 1474.39 800.634 1476.81 805.545C1476.81 805.545 1469.72 802.263 1471.9 813.692C1474.08 825.12 1490.42 822.871 1493.13 821.862C1495.84 820.852 1507.84 790.284 1527.96 777.227Z" fill="#263238"/>
<path d="M1486.22 823.926C1482.85 824.019 1479.51 823.286 1476.49 821.792C1475 821.009 1473.7 819.891 1472.71 818.525C1471.72 817.16 1471.06 815.584 1470.78 813.92C1469.88 809.216 1470.34 806.232 1472.2 804.741C1472.93 804.189 1473.83 803.898 1474.75 803.915C1473.74 801.62 1472.04 797.535 1469.72 790.604C1468.89 787.546 1468.74 784.342 1469.29 781.22C1469.84 778.099 1471.06 775.136 1472.89 772.544C1475.8 768.371 1479.62 764.908 1484.06 762.413C1488.5 759.918 1493.44 758.455 1498.52 758.132C1520.94 755.837 1529.04 776.491 1529.11 776.812C1529.2 777.058 1529.21 777.325 1529.13 777.574C1529.05 777.823 1528.89 778.039 1528.68 778.189C1514.59 787.369 1504.35 805.498 1498.84 815.251C1495.84 820.621 1494.74 822.48 1493.63 822.939C1491.23 823.641 1488.73 823.973 1486.22 823.926ZM1474.75 806.255C1474.33 806.242 1473.92 806.363 1473.58 806.6C1472.98 807.081 1472.09 808.619 1473 813.484C1473.23 814.814 1473.77 816.073 1474.56 817.164C1475.36 818.254 1476.4 819.147 1477.59 819.772C1482.37 821.819 1487.7 822.183 1492.72 820.805C1494.24 818.686 1495.6 816.453 1496.78 814.127C1502.26 804.374 1512.41 786.382 1526.61 776.789C1524.91 773.072 1517.13 758.568 1498.75 760.404C1494.01 760.677 1489.39 762.013 1485.24 764.313C1481.08 766.613 1477.5 769.818 1474.75 773.691C1473.13 775.999 1472.04 778.633 1471.55 781.408C1471.05 784.183 1471.18 787.032 1471.9 789.755C1473.46 794.915 1475.44 799.942 1477.8 804.787C1477.92 804.997 1477.96 805.239 1477.94 805.478C1477.91 805.717 1477.81 805.941 1477.64 806.119C1477.48 806.296 1477.27 806.418 1477.03 806.468C1476.8 806.517 1476.55 806.491 1476.33 806.393C1475.82 806.261 1475.29 806.214 1474.77 806.255H1474.75Z" fill="#263238"/>
<path d="M1389.31 972.587L1350.66 991.91C1349.97 992.259 1349.38 992.791 1348.96 993.448C1348.55 994.105 1348.32 994.863 1348.3 995.641C1348.28 996.419 1348.47 997.188 1348.86 997.864C1349.24 998.541 1349.8 999.101 1350.48 999.483L1453.59 1057.47C1454.45 1057.96 1455.46 1058.14 1456.44 1057.97C1457.42 1057.79 1458.31 1057.29 1458.96 1056.53L1483.17 1028.42C1483.58 1027.94 1483.88 1027.37 1484.05 1026.75C1484.22 1026.14 1484.25 1025.49 1484.13 1024.86C1484.02 1024.24 1483.77 1023.64 1483.4 1023.12C1483.03 1022.6 1482.55 1022.17 1482 1021.86L1393.33 972.656C1392.71 972.318 1392.03 972.135 1391.33 972.123C1390.63 972.111 1389.93 972.27 1389.31 972.587V972.587Z" fill="#263238"/>
<path d="M1455.7 1059.17C1454.77 1059.17 1453.85 1058.94 1453.04 1058.48L1349.93 1000.47C1349.06 999.99 1348.35 999.283 1347.86 998.425C1347.37 997.568 1347.12 996.592 1347.14 995.604C1347.17 994.615 1347.46 993.653 1347.99 992.819C1348.52 991.986 1349.27 991.314 1350.16 990.877L1388.8 971.554C1389.59 971.148 1390.46 970.936 1391.34 970.936C1392.22 970.936 1393.09 971.148 1393.88 971.554L1482.55 1020.71C1483.26 1021.1 1483.87 1021.64 1484.34 1022.3C1484.81 1022.96 1485.12 1023.72 1485.26 1024.52C1485.42 1025.33 1485.39 1026.16 1485.18 1026.95C1484.97 1027.75 1484.58 1028.49 1484.04 1029.11L1459.83 1057.29C1459.32 1057.88 1458.68 1058.36 1457.97 1058.68C1457.26 1059.01 1456.48 1059.18 1455.7 1059.17V1059.17ZM1389.84 973.596L1351.26 992.919C1350.75 993.174 1350.32 993.564 1350.01 994.045C1349.7 994.527 1349.54 995.084 1349.52 995.655C1349.51 996.226 1349.65 996.79 1349.93 997.286C1350.21 997.783 1350.62 998.193 1351.12 998.473L1454.23 1056.49C1454.86 1056.84 1455.6 1056.96 1456.31 1056.84C1457.03 1056.71 1457.68 1056.35 1458.16 1055.8L1482.37 1027.62C1482.67 1027.26 1482.89 1026.84 1483.02 1026.39C1483.14 1025.94 1483.16 1025.46 1483.08 1025C1483 1024.54 1482.81 1024.11 1482.54 1023.73C1482.26 1023.35 1481.91 1023.04 1481.49 1022.82L1392.82 973.665C1392.37 973.406 1391.86 973.263 1391.34 973.251C1390.82 973.239 1390.3 973.358 1389.84 973.596V973.596Z" fill="#263238"/>
<path d="M1483.56 1007.4L1467.29 996.844C1467.29 996.844 1455.1 983.075 1450.54 980.78C1445.97 978.485 1415.29 983.993 1415.29 983.993L1482.71 1022.13L1483.56 1007.4Z" fill="white"/>
<path d="M1482.71 1023.37C1482.52 1023.37 1482.33 1023.33 1482.16 1023.23L1414.74 985.094C1414.53 984.98 1414.36 984.805 1414.26 984.592C1414.15 984.379 1414.12 984.139 1414.16 983.905C1414.19 983.672 1414.3 983.455 1414.47 983.286C1414.63 983.117 1414.85 983.003 1415.08 982.96C1418.27 982.386 1446.27 977.429 1451.04 979.862C1455.81 982.294 1466.76 994.549 1468.05 995.926L1484.11 1006.39C1484.28 1006.49 1484.42 1006.64 1484.51 1006.82C1484.6 1007 1484.63 1007.2 1484.61 1007.4L1483.79 1022.25C1483.77 1022.54 1483.64 1022.81 1483.43 1023.02C1483.22 1023.22 1482.93 1023.33 1482.64 1023.33L1482.71 1023.37ZM1418.64 984.658L1481.68 1020.32L1482.37 1008L1466.67 997.808C1466.57 997.764 1466.49 997.692 1466.44 997.601C1463.09 993.86 1453.61 983.832 1450.01 981.904C1447.19 980.481 1430.43 982.661 1418.64 984.658V984.658Z" fill="#263238"/>
<path d="M1450.33 990.74C1450.33 990.74 1438.35 991.267 1430.96 988.123C1423.57 984.979 1419.33 986.448 1423.18 992.713C1427.04 998.978 1438.99 998.381 1438.99 998.381C1438.99 998.381 1449.43 1011.09 1462.1 1006.12" fill="white"/>
<path d="M1456.16 1008.36C1447.19 1008.36 1440.09 1001.32 1438.49 999.484C1435.99 999.484 1425.89 999.231 1422.19 993.265C1420.38 990.327 1420.08 988.078 1421.32 986.633C1422.91 984.82 1426.49 984.957 1431.42 987.069C1438.49 990.075 1450.17 989.593 1450.28 989.593C1450.44 989.576 1450.59 989.593 1450.74 989.641C1450.88 989.69 1451.02 989.768 1451.13 989.873C1451.24 989.977 1451.33 990.104 1451.39 990.246C1451.45 990.388 1451.48 990.541 1451.48 990.694C1451.48 990.997 1451.37 991.291 1451.17 991.513C1450.96 991.736 1450.68 991.87 1450.38 991.888C1449.89 991.888 1438.05 992.393 1430.5 989.18C1426.32 987.39 1423.62 987.39 1423.07 988.124C1422.52 988.859 1422.77 989.845 1424.14 992.048C1427.59 997.625 1438.83 997.189 1438.95 997.189C1439.13 997.178 1439.3 997.21 1439.47 997.282C1439.63 997.354 1439.77 997.463 1439.89 997.602C1439.89 997.717 1449.96 1009.6 1461.69 1004.99C1461.83 1004.94 1461.98 1004.91 1462.13 1004.91C1462.28 1004.91 1462.43 1004.94 1462.57 1005C1462.71 1005.06 1462.83 1005.15 1462.94 1005.26C1463.04 1005.37 1463.12 1005.49 1463.18 1005.63C1463.24 1005.77 1463.26 1005.92 1463.26 1006.07C1463.26 1006.23 1463.23 1006.37 1463.17 1006.51C1463.11 1006.65 1463.02 1006.78 1462.91 1006.88C1462.81 1006.99 1462.68 1007.07 1462.54 1007.13C1460.51 1007.94 1458.34 1008.36 1456.16 1008.36V1008.36Z" fill="#263238"/>
<path d="M1615.17 1538.87C1615.17 1538.87 1622.05 1565.05 1621.43 1569.6C1620.81 1574.14 1606.63 1578.13 1598.67 1578.13C1590.65 1578.58 1582.66 1579.53 1574.76 1580.98L1575.33 1538.87H1615.17Z" fill="white"/>
<path d="M1574.76 1582.12C1574.49 1582.13 1574.22 1582.03 1574.02 1581.85C1573.89 1581.74 1573.79 1581.61 1573.72 1581.46C1573.64 1581.31 1573.61 1581.14 1573.61 1580.98L1574.18 1538.84C1574.19 1538.54 1574.31 1538.26 1574.53 1538.05C1574.74 1537.84 1575.03 1537.72 1575.33 1537.72H1615.17C1615.42 1537.71 1615.67 1537.79 1615.87 1537.95C1616.07 1538.1 1616.21 1538.32 1616.27 1538.57C1616.98 1541.28 1623.16 1565.1 1622.58 1569.73C1621.87 1575.35 1606.66 1579.28 1598.67 1579.28C1590.72 1579.73 1582.8 1580.68 1574.96 1582.1L1574.76 1582.12ZM1576.46 1540.01L1575.93 1579.62C1583.44 1578.25 1591.04 1577.37 1598.67 1576.98C1606.84 1576.98 1619.85 1572.95 1620.29 1569.46C1620.72 1565.97 1616.29 1547.82 1614.27 1540.01H1576.46Z" fill="#263238"/>
<path d="M1621.43 1569.6C1621.44 1567.28 1621.19 1564.97 1620.68 1562.71C1615.11 1565.74 1609.26 1568.21 1603.21 1570.08C1593.55 1572.85 1579.76 1572.99 1574.87 1572.95L1574.76 1580.89C1582.66 1579.44 1590.65 1578.49 1598.67 1578.04C1606.63 1578.13 1620.86 1574.16 1621.43 1569.6Z" fill="white"/>
<path d="M1574.76 1582.13C1574.49 1582.13 1574.22 1582.03 1574.02 1581.85C1573.89 1581.75 1573.79 1581.61 1573.72 1581.46C1573.64 1581.31 1573.61 1581.15 1573.61 1580.98L1573.72 1573.04C1573.72 1572.73 1573.85 1572.44 1574.06 1572.23C1574.28 1572.01 1574.57 1571.89 1574.87 1571.89C1580.2 1571.89 1593.48 1571.75 1602.92 1569.07C1608.88 1567.22 1614.66 1564.78 1620.15 1561.79C1620.31 1561.71 1620.49 1561.67 1620.67 1561.67C1620.85 1561.67 1621.02 1561.71 1621.18 1561.79C1621.34 1561.87 1621.48 1561.99 1621.59 1562.13C1621.7 1562.28 1621.77 1562.44 1621.8 1562.62C1622.34 1564.96 1622.61 1567.36 1622.58 1569.76C1621.87 1575.38 1606.66 1579.3 1598.67 1579.3C1590.72 1579.76 1582.8 1580.7 1574.96 1582.13H1574.76ZM1576 1574.21V1579.62C1583.51 1578.25 1591.11 1577.37 1598.74 1576.99C1606.91 1576.99 1619.92 1572.95 1620.36 1569.46C1620.41 1567.81 1620.25 1566.16 1619.9 1564.55C1614.69 1567.3 1609.23 1569.55 1603.6 1571.27C1594.61 1573.37 1585.39 1574.36 1576.16 1574.21H1576Z" fill="#263238"/>
<path d="M1566.79 1287.28C1566.79 1287.28 1574.18 1349.24 1577.03 1361.29C1579.88 1373.34 1594.1 1393.72 1599.79 1425.55C1605.49 1457.38 1616.32 1531.41 1616.32 1533.13C1616.32 1534.85 1617.44 1540.02 1618.02 1543.37C1618.02 1543.37 1605.49 1548.51 1596.4 1547.36C1590.64 1546.61 1584.93 1545.46 1579.32 1543.94C1579.32 1543.94 1583.29 1519.48 1574.73 1475.64C1566.17 1431.81 1557.8 1386.42 1552.57 1354.45C1547.33 1322.49 1566.79 1287.28 1566.79 1287.28Z" fill="#999999"/>
<path d="M1599.22 1548.71C1598.22 1548.72 1597.23 1548.66 1596.24 1548.55C1590.42 1547.79 1584.66 1546.63 1579 1545.09C1578.73 1545.01 1578.5 1544.83 1578.35 1544.6C1578.2 1544.36 1578.14 1544.08 1578.18 1543.8C1578.18 1543.55 1582.03 1518.97 1573.59 1475.9C1563.3 1423.11 1555.82 1382.31 1551.37 1354.64C1546.25 1322.74 1565.55 1287.1 1565.74 1286.73C1565.85 1286.51 1566.04 1286.34 1566.26 1286.23C1566.48 1286.12 1566.74 1286.09 1566.98 1286.14C1567.22 1286.19 1567.44 1286.32 1567.61 1286.5C1567.77 1286.69 1567.87 1286.92 1567.89 1287.17C1567.89 1287.79 1575.31 1349.27 1578.11 1361.02C1579.75 1366.42 1581.86 1371.68 1584.39 1376.74C1592.05 1392.16 1597.61 1408.54 1600.94 1425.43C1606.47 1456.46 1617.46 1531.23 1617.46 1533.29C1617.67 1535.39 1618 1537.47 1618.45 1539.53C1618.7 1540.86 1618.96 1542.19 1619.14 1543.34C1619.19 1543.6 1619.14 1543.87 1619.02 1544.09C1618.89 1544.32 1618.69 1544.5 1618.45 1544.6C1612.31 1547.02 1605.81 1548.41 1599.22 1548.71V1548.71ZM1580.59 1543.14C1585.83 1544.53 1591.15 1545.57 1596.53 1546.26C1603.88 1547.17 1613.79 1543.78 1616.73 1542.68C1616.57 1541.78 1616.38 1540.82 1616.2 1539.83C1615.72 1537.68 1615.37 1535.49 1615.17 1533.29C1615.17 1531.34 1604.47 1458.41 1598.67 1425.91C1595.4 1409.2 1589.91 1392.99 1582.35 1377.72C1579.75 1372.56 1577.6 1367.19 1575.93 1361.66C1573.47 1351.35 1567.78 1305.07 1566.1 1291.32C1561.51 1300.84 1549.6 1328.91 1553.69 1354.38C1558.14 1382.04 1565.6 1422.82 1575.88 1475.58C1583.41 1514.06 1581.2 1538.02 1580.59 1543.14Z" fill="#263238"/>
<path d="M1537.76 1532.03C1534.08 1537.35 1529.67 1542.14 1524.68 1546.26C1515 1554.79 1496.78 1563.9 1491.66 1566.18C1486.54 1568.45 1482.48 1568.47 1483.7 1573.59C1484.91 1578.71 1493.36 1582.77 1518.99 1582.77C1544.62 1582.77 1571.91 1581.62 1574.76 1581.05C1577.6 1580.47 1586.23 1580.47 1586.23 1574.16C1586.23 1567.85 1583.38 1542.86 1583.38 1542.86L1537.76 1532.03Z" fill="white"/>
<path d="M1518.99 1583.78C1495.65 1583.78 1484.09 1580.59 1482.57 1573.77C1481.45 1568.75 1484.75 1567.53 1488.24 1566.25C1489.16 1565.9 1490.15 1565.53 1491.2 1565.07C1495.61 1563.1 1514.15 1554.01 1523.9 1545.34C1528.81 1541.29 1533.14 1536.6 1536.78 1531.39C1536.91 1531.18 1537.1 1531.01 1537.32 1530.92C1537.55 1530.82 1537.8 1530.8 1538.04 1530.86L1583.57 1541.67C1583.8 1541.72 1584 1541.85 1584.16 1542.02C1584.32 1542.2 1584.41 1542.42 1584.44 1542.65C1584.56 1543.69 1587.29 1567.9 1587.29 1574.09C1587.29 1580.29 1580.29 1581.32 1576.55 1581.8L1574.99 1582.03C1572.07 1582.7 1544.9 1583.78 1518.99 1583.78ZM1538.29 1533.29C1534.57 1538.38 1530.26 1543 1525.44 1547.06C1515.37 1555.94 1496.59 1565.17 1492.12 1567.16C1491.04 1567.65 1489.98 1568.04 1489.02 1568.4C1485.23 1569.8 1484.16 1570.33 1484.82 1573.27C1485.65 1577.01 1492.26 1581.48 1518.99 1581.48C1544.24 1581.48 1571.77 1580.34 1574.53 1579.78C1574.99 1579.78 1575.58 1579.62 1576.25 1579.53C1580.68 1578.96 1584.99 1578.06 1584.99 1574.09C1584.99 1568.59 1582.7 1548.05 1582.24 1543.71L1538.29 1533.29Z" fill="#263238"/>
<path d="M1574.76 1580.98C1577.6 1580.4 1586.23 1580.4 1586.23 1574.09C1586.23 1573.18 1586.23 1571.8 1586.07 1570.24C1576.32 1571.52 1554.24 1574.25 1529.32 1576.37C1513.93 1578.01 1498.36 1576.45 1483.61 1571.78C1483.58 1572.39 1483.65 1573.01 1483.79 1573.61C1484.91 1578.73 1493.45 1582.79 1519.08 1582.79C1544.72 1582.79 1571.91 1581.48 1574.76 1580.98Z" fill="white"/>
<path d="M1518.99 1583.78C1495.65 1583.78 1484.09 1580.59 1482.57 1573.77C1482.42 1573.07 1482.35 1572.36 1482.37 1571.64C1482.38 1571.46 1482.43 1571.29 1482.51 1571.13C1482.6 1570.98 1482.72 1570.84 1482.87 1570.74C1483.02 1570.64 1483.19 1570.58 1483.37 1570.55C1483.55 1570.53 1483.73 1570.55 1483.9 1570.61C1498.5 1575.25 1513.9 1576.81 1529.13 1575.2C1553.62 1573.13 1575.17 1570.47 1585.82 1569.07C1586.14 1569.05 1586.45 1569.14 1586.71 1569.32C1586.95 1569.53 1587.1 1569.83 1587.13 1570.15C1587.24 1571.75 1587.29 1573.13 1587.29 1574.07C1587.29 1580.38 1580.29 1581.3 1576.55 1581.78L1574.99 1582.01C1572.07 1582.7 1544.9 1583.78 1518.99 1583.78ZM1484.82 1573.34C1485.72 1577.05 1492.39 1581.48 1518.99 1581.48C1544.23 1581.48 1571.77 1580.34 1574.53 1579.79C1574.99 1579.79 1575.58 1579.63 1576.25 1579.53C1580.68 1578.96 1584.99 1578.06 1584.99 1574.09C1584.99 1573.43 1584.99 1572.56 1584.99 1571.55C1573.95 1572.97 1553.05 1575.49 1529.41 1577.51C1514.42 1579.08 1499.27 1577.68 1484.82 1573.41V1573.34Z" fill="#263238"/>
<path d="M1477.48 1156.38C1477.45 1188.34 1479.35 1220.28 1483.17 1252.01C1489.43 1302.66 1507.65 1364.14 1507.65 1364.14C1507.65 1364.14 1516.83 1413.64 1519.59 1430.69C1522.34 1447.74 1537.14 1514.93 1537.14 1514.93L1530.88 1523.47L1532.03 1538.27L1554.79 1543.39C1564.1 1545.71 1573.66 1546.86 1583.25 1546.81C1583.25 1546.81 1584.39 1517.2 1583.82 1513.23C1583.25 1509.26 1579.83 1490.47 1579.23 1484.2C1578.63 1477.94 1580.36 1408.47 1576.39 1392.57C1572.42 1376.67 1565.55 1353.28 1565.55 1332.9C1565.55 1312.52 1580.93 1212.24 1580.93 1212.24C1580.93 1212.24 1597.43 1188.9 1597.43 1175.22C1597.61 1168.36 1597.04 1161.49 1595.73 1154.75L1477.48 1156.38Z" fill="#BDBDBD"/>
<path d="M1581.64 1548.02C1572.52 1547.84 1563.45 1546.67 1554.58 1544.54L1531.82 1539.42C1531.58 1539.36 1531.37 1539.23 1531.21 1539.05C1531.05 1538.86 1530.95 1538.63 1530.92 1538.39L1529.8 1523.58C1529.77 1523.31 1529.85 1523.04 1530.01 1522.83L1535.97 1514.7C1534.6 1508.46 1521.1 1447.03 1518.42 1430.92C1515.62 1414.05 1506.55 1364.83 1506.46 1364.37C1506.37 1363.91 1488.1 1302.4 1481.98 1252.17C1478.17 1220.38 1476.27 1188.4 1476.28 1156.38C1476.28 1156.08 1476.4 1155.8 1476.61 1155.59C1476.82 1155.38 1477.11 1155.26 1477.41 1155.26L1595.8 1153.56C1596.05 1153.55 1596.3 1153.63 1596.5 1153.79C1596.7 1153.94 1596.84 1154.16 1596.9 1154.41C1598.25 1161.25 1598.83 1168.21 1598.65 1175.18C1598.65 1188.49 1583.89 1210.04 1582.1 1212.63C1581.21 1218.37 1566.77 1313.19 1566.77 1332.86C1566.77 1350.46 1571.8 1369.94 1575.84 1385.64C1576.45 1388.01 1577.02 1390.26 1577.56 1392.39C1580.47 1404.07 1580.38 1443.54 1580.31 1467.13C1580.31 1475.71 1580.31 1482.51 1580.42 1484.18C1580.82 1488.43 1582.51 1498.43 1583.75 1505.73C1584.33 1509.13 1584.81 1511.88 1584.99 1513.16C1585.57 1517.2 1584.46 1545.73 1584.42 1546.95C1584.41 1547.23 1584.3 1547.51 1584.1 1547.71C1583.9 1547.91 1583.63 1548.04 1583.34 1548.05C1583.34 1548.05 1582.67 1548.02 1581.64 1548.02ZM1533.15 1537.35L1555.09 1542.31C1563.97 1544.42 1573.06 1545.56 1582.19 1545.71C1582.58 1535.24 1583.16 1516.38 1582.74 1513.42C1582.56 1512.16 1582.08 1509.4 1581.53 1506.05C1580.26 1498.71 1578.57 1488.66 1578.18 1484.32C1578.02 1482.55 1578.02 1476.06 1578.04 1467.06C1578.04 1443.56 1578.2 1404.27 1575.35 1392.87C1574.83 1390.76 1574.25 1388.51 1573.63 1386.14C1569.57 1370.36 1564.45 1350.73 1564.45 1332.83C1564.45 1312.48 1579.21 1216.07 1579.85 1211.99C1579.87 1211.81 1579.94 1211.65 1580.03 1211.51C1580.2 1211.28 1596.33 1188.3 1596.33 1175.15C1596.43 1168.68 1595.94 1162.21 1594.86 1155.83L1478.53 1157.51C1478.62 1189.05 1480.56 1220.56 1484.36 1251.87C1490.54 1301.83 1508.62 1363.2 1508.78 1363.82C1508.94 1364.43 1517.96 1413.64 1520.78 1430.53C1523.6 1447.42 1538.27 1514.04 1538.41 1514.7C1538.44 1514.86 1538.44 1515.03 1538.41 1515.19C1538.38 1515.35 1538.31 1515.51 1538.22 1515.64L1532.21 1523.84L1533.15 1537.35Z" fill="#263238"/>
<path d="M1560.87 1536.69C1560.67 1536.69 1560.48 1536.62 1560.32 1536.5C1560.17 1536.37 1560.06 1536.2 1560.02 1536C1560.02 1536 1559.11 1531.41 1557.29 1525.1C1555.71 1519.5 1557.98 1517.02 1559.06 1516.17C1558.92 1514.2 1558.35 1506.46 1557.27 1495.77C1557.26 1495.66 1557.27 1495.55 1557.3 1495.44C1557.33 1495.33 1557.38 1495.23 1557.45 1495.14C1557.52 1495.05 1557.61 1494.98 1557.71 1494.93C1557.81 1494.87 1557.92 1494.84 1558.03 1494.83C1558.14 1494.81 1558.26 1494.82 1558.37 1494.85C1558.48 1494.88 1558.58 1494.93 1558.67 1495C1558.76 1495.07 1558.84 1495.16 1558.89 1495.26C1558.95 1495.36 1558.98 1495.47 1558.99 1495.59C1560.23 1508.05 1560.8 1516.47 1560.8 1516.56C1560.81 1516.73 1560.78 1516.9 1560.7 1517.04C1560.61 1517.19 1560.49 1517.31 1560.34 1517.39C1560.23 1517.39 1557.36 1519.04 1558.94 1524.62C1560.78 1530.97 1561.7 1535.61 1561.72 1535.66C1561.76 1535.88 1561.71 1536.11 1561.58 1536.3C1561.46 1536.49 1561.26 1536.62 1561.03 1536.67L1560.87 1536.69Z" fill="#263238"/>
<path d="M1556.95 1485.72C1556.74 1485.71 1556.54 1485.63 1556.38 1485.48C1556.23 1485.34 1556.13 1485.15 1556.1 1484.94C1555.09 1475.99 1553.94 1467.31 1552.7 1459.12C1550.91 1447.32 1547.38 1431.1 1543.32 1412.31C1536.94 1382.86 1529 1346.24 1523.42 1307.29C1519.6 1278.76 1518.62 1249.92 1520.51 1221.19C1520.52 1220.96 1520.63 1220.75 1520.8 1220.61C1520.97 1220.46 1521.19 1220.38 1521.41 1220.4C1521.64 1220.41 1521.85 1220.52 1522 1220.69C1522.14 1220.86 1522.22 1221.08 1522.2 1221.3C1520.33 1249.96 1521.32 1278.72 1525.14 1307.18C1530.7 1346.05 1538.61 1382.66 1544.99 1412.05C1549.08 1430.87 1552.61 1447.12 1554.4 1458.98C1555.64 1467.18 1556.7 1475.9 1557.82 1484.87C1557.84 1485.09 1557.77 1485.32 1557.63 1485.49C1557.49 1485.67 1557.29 1485.78 1557.06 1485.81L1556.95 1485.72Z" fill="#263238"/>
<path d="M1522.09 1212.01C1521.98 1212 1521.86 1211.97 1521.76 1211.92C1521.66 1211.87 1521.57 1211.79 1521.5 1211.71C1521.43 1211.62 1521.37 1211.52 1521.34 1211.41C1521.31 1211.3 1521.3 1211.18 1521.31 1211.07C1522.66 1194.87 1524.41 1184.68 1524.41 1184.59C1524.44 1184.36 1524.57 1184.16 1524.75 1184.03C1524.94 1183.89 1525.17 1183.84 1525.39 1183.88C1525.62 1183.91 1525.82 1184.04 1525.95 1184.22C1526.09 1184.41 1526.14 1184.64 1526.11 1184.86C1526.11 1184.98 1524.38 1195.1 1523.03 1211.21C1523.01 1211.44 1522.9 1211.65 1522.72 1211.8C1522.55 1211.95 1522.32 1212.02 1522.09 1212.01Z" fill="#263238"/>
<path d="M1587.31 795.745C1587.31 795.745 1594.38 767.426 1636.83 770.685C1679.29 773.944 1678.76 812.704 1678.76 812.704L1669.58 808.344C1669.58 808.344 1677.2 830.673 1668.48 846.989C1659.76 863.306 1637.45 872.577 1622.76 869.938C1608.08 867.299 1592.22 853.438 1589.93 845.819C1587.63 838.2 1596.01 811.533 1587.31 795.745Z" fill="#263238"/>
<path d="M1628.09 871.383C1626.21 871.391 1624.34 871.229 1622.49 870.901C1607.05 868.033 1591.14 853.874 1588.92 846.14C1588.11 843.271 1588.6 838.314 1589.24 832.072C1590.32 821.172 1591.81 806.255 1586.3 796.296C1586.16 796.044 1586.12 795.749 1586.19 795.469C1586.19 795.171 1594.03 766.233 1636.93 769.56C1679.82 772.888 1679.91 812.222 1679.91 812.635C1679.91 812.827 1679.86 813.015 1679.76 813.18C1679.66 813.345 1679.53 813.482 1679.36 813.576C1679.19 813.666 1679.01 813.714 1678.82 813.714C1678.63 813.714 1678.44 813.666 1678.28 813.576L1671.39 810.317C1673.12 816.697 1676.7 833.862 1669.47 847.379C1661.34 862.617 1642.71 871.383 1628.09 871.383ZM1588.53 795.653C1594.13 806.232 1592.61 821.31 1591.51 832.371C1590.94 838.131 1590.43 843.134 1591.14 845.566C1593.14 852.588 1608.49 866.036 1622.9 868.721C1636.9 871.315 1658.93 862.342 1667.4 846.438C1675.87 830.535 1668.5 808.917 1668.41 808.688C1668.35 808.475 1668.34 808.249 1668.4 808.034C1668.46 807.819 1668.57 807.624 1668.73 807.471C1668.9 807.317 1669.11 807.216 1669.34 807.183C1669.56 807.151 1669.79 807.187 1669.99 807.288L1677.54 810.845C1677.09 803.203 1672.96 774.678 1636.77 771.832C1598.14 768.849 1589.61 792.05 1588.53 795.607V795.653Z" fill="#263238"/>
<path d="M1502.93 792.464C1502.93 792.464 1499.67 797.925 1493.13 809.354C1486.59 820.782 1489.32 831.109 1484.96 836.571C1480.6 842.033 1468.64 841.459 1470.27 846.898C1471.9 852.337 1478.97 856.077 1478.97 856.077C1478.97 856.077 1478.97 886.553 1482.25 890.363C1485.53 894.172 1510.55 887.632 1510.55 887.632C1510.55 887.632 1515.46 895.274 1512.18 912.141C1508.89 929.008 1479.52 975.823 1475.71 999.231C1471.9 1022.64 1484.89 1080.88 1484.89 1080.88L1472.38 1165.79C1494.6 1173.33 1518.11 1176.29 1541.5 1174.49C1579.07 1171.23 1601.93 1163.61 1601.93 1163.61L1576.96 1065.14C1576.96 1065.14 1579.14 995.467 1574.25 956.822C1569.36 918.176 1556.83 908.928 1556.83 894.86C1556.83 880.793 1574.78 873.082 1586.21 859.474C1592.49 851.043 1596.33 841.041 1597.29 830.57C1598.26 820.099 1596.31 809.565 1591.67 800.129C1582.74 780.875 1554.1 773.462 1534.51 772.912C1514.91 772.361 1502.93 792.464 1502.93 792.464Z" fill="white"/>
<path d="M1528.49 1176.32C1509.29 1176.27 1490.23 1173.12 1472.04 1166.98C1471.79 1166.89 1471.59 1166.71 1471.46 1166.48C1471.32 1166.25 1471.27 1165.98 1471.3 1165.72L1483.81 1081.02C1482.82 1076.59 1470.84 1022.04 1474.63 999.138C1476.77 986.034 1486.86 965.587 1495.77 947.55C1502.93 933.069 1509.67 919.415 1511.1 912.002C1513.69 898.715 1511.1 891.348 1510 889.054C1503.11 890.798 1484.75 895.043 1481.42 891.188C1478.1 887.332 1477.89 863.213 1477.87 856.765C1476.05 855.663 1470.68 852.175 1469.22 847.172C1468 843.11 1472.15 841.619 1476.1 840.173C1479.09 839.423 1481.84 837.904 1484.06 835.767C1485.88 833.472 1486.36 830.236 1486.93 826.06C1487.51 819.99 1489.28 814.093 1492.14 808.71C1498.59 797.397 1501.92 791.866 1501.94 791.82C1502.47 790.925 1514.19 771.648 1533.7 771.648H1534.53C1551.56 772.13 1582.97 778.533 1592.7 799.531C1605.42 827.069 1594.61 851.165 1587.1 860.092C1583.06 864.705 1578.63 868.966 1573.86 872.829C1565.39 879.943 1558.1 886.093 1558.1 894.814C1558.1 900.505 1560.18 905.347 1563.1 912.071C1569.55 926.212 1573.74 941.284 1575.49 956.729C1580.24 994.112 1578.34 1061.28 1578.22 1065.07L1603.24 1163.45C1603.3 1163.73 1603.26 1164.02 1603.12 1164.27C1602.98 1164.53 1602.75 1164.71 1602.48 1164.8C1602.25 1164.8 1579.05 1172.52 1541.8 1175.75C1537.14 1176.14 1532.78 1176.32 1528.49 1176.32ZM1473.71 1165.13C1495.54 1172.33 1518.56 1175.16 1541.48 1173.48C1561.5 1171.95 1581.31 1168.42 1600.62 1162.95L1575.86 1065.48C1575.85 1065.38 1575.85 1065.27 1575.86 1065.16C1575.86 1064.47 1577.99 995.122 1573.15 957.004C1571.42 941.772 1567.29 926.91 1560.92 912.966C1558 906.265 1555.73 900.964 1555.73 894.814C1555.73 885.038 1563.79 878.245 1572.3 871.062C1576.99 867.288 1581.35 863.119 1585.34 858.601C1592.52 850.041 1602.85 826.909 1590.61 800.472C1581.43 780.484 1550.98 774.379 1534.48 773.92H1533.72C1515.37 773.92 1504.03 792.761 1503.89 792.968C1503.89 792.968 1500.56 798.544 1494.11 809.812C1491.38 814.941 1489.7 820.568 1489.18 826.358C1488.58 830.695 1488.03 834.436 1485.83 837.19C1483.36 839.676 1480.26 841.445 1476.86 842.307C1472.61 843.845 1470.8 844.602 1471.35 846.484C1472.82 851.418 1479.43 855.021 1479.5 855.067C1479.68 855.164 1479.83 855.309 1479.94 855.488C1480.04 855.666 1480.1 855.869 1480.09 856.076C1480.09 867.688 1480.92 887.08 1483.1 889.604C1484.82 891.624 1498.52 889.604 1510.25 886.529C1510.48 886.467 1510.72 886.481 1510.95 886.567C1511.17 886.654 1511.36 886.81 1511.49 887.011C1511.69 887.355 1516.6 895.227 1513.3 912.255C1511.81 919.965 1504.97 933.757 1497.76 948.376C1488.93 966.276 1478.9 986.562 1476.81 999.322C1473.09 1022.27 1485.99 1079.96 1485.99 1080.54C1486.01 1080.68 1486.01 1080.83 1485.99 1080.97L1473.71 1165.13Z" fill="#263238"/>
<path d="M1510.55 887.724L1522.48 885.062L1515.04 899.909C1514.18 895.642 1512.66 891.532 1510.55 887.724V887.724Z" fill="#263238"/>
<path d="M1515.04 901.079H1514.91C1514.67 901.05 1514.44 900.945 1514.26 900.78C1514.09 900.615 1513.97 900.398 1513.92 900.161C1513.07 896.059 1511.62 892.107 1509.61 888.434C1509.52 888.271 1509.48 888.09 1509.48 887.906C1509.48 887.723 1509.52 887.542 1509.61 887.379C1509.67 887.203 1509.77 887.047 1509.91 886.926C1510.06 886.806 1510.23 886.724 1510.41 886.69L1522.34 884.005C1522.56 883.96 1522.78 883.975 1522.98 884.048C1523.19 884.12 1523.37 884.249 1523.51 884.418C1523.65 884.588 1523.73 884.794 1523.75 885.009C1523.77 885.225 1523.73 885.442 1523.63 885.634L1516.19 900.528C1516.08 900.723 1515.91 900.879 1515.7 900.977C1515.5 901.075 1515.27 901.111 1515.04 901.079V901.079ZM1512.34 888.434C1513.65 891.024 1514.68 893.748 1515.41 896.558L1520.39 886.644L1512.34 888.434Z" fill="#263238"/>
<path d="M1602 1163.82L1576.96 1065.14C1576.96 1065.14 1579.14 995.466 1574.25 956.82C1573.22 948.28 1571.49 939.838 1569.09 931.577C1561.08 925.358 1548.73 917.509 1536.14 916.546C1521.52 915.421 1506.92 932.334 1499.23 943.005C1489.64 962.466 1478.01 985.139 1475.71 999.275C1471.9 1022.68 1484.89 1080.93 1484.89 1080.93L1472.38 1165.84C1494.6 1173.37 1518.11 1176.33 1541.51 1174.53C1579.14 1171.34 1602 1163.82 1602 1163.82Z" fill="#92E3A9"/>
<path d="M1528.49 1176.32C1509.29 1176.27 1490.23 1173.12 1472.04 1166.98C1471.79 1166.88 1471.59 1166.71 1471.46 1166.48C1471.32 1166.25 1471.27 1165.98 1471.3 1165.72L1483.81 1081.02C1482.83 1076.59 1470.85 1022.04 1474.63 999.138C1476.77 986.034 1486.86 965.587 1495.77 947.55L1498.25 942.547C1505.96 931.807 1520.99 914.274 1536.27 915.444C1549.05 916.431 1561.52 924.303 1569.85 930.728C1570.03 930.874 1570.17 931.074 1570.24 931.302C1572.66 939.621 1574.39 948.126 1575.42 956.729C1580.17 994.112 1578.27 1061.28 1578.15 1065.07L1603.17 1163.45C1603.23 1163.73 1603.19 1164.02 1603.05 1164.27C1602.91 1164.53 1602.68 1164.71 1602.41 1164.8C1602.18 1164.8 1578.98 1172.51 1541.73 1175.75C1537.14 1176.14 1532.78 1176.32 1528.49 1176.32ZM1473.71 1165.13C1495.54 1172.33 1518.56 1175.16 1541.48 1173.48C1561.5 1171.95 1581.31 1168.42 1600.62 1162.95L1575.86 1065.48C1575.85 1065.38 1575.85 1065.27 1575.86 1065.16C1575.86 1064.47 1577.99 995.122 1573.15 957.004C1572.14 948.653 1570.47 940.396 1568.15 932.312C1560.14 926.115 1548.16 918.542 1536.02 917.716C1521.86 916.638 1507.47 933.551 1500.13 943.717L1497.83 948.559C1489 966.459 1478.97 986.746 1476.88 999.505C1473.16 1022.45 1486.06 1080.15 1486.06 1080.72C1486.08 1080.86 1486.08 1081.01 1486.06 1081.16L1473.71 1165.13Z" fill="#263238"/>
<path d="M1534.5 772.866C1514.91 772.338 1502.93 792.464 1502.93 792.464C1502.93 792.464 1501.23 795.309 1497.83 801.184C1501.23 797.145 1513.58 783.904 1518.72 797.926C1521.72 806.095 1514.36 817.501 1518.17 821.333C1521.97 825.166 1529.64 833.84 1528.52 835.47C1527.69 837.185 1527.14 839.02 1526.89 840.908C1526.89 840.908 1536.68 826.772 1544.3 835.47C1551.92 844.167 1541.57 860.506 1541.57 860.506L1535.06 862.687C1535.06 862.687 1556.28 886.645 1560.09 886.645C1561.15 886.645 1563.9 878.475 1568.79 876.846C1575.01 871.464 1580.83 865.643 1586.21 859.428C1592.49 850.997 1596.33 840.995 1597.29 830.524C1598.26 820.053 1596.31 809.519 1591.67 800.083C1582.74 780.829 1554.1 773.416 1534.5 772.866Z" fill="#263238"/>
<path d="M1560.09 887.792C1556.08 887.792 1539.26 869.158 1534.18 863.444C1534.06 863.302 1533.97 863.132 1533.93 862.948C1533.88 862.764 1533.88 862.571 1533.93 862.388C1533.99 862.207 1534.08 862.041 1534.21 861.905C1534.35 861.769 1534.51 861.667 1534.69 861.608L1540.82 859.566C1542.19 857.271 1549.84 843.502 1543.43 836.227C1542.85 835.447 1542.09 834.818 1541.22 834.394C1540.34 833.971 1539.38 833.765 1538.41 833.794C1533.08 834.093 1527.87 841.505 1527.83 841.574C1527.68 841.787 1527.47 841.945 1527.22 842.02C1526.98 842.095 1526.71 842.084 1526.47 841.987C1526.23 841.892 1526.03 841.718 1525.89 841.494C1525.76 841.269 1525.71 841.007 1525.74 840.748C1526.01 838.75 1526.59 836.807 1527.46 834.988C1527.3 833.45 1522.3 827.07 1517.36 822.136C1515.07 819.842 1515.94 815.78 1517 811.121C1517.96 806.898 1519.04 802.125 1517.64 798.316C1516.45 795.057 1514.79 793.221 1512.7 792.854C1507.59 791.959 1500.7 799.555 1498.71 802.033C1498.52 802.236 1498.26 802.363 1497.99 802.391C1497.71 802.42 1497.43 802.348 1497.21 802.188C1496.98 802.029 1496.82 801.793 1496.75 801.524C1496.69 801.255 1496.72 800.972 1496.85 800.725C1500.24 794.85 1501.94 792.005 1501.94 792.005C1502.45 791.156 1514.17 771.833 1533.7 771.833H1534.53C1551.56 772.315 1582.97 778.718 1592.7 799.716C1605.42 827.254 1594.61 851.35 1587.1 860.277C1582.94 865.193 1578.41 869.795 1573.56 874.046C1572.26 875.239 1570.95 876.341 1569.59 877.718C1569.47 877.837 1569.32 877.924 1569.16 877.97C1566.34 878.911 1564.18 882.56 1562.76 885.016C1561.65 886.851 1561.1 887.792 1560.09 887.792ZM1537.14 863.191C1546.6 873.748 1557.11 884.35 1559.89 885.383C1560.14 885.016 1560.53 884.327 1560.87 883.753C1562.43 881.091 1564.77 877.098 1568.29 875.79C1569.59 874.551 1570.86 873.495 1572.12 872.256C1576.86 868.042 1581.28 863.478 1585.34 858.602C1592.52 850.042 1602.85 826.91 1590.62 800.473C1581.44 780.485 1550.98 774.38 1534.48 773.921H1533.73C1515.48 773.921 1504.03 792.762 1503.89 792.969L1503.16 794.231C1506.21 791.936 1509.79 789.917 1513.09 790.49C1516.03 791.018 1518.28 793.359 1519.77 797.375C1521.4 801.827 1520.23 806.967 1519.22 811.488C1518.35 815.321 1517.52 818.924 1518.97 820.369C1521.06 822.458 1531.41 833.06 1529.46 835.974C1529.41 836.027 1529.37 836.089 1529.34 836.158C1531.67 833.585 1534.82 831.891 1538.25 831.362C1539.57 831.317 1540.88 831.584 1542.07 832.143C1543.27 832.701 1544.32 833.534 1545.13 834.575C1553.21 843.754 1542.95 860.3 1542.51 860.988C1542.36 861.21 1542.15 861.378 1541.9 861.47L1537.14 863.191Z" fill="#263238"/>
<path d="M1497.44 835.125C1496.85 837.902 1495.4 839.967 1494.23 839.715C1493.06 839.462 1492.58 837.007 1493.17 834.207C1493.77 831.407 1495.22 829.342 1496.39 829.617C1497.56 829.893 1498.13 832.325 1497.44 835.125Z" fill="#263238"/>
<path d="M1502.93 824.637C1502.71 824.643 1502.5 824.586 1502.32 824.471C1502.13 824.357 1501.99 824.191 1501.9 823.995C1500.93 821.929 1499.78 820.782 1498.48 820.575C1496.3 820.231 1494 822.618 1493.89 822.641C1493.78 822.748 1493.65 822.834 1493.51 822.892C1493.37 822.95 1493.22 822.98 1493.07 822.98C1492.92 822.98 1492.77 822.95 1492.63 822.892C1492.49 822.834 1492.36 822.748 1492.26 822.641C1492.05 822.422 1491.93 822.13 1491.93 821.826C1491.93 821.522 1492.05 821.23 1492.26 821.011C1493.09 820.111 1494.1 819.397 1495.23 818.919C1496.36 818.44 1497.57 818.207 1498.8 818.235C1499.99 818.519 1501.08 819.099 1501.99 819.922C1502.89 820.745 1503.57 821.783 1503.96 822.939C1504.05 823.114 1504.09 823.31 1504.08 823.506C1504.07 823.702 1504.01 823.892 1503.9 824.057C1503.79 824.221 1503.65 824.355 1503.47 824.445C1503.3 824.535 1503.1 824.577 1502.91 824.568L1502.93 824.637Z" fill="#263238"/>
<path d="M1485.88 864.82C1483.28 864.82 1482.48 863.558 1482.3 863.214C1482.23 863.078 1482.19 862.931 1482.18 862.78C1482.17 862.629 1482.19 862.478 1482.24 862.335C1482.29 862.192 1482.37 862.061 1482.47 861.948C1482.57 861.834 1482.69 861.742 1482.83 861.676C1483.08 861.543 1483.38 861.514 1483.66 861.595C1483.94 861.676 1484.17 861.861 1484.32 862.112C1484.62 862.456 1486.18 863.007 1490.01 861.607C1490.3 861.503 1490.62 861.517 1490.9 861.646C1491.17 861.775 1491.39 862.008 1491.5 862.296C1491.6 862.582 1491.59 862.897 1491.46 863.173C1491.33 863.448 1491.1 863.661 1490.81 863.764C1489.24 864.402 1487.57 864.759 1485.88 864.82Z" fill="#263238"/>
<path d="M1519.27 945.989C1519.27 945.989 1511.1 957.464 1507.79 978.645C1504.49 999.827 1507.24 1068.99 1507.24 1068.99C1507.24 1068.99 1460.98 1055.94 1445.72 1048.34C1438.83 1045.06 1432.11 1041.43 1425.59 1037.46C1425.59 1037.46 1420.68 1025.99 1416.87 1021.67C1413.06 1017.36 1402.73 1016.23 1398.92 1013.5C1395.12 1010.77 1392.38 1002.03 1387.45 1005.33C1386.63 1005.76 1385.93 1006.4 1385.42 1007.17C1384.92 1007.95 1384.63 1008.85 1384.57 1009.77C1384.52 1010.7 1384.71 1011.62 1385.12 1012.45C1385.53 1013.29 1386.15 1014 1386.92 1014.51C1389.1 1016.17 1397.25 1024.31 1397.25 1024.31L1376.6 1015.13C1376.6 1015.13 1374.97 1023.3 1377.67 1026.03C1380.38 1028.76 1385.84 1033.65 1385.84 1033.65C1385.84 1033.65 1394.01 1045.13 1398.92 1047.79C1403.83 1050.07 1408.93 1051.9 1414.16 1053.25C1419.03 1054.88 1423.94 1059.03 1428.3 1061.67L1456.04 1078.54C1470.41 1087.18 1485.62 1094.34 1501.44 1099.91C1511.35 1103.39 1535.61 1114.04 1544.21 1103.37C1547.93 1098.78 1546.78 1085.01 1547.75 1079.27C1553.83 1042.76 1561.68 1006.02 1561.68 968.869" fill="#92E3A9"/>
<path d="M1532.26 1109.15C1523.21 1109.15 1512.31 1105.12 1504.72 1102.27L1501.14 1100.96C1485.25 1095.37 1469.98 1088.18 1455.54 1079.5L1437.18 1068.37L1427.75 1062.64C1426.37 1061.79 1424.95 1060.82 1423.48 1059.81C1420.52 1057.56 1417.28 1055.71 1413.84 1054.31L1412.21 1053.83C1407.47 1052.6 1402.86 1050.91 1398.44 1048.78C1393.58 1046.07 1385.96 1035.63 1385.09 1034.39C1384.33 1033.72 1379.51 1029.36 1376.96 1026.81C1373.89 1023.74 1375.38 1015.78 1375.56 1014.88C1375.6 1014.72 1375.67 1014.56 1375.78 1014.43C1375.88 1014.29 1376.01 1014.18 1376.16 1014.1C1376.31 1014.02 1376.48 1013.98 1376.65 1013.97C1376.82 1013.96 1376.99 1013.99 1377.15 1014.06L1392.04 1020.71C1389.75 1018.55 1387.45 1016.26 1386.35 1015.48C1385.45 1014.83 1384.72 1013.99 1384.2 1013.01C1383.69 1012.03 1383.41 1010.94 1383.39 1009.83C1383.48 1008.71 1383.84 1007.62 1384.45 1006.67C1385.06 1005.71 1385.89 1004.92 1386.88 1004.37C1391.05 1001.57 1393.97 1005.54 1396.29 1008.75C1397.21 1010.17 1398.33 1011.44 1399.61 1012.54C1401.73 1013.74 1404 1014.65 1406.36 1015.25C1410.56 1016.58 1415.31 1018.07 1417.83 1020.89C1421.39 1024.96 1425.75 1034.66 1426.6 1036.66C1427.82 1037.44 1433.3 1040.77 1446.34 1047.28C1459.76 1054.01 1498.02 1065.14 1506 1067.46C1505.61 1056.79 1503.71 998.037 1506.62 978.462C1509.9 957.211 1517.91 945.783 1518.26 945.324C1518.34 945.2 1518.46 945.094 1518.58 945.013C1518.71 944.932 1518.85 944.877 1519 944.851C1519.15 944.826 1519.31 944.83 1519.45 944.864C1519.6 944.898 1519.74 944.96 1519.86 945.049C1520.11 945.228 1520.28 945.496 1520.33 945.796C1520.38 946.096 1520.31 946.404 1520.14 946.655C1520.14 946.655 1512.08 958.129 1508.89 978.783C1505.7 999.437 1508.34 1068.28 1508.37 1068.95C1508.37 1069.13 1508.34 1069.31 1508.26 1069.48C1508.19 1069.64 1508.07 1069.79 1507.93 1069.9C1507.78 1070.01 1507.62 1070.09 1507.44 1070.12C1507.26 1070.16 1507.07 1070.15 1506.9 1070.1C1505.02 1069.54 1460.36 1056.9 1445.19 1049.44C1438.25 1046.14 1431.49 1042.48 1424.93 1038.47C1424.74 1038.35 1424.6 1038.17 1424.51 1037.97C1424.51 1037.85 1419.65 1026.65 1416 1022.5C1413.96 1020.21 1409.53 1018.76 1405.63 1017.52C1403.03 1016.87 1400.53 1015.85 1398.21 1014.51C1396.74 1013.27 1395.46 1011.81 1394.4 1010.2C1391.72 1006.53 1390.2 1004.94 1388.09 1006.37C1387.41 1006.72 1386.83 1007.24 1386.41 1007.87C1385.98 1008.5 1385.71 1009.23 1385.64 1009.99C1385.66 1010.72 1385.85 1011.44 1386.2 1012.09C1386.54 1012.74 1387.02 1013.3 1387.61 1013.73C1389.91 1015.41 1397.73 1023.3 1398.08 1023.65C1398.26 1023.84 1398.38 1024.09 1398.41 1024.36C1398.43 1024.62 1398.36 1024.89 1398.21 1025.12C1398.06 1025.34 1397.83 1025.5 1397.57 1025.57C1397.31 1025.64 1397.04 1025.62 1396.79 1025.51L1377.47 1016.85C1377.08 1019.84 1377.05 1023.85 1378.48 1025.28C1381.14 1027.94 1386.53 1032.8 1386.6 1032.85L1386.76 1033.06C1386.76 1033.06 1394.84 1044.3 1399.45 1046.83C1403.73 1048.87 1408.2 1050.49 1412.79 1051.67L1414.51 1052.17C1418.15 1053.64 1421.59 1055.58 1424.72 1057.96C1426.14 1058.94 1427.54 1059.91 1428.87 1060.71L1438.3 1066.45L1456.66 1077.58C1470.96 1086.18 1486.09 1093.3 1501.83 1098.85L1505.45 1100.16C1516.17 1104.15 1536.16 1111.63 1543.34 1102.66C1545.64 1099.79 1545.91 1092.47 1546.12 1086.6C1546.16 1084.1 1546.33 1081.61 1546.65 1079.14C1547.72 1072.62 1548.94 1066.08 1550.02 1059.54C1555.21 1029.96 1560.55 999.345 1560.55 968.915C1560.55 968.611 1560.67 968.319 1560.89 968.104C1561.1 967.889 1561.4 967.768 1561.7 967.768C1562 967.768 1562.3 967.889 1562.51 968.104C1562.73 968.319 1562.85 968.611 1562.85 968.915C1562.85 999.529 1557.48 1030.26 1552.27 1059.95C1551.14 1066.47 1549.97 1072.99 1548.89 1079.5C1548.62 1081.27 1548.53 1083.89 1548.41 1086.66C1548.18 1093.23 1547.91 1100.66 1545.13 1104.13C1542.35 1107.59 1537.51 1109.15 1532.26 1109.15Z" fill="#263238"/>
<path d="M1490.79 1064.15C1475.94 1059.56 1455.08 1052.98 1445.76 1048.32C1438.87 1045.04 1432.15 1041.41 1425.64 1037.44C1425.64 1037.44 1420.73 1025.97 1416.92 1021.65C1413.11 1017.34 1402.78 1016.21 1398.97 1013.48C1395.16 1010.75 1392.43 1002.01 1387.5 1005.31C1386.67 1005.74 1385.97 1006.37 1385.47 1007.15C1384.97 1007.93 1384.67 1008.83 1384.62 1009.75C1384.57 1010.68 1384.75 1011.6 1385.17 1012.43C1385.58 1013.26 1386.2 1013.97 1386.97 1014.49C1389.15 1016.14 1397.29 1024.29 1397.29 1024.29L1376.64 1015.11C1376.64 1015.11 1375.01 1023.28 1377.72 1026.01C1380.43 1028.74 1385.89 1033.63 1385.89 1033.63C1385.89 1033.63 1394.06 1045.1 1398.97 1047.77C1403.87 1050.05 1408.97 1051.87 1414.21 1053.23C1419.07 1054.86 1423.98 1059.01 1428.34 1061.65L1456.09 1078.52C1465.02 1083.89 1474.29 1088.7 1483.83 1092.91L1490.79 1064.15Z" fill="white"/>
<path d="M1483.83 1094.06C1483.68 1094.09 1483.53 1094.09 1483.37 1094.06C1473.78 1089.85 1464.47 1085.03 1455.49 1079.62L1437.13 1068.49L1427.7 1062.75C1426.32 1061.9 1424.9 1060.94 1423.43 1059.93C1420.48 1057.68 1417.24 1055.83 1413.79 1054.42L1412.16 1053.94C1407.42 1052.71 1402.81 1051.02 1398.4 1048.89C1393.53 1046.18 1385.91 1035.74 1385.04 1034.5C1384.28 1033.84 1379.46 1029.48 1376.92 1026.93C1373.84 1023.86 1375.33 1015.89 1375.52 1015C1375.55 1014.83 1375.63 1014.68 1375.73 1014.54C1375.83 1014.41 1375.97 1014.3 1376.12 1014.22C1376.27 1014.14 1376.43 1014.09 1376.6 1014.09C1376.77 1014.08 1376.94 1014.11 1377.1 1014.17L1391.99 1020.83C1389.7 1018.67 1387.4 1016.37 1386.3 1015.59C1385.4 1014.93 1384.66 1014.06 1384.15 1013.06C1383.65 1012.06 1383.38 1010.96 1383.39 1009.83C1383.48 1008.71 1383.84 1007.62 1384.45 1006.67C1385.06 1005.71 1385.89 1004.93 1386.88 1004.37C1391.05 1001.57 1393.97 1005.57 1396.28 1008.76C1397.21 1010.17 1398.33 1011.44 1399.61 1012.54C1401.73 1013.74 1404 1014.65 1406.36 1015.25C1410.56 1016.58 1415.31 1018.07 1417.83 1020.89C1421.39 1024.96 1425.75 1034.66 1426.6 1036.66C1427.82 1037.44 1433.3 1040.77 1446.34 1047.29C1455.51 1051.88 1475.76 1058.37 1491.15 1063.05C1491.44 1063.14 1491.68 1063.33 1491.83 1063.58C1491.98 1063.84 1492.02 1064.14 1491.96 1064.43L1485.07 1093.16C1485.03 1093.32 1484.95 1093.48 1484.85 1093.61C1484.74 1093.74 1484.61 1093.84 1484.45 1093.92C1484.27 1094.03 1484.05 1094.07 1483.83 1094.06ZM1377.54 1016.76C1377.15 1019.75 1377.12 1023.76 1378.54 1025.19C1381.21 1027.85 1386.6 1032.71 1386.67 1032.76L1386.83 1032.97C1386.83 1032.97 1394.91 1044.21 1399.52 1046.74C1403.8 1048.78 1408.26 1050.4 1412.85 1051.58L1414.57 1052.08C1418.22 1053.55 1421.65 1055.49 1424.79 1057.87C1426.21 1058.85 1427.61 1059.82 1428.94 1060.62L1438.37 1066.36L1456.73 1077.49C1465.22 1082.61 1474.02 1087.21 1483.08 1091.26L1489.46 1064.89C1474.1 1060.3 1454.37 1053.83 1445.3 1049.31C1438.36 1046 1431.6 1042.34 1425.04 1038.34C1424.85 1038.21 1424.71 1038.04 1424.63 1037.83C1424.63 1037.72 1419.76 1026.52 1416.11 1022.36C1414.07 1020.07 1409.64 1018.62 1405.74 1017.38C1403.14 1016.73 1400.65 1015.72 1398.33 1014.38C1396.86 1013.13 1395.57 1011.68 1394.52 1010.06C1391.83 1006.39 1390.32 1004.81 1388.21 1006.23C1387.53 1006.58 1386.95 1007.1 1386.52 1007.73C1386.09 1008.37 1385.83 1009.1 1385.75 1009.86C1385.78 1010.59 1385.97 1011.3 1386.31 1011.95C1386.65 1012.6 1387.14 1013.16 1387.72 1013.6C1390.02 1015.27 1397.84 1023.17 1398.19 1023.51C1398.38 1023.7 1398.49 1023.95 1398.52 1024.22C1398.54 1024.49 1398.48 1024.76 1398.33 1024.98C1398.17 1025.2 1397.95 1025.36 1397.69 1025.43C1397.43 1025.51 1397.15 1025.48 1396.9 1025.37L1377.54 1016.76Z" fill="#263238"/>
<path d="M1523.08 1085.93C1522.77 1085.93 1522.48 1085.81 1522.25 1085.61L1509.61 1073.01L1512.68 1083.38C1512.76 1083.68 1512.72 1083.99 1512.58 1084.25C1512.43 1084.52 1512.19 1084.72 1511.9 1084.81C1511.76 1084.85 1511.6 1084.87 1511.45 1084.85C1511.3 1084.84 1511.16 1084.79 1511.02 1084.72C1510.89 1084.65 1510.77 1084.55 1510.68 1084.43C1510.59 1084.31 1510.52 1084.17 1510.48 1084.03L1506.12 1069.34C1506.05 1069.09 1506.06 1068.83 1506.15 1068.59C1506.24 1068.35 1506.41 1068.15 1506.62 1068.01C1506.84 1067.88 1507.1 1067.83 1507.35 1067.86C1507.61 1067.9 1507.84 1068.01 1508.02 1068.19L1523.81 1083.98C1523.92 1084.09 1524 1084.21 1524.06 1084.35C1524.12 1084.49 1524.15 1084.64 1524.15 1084.79C1524.15 1084.95 1524.12 1085.1 1524.06 1085.24C1524 1085.38 1523.92 1085.5 1523.81 1085.61C1523.61 1085.8 1523.35 1085.91 1523.08 1085.93V1085.93Z" fill="#263238"/>
</svg>
