<svg width="2000" height="2000" viewBox="0 0 2000 2000" fill="none" xmlns="http://www.w3.org/2000/svg">
<g clip-path="url(#clip0_795_109)">
<path d="M1628.76 691.564H700.91V1531.54H1628.76V691.564Z" fill="#263238" stroke="#263238" stroke-width="3.33771" stroke-miterlimit="10" stroke-linecap="round"/>
<path d="M806.142 693.32H763.654V1529.44H806.142V693.32Z" fill="#C9C9C9" stroke="#263238" stroke-width="3.33771" stroke-miterlimit="10" stroke-linecap="round"/>
<path d="M846.606 693.32H804.119V1529.44H846.606V693.32Z" fill="#BABABA" stroke="#263238" stroke-width="3.33771" stroke-miterlimit="10" stroke-linecap="round"/>
<path d="M887.046 693.32H844.559V1529.44H887.046V693.32Z" fill="#C9C9C9" stroke="#263238" stroke-width="3.33771" stroke-miterlimit="10" stroke-linecap="round"/>
<path d="M927.51 693.32H885.022V1529.44H927.51V693.32Z" fill="#BABABA" stroke="#263238" stroke-width="3.33771" stroke-miterlimit="10" stroke-linecap="round"/>
<path d="M967.95 693.32H925.462V1529.44H967.95V693.32Z" fill="#C9C9C9" stroke="#263238" stroke-width="3.33771" stroke-miterlimit="10" stroke-linecap="round"/>
<path d="M1008.41 693.32H965.927V1529.44H1008.41V693.32Z" fill="#BABABA" stroke="#263238" stroke-width="3.33771" stroke-miterlimit="10" stroke-linecap="round"/>
<path d="M1048.88 693.32H1006.39V1529.44H1048.88V693.32Z" fill="#C9C9C9" stroke="#263238" stroke-width="3.33771" stroke-miterlimit="10" stroke-linecap="round"/>
<path d="M1089.32 693.32H1046.83V1529.44H1089.32V693.32Z" fill="#BABABA" stroke="#263238" stroke-width="3.33771" stroke-miterlimit="10" stroke-linecap="round"/>
<path d="M1129.78 693.32H1087.3V1529.44H1129.78V693.32Z" fill="#C9C9C9" stroke="#263238" stroke-width="3.33771" stroke-miterlimit="10" stroke-linecap="round"/>
<path d="M1170.25 693.32H1127.76V1529.44H1170.25V693.32Z" fill="#BABABA" stroke="#263238" stroke-width="3.33771" stroke-miterlimit="10" stroke-linecap="round"/>
<path d="M1210.69 693.32H1168.2V1529.44H1210.69V693.32Z" fill="#C9C9C9" stroke="#263238" stroke-width="3.33771" stroke-miterlimit="10" stroke-linecap="round"/>
<path d="M1251.15 693.32H1208.66V1529.44H1251.15V693.32Z" fill="#BABABA" stroke="#263238" stroke-width="3.33771" stroke-miterlimit="10" stroke-linecap="round"/>
<path d="M1291.59 693.32H1249.1V1529.44H1291.59V693.32Z" fill="#C9C9C9" stroke="#263238" stroke-width="3.33771" stroke-miterlimit="10" stroke-linecap="round"/>
<path d="M1332.05 693.32H1289.57V1529.44H1332.05V693.32Z" fill="#BABABA" stroke="#263238" stroke-width="3.33771" stroke-miterlimit="10" stroke-linecap="round"/>
<path d="M1372.52 693.32H1330.03V1529.44H1372.52V693.32Z" fill="#C9C9C9" stroke="#263238" stroke-width="3.33771" stroke-miterlimit="10" stroke-linecap="round"/>
<path d="M1412.96 693.32H1370.47V1529.44H1412.96V693.32Z" fill="#BABABA" stroke="#263238" stroke-width="3.33771" stroke-miterlimit="10" stroke-linecap="round"/>
<path d="M1453.42 693.32H1410.94V1529.44H1453.42V693.32Z" fill="#C9C9C9" stroke="#263238" stroke-width="3.33771" stroke-miterlimit="10" stroke-linecap="round"/>
<path d="M1493.86 693.32H1451.38V1529.44H1493.86V693.32Z" fill="#BABABA" stroke="#263238" stroke-width="3.33771" stroke-miterlimit="10" stroke-linecap="round"/>
<path d="M1534.33 693.32H1491.84V1529.44H1534.33V693.32Z" fill="#C9C9C9" stroke="#263238" stroke-width="3.33771" stroke-miterlimit="10" stroke-linecap="round"/>
<path d="M804.484 765.181C804.484 765.181 811.383 892.253 805.264 980.397L804.484 765.181Z" fill="#263238"/>
<path d="M884.974 792.239C884.974 792.239 899.6 923.285 884.219 994.756L884.974 792.239Z" fill="#263238"/>
<path d="M846.118 1053.94V1277.32C846.118 1277.32 862.45 1174.6 846.118 1053.94Z" fill="#263238"/>
<path d="M965.854 732.565V937.812C965.854 937.812 982.161 808.131 965.854 732.565Z" fill="#263238"/>
<path d="M925.584 954.704V1187.13C925.584 1187.13 938.626 1013.35 925.584 954.704Z" fill="#263238"/>
<path d="M1006.12 746.654V1072C1006.12 1072 1027.89 930.45 1006.12 746.654Z" fill="#263238"/>
<path d="M1008.29 1501.07V1158.83C1008.29 1158.83 1022.45 1373.49 1008.29 1501.07Z" fill="#263238"/>
<path d="M1168.3 1313.89V971.621C1168.3 971.621 1182.46 1186.3 1168.3 1313.89Z" fill="#263238"/>
<path d="M1126.93 1213.5V871.265C1126.93 871.265 1141.09 1085.94 1126.93 1213.5Z" fill="#263238"/>
<path d="M1209.66 1092.87V750.604C1209.66 750.604 1223.83 965.309 1209.66 1092.87Z" fill="#263238"/>
<path d="M1249.93 1443.57V1101.3C1249.93 1101.3 1264.09 1315.98 1249.93 1443.57Z" fill="#263238"/>
<path d="M1291.3 1285.68V943.37C1291.3 943.37 1305.46 1158.1 1291.3 1285.68Z" fill="#263238"/>
<path d="M1369.67 1398.45V1056.21C1369.67 1056.21 1383.83 1270.86 1369.67 1398.45Z" fill="#263238"/>
<path d="M1330.49 1057.94V715.648C1330.49 715.648 1344.63 930.304 1330.49 1057.94Z" fill="#263238"/>
<path d="M1411.03 1166.14V823.927C1411.03 823.927 1425.17 1038.58 1411.03 1166.14Z" fill="#263238"/>
<path d="M1491.57 1453.71V1111.56C1491.57 1111.56 1505.73 1326.07 1491.57 1453.71Z" fill="#263238"/>
<path d="M1451.35 1499.95V1157.71C1451.35 1157.71 1465.47 1372.39 1451.35 1499.95Z" fill="#263238"/>
<path d="M1451.35 1035.34V693.101C1451.35 693.101 1465.47 907.756 1451.35 1035.34Z" fill="#263238"/>
<path d="M1492.79 1139.09V796.846C1492.79 796.846 1506.81 1011.62 1492.79 1139.09Z" fill="#263238"/>
<path d="M1088.85 1520.25V1177.99C1088.85 1177.99 1102.99 1392.67 1088.85 1520.25Z" fill="#263238"/>
<path d="M803.655 1386.04V1043.8C803.655 1043.8 817.818 1258.45 803.655 1386.04Z" fill="#263238"/>
<path d="M886.388 1506.7V1164.46C886.388 1164.46 900.453 1379.12 886.388 1506.7Z" fill="#263238"/>
<path d="M1087.76 724.667V1152.05C1087.76 1152.05 1102.99 898.907 1087.76 724.667Z" fill="#263238"/>
<path d="M721.021 691.564H610.11V1531.54H721.021V691.564Z" fill="white" stroke="#263238" stroke-width="3.33771" stroke-miterlimit="10" stroke-linecap="round"/>
<path d="M1684.22 691.564H1573.31V1531.54H1684.22V691.564Z" fill="white" stroke="#263238" stroke-width="3.33771" stroke-miterlimit="10" stroke-linecap="round"/>
<path d="M1702.77 571.025H589.512V700.755H1702.77V571.025Z" fill="#263238" stroke="#263238" stroke-width="3.33771" stroke-miterlimit="10" stroke-linecap="round"/>
<path d="M1227.32 1552.15H1442.59C1438.41 1525.83 1421.7 1530.47 1419.32 1489.48C1418.19 1468.93 1437.2 1443.53 1435.53 1416.5C1434.19 1394.28 1412.26 1371.47 1410.46 1346.02C1408.96 1323.09 1427.63 1297.61 1425.83 1272.87C1424.12 1249.48 1401.9 1226.92 1399.93 1202.73C1397.97 1178.54 1416.35 1153.27 1414.18 1129.29C1412.01 1105.31 1389.41 1083.34 1386.98 1059.65C1384.52 1035.34 1402.27 1009.18 1399.52 985.957C1396.63 961.268 1373.32 940.004 1370.27 917.194C1366.72 891.878 1383.22 864.807 1379.38 842.958C1374.66 816.18 1349.72 796.795 1344.46 777.035C1334.68 740.231 1336.1 704.721 1324.36 702.423C1312.04 699.959 1309.24 734.716 1299.92 773.443C1295.2 792.994 1270.68 812.796 1266.84 839.574C1263.58 861.298 1280.83 887.658 1277.99 912.891C1275.48 935.492 1252.92 957.174 1250.54 981.738C1248.5 1004.84 1266.92 1030.28 1265.08 1054.43C1263.33 1077.91 1241.31 1100.38 1239.76 1124.11C1238.22 1147.84 1257.27 1172.9 1255.97 1196.47C1254.68 1220.03 1233 1243.34 1231.91 1266.57C1230.74 1291.09 1250.08 1315.86 1249.16 1338.63C1248.12 1363.7 1226.77 1387.01 1225.98 1409.06C1225.02 1435.84 1244.69 1460.53 1244.11 1480.92C1242.77 1525.16 1222.51 1516.01 1221.8 1551.6L1227.32 1552.15Z" fill="#92E3A9"/>
<path d="M1319.72 773.358V1542.2" stroke="#263238" stroke-width="3.33771" stroke-miterlimit="10"/>
<path d="M1353.35 853.944L1318.3 884.232L1289.6 845.965" stroke="#263238" stroke-width="3.33771" stroke-miterlimit="10"/>
<path d="M1353.35 987.795L1318.3 1018.04L1289.6 979.815" stroke="#263238" stroke-width="3.33771" stroke-miterlimit="10"/>
<path d="M1353.35 1113.62L1318.3 1143.91L1289.6 1105.69" stroke="#263238" stroke-width="3.33771" stroke-miterlimit="10"/>
<path d="M1353.35 1263.39L1318.3 1293.68L1289.6 1255.45" stroke="#263238" stroke-width="3.33771" stroke-miterlimit="10"/>
<path d="M1353.35 1414.75L1318.3 1445.03L1289.6 1406.81" stroke="#263238" stroke-width="3.33771" stroke-miterlimit="10"/>
<path d="M1000.89 1552.15H1187.59C1183.99 1529.34 1169.33 1533.35 1167.37 1497.84C1166.41 1480 1182.91 1457.94 1181.49 1434.55C1180.28 1415.29 1161.27 1395.49 1159.81 1373.43C1158.47 1353.54 1174.72 1331.44 1173.13 1309.97C1171.63 1289.71 1152.24 1270.24 1150.66 1249.19C1149.07 1228.13 1164.9 1206.28 1163.19 1185.48C1161.48 1164.67 1141.68 1145.58 1139.63 1125.11C1137.46 1104.02 1152.83 1081.33 1150.49 1061.2C1147.98 1039.76 1127.81 1021.3 1125.05 1001.58C1122 979.607 1136.33 956.129 1132.99 937.205C1128.81 913.977 1107.25 897.141 1102.7 880.013C1094.34 848.096 1095.3 817.349 1085.28 815.344C1074.58 813.172 1072.16 843.334 1064.06 877.089C1059.88 893.799 1038.99 911.178 1035.4 934.406C1032.56 953.247 1047.51 976.182 1045.05 997.989C1042.88 1017.58 1023.2 1036.38 1021.28 1057.69C1019.48 1077.7 1035.44 1099.8 1033.81 1120.73C1032.18 1141.66 1013.21 1160.5 1011.88 1181.13C1010.54 1201.77 1027.04 1223.45 1025.91 1243.8C1024.79 1264.14 1005.99 1284.45 1005.03 1304.58C1004.02 1325.89 1020.82 1347.36 1019.98 1367.25C1019.1 1389.14 1000.6 1409.02 999.929 1428.32C999.094 1451.55 1016.14 1472.98 1015.64 1490.65C1014.47 1529 996.922 1521.07 996.295 1551.94L1000.89 1552.15Z" fill="#92E3A9"/>
<path d="M1080.93 876.796V1543.54" stroke="#263238" stroke-width="3.33771" stroke-miterlimit="10"/>
<path d="M1110.09 946.687L1079.72 972.964L1054.82 939.794" stroke="#263238" stroke-width="3.33771" stroke-miterlimit="10"/>
<path d="M1110.09 1062.74L1079.72 1089.02L1054.82 1055.85" stroke="#263238" stroke-width="3.33771" stroke-miterlimit="10"/>
<path d="M1110.09 1171.9L1079.72 1198.14L1054.82 1165.01" stroke="#263238" stroke-width="3.33771" stroke-miterlimit="10"/>
<path d="M1110.09 1301.78L1079.72 1328.02L1054.82 1294.85" stroke="#263238" stroke-width="3.33771" stroke-miterlimit="10"/>
<path d="M1110.09 1433L1079.72 1459.28L1054.82 1426.11" stroke="#263238" stroke-width="3.33771" stroke-miterlimit="10"/>
<path d="M343.669 1552.15H603.349C598.378 1520.4 577.949 1525.99 575.234 1476.95C573.897 1452.14 596.832 1421.47 594.827 1388.93C593.198 1362.11 566.753 1334.62 564.706 1303.91C562.868 1276.22 585.594 1245.43 583.255 1215.64C581.166 1187.44 554.346 1160.37 552.006 1131.04C549.667 1102.47 571.766 1071.43 569.176 1042.48C566.586 1013.53 539.265 987.001 536.382 958.51C533.416 929.267 554.805 897.642 551.547 869.569C548.038 839.824 519.964 814.09 516.163 786.643C511.985 756.105 531.829 723.478 527.15 697.117C521.468 664.824 491.389 641.43 485.039 617.743C473.259 573.335 474.721 530.515 460.809 527.716C445.937 524.75 442.553 566.734 431.316 613.607C425.634 637.169 396.224 661.065 391.419 693.357C387.492 719.551 408.13 751.384 404.871 781.797C401.822 809.035 374.458 835.229 371.785 864.848C369.278 892.671 391.503 923.334 389.331 952.578C387.2 980.86 360.63 1007.85 358.792 1036.59C356.954 1065.33 379.68 1095.49 378.302 1123.86C376.672 1153.1 350.604 1180.42 349.267 1208.41C347.847 1238.03 371.2 1267.9 370.155 1295.35C368.902 1325.8 343.168 1353.84 342.207 1380.28C341.079 1412.57 364.808 1442.4 364.056 1466.97C362.469 1520.36 338.03 1509.28 337.152 1552.23L343.669 1552.15Z" fill="#92E3A9"/>
<path d="M455.128 612.771V1540.16" stroke="#263238" stroke-width="3.33771" stroke-miterlimit="10"/>
<path d="M495.692 710.025L453.415 746.538L418.824 700.417" stroke="#263238" stroke-width="3.33771" stroke-miterlimit="10"/>
<path d="M495.692 871.407L453.415 907.919L418.824 861.84" stroke="#263238" stroke-width="3.33771" stroke-miterlimit="10"/>
<path d="M495.692 1023.22L453.415 1059.73L418.824 1013.61" stroke="#263238" stroke-width="3.33771" stroke-miterlimit="10"/>
<path d="M495.692 1203.86L453.415 1240.37L418.824 1194.25" stroke="#263238" stroke-width="3.33771" stroke-miterlimit="10"/>
<path d="M495.692 1386.42L453.415 1422.93L418.824 1376.81" stroke="#263238" stroke-width="3.33771" stroke-miterlimit="10"/>
<path d="M1148.99 781.317C1271.59 781.317 1370.98 719.023 1370.98 642.179C1370.98 565.334 1271.59 503.04 1148.99 503.04C1026.39 503.04 926.998 565.334 926.998 642.179C926.998 719.023 1026.39 781.317 1148.99 781.317Z" fill="#263238" stroke="#263238" stroke-width="3.33771" stroke-miterlimit="10" stroke-linecap="round"/>
<path d="M377.439 1466.36C377.439 1466.36 360.692 1478.55 364.446 1483.96C368.2 1489.37 390.797 1502.78 397.793 1510.77C404.789 1518.77 419.731 1526.88 434.357 1529.57C448.983 1532.25 466.606 1534.44 465.534 1524.2C464.461 1513.96 446.716 1510.77 441.889 1504.85C437.063 1498.92 429.896 1483.35 429.896 1483.35L385.434 1457L377.439 1466.36Z" fill="white" stroke="#263238" stroke-width="3.33771" stroke-miterlimit="10" stroke-linecap="round"/>
<path d="M563.428 1170.07C563.428 1170.07 554.433 1315.66 550.509 1335.34C546.584 1355.01 429.993 1483.42 429.993 1483.42C429.993 1483.42 406.397 1484.71 398.524 1480.79C391.166 1476.53 384.15 1471.7 377.536 1466.36C377.536 1466.36 394.599 1442.76 399.84 1438.84C405.081 1434.91 418.195 1428.36 422.12 1425.72C426.045 1423.09 452.273 1370.66 452.273 1370.66L466.143 1178.84L563.428 1170.07Z" fill="#263238" stroke="#263238" stroke-width="3.33771" stroke-miterlimit="10" stroke-linecap="round"/>
<path d="M519.917 1486.35L531.739 1506.24C533.348 1508.92 564.525 1523.96 564.525 1527.2C564.525 1530.44 560.235 1535.27 557.553 1536.34C554.872 1537.41 516.114 1537.95 504.316 1536.34C492.518 1534.73 483.889 1530.42 475.284 1528.27C466.68 1526.13 460.659 1528.81 460.22 1519.13C459.781 1509.45 464.315 1490.61 464.315 1490.61C464.315 1490.61 468.825 1491.17 483.816 1486.35C498.807 1481.52 519.917 1486.35 519.917 1486.35Z" fill="white" stroke="#263238" stroke-width="3.33771" stroke-miterlimit="10" stroke-linecap="round"/>
<path d="M434.382 1180.5C434.382 1180.5 447.252 1337.21 453.883 1349.04C460.513 1360.86 468.313 1470.92 468.313 1470.92C468.313 1470.92 455.833 1483.1 462.39 1489.61C468.947 1496.12 462.902 1497.97 462.902 1497.97C462.902 1497.97 482.744 1493.22 489.301 1490.66C495.858 1488.1 521.965 1488.71 521.965 1488.71C521.965 1488.71 529.936 1473.62 531.252 1463.14C532.569 1452.66 524.695 1418.56 524.695 1414.63C524.695 1410.71 529.936 1229.72 529.936 1229.72L562.015 1190.71L434.382 1180.5Z" fill="#263238" stroke="#263238" stroke-width="3.33771" stroke-miterlimit="10" stroke-linecap="round"/>
<path d="M507.509 895.081L505.949 909.072C491.392 912.065 476.538 913.366 461.682 912.948C437.574 912.168 434.405 922.699 434.405 922.699C434.405 922.699 364.471 1022.23 367.591 1029.95C370.711 1037.68 396.354 1045.12 396.354 1045.12L439.134 1007.8L434.454 1180.45C434.454 1180.45 447.69 1196.78 486.57 1198.34C525.45 1199.9 557.261 1193.69 562.014 1190.57C566.767 1187.45 574.47 1039.68 574.47 1039.68L601.918 1039.39C601.918 1039.39 597.042 972.791 593.898 954.899C590.753 937.007 579.906 928.476 562.014 922.236C544.122 915.995 537.906 909.024 537.906 909.024L523.134 889.523C517.42 889.39 511.856 891.369 507.509 895.081V895.081Z" fill="white" stroke="#263238" stroke-width="3.33771" stroke-miterlimit="10" stroke-linecap="round"/>
<path d="M486.497 1198.39C525.499 1199.95 557.187 1193.74 561.941 1190.62C566.694 1187.5 574.397 1039.73 574.397 1039.73L609.401 1041.58C609.401 1041.58 596.945 972.841 593.825 954.949C590.705 937.057 579.833 928.526 561.941 922.285C544.049 916.045 537.833 909.074 537.833 909.074L523.061 889.573C517.384 889.431 511.851 891.373 507.509 895.033L505.949 909.025C491.394 912.034 476.54 913.351 461.682 912.949C437.574 912.169 434.405 922.7 434.405 922.7C434.405 922.7 399.231 957.509 383.679 986.955L423.826 1021.23L439.159 1007.85L434.478 1180.5C434.478 1180.5 447.617 1196.88 486.497 1198.39Z" fill="#A3A3A3" stroke="#263238" stroke-width="3.33771" stroke-miterlimit="10" stroke-linecap="round"/>
<path d="M582.075 1142.28C602.137 1122.24 605.208 1090.87 605.208 1090.87L601.796 1041.44L574.397 1039.73L572.642 1084.19C568.954 1092.89 567.239 1102.3 567.62 1111.74C568.106 1118.26 567.696 1124.82 566.402 1131.24H566.207C566.207 1131.24 558.674 1146.11 557.967 1148.69C557.261 1151.27 571.155 1157.17 575.031 1158.12C578.906 1159.07 584.245 1159.07 584.464 1155.69C584.684 1152.3 588.34 1151.59 585.171 1148.37C584.272 1147.62 583.534 1146.69 583.002 1145.64C582.47 1144.6 582.155 1143.45 582.075 1142.28V1142.28Z" fill="white" stroke="#263238" stroke-width="3.33771" stroke-miterlimit="10" stroke-linecap="round"/>
<path d="M575.909 1082.02C575.909 1082.02 590.193 1075.83 599.846 1083.95" stroke="#263238" stroke-width="3.33771" stroke-miterlimit="10" stroke-linecap="round"/>
<path d="M582.076 1142.28C580.913 1141.21 579.491 1140.47 577.951 1140.12C576.412 1139.78 574.809 1139.84 573.301 1140.3" stroke="#263238" stroke-width="3.33771" stroke-miterlimit="10" stroke-linecap="round"/>
<path d="M566.061 1126.51C572.496 1122.85 583.539 1124.68 588.194 1129.26C591.386 1132.76 593.155 1137.32 593.155 1142.06C593.155 1146.79 591.386 1151.36 588.194 1154.86C583.319 1160.02 576.299 1161.88 569.888 1157.9C563.477 1153.93 559.236 1153.03 558.919 1146.62C558.668 1141.09 559.755 1135.58 562.088 1130.55C562.96 1128.83 564.349 1127.41 566.061 1126.51V1126.51Z" fill="#92E3A9" stroke="#263238" stroke-width="3.33771" stroke-miterlimit="10" stroke-linecap="round"/>
<path d="M465.168 979.251L439.062 1007.84L465.168 995.315" stroke="#263238" stroke-width="3.33771" stroke-miterlimit="10" stroke-linecap="round"/>
<path d="M573.471 1031.56L574.397 984.37" stroke="#263238" stroke-width="3.33771" stroke-miterlimit="10" stroke-linecap="round"/>
<path d="M573.544 991.514C573.544 997.096 567.45 1001.61 559.918 1001.61C552.386 1001.61 546.316 997.096 546.316 991.514C546.316 985.931 552.41 981.422 559.918 981.422C567.426 981.422 573.544 985.956 573.544 991.514Z" fill="#92E3A9" stroke="#263238" stroke-width="3.33771" stroke-miterlimit="10" stroke-linecap="round"/>
<path d="M566.914 991.512C566.914 994.364 563.77 996.68 559.918 996.68C556.067 996.68 552.947 994.243 552.947 991.512C552.947 988.782 556.067 986.345 559.918 986.345C563.77 986.345 566.914 988.66 566.914 991.512Z" fill="white" stroke="#263238" stroke-width="3.33771" stroke-miterlimit="10" stroke-linecap="round"/>
<path d="M676.094 1249.92L821.912 1263.35L819.426 1497.68L671.536 1257.89L676.094 1249.92Z" fill="white" stroke="#263238" stroke-width="3.33771" stroke-miterlimit="10" stroke-linecap="round"/>
<path d="M742.25 1339.24L747.588 1346.21" stroke="#263238" stroke-width="3.33771" stroke-miterlimit="10" stroke-linecap="round"/>
<path d="M686.089 1266.16L735.889 1330.97" stroke="#263238" stroke-width="3.33771" stroke-miterlimit="10" stroke-linecap="round"/>
<path d="M698.715 1262.79L730.745 1268.69" stroke="#263238" stroke-width="3.33771" stroke-miterlimit="10" stroke-linecap="round"/>
<path d="M761.239 1309.72L769.503 1315.03" stroke="#263238" stroke-width="3.33771" stroke-miterlimit="10" stroke-linecap="round"/>
<path d="M710.513 1277.13L756.925 1306.96" stroke="#263238" stroke-width="3.33771" stroke-miterlimit="10" stroke-linecap="round"/>
<path d="M663.151 1241.37L676.46 1254.36" stroke="#263238" stroke-width="3.33771" stroke-miterlimit="10" stroke-linecap="round"/>
<path d="M519.576 1101.01L663.151 1241.37" stroke="#263238" stroke-width="3.33771" stroke-miterlimit="10" stroke-linecap="round"/>
<path d="M448.178 1093.99C448.178 1093.99 413.052 1092.82 409.542 1134.97C406.032 1177.11 451.518 1466.48 363.374 1533.42C283.542 1593.99 205.246 1584.09 154.861 1560.74C113.787 1541.68 240.835 1529.22 299.143 1544.43C341.362 1555.45 256.412 1580.75 172.119 1581C75.2489 1581.22 24.5711 1546.87 0 1544.43" stroke="#263238" stroke-width="3.33771" stroke-miterlimit="10" stroke-linecap="round"/>
<path d="M470.165 1099.62L492.665 1092.82L512.482 1109.66C513.46 1110.5 514.717 1110.93 516.001 1110.88C517.285 1110.82 518.501 1110.28 519.405 1109.37L530.082 1098.69C530.571 1098.22 530.96 1097.65 531.226 1097.02C531.492 1096.39 531.629 1095.72 531.629 1095.04C531.629 1094.36 531.492 1093.68 531.226 1093.05C530.96 1092.42 530.571 1091.86 530.082 1091.38C523.086 1084.36 506.851 1069.44 492.64 1065.79C473.895 1061.11 456.344 1073.98 456.344 1073.98L470.165 1099.62Z" fill="#263238" stroke="#263238" stroke-width="3.33771" stroke-miterlimit="10" stroke-linecap="round"/>
<path d="M391.626 1016.5L453.834 1064.71C453.834 1064.71 465.51 1067.83 469.386 1071.71C473.262 1075.59 488.887 1088.04 484.158 1092.72C479.429 1097.4 484.938 1095.82 479.502 1097.38C474.066 1098.94 470.166 1099.82 470.166 1099.82C470.166 1099.82 456.954 1105.25 449.178 1104.47C441.402 1103.69 428.946 1085.82 428.946 1081.92C428.946 1078.02 365.178 1042.26 362.838 1037.58C360.498 1032.9 382.339 1002.6 382.339 1002.6" fill="white"/>
<path d="M391.626 1016.5L453.834 1064.71C453.834 1064.71 465.51 1067.83 469.386 1071.71C473.262 1075.59 488.887 1088.04 484.158 1092.72C479.429 1097.4 484.938 1095.82 479.502 1097.38C474.066 1098.94 470.166 1099.82 470.166 1099.82C470.166 1099.82 456.954 1105.25 449.178 1104.47C441.402 1103.69 428.946 1085.82 428.946 1081.92C428.946 1078.02 365.178 1042.26 362.838 1037.58C360.498 1032.9 382.339 1002.6 382.339 1002.6" stroke="#263238" stroke-width="3.33771" stroke-miterlimit="10" stroke-linecap="round"/>
<path d="M432.431 1040.14L405.422 1070.61L428.945 1081.73C428.945 1081.73 433.82 1094.16 439.378 1100.4C444.935 1106.64 444.911 1108.71 450.444 1108.71C455.978 1108.71 474.821 1102.47 474.821 1102.47C474.821 1102.47 476.234 1103.81 484.571 1098.33C492.908 1092.84 488.739 1089.31 485.278 1083.7C481.816 1078.1 464.485 1065.69 459.659 1062.23C454.832 1058.77 452.711 1056.69 450.639 1055.3C448.568 1053.92 432.431 1040.14 432.431 1040.14Z" fill="#92E3A9" stroke="#263238" stroke-width="3.33771" stroke-miterlimit="10" stroke-linecap="round"/>
<path d="M561.941 922.285C544.049 916.07 537.833 909.074 537.833 909.074L523.061 889.573C517.384 889.431 511.851 891.373 507.509 895.033L505.949 909.025C505.949 909.025 504.291 909.39 501.464 909.902C505.096 917.678 518.844 948.904 539.393 949.465C554.019 949.928 563.184 935.814 568.157 924.625C566.182 923.87 564.062 923.041 561.941 922.285Z" fill="white" stroke="#263238" stroke-width="3.33771" stroke-miterlimit="10" stroke-linecap="round"/>
<path d="M579.832 890.4L572.837 911.412L564.28 908.975C564.28 908.975 561.843 927.647 557.285 929.962C552.726 932.278 547.949 933.082 538.612 926.087C529.276 919.091 519.94 910.535 519.94 902.759C519.94 894.983 524.621 866.195 529.276 859.979C533.932 853.763 579.832 890.4 579.832 890.4Z" fill="white" stroke="#263238" stroke-width="3.33771" stroke-miterlimit="10" stroke-linecap="round"/>
<path d="M563.867 893.154C563.477 895.446 562.136 897.152 560.845 896.932C559.553 896.713 558.821 894.666 559.211 892.374C559.601 890.083 560.942 888.352 562.234 888.572C563.526 888.791 564.257 890.838 563.867 893.154Z" fill="#263238"/>
<path d="M547.169 868.631C547.169 868.631 544.049 877.967 535.493 878.747C526.937 879.527 521.501 867.851 521.501 867.851L519.941 902.855L507.509 895.079C507.509 895.079 509.825 865.511 512.945 856.955C516.065 848.399 528.497 844.523 528.497 844.523C528.497 844.523 541.733 859.295 547.169 868.631Z" fill="#263238" stroke="#263238" stroke-width="3.33771" stroke-miterlimit="10" stroke-linecap="round"/>
<path d="M523.061 889.741C509.825 887.303 512.945 870.24 521.501 867.973C530.057 865.706 526.937 879.625 526.937 879.625" fill="white"/>
<path d="M523.061 889.741C509.825 887.303 512.945 870.24 521.501 867.973C530.057 865.706 526.937 879.625 526.937 879.625" stroke="#263238" stroke-width="3.33771" stroke-miterlimit="10" stroke-linecap="round"/>
<path d="M512.872 856.957L552.532 877.969C559.177 880.839 566.308 882.419 573.544 882.625C579.326 882.746 585.09 881.922 590.607 880.187L596.019 856.786C596.503 854.67 596.536 852.477 596.116 850.347C595.696 848.218 594.832 846.201 593.581 844.427C588.056 836.365 581.294 829.224 573.544 823.269C558.772 812.397 536.322 820.027 523.89 827.023C511.458 834.019 512.872 856.957 512.872 856.957Z" fill="#92E3A9" stroke="#263238" stroke-width="3.33771" stroke-miterlimit="10" stroke-linecap="round"/>
<path d="M590.486 860.053C589.486 865.538 582.685 868.877 575.299 867.536C567.914 866.196 562.721 860.638 563.721 855.153C564.72 849.669 571.521 846.329 578.907 847.67C586.293 849.011 591.485 854.568 590.486 860.053Z" fill="#92E3A9" stroke="#263238" stroke-width="3.33771" stroke-miterlimit="10" stroke-linecap="round"/>
<path d="M583.952 858.858C583.441 861.661 579.955 863.392 576.176 862.685C572.398 861.978 569.717 859.175 570.229 856.347C570.741 853.519 574.226 851.813 578.029 852.52C581.832 853.227 584.489 856.055 583.952 858.858Z" fill="white" stroke="#263238" stroke-width="3.33771" stroke-miterlimit="10" stroke-linecap="round"/>
<path d="M546.39 875.629C555.594 873.696 564.998 872.878 574.398 873.191C588.39 873.971 600.797 886.403 600.797 886.403C600.797 886.403 612.985 898.737 612.156 901.029C611.327 903.32 593.825 899.615 582.174 898.835C570.522 898.055 546.39 875.629 546.39 875.629Z" fill="#92E3A9" stroke="#263238" stroke-width="3.33771" stroke-miterlimit="10" stroke-linecap="round"/>
<path d="M549.12 905.562C549.868 908.004 551.285 910.187 553.211 911.863C555.137 913.539 557.495 914.641 560.016 915.045" stroke="#263238" stroke-width="3.33771" stroke-miterlimit="10" stroke-linecap="round"/>
<path d="M545.609 931.157L543.903 944.735L557.285 930.061L545.609 931.157Z" fill="#263238"/>
<path d="M560.455 1144.62C560.455 1144.62 553.142 1155.81 557.359 1159.68C560.235 1162.31 569.547 1167 575.251 1169.58C576.574 1170.2 578.066 1170.37 579.494 1170.06C580.923 1169.74 582.207 1168.97 583.149 1167.85C585.108 1165.79 586.706 1163.42 587.878 1160.83C588.658 1157.73 581.296 1150.79 581.296 1150.79L578.225 1151.96C578.225 1151.96 566.622 1139.96 564.306 1140.35C561.99 1140.74 560.455 1144.62 560.455 1144.62Z" fill="#92E3A9" stroke="#263238" stroke-width="3.33771" stroke-miterlimit="10" stroke-linecap="round"/>
<path d="M581.905 1145.11C581.905 1145.11 576.737 1151.25 578.809 1152.88C580.881 1154.52 587.511 1161.29 588.754 1160.05C589.998 1158.81 594.361 1156.64 591.875 1153.52C589.388 1150.4 585.342 1144.81 581.905 1145.11Z" fill="#92E3A9" stroke="#263238" stroke-width="3.33771" stroke-miterlimit="10" stroke-linecap="round"/>
<path d="M1422.32 1304.14V1443.08H879.855V1304.14H777.866V1506.95C777.859 1510.69 778.592 1514.4 780.021 1517.86C781.451 1521.32 783.549 1524.47 786.196 1527.12C788.843 1529.77 791.987 1531.87 795.447 1533.3C798.907 1534.73 802.616 1535.47 806.361 1535.47H851.36C858.913 1535.47 866.157 1532.47 871.5 1527.13C876.844 1521.79 879.849 1514.55 879.855 1507V1497.63H929.265L952.398 1483.01H1347.68L1377.13 1499.83H1422.32V1507.14C1422.33 1514.69 1425.33 1521.94 1430.67 1527.28C1436.02 1532.61 1443.26 1535.61 1450.82 1535.61H1495.81C1499.55 1535.62 1503.26 1534.88 1506.72 1533.45C1510.17 1532.02 1513.32 1529.93 1515.96 1527.28C1518.61 1524.64 1520.71 1521.5 1522.14 1518.04C1523.57 1514.59 1524.31 1510.88 1524.31 1507.14V1304.14H1422.32Z" fill="#263238" stroke="#263238" stroke-width="3.33771" stroke-miterlimit="10" stroke-linecap="round"/>
<path d="M1503.27 1204.32C1499.08 1195.88 1465.44 1161.2 1465.44 1161.2C1465.44 1161.2 1401.45 1039.17 1390.8 1019.28C1370.57 981.544 1337.17 987.735 1337.17 987.735L1150.04 978.277L1148.99 978.57L1147.94 978.277L960.808 987.735C960.808 987.735 926.536 984.225 907.181 1019.28C896.261 1039.02 832.542 1161.2 832.542 1161.2C832.542 1161.2 798.903 1195.88 794.686 1204.32C790.468 1212.75 773.698 1244.24 773.698 1250.51C773.698 1256.14 777.866 1351.74 796.587 1423.12C798.704 1430.99 802.711 1438.22 808.258 1444.2C813.806 1450.17 820.728 1454.7 828.422 1457.39C832.14 1458.88 835.993 1460.02 839.928 1460.78H976.604L1011.29 1400.86C1024.58 1389.85 1041.34 1383.89 1058.61 1384.04H1239.43C1256.69 1383.89 1273.45 1389.85 1286.74 1400.86L1321.43 1460.78H1458.1C1462.03 1460.02 1465.88 1458.89 1469.59 1457.39C1477.29 1454.7 1484.21 1450.18 1489.77 1444.2C1495.32 1438.23 1499.33 1430.99 1501.45 1423.12C1520.17 1351.74 1524.33 1256.14 1524.33 1250.51C1524.31 1244.24 1507.42 1212.73 1503.27 1204.32Z" fill="#92E3A9" stroke="#263238" stroke-width="3.33771" stroke-miterlimit="10" stroke-linecap="round"/>
<path d="M976.579 1460.83L969.267 1477.65H1326.67L1321.4 1460.83L1286.72 1400.91C1286.72 1400.91 1273.04 1385.14 1239.4 1384.09C1205.76 1383.04 1058.58 1384.09 1058.58 1384.09C1041.27 1383.64 1024.41 1389.64 1011.27 1400.91L976.579 1460.83Z" fill="#787878" stroke="#263238" stroke-width="3.33771" stroke-miterlimit="10" stroke-linecap="round"/>
<path d="M1007.05 1261.09C1007.05 1261.09 1035.45 1311.55 1043.86 1319.96C1052.27 1328.37 1061.73 1328.37 1073.3 1329.41C1084.88 1330.46 1243.6 1329.41 1243.6 1329.41C1243.6 1329.41 1256.22 1327.32 1262.54 1317.86C1268.85 1308.4 1289.86 1261.09 1289.86 1261.09H1007.05Z" fill="#263238" stroke="#263238" stroke-width="3.33771" stroke-miterlimit="10" stroke-linecap="round"/>
<path d="M1035.23 1267.94C1035.23 1267.94 1057.95 1308.33 1064.7 1315.08C1071.45 1321.83 1079.01 1321.81 1088.27 1322.66C1097.53 1323.52 1224.65 1322.66 1224.65 1322.66C1224.65 1322.66 1234.77 1320.98 1239.82 1313.4C1244.86 1305.82 1261.75 1267.94 1261.75 1267.94H1035.23Z" fill="#787878" stroke="#263238" stroke-width="3.33771" stroke-miterlimit="10" stroke-linecap="round"/>
<path d="M1267.07 1443.08L1260.78 1425.7C1258.83 1420.35 1255.26 1415.73 1250.56 1412.51C1245.86 1409.28 1240.27 1407.61 1234.58 1407.71L1063.82 1409.44C1057.96 1409.56 1052.28 1411.57 1047.65 1415.16C1043.01 1418.76 1039.66 1423.75 1038.08 1429.41L1033.84 1443.08H1267.07Z" fill="#263238" stroke="#263238" stroke-width="3.33771" stroke-miterlimit="10" stroke-linecap="round"/>
<path d="M1031.21 1451.37L1025.99 1468.19H1276.19L1270.12 1451.37H1031.21Z" fill="#263238" stroke="#263238" stroke-width="3.33771" stroke-miterlimit="10" stroke-linecap="round"/>
<path d="M1465.44 1161.2C1465.44 1161.2 1470.68 1120.2 1480.07 1120.2C1489.45 1120.2 1531.57 1131.77 1532.62 1140.18C1533.67 1148.59 1524.21 1158.05 1515.8 1160.15C1507.39 1162.24 1489.52 1164.36 1489.52 1164.36L1485.48 1180.14L1465.44 1161.2Z" fill="#92E3A9" stroke="#263238" stroke-width="3.33771" stroke-miterlimit="10" stroke-linecap="round"/>
<path d="M832.541 1161.2C832.541 1161.2 827.276 1120.2 817.916 1120.2C808.555 1120.2 766.409 1131.77 765.361 1140.18C764.313 1148.59 773.77 1158.05 782.18 1160.15C790.59 1162.24 808.458 1164.36 808.458 1164.36L812.65 1180.14L832.541 1161.2Z" fill="#92E3A9" stroke="#263238" stroke-width="3.33771" stroke-miterlimit="10" stroke-linecap="round"/>
<path d="M860.915 1137.01C860.915 1137.01 1270.94 1121.24 1433.9 1137.01L1362.4 1006.75C1362.4 1006.75 1177.36 983.616 936.627 1007.8C936.627 1007.7 887.216 1085.51 860.915 1137.01Z" fill="white" stroke="#263238" stroke-width="3.33771" stroke-miterlimit="10" stroke-linecap="round"/>
<path d="M954.495 1255.82C954.495 1255.82 973.411 1275.79 979.724 1312.59C979.724 1312.59 890.361 1308.38 855.674 1294.73C820.987 1281.08 816.672 1280.1 815.722 1273.69C814.771 1267.28 817.818 1222.18 831.493 1214.82C845.168 1207.46 859.867 1209.56 873.542 1220.06C887.217 1230.57 904.036 1246.36 913.494 1249.51C922.952 1252.65 954.495 1255.82 954.495 1255.82Z" fill="white" stroke="#263238" stroke-width="3.33771" stroke-miterlimit="10" stroke-linecap="round"/>
<path d="M886.041 1276.3C895.666 1266.68 895.666 1251.07 886.041 1241.45C876.417 1231.82 860.813 1231.82 851.189 1241.45C841.565 1251.07 841.565 1266.68 851.189 1276.3C860.813 1285.93 876.417 1285.93 886.041 1276.3Z" fill="white" stroke="#263238" stroke-width="3.33771" stroke-miterlimit="10" stroke-linecap="round"/>
<path d="M937.261 1289.68C937.261 1291.95 936.588 1294.17 935.328 1296.05C934.068 1297.93 932.277 1299.4 930.183 1300.27C928.088 1301.14 925.783 1301.36 923.56 1300.92C921.337 1300.47 919.295 1299.38 917.694 1297.77C916.093 1296.17 915.004 1294.13 914.564 1291.9C914.125 1289.68 914.355 1287.37 915.226 1285.28C916.097 1283.19 917.569 1281.4 919.457 1280.14C921.344 1278.89 923.561 1278.22 925.828 1278.23C927.332 1278.23 928.82 1278.52 930.209 1279.1C931.598 1279.67 932.859 1280.52 933.921 1281.58C934.983 1282.65 935.824 1283.91 936.397 1285.3C936.971 1286.69 937.264 1288.18 937.261 1289.68V1289.68Z" fill="white" stroke="#263238" stroke-width="3.33771" stroke-miterlimit="10" stroke-linecap="round"/>
<path d="M1346.53 1255.82C1346.53 1255.82 1327.59 1275.79 1321.28 1312.59C1321.28 1312.59 1410.64 1308.38 1445.36 1294.73C1480.07 1281.08 1484.36 1280.1 1485.31 1273.69C1486.26 1267.28 1483.19 1222.18 1469.54 1214.82C1455.89 1207.46 1441.14 1209.56 1427.46 1220.06C1413.79 1230.57 1396.99 1246.36 1387.54 1249.51C1378.08 1252.65 1346.53 1255.82 1346.53 1255.82Z" fill="white" stroke="#263238" stroke-width="3.33771" stroke-miterlimit="10" stroke-linecap="round"/>
<path d="M1443.66 1282.89C1456.9 1279.75 1465.09 1266.47 1461.95 1253.23C1458.81 1239.98 1445.53 1231.79 1432.29 1234.93C1419.04 1238.07 1410.85 1251.36 1413.99 1264.6C1417.13 1277.84 1430.41 1286.03 1443.66 1282.89Z" fill="white" stroke="#263238" stroke-width="3.33771" stroke-miterlimit="10" stroke-linecap="round"/>
<path d="M1369.35 1289.68C1369.35 1291.95 1370.02 1294.17 1371.28 1296.05C1372.54 1297.93 1374.33 1299.4 1376.43 1300.27C1378.52 1301.14 1380.83 1301.36 1383.05 1300.92C1385.27 1300.47 1387.32 1299.38 1388.92 1297.77C1390.52 1296.17 1391.61 1294.13 1392.05 1291.9C1392.49 1289.68 1392.26 1287.37 1391.39 1285.28C1390.51 1283.19 1389.04 1281.4 1387.15 1280.14C1385.27 1278.89 1383.05 1278.22 1380.78 1278.23C1379.28 1278.23 1377.79 1278.52 1376.4 1279.1C1375.01 1279.67 1373.75 1280.52 1372.69 1281.58C1371.63 1282.65 1370.79 1283.91 1370.21 1285.3C1369.64 1286.69 1369.35 1288.18 1369.35 1289.68Z" fill="white" stroke="#263238" stroke-width="3.33771" stroke-miterlimit="10" stroke-linecap="round"/>
<path d="M1459.13 1349.38C1459.13 1349.38 1361.36 1368.32 1357.14 1371.46C1352.92 1374.61 1344.54 1392.5 1344.54 1392.5L1364.5 1387.23C1364.5 1387.23 1410.81 1389.33 1426.54 1381.97C1442.26 1374.61 1459.13 1349.38 1459.13 1349.38Z" fill="#263238" stroke="#263238" stroke-width="3.33771" stroke-miterlimit="10" stroke-linecap="round"/>
<path d="M846.216 1349.38C846.216 1349.38 943.988 1368.32 948.181 1371.46C952.374 1374.61 960.808 1392.5 960.808 1392.5L940.819 1387.23C940.819 1387.23 894.505 1389.33 878.807 1381.97C863.108 1374.61 846.216 1349.38 846.216 1349.38Z" fill="#263238" stroke="#263238" stroke-width="3.33771" stroke-miterlimit="10" stroke-linecap="round"/>
<path d="M1336.59 1272.01L1310.48 1263.31H1289.86" stroke="#263238" stroke-width="3.33771" stroke-miterlimit="10" stroke-linecap="round"/>
<path d="M966.073 1270.77L983.478 1260.82L1007.05 1261.06" stroke="#263238" stroke-width="3.33771" stroke-miterlimit="10" stroke-linecap="round"/>
<path d="M1410.6 1154.42C1413.25 1152.91 1415.93 1151.47 1418.64 1150.15" stroke="#263238" stroke-width="3.33771" stroke-miterlimit="10" stroke-linecap="round"/>
<path d="M1294.86 1303.67C1311.31 1267.5 1348.92 1195.59 1401.48 1160.1" stroke="#263238" stroke-width="3.33771" stroke-miterlimit="10" stroke-linecap="round"/>
<path d="M1285.59 1325.47C1285.59 1325.47 1286.89 1322.03 1289.4 1316.06" stroke="#263238" stroke-width="3.33771" stroke-miterlimit="10" stroke-linecap="round"/>
<path d="M896.334 1160.1C891.962 1157.43 887.445 1154.95 882.781 1152.64" stroke="#263238" stroke-width="3.33771" stroke-miterlimit="10" stroke-linecap="round"/>
<path d="M1001.64 1304.45C990.864 1272.28 962.807 1205.71 905.596 1166.09" stroke="#263238" stroke-width="3.33771" stroke-miterlimit="10" stroke-linecap="round"/>
<path d="M1007.1 1322.98C1007.1 1322.98 1006.34 1319.64 1004.66 1313.84" stroke="#263238" stroke-width="3.33771" stroke-miterlimit="10" stroke-linecap="round"/>
<path d="M852.944 1211.07C852.944 1211.07 841.755 1183.72 841.755 1167.56Z" fill="white"/>
<path d="M852.944 1211.07C852.944 1211.07 841.755 1183.72 841.755 1167.56" stroke="#263238" stroke-width="3.33771" stroke-miterlimit="10" stroke-linecap="round"/>
<path d="M1450.96 1209.83C1453.98 1198.39 1456.06 1186.72 1457.18 1174.94Z" fill="white"/>
<path d="M1450.96 1209.83C1453.98 1198.39 1456.06 1186.72 1457.18 1174.94" stroke="#263238" stroke-width="3.33771" stroke-miterlimit="10" stroke-linecap="round"/>
<path d="M1489.53 1326.71L1482.07 1423.58L1344.1 1429.89C1344.1 1429.89 1320.48 1401.3 1319.23 1388.87C1317.99 1376.44 1335.4 1357.79 1340.37 1356.54C1345.34 1355.3 1432.36 1337.9 1432.36 1337.9" stroke="#263238" stroke-width="3.33771" stroke-miterlimit="10" stroke-linecap="round"/>
<path d="M814.332 1326.71L821.791 1423.58L959.808 1429.79C959.808 1429.79 983.429 1401.2 984.672 1388.77C985.915 1376.34 968.511 1357.69 963.538 1356.45C958.565 1355.2 871.518 1337.8 871.518 1337.8" stroke="#263238" stroke-width="3.33771" stroke-miterlimit="10" stroke-linecap="round"/>
<path d="M1045.05 1284.64L1146.5 1292.75C1150.81 1293.09 1155.14 1293.09 1159.45 1292.75L1252.96 1285.44" stroke="#263238" stroke-width="3.33771" stroke-miterlimit="10" stroke-linecap="round"/>
<path d="M1051.73 1295.12L1146.51 1302.7C1150.81 1303.05 1155.14 1303.05 1159.45 1302.7L1249.64 1295.7" stroke="#263238" stroke-width="3.33771" stroke-miterlimit="10" stroke-linecap="round"/>
<path d="M1058.53 1305.75L1146.51 1312.79C1150.81 1313.12 1155.14 1313.12 1159.45 1312.79L1245.13 1306.14" stroke="#263238" stroke-width="3.33771" stroke-miterlimit="10" stroke-linecap="round"/>
<path d="M1116.67 1072.91C1069.65 1100.55 941.161 1125.17 874.736 1136.53C947.523 1133.94 1288.74 1122.97 1433.9 1137.02L1369.89 1020.28C1276.82 1014.06 1164.91 1044.53 1116.67 1072.91Z" fill="#787878"/>
<path d="M860.915 1137.01C860.915 1137.01 1270.94 1121.24 1433.9 1137.01L1362.4 1006.75C1362.4 1006.75 1177.36 983.616 936.627 1007.8C936.627 1007.7 887.216 1085.51 860.915 1137.01Z" stroke="#263238" stroke-width="3.33771" stroke-miterlimit="10" stroke-linecap="round"/>
<path d="M988.841 1153.2C988.841 1153.2 991.278 1160.39 1010.44 1178.4C1029.6 1196.42 1045.25 1171.21 1065.67 1160.39C1086.1 1149.57 1062.07 1139.99 1135.29 1192.81C1208.52 1245.63 1240.91 1256.43 1269.73 1225.21C1298.54 1193.98 1339.34 1147.2 1358.55 1158C1377.76 1168.8 1389.78 1189.2 1406.57 1189.2C1423.37 1189.2 1444.99 1155.59 1444.99 1155.59" stroke="white" stroke-width="3.33771" stroke-miterlimit="10" stroke-linecap="round"/>
<path d="M988.841 1159.2C988.841 1159.2 991.278 1166.51 1010.44 1184.4C1029.6 1202.29 1045.25 1177.21 1065.67 1166.41C1086.1 1155.61 1062.07 1145.99 1135.29 1198.81C1208.52 1251.63 1240.91 1262.43 1269.73 1231.23C1298.54 1200.03 1339.34 1153.23 1358.55 1164C1377.76 1174.77 1389.78 1195.2 1406.57 1195.2C1423.37 1195.2 1444.99 1161.61 1444.99 1161.61" stroke="#263238" stroke-width="3.33771" stroke-miterlimit="10" stroke-linecap="round"/>
<path d="M829.128 1186.18C829.128 1186.18 791.126 1222.38 792.028 1251.34C792.929 1280.3 819.182 1284.83 823.716 1305.65C828.25 1326.46 873.492 1340.04 917.832 1328.27C962.172 1316.5 981.21 1328.27 994.763 1352.64C1008.32 1377.02 1030.94 1378.95 1049.15 1369.95" stroke="#263238" stroke-width="3.33771" stroke-miterlimit="10" stroke-linecap="round"/>
<path d="M833.663 1181.65C833.663 1181.65 795.636 1217.87 796.563 1246.83C797.489 1275.79 823.693 1280.3 828.251 1301.11C832.81 1321.93 878.003 1335.51 922.392 1323.64C966.781 1311.77 985.769 1323.64 999.323 1348.01C1012.88 1372.39 1035.52 1374.24 1053.61 1365.2" stroke="white" stroke-width="3.33771" stroke-miterlimit="10" stroke-linecap="round"/>
<path d="M1496.11 1230.52C1496.11 1230.52 1487.97 1293.9 1463.54 1305.65C1439.12 1317.4 1338.64 1326.47 1315.11 1342.75C1291.59 1359.03 1290.74 1394.33 1290.74 1394.33" stroke="white" stroke-width="3.33771" stroke-miterlimit="10" stroke-linecap="round"/>
<path d="M1496.11 1235.88C1496.11 1235.88 1487.92 1299.26 1463.54 1311.08C1439.16 1322.91 1338.64 1331.88 1315.11 1348.18C1291.59 1364.49 1290.74 1399.76 1290.74 1399.76" stroke="#263238" stroke-width="3.33771" stroke-miterlimit="10" stroke-linecap="round"/>
<path d="M1170.34 1000.51C1170.34 1000.51 1184.73 998.071 1193.19 1020.79C1201.64 1043.51 1216.85 1098.6 1242.23 1099.43C1267.61 1100.26 1271.82 1050.38 1286.11 1030.1C1300.39 1009.82 1327.55 1014.04 1343.59 1027.66" stroke="white" stroke-width="3.33771" stroke-miterlimit="10" stroke-linecap="round"/>
<path d="M1169.49 1005.58C1169.49 1005.58 1183.87 1003.14 1192.33 1025.86C1200.79 1048.58 1216 1103.67 1241.38 1104.5C1266.75 1105.33 1270.97 1055.5 1285.35 1035.17C1299.73 1014.84 1326.79 1019.11 1342.85 1032.73" stroke="#263238" stroke-width="3.33771" stroke-miterlimit="10" stroke-linecap="round"/>
<path d="M858.306 1179.55C858.306 1179.55 869.373 1187.3 883.779 1205.02C898.185 1222.75 903.694 1213.87 910.349 1200.59C917.004 1187.3 932.483 1216.09 945.767 1236.03C959.052 1255.97 962.392 1259.28 964.61 1248.22" stroke="white" stroke-width="3.33771" stroke-miterlimit="10" stroke-linecap="round"/>
<path d="M857.868 1183.91C857.868 1183.91 868.934 1191.67 883.341 1209.36C897.747 1227.06 903.256 1218.24 909.911 1204.95C916.565 1191.67 932.044 1220.45 945.353 1240.37C958.663 1260.28 961.953 1263.62 964.172 1252.56" stroke="#263238" stroke-width="3.33771" stroke-miterlimit="10" stroke-linecap="round"/>
</g>
<defs>
<clipPath id="clip0_795_109">
<rect width="2000" height="2000" fill="white"/>
</clipPath>
</defs>
</svg>
