<svg width="2000" height="2000" viewBox="0 0 2000 2000" fill="none" xmlns="http://www.w3.org/2000/svg">
<path d="M1833.66 995.471L1879.72 1118.88H1848.34L1816.95 1022.65L1833.66 995.471Z" fill="white" stroke="#2E353A" stroke-width="3.37245" stroke-linecap="round" stroke-linejoin="round"/>
<path d="M1858.76 1300.19H1443.9V1088.2L1829.08 1029.36L1858.76 1111.19V1300.19Z" fill="#2E353A"/>
<path d="M1501.05 658.659H959.937V1300.19H1501.05V658.659Z" fill="#2E353A"/>
<path d="M926.619 710.523L903.59 680.698L1233.51 426L1557.39 676.073L1534.41 705.898L1233.51 473.57L926.619 710.523Z" fill="#2E353A"/>
<path d="M1402.04 658.659H860.927V1300.19H1402.04V658.659Z" fill="white" stroke="#2E353A" stroke-width="3.37245" stroke-linecap="round" stroke-linejoin="round"/>
<path d="M1131.48 449.785L860.927 658.659H1402.04L1131.48 449.785Z" fill="white" stroke="#2E353A" stroke-width="3.37245" stroke-linejoin="round"/>
<g style="mix-blend-mode:multiply">
<path d="M1131.48 449.785L860.927 658.659V706.229L922.561 658.659L1131.48 497.355L1340.45 658.659L1402.04 706.229V658.659L1131.48 449.785Z" fill="#92E3A9"/>
</g>
<path d="M1816.95 1088.2H1402.04V1300.19H1816.95V1088.2Z" fill="white" stroke="#2E353A" stroke-width="3.37245" stroke-linecap="round" stroke-linejoin="round"/>
<path d="M1775.14 1088.2H1443.9V1300.19H1775.14V1088.2Z" fill="#92E3A9" stroke="#2E353A" stroke-width="3.37245" stroke-linecap="round" stroke-linejoin="round"/>
<g style="mix-blend-mode:multiply">
<path d="M1816.95 1088.2H1402.04V1133.65H1816.95V1088.2Z" fill="#92E3A9"/>
</g>
<path d="M1443.9 1150.26H1775.09" stroke="#2E353A" stroke-width="3.37245" stroke-linecap="round" stroke-linejoin="round"/>
<path d="M1443.9 1181.65H1775.09" stroke="#2E353A" stroke-width="3.37245" stroke-linecap="round" stroke-linejoin="round"/>
<path d="M1443.9 1213.03H1775.09" stroke="#2E353A" stroke-width="3.37245" stroke-linecap="round" stroke-linejoin="round"/>
<path d="M1443.9 1244.41H1775.09" stroke="#2E353A" stroke-width="3.37245" stroke-linecap="round" stroke-linejoin="round"/>
<path d="M1443.9 1275.79H1775.09" stroke="#2E353A" stroke-width="3.37245" stroke-linecap="round" stroke-linejoin="round"/>
<path d="M1014.35 1063.1H905.572V1300.19H1014.35V1063.1Z" fill="#2E353A"/>
<path d="M1180.28 1063.1H1071.5V1227.66H1180.28V1063.1Z" fill="white" stroke="#2E353A" stroke-width="3.37245" stroke-linecap="round" stroke-linejoin="round"/>
<path d="M1180.28 1138.42H1071.5V1152.39H1180.28V1138.42Z" fill="#2E353A"/>
<path d="M1132.9 1063.1H1118.93V1227.66H1132.9V1063.1Z" fill="#2E353A"/>
<path d="M1379.71 1063.1H1270.94V1227.66H1379.71V1063.1Z" fill="white" stroke="#2E353A" stroke-width="3.37245" stroke-linecap="round" stroke-linejoin="round"/>
<path d="M1379.71 1138.42H1270.94V1152.39H1379.71V1138.42Z" fill="#2E353A"/>
<path d="M1332.33 1063.1H1318.36V1227.66H1332.33V1063.1Z" fill="#2E353A"/>
<path d="M1239.55 1063.1H1218.69V1300.19H1239.55V1063.1Z" fill="white" stroke="#2E353A" stroke-width="3.37245" stroke-linecap="round" stroke-linejoin="round"/>
<path d="M1057.2 1063.1H1036.34V1300.19H1057.2V1063.1Z" fill="white" stroke="#2E353A" stroke-width="3.37245" stroke-linecap="round" stroke-linejoin="round"/>
<path d="M1379.71 1072.87H886.034V1103.54H1379.71V1072.87Z" fill="#2E353A"/>
<path d="M1379.71 1057.53H886.034V1088.21H1379.71V1057.53Z" fill="#92E3A9" stroke="#2E353A" stroke-width="3.37245" stroke-linecap="round" stroke-linejoin="round"/>
<path d="M824.59 710.523L801.56 680.698L1131.48 426L1455.36 676.073L1432.38 705.898L1131.48 473.57L824.59 710.523Z" fill="white" stroke="#2E353A" stroke-width="3.37245" stroke-linejoin="round"/>
<path d="M1816.95 1118.88H1360.79L1402.65 995.471H1833.66L1816.95 1118.88Z" fill="#2E353A"/>
<path d="M1455.36 676.073H1548.8L1233.51 426H1131.48L1455.36 676.073Z" fill="#2E353A"/>
<path d="M1432.38 705.898H1534.41L1557.39 676.072H1455.36L1432.38 705.898Z" fill="#2E353A"/>
<path d="M964.138 753.516H905.572V848.372H964.138V753.516Z" fill="white" stroke="#2E353A" stroke-width="3.37245" stroke-linecap="round" stroke-linejoin="round"/>
<path d="M964.138 800.944H905.572V848.373H964.138V800.944Z" fill="#2E353A"/>
<path d="M964.138 795.658H905.572V806.229H964.138V795.658Z" fill="white" stroke="#2E353A" stroke-width="3.37245" stroke-linecap="round" stroke-linejoin="round"/>
<path d="M964.138 890.185H905.572V985.041H964.138V890.185Z" fill="white" stroke="#2E353A" stroke-width="3.37245" stroke-linecap="round" stroke-linejoin="round"/>
<path d="M964.138 937.142H905.572V984.995H964.138V937.142Z" fill="#2E353A"/>
<path d="M1360.18 753.517H1301.61V848.373H1360.18V753.517Z" fill="white" stroke="#2E353A" stroke-width="3.37245" stroke-linecap="round" stroke-linejoin="round"/>
<path d="M1360.18 800.944H1301.61V848.373H1360.18V800.944Z" fill="#2E353A"/>
<path d="M1360.18 890.185H1301.61V985.041H1360.18V890.185Z" fill="white" stroke="#2E353A" stroke-width="3.37245" stroke-linecap="round" stroke-linejoin="round"/>
<path d="M1360.18 931.856H1301.61V984.995H1360.18V931.856Z" fill="#2E353A"/>
<path d="M1155.17 753.516H1096.61V848.372H1155.17V753.516Z" fill="white" stroke="#2E353A" stroke-width="3.37245" stroke-linecap="round" stroke-linejoin="round"/>
<path d="M1155.17 800.944H1096.61V848.373H1155.17V800.944Z" fill="#2E353A"/>
<path d="M1155.17 890.185H1096.61V985.041H1155.17V890.185Z" fill="white" stroke="#2E353A" stroke-width="3.37245" stroke-linecap="round" stroke-linejoin="round"/>
<path d="M1155.17 931.856H1096.61V984.995H1155.17V931.856Z" fill="#2E353A"/>
<path d="M1155.17 795.658H1096.61V806.229H1155.17V795.658Z" fill="white" stroke="#2E353A" stroke-width="3.37245" stroke-linecap="round" stroke-linejoin="round"/>
<path d="M1360.18 795.658H1301.61V806.229H1360.18V795.658Z" fill="white" stroke="#2E353A" stroke-width="3.37245" stroke-linecap="round" stroke-linejoin="round"/>
<path d="M964.138 926.57H905.572V937.141H964.138V926.57Z" fill="white" stroke="#2E353A" stroke-width="3.37245" stroke-linecap="round" stroke-linejoin="round"/>
<path d="M1155.17 926.57H1096.61V937.141H1155.17V926.57Z" fill="white" stroke="#2E353A" stroke-width="3.37245" stroke-linecap="round" stroke-linejoin="round"/>
<path d="M1360.18 926.57H1301.61V937.141H1360.18V926.57Z" fill="white" stroke="#2E353A" stroke-width="3.37245" stroke-linecap="round" stroke-linejoin="round"/>
<path d="M908.639 687.258V710.524" stroke="#2E353A" stroke-width="3.37245" stroke-linecap="round" stroke-linejoin="round"/>
<path d="M950.499 687.258V710.524" stroke="#2E353A" stroke-width="3.37245" stroke-linecap="round" stroke-linejoin="round"/>
<path d="M926.619 710.523V733.789" stroke="#2E353A" stroke-width="3.37245" stroke-linecap="round" stroke-linejoin="round"/>
<path d="M974.426 710.523V733.789" stroke="#2E353A" stroke-width="3.37245" stroke-linecap="round" stroke-linejoin="round"/>
<path d="M890.093 710.523H985.705" stroke="#2E353A" stroke-width="3.37245" stroke-linecap="round" stroke-linejoin="round"/>
<path d="M908.639 998.02V1021.29" stroke="#2E353A" stroke-width="3.37245" stroke-linecap="round" stroke-linejoin="round"/>
<path d="M950.499 998.02V1021.29" stroke="#2E353A" stroke-width="3.37245" stroke-linecap="round" stroke-linejoin="round"/>
<path d="M926.619 1021.29V1044.55" stroke="#2E353A" stroke-width="3.37245" stroke-linecap="round" stroke-linejoin="round"/>
<path d="M974.426 1021.29V1044.55" stroke="#2E353A" stroke-width="3.37245" stroke-linecap="round" stroke-linejoin="round"/>
<path d="M890.093 1021.29H985.705" stroke="#2E353A" stroke-width="3.37245" stroke-linecap="round" stroke-linejoin="round"/>
<path d="M993.444 777.631V800.944" stroke="#2E353A" stroke-width="3.37245" stroke-linecap="round" stroke-linejoin="round"/>
<path d="M1035.3 777.631V800.944" stroke="#2E353A" stroke-width="3.37245" stroke-linecap="round" stroke-linejoin="round"/>
<path d="M1011.42 800.944V824.21" stroke="#2E353A" stroke-width="3.37245" stroke-linecap="round" stroke-linejoin="round"/>
<path d="M1059.23 800.944V824.21" stroke="#2E353A" stroke-width="3.37245" stroke-linecap="round" stroke-linejoin="round"/>
<path d="M974.897 800.944H1070.51" stroke="#2E353A" stroke-width="3.37245" stroke-linecap="round" stroke-linejoin="round"/>
<path d="M993.444 824.21H1070.51" stroke="#2E353A" stroke-width="3.37245" stroke-linecap="round" stroke-linejoin="round"/>
<path d="M993.444 825.06V848.325" stroke="#2E353A" stroke-width="3.37245" stroke-linecap="round" stroke-linejoin="round"/>
<path d="M1035.3 825.06V848.325" stroke="#2E353A" stroke-width="3.37245" stroke-linecap="round" stroke-linejoin="round"/>
<path d="M1011.42 848.325V871.591" stroke="#2E353A" stroke-width="3.37245" stroke-linecap="round" stroke-linejoin="round"/>
<path d="M1059.23 848.325V871.591" stroke="#2E353A" stroke-width="3.37245" stroke-linecap="round" stroke-linejoin="round"/>
<path d="M974.897 848.325H1070.51" stroke="#2E353A" stroke-width="3.37245" stroke-linecap="round" stroke-linejoin="round"/>
<path d="M1201.94 932.895V956.16" stroke="#2E353A" stroke-width="3.37245" stroke-linecap="round" stroke-linejoin="round"/>
<path d="M1243.8 932.895V956.16" stroke="#2E353A" stroke-width="3.37245" stroke-linecap="round" stroke-linejoin="round"/>
<path d="M1219.92 956.16V979.426" stroke="#2E353A" stroke-width="3.37245" stroke-linecap="round" stroke-linejoin="round"/>
<path d="M1267.73 956.16V979.426" stroke="#2E353A" stroke-width="3.37245" stroke-linecap="round" stroke-linejoin="round"/>
<path d="M1183.39 956.16H1279.01" stroke="#2E353A" stroke-width="3.37245" stroke-linecap="round" stroke-linejoin="round"/>
<path d="M1201.94 979.427H1279.01" stroke="#2E353A" stroke-width="3.37245" stroke-linecap="round" stroke-linejoin="round"/>
<path d="M1201.94 980.322V1003.59" stroke="#2E353A" stroke-width="3.37245" stroke-linecap="round" stroke-linejoin="round"/>
<path d="M1243.8 980.322V1003.59" stroke="#2E353A" stroke-width="3.37245" stroke-linecap="round" stroke-linejoin="round"/>
<path d="M1219.92 1003.59V1026.85" stroke="#2E353A" stroke-width="3.37245" stroke-linecap="round" stroke-linejoin="round"/>
<path d="M1267.73 1003.59V1026.85" stroke="#2E353A" stroke-width="3.37245" stroke-linecap="round" stroke-linejoin="round"/>
<path d="M1183.39 1003.59H1279.01" stroke="#2E353A" stroke-width="3.37245" stroke-linecap="round" stroke-linejoin="round"/>
<path d="M155.947 1352.44C248.728 1390.81 487.144 1349.28 462.698 1394.02C438.253 1438.76 251.512 1421.96 198.421 1470.33C145.329 1518.7 386.86 1514.83 378.318 1529.51C369.776 1544.19 157.269 1554.24 171.238 1574.01H1603.15C1605.46 1558.53 1588.99 1539.75 1562.09 1526.82C1348.88 1518.09 626.362 1486.09 702.059 1455.18C790.78 1419.03 1080.45 1382.88 1133.4 1354.57C1186.35 1326.25 951.801 1323.09 912.537 1310.54C899.889 1306.48 898.379 1302.51 902.485 1299.07L909.233 1299.49V1295.2C919.957 1291.31 931.015 1288.42 942.268 1286.56H909.233V1278.4L904.514 1281.37L896.444 1286.56H893.849C897.155 1276.34 899.401 1265.81 900.55 1255.13C902.391 1236.68 876.482 1278.4 876.482 1278.4C876.482 1278.4 880.163 1264.24 876.482 1255.13C872.801 1246.02 861.663 1267.45 861.663 1267.45C861.663 1267.45 874.641 1216.24 861.663 1182.97C848.686 1149.7 834.056 1267.45 834.056 1267.45C834.056 1267.45 832.074 1221.77 815.415 1220.87C801.918 1220.11 810.271 1251.17 813.952 1262.97C811.096 1256.34 806.884 1250.4 801.587 1245.5C789.648 1234.08 801.587 1271.88 801.587 1271.88C801.587 1271.88 796.868 1260.65 765.674 1255.13C734.48 1249.61 778.416 1279.58 778.416 1279.58C764.894 1275.7 751.172 1272.55 737.311 1270.14C730.421 1269.01 729.855 1270.7 732.12 1273.54L727.637 1276.42L713.196 1285.85C717.926 1272 721.092 1257.66 722.635 1243.1C724.994 1219.5 692.007 1272.73 692.007 1272.73C692.007 1272.73 696.726 1254.85 692.007 1243.1C687.287 1231.35 673.13 1258.77 673.13 1258.77C673.13 1258.77 689.647 1193.59 673.13 1151.21C656.612 1108.83 637.971 1258.77 637.971 1258.77C637.971 1258.77 635.423 1200.67 614.375 1199.49C597.244 1198.55 607.768 1237.76 612.487 1252.91C608.856 1244.56 603.519 1237.05 596.819 1230.87C581.576 1216.34 596.819 1264.43 596.819 1264.43C596.819 1264.43 590.826 1250.27 551.09 1243.1C511.354 1235.92 567.277 1274.24 567.277 1274.24C550.061 1269.31 532.59 1265.31 514.941 1262.26C488.513 1257.92 535.044 1286.66 535.044 1286.66H184.263C184.263 1286.66 63.2615 1314.12 155.947 1352.44ZM733.678 1275.42C738.413 1279.62 743.479 1283.42 748.826 1286.8H733.678V1275.42Z" fill="#92E3A9"/>
<path d="M1300.69 1358.15C1247.08 1382.98 1113.95 1409.03 1113.95 1409.03C1092.76 1411.91 1121.46 1439.04 1268.6 1425.59L1520.42 1286.7H1037.88C1054.02 1295.01 1168.98 1314.17 1234.39 1314.17C1299.8 1314.17 1354.31 1333.28 1300.69 1358.15Z" fill="#92E3A9"/>
<path d="M1686.21 1286.7H1781.35C1733.59 1284.86 1686.21 1286.7 1686.21 1286.7Z" fill="#92E3A9"/>
<path d="M1843.17 1292.22L1617.17 1437.86C1645.81 1436.78 1675.78 1436.07 1704.8 1435.36C1830.01 1432.34 1784.56 1378.02 1793.05 1358.86C1801.55 1339.7 1872.62 1342.86 1878.28 1310.91C1879.89 1301.85 1865.12 1296 1843.17 1292.22Z" fill="#92E3A9"/>
<g opacity="0.3">
<path opacity="0.3" d="M155.947 1352.44C248.728 1390.81 487.144 1349.28 462.698 1394.02C438.253 1438.76 251.512 1421.96 198.421 1470.33C145.329 1518.7 386.86 1514.83 378.318 1529.51C369.776 1544.19 157.269 1554.24 171.238 1574.01H1603.15C1605.46 1558.53 1588.99 1539.75 1562.09 1526.82C1348.88 1518.09 626.362 1486.09 702.059 1455.18C790.78 1419.03 1080.45 1382.88 1133.4 1354.57C1186.35 1326.25 951.801 1323.09 912.537 1310.54C899.889 1306.48 898.379 1302.51 902.485 1299.07L909.233 1299.49V1295.2C919.957 1291.31 931.015 1288.42 942.268 1286.56H909.233V1278.4L904.514 1281.37L896.444 1286.56H893.849C897.155 1276.34 899.401 1265.81 900.55 1255.13C902.391 1236.68 876.482 1278.4 876.482 1278.4C876.482 1278.4 880.163 1264.24 876.482 1255.13C872.801 1246.02 861.663 1267.45 861.663 1267.45C861.663 1267.45 874.641 1216.24 861.663 1182.97C848.686 1149.7 834.056 1267.45 834.056 1267.45C834.056 1267.45 832.074 1221.77 815.415 1220.87C801.918 1220.11 810.271 1251.17 813.952 1262.97C811.096 1256.34 806.884 1250.4 801.587 1245.5C789.648 1234.08 801.587 1271.88 801.587 1271.88C801.587 1271.88 796.868 1260.65 765.674 1255.13C734.48 1249.61 778.416 1279.58 778.416 1279.58C764.894 1275.7 751.172 1272.55 737.311 1270.14C730.421 1269.01 729.855 1270.7 732.12 1273.54L727.637 1276.42L713.196 1285.85C717.926 1272 721.092 1257.66 722.635 1243.1C724.994 1219.5 692.007 1272.73 692.007 1272.73C692.007 1272.73 696.726 1254.85 692.007 1243.1C687.287 1231.35 673.13 1258.77 673.13 1258.77C673.13 1258.77 689.647 1193.59 673.13 1151.21C656.612 1108.83 637.971 1258.77 637.971 1258.77C637.971 1258.77 635.423 1200.67 614.375 1199.49C597.244 1198.55 607.768 1237.76 612.487 1252.91C608.856 1244.56 603.519 1237.05 596.819 1230.87C581.576 1216.34 596.819 1264.43 596.819 1264.43C596.819 1264.43 590.826 1250.27 551.09 1243.1C511.354 1235.92 567.277 1274.24 567.277 1274.24C550.061 1269.31 532.59 1265.31 514.941 1262.26C488.513 1257.92 535.044 1286.66 535.044 1286.66H184.263C184.263 1286.66 63.2615 1314.12 155.947 1352.44ZM733.678 1275.42C738.413 1279.62 743.479 1283.42 748.826 1286.8H733.678V1275.42Z" fill="white"/>
<path opacity="0.3" d="M1300.69 1358.15C1247.08 1382.98 1113.95 1409.03 1113.95 1409.03C1092.76 1411.91 1121.46 1439.04 1268.6 1425.59L1520.42 1286.7H1037.88C1054.02 1295.01 1168.98 1314.17 1234.39 1314.17C1299.8 1314.17 1354.31 1333.28 1300.69 1358.15Z" fill="white"/>
<path opacity="0.3" d="M1686.21 1286.7H1781.35C1733.59 1284.86 1686.21 1286.7 1686.21 1286.7Z" fill="white"/>
<path opacity="0.3" d="M1843.17 1292.22L1617.17 1437.86C1645.81 1436.78 1675.78 1436.07 1704.8 1435.36C1830.01 1432.34 1784.56 1378.02 1793.05 1358.86C1801.55 1339.7 1872.62 1342.86 1878.28 1310.91C1879.89 1301.85 1865.12 1296 1843.17 1292.22Z" fill="white"/>
</g>
<path d="M449.046 1422.92H606.718C606.718 1422.92 600.073 1344.96 555.894 1311.83C511.715 1278.69 457.445 1288.63 444.308 1310.72C431.171 1332.81 428.925 1380.31 432.002 1385.85C435.078 1391.39 449.046 1422.92 449.046 1422.92Z" fill="#263238"/>
<path d="M606.718 1424.46H449.045C448.746 1424.46 448.454 1424.37 448.203 1424.21C447.952 1424.04 447.754 1423.81 447.63 1423.54C447.63 1423.23 434.063 1392 430.832 1386.62C426.833 1379.94 429.694 1332.07 443.139 1309.92C448.707 1300.69 460.859 1293.55 476.457 1290.51C503.131 1285.28 533.219 1292.79 556.97 1310.6C601.18 1343.76 608.317 1422 608.379 1422.8C608.407 1423.01 608.386 1423.23 608.317 1423.43C608.247 1423.63 608.132 1423.82 607.979 1423.97C607.823 1424.14 607.628 1424.28 607.408 1424.37C607.189 1424.45 606.952 1424.48 606.718 1424.46V1424.46ZM450.061 1421.38H604.995C603.703 1409.94 594.535 1342.72 554.97 1313.06C531.927 1295.77 502.669 1288.45 476.919 1293.52C462.151 1296.42 450.768 1302.97 445.631 1311.52C432.278 1333.73 430.832 1380.65 433.478 1385.05C436.524 1390.13 447.753 1416.03 450.061 1421.38Z" fill="#263238"/>
<path d="M928.185 1449.9H1051.92L1127.02 1409.08C1127.02 1409.08 1107.15 1322.93 1057.43 1297.49C1007.71 1272.05 966.488 1280.69 944.029 1323.86C921.571 1367.02 928.185 1449.9 928.185 1449.9Z" fill="#263238"/>
<path d="M1051.92 1451.44H928.184C927.797 1451.44 927.423 1451.3 927.138 1451.04C926.853 1450.77 926.677 1450.41 926.646 1450.03C926.646 1449.2 920.247 1366.25 942.675 1323.15C965.103 1280.05 1007.28 1270.08 1058.14 1296.08C1107.91 1321.52 1127.7 1405.14 1128.53 1408.71C1128.6 1409.04 1128.57 1409.38 1128.43 1409.68C1128.29 1409.99 1128.05 1410.24 1127.76 1410.4L1052.63 1451.26C1052.41 1451.37 1052.17 1451.44 1051.92 1451.44V1451.44ZM929.599 1448.37H1051.52L1125.36 1408.37C1122.77 1398.19 1102.25 1322.23 1056.81 1298.97C1006.94 1273.47 967.41 1282.6 945.474 1324.69C924.985 1363.82 928.892 1437.26 929.569 1448.37H929.599Z" fill="#263238"/>
<path d="M819.183 1369.55H790.786C761.098 1371.08 737.378 1402.1 737.378 1440.15C737.378 1478.21 761.098 1509.22 790.786 1510.76H803.092H819.336C847.025 1510.76 869.268 1479.13 869.268 1440C869.268 1400.86 846.748 1369.55 819.183 1369.55Z" fill="#263238"/>
<path d="M819.183 1512.42H790.756C759.991 1510.82 735.809 1479.13 735.809 1440.27C735.809 1401.42 759.714 1369.98 790.294 1368.16C790.457 1368.13 790.624 1368.13 790.787 1368.16H819.183C847.579 1368.16 870.653 1400.56 870.653 1440.37C870.653 1480.18 847.579 1512.42 819.183 1512.42ZM791.125 1371.08H790.787C761.714 1372.65 738.824 1402.93 738.824 1440.21C738.824 1477.5 761.652 1507.9 790.787 1509.28H819.122C845.795 1509.28 867.515 1478.27 867.515 1440.15C867.515 1402.03 845.795 1371.02 819.122 1371.02L791.125 1371.08Z" fill="#263238"/>
<path d="M1309.09 1334.93H1273.74C1236.82 1336.84 1207.29 1375.45 1207.29 1422.83C1207.29 1470.21 1236.79 1508.82 1273.74 1510.73H1309.09C1343.39 1510.73 1371.21 1471.35 1371.21 1422.77C1371.21 1374.19 1343.39 1334.93 1309.09 1334.93Z" fill="#263238"/>
<path d="M1309.09 1512.42H1273.74C1273.55 1512.45 1273.35 1512.45 1273.16 1512.42C1235.28 1510.14 1205.69 1471.01 1205.69 1423.02C1205.69 1375.02 1235.31 1335.86 1273.19 1333.61C1273.37 1333.58 1273.56 1333.58 1273.74 1333.61H1309.09C1344.19 1333.61 1372.74 1373.79 1372.74 1423.14C1372.74 1472.49 1344.19 1512.42 1309.09 1512.42ZM1274.2 1509.34H1309.09C1342.5 1509.34 1369.67 1470.58 1369.67 1422.92C1369.67 1375.27 1342.5 1336.47 1309.09 1336.47H1274.14C1274.01 1336.5 1273.87 1336.5 1273.74 1336.47C1237.28 1338.35 1208.73 1376.28 1208.73 1422.83C1208.73 1469.38 1237.22 1507.53 1273.77 1509.28L1274.2 1509.34Z" fill="#263238"/>
<path d="M1061.55 1334.93H1016.73V1351.95C1001.34 1367.98 991.284 1393.79 991.284 1422.92C991.284 1452.06 1001.31 1477.87 1016.73 1493.9V1510.88H1061.55C1095.89 1510.88 1123.7 1471.5 1123.7 1422.92C1123.7 1374.34 1095.89 1334.93 1061.55 1334.93Z" fill="#263238"/>
<path d="M1061.55 1512.42H1016.73C1016.32 1512.42 1015.93 1512.26 1015.64 1511.97C1015.35 1511.68 1015.19 1511.29 1015.19 1510.88V1494.51C999.252 1477.65 989.745 1450.95 989.745 1422.92C989.745 1394.9 999.252 1368.19 1015.19 1351.33V1334.93C1015.19 1334.53 1015.35 1334.13 1015.64 1333.85C1015.93 1333.56 1016.32 1333.4 1016.73 1333.4H1061.55C1096.69 1333.4 1125.24 1373.57 1125.24 1422.92C1125.24 1472.27 1096.69 1512.42 1061.55 1512.42ZM1018.26 1509.34H1061.55C1094.96 1509.34 1122.16 1470.58 1122.16 1422.92C1122.16 1375.27 1094.96 1336.47 1061.55 1336.47H1018.26V1351.85C1018.27 1352.26 1018.11 1352.64 1017.83 1352.93C1002.17 1369.18 992.822 1395.33 992.822 1422.83C992.822 1450.33 1002.05 1476.48 1017.83 1492.73C1018.11 1493.02 1018.27 1493.4 1018.26 1493.81V1509.34Z" fill="#263238"/>
<path d="M542.572 1334.93H507.838V1351.95C493.256 1367.98 483.78 1393.79 483.78 1422.92C483.78 1452.06 493.256 1477.87 507.838 1493.9V1510.88H542.572C575.061 1510.88 601.365 1471.5 601.365 1422.92C601.365 1374.34 575.061 1334.93 542.572 1334.93Z" fill="#263238"/>
<path d="M542.572 1512.42H507.838C507.43 1512.42 507.039 1512.26 506.75 1511.97C506.462 1511.68 506.3 1511.29 506.3 1510.88V1494.48C491.225 1477.65 482.241 1450.95 482.241 1422.92C482.241 1394.9 491.225 1368.19 506.3 1351.36V1334.93C506.3 1334.53 506.462 1334.13 506.75 1333.85C507.039 1333.56 507.43 1333.4 507.838 1333.4H542.572C575.829 1333.4 602.903 1373.57 602.903 1422.92C602.903 1472.27 575.768 1512.42 542.572 1512.42ZM509.376 1509.34H542.572C574.137 1509.34 599.826 1470.58 599.826 1422.92C599.826 1375.27 574.137 1336.47 542.572 1336.47H509.376V1351.85C509.376 1352.24 509.234 1352.61 508.976 1352.9C494.147 1369.14 485.318 1395.3 485.318 1422.83C485.318 1450.37 494.147 1476.52 508.976 1492.76C509.234 1493.05 509.376 1493.42 509.376 1493.81V1509.34Z" fill="#263238"/>
<path d="M1410.52 1407.17L1407.97 1378.31L1411.38 1363.82L1412.21 1345.06L1395.17 1316.78C1395.17 1316.78 1394.31 1280.11 1392.62 1275.83C1390.93 1271.56 1367.02 1252.82 1343.15 1245.07C1319.27 1237.32 1173.41 1219.5 1173.41 1219.5C1173.41 1219.5 1091.55 1153.73 1063.4 1140.19C1035.25 1126.65 1025.86 1124.81 996.022 1116.32C966.179 1107.83 904.741 1107.79 904.741 1107.79L816.906 1102.66C816.906 1102.66 709.443 1098.41 650.589 1104.38C591.735 1110.35 561.893 1119.76 558.478 1121.42L548.233 1126.56C548.233 1126.56 510.699 1135.08 505.592 1140.19C500.485 1145.3 495.347 1152.99 507.315 1165.79L440.77 1238.27C440.77 1238.27 428.833 1239.13 429.694 1246.82C430.556 1254.51 430.525 1312.48 430.525 1312.48L423.726 1321.71C423.726 1321.71 418.588 1366.93 421.141 1374.59C425.594 1385.98 430.731 1397.08 436.524 1407.85C439.467 1412.23 443.228 1416 447.6 1418.95L448.892 1419.63C445.108 1407.33 437.724 1382.44 437.724 1374.47C437.724 1363.79 443.077 1330.38 467.105 1319.71C491.132 1309.03 519.221 1309.68 541.926 1327.74C564.631 1345.79 572.691 1382.5 579.983 1405.2C587.274 1427.91 596.011 1443.29 606.041 1449.97L612.194 1454.03C617.547 1454.03 620.747 1454.03 620.747 1454.03L952.52 1461.72V1447.23C952.52 1447.23 938.86 1442.09 936.306 1439.54C933.753 1436.98 924.369 1402.86 932.891 1371.3C941.413 1339.73 967.872 1308.2 1001.99 1305.65C1036.11 1303.09 1075.33 1323.55 1088.96 1356.81C1102.59 1390.07 1107.73 1440.4 1109.45 1443.81C1111.18 1447.23 1115.42 1449.78 1124.84 1452.33L1134.22 1454.89L1151.26 1462.58L1375.67 1450.64C1375.67 1450.64 1409.78 1436.15 1414.06 1428.49C1418.34 1420.83 1410.52 1407.17 1410.52 1407.17Z" fill="white"/>
<path d="M1151.23 1464.15C1151.03 1464.19 1150.82 1464.19 1150.62 1464.15L1133.54 1456.49L1124.31 1454C1114.71 1451.38 1109.98 1448.67 1107.98 1444.77C1106.85 1440.74 1106.05 1436.62 1105.58 1432.46C1102.69 1414.74 1097.33 1381.79 1087.46 1357.73C1074.81 1326.97 1037.28 1304.85 1001.99 1307.49C968.333 1310.05 942.429 1341.89 934.307 1372.1C926.185 1402.31 934.922 1436.09 937.384 1438.86C942.306 1441.87 947.548 1444.33 953.012 1446.18C953.31 1446.29 953.566 1446.49 953.748 1446.74C953.93 1447 954.027 1447.31 954.028 1447.63V1462.12C954.014 1462.53 953.85 1462.93 953.566 1463.23C953.263 1463.5 952.868 1463.65 952.459 1463.66L620.655 1455.97C620.655 1455.97 617.578 1455.97 612.194 1455.97C611.889 1455.97 611.589 1455.89 611.333 1455.72L605.18 1451.63C595.12 1444.92 586.136 1429.6 578.537 1406.1C577.43 1402.68 576.322 1398.99 575.153 1395.11C568.385 1372.5 559.77 1344.38 540.973 1329.34C520.268 1312.88 493.563 1310.02 467.751 1321.52C444.493 1331.86 439.263 1364.32 439.263 1374.87C439.263 1380.44 443.324 1396.71 450.369 1419.6C450.461 1419.89 450.463 1420.2 450.375 1420.49C450.287 1420.78 450.114 1421.04 449.877 1421.23C449.644 1421.43 449.359 1421.55 449.058 1421.58C448.757 1421.61 448.453 1421.56 448.185 1421.42L446.862 1420.71C442.246 1417.6 438.276 1413.63 435.171 1409.02C429.37 1398.16 424.233 1386.96 419.788 1375.48C417.204 1367.7 421.757 1326.6 422.28 1321.95C422.307 1321.69 422.402 1321.43 422.557 1321.21L429.079 1312.23C429.079 1306.54 429.079 1254.36 428.249 1247.22C428.111 1246.22 428.187 1245.2 428.474 1244.23C428.76 1243.26 429.25 1242.36 429.91 1241.59C432.692 1238.95 436.3 1237.36 440.124 1237.07L505.316 1166.03C493.84 1153.02 499.378 1144.5 504.608 1139.36C509.838 1134.22 543.157 1126.41 547.68 1125.33L557.74 1120.32C560.816 1118.69 590.074 1109.21 650.405 1103.09C708.674 1097.18 815.861 1101.33 816.937 1101.4L904.957 1106.26C905.388 1106.26 966.857 1106.26 996.545 1114.84L1007.93 1118.07C1027.39 1122.88 1046.26 1129.84 1064.2 1138.81C1091.55 1152.07 1167.6 1212.8 1174.15 1218.06C1184.55 1219.32 1320.41 1236.15 1343.73 1243.65C1367.88 1251.41 1392.19 1270.27 1394.16 1275.25C1395.88 1279.5 1396.71 1311 1396.83 1316.29L1413.66 1343.98C1413.83 1344.24 1413.9 1344.54 1413.88 1344.84L1413.05 1363.61L1409.51 1378.31L1412.03 1406.74C1413.2 1408.89 1419.6 1421.51 1415.29 1429.26C1410.98 1437.01 1379.7 1450.58 1376.16 1452.09C1375.99 1452.13 1375.81 1452.13 1375.64 1452.09L1151.33 1464.03L1151.23 1464.15ZM1007.84 1303.89C1042.54 1303.89 1078.01 1326.01 1090.41 1356.19C1100.41 1380.56 1105.79 1413.76 1108.87 1431.6C1109.38 1435.46 1110.09 1439.29 1110.99 1443.07C1112.53 1446.15 1116.84 1448.49 1125.36 1450.83L1134.74 1453.38L1151.69 1460.98L1375.36 1449.07C1384.9 1445.01 1409.48 1433.69 1412.74 1427.54C1416.55 1420.71 1409.42 1407.85 1409.32 1407.73C1409.23 1407.53 1409.17 1407.32 1409.14 1407.11L1406.43 1378.31C1406.42 1378.15 1406.42 1377.99 1406.43 1377.82L1409.85 1363.33L1410.65 1345.33L1393.82 1317.64C1393.69 1317.41 1393.61 1317.15 1393.6 1316.88C1393.26 1302.82 1392.31 1279.4 1391.14 1276.48C1389.79 1273.07 1366.77 1254.42 1342.65 1246.67C1319.18 1239.13 1174.65 1221.32 1173.2 1221.13C1172.92 1221.1 1172.65 1220.98 1172.43 1220.8C1171.6 1220.15 1090.35 1155.08 1062.69 1141.67C1044.94 1132.75 1026.24 1125.86 1006.94 1121.12L995.561 1117.89C966.272 1109.52 905.326 1109.43 904.711 1109.43L816.784 1104.29C815.738 1104.29 708.767 1100.1 650.651 1106.01C591.551 1112.16 562.047 1121.39 559.063 1122.9L548.849 1128.01C548.727 1128.03 548.601 1128.03 548.479 1128.01C533.589 1131.42 510.115 1137.73 506.577 1141.27C501.193 1146.68 497.655 1153.27 508.331 1164.71C508.595 1165 508.741 1165.37 508.741 1165.76C508.741 1166.14 508.595 1166.52 508.331 1166.8L441.816 1239.29C441.554 1239.57 441.19 1239.75 440.801 1239.78C437.581 1239.95 434.508 1241.18 432.064 1243.29C431.687 1243.74 431.408 1244.28 431.244 1244.85C431.08 1245.42 431.034 1246.02 431.11 1246.61C431.971 1254.3 431.971 1310.08 431.971 1312.45C431.974 1312.77 431.878 1313.1 431.694 1313.37L425.111 1322.41C423.665 1335.21 420.527 1368.25 422.526 1374.22C426.913 1385.52 431.999 1396.54 437.755 1407.2C439.973 1410.65 442.798 1413.66 446.093 1416.09C441.878 1402.22 436.094 1381.85 436.094 1374.59C436.094 1363.52 441.662 1329.43 466.398 1318.41C493.317 1306.48 521.16 1309.46 542.788 1326.63C562.508 1342.29 571.092 1370.93 578.014 1393.94C579.183 1397.82 580.291 1401.48 581.368 1404.86C588.751 1427.69 597.304 1442.49 606.81 1448.8C608.841 1450.18 610.779 1451.44 612.564 1452.61C617.609 1452.61 620.593 1452.61 620.593 1452.61L951.105 1460.18V1448.31C947.721 1447.01 937.722 1443.04 935.353 1440.64C931.907 1437.2 923.047 1402.13 931.538 1370.93C940.029 1339.73 966.887 1306.75 1001.99 1304.14C1003.84 1303.99 1005.84 1303.89 1007.84 1303.89V1303.89Z" fill="#263238"/>
<path d="M1173.41 1219.53C1173.41 1219.53 1091.55 1153.73 1063.4 1140.19C1035.25 1126.65 1025.86 1124.81 996.022 1116.32C966.18 1107.83 904.741 1107.79 904.741 1107.79L816.906 1102.66C816.906 1102.66 709.443 1098.41 650.589 1104.38C591.735 1110.35 561.893 1119.76 558.478 1121.42L548.233 1126.56C548.233 1126.56 510.699 1135.08 505.592 1140.19C500.485 1145.3 495.348 1152.99 507.315 1165.79H549.956L607.949 1216.12L917.54 1227.19L918.401 1217.81L1164.03 1216.95C1167.35 1216.85 1170.62 1217.75 1173.41 1219.53V1219.53Z" fill="#263238"/>
<path d="M917.54 1228.73L607.948 1217.66C607.596 1217.63 607.261 1217.49 606.995 1217.26L549.433 1167.33H507.315C507.102 1167.32 506.891 1167.28 506.695 1167.2C506.5 1167.11 506.323 1166.99 506.177 1166.83C493.471 1153.2 499.132 1144.5 504.515 1139.14C509.899 1133.79 543.064 1126.19 547.587 1125.12L557.647 1120.1C560.724 1118.47 589.981 1108.99 650.312 1102.87C708.582 1096.96 815.768 1101.12 816.845 1101.18L904.957 1106.26C906.618 1106.26 967.102 1106.44 996.514 1114.84L1007.9 1118.07C1027.36 1122.88 1046.23 1129.84 1064.17 1138.81C1092.13 1152.37 1171.14 1215.72 1174.46 1218.33C1174.62 1218.45 1174.75 1218.61 1174.85 1218.78C1174.95 1218.95 1175.02 1219.14 1175.04 1219.34C1175.07 1219.54 1175.05 1219.74 1175 1219.93C1174.95 1220.12 1174.86 1220.3 1174.74 1220.46C1174.49 1220.78 1174.12 1220.99 1173.72 1221.04C1173.32 1221.1 1172.91 1221 1172.58 1220.76V1220.76C1170.05 1219.19 1167.11 1218.4 1164.12 1218.49L919.908 1219.35L919.17 1227.32C919.139 1227.72 918.95 1228.09 918.645 1228.36C918.34 1228.62 917.943 1228.76 917.54 1228.73ZM608.533 1214.58L916.186 1225.59L916.894 1217.69C916.924 1217.3 917.1 1216.94 917.385 1216.68C917.67 1216.42 918.044 1216.27 918.432 1216.27L1164.06 1215.41C1164.68 1215.38 1165.29 1215.38 1165.91 1215.41C1145.91 1199.6 1085.76 1152.65 1062.75 1141.57C1045 1132.66 1026.3 1125.77 1007.01 1121.02L995.622 1117.79C966.333 1109.42 905.387 1109.33 904.772 1109.33L816.845 1104.19C815.799 1104.19 708.828 1100.01 650.712 1105.92C591.612 1112.07 562.108 1121.3 559.124 1122.81L548.91 1127.91C548.788 1127.94 548.662 1127.94 548.541 1127.91C533.65 1131.33 510.176 1137.64 506.638 1141.17C501.316 1146.5 497.809 1152.99 507.93 1164.13H549.925C550.288 1164.12 550.639 1164.25 550.91 1164.49L608.533 1214.58Z" fill="#263238"/>
<path d="M1173.41 1219.53C1173.41 1219.53 1091.55 1153.73 1063.4 1140.19C1053.95 1135.61 1046.63 1132.41 1039.92 1129.79C1026.11 1127.21 1012.24 1125.7 1012.24 1125.7L833.15 1112.04C852.199 1125.7 870.158 1140.82 886.867 1157.26C908.925 1179.29 933.661 1210.64 940.583 1217.75L1164.06 1216.95C1167.37 1216.85 1170.63 1217.75 1173.41 1219.53V1219.53Z" fill="#8C8C8C"/>
<path d="M1173.41 1221.04C1173.09 1221.04 1172.77 1220.94 1172.49 1220.76V1220.76C1169.96 1219.19 1167.01 1218.4 1164.03 1218.49L940.552 1219.26C940.345 1219.26 940.14 1219.22 939.949 1219.14C939.758 1219.06 939.586 1218.94 939.444 1218.79C937.045 1216.33 932.522 1211.01 926.8 1204.24C915.57 1190.98 900.188 1172.8 885.759 1158.34C869.094 1141.98 851.197 1126.92 832.227 1113.3C831.95 1113.11 831.745 1112.84 831.644 1112.52C831.544 1112.2 831.554 1111.86 831.673 1111.55C831.777 1111.23 831.985 1110.95 832.265 1110.77C832.544 1110.59 832.878 1110.5 833.212 1110.53L1012.33 1124.16C1012.51 1124.16 1026.51 1125.7 1040.2 1128.28C1047.37 1131.02 1054.84 1134.44 1064.07 1138.8C1092.04 1152.37 1171.05 1215.72 1174.37 1218.33C1174.62 1218.53 1174.81 1218.79 1174.9 1219.1C1174.99 1219.41 1174.98 1219.73 1174.88 1220.03C1174.77 1220.34 1174.57 1220.6 1174.31 1220.78C1174.05 1220.96 1173.73 1221.05 1173.41 1221.04V1221.04ZM838.442 1114.01C855.917 1126.87 872.459 1140.96 887.943 1156.16C902.464 1170.71 917.909 1188.95 929.169 1202.3C934.491 1208.61 938.767 1213.66 941.198 1216.21L1164.03 1215.44C1164.65 1215.41 1165.26 1215.41 1165.88 1215.44C1145.88 1199.63 1085.73 1152.68 1062.72 1141.6C1053.49 1137.2 1046.17 1133.88 1039.34 1131.27C1026.05 1128.78 1012.2 1127.27 1012.05 1127.27L838.442 1114.01Z" fill="#263238"/>
<path d="M614.656 1216.33L696.983 1219.41C698.86 1205.26 702.644 1178.95 706.89 1165.05C711.402 1151.08 716.807 1137.41 723.072 1124.13L633.515 1129.11C633.515 1129.11 619.24 1181.08 614.656 1216.33Z" fill="#8C8C8C"/>
<path d="M696.983 1220.83L614.686 1217.75C614.469 1217.75 614.254 1217.71 614.057 1217.62C613.86 1217.53 613.686 1217.39 613.548 1217.23C613.411 1217.06 613.31 1216.87 613.252 1216.66C613.193 1216.46 613.179 1216.24 613.209 1216.03C617.732 1181.05 631.976 1129.11 632.099 1128.59C632.184 1128.28 632.367 1128 632.621 1127.79C632.875 1127.59 633.188 1127.47 633.515 1127.45L723.072 1122.35C723.339 1122.32 723.608 1122.37 723.847 1122.49C724.087 1122.61 724.288 1122.79 724.426 1123.02C724.561 1123.25 724.633 1123.51 724.633 1123.78C724.633 1124.04 724.561 1124.3 724.426 1124.53C718.197 1137.75 712.822 1151.36 708.336 1165.26C704.152 1178.98 700.367 1205.07 698.491 1219.38C698.468 1219.77 698.3 1220.13 698.02 1220.4C697.741 1220.67 697.37 1220.82 696.983 1220.83ZM616.409 1214.86L695.66 1217.72C697.599 1203.07 701.29 1178 705.413 1164.49C709.661 1151.25 714.737 1138.28 720.611 1125.67L634.714 1130.59C632.715 1138.04 620.747 1182.95 616.409 1214.86Z" fill="#263238"/>
<path d="M607.949 1216.12C607.949 1216.12 621.301 1144.19 628.069 1131.27C628.069 1131.27 591.551 1133.95 582.198 1139.73C575.214 1144.04 559.801 1160.03 552.417 1167.85L607.949 1216.12Z" fill="#8C8C8C"/>
<path d="M607.949 1217.66C607.573 1217.65 607.213 1217.51 606.933 1217.26L551.341 1169.11C551.18 1168.98 551.048 1168.81 550.953 1168.63C550.858 1168.44 550.801 1168.24 550.787 1168.03C550.784 1167.61 550.938 1167.21 551.217 1166.89C559.432 1158.16 574.291 1142.84 581.306 1138.5C590.843 1132.59 626.346 1129.95 627.854 1129.82C628.124 1129.8 628.395 1129.85 628.639 1129.97C628.883 1130.09 629.09 1130.27 629.238 1130.5C629.373 1130.74 629.444 1131.01 629.444 1131.28C629.444 1131.56 629.373 1131.83 629.238 1132.07C622.839 1144.5 609.61 1215.66 609.61 1216.4C609.556 1216.66 609.435 1216.91 609.257 1217.11C609.079 1217.32 608.851 1217.47 608.595 1217.57C608.39 1217.65 608.168 1217.68 607.949 1217.66V1217.66ZM554.571 1167.76L606.872 1213.2C609.241 1200.67 619.178 1148.74 625.331 1133.02C616.901 1133.73 590.259 1136.38 582.721 1141.02C576.322 1145.11 561.647 1160.25 554.571 1167.76V1167.76Z" fill="#263238"/>
<path d="M908.034 1221.23C908.034 1221.23 861.24 1160.68 834.812 1144.5C808.385 1128.31 759.745 1125.73 754.638 1124.87L749.531 1124.04C749.531 1124.04 726.119 1159.94 731.564 1220.58L911.11 1226.98L908.034 1221.23Z" fill="#8C8C8C"/>
<path d="M911.11 1228.52L731.564 1222.06C731.192 1222.04 730.837 1221.9 730.566 1221.64C730.294 1221.39 730.124 1221.04 730.087 1220.67C724.673 1160.22 748.054 1123.52 748.3 1123.15C748.469 1122.9 748.702 1122.71 748.973 1122.59C749.245 1122.47 749.545 1122.43 749.838 1122.47L754.946 1123.33C755.653 1123.33 757.161 1123.58 759.283 1123.79C772.482 1125.08 812.6 1128.99 835.674 1143.14C862.07 1159.33 907.511 1217.81 909.51 1220.27L909.664 1220.52L912.587 1226.27C912.716 1226.5 912.784 1226.76 912.784 1227.03C912.784 1227.29 912.716 1227.55 912.587 1227.78C912.439 1228.03 912.221 1228.24 911.959 1228.37C911.696 1228.5 911.402 1228.55 911.11 1228.52V1228.52ZM732.979 1219.04L908.526 1225.19L906.865 1221.9C904.557 1218.83 859.363 1161.17 834.012 1145.64C811.523 1131.85 771.928 1127.98 758.945 1126.72C756.699 1126.5 755.099 1126.35 754.392 1126.22L750.3 1125.52C746.947 1131.39 728.549 1165.54 732.979 1219.04Z" fill="#263238"/>
<path d="M859.485 1240.98C858.257 1240.99 857.03 1240.87 855.824 1240.64C851.486 1239.78 843.087 1226.39 839.949 1221.1C834.535 1221.41 812.538 1222.42 807.523 1219.1C806.324 1218.02 805.414 1216.66 804.877 1215.14C804.34 1213.62 804.191 1211.99 804.446 1210.4C804.662 1202.67 808.723 1192.61 816.076 1188.34C826.966 1182 854.009 1184.77 858.901 1185.6H859.516C864.777 1186.46 872.714 1187.75 876.283 1198.46C879.36 1208 872.068 1218.49 869.792 1221.38C870.899 1223.99 873.637 1231.28 872.007 1235.35C870.376 1239.41 864.346 1240.98 859.485 1240.98ZM840.78 1217.96C841.049 1217.97 841.312 1218.04 841.544 1218.17C841.776 1218.31 841.969 1218.5 842.103 1218.73C847.272 1227.47 854.225 1237.19 856.44 1237.62C860.593 1238.45 867.977 1237.41 869.207 1234.3C870.438 1231.19 868.223 1225.25 866.684 1221.99C866.567 1221.72 866.525 1221.43 866.563 1221.13C866.6 1220.84 866.717 1220.56 866.9 1220.33C866.9 1220.33 876.529 1208.95 873.453 1199.66C870.376 1190.37 864.223 1189.69 859.085 1188.86H858.439C852.133 1187.81 826.967 1185.78 817.675 1191.23C811.522 1194.92 807.769 1204.03 807.584 1210.73C807.393 1211.82 807.44 1212.93 807.721 1213.99C808.003 1215.05 808.513 1216.04 809.215 1216.89C812.63 1219.13 830.32 1218.98 840.688 1218.33L840.78 1217.96Z" fill="#263238"/>
<path d="M868.039 1221.23C868.039 1221.23 878.284 1209.29 874.869 1199.04C871.454 1188.8 863.793 1187.97 858.655 1187.11C853.518 1186.25 827.121 1183.69 816.876 1189.66C806.631 1195.63 803.216 1214.27 808.354 1217.81C813.492 1221.35 840.75 1219.53 840.75 1219.53C840.75 1219.53 851.856 1238.27 856.133 1239.13C860.409 1239.99 868.931 1239.13 870.623 1234.89C872.315 1230.64 868.039 1221.23 868.039 1221.23Z" fill="#263238"/>
<path d="M859.485 1240.98C858.257 1240.99 857.03 1240.87 855.824 1240.64C851.486 1239.78 843.087 1226.39 839.949 1221.1C834.535 1221.41 812.538 1222.42 807.523 1219.1C806.324 1218.02 805.414 1216.66 804.877 1215.14C804.34 1213.62 804.191 1211.99 804.446 1210.4C804.662 1202.67 808.723 1192.61 816.076 1188.34C826.966 1182 854.009 1184.77 858.901 1185.6H859.516C864.777 1186.46 872.714 1187.75 876.283 1198.46C879.36 1208 872.068 1218.49 869.792 1221.38C870.899 1223.99 873.637 1231.28 872.007 1235.35C870.376 1239.41 864.346 1240.98 859.485 1240.98ZM840.78 1217.96C841.049 1217.97 841.312 1218.04 841.544 1218.17C841.776 1218.31 841.969 1218.5 842.103 1218.73C847.272 1227.47 854.225 1237.19 856.44 1237.62C860.593 1238.45 867.977 1237.41 869.207 1234.3C870.438 1231.19 868.223 1225.25 866.684 1221.99C866.567 1221.72 866.525 1221.43 866.563 1221.13C866.6 1220.84 866.717 1220.56 866.9 1220.33C866.9 1220.33 876.529 1208.95 873.453 1199.66C870.376 1190.37 864.223 1189.69 859.085 1188.86H858.439C852.133 1187.81 826.967 1185.78 817.675 1191.23C811.522 1194.92 807.769 1204.03 807.584 1210.73C807.393 1211.82 807.44 1212.93 807.721 1213.99C808.003 1215.05 808.513 1216.04 809.215 1216.89C812.63 1219.13 830.32 1218.98 840.688 1218.33L840.78 1217.96Z" fill="#263238"/>
<path d="M1267.31 1354.81C1267.15 1354.84 1266.98 1354.84 1266.82 1354.81C1266.82 1354.81 1255.4 1350.78 1244.27 1348.16C1233.13 1345.55 1120.74 1339.58 1119.61 1339.52C1119.2 1339.49 1118.83 1339.31 1118.56 1339.01C1118.29 1338.71 1118.14 1338.32 1118.16 1337.92C1118.18 1337.51 1118.37 1337.12 1118.67 1336.85C1118.98 1336.57 1119.38 1336.42 1119.79 1336.44C1124.44 1336.69 1233.62 1342.59 1244.94 1345.18C1255.28 1347.61 1265.74 1351.18 1267.56 1351.79L1405.54 1347.15C1405.94 1347.15 1406.33 1347.3 1406.62 1347.57C1406.91 1347.85 1407.08 1348.22 1407.11 1348.62C1407.12 1348.83 1407.08 1349.03 1407.01 1349.22C1406.94 1349.41 1406.84 1349.58 1406.7 1349.73C1406.56 1349.88 1406.4 1350 1406.22 1350.08C1406.03 1350.17 1405.83 1350.22 1405.63 1350.22L1267.37 1354.9L1267.31 1354.81Z" fill="#263238"/>
<path d="M907.295 1384.19C906.898 1384.19 906.515 1384.04 906.228 1383.76C905.942 1383.49 905.773 1383.11 905.757 1382.71C904.15 1334.1 907.293 1285.44 915.14 1237.44C915.215 1237.04 915.444 1236.68 915.777 1236.45C916.11 1236.21 916.522 1236.12 916.925 1236.18C917.324 1236.25 917.677 1236.48 917.908 1236.82C918.138 1237.15 918.227 1237.56 918.155 1237.96C910.415 1285.75 907.324 1334.18 908.926 1382.56C908.934 1382.76 908.902 1382.96 908.832 1383.15C908.763 1383.34 908.656 1383.52 908.519 1383.67C908.382 1383.81 908.217 1383.93 908.033 1384.02C907.849 1384.1 907.651 1384.15 907.449 1384.16L907.295 1384.19Z" fill="#263238"/>
<path d="M1236.27 1286.02C1224.85 1286.02 1075.86 1266.79 1069.4 1265.96L913.202 1255.93C913 1255.92 912.802 1255.87 912.62 1255.78C912.438 1255.69 912.275 1255.57 912.141 1255.41C912.006 1255.26 911.903 1255.09 911.837 1254.89C911.771 1254.7 911.744 1254.5 911.756 1254.3C911.802 1253.9 912 1253.53 912.308 1253.26C912.616 1253 913.013 1252.87 913.417 1252.88L1069.71 1262.88C1114.35 1268.64 1231.13 1283.43 1236.45 1282.94C1243.13 1282.26 1250.54 1282.26 1250.61 1282.26C1251.01 1282.26 1251.4 1282.43 1251.69 1282.71C1251.98 1283 1252.14 1283.39 1252.14 1283.8C1252.14 1284.21 1251.98 1284.6 1251.69 1284.89C1251.4 1285.18 1251.01 1285.34 1250.61 1285.34C1250.61 1285.34 1243.25 1285.34 1236.73 1285.99L1236.27 1286.02Z" fill="#263238"/>
<path d="M1293.37 1342.81H1280.66C1269.93 1342.81 1251.44 1327 1249.25 1322.6C1247.77 1319.67 1247.07 1309.4 1247.07 1291.19C1247.07 1284.29 1250.76 1276.97 1257.8 1276.3C1260.88 1275.96 1300.35 1273 1334.1 1272.94H1335.15C1363.76 1272.94 1388.13 1275.59 1388.37 1275.62C1388.57 1275.64 1388.77 1275.7 1388.95 1275.8C1389.13 1275.9 1389.28 1276.03 1389.41 1276.19C1389.54 1276.35 1389.63 1276.53 1389.69 1276.72C1389.75 1276.92 1389.76 1277.12 1389.74 1277.33C1389.72 1277.53 1389.66 1277.72 1389.56 1277.9C1389.46 1278.08 1389.33 1278.24 1389.17 1278.36C1389.01 1278.49 1388.83 1278.59 1388.64 1278.64C1388.44 1278.7 1388.24 1278.72 1388.03 1278.7C1387.79 1278.7 1362.99 1276.08 1334.1 1276.05C1300.48 1276.05 1261.25 1279.13 1258.11 1279.37C1252.27 1279.96 1250.14 1286.76 1250.14 1291.22C1250.14 1315 1251.44 1320.14 1251.99 1321.24C1253.9 1325.06 1271.37 1339.7 1280.66 1339.7H1283.74C1362.38 1339.92 1378.59 1337.03 1381.23 1335.27C1388.71 1330.29 1393.54 1316.38 1393.54 1316.26C1393.7 1315.92 1393.99 1315.65 1394.33 1315.51C1394.68 1315.36 1395.07 1315.35 1395.42 1315.47C1395.78 1315.59 1396.08 1315.84 1396.27 1316.16C1396.45 1316.49 1396.51 1316.88 1396.43 1317.24C1396.25 1317.86 1391.23 1332.29 1382.87 1337.83C1378.07 1341.18 1348.69 1342.81 1293.37 1342.81Z" fill="#263238"/>
<path d="M1084.29 1267.77C1084.29 1267.77 1104.99 1293.8 1115.05 1300.48C1125.11 1307.15 1127.08 1307.83 1132.44 1308.51C1137.79 1309.18 1195.87 1313.18 1203.9 1313.18C1211.93 1313.18 1217.26 1312.51 1220.58 1309.18C1223.9 1305.86 1231.93 1284.57 1231.93 1284.57L1084.29 1267.77Z" fill="#92E3A9"/>
<path d="M1203.87 1314.72C1195.44 1314.72 1137.39 1310.69 1132.19 1310.04C1126.5 1309.31 1124.31 1308.54 1114.16 1301.77C1104.01 1295 1083.95 1269.8 1083.09 1268.73C1082.92 1268.47 1082.84 1268.17 1082.84 1267.87C1082.84 1267.56 1082.92 1267.26 1083.09 1267C1083.23 1266.74 1083.46 1266.53 1083.72 1266.39C1083.99 1266.25 1084.3 1266.2 1084.6 1266.24L1232.27 1282.94C1232.5 1282.96 1232.73 1283.04 1232.92 1283.16C1233.12 1283.28 1233.29 1283.45 1233.41 1283.65C1233.51 1283.86 1233.57 1284.09 1233.57 1284.33C1233.57 1284.56 1233.51 1284.79 1233.41 1285C1232.58 1287.22 1225.19 1306.78 1221.72 1310.26C1218.24 1313.74 1212.3 1314.72 1203.87 1314.72ZM1087.86 1269.71C1093.55 1276.66 1108.13 1294.05 1115.88 1299.22C1125.94 1305.92 1127.64 1306.35 1132.59 1306.97C1137.54 1307.58 1195.9 1311.64 1203.87 1311.64C1211.84 1311.64 1216.49 1311.06 1219.47 1308.08C1221.59 1305.98 1226.55 1294.2 1229.78 1285.77L1087.86 1269.71Z" fill="#263238"/>
<path d="M1146.4 1375.98C1146.4 1375.98 1139.08 1396.68 1139.08 1400C1139.08 1403.33 1146.4 1408.03 1149.08 1408.03C1151.76 1408.03 1201.84 1408.71 1205.2 1407.36C1208.55 1406 1226.73 1386.65 1225.9 1383.97C1225.07 1381.3 1215.22 1376.65 1215.22 1376.65L1146.4 1375.98Z" fill="#263238"/>
<path d="M1177.26 1409.73C1170.52 1409.73 1162.22 1409.73 1151.94 1409.73H1149.08C1145.73 1409.73 1137.54 1404.62 1137.54 1400.16C1137.54 1396.74 1143.7 1379.11 1144.96 1375.55C1145.05 1375.23 1145.25 1374.96 1145.51 1374.77C1145.78 1374.59 1146.11 1374.5 1146.43 1374.53L1215.23 1375.21C1215.44 1375.16 1215.66 1375.16 1215.87 1375.21C1218.95 1376.71 1226.64 1380.53 1227.41 1383.58C1228.45 1387.85 1208.52 1407.66 1205.87 1408.77C1204.61 1409.26 1199.9 1409.73 1177.26 1409.73ZM1147.51 1377.51C1144.73 1384.85 1142.42 1392.36 1140.62 1400C1140.62 1402.28 1147.02 1406.5 1149.08 1406.5H1151.97C1195.04 1406.93 1203.44 1406.31 1204.64 1405.91C1207.41 1404.8 1223.87 1387.21 1224.39 1384.07C1221.55 1381.6 1218.33 1379.6 1214.86 1378.16L1147.51 1377.51Z" fill="#263238"/>
<path d="M1413.94 1428.49C1418.21 1420.8 1410.52 1407.17 1410.52 1407.17L1400.28 1386.65L1260.67 1390C1260.67 1390 1239.28 1418.06 1236.05 1419.38C1233.23 1420.26 1230.3 1420.71 1227.35 1420.71C1227.35 1420.71 1144.53 1417.38 1138.53 1414.71C1132.53 1412.03 1127.85 1404.03 1125.17 1402.03C1121.13 1400 1116.87 1398.44 1112.47 1397.36C1112.47 1397.36 1103.79 1357.36 1088.44 1336.56C1073.09 1315.77 1038.88 1297.83 1014.82 1295.25C990.761 1292.66 957.381 1307.92 944.059 1323.95C930.738 1339.98 922.032 1363.36 920.001 1388.74L899.973 1386.1C899.973 1386.1 885.944 1400.77 877.945 1404.12C869.946 1407.48 633.453 1395.42 626.777 1393.42C620.101 1391.42 602.749 1374.71 598.719 1373.39C594.689 1372.07 579.368 1370.04 579.368 1370.04C579.368 1370.04 569.338 1327.3 544.634 1311.28C519.929 1295.25 486.549 1295.25 467.105 1306.51C447.661 1317.77 439.047 1338.56 436.34 1345.24C433.632 1351.92 432.31 1355.95 432.31 1355.95L420.926 1352.41C420.28 1362.35 420.065 1371.64 421.08 1374.74C425.532 1386.13 430.669 1397.24 436.463 1408C439.406 1412.38 443.166 1416.15 447.538 1419.11L448.831 1419.78C445.046 1407.48 437.663 1382.59 437.663 1374.62C437.663 1363.95 443.016 1330.53 467.044 1319.86C491.071 1309.18 519.16 1309.83 541.865 1327.89C564.57 1345.95 572.63 1382.65 579.921 1405.36C587.213 1428.06 595.95 1443.44 605.98 1450.12L612.133 1454.18C617.486 1454.18 620.685 1454.18 620.685 1454.18L952.458 1461.87V1447.38C952.458 1447.38 938.799 1442.24 936.245 1439.69C933.692 1437.14 924.308 1403.02 932.83 1371.45C941.352 1339.89 967.81 1308.35 1001.93 1305.8C1036.05 1303.25 1075.27 1323.7 1088.9 1356.96C1102.53 1390.22 1107.67 1440.55 1109.39 1443.97C1111.11 1447.38 1115.36 1449.93 1124.77 1452.49L1134.16 1455.04L1151.2 1462.73L1375.67 1450.64C1375.67 1450.64 1409.66 1436.15 1413.94 1428.49Z" fill="#545454"/>
<path d="M1151.23 1464.15C1151.03 1464.19 1150.82 1464.19 1150.62 1464.15L1133.54 1456.49L1124.31 1454C1114.71 1451.38 1109.98 1448.67 1107.98 1444.77C1106.85 1440.73 1106.05 1436.62 1105.58 1432.46C1102.69 1414.74 1097.33 1381.79 1087.46 1357.73C1074.81 1326.97 1037.31 1304.88 1001.99 1307.49C968.333 1310.05 942.429 1341.89 934.307 1372.1C926.185 1402.31 934.922 1436.09 937.383 1438.86C942.306 1441.87 947.547 1444.33 953.012 1446.18C953.309 1446.29 953.566 1446.49 953.748 1446.74C953.93 1447 954.027 1447.31 954.027 1447.63V1462.12C954.014 1462.53 953.85 1462.93 953.566 1463.23C953.266 1463.51 952.869 1463.66 952.458 1463.66L620.655 1455.96C620.655 1455.96 617.578 1455.96 612.194 1455.96C611.889 1455.97 611.589 1455.88 611.333 1455.72L605.18 1451.63C595.119 1444.92 586.136 1429.6 578.537 1406.09C577.429 1402.68 576.322 1398.99 575.153 1395.11C568.384 1372.5 559.77 1344.38 540.973 1329.33C520.267 1312.88 493.563 1310.01 467.751 1321.52C444.493 1331.86 439.262 1364.32 439.262 1374.87C439.262 1380.44 443.323 1396.71 450.369 1419.6C450.461 1419.89 450.463 1420.2 450.375 1420.49C450.287 1420.78 450.113 1421.04 449.876 1421.23C449.644 1421.42 449.359 1421.55 449.058 1421.58C448.757 1421.61 448.453 1421.55 448.184 1421.42L446.861 1420.71C442.246 1417.6 438.276 1413.63 435.171 1409.02C429.37 1398.16 424.233 1386.96 419.788 1375.48C418.834 1372.56 418.742 1365.08 419.542 1352.53C419.553 1352.3 419.618 1352.07 419.733 1351.86C419.848 1351.66 420.009 1351.49 420.203 1351.35C420.397 1351.22 420.619 1351.14 420.851 1351.11C421.084 1351.08 421.32 1351.1 421.542 1351.18L431.51 1354.25C432.125 1352.53 433.294 1349.33 435.048 1345.03C444.277 1322.23 457.137 1310.97 466.428 1305.52C484.734 1294.79 518.729 1292.79 545.526 1310.23C568.6 1325.21 578.937 1362.1 580.66 1368.9C586.921 1369.65 593.135 1370.75 599.273 1372.19C603.28 1374.43 607.008 1377.14 610.379 1380.25C616.347 1385.11 623.762 1391.14 627.3 1392.19C637.483 1395.27 871.269 1405.17 877.422 1402.93C885.021 1399.85 898.773 1385.42 898.957 1385.27C899.127 1385.09 899.335 1384.96 899.564 1384.88C899.794 1384.8 900.039 1384.77 900.28 1384.8L918.74 1387.27C920.985 1362.35 929.784 1339.06 943.013 1323.21C956.242 1307.37 990.115 1291.22 1015.16 1293.95C1040.75 1296.82 1074.9 1316.04 1089.7 1335.98C1103.98 1355.24 1112.38 1390.19 1113.82 1396.43C1118.11 1397.48 1122.24 1399.06 1126.13 1401.14C1127.49 1402.32 1128.71 1403.64 1129.79 1405.08C1132.27 1408.57 1135.47 1411.49 1139.17 1413.63C1143.39 1415.51 1194.27 1418.19 1227.47 1419.54C1230.19 1419.52 1232.9 1419.11 1235.5 1418.31C1237.53 1417.32 1249.34 1402.93 1259.56 1389.42C1259.69 1389.23 1259.87 1389.07 1260.08 1388.96C1260.29 1388.86 1260.52 1388.8 1260.76 1388.8L1400.28 1385.11C1400.57 1385.11 1400.86 1385.19 1401.11 1385.35C1401.36 1385.5 1401.56 1385.71 1401.69 1385.97L1412 1406.46C1412.28 1406.99 1420 1420.89 1415.38 1429.23C1410.77 1437.57 1379.79 1450.55 1376.25 1452.06C1376.08 1452.1 1375.9 1452.1 1375.73 1452.06L1151.42 1463.99L1151.23 1464.15ZM1007.84 1303.89C1042.54 1303.89 1078.01 1326.01 1090.41 1356.19C1100.41 1380.56 1105.79 1413.75 1108.87 1431.6C1109.38 1435.46 1110.09 1439.29 1110.99 1443.07C1112.53 1446.15 1116.84 1448.49 1125.36 1450.83L1134.74 1453.38L1151.69 1460.98L1375.36 1449.07C1384.9 1445.01 1409.48 1433.69 1412.74 1427.54C1415.81 1421.88 1411.35 1411.32 1409.32 1407.72L1399.45 1388.04L1261.56 1391.33C1256.02 1398.59 1240.02 1419.29 1236.64 1420.62C1233.66 1421.59 1230.54 1422.09 1227.41 1422.09C1218.82 1421.72 1144.03 1418.65 1137.94 1415.94C1133.79 1413.6 1130.19 1410.37 1127.42 1406.49C1126.5 1405.27 1125.47 1404.13 1124.34 1403.08C1120.43 1401.13 1116.3 1399.64 1112.04 1398.65C1111.76 1398.57 1111.52 1398.42 1111.32 1398.22C1111.13 1398.01 1110.99 1397.76 1110.93 1397.48C1110.93 1397.08 1102.13 1357.49 1087.15 1337.3C1072.81 1317.95 1039.65 1299.25 1014.76 1296.48C991.069 1293.83 957.965 1309.46 945.29 1324.66C932.215 1340.38 923.57 1363.67 921.601 1388.59C921.586 1388.8 921.529 1389 921.434 1389.18C921.339 1389.37 921.207 1389.53 921.047 1389.67C920.887 1389.8 920.7 1389.9 920.499 1389.96C920.297 1390.02 920.086 1390.03 919.878 1390L900.588 1387.42C897.881 1390.22 885.974 1402.19 878.591 1405.26C873.545 1407.36 797.032 1404.13 751.838 1402.03C694.245 1399.36 630.1 1395.88 626.408 1394.62C622.716 1393.36 614.932 1387.39 608.441 1382.1C605.288 1379.3 601.902 1376.78 598.319 1374.56C594.473 1373.3 579.368 1371.48 579.214 1371.3C578.907 1371.25 578.62 1371.12 578.39 1370.91C578.16 1370.7 577.997 1370.43 577.922 1370.13C577.922 1369.7 567.738 1327.8 543.864 1312.29C518.022 1295.52 485.41 1297.4 467.997 1307.65C459.106 1312.84 446.708 1323.64 437.909 1345.64C435.294 1352.19 433.94 1356.19 433.94 1356.22C433.813 1356.61 433.538 1356.93 433.175 1357.12C432.811 1357.3 432.389 1357.33 432.002 1357.21L422.495 1354.13C421.695 1367.55 422.157 1372.31 422.711 1373.94C427.097 1385.24 432.183 1396.26 437.94 1406.92C440.158 1410.37 442.983 1413.38 446.277 1415.82C442.062 1401.94 436.278 1381.57 436.278 1374.31C436.278 1363.24 441.847 1329.15 466.582 1318.14C493.502 1306.2 521.344 1309.18 542.972 1326.35C562.693 1342.01 571.276 1370.65 578.198 1393.67C579.368 1397.54 580.475 1401.2 581.552 1404.59C588.936 1427.41 597.488 1442.21 606.995 1448.52C609.025 1449.9 610.964 1451.17 612.748 1452.33C617.793 1452.33 620.778 1452.33 620.778 1452.33L951.105 1460.18V1448.3C947.72 1447.01 937.722 1443.04 935.353 1440.64C931.907 1437.2 923.047 1402.13 931.538 1370.93C940.029 1339.73 966.887 1306.75 1001.99 1304.14C1003.84 1303.98 1005.84 1303.89 1007.84 1303.89V1303.89Z" fill="#263238"/>
<path d="M507.838 1510.91C540.309 1510.91 566.631 1471.52 566.631 1422.92C566.631 1374.33 540.309 1334.93 507.838 1334.93C475.368 1334.93 449.046 1374.33 449.046 1422.92C449.046 1471.52 475.368 1510.91 507.838 1510.91Z" fill="#787878"/>
<path d="M507.838 1512.42C474.581 1512.42 447.507 1472.42 447.507 1422.92C447.507 1373.42 474.581 1333.4 507.838 1333.4C541.095 1333.4 568.169 1373.57 568.169 1422.92C568.169 1472.27 541.095 1512.42 507.838 1512.42ZM507.838 1336.47C476.273 1336.47 450.584 1375.27 450.584 1422.92C450.584 1470.58 476.273 1509.34 507.838 1509.34C539.403 1509.34 565.092 1470.58 565.092 1422.92C565.092 1375.27 539.403 1336.47 507.838 1336.47Z" fill="#263238"/>
<path d="M507.838 1491.65C533.206 1491.65 553.771 1460.88 553.771 1422.92C553.771 1384.96 533.206 1354.19 507.838 1354.19C482.47 1354.19 461.906 1384.96 461.906 1422.92C461.906 1460.88 482.47 1491.65 507.838 1491.65Z" fill="white"/>
<path d="M507.838 1493.19C481.657 1493.19 460.367 1461.66 460.367 1422.92C460.367 1384.19 481.657 1352.65 507.838 1352.65C534.02 1352.65 555.309 1384.16 555.309 1422.92C555.309 1461.69 534.02 1493.19 507.838 1493.19ZM507.838 1355.73C483.226 1355.73 463.444 1385.88 463.444 1422.92C463.444 1459.96 483.349 1490.11 507.838 1490.11C532.327 1490.11 552.233 1459.96 552.233 1422.92C552.233 1385.88 532.327 1355.73 507.838 1355.73V1355.73Z" fill="#263238"/>
<path d="M513.591 1422.92C513.591 1427.69 511.007 1431.54 507.838 1431.54C504.669 1431.54 502.085 1427.69 502.085 1422.92C502.085 1418.15 504.669 1414.31 507.838 1414.31C511.007 1414.31 513.591 1418.31 513.591 1422.92Z" fill="white"/>
<path d="M507.838 1433.08C503.747 1433.08 500.547 1428.61 500.547 1422.92C500.547 1417.23 503.624 1412.77 507.838 1412.77C512.053 1412.77 515.13 1417.23 515.13 1422.92C515.13 1428.61 511.93 1433.08 507.838 1433.08ZM507.838 1415.85C505.562 1415.85 503.624 1419.08 503.624 1422.92C503.624 1426.77 505.562 1430 507.838 1430C510.115 1430 512.053 1426.77 512.053 1422.92C512.053 1419.08 510.115 1415.85 507.838 1415.85Z" fill="#263238"/>
<path d="M429.694 1246.82C430.033 1249.9 430.217 1260.67 430.34 1272.67C434.801 1272.2 441.939 1271.4 445.538 1270.82C450.984 1269.9 464.613 1246.73 467.351 1243.99C468.104 1243.31 468.571 1242.37 468.657 1241.36C468.743 1240.35 468.441 1239.34 467.812 1238.55H443.723L441.97 1236.98L440.77 1238.27C440.77 1238.27 428.833 1239.13 429.694 1246.82Z" fill="#92E3A9"/>
<path d="M430.34 1274.2C429.968 1274.21 429.608 1274.08 429.325 1273.84C429.167 1273.69 429.04 1273.51 428.95 1273.32C428.86 1273.12 428.81 1272.91 428.802 1272.7C428.802 1258.21 428.433 1249.53 428.156 1246.98C428.018 1245.97 428.095 1244.95 428.381 1243.98C428.668 1243.01 429.157 1242.11 429.817 1241.35C432.599 1238.71 436.207 1237.11 440.031 1236.82L440.831 1235.93C440.974 1235.79 441.145 1235.67 441.332 1235.6C441.519 1235.52 441.72 1235.48 441.924 1235.48C442.127 1235.48 442.328 1235.52 442.515 1235.6C442.703 1235.67 442.873 1235.79 443.016 1235.93L444.308 1237.1H467.813C468.036 1237.11 468.255 1237.16 468.457 1237.25C468.658 1237.35 468.837 1237.49 468.982 1237.66C469.883 1238.74 470.329 1240.13 470.225 1241.54C470.122 1242.94 469.478 1244.25 468.428 1245.19C467.72 1245.9 465.813 1248.73 463.751 1251.75C456.368 1262.64 449.938 1271.74 445.785 1272.42C442.277 1273 435.54 1273.77 430.402 1274.3L430.34 1274.2ZM431.202 1246.52C431.509 1249.07 431.725 1257.25 431.879 1270.85C436.063 1270.39 442.123 1269.68 445.292 1269.16C448.461 1268.64 457.075 1255.9 461.229 1249.81C462.75 1247.41 464.425 1245.12 466.243 1242.95C466.652 1242.62 466.942 1242.16 467.069 1241.65C467.197 1241.14 467.155 1240.6 466.951 1240.12H443.723C443.337 1240.12 442.965 1239.97 442.677 1239.72L442.093 1239.16L441.908 1239.35C441.646 1239.64 441.282 1239.81 440.893 1239.84C437.673 1240.01 434.6 1241.24 432.156 1243.35C431.779 1243.81 431.5 1244.34 431.336 1244.91C431.172 1245.48 431.126 1246.08 431.202 1246.67V1246.52Z" fill="#263238"/>
<path d="M540.326 1306.41C539.97 1306.42 539.623 1306.3 539.348 1306.08C539.072 1305.85 538.884 1305.53 538.819 1305.18C537.404 1298.66 525.159 1241.19 525.405 1235.41C525.651 1229.62 542.665 1177.29 544.603 1171.36C544.736 1170.97 545.013 1170.66 545.374 1170.47C545.735 1170.29 546.153 1170.25 546.541 1170.37C546.735 1170.43 546.915 1170.53 547.071 1170.66C547.227 1170.79 547.354 1170.95 547.446 1171.13C547.538 1171.31 547.592 1171.51 547.606 1171.71C547.62 1171.91 547.592 1172.12 547.526 1172.31C539.988 1195.51 528.666 1231.47 528.482 1235.53C528.297 1240.12 538.05 1286.91 541.803 1304.57C541.886 1304.96 541.809 1305.38 541.591 1305.72C541.372 1306.06 541.028 1306.3 540.634 1306.38L540.326 1306.41Z" fill="#263238"/>
<path d="M561.985 1261.68C557.889 1261.34 553.939 1259.99 550.479 1257.77C549.136 1256.07 548.342 1254 548.202 1251.84V1251.53C548.387 1250.05 549.033 1246.48 550.786 1245.38C551.894 1244.73 557.247 1244.3 566.723 1244.11C567.075 1244.1 567.423 1244.21 567.704 1244.42C567.985 1244.63 568.182 1244.94 568.261 1245.28C569.36 1245.49 570.469 1245.63 571.584 1245.71C575.632 1245.96 579.694 1245.62 583.644 1244.7C583.907 1244.64 584.181 1244.64 584.444 1244.7C595.55 1247.62 595.55 1250.08 595.55 1250.85C595.428 1252.73 595.045 1254.59 594.412 1256.36C594.33 1256.57 594.202 1256.77 594.037 1256.93C593.872 1257.09 593.675 1257.21 593.458 1257.28L583.767 1260.7C583.506 1260.79 583.226 1260.8 582.956 1260.75C582.686 1260.7 582.435 1260.57 582.228 1260.39C582.028 1260.21 581.88 1259.97 581.799 1259.71C581.718 1259.45 581.707 1259.18 581.767 1258.91L581.921 1258.33C575.906 1257.33 569.832 1256.73 563.739 1256.54C564.222 1257.72 564.433 1259 564.354 1260.27C564.275 1260.61 564.104 1260.92 563.86 1261.17C563.615 1261.42 563.308 1261.6 562.969 1261.68C562.643 1261.73 562.311 1261.73 561.985 1261.68ZM551.156 1251.74C551.254 1253.13 551.733 1254.46 552.54 1255.59C555.171 1257.12 558.058 1258.17 561.062 1258.67C560.779 1257.71 560.429 1256.78 560.016 1255.87C559.918 1255.66 559.866 1255.43 559.866 1255.21C559.866 1254.98 559.918 1254.75 560.016 1254.54C560.115 1254.33 560.26 1254.15 560.442 1254.01C560.623 1253.86 560.835 1253.76 561.062 1253.71C565.677 1252.64 582.044 1255.22 583.921 1255.53C584.33 1255.6 584.694 1255.84 584.936 1256.17C585.114 1256.43 585.211 1256.73 585.213 1257.04L591.612 1254.79C591.986 1253.64 592.223 1252.46 592.319 1251.25C589.721 1249.69 586.884 1248.55 583.921 1247.9C579.77 1248.87 575.496 1249.2 571.245 1248.88C567.707 1248.61 565.984 1248.21 565.246 1247.35C560.863 1247.34 556.485 1247.63 552.14 1248.21C551.637 1249.33 551.305 1250.52 551.156 1251.74Z" fill="#263238"/>
<path d="M574.538 1266.05C570.688 1266.04 566.858 1265.5 563.155 1264.45C562.766 1264.32 562.443 1264.05 562.253 1263.69C562.064 1263.33 562.023 1262.9 562.139 1262.51C562.267 1262.12 562.54 1261.8 562.902 1261.61C563.264 1261.42 563.686 1261.38 564.077 1261.5C569.194 1262.97 574.567 1263.31 579.829 1262.51C580.233 1262.44 580.648 1262.53 580.988 1262.76C581.327 1262.99 581.563 1263.34 581.644 1263.74C581.716 1264.14 581.627 1264.56 581.397 1264.89C581.166 1265.22 580.813 1265.45 580.414 1265.53C578.477 1265.89 576.509 1266.07 574.538 1266.05V1266.05Z" fill="#263238"/>
<path d="M730.117 1266.97C726.026 1266.65 722.082 1265.3 718.642 1263.07C717.285 1261.37 716.49 1259.3 716.365 1257.13C716.334 1257.03 716.334 1256.92 716.365 1256.82C716.55 1255.34 717.165 1251.78 718.919 1250.67C720.026 1249.99 725.41 1249.56 734.886 1249.41C735.227 1249.41 735.558 1249.52 735.83 1249.72C736.102 1249.93 736.3 1250.22 736.393 1250.54C737.502 1250.75 738.622 1250.89 739.747 1250.98C743.785 1251.24 747.84 1250.9 751.776 1249.96C752.039 1249.9 752.313 1249.9 752.576 1249.96C763.682 1252.88 763.682 1255.34 763.682 1256.11C763.572 1257.99 763.189 1259.85 762.544 1261.62C762.467 1261.83 762.345 1262.02 762.185 1262.18C762.026 1262.34 761.833 1262.47 761.621 1262.54L751.93 1265.93C751.672 1266.02 751.394 1266.05 751.123 1266C750.853 1265.95 750.6 1265.83 750.392 1265.65C750.183 1265.47 750.028 1265.23 749.941 1264.96C749.855 1264.7 749.84 1264.42 749.899 1264.14L750.084 1263.4C744.061 1262.39 737.976 1261.79 731.871 1261.62C732.369 1262.78 732.58 1264.05 732.486 1265.31C732.412 1265.65 732.246 1265.97 732.008 1266.22C731.77 1266.48 731.467 1266.66 731.133 1266.76C730.803 1266.87 730.463 1266.94 730.117 1266.97V1266.97ZM719.442 1257.04C719.53 1258.43 719.999 1259.77 720.796 1260.91C723.441 1262.41 726.323 1263.45 729.318 1263.99C729.039 1263.02 728.69 1262.07 728.271 1261.16C728.179 1260.95 728.134 1260.72 728.138 1260.5C728.142 1260.27 728.196 1260.04 728.296 1259.84C728.395 1259.63 728.538 1259.45 728.715 1259.31C728.891 1259.17 729.097 1259.06 729.318 1259.01C733.932 1257.93 750.33 1260.51 752.176 1260.82C752.389 1260.85 752.592 1260.93 752.772 1261.05C752.953 1261.16 753.106 1261.32 753.222 1261.5C753.381 1261.76 753.467 1262.05 753.468 1262.36L759.867 1260.08C760.252 1258.95 760.5 1257.77 760.606 1256.57C758.001 1254.99 755.153 1253.85 752.176 1253.19C748.026 1254.17 743.751 1254.5 739.501 1254.17C735.963 1253.93 734.24 1253.5 733.348 1252.64C728.965 1252.63 724.587 1252.92 720.242 1253.5C719.809 1254.63 719.539 1255.82 719.442 1257.04V1257.04Z" fill="#263238"/>
<path d="M742.67 1271.37C738.828 1271.36 735.007 1270.81 731.317 1269.74C731.123 1269.68 730.942 1269.58 730.785 1269.45C730.629 1269.32 730.5 1269.17 730.405 1268.98C730.311 1268.8 730.253 1268.61 730.235 1268.4C730.218 1268.2 730.24 1268 730.302 1267.8C730.361 1267.61 730.459 1267.43 730.59 1267.27C730.72 1267.12 730.881 1266.99 731.062 1266.9C731.243 1266.81 731.44 1266.75 731.643 1266.74C731.845 1266.73 732.049 1266.75 732.24 1266.82C737.35 1268.27 742.711 1268.6 747.961 1267.8C748.365 1267.73 748.781 1267.82 749.12 1268.05C749.459 1268.28 749.695 1268.63 749.777 1269.03C749.817 1269.23 749.816 1269.44 749.775 1269.64C749.735 1269.83 749.655 1270.02 749.54 1270.19C749.425 1270.35 749.278 1270.5 749.107 1270.6C748.936 1270.71 748.746 1270.79 748.546 1270.82C746.611 1271.2 744.642 1271.38 742.67 1271.37V1271.37Z" fill="#263238"/>
<path d="M705.875 1396.43C705.597 1396.43 705.325 1396.36 705.083 1396.23C704.84 1396.1 704.637 1395.9 704.49 1395.67C703.444 1393.88 704.49 1390.37 707.567 1381.48C709.763 1375.87 711.341 1370.03 712.274 1364.07C712.52 1360.19 710.274 1349.55 707.69 1337.21C703.899 1320.64 701.014 1303.88 699.045 1287C696.399 1257.87 707.505 1229.41 707.628 1229.1C707.779 1228.72 708.075 1228.42 708.45 1228.26C708.825 1228.1 709.249 1228.09 709.628 1228.24C710.007 1228.39 710.311 1228.69 710.473 1229.06C710.634 1229.44 710.64 1229.86 710.489 1230.24C710.489 1230.52 699.537 1258.33 702.121 1286.73C704.065 1303.49 706.93 1320.14 710.705 1336.6C713.443 1349.64 715.596 1359.95 715.35 1364.29C714.416 1370.52 712.786 1376.63 710.489 1382.5C708.95 1386.27 707.856 1390.2 707.228 1394.22C707.333 1394.39 707.403 1394.58 707.433 1394.77C707.463 1394.97 707.454 1395.17 707.405 1395.36C707.356 1395.55 707.269 1395.73 707.149 1395.89C707.029 1396.05 706.878 1396.18 706.705 1396.28C706.446 1396.4 706.16 1396.46 705.875 1396.43V1396.43Z" fill="#263238"/>
<path d="M1013.5 1510.91C1051.8 1510.91 1082.84 1471.52 1082.84 1422.92C1082.84 1374.33 1051.8 1334.93 1013.5 1334.93C975.199 1334.93 944.152 1374.33 944.152 1422.92C944.152 1471.52 975.199 1510.91 1013.5 1510.91Z" fill="#787878"/>
<path d="M1013.5 1512.42C974.395 1512.42 942.737 1472.42 942.737 1422.92C942.737 1373.42 974.518 1333.4 1013.5 1333.4C1052.48 1333.4 1084.26 1373.57 1084.26 1422.92C1084.26 1472.27 1052.63 1512.42 1013.5 1512.42ZM1013.5 1336.47C976.118 1336.47 945.814 1375.27 945.814 1422.92C945.814 1470.58 976.241 1509.34 1013.5 1509.34C1050.75 1509.34 1081.18 1470.58 1081.18 1422.92C1081.18 1375.27 1050.88 1336.47 1013.5 1336.47Z" fill="#263238"/>
<path d="M1013.5 1491.65C1043.42 1491.65 1067.67 1460.88 1067.67 1422.92C1067.67 1384.96 1043.42 1354.19 1013.5 1354.19C983.575 1354.19 959.319 1384.96 959.319 1422.92C959.319 1460.88 983.575 1491.65 1013.5 1491.65Z" fill="white"/>
<path d="M1013.5 1493.19C982.732 1493.19 957.781 1461.66 957.781 1422.92C957.781 1384.19 982.763 1352.65 1013.5 1352.65C1044.23 1352.65 1069.18 1384.16 1069.18 1422.92C1069.18 1461.69 1044.2 1493.19 1013.5 1493.19ZM1013.5 1355.73C984.455 1355.73 960.858 1385.88 960.858 1422.92C960.858 1459.96 984.455 1490.11 1013.5 1490.11C1042.54 1490.11 1066.11 1459.96 1066.11 1422.92C1066.11 1385.88 1042.51 1355.73 1013.5 1355.73V1355.73Z" fill="#263238"/>
<path d="M1014.57 1431.54C1017.94 1431.54 1020.67 1427.68 1020.67 1422.92C1020.67 1418.17 1017.94 1414.31 1014.57 1414.31C1011.21 1414.31 1008.48 1418.17 1008.48 1422.92C1008.48 1427.68 1011.21 1431.54 1014.57 1431.54Z" fill="white"/>
<path d="M1014.57 1433.08C1010.3 1433.08 1006.94 1428.61 1006.94 1422.92C1006.94 1417.23 1010.3 1412.77 1014.57 1412.77C1018.85 1412.77 1022.17 1417.23 1022.17 1422.92C1022.17 1428.61 1018.79 1433.08 1014.57 1433.08ZM1014.57 1415.85C1012.08 1415.85 1010.02 1419.08 1010.02 1422.92C1010.02 1426.77 1012.08 1430 1014.57 1430C1017.07 1430 1019.1 1426.77 1019.1 1422.92C1019.1 1419.08 1017.04 1415.85 1014.57 1415.85Z" fill="#263238"/>
<path d="M1346.13 1305.03C1346.13 1313.58 1340.47 1320.41 1333.46 1320.41C1326.44 1320.41 1320.81 1313.49 1320.81 1305.03C1320.81 1296.57 1326.47 1289.65 1333.46 1289.65C1340.44 1289.65 1346.13 1296.48 1346.13 1305.03Z" fill="white"/>
<path d="M1333.46 1322.04C1325.64 1322.04 1319.27 1314.41 1319.27 1305.03C1319.27 1295.65 1325.64 1288.02 1333.46 1288.02C1341.27 1288.02 1347.67 1295.65 1347.67 1305.03C1347.67 1314.41 1341.3 1322.04 1333.46 1322.04ZM1333.46 1291.09C1327.3 1291.09 1322.35 1297.25 1322.35 1305.03C1322.35 1312.81 1327.33 1318.97 1333.46 1318.97C1339.58 1318.97 1344.59 1312.81 1344.59 1305.03C1344.59 1297.25 1339.61 1291.09 1333.46 1291.09Z" fill="#263238"/>
<path d="M1045.34 1131.98L1039.92 1129.79C1036.17 1129.08 1032.42 1128.47 1028.91 1127.91L1076.04 1217.13H1096.04L1045.34 1131.98Z" fill="white"/>
<path d="M1076.04 1218.8C1075.76 1218.8 1075.49 1218.72 1075.25 1218.57C1075.01 1218.43 1074.82 1218.22 1074.69 1217.97L1027.56 1128.75C1027.41 1128.5 1027.34 1128.22 1027.34 1127.93C1027.34 1127.64 1027.41 1127.36 1027.56 1127.12C1027.73 1126.89 1027.96 1126.71 1028.23 1126.6C1028.49 1126.49 1028.78 1126.46 1029.06 1126.5C1032.57 1127.02 1036.32 1127.67 1040.11 1128.38C1042.14 1129.15 1043.95 1129.88 1045.86 1130.65C1046.16 1130.79 1046.41 1131.02 1046.57 1131.3L1097.27 1216.49C1097.4 1216.72 1097.47 1216.99 1097.47 1217.26C1097.47 1217.53 1097.4 1217.8 1097.27 1218.03C1097.14 1218.27 1096.94 1218.46 1096.71 1218.6C1096.48 1218.74 1096.22 1218.82 1095.95 1218.83H1075.95L1076.04 1218.8ZM1031.71 1129.92L1076.97 1215.72H1093.33L1044.29 1133.27C1042.6 1132.56 1040.97 1131.92 1039.34 1131.3C1036.88 1130.78 1034.17 1130.35 1031.71 1129.92Z" fill="#263238"/>
<path d="M1009.16 1217.5L1046.54 1217.35L1010.79 1125.58L969.995 1122.5L1009.16 1217.5Z" fill="white"/>
<path d="M1009.16 1219.04C1008.86 1219.04 1008.56 1218.95 1008.31 1218.78C1008.06 1218.61 1007.86 1218.37 1007.74 1218.09L968.58 1122.96C968.471 1122.72 968.431 1122.45 968.463 1122.18C968.496 1121.92 968.6 1121.67 968.764 1121.45C968.913 1121.24 969.118 1121.07 969.356 1120.96C969.594 1120.85 969.858 1120.81 970.118 1120.84L1010.88 1123.92C1011.17 1123.93 1011.45 1124.02 1011.69 1124.19C1011.92 1124.36 1012.1 1124.6 1012.2 1124.87L1047.95 1216.64C1048.04 1216.87 1048.08 1217.12 1048.05 1217.37C1048.02 1217.62 1047.94 1217.85 1047.8 1218.06C1047.66 1218.27 1047.48 1218.44 1047.26 1218.56C1047.03 1218.67 1046.79 1218.74 1046.54 1218.73L1009.16 1218.89V1219.04ZM972.241 1124.22L1010.05 1215.97H1044.17L1009.59 1127.18L972.241 1124.22Z" fill="#263238"/>
</svg>
