<svg width="2000" height="2000" viewBox="0 0 2000 2000" fill="none" xmlns="http://www.w3.org/2000/svg">
<path d="M1437.19 1431.16H1402.77L1402.32 1431.86C1399.37 1431.42 1396.39 1431.19 1393.41 1431.16C1351.49 1431.16 1317.49 1474.9 1317.49 1528.83C1317.49 1582.76 1351.49 1626.33 1393.41 1626.33C1396.44 1626.33 1421.33 1626.04 1424.23 1625.63L1402.77 1626.33H1437.19C1479.11 1626.33 1513.07 1582.59 1513.07 1528.66C1513.07 1474.73 1479.11 1431.16 1437.19 1431.16Z" fill="#263238" stroke="#263238" stroke-width="4.52808" stroke-linecap="round" stroke-linejoin="round"/>
<path d="M732.842 1431.16H698.463L697.966 1431.86C695.018 1431.42 692.042 1431.19 689.061 1431.16C647.144 1431.16 613.138 1474.9 613.138 1528.83C613.138 1582.76 647.144 1626.33 689.061 1626.33C692.042 1626.31 695.018 1626.07 697.966 1625.63L698.463 1626.33H732.842C774.759 1626.33 808.766 1582.59 808.766 1528.66C808.766 1474.73 774.759 1431.16 732.842 1431.16Z" fill="#263238" stroke="#263238" stroke-width="4.52808" stroke-linecap="round" stroke-linejoin="round"/>
<path d="M1764.41 1434.02H1747.84L1733.1 1330.47C1732.22 1324.36 1729.17 1318.77 1724.51 1314.73C1719.84 1310.69 1713.88 1308.47 1707.71 1308.47H1615.3L1465.11 1149.13C1457.07 1140.58 1447.37 1133.77 1436.6 1129.12C1425.83 1124.47 1414.22 1122.07 1402.48 1122.08H1004.39C995.809 1122.09 987.315 1123.84 979.422 1127.21C971.529 1130.59 964.398 1135.52 958.458 1141.72L274.692 1430.25V1552.15H1299.68L1556.98 1550.28L1747.72 1537.86V1536.99H1763.58C1764.41 1536.99 1765.22 1536.84 1765.98 1536.52C1766.75 1536.21 1767.44 1535.75 1768.02 1535.17C1768.6 1534.59 1769.06 1533.9 1769.37 1533.13C1769.69 1532.37 1769.84 1531.56 1769.84 1530.73V1439.61C1769.86 1438.88 1769.73 1438.16 1769.46 1437.49C1769.2 1436.81 1768.8 1436.2 1768.3 1435.68C1767.79 1435.16 1767.19 1434.74 1766.52 1434.46C1765.85 1434.17 1765.14 1434.02 1764.41 1434.02V1434.02Z" fill="#92E3A9" stroke="#263238" stroke-width="4.52808" stroke-linecap="round" stroke-linejoin="round"/>
<path d="M1473.19 1533.38V1550.91L1557.15 1550.28L1747.89 1537.86V1536.99H1763.58C1764.75 1536.99 1765.89 1536.66 1766.87 1536.03C1767.85 1535.41 1768.64 1534.52 1769.13 1533.47L1473.19 1533.38Z" fill="#263238" stroke="#263238" stroke-width="4.52808" stroke-linecap="round" stroke-linejoin="round"/>
<path d="M1557.15 1550.28C1558.67 1550.06 1560.06 1549.29 1561.05 1548.11C1562.04 1546.93 1562.55 1545.42 1562.5 1543.89C1562.45 1542.35 1561.83 1540.88 1560.77 1539.77C1559.7 1538.66 1558.27 1537.98 1556.73 1537.86H1460.26L1103.47 1122H1004.39C995.803 1122.02 987.306 1123.78 979.412 1127.17C971.518 1130.55 964.391 1135.5 958.458 1141.72L274.692 1430.25V1552.15H1299.68L1557.15 1550.28Z" fill="#263238" stroke="#263238" stroke-width="4.52808" stroke-linecap="round" stroke-linejoin="round"/>
<path d="M434.45 1431.16H400.03L377.498 1464.3C365.111 1483.56 358.524 1505.97 358.524 1528.87C358.524 1551.77 365.111 1574.19 377.498 1593.44L400.03 1626.58H434.45C476.368 1626.58 510.332 1582.84 510.332 1528.91C510.332 1474.98 476.368 1431.16 434.45 1431.16Z" fill="#263238" stroke="#263238" stroke-width="4.52808" stroke-linecap="round" stroke-linejoin="round"/>
<path d="M390.669 1626.5C432.601 1626.5 466.593 1582.77 466.593 1528.83C466.593 1474.89 432.601 1431.16 390.669 1431.16C348.738 1431.16 314.746 1474.89 314.746 1528.83C314.746 1582.77 348.738 1626.5 390.669 1626.5Z" fill="#636363" stroke="#263238" stroke-width="4.52808" stroke-linecap="round" stroke-linejoin="round"/>
<path d="M390.669 1606.74C424.113 1606.74 451.225 1571.86 451.225 1528.83C451.225 1485.8 424.113 1450.92 390.669 1450.92C357.224 1450.92 330.112 1485.8 330.112 1528.83C330.112 1571.86 357.224 1606.74 390.669 1606.74Z" fill="white" stroke="#263238" stroke-width="4.52808" stroke-linecap="round" stroke-linejoin="round"/>
<path d="M403.468 1528.83C403.468 1537.94 397.71 1545.4 390.669 1545.4C383.628 1545.4 377.87 1538.07 377.87 1528.83C377.87 1519.59 383.586 1512.26 390.669 1512.26C397.752 1512.26 403.468 1519.76 403.468 1528.83Z" fill="white" stroke="#263238" stroke-width="4.52808" stroke-linecap="round" stroke-linejoin="round"/>
<path d="M1200.6 1431.16H1166.22L1143.69 1464.3C1131.28 1483.55 1124.68 1505.97 1124.68 1528.87C1124.68 1551.78 1131.28 1574.19 1143.69 1593.44L1166.22 1626.58H1200.6C1242.52 1626.58 1276.52 1582.84 1276.52 1528.91C1276.52 1474.98 1242.52 1431.16 1200.6 1431.16Z" fill="#263238" stroke="#263238" stroke-width="4.52808" stroke-linecap="round" stroke-linejoin="round"/>
<path d="M1156.86 1626.5C1198.79 1626.5 1232.78 1582.77 1232.78 1528.83C1232.78 1474.89 1198.79 1431.16 1156.86 1431.16C1114.93 1431.16 1080.94 1474.89 1080.94 1528.83C1080.94 1582.77 1114.93 1626.5 1156.86 1626.5Z" fill="#636363" stroke="#263238" stroke-width="4.52808" stroke-linecap="round" stroke-linejoin="round"/>
<path d="M1156.86 1606.74C1190.31 1606.74 1217.42 1571.86 1217.42 1528.83C1217.42 1485.8 1190.31 1450.92 1156.86 1450.92C1123.42 1450.92 1096.3 1485.8 1096.3 1528.83C1096.3 1571.86 1123.42 1606.74 1156.86 1606.74Z" fill="white" stroke="#263238" stroke-width="4.52808" stroke-linecap="round" stroke-linejoin="round"/>
<path d="M1169.62 1528.83C1169.62 1537.94 1163.9 1545.4 1156.86 1545.4C1149.82 1545.4 1144.06 1538.07 1144.06 1528.83C1144.06 1519.59 1149.78 1512.26 1156.86 1512.26C1163.94 1512.26 1169.62 1519.76 1169.62 1528.83Z" fill="white" stroke="#263238" stroke-width="4.52808" stroke-linecap="round" stroke-linejoin="round"/>
<path d="M1465.11 1149.05C1463.87 1147.72 1462.54 1146.52 1461.22 1145.28H1151.1V1298.53H1606.19L1465.11 1149.05Z" fill="#263238" stroke="#263238" stroke-width="4.52808" stroke-linecap="round" stroke-linejoin="round"/>
<path d="M1500.73 1434.02H1482.67L1464.74 1308.39H1350.04L1199.86 1149.05C1191.82 1140.51 1182.12 1133.7 1171.36 1129.05C1160.6 1124.4 1148.99 1122 1137.27 1122H771.818C763.228 1122.02 754.729 1123.77 746.835 1127.16C738.94 1130.55 731.813 1135.5 725.883 1141.72L492.439 1297.75L276.598 1390.82L242.84 1436.38C234.501 1447.54 229.997 1461.09 230 1475.02V1552.31H298.136V1526.55C298.136 1463.55 343.906 1412.52 400.403 1412.52C450.77 1412.52 482.042 1453.32 489.871 1508.74L496.125 1552.15H1065.07V1526.38C1065.07 1463.38 1090.92 1412.36 1160.34 1412.36C1222.22 1412.36 1244.34 1453.15 1253.99 1508.57L1261.28 1550.28L1482.63 1537.86V1536.99H1500.69L1500.73 1434.02Z" fill="#92E3A9" stroke="#263238" stroke-width="4.52808" stroke-linecap="round" stroke-linejoin="round"/>
<path d="M727.83 1164.58L527.397 1297.62H902.044V1147.1H769.499C761.737 1147.08 754.05 1148.61 746.892 1151.61C739.734 1154.62 733.252 1159.03 727.83 1164.58V1164.58Z" fill="#263238" stroke="#263238" stroke-width="4.52808" stroke-linecap="round" stroke-linejoin="round"/>
<path d="M684.297 1297.62L803.09 1147.1H769.499C761.779 1147.11 754.138 1148.66 747.026 1151.66C739.913 1154.66 733.471 1159.05 728.078 1164.58L657.664 1211.14L589.403 1297.62H684.297Z" fill="white" stroke="#263238" stroke-width="4.52808" stroke-linecap="round" stroke-linejoin="round"/>
<path d="M901.961 1297.62V1189.51L816.677 1297.62H901.961Z" fill="white" stroke="#263238" stroke-width="4.52808" stroke-linecap="round" stroke-linejoin="round"/>
<path d="M1187.39 1171.62L1272.59 1258.6C1275.41 1261.53 1277.42 1265.14 1278.43 1269.08V1269.08C1279.27 1272.46 1279.34 1275.98 1278.62 1279.38C1277.89 1282.78 1276.41 1285.97 1274.27 1288.71C1272.13 1291.45 1269.39 1293.67 1266.26 1295.19C1263.14 1296.71 1259.7 1297.5 1256.23 1297.5H926.896V1147.1H1128.94C1139.83 1147.08 1150.61 1149.23 1160.65 1153.44C1170.69 1157.66 1179.78 1163.84 1187.39 1171.62Z" fill="#263238" stroke="#263238" stroke-width="4.52808" stroke-linecap="round" stroke-linejoin="round"/>
<path d="M1107.57 1147.1H1074.48L955.683 1297.62H988.777L1107.57 1147.1Z" fill="white" stroke="#263238" stroke-width="4.52808" stroke-linecap="round" stroke-linejoin="round"/>
<path d="M927.062 1157.74V1277.95L1030.32 1147.1H935.47L927.062 1157.74Z" fill="white" stroke="#263238" stroke-width="4.52808" stroke-linecap="round" stroke-linejoin="round"/>
<path d="M1464.74 1308.39H1707.75C1713.92 1308.39 1719.89 1310.61 1724.55 1314.65C1729.21 1318.69 1732.26 1324.28 1733.14 1330.38L1747.89 1433.93H1482.8L1464.74 1308.39Z" fill="#92E3A9" stroke="#263238" stroke-width="4.52808" stroke-linecap="round" stroke-linejoin="round"/>
<path d="M1695.45 1365.05H1580.18V1412.4H1695.45V1365.05Z" fill="white" stroke="#263238" stroke-width="4.52808" stroke-linecap="round" stroke-linejoin="round"/>
<path d="M1760.56 1453.4H1266.71" stroke="#263238" stroke-width="4.52808" stroke-linecap="round" stroke-linejoin="round"/>
<path d="M1046.02 1453.4H498.693" stroke="#263238" stroke-width="4.52808" stroke-linecap="round" stroke-linejoin="round"/>
<path d="M316.983 1453.4H254.355" stroke="#263238" stroke-width="4.52808" stroke-linecap="round" stroke-linejoin="round"/>
<path d="M1560.25 1365.8H1451.36C1446.33 1365.8 1441.39 1367.2 1437.11 1369.85C1432.83 1372.5 1429.38 1376.29 1427.13 1380.79L1408.9 1417.24C1408.07 1418.91 1407.68 1420.77 1407.76 1422.63C1407.85 1424.5 1408.41 1426.31 1409.39 1427.89C1410.38 1429.48 1411.75 1430.79 1413.38 1431.69C1415.02 1432.6 1416.85 1433.07 1418.72 1433.06H1560.25V1365.8Z" fill="white" stroke="#263238" stroke-width="4.52808" stroke-linecap="round" stroke-linejoin="round"/>
<path d="M1560.25 1365.8H1472.52L1482.09 1433.11H1560.25V1365.8Z" fill="#263238" stroke="#263238" stroke-width="4.52808" stroke-linecap="round" stroke-linejoin="round"/>
<path d="M1737.78 1365.8H1711.19L1710.86 1433.11H1747.35L1737.78 1365.8Z" fill="#263238" stroke="#263238" stroke-width="4.52808" stroke-linecap="round" stroke-linejoin="round"/>
<path d="M551.338 1266.27H498.03C493.455 1266.27 489.746 1269.98 489.746 1274.55V1317.13C489.746 1321.71 493.455 1325.41 498.03 1325.41H551.338C555.913 1325.41 559.622 1321.71 559.622 1317.13V1274.55C559.622 1269.98 555.913 1266.27 551.338 1266.27Z" fill="#263238" stroke="#263238" stroke-width="4.52808" stroke-linecap="round" stroke-linejoin="round"/>
<path d="M893.014 1325.41H825.789V1352.3H893.014V1325.41Z" fill="#263238" stroke="#263238" stroke-width="4.52808" stroke-linecap="round" stroke-linejoin="round"/>
<path d="M909.127 1314.65V1518.97" stroke="#263238" stroke-width="4.52808" stroke-linecap="round" stroke-linejoin="round"/>
<path d="M454.704 1406.06C454.704 1406.06 503.911 1433.85 510.207 1528.83H1032.81" stroke="#263238" stroke-width="4.52808" stroke-linecap="round" stroke-linejoin="round"/>
<path d="M1280.13 1446.4C1280.13 1446.4 1254.41 1379.18 1168.29 1379.18C1108.28 1379.18 1079.53 1410.74 1065.16 1435.63" stroke="#263238" stroke-width="4.52808" stroke-linecap="round" stroke-linejoin="round"/>
<path d="M1344.43 978.648V967.758C1344.43 911.68 1415.43 909.242 1415.43 869.321C1415.43 851.994 1401.32 840.681 1380.32 840.681C1357.34 840.681 1342.81 853.197 1342.81 870.947V875.401C1342.81 879.822 1340.4 881.902 1335.95 881.902L1292.81 880.277C1288.78 880.277 1285.95 878.261 1285.95 875.466V871.012C1285.95 822.249 1324.67 788.732 1381.56 788.732C1437.21 788.732 1473.1 820.201 1473.1 867.371C1473.1 934.339 1400.9 934.761 1400.9 971.399V978.648C1401.01 979.575 1400.91 980.515 1400.6 981.397C1400.3 982.279 1399.79 983.081 1399.13 983.741C1398.47 984.401 1397.67 984.903 1396.79 985.209C1395.91 985.515 1394.97 985.617 1394.04 985.507H1351.29C1350.36 985.617 1349.42 985.515 1348.54 985.209C1347.66 984.903 1346.86 984.401 1346.2 983.741C1345.54 983.081 1345.04 982.279 1344.73 981.397C1344.42 980.515 1344.32 979.575 1344.43 978.648V978.648ZM1340.79 1043.67C1340.79 1025.92 1356.53 1011.38 1375.48 1011.38C1393.65 1011.38 1409.77 1025.92 1409.77 1043.67C1409.77 1061.42 1393.52 1075.95 1375.09 1075.95C1356.66 1075.95 1340.79 1061.35 1340.79 1043.6V1043.67Z" fill="#263238"/>
<path d="M640.114 726.501V717.041C640.114 668.278 701.88 666.23 701.88 631.543C701.88 616.459 689.624 606.674 671.42 606.674C651.427 606.674 638.911 617.532 638.911 632.941V636.809C638.911 640.645 636.83 642.401 632.962 642.401L595.479 641.003C591.968 641.003 589.53 639.248 589.53 636.809V632.941C589.53 590.68 623.144 561.422 672.557 561.422C720.898 561.422 752.106 588.762 752.106 629.69C752.106 687.848 689.364 688.206 689.364 720.097V726.403C689.458 727.207 689.369 728.022 689.103 728.786C688.837 729.551 688.402 730.245 687.829 730.817C687.257 731.39 686.563 731.825 685.798 732.091C685.034 732.357 684.219 732.446 683.415 732.352H646.063C645.268 732.444 644.463 732.356 643.706 732.095C642.95 731.835 642.261 731.409 641.691 730.847C641.12 730.286 640.683 729.605 640.41 728.853C640.137 728.101 640.036 727.297 640.114 726.501V726.501ZM636.863 782.903C636.863 767.494 650.517 754.881 666.966 754.881C682.733 754.881 696.776 767.494 696.776 782.903C696.776 798.313 682.733 810.926 666.641 810.926C658.996 811.119 651.586 808.281 646.026 803.031C640.466 797.782 637.207 790.546 636.96 782.903H636.863Z" fill="#92E3A9"/>
<path d="M1242.8 599.526V594.748C1242.8 570.138 1273.95 569.066 1273.95 551.544C1273.95 543.937 1267.74 538.963 1258.54 538.963C1248.46 538.963 1242.09 544.457 1242.09 552.259V554.209C1242.09 556.16 1241.02 557.038 1239.07 557.038L1220.15 556.322C1218.36 556.322 1217.12 555.445 1217.12 554.209V552.259C1217.12 530.836 1234.13 516.142 1259.09 516.142C1283.51 516.142 1299.27 529.958 1299.27 550.666C1299.27 579.924 1267.58 580.216 1267.58 596.178V599.429C1267.62 599.836 1267.58 600.249 1267.44 600.635C1267.31 601.022 1267.09 601.373 1266.79 601.662C1266.5 601.95 1266.15 602.168 1265.76 602.299C1265.37 602.431 1264.96 602.472 1264.55 602.42H1245.8C1245.4 602.47 1245 602.431 1244.62 602.305C1244.24 602.179 1243.89 601.969 1243.61 601.691C1243.32 601.413 1243.1 601.075 1242.96 600.7C1242.82 600.325 1242.77 599.924 1242.8 599.526V599.526ZM1241.21 628.036C1241 624.997 1241.71 621.965 1243.25 619.334C1244.79 616.704 1247.08 614.597 1249.83 613.288C1252.59 611.978 1255.67 611.527 1258.68 611.993C1261.69 612.458 1264.49 613.819 1266.72 615.898C1268.94 617.977 1270.49 620.679 1271.17 623.651C1271.84 626.622 1271.6 629.728 1270.48 632.562C1269.37 635.397 1267.42 637.83 1264.9 639.545C1262.38 641.26 1259.41 642.177 1256.36 642.178C1254.44 642.247 1252.52 641.936 1250.71 641.263C1248.91 640.589 1247.26 639.566 1245.85 638.252C1244.44 636.938 1243.31 635.36 1242.51 633.607C1241.72 631.854 1241.27 629.961 1241.21 628.036Z" fill="#92E3A9"/>
<path d="M570.354 1024.21V1018.19C570.354 987.181 609.624 985.848 609.624 963.743C609.624 954.152 601.822 947.911 590.119 947.911C577.408 947.911 569.379 954.835 569.379 964.653V967.091C569.379 969.562 568.046 970.667 565.575 970.667L541.714 969.789C539.471 969.789 537.91 968.651 537.91 967.091V964.653C537.91 937.671 559.333 919.141 590.802 919.141C621.587 919.141 641.418 936.533 641.418 962.637C641.418 999.665 601.497 999.892 601.497 1020.21V1024.21C601.56 1024.72 601.505 1025.25 601.336 1025.74C601.168 1026.23 600.889 1026.67 600.523 1027.04C600.156 1027.4 599.711 1027.68 599.221 1027.85C598.73 1028.02 598.208 1028.08 597.694 1028.01H574.092C573.583 1028.06 573.068 1028 572.586 1027.83C572.104 1027.65 571.667 1027.37 571.308 1027.01C570.949 1026.64 570.677 1026.2 570.512 1025.72C570.347 1025.23 570.293 1024.72 570.354 1024.21V1024.21ZM568.338 1060.13C568.084 1056.3 568.988 1052.48 570.934 1049.17C572.879 1045.87 575.776 1043.22 579.247 1041.58C582.717 1039.94 586.601 1039.38 590.392 1039.98C594.184 1040.58 597.707 1042.31 600.504 1044.94C603.301 1047.56 605.241 1050.97 606.072 1054.72C606.904 1058.47 606.588 1062.38 605.166 1065.95C603.744 1069.51 601.281 1072.57 598.099 1074.71C594.916 1076.86 591.162 1078 587.323 1077.98C582.431 1078.14 577.676 1076.34 574.104 1073C570.532 1069.65 568.434 1065.02 568.273 1060.13H568.338Z" stroke="#263238" stroke-width="3.05821" stroke-miterlimit="10"/>
<path d="M895.967 496.035V491.907C895.967 470.581 922.982 469.638 922.982 454.457C922.982 447.955 917.618 443.566 909.621 443.566C900.876 443.566 895.349 448.313 895.349 455.074V456.765C895.349 458.455 894.439 459.203 892.749 459.203L876.494 458.585C874.966 458.585 873.894 457.838 873.894 456.765V455.074C873.894 436.512 888.62 423.769 910.238 423.769C931.856 423.769 944.73 435.732 944.73 453.677C944.73 479.163 917.26 479.326 917.26 493.272V496.035C917.302 496.387 917.263 496.743 917.147 497.078C917.032 497.413 916.841 497.716 916.591 497.967C916.341 498.217 916.037 498.408 915.702 498.523C915.368 498.639 915.011 498.678 914.659 498.636H898.405C898.066 498.652 897.728 498.595 897.414 498.468C897.1 498.34 896.817 498.146 896.585 497.899C896.353 497.652 896.178 497.357 896.071 497.035C895.964 496.713 895.929 496.372 895.967 496.035V496.035ZM894.602 520.742C894.458 518.144 895.098 515.564 896.437 513.333C897.776 511.103 899.753 509.325 902.113 508.231C904.473 507.136 907.107 506.774 909.675 507.192C912.243 507.61 914.626 508.789 916.517 510.576C918.407 512.362 919.719 514.675 920.281 517.215C920.844 519.755 920.631 522.405 919.672 524.823C918.712 527.241 917.049 529.316 914.898 530.779C912.747 532.242 910.206 533.026 907.605 533.03C904.247 533.144 900.982 531.921 898.525 529.629C896.069 527.337 894.623 524.164 894.504 520.807L894.602 520.742Z" fill="#263238"/>
<path d="M863.578 1113.57L858.044 1125.65C858.044 1125.65 825.896 1129.11 825.896 1131.52C825.896 1133.93 826.24 1150.54 827.988 1151.23C829.316 1151.74 830.79 1151.74 832.119 1151.23L879.467 1139.12L883.969 1117.7L863.578 1113.57Z" fill="white" stroke="#263238" stroke-width="2.49119" stroke-linecap="round" stroke-linejoin="round"/>
<path d="M854.575 1135.15C848.695 1139.97 842.353 1144.19 835.641 1147.76C827.988 1151.2 827.696 1156.42 830.133 1156.42C832.569 1156.42 854.178 1147.36 854.178 1147.36C854.178 1147.36 873.8 1142.22 876.634 1140.66C879.467 1139.1 879.785 1130.41 879.785 1130.41" fill="white"/>
<path d="M854.575 1135.15C848.695 1139.97 842.353 1144.19 835.641 1147.76C827.988 1151.2 827.696 1156.42 830.133 1156.42C832.569 1156.42 854.178 1147.36 854.178 1147.36C854.178 1147.36 873.8 1142.22 876.634 1140.66C879.467 1139.1 879.785 1130.41 879.785 1130.41" stroke="#263238" stroke-width="2.49119" stroke-linecap="round" stroke-linejoin="round"/>
<path d="M891.86 881.541L872.105 1032.96L858.361 1114.95L888.868 1122.15L911.615 1025.18L922.393 964.136L891.86 881.541Z" fill="#7D7D7D" stroke="#263238" stroke-width="2.49119" stroke-linecap="round" stroke-linejoin="round"/>
<path d="M1051.28 771.91L1039.23 770.003L1014.55 760.655L1013.65 789.97L1051.91 793.492L1051.28 771.91Z" fill="white" stroke="#263238" stroke-width="2.49119" stroke-linecap="round" stroke-linejoin="round"/>
<path d="M910.423 1308.87C901.443 1319.34 893.053 1330.3 885.293 1341.71C875.097 1357.28 878.699 1374.01 891.277 1378.22C903.856 1382.43 919.983 1371.02 924.194 1362.04C928.404 1353.07 927.186 1348.3 933.753 1339.32C940.321 1330.35 945.723 1321.37 943.34 1309.4C940.956 1297.43 916.885 1300.5 910.423 1308.87Z" fill="#7D7D7D" stroke="#263238" stroke-width="2.49119" stroke-linecap="round" stroke-linejoin="round"/>
<path d="M922.975 1364.29C922.127 1362.49 921.148 1360.59 919.982 1358.55C910.37 1341.63 893.501 1342.98 882.909 1346.13C875.944 1360.35 879.916 1374.49 891.33 1378.3C902.743 1382.11 917.467 1372.79 922.975 1364.29Z" fill="white" stroke="#263238" stroke-width="2.49119" stroke-linecap="round" stroke-linejoin="round"/>
<path d="M919.983 1358.55C916.409 1363.84 911.615 1378.3 893.052 1372.32C887.876 1370.99 883.245 1368.07 879.812 1363.98C880.213 1367.21 881.509 1370.26 883.554 1372.79C885.599 1375.32 888.311 1377.23 891.384 1378.3C903.936 1382.49 920.089 1371.1 924.3 1362.12C928.51 1353.15 927.292 1348.38 933.86 1339.4C940.427 1330.42 945.829 1321.45 943.446 1309.48C943.446 1323.83 938.15 1326.21 931.476 1334C924.803 1341.78 923.585 1353.15 919.983 1358.55Z" fill="white" stroke="#263238" stroke-width="2.49119" stroke-linecap="round" stroke-linejoin="round"/>
<path d="M1087.03 1308.87C1096.01 1319.34 1104.4 1330.3 1112.16 1341.71C1122.35 1357.28 1118.75 1374.01 1106.17 1378.22C1093.59 1382.43 1077.47 1371.02 1073.26 1362.04C1069.05 1353.07 1070.26 1348.3 1063.7 1339.32C1057.13 1330.35 1051.73 1321.37 1054.11 1309.4C1056.49 1297.43 1080.46 1300.5 1087.03 1308.87Z" fill="#7D7D7D" stroke="#263238" stroke-width="2.49119" stroke-linecap="round" stroke-linejoin="round"/>
<path d="M1074.5 1364.29C1075.32 1362.49 1076.3 1360.59 1077.47 1358.55C1087.08 1341.63 1103.95 1342.98 1114.54 1346.13C1121.51 1360.35 1117.53 1374.49 1106.12 1378.3C1094.71 1382.11 1079.98 1372.79 1074.5 1364.29Z" fill="white" stroke="#263238" stroke-width="2.49119" stroke-linecap="round" stroke-linejoin="round"/>
<path d="M1077.47 1358.55C1081.04 1363.84 1085.83 1378.3 1104.4 1372.32C1109.57 1370.99 1114.2 1368.07 1117.64 1363.98C1117.24 1367.21 1115.94 1370.26 1113.9 1372.79C1111.85 1375.32 1109.14 1377.23 1106.07 1378.3C1093.51 1382.49 1077.36 1371.1 1073.15 1362.12C1068.94 1353.15 1070.16 1348.38 1063.59 1339.4C1057.02 1330.42 1051.62 1321.45 1054 1309.48C1054 1323.83 1059.3 1326.21 1065.97 1334C1072.65 1341.78 1073.87 1353.15 1077.47 1358.55Z" fill="white" stroke="#263238" stroke-width="2.49119" stroke-linecap="round" stroke-linejoin="round"/>
<path d="M1115.1 1102.39C1115.1 1091.62 1096.56 1079.65 1096.56 1079.65C1068.62 1051.23 1018.2 1054.99 999.585 1057.54C981.048 1054.89 930.575 1051.23 902.637 1079.65C902.637 1079.65 884.101 1091.62 884.101 1102.39C884.101 1113.17 907.457 1307.68 907.457 1307.68C907.457 1307.68 906.848 1317.85 923.611 1319.04C940.373 1320.23 947.444 1310.67 947.444 1310.67L954.037 1146.09C954.037 1146.09 980.969 1126.92 985.815 1126.33C987.563 1126.1 989.84 1125.72 992.382 1125.41V1125.72C997.124 1124.74 1002.02 1124.74 1006.76 1125.72V1125.41C1009.41 1125.72 1011.55 1126.1 1013.33 1126.33C1018.12 1126.92 1045.11 1146.09 1045.11 1146.09L1051.7 1310.67C1051.7 1310.67 1058.88 1320.23 1075.53 1319.04C1092.19 1317.85 1091.69 1307.68 1091.69 1307.68C1091.69 1307.68 1115.1 1113.17 1115.1 1102.39Z" fill="#263238" stroke="#263238" stroke-width="2.49119" stroke-linecap="round" stroke-linejoin="round"/>
<path d="M1045.08 1146.09C1045.08 1146.09 1041.48 1106.58 1058.85 1091.62" stroke="#707070" stroke-width="2.49119" stroke-linecap="round" stroke-linejoin="round"/>
<path d="M954.117 1146.09C954.117 1146.09 955.918 1113.17 952.317 1101.2C948.715 1089.23 942.73 1084.44 942.73 1084.44" stroke="#707070" stroke-width="2.49119" stroke-linecap="round" stroke-linejoin="round"/>
<path d="M976.255 1067.68C976.255 1067.68 995.401 1089.82 999.002 1108.38" stroke="#707070" stroke-width="2.49119" stroke-linecap="round" stroke-linejoin="round"/>
<path d="M1018.15 1068.95C1018.15 1068.95 1007.37 1080.92 1006.18 1089.9" stroke="#707070" stroke-width="2.49119" stroke-linecap="round" stroke-linejoin="round"/>
<path d="M991.217 836.074C991.217 836.074 973.872 833.664 967.887 839.649C961.902 845.634 941.538 867.693 941.538 867.693L952.316 1058.01C952.316 1058.01 976.864 1067.6 997.811 1067.6C1018.76 1067.6 1042.7 1059.81 1048.12 1055.63C1053.55 1051.45 1048.73 847.355 1048.73 847.355C1048.73 847.355 1004.27 834.274 991.217 836.074Z" fill="#92E3A9" stroke="#263238" stroke-width="2.49119" stroke-linecap="round" stroke-linejoin="round"/>
<path d="M1022.94 840.258C1032.05 838.874 1041.24 838.069 1050.46 837.848C1062.43 837.848 1074.29 838.457 1074.29 838.457L1104.21 809.725L1044 795.955L1048.79 768.441C1048.79 768.441 1093.07 765.448 1115.2 769.632C1137.34 773.816 1172.06 784.594 1173.86 784.594C1175.66 784.594 1178.04 791.188 1176.24 795.955C1174.44 800.721 1118.14 863.005 1101.33 879.159C1090.33 889.939 1079.94 901.326 1070.21 913.266L1062.53 1046.73C1062.53 1046.73 1082.29 1057.51 1085.89 1061.08C1089.49 1064.66 1093.67 1079.04 1093.67 1079.04C1093.67 1079.04 1057.16 1064.08 1047.57 1062.89C1037.98 1061.69 1032.03 1061.08 1030.23 1057.59C1028.42 1054.09 1013.46 894.2 1013.46 894.2L1014.07 843.33C1014.07 843.33 1013.97 840.258 1022.94 840.258Z" fill="#7D7D7D" stroke="#263238" stroke-width="2.49119" stroke-linecap="round" stroke-linejoin="round"/>
<path d="M1058.85 922.243L1026.52 926.427L1029.51 938.397L1045.69 942.581L1061.23 935.404L1058.85 922.243Z" stroke="#263238" stroke-width="2.49119" stroke-linecap="round" stroke-linejoin="round"/>
<path d="M1077.39 850.426L1070.21 913.266L1088.77 860.012" stroke="#263238" stroke-width="2.49119" stroke-linecap="round" stroke-linejoin="round"/>
<path d="M1104.32 809.724C1104.32 809.724 1119.28 812.716 1142.03 803.739" stroke="#263238" stroke-width="2.49119" stroke-linecap="round" stroke-linejoin="round"/>
<path d="M1119.89 813.909C1129.72 814.182 1139.55 813.383 1149.21 811.525" stroke="#263238" stroke-width="2.49119" stroke-linecap="round" stroke-linejoin="round"/>
<path d="M970.88 835.465L973.872 879.159C976.6 882.747 980.132 885.644 984.184 887.617C988.237 889.59 992.696 890.584 997.202 890.519C1012.16 889.937 1013.96 879.159 1013.96 879.159V843.25L970.88 835.465Z" fill="white" stroke="#263238" stroke-width="2.49119" stroke-linecap="round" stroke-linejoin="round"/>
<path d="M1014.55 858.211L1013.36 894.173L1025.93 874.418C1025.93 874.418 1039.7 891.763 1043.28 891.18C1046.85 890.598 1040.9 883.395 1039.7 876.828C1038.51 870.26 1028.32 846.877 1027.13 840.31C1025.93 833.743 1014.55 832.525 1013.89 835.517C1013.55 838.102 1013.55 840.718 1013.89 843.302L1014.55 858.211Z" fill="#7D7D7D" stroke="#263238" stroke-width="2.49119" stroke-linecap="round" stroke-linejoin="round"/>
<path d="M973.263 890.518C973.263 890.518 975.647 1058.09 969.662 1060C963.677 1061.9 939.738 1062.41 924.644 1069.58C909.549 1076.76 902.506 1079.75 902.506 1079.75C902.506 1079.75 909.682 1062.41 918.076 1054.62C923.656 1049.61 929.892 1045.38 936.613 1042.04L921.069 961.859C921.069 961.859 892.337 885.831 891.728 881.647C891.119 877.463 946.199 846.348 957.56 840.946C968.92 835.544 971.939 840.363 971.939 840.363L973.263 890.518Z" fill="#7D7D7D" stroke="#263238" stroke-width="2.49119" stroke-linecap="round" stroke-linejoin="round"/>
<path d="M958.302 832.471C958.302 832.471 943.949 877.966 942.731 883.951C941.513 889.936 942.731 889.936 946.941 885.725C951.152 881.515 961.903 871.372 961.903 871.372L973.264 890.518L972.654 855.219V834.855C972.654 834.855 972.072 826.487 958.302 832.471Z" fill="#7D7D7D" stroke="#263238" stroke-width="2.49119" stroke-linecap="round" stroke-linejoin="round"/>
<path d="M930.178 930.639H965.478L964.895 944.991L949.324 950.367L929.569 944.991L930.178 930.639Z" stroke="#263238" stroke-width="2.49119" stroke-linecap="round" stroke-linejoin="round"/>
<path d="M1027.13 773.233C1027.13 773.233 1035.49 809.725 1037.3 815.603C1039.1 821.482 1027.74 844.945 1024.05 850.32C1022.65 852.652 1020.73 854.623 1018.43 856.076C1016.13 857.529 1013.52 858.424 1010.81 858.688C1006.63 858.688 983.883 850.929 978.48 847.328C973.078 843.726 967.729 839.542 967.729 839.542C965.183 840.703 962.354 841.096 959.588 840.673C956.822 840.249 954.24 839.028 952.158 837.159C944.982 830.565 935.395 822.78 937.779 817.404C938.94 814.766 940.883 812.549 943.346 811.052C945.809 809.555 948.673 808.852 951.549 809.036C958.143 809.036 955.759 808.427 955.759 808.427C955.759 808.427 943.79 791.082 943.79 777.312C943.79 763.541 969.503 753.479 984.465 753.479C994.81 753.91 1004.97 756.347 1014.39 760.655L1027.13 773.233Z" fill="white" stroke="#263238" stroke-width="2.49119" stroke-linecap="round" stroke-linejoin="round"/>
<path d="M1006.18 786.977L1016.96 807.341L1006.18 814.517L1001.39 808.532" stroke="#263238" stroke-width="2.49119" stroke-linecap="round" stroke-linejoin="round"/>
<path d="M1025.93 805.54C1025.93 805.54 1026.52 810.333 1019.34 818.119" stroke="#263238" stroke-width="2.49119" stroke-linecap="round" stroke-linejoin="round"/>
<path d="M994.819 794.471C994.819 797.278 993.601 799.555 992.171 799.555C990.741 799.555 989.522 797.278 989.522 794.471C989.522 791.664 990.741 789.387 992.171 789.387C993.601 789.387 994.819 791.664 994.819 794.471Z" fill="#263238"/>
<path d="M1013.65 789.97C1015.14 789.97 1016.35 787.693 1016.35 784.885C1016.35 782.077 1015.14 779.801 1013.65 779.801C1012.15 779.801 1010.95 782.077 1010.95 784.885C1010.95 787.693 1012.15 789.97 1013.65 789.97Z" fill="#263238"/>
<path d="M962.485 742.092C962.485 742.092 924.829 755.862 923.584 773.234C922.34 790.605 957.11 814.518 958.91 817.51C960.711 820.503 966.087 813.909 966.087 813.909C964.89 812.301 964.055 810.453 963.639 808.492C963.223 806.531 963.236 804.504 963.677 802.548C965.478 796.564 973.263 789.308 973.263 786.395C973.263 783.482 964.286 788.778 964.286 779.801C964.286 770.824 986.424 765.448 999.585 766.031C1012.75 766.613 1024.13 788.778 1033.72 778C1043.31 767.222 1029.51 764.256 1029.51 764.256C1029.51 764.256 1048.05 761.847 1048.05 752.287C1048.05 742.727 1038.46 736.107 1034.28 736.107C1030.09 736.107 1018.73 743.31 1018.73 735.524C1018.73 727.739 1030.09 724.137 1019.31 711.691C1008.54 699.245 994.792 711.691 994.792 716.484C994.792 721.277 991.191 730.228 988.808 730.228C986.424 730.228 979.221 719.477 970.853 725.462C968.337 727.462 966.286 729.985 964.841 732.857C963.396 735.728 962.592 738.879 962.485 742.092V742.092Z" fill="#263238" stroke="#263238" stroke-width="2.49119" stroke-linecap="round" stroke-linejoin="round"/>
<path d="M978.057 788.195L997.203 780.992" stroke="#263238" stroke-width="2.49119" stroke-linecap="round" stroke-linejoin="round"/>
<path d="M1000.2 772.625C999.829 770.747 1000.13 768.799 1001.04 767.117" stroke="#263238" stroke-width="2.49119" stroke-linecap="round" stroke-linejoin="round"/>
<path d="M1001.04 767.063C1002.39 764.415 1005.44 760.999 1012.16 758.219" stroke="white" stroke-width="2.49119" stroke-linecap="round" stroke-linejoin="round"/>
</svg>
