<svg width="2000" height="2000" viewBox="0 0 2000 2000" fill="none" xmlns="http://www.w3.org/2000/svg">
<g clip-path="url(#clip0_796_453)">
<path d="M1366.51 1530.8H1618.75C1613.85 1499.96 1594.27 1505.4 1591.48 1457.38C1590.16 1433.3 1612.43 1403.53 1610.47 1371.86C1608.91 1345.82 1583.21 1319.1 1581.11 1289.29C1579.34 1262.41 1601.22 1232.55 1599.12 1203.58C1597.11 1176.17 1571.07 1149.73 1568.77 1121.39C1566.47 1093.05 1588.01 1063.44 1585.46 1035.34C1582.92 1007.24 1556.44 981.494 1553.6 953.74C1550.71 925.251 1571.51 894.609 1568.28 867.394C1564.9 838.465 1537.59 813.549 1534.02 786.823C1529.86 757.16 1549.19 725.441 1544.69 699.84C1539.16 668.464 1509.93 645.751 1503.77 622.598C1492.31 579.474 1493.98 537.867 1480.22 535.175C1465.78 532.287 1462.5 573.013 1451.59 618.389C1446.05 641.297 1417.32 664.499 1412.82 695.875C1409 721.329 1429.22 752.216 1425.89 781.781C1422.95 808.263 1396.52 833.667 1393.73 862.45C1391.33 889.519 1412.92 919.329 1410.76 947.621C1408.71 975.131 1382.91 1001.47 1381.1 1029.27C1379.29 1057.07 1401.61 1086.44 1400.09 1114.05C1398.57 1141.66 1373.17 1168.97 1371.9 1196.19C1370.53 1224.92 1393.19 1253.95 1392.11 1280.62C1390.89 1309.99 1365.88 1337.31 1364.95 1363.15C1363.82 1394.53 1386.87 1423.46 1386.19 1447.34C1384.62 1499.18 1360.88 1488.46 1360.05 1530.17L1366.51 1530.8Z" fill="#92E3A9"/>
<path d="M1474.79 618.291V1519.15" stroke="#263238" stroke-width="0.0764832" stroke-miterlimit="10"/>
<path d="M1514.19 712.715L1473.12 748.203L1439.5 703.365" stroke="#263238" stroke-width="0.0764832" stroke-miterlimit="10"/>
<path d="M1514.19 869.547L1473.12 904.986L1439.5 860.197" stroke="#263238" stroke-width="0.0764832" stroke-miterlimit="10"/>
<path d="M1514.19 1016.98L1473.12 1052.47L1439.5 1007.68" stroke="#263238" stroke-width="0.0764832" stroke-miterlimit="10"/>
<path d="M1514.19 1192.47L1473.12 1227.95L1439.5 1183.17" stroke="#263238" stroke-width="0.0764832" stroke-miterlimit="10"/>
<path d="M1514.19 1369.81L1473.12 1405.3L1439.5 1360.51" stroke="#263238" stroke-width="0.0764832" stroke-miterlimit="10"/>
<path d="M1101.21 1530.8H1319.96C1315.75 1504.08 1298.57 1508.78 1296.27 1467.17C1295.14 1446.27 1314.48 1420.42 1312.81 1393.01C1311.4 1370.44 1289.12 1347.24 1287.41 1321.4C1285.84 1298.1 1304.88 1272.2 1303.02 1247.04C1301.26 1223.3 1278.55 1200.49 1276.69 1175.82C1274.83 1151.15 1293.38 1125.55 1291.37 1101.18C1289.37 1076.8 1266.17 1054.43 1263.77 1030.44C1261.22 1005.72 1279.24 979.145 1276.49 955.551C1273.56 930.44 1249.91 908.805 1246.68 885.701C1243.11 859.953 1259.9 832.444 1255.98 810.27C1251.09 783.054 1225.83 763.328 1220.5 743.258C1210.71 705.861 1211.83 669.835 1200.08 667.485C1187.55 664.94 1184.71 700.281 1175.22 739.832C1170.32 759.412 1145.85 779.775 1141.64 806.99C1138.31 829.066 1155.83 855.94 1152.95 881.491C1150.4 904.448 1127.35 926.475 1125.09 951.439C1122.99 974.886 1141.69 1000.78 1139.78 1025.3C1137.87 1049.83 1115.65 1071.9 1114.08 1096.08C1112.51 1120.27 1131.85 1145.67 1130.53 1169.51C1129.21 1193.35 1107.18 1217.14 1106.05 1240.73C1104.88 1265.69 1124.56 1290.85 1123.58 1314.15C1122.55 1339.8 1100.86 1363.1 1100.08 1385.72C1099.1 1412.93 1119.07 1438.04 1118.49 1458.75C1117.12 1503.68 1096.56 1494.38 1095.82 1530.56L1101.21 1530.8Z" fill="#92E3A9"/>
<path d="M1194.99 739.49V1520.72" stroke="#263238" stroke-width="0.0764832" stroke-miterlimit="10"/>
<path d="M1229.16 821.381L1193.57 852.17L1164.4 813.305" stroke="#263238" stroke-width="0.0764832" stroke-miterlimit="10"/>
<path d="M1229.16 957.363L1193.57 988.152L1164.4 949.286" stroke="#263238" stroke-width="0.0764832" stroke-miterlimit="10"/>
<path d="M1229.16 1085.27L1193.57 1116.01L1164.4 1077.19" stroke="#263238" stroke-width="0.0764832" stroke-miterlimit="10"/>
<path d="M1229.16 1237.45L1193.57 1268.19L1164.4 1229.32" stroke="#263238" stroke-width="0.0764832" stroke-miterlimit="10"/>
<path d="M1229.16 1391.2L1193.57 1421.99L1164.4 1383.12" stroke="#263238" stroke-width="0.0764832" stroke-miterlimit="10"/>
<path d="M331.138 1530.8H635.406C629.581 1493.6 605.645 1500.16 602.464 1442.69C600.897 1413.62 627.77 1377.69 625.421 1339.56C623.512 1308.13 592.527 1275.92 590.128 1239.95C587.975 1207.49 614.603 1171.42 611.862 1136.52C609.414 1103.48 577.989 1071.76 575.248 1037.39C572.507 1003.91 598.401 967.544 595.366 933.622C592.331 899.7 560.318 868.617 556.941 835.234C553.465 800.969 578.527 763.915 574.709 731.021C570.598 696.169 537.704 666.016 533.249 633.857C528.354 598.075 551.605 559.846 546.123 528.959C539.466 491.121 504.223 463.709 496.782 435.955C482.979 383.922 484.692 333.749 468.392 330.47C450.966 326.994 447.001 376.188 433.834 431.109C427.176 458.717 392.716 486.715 387.087 524.553C382.486 555.244 406.667 592.544 402.849 628.179C399.275 660.094 367.214 690.785 364.081 725.49C361.144 758.09 387.185 794.019 384.64 828.283C382.143 861.422 351.011 893.043 348.858 926.72C346.704 960.397 373.332 995.738 371.717 1028.97C369.808 1063.24 339.264 1095.25 337.697 1128.05C336.033 1162.75 363.396 1197.75 362.172 1229.91C360.703 1265.6 330.551 1298.44 329.425 1329.43C328.103 1367.26 355.906 1402.21 355.025 1430.99C353.165 1493.55 324.53 1480.58 323.502 1530.9L331.138 1530.8Z" fill="#92E3A9"/>
<path d="M461.736 430.13V1516.75" stroke="#263238" stroke-width="0.0764832" stroke-miterlimit="10"/>
<path d="M509.263 544.084L459.726 586.865L419.196 532.825" stroke="#263238" stroke-width="0.0764832" stroke-miterlimit="10"/>
<path d="M509.263 733.175L459.726 775.957L419.196 721.966" stroke="#263238" stroke-width="0.0764832" stroke-miterlimit="10"/>
<path d="M509.263 911.057L459.726 953.839L419.196 899.799" stroke="#263238" stroke-width="0.0764832" stroke-miterlimit="10"/>
<path d="M509.263 1122.71L459.726 1165.49L419.196 1111.45" stroke="#263238" stroke-width="0.0764832" stroke-miterlimit="10"/>
<path d="M509.263 1336.62L459.726 1379.4L419.196 1325.36" stroke="#263238" stroke-width="0.0764832" stroke-miterlimit="10"/>
<path d="M613.626 1128.83H610.982C608.352 1128.83 605.759 1128.21 603.417 1127.01C601.074 1125.82 599.049 1124.08 597.506 1121.95C595.963 1119.82 594.947 1117.35 594.541 1114.76C594.136 1112.16 594.352 1109.5 595.172 1107C598.5 1096.72 604.129 1086.34 613.626 1084.78C633.205 1081.5 687.049 1097.85 687.049 1109.25C687.049 1120.66 687.049 1125.55 680.49 1125.55H639.716L607.066 1161.48L606.381 1160.89C604.695 1159.48 603.338 1157.72 602.407 1155.73C601.477 1153.74 600.994 1151.56 600.994 1149.37C600.994 1147.17 601.477 1145 602.407 1143C603.338 1141.01 604.695 1139.25 606.381 1137.84C609.293 1135.27 611.743 1132.23 613.626 1128.83Z" fill="#263238" stroke="#263238" stroke-width="3.44844" stroke-linecap="round" stroke-linejoin="round"/>
<path d="M982.361 1432.32H1524.08C1524.08 1432.32 1602.4 1380.09 1586.05 1243.03C1569.7 1105.97 1481.64 1197.36 1448.99 1288.75H1207.53C1207.53 1288.75 1155.3 1184.29 1070.47 1197.36C985.641 1210.43 982.361 1432.32 982.361 1432.32Z" fill="#263238" stroke="#263238" stroke-width="3.44844" stroke-linecap="round" stroke-linejoin="round"/>
<path d="M1115.45 1405.2C1115.45 1364.91 1103.95 1328.69 1085.5 1303.09V1264.91H1020.2C967.529 1264.91 924.894 1327.71 924.894 1405.2C924.894 1482.69 967.529 1545.24 1020.2 1545.24H1085.5V1507.06C1103.95 1481.61 1115.45 1445.44 1115.45 1405.2Z" fill="#263238" stroke="#263238" stroke-width="3.44844" stroke-linecap="round" stroke-linejoin="round"/>
<path d="M1085.5 1545.44C1138.13 1545.44 1180.8 1482.65 1180.8 1405.2C1180.8 1327.75 1138.13 1264.96 1085.5 1264.96C1032.86 1264.96 990.192 1327.75 990.192 1405.2C990.192 1482.65 1032.86 1545.44 1085.5 1545.44Z" fill="#263238"/>
<path opacity="0.2" d="M1085.5 1545.44C1138.13 1545.44 1180.8 1482.65 1180.8 1405.2C1180.8 1327.75 1138.13 1264.96 1085.5 1264.96C1032.86 1264.96 990.193 1327.75 990.193 1405.2C990.193 1482.65 1032.86 1545.44 1085.5 1545.44Z" fill="white"/>
<path d="M1085.5 1545.44C1138.13 1545.44 1180.8 1482.65 1180.8 1405.2C1180.8 1327.75 1138.13 1264.96 1085.5 1264.96C1032.86 1264.96 990.192 1327.75 990.192 1405.2C990.192 1482.65 1032.86 1545.44 1085.5 1545.44Z" stroke="#263238" stroke-width="3.44844" stroke-linecap="round" stroke-linejoin="round"/>
<path d="M526.79 1264.91H464.869C415.137 1264.91 374.803 1327.71 374.803 1405.2C374.803 1482.69 415.333 1545.24 464.869 1545.24H526.594C576.327 1545.24 616.661 1482.44 616.661 1405C616.661 1327.57 576.522 1264.91 526.79 1264.91Z" fill="#263238" stroke="#263238" stroke-width="3.44844" stroke-linecap="round" stroke-linejoin="round"/>
<path d="M1085.5 1517.1C1127.48 1517.1 1161.52 1467 1161.52 1405.2C1161.52 1343.4 1127.48 1293.3 1085.5 1293.3C1043.51 1293.3 1009.48 1343.4 1009.48 1405.2C1009.48 1467 1043.51 1517.1 1085.5 1517.1Z" fill="white" stroke="#263238" stroke-width="3.44844" stroke-linecap="round" stroke-linejoin="round"/>
<path d="M1561.72 1405.2C1561.72 1364.91 1554.38 1328.69 1542.63 1303.09V1264.91H1484.97C1451.49 1264.91 1424.32 1327.71 1424.32 1405.2C1424.32 1482.69 1451.49 1545.24 1484.97 1545.24H1542.63V1507.06C1554.38 1481.61 1561.72 1445.44 1561.72 1405.2Z" fill="#263238" stroke="#263238" stroke-width="3.44844" stroke-linecap="round" stroke-linejoin="round"/>
<path d="M1542.63 1545.44C1576.13 1545.44 1603.28 1482.65 1603.28 1405.2C1603.28 1327.75 1576.13 1264.96 1542.63 1264.96C1509.14 1264.96 1481.99 1327.75 1481.99 1405.2C1481.99 1482.65 1509.14 1545.44 1542.63 1545.44Z" fill="#263238"/>
<path opacity="0.2" d="M1542.63 1545.44C1576.13 1545.44 1603.28 1482.65 1603.28 1405.2C1603.28 1327.75 1576.13 1264.96 1542.63 1264.96C1509.14 1264.96 1481.99 1327.75 1481.99 1405.2C1481.99 1482.65 1509.14 1545.44 1542.63 1545.44Z" fill="white"/>
<path d="M1542.63 1545.44C1576.13 1545.44 1603.28 1482.65 1603.28 1405.2C1603.28 1327.75 1576.13 1264.96 1542.63 1264.96C1509.14 1264.96 1481.99 1327.75 1481.99 1405.2C1481.99 1482.65 1509.14 1545.44 1542.63 1545.44Z" stroke="#263238" stroke-width="3.44844" stroke-linecap="round" stroke-linejoin="round"/>
<path d="M1542.63 1517.1C1569.34 1517.1 1590.99 1467 1590.99 1405.2C1590.99 1343.4 1569.34 1293.3 1542.63 1293.3C1515.92 1293.3 1494.27 1343.4 1494.27 1405.2C1494.27 1467 1515.92 1517.1 1542.63 1517.1Z" fill="white" stroke="#263238" stroke-width="3.44844" stroke-linecap="round" stroke-linejoin="round"/>
<path d="M1005.17 1439.41C1005.17 1327.66 1044.04 1237.06 1091.91 1237.06C1139.78 1237.06 1178.65 1327.66 1178.65 1439.41C1178.65 1445.58 1178.65 1451.65 1178.26 1457.62H1487.27C1487.08 1451.65 1486.98 1445.58 1486.98 1439.41C1486.98 1327.66 1515.27 1237.06 1550.17 1237.06C1573.47 1237.06 1593.83 1277.54 1604.75 1337.75V1172.69C1604.75 1165.17 1602.12 1157.88 1597.31 1152.1C1592.5 1146.31 1585.81 1142.39 1578.42 1141.02L1576.95 1140.73C1555.51 1136.42 1516.98 1095.74 1457.02 1044.35C1397.06 992.949 1343.51 988.69 1343.51 988.69H802.619C792.379 988.731 782.444 992.175 774.376 998.48L589.886 1140.87C589.886 1140.87 424.976 1172.98 388.558 1209.4C352.14 1245.82 356.447 1457.77 356.447 1457.77H1005.56C1005.32 1451.65 1005.17 1445.58 1005.17 1439.41Z" fill="#92E3A9"/>
<path opacity="0.3" d="M1112.27 1140.73L1140.91 988.69H802.619C792.379 988.731 782.444 992.175 774.376 998.48L589.886 1140.87C589.886 1140.87 424.976 1172.98 388.558 1209.4C352.14 1245.82 356.447 1457.77 356.447 1457.77H935.614C939.824 1343.33 966.061 1288.9 966.061 1288.9H806.144C930.132 1154.92 1112.27 1140.73 1112.27 1140.73Z" fill="black"/>
<path d="M1005.17 1439.41C1005.17 1327.66 1044.04 1237.06 1091.91 1237.06C1139.78 1237.06 1178.65 1327.66 1178.65 1439.41C1178.65 1445.58 1178.65 1451.65 1178.26 1457.62H1487.27C1487.08 1451.65 1486.98 1445.58 1486.98 1439.41C1486.98 1327.66 1515.27 1237.06 1550.17 1237.06C1573.47 1237.06 1593.83 1277.54 1604.75 1337.75V1172.69C1604.75 1165.17 1602.12 1157.88 1597.31 1152.1C1592.5 1146.31 1585.81 1142.39 1578.42 1141.02L1576.95 1140.73C1555.51 1136.42 1516.98 1095.74 1457.02 1044.35C1397.06 992.949 1343.51 988.69 1343.51 988.69H802.619C792.379 988.731 782.444 992.175 774.376 998.48L589.886 1140.87C589.886 1140.87 424.976 1172.98 388.558 1209.4C352.14 1245.82 356.447 1457.77 356.447 1457.77H1005.56C1005.32 1451.65 1005.17 1445.58 1005.17 1439.41Z" stroke="#263238" stroke-width="3.44844" stroke-linecap="round" stroke-linejoin="round"/>
<path d="M1210.76 988.69H802.619C792.379 988.731 782.443 992.175 774.375 998.48L589.886 1140.87H1112.27L1210.76 988.69Z" fill="#92E3A9" stroke="#263238" stroke-width="3.44844" stroke-linecap="round" stroke-linejoin="round"/>
<path d="M996.949 1198C967.579 1198.39 916.133 1200.35 893.862 1209.26C875.407 1216.5 857.509 1225.09 840.311 1234.95H945.209L996.949 1198Z" fill="#263238" stroke="#263238" stroke-width="3.44844" stroke-linecap="round" stroke-linejoin="round"/>
<path d="M951.671 1267.07V1247.78H840.311L860.478 1266.38C860.158 1266.57 859.862 1266.8 859.597 1267.07H951.671Z" fill="#263238" stroke="#263238" stroke-width="3.44844" stroke-linecap="round" stroke-linejoin="round"/>
<path d="M962.34 1239.21V1267.21C966.674 1266.84 970.863 1265.47 974.581 1263.21C978.3 1260.95 981.448 1257.86 983.78 1254.19C994.5 1237.06 1018.58 1198 1018.58 1198L962.34 1239.21Z" fill="#263238" stroke="#263238" stroke-width="3.44844" stroke-linecap="round" stroke-linejoin="round"/>
<path d="M398.837 1266.23L419.004 1247.63H371.475C370.006 1253.65 368.636 1260.11 367.461 1266.92H399.718C399.444 1266.67 399.149 1266.44 398.837 1266.23V1266.23Z" fill="#263238" stroke="#263238" stroke-width="3.44844" stroke-linecap="round" stroke-linejoin="round"/>
<path d="M382.929 1216.65C379.647 1222.44 377.02 1228.58 375.097 1234.95H419.151C407.42 1228.19 395.328 1222.08 382.929 1216.65V1216.65Z" fill="#263238" stroke="#263238" stroke-width="3.44844" stroke-linecap="round" stroke-linejoin="round"/>
<path d="M1112.27 1140.73H1429.17C1429.17 1140.73 1474.15 1125.75 1461.28 1070.04C1456.92 1051.15 1367.05 1007.98 1354.23 1007.98H1200.04L1112.27 1140.73Z" fill="#263238"/>
<path opacity="0.2" d="M1112.27 1140.73H1429.17C1429.17 1140.73 1474.15 1125.75 1461.28 1070.04C1456.92 1051.15 1367.05 1007.98 1354.23 1007.98H1200.04L1112.27 1140.73Z" fill="white" stroke="#263238" stroke-width="3.44844" stroke-linecap="round" stroke-linejoin="round"/>
<path d="M1112.27 1140.73H1429.17C1429.17 1140.73 1474.15 1125.75 1461.28 1070.04C1456.92 1051.15 1367.05 1007.98 1354.23 1007.98H1200.04L1112.27 1140.73Z" stroke="#263238" stroke-width="3.44844" stroke-linecap="round" stroke-linejoin="round"/>
<path d="M761.796 1007.98L589.74 1140.73H1112.27L1198.28 1007.98H761.796Z" fill="#263238" stroke="#263238" stroke-width="3.44844" stroke-linecap="round" stroke-linejoin="round"/>
<path d="M427.032 1239.21V1284.2L459.143 1307.74H718.231L778.194 1282.04V1239.21H427.032Z" fill="#263238" stroke="#263238" stroke-width="3.44844" stroke-linecap="round" stroke-linejoin="round"/>
<path opacity="0.3" d="M439.025 1239.21H427.032V1251.2H439.025V1239.21Z" fill="white"/>
<path opacity="0.3" d="M452.242 1252.48H440.249V1264.47H452.242V1252.48Z" fill="white"/>
<path opacity="0.3" d="M465.508 1265.69H453.515V1277.69H465.508V1265.69Z" fill="white"/>
<path opacity="0.3" d="M478.722 1278.96H466.729V1290.95H478.722V1278.96Z" fill="white"/>
<path opacity="0.3" d="M775.845 1239.21H763.853V1251.2H775.845V1239.21Z" fill="white"/>
<path opacity="0.3" d="M762.579 1252.48H750.586V1264.47H762.579V1252.48Z" fill="white"/>
<path opacity="0.3" d="M749.362 1265.69H737.37V1277.69H749.362V1265.69Z" fill="white"/>
<path opacity="0.3" d="M736.147 1278.96H724.155V1290.95H736.147V1278.96Z" fill="white"/>
<path opacity="0.3" d="M497.127 1278.96H485.135V1290.95H497.127V1278.96Z" fill="white"/>
<path opacity="0.3" d="M515.483 1278.96H503.491V1290.95H515.483V1278.96Z" fill="white"/>
<path opacity="0.3" d="M533.888 1278.96H521.896V1290.95H533.888V1278.96Z" fill="white"/>
<path opacity="0.3" d="M552.293 1278.96H540.301V1290.95H552.293V1278.96Z" fill="white"/>
<path opacity="0.3" d="M570.649 1278.96H558.657V1290.95H570.649V1278.96Z" fill="white"/>
<path opacity="0.3" d="M589.055 1278.96H577.062V1290.95H589.055V1278.96Z" fill="white"/>
<path opacity="0.3" d="M607.41 1278.96H595.417V1290.95H607.41V1278.96Z" fill="white"/>
<path opacity="0.3" d="M625.815 1278.96H613.823V1290.95H625.815V1278.96Z" fill="white"/>
<path opacity="0.3" d="M644.221 1278.96H632.228V1290.95H644.221V1278.96Z" fill="white"/>
<path opacity="0.3" d="M662.574 1278.96H650.582V1290.95H662.574V1278.96Z" fill="white"/>
<path opacity="0.3" d="M680.979 1278.96H668.987V1290.95H680.979V1278.96Z" fill="white"/>
<path opacity="0.3" d="M699.337 1278.96H687.345V1290.95H699.337V1278.96Z" fill="white"/>
<path opacity="0.3" d="M717.743 1278.96H705.75V1290.95H717.743V1278.96Z" fill="white"/>
<path d="M902.377 1363.4H369.222L362.075 1306.27C358.796 1337.7 357.181 1371.13 356.642 1398.64L358.502 1406.23L369.222 1384.84H414.941L386.55 1408.18H810.499L795.374 1384.64H902.573L932.579 1401.77H953.97V1292.76L902.377 1363.4Z" fill="#263238" stroke="#263238" stroke-width="3.44844" stroke-linecap="round" stroke-linejoin="round"/>
<path d="M1223.83 1128.83H1221.18C1218.56 1128.82 1215.97 1128.19 1213.63 1126.99C1211.3 1125.8 1209.28 1124.06 1207.74 1121.93C1206.2 1119.8 1205.19 1117.34 1204.79 1114.74C1204.39 1112.15 1204.6 1109.5 1205.42 1107C1208.7 1096.72 1214.38 1086.34 1223.83 1084.78C1243.41 1081.5 1297.25 1097.85 1297.25 1109.25C1297.25 1120.66 1297.25 1125.55 1290.74 1125.55H1249.97L1217.32 1161.48L1216.63 1160.89C1214.95 1159.48 1213.59 1157.72 1212.66 1155.73C1211.73 1153.74 1211.24 1151.56 1211.24 1149.37C1211.24 1147.17 1211.73 1145 1212.66 1143C1213.59 1141.01 1214.95 1139.25 1216.63 1137.84C1219.53 1135.27 1221.96 1132.22 1223.83 1128.83V1128.83Z" fill="#92E3A9"/>
<path d="M1321.14 1140.73H1339.05C1337.15 1114.44 1329.66 1056.58 1300.24 1007.98H1282.32C1292.65 1030.35 1317.13 1088.06 1321.14 1140.73Z" fill="#263238" stroke="#263238" stroke-width="3.44844" stroke-linecap="round" stroke-linejoin="round"/>
<path d="M1216.63 1160.89L1217.32 1161.48L1249.97 1125.55H1290.74C1296.13 1125.55 1297.06 1122.18 1297.2 1114.54H1204.79C1205.34 1118.5 1207.3 1122.12 1210.32 1124.75C1213.33 1127.37 1217.19 1128.82 1221.18 1128.83H1223.83C1221.95 1132.23 1219.5 1135.27 1216.58 1137.84C1214.9 1139.25 1213.55 1141.02 1212.62 1143.01C1211.69 1145.01 1211.22 1147.18 1211.22 1149.38C1211.23 1151.58 1211.71 1153.75 1212.65 1155.74C1213.58 1157.73 1214.94 1159.49 1216.63 1160.89V1160.89Z" fill="#263238" stroke="#263238" stroke-width="3.44844" stroke-linecap="round" stroke-linejoin="round"/>
<path d="M1317.32 1180.13H1280.61V1188.01H1317.32V1180.13Z" fill="#263238"/>
<path d="M1482.62 1180.13H1445.91V1188.01H1482.62V1180.13Z" fill="#263238"/>
<path d="M1485.22 1148.75C1485.22 1148.75 1511.8 1166.82 1527.21 1230.11C1527.21 1230.11 1461.62 1237.94 1461.62 1419" stroke="#263238" stroke-width="3.44844" stroke-linecap="round" stroke-linejoin="round"/>
<path d="M1453.64 1426.74H1178.45C1178.45 1430.95 1178.45 1435.16 1178.45 1439.42C1178.45 1445.58 1178.45 1451.65 1178.06 1457.62H1487.08C1486.88 1451.65 1486.78 1445.58 1486.78 1439.42V1438.19L1453.64 1426.74Z" fill="#263238" stroke="#263238" stroke-width="3.44844" stroke-linecap="round" stroke-linejoin="round"/>
<path d="M1005.17 1439.42C1005.17 1435.16 1005.17 1430.95 1005.17 1426.74H356.251C356.251 1445.58 356.251 1457.62 356.251 1457.62H1005.56C1005.32 1451.65 1005.17 1445.58 1005.17 1439.42Z" fill="#263238" stroke="#263238" stroke-width="3.44844" stroke-linecap="round" stroke-linejoin="round"/>
<path d="M1593.25 1164.42C1589.99 1164.42 1586.78 1165.27 1583.95 1166.88C1581.11 1168.5 1578.75 1170.82 1577.08 1173.62C1575.42 1176.43 1574.51 1179.62 1574.46 1182.88C1574.4 1186.14 1575.19 1189.36 1576.75 1192.22L1604.75 1243.62V1172.69C1604.71 1169.89 1604.32 1167.11 1603.57 1164.42H1593.25Z" fill="#263238" stroke="#263238" stroke-width="3.44844" stroke-linecap="round" stroke-linejoin="round"/>
<path d="M1341.31 1167.99C1341.31 1167.99 1400.05 1252.82 1341.31 1396.44" stroke="#263238" stroke-width="3.44844" stroke-linecap="round" stroke-linejoin="round"/>
<path d="M1087.2 1113.37C1086.82 1113.37 1086.44 1113.27 1086.1 1113.09L1022.01 1078.69C1021.83 1078.62 1021.69 1078.5 1021.57 1078.35L997.586 1057.72L972.879 1049.71C972.706 1049.66 972.543 1049.58 972.399 1049.47L952.058 1037.53L929.701 1031.86L904.515 1035.46C904.461 1035.72 904.364 1035.96 904.227 1036.18C903.747 1037.14 903.507 1037.67 901.06 1036.81V1037.19L898.614 1035.89C898.398 1035.81 898.202 1035.68 898.038 1035.51C893.816 1033.59 886.572 1029.95 873.715 1023.47C835.335 1004.28 810.052 1008.4 809.812 1008.45C809.503 1008.52 809.184 1008.51 808.876 1008.45C808.567 1008.39 808.274 1008.26 808.014 1008.08C807.754 1007.9 807.533 1007.67 807.364 1007.41C807.195 1007.14 807.081 1006.84 807.03 1006.53C806.917 1005.91 807.056 1005.27 807.416 1004.75C807.775 1004.23 808.326 1003.87 808.949 1003.75C810.052 1003.75 836.246 999.194 875.874 1019.2L899.861 1031.29L929.557 1027.02C929.876 1026.97 930.199 1026.97 930.517 1027.02L953.689 1032.92L954.313 1033.16L974.702 1045.15L999.601 1053.26C999.911 1053.36 1000.2 1053.5 1000.46 1053.69L1024.45 1074.51L1088.31 1108.82C1088.59 1108.96 1088.84 1109.16 1089.04 1109.41C1089.25 1109.65 1089.4 1109.93 1089.49 1110.24C1089.59 1110.54 1089.62 1110.86 1089.59 1111.18C1089.56 1111.49 1089.46 1111.8 1089.31 1112.08C1089.11 1112.46 1088.8 1112.78 1088.43 1113.01C1088.06 1113.23 1087.64 1113.36 1087.2 1113.37V1113.37Z" fill="white"/>
<path d="M1058.23 1098.5L1017.64 1095.72L989.862 1089.48L964.531 1085.64L939.105 1083.92C938.789 1083.86 938.482 1083.77 938.193 1083.63L899.285 1064.01C880.335 1062.95 833.752 1074.27 833.272 1074.37C832.655 1074.51 832.006 1074.41 831.467 1074.08C830.927 1073.74 830.542 1073.21 830.393 1072.59C830.315 1072.29 830.3 1071.97 830.347 1071.66C830.395 1071.35 830.505 1071.05 830.67 1070.78C830.836 1070.51 831.054 1070.28 831.311 1070.09C831.569 1069.91 831.86 1069.78 832.169 1069.72C834.136 1069.24 880.767 1057.91 900.101 1059.26C900.401 1059.19 900.712 1059.19 901.013 1059.26L939.92 1078.88L965.059 1080.61L990.726 1084.54L1018.36 1090.73L1058.51 1093.46C1059.15 1093.46 1059.76 1093.72 1060.21 1094.17C1060.66 1094.62 1060.91 1095.23 1060.91 1095.86C1060.91 1096.5 1060.66 1097.11 1060.21 1097.56C1059.76 1098.01 1059.15 1098.26 1058.51 1098.26L1058.23 1098.5Z" fill="white"/>
<path d="M800.36 1126.76C799.807 1126.76 799.271 1126.57 798.843 1126.22C798.414 1125.87 798.12 1125.38 798.009 1124.84C797.896 1124.21 798.034 1123.56 798.392 1123.03C798.751 1122.5 799.302 1122.14 799.928 1122.01L865.174 1109.39L881.486 1095L892.328 1078.74C892.524 1078.45 892.779 1078.2 893.077 1078.02C893.375 1077.84 893.709 1077.72 894.055 1077.68L925.191 1073.65C925.821 1073.57 926.457 1073.74 926.96 1074.13C927.464 1074.51 927.794 1075.08 927.877 1075.71C927.947 1076.34 927.77 1076.97 927.386 1077.47C927.002 1077.97 926.438 1078.31 925.814 1078.4L895.734 1082.29L885.324 1097.93C885.221 1098.12 885.073 1098.28 884.892 1098.41L867.813 1113.28C867.508 1113.57 867.125 1113.77 866.709 1113.85L800.84 1126.57L800.36 1126.76Z" fill="white"/>
<path d="M950.808 1123.54L920.057 1121.43C919.42 1121.39 918.828 1121.09 918.41 1120.61C917.991 1120.13 917.781 1119.5 917.826 1118.87C917.87 1118.23 918.166 1117.64 918.647 1117.22C919.128 1116.8 919.756 1116.59 920.392 1116.64L950.856 1118.7L978.058 1114.48L992.882 1110.64C993.104 1110.6 993.332 1110.6 993.554 1110.64L1024.4 1111.5L1042.63 1115.2L1064.7 1111.89C1065.01 1111.84 1065.33 1111.85 1065.64 1111.93C1065.94 1112 1066.23 1112.14 1066.49 1112.33C1066.74 1112.51 1066.95 1112.75 1067.12 1113.02C1067.28 1113.29 1067.39 1113.59 1067.44 1113.9C1067.52 1114.53 1067.36 1115.17 1066.98 1115.68C1066.6 1116.19 1066.04 1116.53 1065.42 1116.64L1042.97 1119.99H1042.1L1023.83 1116.25L993.794 1115.44L979.018 1119.27L951.336 1123.59L950.808 1123.54Z" fill="white"/>
<path d="M1024.16 1116.2C1023.77 1116.21 1023.39 1116.11 1023.04 1115.93C1022.7 1115.75 1022.41 1115.48 1022.2 1115.15L1014.33 1103.49C1014.01 1102.99 1013.88 1102.4 1013.94 1101.81L1015.29 1092.98L1020.85 1075.81C1020.96 1075.48 1021.13 1075.18 1021.36 1074.92C1021.6 1074.66 1021.88 1074.46 1022.2 1074.32L1042.44 1065.97C1043.04 1065.74 1043.71 1065.74 1044.3 1066C1044.89 1066.25 1045.36 1066.72 1045.61 1067.32C1045.72 1067.61 1045.78 1067.92 1045.78 1068.24C1045.77 1068.55 1045.71 1068.87 1045.58 1069.15C1045.46 1069.44 1045.28 1069.71 1045.05 1069.93C1044.82 1070.15 1044.56 1070.32 1044.26 1070.44L1025.07 1078.35L1019.94 1094.09L1018.84 1101.62L1026.18 1112.46C1026.53 1113 1026.65 1113.65 1026.53 1114.28C1026.4 1114.91 1026.04 1115.46 1025.51 1115.82C1025.11 1116.09 1024.64 1116.22 1024.16 1116.2V1116.2Z" fill="white"/>
<path d="M998.832 1057.96C998.448 1057.96 998.07 1057.87 997.728 1057.69C997.386 1057.52 997.091 1057.27 996.865 1056.95L978.97 1031.19L959.205 1021.6C958.92 1021.46 958.667 1021.27 958.459 1021.03C958.251 1020.79 958.093 1020.51 957.994 1020.21C957.896 1019.91 957.859 1019.6 957.885 1019.28C957.912 1018.97 958.002 1018.66 958.149 1018.38C958.437 1017.82 958.936 1017.39 959.538 1017.19C960.141 1016.99 960.797 1017.04 961.363 1017.33L981.657 1027.35C982.012 1027.54 982.323 1027.8 982.568 1028.12L1000.03 1053.26L1018.21 1051.97C1018.53 1051.93 1018.85 1051.96 1019.15 1052.06C1019.46 1052.15 1019.74 1052.31 1019.98 1052.51C1020.22 1052.72 1020.42 1052.97 1020.56 1053.26C1020.7 1053.54 1020.79 1053.85 1020.8 1054.17C1020.84 1054.8 1020.63 1055.42 1020.22 1055.9C1019.81 1056.37 1019.23 1056.67 1018.6 1056.71L998.976 1058.15L998.832 1057.96Z" fill="white"/>
<path d="M993.362 1115.34C992.824 1115.37 992.295 1115.2 991.875 1114.86L981.368 1105.27C980.988 1104.92 980.728 1104.47 980.624 1103.97C980.52 1103.47 980.579 1102.95 980.792 1102.48L987.941 1086.46L988.612 1076.86C988.624 1076.55 988.7 1076.24 988.836 1075.95C988.972 1075.66 989.164 1075.4 989.402 1075.19C989.639 1074.98 989.917 1074.82 990.219 1074.72C990.52 1074.62 990.839 1074.58 991.155 1074.61C991.783 1074.67 992.364 1074.97 992.782 1075.44C993.201 1075.91 993.425 1076.52 993.41 1077.15L992.69 1087.37C992.762 1087.64 992.762 1087.92 992.69 1088.19L986.07 1103.01L995.233 1111.21C995.462 1111.43 995.645 1111.69 995.77 1111.98C995.895 1112.27 995.96 1112.58 995.96 1112.89C995.96 1113.21 995.895 1113.52 995.77 1113.81C995.645 1114.1 995.462 1114.36 995.233 1114.57C994.996 1114.83 994.705 1115.03 994.382 1115.16C994.059 1115.3 993.711 1115.36 993.362 1115.34Z" fill="white"/>
<path d="M958.726 1134.05C958.282 1134.05 957.847 1133.93 957.472 1133.69C957.098 1133.45 956.8 1133.11 956.615 1132.71L945.725 1110.97L938.049 1098.26C937.858 1097.92 937.744 1097.55 937.713 1097.16L936.753 1081.76C936.721 1081.27 936.838 1080.79 937.089 1080.37L952.009 1054.8C952.188 1054.43 952.472 1054.13 952.825 1053.93L994.035 1029.61C994.302 1029.44 994.599 1029.34 994.909 1029.29C995.218 1029.24 995.534 1029.25 995.838 1029.33C996.142 1029.41 996.428 1029.54 996.678 1029.73C996.929 1029.92 997.14 1030.15 997.298 1030.42C997.463 1030.69 997.573 1031 997.622 1031.31C997.67 1031.62 997.656 1031.94 997.58 1032.25C997.504 1032.56 997.368 1032.85 997.18 1033.1C996.991 1033.36 996.754 1033.57 996.482 1033.73L955.799 1057.72L941.407 1082.19L942.27 1096.29L949.755 1108.67L960.693 1130.6C960.965 1131.16 961.007 1131.82 960.81 1132.42C960.614 1133.01 960.193 1133.51 959.637 1133.81C959.348 1133.94 959.04 1134.02 958.726 1134.05Z" fill="white"/>
<path d="M1460.32 1123.83C1460.15 1123.83 1459.97 1123.73 1459.81 1123.54L1430.14 1089.1C1430.06 1089.03 1429.99 1088.92 1429.94 1088.77L1418.83 1068.12L1407.39 1060.1C1407.31 1060.04 1407.23 1059.96 1407.17 1059.85L1397.75 1047.9L1387.4 1042.23L1375.73 1045.83C1375.71 1046.09 1375.66 1046.33 1375.6 1046.55C1375.38 1047.51 1375.27 1048.04 1374.13 1047.18V1047.56L1373 1046.26C1372.9 1046.17 1372.81 1046.04 1372.74 1045.88C1370.78 1043.96 1367.43 1040.31 1361.47 1033.82C1343.7 1014.61 1332 1018.74 1331.88 1018.79C1331.74 1018.85 1331.59 1018.85 1331.45 1018.79C1331.31 1018.72 1331.17 1018.6 1331.05 1018.42C1330.93 1018.24 1330.83 1018.01 1330.75 1017.74C1330.67 1017.48 1330.62 1017.18 1330.6 1016.87C1330.54 1016.24 1330.61 1015.6 1330.77 1015.08C1330.94 1014.56 1331.2 1014.2 1331.48 1014.08C1332 1014.08 1344.12 1009.52 1362.47 1029.55L1373.58 1041.65L1387.33 1037.38C1387.48 1037.33 1387.63 1037.33 1387.77 1037.38L1398.5 1043.28L1398.79 1043.52L1408.23 1055.53L1419.76 1063.65C1419.91 1063.74 1420.04 1063.89 1420.16 1064.08L1431.27 1084.93L1460.84 1119.27C1460.97 1119.41 1461.08 1119.62 1461.18 1119.86C1461.27 1120.1 1461.34 1120.39 1461.38 1120.69C1461.43 1120.99 1461.44 1121.31 1461.43 1121.63C1461.41 1121.95 1461.37 1122.25 1461.3 1122.53C1461.21 1122.91 1461.06 1123.24 1460.89 1123.46C1460.72 1123.69 1460.53 1123.82 1460.32 1123.83V1123.83Z" fill="white"/>
<path d="M1446.99 1108.91L1428.2 1106.11L1415.34 1099.83L1403.61 1095.97L1391.84 1094.23C1391.7 1094.18 1391.55 1094.08 1391.42 1093.94L1373.41 1074.2C1364.64 1073.14 1343.07 1084.53 1342.85 1084.62C1342.56 1084.77 1342.26 1084.66 1342.01 1084.33C1341.76 1083.99 1341.58 1083.46 1341.52 1082.84C1341.48 1082.53 1341.47 1082.21 1341.49 1081.9C1341.52 1081.58 1341.57 1081.28 1341.64 1081.01C1341.72 1080.74 1341.82 1080.51 1341.94 1080.32C1342.06 1080.14 1342.2 1080.01 1342.34 1079.94C1343.25 1079.46 1364.84 1068.07 1373.79 1069.42C1373.93 1069.35 1374.07 1069.35 1374.21 1069.42L1392.22 1089.16L1403.86 1090.9L1415.74 1094.86L1428.53 1101.09L1447.12 1103.84C1447.42 1103.84 1447.7 1104.09 1447.91 1104.55C1448.12 1105 1448.23 1105.61 1448.23 1106.25C1448.23 1106.89 1448.12 1107.51 1447.91 1107.96C1447.7 1108.41 1447.42 1108.67 1447.12 1108.67L1446.99 1108.91Z" fill="white"/>
<path d="M1327.67 1137.03C1327.41 1137.03 1327.16 1136.84 1326.96 1136.49C1326.76 1136.15 1326.63 1135.66 1326.58 1135.12C1326.52 1134.5 1326.59 1133.85 1326.75 1133.33C1326.92 1132.8 1327.18 1132.44 1327.47 1132.31L1357.73 1119.77L1365.3 1105.47L1370.33 1089.3C1370.42 1089.02 1370.54 1088.77 1370.67 1088.59C1370.81 1088.41 1370.97 1088.3 1371.13 1088.25L1385.57 1084.25C1385.86 1084.17 1386.16 1084.34 1386.39 1084.72C1386.62 1085.11 1386.78 1085.67 1386.81 1086.3C1386.85 1086.92 1386.77 1087.55 1386.59 1088.05C1386.41 1088.54 1386.15 1088.87 1385.86 1088.97L1371.91 1092.83L1367.08 1108.37C1367.03 1108.57 1366.96 1108.73 1366.88 1108.85L1358.95 1123.63C1358.81 1123.92 1358.64 1124.12 1358.44 1124.2L1327.89 1136.84L1327.67 1137.03Z" fill="white"/>
<path d="M1397.41 1134.11L1383.26 1131.96C1382.97 1131.92 1382.69 1131.62 1382.5 1131.13C1382.31 1130.64 1382.21 1130 1382.23 1129.36C1382.25 1128.71 1382.39 1128.11 1382.61 1127.68C1382.83 1127.26 1383.12 1127.04 1383.41 1127.09L1397.44 1129.19L1409.96 1124.89L1416.78 1120.99C1416.88 1120.95 1416.99 1120.95 1417.09 1120.99L1431.29 1121.87L1439.68 1125.63L1449.83 1122.26C1449.98 1122.21 1450.12 1122.23 1450.26 1122.3C1450.41 1122.38 1450.54 1122.52 1450.66 1122.71C1450.77 1122.9 1450.87 1123.14 1450.95 1123.41C1451.02 1123.69 1451.07 1123.99 1451.09 1124.31C1451.13 1124.95 1451.06 1125.59 1450.88 1126.11C1450.71 1126.63 1450.45 1126.98 1450.16 1127.09L1439.83 1130.5H1439.43L1431.02 1126.7L1417.2 1125.87L1410.4 1129.77L1397.66 1134.16L1397.41 1134.11Z" fill="white"/>
<path d="M1431.22 1126.7C1431.04 1126.7 1430.85 1126.61 1430.69 1126.42C1430.53 1126.24 1430.4 1125.97 1430.3 1125.64L1426.61 1113.96C1426.46 1113.46 1426.4 1112.86 1426.43 1112.28L1427.06 1103.43L1429.67 1086.22C1429.72 1085.89 1429.8 1085.59 1429.91 1085.33C1430.02 1085.08 1430.15 1084.87 1430.3 1084.73L1439.78 1076.37C1440.06 1076.13 1440.37 1076.14 1440.65 1076.39C1440.93 1076.64 1441.15 1077.12 1441.27 1077.71C1441.32 1078.01 1441.35 1078.32 1441.34 1078.64C1441.34 1078.95 1441.31 1079.26 1441.25 1079.55C1441.19 1079.84 1441.11 1080.11 1441 1080.33C1440.9 1080.55 1440.77 1080.72 1440.64 1080.84L1431.65 1088.77L1429.24 1104.54L1428.72 1112.08L1432.16 1122.95C1432.33 1123.48 1432.38 1124.14 1432.33 1124.77C1432.27 1125.4 1432.1 1125.95 1431.85 1126.31C1431.66 1126.58 1431.44 1126.72 1431.22 1126.7V1126.7Z" fill="white"/>
<path d="M1419.64 1068.54C1419.47 1068.54 1419.29 1068.44 1419.13 1068.27C1418.97 1068.09 1418.83 1067.84 1418.73 1067.53L1410.41 1041.61L1401.21 1031.96C1401.08 1031.82 1400.96 1031.63 1400.87 1031.39C1400.77 1031.15 1400.7 1030.87 1400.65 1030.57C1400.6 1030.27 1400.59 1029.95 1400.6 1029.63C1400.61 1029.32 1400.65 1029.01 1400.72 1028.73C1400.86 1028.16 1401.09 1027.73 1401.37 1027.53C1401.65 1027.33 1401.95 1027.38 1402.22 1027.67L1411.66 1037.75C1411.82 1037.94 1411.97 1038.2 1412.08 1038.52L1420.2 1063.81L1428.66 1062.51C1428.81 1062.47 1428.95 1062.51 1429.1 1062.6C1429.24 1062.7 1429.37 1062.85 1429.48 1063.06C1429.59 1063.27 1429.69 1063.52 1429.75 1063.81C1429.82 1064.09 1429.86 1064.41 1429.86 1064.73C1429.88 1065.36 1429.78 1065.98 1429.59 1066.46C1429.4 1066.94 1429.13 1067.24 1428.84 1067.28L1419.71 1068.73L1419.64 1068.54Z" fill="white"/>
<path d="M1417.13 1125.55C1416.87 1125.58 1416.61 1125.41 1416.41 1125.07L1411.31 1115.47C1411.13 1115.13 1411 1114.68 1410.95 1114.18C1410.9 1113.67 1410.93 1113.15 1411.03 1112.69L1414.5 1096.66L1414.82 1087.07C1414.83 1086.75 1414.87 1086.44 1414.93 1086.15C1415 1085.86 1415.09 1085.61 1415.21 1085.39C1415.32 1085.18 1415.46 1085.02 1415.6 1084.92C1415.75 1084.82 1415.9 1084.78 1416.06 1084.81C1416.36 1084.87 1416.64 1085.17 1416.85 1085.64C1417.05 1086.11 1417.16 1086.72 1417.15 1087.35L1416.8 1097.57C1416.84 1097.84 1416.84 1098.12 1416.8 1098.39L1413.59 1113.22L1418.04 1121.42C1418.15 1121.64 1418.24 1121.9 1418.3 1122.19C1418.36 1122.48 1418.39 1122.79 1418.39 1123.1C1418.39 1123.42 1418.36 1123.73 1418.3 1124.02C1418.24 1124.31 1418.15 1124.57 1418.04 1124.78C1417.92 1125.04 1417.78 1125.24 1417.62 1125.37C1417.47 1125.5 1417.3 1125.56 1417.13 1125.55Z" fill="white"/>
<path d="M1400.99 1144.49C1400.78 1144.49 1400.58 1144.37 1400.41 1144.13C1400.24 1143.89 1400.1 1143.55 1400.01 1143.14L1394.99 1121.36L1391.44 1108.62C1391.35 1108.28 1391.3 1107.9 1391.29 1107.51L1390.84 1092.08C1390.83 1091.59 1390.88 1091.1 1391 1090.68L1397.89 1065.06C1397.97 1064.69 1398.1 1064.39 1398.26 1064.19L1417.29 1039.81C1417.42 1039.65 1417.55 1039.54 1417.7 1039.49C1417.84 1039.44 1417.99 1039.46 1418.13 1039.53C1418.27 1039.61 1418.4 1039.74 1418.51 1039.93C1418.63 1040.12 1418.73 1040.36 1418.8 1040.63C1418.88 1040.9 1418.93 1041.2 1418.95 1041.52C1418.97 1041.83 1418.97 1042.15 1418.93 1042.46C1418.9 1042.77 1418.83 1043.06 1418.75 1043.31C1418.66 1043.57 1418.55 1043.78 1418.42 1043.95L1399.64 1067.99L1392.99 1092.51L1393.39 1106.65L1396.85 1119.05L1401.9 1141.03C1402.02 1141.6 1402.04 1142.25 1401.95 1142.85C1401.86 1143.45 1401.67 1143.95 1401.41 1144.25C1401.28 1144.38 1401.13 1144.46 1400.99 1144.49Z" fill="white"/>
</g>
<defs>
<clipPath id="clip0_796_453">
<rect width="2000" height="2000" fill="white"/>
</clipPath>
</defs>
</svg>
