<svg width="2000" height="2000" viewBox="0 0 2000 2000" fill="none" xmlns="http://www.w3.org/2000/svg">
<g clip-path="url(#clip0_795_112)">
<path d="M717.951 616.722C707.328 610.911 702.488 615.754 698.586 610.911C694.686 606.071 709.237 593.51 680.216 580.923C680.216 580.923 678.28 553.838 638.718 552.87C599.157 551.902 609.586 579.954 598.991 586.733C588.394 593.51 585.435 582.859 574.783 589.499C564.131 596.139 569.001 609.805 560.286 611.632C551.573 613.457 539.98 602.916 529.328 609.695C518.678 616.472 518.761 622.531 513.836 622.531C508.912 622.531 499.312 618.659 493.503 622.531C487.693 626.404 480.942 631.219 480.942 631.219H725.67C725.67 631.219 728.575 622.531 717.951 616.722Z" stroke="#263238" stroke-width="3" stroke-linecap="round" stroke-linejoin="round"/>
<path d="M573.151 612.738C571.769 613.533 570.325 614.216 568.835 614.786" stroke="#263238" stroke-width="3" stroke-linecap="round" stroke-linejoin="round"/>
<path d="M625.521 567.561C623.12 568.639 621.01 570.272 619.367 572.326C617.721 574.38 616.587 576.795 616.06 579.374C614.29 588.226 610.167 594.119 605.436 594.701C600.706 595.281 583.001 593.538 580.067 600.012C579.278 601.921 578.72 603.918 578.408 605.96" stroke="#263238" stroke-width="3" stroke-linecap="round" stroke-linejoin="round"/>
<path d="M1437.25 752.697C1428.95 748.188 1425.22 751.95 1422.23 748.188C1419.24 744.425 1430.53 734.659 1407.93 724.894C1407.93 724.894 1406.43 703.813 1375.58 703.066C1344.74 702.318 1353.04 724.119 1344.77 729.403C1336.49 734.687 1334.25 726.387 1325.98 731.644C1317.71 736.9 1321.44 747.441 1314.69 748.934C1307.94 750.429 1298.9 742.184 1290.63 747.441C1282.35 752.697 1282.33 757.206 1278.59 757.206C1274.86 757.206 1267.3 754.22 1262.79 757.206C1258.28 760.195 1253.03 763.985 1253.03 763.985H1443.28C1443.28 763.985 1445.55 757.206 1437.25 752.697Z" stroke="#263238" stroke-width="3" stroke-linecap="round" stroke-linejoin="round"/>
<path d="M1324.71 749.627C1323.63 750.22 1322.51 750.747 1321.36 751.204" stroke="#263238" stroke-width="3" stroke-linecap="round" stroke-linejoin="round"/>
<path d="M1365.32 714.49C1363.46 715.33 1361.82 716.6 1360.55 718.197C1359.27 719.796 1358.39 721.673 1357.99 723.676C1356.61 730.537 1353.4 735.13 1349.69 735.6C1345.98 736.071 1332.26 734.687 1329.96 739.723C1329.35 741.204 1328.92 742.756 1328.69 744.343" stroke="#263238" stroke-width="3" stroke-linecap="round" stroke-linejoin="round"/>
<path d="M1305.67 747.966H1318.87" stroke="#263238" stroke-width="3" stroke-linecap="round" stroke-linejoin="round"/>
<path d="M1422.23 747.966H1511.15C1511.15 747.966 1518.28 726.526 1492.08 712.222C1465.88 697.92 1453.96 709.843 1444.44 697.92C1434.93 685.996 1470.64 655.038 1399.16 624.081C1399.16 624.081 1394.4 557.352 1296.79 554.917C1199.19 552.483 1225.34 621.618 1199.11 638.301C1172.88 654.984 1165.77 628.783 1139.54 645.466C1113.32 662.147 1125.27 695.484 1103.83 700.243C1082.39 705.002 1053.78 678.803 1027.58 695.484C1001.38 712.167 1001.38 726.471 989.459 726.471C977.535 726.471 953.716 716.926 939.412 726.471C925.11 736.014 908.454 747.911 908.454 747.911H1290.63" stroke="#263238" stroke-width="3" stroke-linecap="round" stroke-linejoin="round"/>
<path d="M1135.5 702.43C1132.08 704.352 1128.54 706.035 1124.88 707.464" stroke="#263238" stroke-width="3" stroke-linecap="round" stroke-linejoin="round"/>
<path d="M1148.43 685.608C1149.2 680.597 1150.57 675.694 1152.49 671.002C1159.77 655.011 1203.4 659.354 1215.02 657.916C1226.64 656.477 1236.81 641.926 1241.19 620.097C1242.47 613.75 1245.25 607.8 1249.3 602.743C1253.35 597.687 1258.54 593.668 1264.45 591.021" stroke="#263238" stroke-width="3" stroke-linecap="round" stroke-linejoin="round"/>
<path d="M375.952 474.052C394.654 457.969 413.005 441.646 431.006 425.084C407.122 417.891 383.348 410.246 359.685 402.149C364.683 426.108 370.106 450.075 375.952 474.052Z" fill="#92E3A9"/>
<path d="M459.197 498.84C477.161 481.964 494.757 464.913 511.983 447.686C487.914 441.545 463.937 434.942 440.053 427.878C445.992 451.504 452.373 475.158 459.197 498.84Z" fill="#263238"/>
<path d="M540.173 519.34C557.418 501.726 574.258 483.91 590.691 465.89C566.473 460.763 542.305 455.166 518.18 449.098C525.096 472.539 532.428 495.954 540.173 519.34Z" fill="#92E3A9"/>
<path d="M624.746 537.018C641.179 518.703 657.244 500.186 672.939 481.466C648.521 477.39 624.166 472.834 599.875 467.799C607.77 490.89 616.06 513.963 624.746 537.018Z" fill="#263238"/>
<path d="M706.886 550.629C722.544 531.65 737.825 512.497 752.726 493.168C728.124 490.069 703.622 486.519 679.221 482.517C687.999 505.295 697.222 527.999 706.886 550.629Z" fill="#92E3A9"/>
<path d="M792.287 561.114C807.044 541.491 821.475 521.701 835.585 501.745C810.961 499.697 786.387 497.189 761.857 494.22C771.595 516.684 781.739 538.982 792.287 561.114Z" fill="#263238"/>
<path d="M874.981 567.948C888.978 547.66 902.591 527.308 915.815 506.891C891.174 505.839 866.533 504.327 841.892 502.354C852.516 524.32 863.544 546.185 874.981 567.948Z" fill="#92E3A9"/>
<path d="M960.881 571.406C974.031 550.602 986.767 529.65 999.088 508.55C974.41 508.55 949.741 508.08 925.083 507.14C936.628 528.719 948.56 550.141 960.881 571.406Z" fill="#263238"/>
<path d="M1043.8 571.296C1056.08 549.993 1067.96 528.58 1079.43 507.057C1054.77 508.053 1030.1 508.578 1005.42 508.634C1017.82 529.659 1030.61 550.547 1043.8 571.296Z" fill="#92E3A9"/>
<path d="M1129.7 567.615C1141.07 545.815 1152.05 523.913 1162.62 501.91C1137.99 503.957 1113.35 505.534 1088.67 506.641C1101.97 527.113 1115.64 547.438 1129.7 567.615Z" fill="#263238"/>
<path d="M1212.39 560.644C1222.86 538.401 1232.94 516.075 1242.63 493.666C1218.08 496.709 1193.5 499.282 1168.9 501.385C1183.03 521.304 1197.52 541.057 1212.39 560.644Z" fill="#92E3A9"/>
<path d="M1297.82 549.855C1307.39 527.169 1316.54 504.428 1325.26 481.632C1300.84 485.726 1276.39 489.351 1251.89 492.504C1266.83 511.796 1282.14 530.913 1297.82 549.855Z" fill="#263238"/>
<path d="M1379.87 536.022C1388.5 512.949 1396.73 489.849 1404.55 466.721C1380.3 471.811 1355.95 476.422 1331.51 480.553C1347.26 499.218 1363.39 517.708 1379.87 536.022Z" fill="#92E3A9"/>
<path d="M1464.39 518.095C1472.12 494.69 1479.4 471.22 1486.22 447.687C1462.13 453.828 1437.95 459.49 1413.68 464.673C1430.22 482.729 1447.13 500.537 1464.39 518.095Z" fill="#263238"/>
<path d="M1545.34 497.484C1552.09 473.766 1558.43 450.048 1564.37 426.329C1540.4 433.448 1516.42 440.107 1492.44 446.304C1509.71 463.548 1527.34 480.609 1545.34 497.484Z" fill="#92E3A9"/>
<path d="M1628.53 472.363C1634.28 448.387 1639.64 424.41 1644.6 400.434C1620.98 408.586 1597.22 416.286 1573.34 423.534C1591.43 440.06 1609.83 456.336 1628.53 472.363Z" fill="#263238"/>
<path d="M1669.25 392.688C1236.43 548.498 762.821 548.498 330 392.688L330.636 391C763.063 546.674 1236.24 546.674 1668.67 391C1668.84 391.553 1669.03 392.107 1669.25 392.688Z" fill="#263238"/>
<path d="M746.696 1439.96H852.959V1569.99C852.959 1580.26 848.878 1590.11 841.614 1597.37C834.351 1604.64 824.5 1608.72 814.227 1608.72H785.426C775.155 1608.72 765.304 1604.64 758.039 1597.37C750.776 1590.11 746.696 1580.26 746.696 1569.99V1439.96Z" fill="#263238" stroke="#263238" stroke-width="3" stroke-linecap="round" stroke-linejoin="round"/>
<path d="M1448.87 1439.96H1555.13V1569.99C1555.13 1580.26 1551.05 1590.11 1543.79 1597.37C1536.53 1604.64 1526.67 1608.72 1516.4 1608.72H1487.6C1477.33 1608.72 1467.48 1604.64 1460.21 1597.37C1452.95 1590.11 1448.87 1580.26 1448.87 1569.99V1439.96Z" fill="#263238" stroke="#263238" stroke-width="3" stroke-linecap="round" stroke-linejoin="round"/>
<path d="M1595.41 1089.52C1587.36 1080.12 1555.08 1076.08 1538.92 1074.72C1522.77 1073.37 1518.75 1088.17 1518.75 1101.64C1518.75 1115.11 1521.52 1135.25 1518.75 1140.65L1515.99 1146.02L1485.11 1065.31L1415.53 926.104C1411.8 918.497 1405.6 912.382 1397.94 908.757C1394.24 907.047 1390.37 905.722 1386.4 904.8L1140.01 898.632C1133.12 898.466 1126.22 898.466 1119.32 898.632L900.543 904.8C897.41 906.325 894.869 908.845 893.323 911.966C893.323 911.966 809.912 1080.12 800.505 1104.32C791.099 1128.53 785.704 1148.59 785.704 1148.59C783.976 1147.09 782.598 1145.23 781.671 1143.14C780.744 1141.05 780.287 1138.79 780.338 1136.5C780.338 1128.42 780.338 1083.93 777.57 1077.29C774.804 1070.66 727.773 1077.29 707.633 1089.41C687.493 1101.53 699.554 1124.38 717.039 1133.82C729.254 1139.81 742.484 1143.46 756.046 1144.58L773.559 1170.11C773.559 1170.11 750.68 1194.35 747.997 1202.4C745.313 1210.45 734.522 1296.46 734.522 1323.49C734.522 1350.52 738.563 1441.84 745.285 1455.31C752.008 1468.79 769.493 1485.14 778.816 1487.71C788.138 1490.28 1164.89 1501.16 1164.89 1501.16L1510.7 1493.08C1510.7 1493.08 1541.66 1502.48 1553.75 1440.51C1565.84 1378.54 1563.16 1326.17 1563.16 1291.12C1563.16 1256.07 1560.39 1207.71 1555.11 1197.06C1549.82 1186.41 1533.58 1172.85 1530.9 1168.81C1528.22 1164.77 1537.62 1139.21 1537.62 1139.21C1537.62 1139.21 1586.04 1135.17 1595.44 1128.45C1604.85 1121.73 1603.49 1098.93 1595.41 1089.52Z" fill="#92E3A9" stroke="#263238" stroke-width="3" stroke-linecap="round" stroke-linejoin="round"/>
<path d="M895.95 1082.47C895.95 1082.47 856.278 1118.79 1000.14 1133.79C1144 1148.78 1298.92 1174.95 1332.12 1189.81L1365.16 1204.69L1434.48 1171.66C1434.48 1171.66 1401.29 1133.79 1312.15 1118.79C1223.01 1103.8 1054.5 1094.03 996.763 1074.22C939.025 1054.42 895.95 1065.95 895.95 1082.47Z" fill="white"/>
<path d="M975.821 1348.14L989.957 1393.7" stroke="#263238" stroke-width="3" stroke-linecap="round" stroke-linejoin="round"/>
<path d="M1330.96 1348.14L1316.82 1393.7" stroke="#263238" stroke-width="3" stroke-linecap="round" stroke-linejoin="round"/>
<path d="M806.287 1114.2C806.287 1114.2 813.259 1151.94 849.998 1169.81C886.737 1187.68 973.137 1238.34 973.137 1238.34" stroke="#263238" stroke-width="3" stroke-linecap="round" stroke-linejoin="round"/>
<path d="M1496.54 1114.2C1496.54 1114.2 1489.59 1151.94 1452.86 1169.81C1416.11 1187.68 1329.69 1238.34 1329.69 1238.34" stroke="#263238" stroke-width="3" stroke-linecap="round" stroke-linejoin="round"/>
<path d="M831.131 1315.83L895.674 1387.31" stroke="#263238" stroke-width="3" stroke-linecap="round" stroke-linejoin="round"/>
<path d="M1465.75 1317.79L1406.16 1393.29" stroke="#263238" stroke-width="3" stroke-linecap="round" stroke-linejoin="round"/>
<path d="M1344.6 1258.2H1373.48" stroke="#263238" stroke-width="3" stroke-linecap="round" stroke-linejoin="round"/>
<path d="M962.208 1258.2H927.24" stroke="#263238" stroke-width="3" stroke-linecap="round" stroke-linejoin="round"/>
<path d="M737.788 1400.73C739.613 1426.24 742.158 1449.2 745.258 1455.42C752.008 1468.87 769.493 1485 778.897 1487.71C788.304 1490.42 1164.97 1501.16 1164.97 1501.16L1510.79 1493.08C1510.79 1493.08 1541.74 1502.48 1553.83 1440.51C1556.6 1426.68 1558.48 1413.4 1559.89 1400.62L737.788 1400.73Z" fill="#757575" stroke="#263238" stroke-width="3" stroke-linecap="round" stroke-linejoin="round"/>
<path d="M1014.69 1440.87H981.989L943.507 1494.3C1048.64 1497.72 1164.83 1501.04 1164.83 1501.04L1361.5 1496.45L1321.64 1440.87H1288.94L1151.8 1443.28L1014.69 1440.87Z" fill="#ABABAB" stroke="#263238" stroke-width="3" stroke-linecap="round" stroke-linejoin="round"/>
<path d="M890.555 929.452C890.555 929.452 827.313 1096.25 827.313 1101.64C827.313 1107.04 1209.37 1100.29 1209.37 1100.29H1470.45C1470.45 1100.29 1478.53 1094.92 1474.49 1076.08C1470.45 1057.24 1405.91 933.49 1405.91 933.49C1405.91 933.49 1167.79 924.057 1096.5 924.057C1025.2 924.057 890.555 929.452 890.555 929.452Z" fill="#263238" stroke="#263238" stroke-width="3" stroke-linecap="round" stroke-linejoin="round"/>
<path opacity="0.2" d="M869.724 995.267L973.662 1101.42H901.789L849.805 1050.54L869.724 995.267Z" fill="white"/>
<path opacity="0.2" d="M1080.95 933.822L1465.75 1070.9L1449.23 1027.97L1229.59 933.822H1080.95Z" fill="white"/>
<path d="M1388.5 1044.18H1151.36L1160.6 965.748H1379.24L1388.5 1044.18Z" fill="white" stroke="#263238" stroke-width="3" stroke-linecap="round" stroke-linejoin="round"/>
<path d="M1491.84 1183.59C1491.84 1183.59 1440.74 1197.03 1416.53 1213.16C1392.32 1229.29 1381.53 1238.72 1373.48 1260.19C1365.43 1281.66 1365.32 1316.85 1365.32 1316.85C1365.32 1316.85 1497.15 1298.04 1520.03 1284.56C1542.91 1271.09 1544.23 1241.54 1545.56 1230.78C1546.34 1224.03 1545.89 1217.18 1544.23 1210.59L1491.84 1183.59Z" fill="white" stroke="#263238" stroke-width="3" stroke-linecap="round" stroke-linejoin="round"/>
<path d="M1405.85 1268.49V1301.58" stroke="#263238" stroke-width="3" stroke-linecap="round" stroke-linejoin="round"/>
<path d="M1405.85 1254.55V1261.1" stroke="#263238" stroke-width="3" stroke-linecap="round" stroke-linejoin="round"/>
<path d="M1421.12 1248.65V1295.68" stroke="#263238" stroke-width="3" stroke-linecap="round" stroke-linejoin="round"/>
<path d="M1436.42 1281.13V1289.77" stroke="#263238" stroke-width="3" stroke-linecap="round" stroke-linejoin="round"/>
<path d="M1436.42 1242.76V1274.3" stroke="#263238" stroke-width="3" stroke-linecap="round" stroke-linejoin="round"/>
<path d="M1451.69 1236.87V1283.87" stroke="#263238" stroke-width="3" stroke-linecap="round" stroke-linejoin="round"/>
<path d="M1466.96 1271.64V1277.98" stroke="#263238" stroke-width="3" stroke-linecap="round" stroke-linejoin="round"/>
<path d="M1466.96 1230.98V1264.26" stroke="#263238" stroke-width="3" stroke-linecap="round" stroke-linejoin="round"/>
<path d="M1482.26 1225.08V1272.09" stroke="#263238" stroke-width="3" stroke-linecap="round" stroke-linejoin="round"/>
<path d="M1497.54 1252.67V1266.19" stroke="#263238" stroke-width="3" stroke-linecap="round" stroke-linejoin="round"/>
<path d="M1497.54 1219.16V1243.7" stroke="#263238" stroke-width="3" stroke-linecap="round" stroke-linejoin="round"/>
<path d="M1512.83 1213.27V1260.3" stroke="#263238" stroke-width="3" stroke-linecap="round" stroke-linejoin="round"/>
<path d="M808.859 1183.59C808.859 1183.59 859.986 1197.03 884.192 1213.16C908.4 1229.29 919.163 1238.72 927.24 1260.19C935.319 1281.66 935.319 1316.68 935.319 1316.68C935.319 1316.68 803.494 1297.87 780.613 1284.4C757.735 1270.92 756.407 1241.38 755.051 1230.62C754.291 1223.86 754.75 1217.02 756.407 1210.42L808.859 1183.59Z" fill="white" stroke="#263238" stroke-width="3" stroke-linecap="round" stroke-linejoin="round"/>
<path d="M891.275 1268.49V1301.58" stroke="#263238" stroke-width="3" stroke-linecap="round" stroke-linejoin="round"/>
<path d="M891.275 1254.55V1261.1" stroke="#263238" stroke-width="3" stroke-linecap="round" stroke-linejoin="round"/>
<path d="M876.003 1248.65V1295.68" stroke="#263238" stroke-width="3" stroke-linecap="round" stroke-linejoin="round"/>
<path d="M860.705 1281.13V1289.77" stroke="#263238" stroke-width="3" stroke-linecap="round" stroke-linejoin="round"/>
<path d="M860.705 1242.76V1274.3" stroke="#263238" stroke-width="3" stroke-linecap="round" stroke-linejoin="round"/>
<path d="M845.435 1236.87V1283.87" stroke="#263238" stroke-width="3" stroke-linecap="round" stroke-linejoin="round"/>
<path d="M830.135 1271.64V1277.98" stroke="#263238" stroke-width="3" stroke-linecap="round" stroke-linejoin="round"/>
<path d="M830.135 1230.98V1264.26" stroke="#263238" stroke-width="3" stroke-linecap="round" stroke-linejoin="round"/>
<path d="M814.864 1225.08V1272.09" stroke="#263238" stroke-width="3" stroke-linecap="round" stroke-linejoin="round"/>
<path d="M799.564 1252.67V1266.19" stroke="#263238" stroke-width="3" stroke-linecap="round" stroke-linejoin="round"/>
<path d="M799.564 1219.16V1243.7" stroke="#263238" stroke-width="3" stroke-linecap="round" stroke-linejoin="round"/>
<path d="M784.292 1213.27V1260.3" stroke="#263238" stroke-width="3" stroke-linecap="round" stroke-linejoin="round"/>
<path d="M975.239 1341.64C968.835 1314.21 964.48 1286.35 962.208 1258.28L997.981 1242.4L1144.28 1244.34L1308.83 1242.4L1344.6 1258.28C1342.37 1286.38 1338.05 1314.27 1331.68 1341.72L975.239 1341.64ZM994.357 1404.22C1004.18 1429.11 1014.11 1445.33 1022.02 1449.89C1033.75 1456.72 1061.78 1468.32 1144.66 1464.03C1245.45 1468.32 1273.5 1456.72 1285.23 1449.89C1293.03 1445.33 1302.96 1429.23 1312.89 1404.22H994.357Z" fill="#263238" stroke="#263238" stroke-width="3" stroke-linecap="round" stroke-linejoin="round"/>
<path d="M1344.6 1258.28L1308.83 1242.4L1144.28 1244.34L997.981 1242.4L962.208 1258.28C962.208 1258.28 962.347 1260.25 962.651 1263.81L1079.43 1279.2L1097.3 1289.13H1208.51L1226.41 1279.2L1344.13 1263.81C1344.46 1260.25 1344.6 1258.28 1344.6 1258.28Z" fill="#757575" stroke="#263238" stroke-width="3" stroke-linecap="round" stroke-linejoin="round"/>
<path d="M1308.83 1242.32L1144.28 1244.26L997.981 1242.32L984.562 1248.27H1056.58L1074.45 1255.24H1236.35L1249.24 1249.26H1324.49L1308.83 1242.32Z" fill="#263238" stroke="#263238" stroke-width="3" stroke-linecap="round" stroke-linejoin="round"/>
<path d="M968.185 1302.91L978.116 1290.98H1003.93C1019.96 1295.08 1036.26 1298.07 1052.7 1299.92C1079.54 1302.91 1272.2 1299.92 1272.2 1299.92L1306.95 1291.98H1326.59L1336.52 1307.86L1209.4 1321.69L1187.57 1329.63H1112.18L1093.32 1318.7L968.185 1302.91Z" fill="#757575" stroke="#263238" stroke-width="3" stroke-linecap="round" stroke-linejoin="round"/>
<path d="M1312.76 1323.77L1277.04 1335.74H1028.77L993 1323.82L970.869 1321.36C972.112 1327.89 973.635 1334.69 975.185 1341.69H1331.68C1333.09 1335.58 1334.45 1329.6 1335.53 1323.82L1312.76 1323.77Z" fill="#757575" stroke="#263238" stroke-width="3" stroke-linecap="round" stroke-linejoin="round"/>
<path d="M903.613 1466.77L913.545 1448.9C903.248 1433.21 887.799 1421.62 869.863 1416.11C839.071 1406.18 805.291 1401.23 794.362 1405.18C783.435 1409.14 780.531 1437.97 782.467 1445.91C784.404 1453.85 793.533 1460.82 793.533 1460.82L903.613 1466.77Z" fill="#474747"/>
<path d="M869.863 1416.11C854.142 1411.03 838.008 1407.32 821.641 1405.05C819.47 1405.99 817.516 1407.37 815.902 1409.1C814.288 1410.84 813.048 1412.88 812.264 1415.12C805.291 1432.02 806.287 1443.94 816.218 1456.84C817.739 1458.83 819.433 1460.68 821.282 1462.37L903.614 1466.82L913.545 1448.95C903.259 1433.25 887.807 1421.63 869.863 1416.11Z" fill="#263238"/>
<path d="M856.943 1435.48C856.943 1439.5 855.749 1443.44 853.512 1446.79C851.273 1450.14 848.093 1452.75 844.373 1454.29C840.652 1455.83 836.557 1456.23 832.608 1455.45C828.658 1454.66 825.031 1452.72 822.183 1449.88C819.335 1447.03 817.395 1443.4 816.611 1439.45C815.824 1435.5 816.228 1431.41 817.768 1427.69C819.31 1423.97 821.92 1420.79 825.269 1418.55C828.617 1416.31 832.554 1415.12 836.581 1415.12C839.255 1415.11 841.905 1415.64 844.377 1416.66C846.85 1417.68 849.094 1419.18 850.986 1421.07C852.877 1422.96 854.378 1425.21 855.399 1427.68C856.422 1430.15 856.947 1432.8 856.943 1435.48Z" fill="#ABABAB" stroke="#263238" stroke-width="3" stroke-linecap="round" stroke-linejoin="round"/>
<path d="M1400.62 1466.77L1390.69 1448.9C1401.02 1433.2 1416.51 1421.6 1434.48 1416.11C1465.25 1406.18 1499.03 1401.23 1509.96 1405.18C1520.88 1409.14 1523.79 1437.97 1521.88 1445.91C1519.97 1453.85 1510.95 1460.82 1510.95 1460.82L1400.62 1466.77Z" fill="#474747"/>
<path d="M1434.48 1416.11C1450.2 1411.02 1466.34 1407.32 1482.71 1405.05C1484.87 1405.99 1486.83 1407.37 1488.44 1409.11C1490.06 1410.84 1491.29 1412.88 1492.08 1415.12C1499.03 1432.02 1498.03 1443.94 1488.1 1456.84C1486.58 1458.83 1484.89 1460.68 1483.04 1462.37L1400.71 1466.82L1390.77 1448.95C1401.08 1433.25 1416.54 1421.64 1434.48 1416.11Z" fill="#263238"/>
<path d="M1486.43 1443.16C1490.71 1432.76 1485.75 1420.86 1475.36 1416.58C1464.96 1412.29 1453.06 1417.25 1448.77 1427.65C1444.49 1438.04 1449.45 1449.95 1459.84 1454.23C1470.24 1458.51 1482.14 1453.56 1486.43 1443.16Z" fill="#ABABAB" stroke="#263238" stroke-width="3" stroke-linecap="round" stroke-linejoin="round"/>
<path d="M894.678 928.483H910.586C910.586 928.483 915.483 907.403 930.892 902.532H943.341C943.341 902.532 933.41 890.747 918.442 892.74C903.475 894.731 894.678 906.628 894.678 928.483Z" fill="white" stroke="#263238" stroke-width="3" stroke-linecap="round" stroke-linejoin="round"/>
<path d="M930.478 893.985C905.275 900.403 910.586 928.484 910.586 928.484C910.586 928.484 915.484 907.403 930.892 902.533H943.341C939.81 898.682 935.395 895.748 930.478 893.985Z" fill="#263238" stroke="#263238" stroke-width="3" stroke-linecap="round" stroke-linejoin="round"/>
<path d="M1404.19 928.483H1388.28C1388.28 928.483 1383.39 907.403 1367.95 902.532H1355.5C1355.5 902.532 1365.43 890.747 1380.4 892.74C1395.37 894.731 1404.19 906.628 1404.19 928.483Z" fill="white" stroke="#263238" stroke-width="3" stroke-linecap="round" stroke-linejoin="round"/>
<path d="M1368.39 893.985C1393.6 900.403 1388.28 928.484 1388.28 928.484C1388.28 928.484 1383.39 907.403 1367.95 902.533H1355.5C1359.04 898.684 1363.47 895.752 1368.39 893.985Z" fill="#263238" stroke="#263238" stroke-width="3" stroke-linecap="round" stroke-linejoin="round"/>
<path d="M922.676 1103L1072.07 1092.29L1100.2 1082.61C1100.2 1082.61 1207.93 1078.71 1282.66 1090.35H1093.43" stroke="#8A8A8A" stroke-width="3" stroke-linecap="round" stroke-linejoin="round"/>
<path d="M1500.85 840.673L1537.4 1139.27L1532.45 779.976" stroke="#263238" stroke-width="3" stroke-miterlimit="10"/>
<path d="M1524.07 645.88L1537.4 1139.27L1577.35 745.449" stroke="#263238" stroke-width="3" stroke-miterlimit="10"/>
<path d="M1464.39 699.221L1538.67 1133.98" stroke="#263238" stroke-width="3" stroke-miterlimit="10"/>
<path d="M1593.17 599.846C1592.76 633.044 1565.2 686.992 1531.98 686.578C1498.75 686.162 1471.67 631.633 1472.86 598.408C1474.38 555.471 1500.52 531.513 1533.72 532.011C1566.92 532.508 1593.64 559.012 1593.17 599.846Z" fill="#263238" stroke="#263238" stroke-width="3" stroke-linecap="round" stroke-linejoin="round"/>
<path opacity="0.5" d="M1573.2 567.146C1576.27 576.082 1572.31 585.516 1564.4 588.254C1556.49 590.993 1547.53 585.958 1544.48 577.022C1541.44 568.087 1545.34 558.653 1553.28 555.914C1561.22 553.175 1570.04 558.348 1573.2 567.146Z" fill="white"/>
<path d="M1499.55 641.178C1510.46 672.552 1502.85 732.612 1471.47 743.541C1440.1 754.468 1396.09 712.334 1385.9 680.713C1372.74 639.794 1389.25 608.367 1420.63 597.44C1452 586.511 1486.08 602.612 1499.55 641.178Z" fill="#92E3A9" stroke="#263238" stroke-width="3" stroke-linecap="round" stroke-linejoin="round"/>
<path opacity="0.5" d="M1464.11 615.09C1470.56 621.979 1470.84 632.187 1464.72 637.942C1458.61 643.696 1448.4 642.728 1441.95 635.867C1435.51 629.006 1435.23 618.74 1441.35 612.986C1447.46 607.232 1457.67 608.145 1464.11 615.09Z" fill="white"/>
<path d="M1647.78 695.044C1644.33 728.076 1611.82 779.201 1578.82 775.715C1545.81 772.228 1523.87 715.377 1528.13 682.426C1533.67 639.822 1561.97 618.382 1595 621.868C1628.03 625.354 1652.07 654.319 1647.78 695.044Z" fill="#92E3A9" stroke="#263238" stroke-width="3" stroke-linecap="round" stroke-linejoin="round"/>
<path opacity="0.5" d="M1632.85 661.124C1637.11 669.424 1634.53 679.439 1627.06 683.257C1619.59 687.075 1610.05 683.257 1605.76 674.958C1601.47 666.658 1604.07 656.643 1611.54 652.825C1619.01 649.007 1628.56 652.714 1632.85 661.124Z" fill="white"/>
<path d="M1579.81 732.391C1577.04 765.59 1545.4 817.185 1512.28 814.308C1479.16 811.431 1456.29 754.965 1459.96 721.933C1464.7 679.217 1492.64 657.307 1525.72 660.184C1558.81 663.061 1583.38 691.612 1579.81 732.391Z" fill="#263238" stroke="#263238" stroke-width="3" stroke-linecap="round" stroke-linejoin="round"/>
<path opacity="0.5" d="M1558.18 694.103C1561.25 703.011 1557.32 712.472 1549.38 715.183C1541.44 717.895 1532.53 712.886 1529.46 703.979C1526.39 695.071 1530.32 685.608 1538.26 682.869C1546.2 680.131 1555.1 685.167 1558.18 694.103Z" fill="white"/>
<path d="M1534.99 756.929C1546.06 788.275 1538.45 848.365 1507.08 859.292C1475.71 870.221 1431.64 828.196 1421.32 796.602C1408.06 755.686 1424.53 724.231 1455.9 713.275C1487.27 702.318 1521.47 718.281 1534.99 756.929Z" fill="#92E3A9" stroke="#263238" stroke-width="3" stroke-linecap="round" stroke-linejoin="round"/>
<path opacity="0.5" d="M1506.97 732.639C1514.44 738.421 1516.35 748.492 1511.2 755.104C1506.06 761.715 1495.87 762.462 1488.4 756.681C1480.93 750.899 1479.03 740.939 1484.28 734.216C1489.54 727.494 1499.5 726.885 1506.97 732.639Z" fill="white"/>
<path d="M1190.76 1015.19C1189 1015.19 1187.38 1014.88 1185.9 1014.27C1184.43 1013.66 1183.23 1012.73 1182.31 1011.48C1181.4 1010.23 1180.91 1008.64 1180.84 1006.71H1185.37C1185.37 1007.69 1185.61 1008.49 1186.09 1009.12C1186.58 1009.74 1187.22 1010.21 1188.03 1010.52C1188.85 1010.82 1189.74 1010.97 1190.72 1010.97C1191.66 1010.97 1192.49 1010.85 1193.22 1010.6C1193.96 1010.35 1194.54 1010 1194.96 1009.54C1195.39 1009.08 1195.6 1008.52 1195.6 1007.89C1195.6 1007.04 1195.34 1006.38 1194.82 1005.89C1194.31 1005.41 1193.49 1004.97 1192.36 1004.57L1187.36 1002.58C1185.41 1001.81 1183.91 1000.92 1182.87 999.902C1181.83 998.887 1181.31 997.488 1181.31 995.706C1181.31 993.65 1182.13 991.983 1183.75 990.709C1185.38 989.434 1187.65 988.796 1190.56 988.796C1193.4 988.796 1195.59 989.46 1197.14 990.787C1198.69 992.1 1199.57 993.935 1199.78 996.291H1195.25C1195.08 995.29 1194.62 994.49 1193.88 993.89C1193.14 993.279 1192.03 992.973 1190.56 992.973C1189.26 992.973 1188.24 993.246 1187.48 993.793C1186.72 994.326 1186.35 995.003 1186.35 995.823C1186.35 996.526 1186.58 997.086 1187.05 997.501C1187.53 997.905 1188.27 998.296 1189.28 998.673L1194.82 1000.82C1196.69 1001.55 1198.13 1002.47 1199.13 1003.57C1200.13 1004.68 1200.64 1006.06 1200.64 1007.73C1200.64 1009.25 1200.25 1010.57 1199.48 1011.69C1198.72 1012.8 1197.6 1013.66 1196.13 1014.27C1194.66 1014.88 1192.87 1015.19 1190.76 1015.19ZM1206.79 1014.64V989.303H1223.07V993.285H1211.4V999.961H1222.37V1003.94H1211.4V1010.62H1223.07V1014.64H1206.79ZM1247.5 1009.6L1253.98 989.303H1258.82L1250.12 1014.64H1245.28L1236.69 989.303H1241.57L1247.97 1009.6H1247.5ZM1263.1 1014.64V989.303H1279.38V993.285H1267.71V999.961H1278.68V1003.94H1267.71V1010.62H1279.38V1014.64H1263.1ZM1285.97 989.303H1291.01L1302.53 1007.38H1302.18V989.303H1306.78V1014.64H1302.1L1289.84 995.471H1290.58V1014.64H1285.97V989.303ZM1314.04 989.303H1322.23C1324.81 989.303 1327.07 989.825 1329.01 990.865C1330.94 991.894 1332.45 993.358 1333.53 995.257C1334.61 997.156 1335.15 999.401 1335.15 1001.99C1335.15 1004.55 1334.61 1006.79 1333.53 1008.69C1332.45 1010.57 1330.94 1012.04 1329.01 1013.08C1327.07 1014.12 1324.81 1014.64 1322.23 1014.64H1314.04V989.303ZM1318.64 993.481V1010.5H1322.23C1323.87 1010.5 1325.28 1010.13 1326.47 1009.39C1327.67 1008.65 1328.58 1007.64 1329.22 1006.36C1329.87 1005.07 1330.2 1003.62 1330.2 1001.99C1330.2 1000.34 1329.87 998.874 1329.22 997.599C1328.58 996.324 1327.67 995.321 1326.47 994.593C1325.28 993.851 1323.87 993.481 1322.23 993.481H1318.64ZM1340.8 1014.64V989.303H1357.07V993.285H1345.4V999.961H1356.37V1003.94H1345.4V1010.62H1357.07V1014.64H1340.8Z" fill="black"/>
<path d="M629.119 793.504C633.793 791.234 636.393 782.243 635.011 772.035C633.489 760.665 627.623 752.088 621.953 752.863C617.471 753.445 614.428 759.697 614.097 767.858L629.119 793.504Z" fill="#263238" stroke="#263238" stroke-width="3" stroke-linecap="round" stroke-linejoin="round"/>
<path d="M507.695 729.874C510.258 726.686 511.828 722.816 512.212 718.744C512.595 714.672 511.775 710.577 509.852 706.966C503.406 693.355 454.024 694.075 436.124 719.858C418.225 745.643 436.512 775.799 461.023 771.372C480.029 767.969 501.885 740.58 507.695 729.874Z" fill="white" stroke="#263238" stroke-width="3" stroke-linecap="round" stroke-linejoin="round"/>
<path d="M436.041 719.831C436.344 725.921 437.913 731.88 440.647 737.328C443.381 742.778 447.221 747.597 451.921 751.48C468.022 764.954 480.61 762.352 480.61 762.352" stroke="#263238" stroke-width="3" stroke-linecap="round" stroke-linejoin="round"/>
<path d="M440.163 716.263C440.163 716.263 453.664 731.035 466.694 737.121C474.277 740.64 481.666 744.566 488.827 748.879" stroke="#263238" stroke-width="3" stroke-linecap="round" stroke-linejoin="round"/>
<path d="M443.207 711.89C443.207 711.89 461.908 707.104 478.452 711.033C488.634 713.721 497.367 720.27 502.798 729.292" stroke="#263238" stroke-width="3" stroke-linecap="round" stroke-linejoin="round"/>
<path d="M607.954 733.912C607.954 733.912 615.756 746.721 617.415 756.045C619.076 765.368 617.415 772.201 620.183 777.762C622.949 783.323 634.014 791.125 631.857 796.132C629.699 801.141 621.842 804.431 621.842 804.431C621.842 804.431 610.14 830.05 604.025 837.852C597.911 845.654 574.506 837.852 574.506 837.852L573.954 850.106L528.306 841.807C528.306 841.807 533.313 834.559 524.958 825.651C516.603 816.742 491.538 786.671 520.504 757.732C549.471 728.794 598.493 730.565 607.954 733.912Z" fill="white" stroke="#263238" stroke-width="3" stroke-linecap="round" stroke-linejoin="round"/>
<path d="M574.535 838.045L555.666 834.586L573.981 850.301L574.535 838.045Z" fill="#263238" stroke="#263238" stroke-width="3" stroke-linecap="round" stroke-linejoin="round"/>
<path d="M609.642 737.591C606.144 731.03 601.667 725.042 596.361 719.83C579.762 704.061 542.691 701.931 512.619 721.96C482.547 741.99 462.517 797.126 479.697 817.157C496.878 837.188 535.526 824.323 535.526 824.323C535.526 824.323 528.36 795.688 537.685 792.811C547.007 789.934 555.584 793.531 557.05 787.113C558.516 780.693 556.331 764.205 570.66 754.883C584.991 745.559 603.554 749.708 609.642 737.591Z" fill="white" stroke="#263238" stroke-width="3" stroke-linecap="round" stroke-linejoin="round"/>
<path d="M534.115 812.869C534.115 812.869 521.942 822.441 498.15 814.612C474.358 806.783 475.548 782.853 475.548 782.853" stroke="#263238" stroke-width="3" stroke-linecap="round" stroke-linejoin="round"/>
<path d="M480.195 767.58C480.088 773.582 481.882 779.463 485.321 784.382C488.76 789.303 493.667 793.008 499.34 794.969C519.757 802.799 530.215 798.012 530.215 798.012" stroke="#263238" stroke-width="3" stroke-linecap="round" stroke-linejoin="round"/>
<path d="M485.396 754.965C487.701 761.545 491.552 767.475 496.627 772.257C501.701 777.037 507.85 780.529 514.556 782.436C519.976 784.185 525.526 785.499 531.156 786.365" stroke="#263238" stroke-width="3" stroke-linecap="round" stroke-linejoin="round"/>
<path d="M490.182 746.252C501.772 753.581 514.004 759.841 526.728 764.953C545.873 772.367 563.274 761.051 563.274 761.051" stroke="#263238" stroke-width="3" stroke-linecap="round" stroke-linejoin="round"/>
<path d="M499.755 734.964C499.755 734.964 503.241 741.907 538.901 738.007C574.562 734.105 591.466 738.92 594.564 745.836" stroke="#263238" stroke-width="3" stroke-linecap="round" stroke-linejoin="round"/>
<path d="M506.727 726.692C517.53 724.305 528.138 721.105 538.46 717.12C560.204 709.291 594.26 713.717 609.643 737.591" stroke="#263238" stroke-width="3" stroke-linecap="round" stroke-linejoin="round"/>
<path d="M545.541 797.847C545.541 797.847 540.535 778.482 528.942 778.482C517.35 778.482 521.085 802.109 529.66 811.404C538.237 820.699 543.412 815.635 543.412 815.635" fill="white"/>
<path d="M545.541 797.847C545.541 797.847 540.535 778.482 528.942 778.482C517.35 778.482 521.085 802.109 529.66 811.404C538.237 820.699 543.412 815.635 543.412 815.635" stroke="#263238" stroke-width="3" stroke-linecap="round" stroke-linejoin="round"/>
<path d="M583.498 805.704C583.498 805.704 590.636 817.876 602.863 815.028" stroke="#263238" stroke-width="3" stroke-linecap="round" stroke-linejoin="round"/>
<path d="M614.947 778.42C616.737 767.101 609.014 756.472 597.694 754.683C586.375 752.893 575.749 760.616 573.959 771.934C572.167 783.253 579.891 793.881 591.21 795.671C602.529 797.461 613.156 789.737 614.947 778.42Z" fill="#263238" stroke="#263238" stroke-width="3" stroke-linecap="round" stroke-linejoin="round"/>
<path d="M576.332 776.351L539.814 784.955" stroke="#263238" stroke-width="3" stroke-linecap="round" stroke-linejoin="round"/>
<path d="M613.295 771.703L621.869 769.546" stroke="#263238" stroke-width="3" stroke-linecap="round" stroke-linejoin="round"/>
<path d="M543.411 1513.61V1559.42H503.323V1512.89L543.411 1513.61Z" fill="white" stroke="#263238" stroke-width="3" stroke-linecap="round" stroke-linejoin="round"/>
<path d="M579.183 1518.61L578.462 1547.25L599.959 1555.82L613.542 1547.25V1514.32L579.183 1518.61Z" fill="white" stroke="#263238" stroke-width="3" stroke-linecap="round" stroke-linejoin="round"/>
<path d="M616.419 900.9C616.419 900.9 639.243 914.013 642.647 931.028C646.05 948.041 652.854 1010.34 660.767 1029.6C668.68 1048.85 672.11 1061.33 667.573 1067C665.563 1069.77 664.128 1072.9 663.348 1076.23C662.569 1079.55 662.463 1083 663.035 1086.37C664.169 1090.91 674.378 1094.31 669.842 1103.38C665.305 1112.46 659.66 1121.5 659.66 1121.5V1242.76C659.66 1254.1 646.05 1267.66 642.647 1271.09C639.243 1274.52 633.573 1262.04 633.573 1252.97C633.573 1243.9 631.303 1035.38 628.039 1019.53C624.774 1003.68 605.354 903.916 605.354 903.916C605.354 903.916 608.313 894.592 616.419 900.9Z" fill="#92E3A9" stroke="#263238" stroke-width="3" stroke-linecap="round" stroke-linejoin="round"/>
<path d="M642.647 1270.98C646.05 1267.61 659.66 1253.99 659.66 1242.65V1140.15C650.537 1141.84 641.219 1142.18 631.996 1141.18C632.937 1195.57 633.489 1248.41 633.489 1252.86C633.573 1261.93 639.243 1274.38 642.647 1270.98Z" fill="white" stroke="#263238" stroke-width="3" stroke-linecap="round" stroke-linejoin="round"/>
<path d="M478.978 1191.5L501.11 1527.91L545.375 1527.19L574.092 1185.77L578.408 1186.49L576.249 1526.47L614.981 1525.06L655.067 1205.72C655.067 1205.72 646.463 1132.71 638.468 1115.53C633.471 1104.86 626.948 1094.97 619.103 1086.18H504.043C504.043 1086.18 484.705 1118.49 478.978 1191.5Z" fill="#263238" stroke="#263238" stroke-width="3" stroke-linecap="round" stroke-linejoin="round"/>
<path d="M573.456 875.144C573.456 875.144 596.362 890.167 601.37 903.058C606.377 915.95 624.996 1093.45 624.996 1096.3C624.996 1099.15 590.637 1098.46 570.606 1099.07C550.575 1099.68 543.412 1099.79 543.412 1099.79C543.412 1099.79 516.935 925.136 511.9 907.237C506.865 889.336 511.9 882.2 517.627 876.473C523.353 870.746 532.676 869.307 536.992 867.148C541.308 864.992 573.456 875.144 573.456 875.144Z" fill="white" stroke="#263238" stroke-width="3" stroke-linecap="round" stroke-linejoin="round"/>
<path d="M581.339 886.597C581.339 886.597 598.52 924.527 607.815 1011.09C613.349 1063.93 612.104 1208.65 612.104 1208.65C614.643 1210.82 617.77 1212.18 621.084 1212.56C624.401 1212.95 627.756 1212.34 630.723 1210.81C641.951 1206.57 653.424 1203.03 665.083 1200.19C665.083 1200.19 651.472 1107.12 650.779 1074.92C650.088 1042.71 635.011 949.646 627.873 923.17C620.735 896.695 617.831 893.126 607.097 886.681C596.361 880.234 579.901 878.077 579.901 878.077L581.339 886.597Z" fill="#92E3A9" stroke="#263238" stroke-width="3" stroke-linecap="round" stroke-linejoin="round"/>
<path d="M582.778 883.72C582.778 883.72 587.067 863.691 586.348 855.805C585.628 847.922 583.442 847.285 566.263 846.565C549.082 845.847 529.081 832.179 523.354 839.345C517.627 846.51 516.216 872.986 519.785 876.5C523.354 880.013 538.126 889.751 561.061 891.854C569.195 892.656 580.621 889.447 582.778 883.72Z" fill="white" stroke="#263238" stroke-width="3" stroke-linecap="round" stroke-linejoin="round"/>
<path d="M518.346 872.986C518.346 872.986 474.081 901.619 464.675 912.355C455.269 923.088 473.251 1077.71 473.971 1116.36C474.169 1142.67 472.737 1168.96 469.682 1195.09C484.317 1202.01 499.38 1207.98 514.777 1212.97C532.424 1218.47 551.254 1218.97 569.167 1214.41C569.167 1214.41 559.872 1071.98 558.434 1030.46C556.995 988.933 542.691 917.361 537.685 900.901C532.676 884.44 518.346 872.986 518.346 872.986Z" fill="#92E3A9" stroke="#263238" stroke-width="3" stroke-linecap="round" stroke-linejoin="round"/>
<path d="M517.627 868.698C517.627 868.698 475.409 896.613 478.259 900.181C481.108 903.751 500.391 998.975 500.391 1046.81C500.391 1094.64 502.549 1189.26 502.549 1189.26C502.549 1189.26 516.16 1189.26 526.176 1189.98C536.19 1190.7 557.659 1187.21 557.659 1187.21C557.659 1187.21 550.493 1088.44 550.493 1038.34C550.493 988.24 532.621 911.635 528.36 899.462C524.1 887.29 517.627 868.698 517.627 868.698Z" fill="#263238" stroke="#263238" stroke-width="3" stroke-linecap="round" stroke-linejoin="round"/>
<path d="M583.498 880.152C583.498 880.152 599.958 966.052 607.097 1021.88C614.233 1077.71 622.146 1143.61 622.146 1154.29V1181.48C622.146 1181.48 635.729 1183.64 640.738 1183.64C644.911 1183.33 649.014 1182.4 652.91 1180.87C652.91 1180.87 642.177 1085.68 639.327 1042.02C636.477 998.366 621.428 916.061 616.419 900.928L611.412 885.906C611.412 885.906 593.457 876.5 583.498 880.152Z" fill="#263238" stroke="#263238" stroke-width="3" stroke-linecap="round" stroke-linejoin="round"/>
<path d="M478.978 1380.48L373.849 1352.57C373.849 1352.57 365.965 1386.21 358.827 1399.79C351.689 1413.37 346.571 1437 348.729 1449.17C350.887 1461.35 363.752 1469.23 373.766 1472.8C383.781 1476.37 460.387 1498.56 479.697 1497.15C499.007 1495.73 501.829 1479.96 499.754 1466.35C497.68 1452.74 478.978 1380.48 478.978 1380.48Z" fill="#263238" stroke="#263238" stroke-width="3" stroke-linecap="round" stroke-linejoin="round"/>
<path d="M499.754 1466.35C497.597 1452.77 478.978 1380.59 478.978 1380.59L472.449 1378.85C471.287 1384.71 456.707 1457.94 454.66 1476.48C453.581 1486.05 456.209 1491.75 460.691 1495.35C466.94 1496.66 473.312 1497.3 479.697 1497.26C499.035 1495.71 501.885 1479.96 499.754 1466.35Z" fill="#4C4C4C" stroke="#263238" stroke-width="3" stroke-linecap="round" stroke-linejoin="round"/>
<path d="M421.019 1244.45L391.749 1371.93C391.52 1372.91 390.948 1373.78 390.136 1374.37C389.324 1374.96 388.326 1375.25 387.322 1375.17C386.714 1375.11 386.126 1374.92 385.598 1374.62C385.07 1374.31 384.615 1373.89 384.265 1373.39C383.915 1372.89 383.678 1372.32 383.57 1371.72C383.463 1371.12 383.488 1370.5 383.643 1369.91L419.608 1234.35L453.249 1240.08L467.082 1387.48C467.137 1388.14 467.037 1388.8 466.788 1389.41C466.54 1390.03 466.15 1390.57 465.652 1391C465.154 1391.44 464.56 1391.75 463.919 1391.91C463.278 1392.07 462.608 1392.08 461.964 1391.93L461.355 1391.8C460.476 1391.59 459.685 1391.11 459.101 1390.42C458.518 1389.74 458.173 1388.88 458.118 1387.98L449.819 1246.5L421.019 1244.45Z" fill="#263238" stroke="#263238" stroke-width="3" stroke-linecap="round" stroke-linejoin="round"/>
<path d="M473.251 905.189C473.251 905.189 443.207 915.232 438.891 925.966C434.575 936.699 429.595 1021.16 427.465 1041.19C425.335 1061.22 425.335 1066.26 425.335 1066.26C425.335 1066.26 407.435 1074.83 410.313 1086.29C413.19 1097.74 423.896 1107.75 423.896 1110.63C423.896 1113.51 428.184 1202.23 428.184 1202.23C428.184 1202.23 414.601 1245.2 417.45 1248.77C420.3 1252.33 431.062 1256.65 432.5 1258.78C433.939 1260.91 441.796 1268.8 445.365 1265.95C447.44 1264.31 448.926 1262.05 449.597 1259.5L451.728 1251.64C451.728 1251.64 460.332 1260.22 462.462 1260.22C464.592 1260.22 458.893 1243.76 458.893 1233.02C458.893 1222.29 449.597 1207.24 449.597 1204.39C449.597 1201.54 458.948 1117.19 458.948 1117.19C458.948 1117.19 473.251 1105.02 474.69 1095.06C476.129 1085.1 472.532 1073.56 473.971 1069.99C475.409 1066.42 480.417 1058.54 481.136 1051.37C481.855 1044.21 476.129 1033.5 475.409 1027.77C474.69 1022.05 480.417 942.592 480.417 942.592" fill="#92E3A9"/>
<path d="M473.251 905.189C473.251 905.189 443.207 915.232 438.891 925.966C434.575 936.699 429.595 1021.16 427.465 1041.19C425.335 1061.22 425.335 1066.26 425.335 1066.26C425.335 1066.26 407.435 1074.83 410.313 1086.29C413.19 1097.74 423.896 1107.75 423.896 1110.63C423.896 1113.51 428.184 1202.23 428.184 1202.23C428.184 1202.23 414.601 1245.2 417.45 1248.77C420.3 1252.33 431.062 1256.65 432.5 1258.78C433.939 1260.91 441.796 1268.8 445.365 1265.95C447.44 1264.31 448.926 1262.05 449.597 1259.5L451.728 1251.64C451.728 1251.64 460.332 1260.22 462.462 1260.22C464.592 1260.22 458.893 1243.76 458.893 1233.02C458.893 1222.29 449.597 1207.24 449.597 1204.39C449.597 1201.54 458.948 1117.19 458.948 1117.19C458.948 1117.19 473.251 1105.02 474.69 1095.06C476.129 1085.1 472.532 1073.56 473.971 1069.99C475.409 1066.42 480.417 1058.54 481.136 1051.37C481.855 1044.21 476.129 1033.5 475.409 1027.77C474.69 1022.05 480.417 942.592 480.417 942.592" stroke="#263238" stroke-width="3" stroke-linecap="round" stroke-linejoin="round"/>
<path d="M432.473 1258.78C433.884 1260.94 441.768 1268.8 445.337 1265.95C447.423 1264.32 448.919 1262.06 449.598 1259.5L451.728 1251.64C451.728 1251.64 460.332 1260.22 462.462 1260.22C464.592 1260.22 458.893 1243.76 458.893 1233.02C458.893 1222.29 449.598 1207.24 449.598 1204.39C449.598 1202.45 453.83 1163.25 456.597 1137.99L424.92 1135.56C426.193 1162.73 428.101 1202.2 428.101 1202.2C428.101 1202.2 414.518 1245.17 417.367 1248.74C420.217 1252.31 431.034 1256.65 432.473 1258.78Z" fill="white" stroke="#263238" stroke-width="3" stroke-linecap="round" stroke-linejoin="round"/>
<path d="M536.965 1556.54C536.965 1556.54 511.208 1552.25 506.893 1552.25C502.577 1552.25 483.986 1581.61 481.136 1593.03C478.287 1604.46 486.863 1608.77 488.993 1608.77H545.541C545.541 1608.77 554.145 1608.77 554.864 1595.16C555.584 1581.55 549.857 1562.24 549.857 1557.23C549.857 1552.23 553.425 1545.78 551.986 1542.21C550.548 1538.64 537.685 1536.51 536.965 1556.54Z" fill="#92E3A9" stroke="#263238" stroke-width="3" stroke-linecap="round" stroke-linejoin="round"/>
<path d="M554.864 1595.19C554.996 1591.21 554.791 1587.22 554.257 1583.27C551.212 1586.84 548.943 1593.56 544.85 1596.63C539.123 1600.92 524.792 1599.4 521.942 1598.79C519.093 1598.18 511.9 1584.46 508.331 1582.33C504.762 1580.2 496.878 1596.63 496.878 1596.63H480.583C480.231 1599.32 480.882 1602.05 482.412 1604.3C483.943 1606.54 486.246 1608.14 488.882 1608.8H545.541C545.541 1608.8 554.145 1608.8 554.864 1595.19Z" fill="white" stroke="#263238" stroke-width="3" stroke-linecap="round" stroke-linejoin="round"/>
<path d="M505.15 1557.46C505.15 1557.46 500.336 1524.95 503.932 1523.54C507.529 1522.13 539.648 1518.81 541.087 1525.94C542.526 1533.08 537.048 1558.26 537.048 1558.26L505.15 1557.46Z" fill="white" stroke="#263238" stroke-width="3" stroke-linecap="round" stroke-linejoin="round"/>
<path d="M512.758 1523.87L512.315 1536.4L529.772 1537.29L531.128 1523.87C525.08 1522.51 518.806 1522.51 512.758 1523.87Z" fill="#92E3A9" stroke="#263238" stroke-width="3" stroke-linecap="round" stroke-linejoin="round"/>
<path d="M540.173 1563.13L503.324 1561.91C502.994 1561.9 502.669 1561.83 502.368 1561.7C502.067 1561.56 501.795 1561.37 501.569 1561.13C501.343 1560.89 501.166 1560.61 501.049 1560.3C500.932 1559.99 500.878 1559.66 500.889 1559.34C500.888 1559 500.956 1558.67 501.089 1558.36C501.222 1558.06 501.416 1557.78 501.66 1557.55C501.904 1557.32 502.192 1557.15 502.507 1557.04C502.822 1556.92 503.156 1556.88 503.49 1556.9L540.339 1558.09C541.007 1558.09 541.647 1558.36 542.119 1558.83C542.592 1559.3 542.857 1559.94 542.857 1560.61C542.857 1561.28 542.592 1561.92 542.119 1562.39C541.647 1562.86 541.007 1563.13 540.339 1563.13H540.173Z" fill="white" stroke="#263238" stroke-width="3" stroke-linecap="round" stroke-linejoin="round"/>
<path d="M537.96 1568.88L501.11 1567.66C500.447 1567.64 499.82 1567.36 499.364 1566.88C498.908 1566.4 498.661 1565.75 498.676 1565.09C498.671 1564.76 498.736 1564.42 498.867 1564.11C498.998 1563.81 499.193 1563.53 499.437 1563.3C499.682 1563.07 499.972 1562.89 500.289 1562.78C500.606 1562.67 500.942 1562.63 501.276 1562.66L538.126 1563.85C538.795 1563.85 539.435 1564.11 539.906 1564.58C540.378 1565.05 540.644 1565.7 540.644 1566.36C540.644 1567.03 540.378 1567.67 539.906 1568.14C539.435 1568.62 538.795 1568.88 538.126 1568.88H537.96Z" fill="white" stroke="#263238" stroke-width="3" stroke-linecap="round" stroke-linejoin="round"/>
<path d="M533.701 1574.19L503.628 1572.98C503.023 1572.89 502.477 1572.57 502.105 1572.08C501.733 1571.59 501.565 1570.98 501.636 1570.38C501.636 1568.99 502.605 1567.8 503.767 1567.97L533.84 1569.16C534.441 1569.25 534.984 1569.58 535.354 1570.06C535.723 1570.55 535.895 1571.15 535.831 1571.76C535.868 1572.36 535.667 1572.96 535.267 1573.41C534.868 1573.87 534.304 1574.15 533.701 1574.19Z" fill="white" stroke="#263238" stroke-width="3" stroke-linecap="round" stroke-linejoin="round"/>
<path d="M600.677 1547.96C600.677 1547.96 577.051 1537.23 572.045 1542.24C567.038 1547.25 565.599 1550.1 569.279 1552.25C572.958 1554.41 577.883 1557.26 577.883 1557.26C577.883 1557.26 569.997 1593.75 572.874 1598.76C575.09 1602.2 578.014 1605.12 581.451 1607.33H680.216C680.216 1607.33 685.943 1604.57 680.935 1594.44C675.928 1584.32 655.899 1579.42 648.013 1574.41C640.13 1569.41 625.108 1550.79 624.387 1548.66C623.669 1546.53 627.985 1527.16 622.976 1525.03C617.969 1522.9 602.2 1525.03 602.92 1530.76C603.705 1535.38 604.909 1539.93 606.516 1544.34L600.677 1547.96Z" fill="#92E3A9" stroke="#263238" stroke-width="3" stroke-linecap="round" stroke-linejoin="round"/>
<path d="M622.396 1573.8C623.419 1575.27 624.913 1576.16 625.744 1575.8L641.512 1569.1C639.964 1567.61 638.359 1565.95 636.809 1564.26L622.035 1570.51C621.124 1570.9 621.372 1572.34 622.396 1573.8Z" fill="white" stroke="#263238" stroke-width="3" stroke-linecap="round" stroke-linejoin="round"/>
<path d="M613.515 1562.6C614.51 1564.07 616.281 1564.9 617.167 1564.43L631.414 1558.2C629.837 1556.32 628.425 1554.58 627.291 1553.11L613.46 1559.14C612.381 1559.42 612.492 1561.08 613.515 1562.6Z" fill="white" stroke="#263238" stroke-width="3" stroke-linecap="round" stroke-linejoin="round"/>
<path d="M616.28 1565.87C615.174 1566.2 615.285 1567.86 616.28 1569.32C617.278 1570.79 619.048 1571.59 619.933 1571.15L636.532 1563.9C635.011 1562.24 633.516 1560.55 632.134 1558.95L616.28 1565.87Z" fill="white" stroke="#263238" stroke-width="3" stroke-linecap="round" stroke-linejoin="round"/>
<path d="M626.462 1551.76C625.744 1549.63 630.944 1523.65 625.937 1521.52C620.928 1519.39 603.583 1525.06 602.808 1530.79C602.088 1536.04 606.404 1544.37 606.404 1544.37L614.262 1558.7C614.262 1558.7 625.023 1553.91 626.462 1551.76Z" fill="white" stroke="#263238" stroke-width="3" stroke-linecap="round" stroke-linejoin="round"/>
<path d="M612.188 1524.31L615.313 1533.28L623.392 1530.51L621.594 1521.99C621.594 1521.99 614.429 1521.1 612.188 1524.31Z" fill="#92E3A9" stroke="#263238" stroke-width="3" stroke-linecap="round" stroke-linejoin="round"/>
<path d="M680.825 1594.47C679.632 1592.31 678.002 1590.43 676.039 1588.94C675.953 1589.13 675.879 1589.32 675.816 1589.52C674.378 1594.53 676.537 1599.54 673.687 1602.41C670.837 1605.29 656.506 1604.57 645.054 1603.13C633.6 1601.69 613.542 1595.25 599.959 1590.24C591.001 1587.39 581.433 1587.05 572.294 1589.24C571.943 1592.44 572.064 1595.68 572.653 1598.84C572.93 1601.02 573.922 1603.04 575.474 1604.6C577.028 1606.15 579.052 1607.14 581.23 1607.42H679.995C679.995 1607.42 685.832 1604.51 680.825 1594.47Z" fill="white" stroke="#263238" stroke-width="3" stroke-linecap="round" stroke-linejoin="round"/>
<path d="M876.486 1593.48C868.922 1590.39 861.598 1586.73 854.577 1582.55C854.577 1582.55 895.066 1381.45 896.579 1315.38C898.089 1249.32 907.078 1112.73 907.078 1112.73H725.811C725.811 1112.73 734.799 1249.36 736.312 1315.38C737.823 1381.41 769.756 1582.55 769.756 1582.55C762.739 1586.74 755.418 1590.4 747.848 1593.48C738.125 1597.16 725.984 1602.13 732.033 1604.46C740.284 1607.11 749.013 1607.94 757.613 1606.88C770.315 1603.5 782.561 1598.6 794.083 1592.28C798.922 1588.65 805.447 1196.77 805.447 1196.77H818.41C818.41 1196.77 825.238 1588.65 830.077 1592.28C841.611 1598.61 853.873 1603.51 866.589 1606.88C875.178 1607.94 883.891 1607.11 892.126 1604.46C898.089 1602 886.077 1597.16 876.486 1593.48Z" fill="#263238" stroke="#263238" stroke-width="3" stroke-linecap="round" stroke-linejoin="round"/>
<path d="M790.367 858.999L733.286 908.517V1120.2H880.417V907.005L833.49 860.121L790.367 858.999Z" fill="white" stroke="#263238" stroke-width="3" stroke-linecap="round" stroke-linejoin="round"/>
<path d="M825.412 911.197L810.936 904.543L799.96 909.727L809.078 939.326L793.564 1096.87L808.256 1112.73L825.412 1096.22L814.91 939.326L825.412 911.197Z" fill="#92E3A9"/>
<path d="M712.805 897.801L621.028 1013.91L683.12 1021.04L713.627 993.511L712.805 897.801Z" fill="white" stroke="#263238" stroke-width="3" stroke-linecap="round" stroke-linejoin="round"/>
<path d="M780.947 857.703L712.805 897.801V1384.74H785.744V860.122L780.947 857.703Z" fill="white" stroke="#263238" stroke-width="3" stroke-linecap="round" stroke-linejoin="round"/>
<path d="M906.473 897.801L999.506 1001.94L937.411 1009.07L905.956 993.511L906.473 897.801Z" fill="white" stroke="#263238" stroke-width="3" stroke-linecap="round" stroke-linejoin="round"/>
<path d="M838.287 857.703L906.473 897.801V1384.74H833.491V860.122L838.287 857.703Z" fill="white" stroke="#263238" stroke-width="3" stroke-linecap="round" stroke-linejoin="round"/>
<path d="M811.325 904.541L778.571 919.45V876.586H842.868V919.45L811.325 904.541Z" fill="white" stroke="#263238" stroke-width="3" stroke-linecap="round" stroke-linejoin="round"/>
<path d="M842.868 876.586L810.936 904.541L779.651 876.586V802.005H842.868V876.586Z" fill="white" stroke="#263238" stroke-width="3" stroke-linecap="round" stroke-linejoin="round"/>
<g style="mix-blend-mode:multiply">
<g style="mix-blend-mode:multiply">
<path d="M778.658 850.096L801.343 876.369H821.955L842.868 853.25L840.881 831.344L779.651 828.449L778.658 850.096Z" fill="#E1BEE7"/>
</g>
</g>
<path d="M772.78 782.214C772.78 782.214 761.071 779.145 762.238 787.355C763.405 795.565 766.948 810.819 772.825 814.362L778.658 817.862L772.78 782.214Z" fill="white" stroke="#263238" stroke-width="3" stroke-linecap="round" stroke-linejoin="round"/>
<path d="M851.337 782.214C851.337 782.214 863.047 779.145 861.88 787.355C860.714 795.565 857.17 810.819 851.337 814.362L845.46 817.862L851.337 782.214Z" fill="white" stroke="#263238" stroke-width="3" stroke-linecap="round" stroke-linejoin="round"/>
<path d="M856.824 768.603C856.859 762.144 855.489 755.755 852.811 749.878C850.133 744.001 846.209 738.776 841.312 734.563C836.417 730.353 830.664 727.255 824.451 725.485C818.24 723.715 811.719 723.315 805.338 724.314C798.957 725.313 792.869 727.685 787.496 731.269C782.122 734.85 777.589 739.558 774.215 745.065C770.84 750.569 768.7 756.743 767.945 763.159C767.19 769.573 767.838 776.075 769.842 782.214L781.163 835.577L801.905 864.659H821.91L842.003 839.337L854.275 783.467C855.963 778.693 856.826 773.666 856.824 768.603Z" fill="white" stroke="#263238" stroke-width="3" stroke-linecap="round" stroke-linejoin="round"/>
<path d="M778.657 777.461C778.657 777.461 785.831 769.683 792.268 772.275C798.707 774.869 796.201 782.645 814.953 784.59C825.496 785.872 836.192 784.748 846.239 781.306L847.232 765.059L778.528 755.641L778.657 777.461Z" fill="#E1BEE7"/>
<path d="M847.232 765.058C844.742 770.647 843.166 776.6 842.565 782.688C843.559 789.951 845.536 797.045 848.442 803.775C848.442 803.775 862.485 774.478 861.405 763.893C860.324 753.306 846.239 761.559 847.232 765.058Z" fill="#263238" stroke="#263238" stroke-width="3" stroke-linecap="round" stroke-linejoin="round"/>
<path d="M773.342 801.442C773.342 801.442 773.342 799.627 773.644 796.861C774.292 789.299 776.065 774.695 780.386 772.103C786.262 768.603 785.657 750.109 785.657 750.109C785.657 750.109 777.447 759.355 805.621 768.732C833.793 778.109 856.652 774.479 871.904 754.516C887.158 734.554 873.071 720.51 870.694 727.552C868.319 734.597 863.651 743.972 855.442 736.929C847.232 729.887 834.355 715.8 810.893 715.8C787.429 715.8 776.885 736.929 776.885 736.929C773.117 738.758 769.92 741.579 767.636 745.088C765.353 748.598 764.068 752.664 763.922 756.849C764.139 770.936 773.342 801.442 773.342 801.442Z" fill="#263238" stroke="#263238" stroke-width="3" stroke-linecap="round" stroke-linejoin="round"/>
<path d="M855.873 764.281C839.282 764.929 825.152 753.737 810.719 743.886C796.287 734.034 786.521 743.886 786.521 743.886C787.642 738.526 790.496 733.683 794.643 730.105C798.789 726.529 803.999 724.417 809.466 724.095C829.083 722.842 835.392 749.763 853.713 752.138" stroke="white" stroke-width="3" stroke-linecap="round" stroke-linejoin="round"/>
<path d="M809.078 800.449H769.799L774.121 813.412C774.503 814.651 775.27 815.739 776.313 816.516C777.353 817.292 778.612 817.718 779.91 817.734H800.175C801.53 817.726 802.843 817.267 803.907 816.43C804.971 815.592 805.726 814.423 806.052 813.109L809.078 800.449Z" fill="white" stroke="#263238" stroke-width="3" stroke-linecap="round" stroke-linejoin="round"/>
<path d="M852.591 800.449H813.355L817.677 813.412C818.045 814.651 818.805 815.741 819.839 816.519C820.872 817.296 822.129 817.722 823.423 817.734H843.69C845.05 817.735 846.374 817.281 847.445 816.441C848.519 815.604 849.28 814.431 849.608 813.109L852.591 800.449Z" fill="white" stroke="#263238" stroke-width="3" stroke-linecap="round" stroke-linejoin="round"/>
<path d="M769.799 800.449L767.855 781.307" stroke="#263238" stroke-width="3" stroke-linecap="round" stroke-linejoin="round"/>
<path d="M852.591 800.449L857.084 782.3" stroke="#263238" stroke-width="3" stroke-linecap="round" stroke-linejoin="round"/>
<path d="M809.078 800.449H813.354" stroke="#263238" stroke-width="3" stroke-linecap="round" stroke-linejoin="round"/>
<path d="M807.997 806.584H814.953" stroke="#263238" stroke-width="3" stroke-linecap="round" stroke-linejoin="round"/>
<path d="M819.403 831.344C819.403 831.344 816.423 835.665 812.966 835.665C809.509 835.665 806.484 831.344 806.484 831.344" stroke="#263238" stroke-width="3" stroke-linecap="round" stroke-linejoin="round"/>
<path d="M779.824 857.746L786.521 920.141L785.83 1060.45L747.374 928.308L769.411 918.326L745.775 907.87L767.293 863.838L779.824 857.746Z" fill="white" stroke="#263238" stroke-width="3" stroke-linecap="round" stroke-linejoin="round"/>
<path d="M843.299 857.746L833.621 915.777L833.967 1062.48L875.795 928.308L853.757 918.326L877.35 907.87L855.83 863.838L843.299 857.746Z" fill="white" stroke="#263238" stroke-width="3" stroke-linecap="round" stroke-linejoin="round"/>
<path d="M718.25 1019.48L745.085 1003.71V1018.53L718.25 1019.48Z" fill="white" stroke="#263238" stroke-width="3" stroke-linecap="round" stroke-linejoin="round"/>
<path d="M849.738 988.976C849.738 988.976 839.54 973.247 835.868 973.247C832.194 973.247 823.813 987.117 825.669 991.784C827.527 996.45 837.726 985.302 837.726 985.302L845.114 1005.65L849.738 988.976Z" fill="white" stroke="#263238" stroke-width="3" stroke-linecap="round" stroke-linejoin="round"/>
<path d="M846.239 993.512L832.368 994.462C828.472 997.177 824.059 999.059 819.404 999.994C812.923 1000.94 809.207 1002.8 814.781 1007.43C820.356 1012.05 832.368 1004.66 832.368 1004.66L846.239 1010.19C847.365 1009.11 848.261 1007.82 848.874 1006.39C849.487 1004.95 849.803 1003.41 849.803 1001.85C849.803 1000.29 849.487 998.751 848.874 997.316C848.261 995.883 847.365 994.589 846.239 993.512Z" fill="white" stroke="#263238" stroke-width="3" stroke-linecap="round" stroke-linejoin="round"/>
<path d="M851.597 1021.3C854.806 1024.5 859.014 1026.51 863.523 1027C870.868 1027.69 886.165 1016.37 886.165 1016.37L883.485 1004.4L862.182 997.617L851.597 1021.3Z" fill="white" stroke="#263238" stroke-width="3" stroke-linecap="round" stroke-linejoin="round"/>
<path d="M849.739 983.357C849.739 983.357 835.868 1001.85 835.868 1005.57C835.868 1009.28 846.973 1021.3 851.597 1021.3C854.621 1021.3 862.528 1015.77 867.585 1011.92C868.2 1011.46 868.721 1010.89 869.116 1010.23C869.51 1009.57 869.769 1008.85 869.883 1008.09C869.994 1007.33 869.957 1006.55 869.769 1005.81C869.584 1005.07 869.252 1004.37 868.793 1003.75C863.523 996.494 853.11 983.357 849.739 983.357Z" fill="white" stroke="#263238" stroke-width="3" stroke-linecap="round" stroke-linejoin="round"/>
<path d="M840.881 1012.4L857.517 991.092" stroke="#263238" stroke-width="3" stroke-linecap="round" stroke-linejoin="round"/>
<path d="M865.51 1001.72L846.239 1018.36" stroke="#263238" stroke-width="3" stroke-linecap="round" stroke-linejoin="round"/>
<path d="M874.671 999.389V1056.77L985.462 1043.81C990.636 1043.09 995.366 1040.49 998.745 1036.5C1002.12 1032.52 1003.92 1027.43 1003.78 1022.2V1013.95C1003.73 1011.1 1003.1 1008.28 1001.94 1005.67C1000.77 1003.07 999.1 1000.72 997.011 998.774C994.923 996.828 992.465 995.32 989.783 994.342C987.102 993.364 984.252 992.934 981.4 993.081L874.671 999.389Z" fill="white" stroke="#263238" stroke-width="3" stroke-linecap="round" stroke-linejoin="round"/>
<path d="M810.719 1080.93H752.601C750.59 1080.93 748.656 1080.15 747.206 1078.76C745.755 1077.36 744.902 1075.46 744.824 1073.45L741.325 978.389C741.295 977.346 741.475 976.31 741.852 975.34C742.23 974.368 742.796 973.481 743.522 972.734C744.247 971.984 745.113 971.389 746.072 970.979C747.03 970.571 748.061 970.356 749.101 970.351H814.176C815.221 970.351 816.253 970.559 817.213 970.967C818.174 971.373 819.044 971.971 819.77 972.72C820.495 973.47 821.063 974.358 821.437 975.332C821.814 976.306 821.99 977.346 821.955 978.389L818.455 1073.45C818.387 1075.46 817.541 1077.36 816.099 1078.75C814.656 1080.15 812.726 1080.93 810.719 1080.93Z" fill="#263238" stroke="#263238" stroke-width="3" stroke-linecap="round" stroke-linejoin="round"/>
<path d="M718.249 1019.44L740.46 1012.05L775.677 1012.96C775.677 1012.96 779.348 1019.44 775.677 1020.39C772.003 1021.34 756.232 1022.25 756.232 1022.25L777.535 1026.87C777.535 1026.87 777.535 1033.35 773.819 1033.35C770.102 1033.35 753.423 1043.55 748.799 1047.22C744.177 1050.89 715.483 1045.41 715.483 1045.41L702.521 1044.46V1021.3L718.249 1019.44Z" fill="white" stroke="#263238" stroke-width="3" stroke-linecap="round" stroke-linejoin="round"/>
<path d="M709.91 1016.67V1074.1L624.742 1062.99C619.567 1062.26 614.84 1059.66 611.455 1055.68C608.071 1051.7 606.263 1046.61 606.378 1041.39V1033.18C606.433 1030.33 607.06 1027.52 608.219 1024.91C609.38 1022.31 611.051 1019.96 613.134 1018.02C615.219 1016.07 617.67 1014.57 620.346 1013.58C623.024 1012.6 625.87 1012.17 628.718 1012.31L709.91 1016.67Z" fill="white" stroke="#263238" stroke-width="3" stroke-linecap="round" stroke-linejoin="round"/>
<path d="M906.473 1166.27H859.764V1180.01H906.473V1166.27Z" fill="white" stroke="#263238" stroke-width="3" stroke-linecap="round" stroke-linejoin="round"/>
<path d="M759.514 1166.27H712.805V1180.01H759.514V1166.27Z" fill="white" stroke="#263238" stroke-width="3" stroke-linecap="round" stroke-linejoin="round"/>
<path d="M569.044 1422.68V1603.34" stroke="white" stroke-width="3" stroke-linecap="round" stroke-linejoin="round"/>
<path d="M652.657 1153.17V1167.22C652.645 1182.02 646.991 1196.27 636.843 1207.06L584.99 1262.06C574.668 1273.07 568.922 1287.59 568.916 1302.68V1395.88" stroke="white" stroke-width="3" stroke-linecap="round" stroke-linejoin="round"/>
<path d="M702.52 1104.22H684.588C676.121 1104.22 667.999 1107.58 662.01 1113.57C656.022 1119.56 652.656 1127.68 652.656 1136.15" stroke="white" stroke-width="3" stroke-linecap="round" stroke-linejoin="round"/>
<path d="M1041.12 1489.61V1298.32C1041.12 1289.87 1042.92 1281.51 1046.41 1273.82C1049.9 1266.12 1054.99 1259.25 1061.34 1253.68L1119.59 1202.73C1125.83 1197.27 1130.83 1190.53 1134.26 1182.98C1137.69 1175.42 1139.46 1167.22 1139.46 1158.92V1136.15" stroke="white" stroke-width="3" stroke-linecap="round" stroke-linejoin="round"/>
<path d="M1041.12 1603.34V1512.85" stroke="white" stroke-width="3" stroke-linecap="round" stroke-linejoin="round"/>
<path d="M363.835 1608.8H1653.04" stroke="#263238" stroke-width="3" stroke-linecap="round" stroke-linejoin="round"/>
</g>
<defs>
<clipPath id="clip0_795_112">
<rect width="1339.41" height="1218" fill="white" transform="translate(330 391)"/>
</clipPath>
</defs>
</svg>
