<svg width="2000" height="2000" viewBox="0 0 2000 2000" fill="none" xmlns="http://www.w3.org/2000/svg">
<g clip-path="url(#clip0_795_110)">
<path d="M1333.02 1184.82H743.717L762.051 1160.7H1309.31L1333.02 1184.82Z" fill="white" stroke="#263238" stroke-width="2.7848" stroke-linecap="round" stroke-linejoin="round"/>
<path d="M1094.16 1164C1087.75 1161.38 1081.55 1158.28 1075.6 1154.74C1075.6 1154.74 1109.89 984.423 1111.18 928.467C1112.45 872.513 1120.07 756.834 1120.07 756.834H966.546C966.546 756.834 974.16 872.549 975.439 928.467C976.724 984.386 1003.77 1154.74 1003.77 1154.74C997.823 1158.29 991.624 1161.38 985.212 1164C976.979 1167.11 966.695 1171.32 971.816 1173.29C978.806 1175.54 986.2 1176.24 993.48 1175.34C1004.24 1172.48 1014.61 1168.33 1024.37 1162.97C1028.47 1159.9 1034 828.013 1034 828.013H1044.98C1044.98 828.013 1050.76 1159.9 1054.86 1162.97C1064.62 1168.34 1075 1172.49 1085.78 1175.34C1093.05 1176.24 1100.43 1175.54 1107.4 1173.29C1112.45 1171.21 1102.28 1167.11 1094.16 1164Z" fill="#263238" stroke="#263238" stroke-width="2.7848" stroke-linecap="round" stroke-linejoin="round"/>
<path d="M1021.22 541.944L972.882 583.883V763.165H1097.49V582.602L1057.75 542.895L1021.22 541.944Z" fill="white" stroke="#263238" stroke-width="2.7848" stroke-linecap="round" stroke-linejoin="round"/>
<path d="M1050.9 586.152L1038.64 580.516L1029.35 584.907L1037.07 609.975L1023.93 743.403L1036.38 756.834L1050.9 742.854L1042.01 609.975L1050.9 586.152Z" fill="#92E3A9"/>
<path d="M955.535 574.808L877.804 673.14L930.391 679.178L956.231 655.867L955.535 574.808Z" fill="white" stroke="#263238" stroke-width="2.7848" stroke-linecap="round" stroke-linejoin="round"/>
<path d="M1013.25 540.847L955.535 574.807V987.204H1017.31V542.896L1013.25 540.847Z" fill="white" stroke="#263238" stroke-width="2.7848" stroke-linecap="round" stroke-linejoin="round"/>
<path d="M1119.56 574.808L1198.34 663.003L1145.76 669.041L1119.12 655.867L1119.56 574.808Z" fill="white" stroke="#263238" stroke-width="2.7848" stroke-linecap="round" stroke-linejoin="round"/>
<path d="M1061.81 540.847L1119.56 574.807V987.204H1057.75V542.896L1061.81 540.847Z" fill="white" stroke="#263238" stroke-width="2.7848" stroke-linecap="round" stroke-linejoin="round"/>
<path d="M1038.97 580.516L1011.23 593.142V556.839H1065.69V593.142L1038.97 580.516Z" fill="white" stroke="#263238" stroke-width="2.7848" stroke-linecap="round" stroke-linejoin="round"/>
<path d="M1065.69 556.838L1038.64 580.515L1012.15 556.838V493.674H1065.69V556.838Z" fill="white" stroke="#263238" stroke-width="2.7848" stroke-linecap="round" stroke-linejoin="round"/>
<g style="mix-blend-mode:multiply">
<g style="mix-blend-mode:multiply">
<path d="M1011.31 534.407L1030.52 556.658H1047.97L1065.69 537.079L1064 518.525L1012.15 516.073L1011.31 534.407Z" fill="#E1BEE7"/>
</g>
</g>
<path d="M1006.33 476.915C1006.33 476.915 996.412 474.316 997.4 481.27C998.387 488.223 1001.39 501.141 1006.36 504.142L1011.31 507.106L1006.33 476.915Z" fill="white" stroke="#263238" stroke-width="2.7848" stroke-linecap="round" stroke-linejoin="round"/>
<path d="M1072.86 476.915C1072.86 476.915 1082.78 474.316 1081.79 481.27C1080.8 488.223 1077.8 501.141 1072.86 504.142L1067.88 507.106L1072.86 476.915Z" fill="white" stroke="#263238" stroke-width="2.7848" stroke-linecap="round" stroke-linejoin="round"/>
<path d="M1077.51 465.386C1077.54 459.916 1076.38 454.505 1074.11 449.528C1071.84 444.551 1068.51 440.125 1064.37 436.558C1060.22 432.991 1055.35 430.367 1050.09 428.869C1044.83 427.37 1039.31 427.031 1033.9 427.877C1028.5 428.723 1023.34 430.732 1018.79 433.766C1014.24 436.801 1010.4 440.787 1007.54 445.451C1004.68 450.114 1002.87 455.343 1002.23 460.775C1001.59 466.207 1002.14 471.714 1003.84 476.914L1013.43 522.109L1030.99 546.738H1047.94L1064.96 525.293L1075.35 477.975C1076.78 473.932 1077.51 469.675 1077.51 465.386Z" fill="white" stroke="#263238" stroke-width="2.7848" stroke-linecap="round" stroke-linejoin="round"/>
<path d="M1011.31 472.889C1011.31 472.889 1017.38 466.302 1022.83 468.498C1028.29 470.693 1026.16 477.28 1042.04 478.927C1050.97 480.012 1060.03 479.061 1068.54 476.146L1069.38 462.386L1011.2 454.408L1011.31 472.889Z" fill="#E1BEE7"/>
<path d="M1069.38 462.386C1067.28 467.119 1065.94 472.16 1065.43 477.317C1066.27 483.468 1067.95 489.476 1070.4 495.175C1070.4 495.175 1082.3 470.364 1081.39 461.398C1080.47 452.432 1068.54 459.421 1069.38 462.386Z" fill="#263238" stroke="#263238" stroke-width="2.7848" stroke-linecap="round" stroke-linejoin="round"/>
<path d="M1006.81 493.199C1006.81 493.199 1006.81 491.662 1007.06 489.319C1007.61 482.915 1009.11 470.546 1012.77 468.35C1017.74 465.386 1017.23 449.723 1017.23 449.723C1017.23 449.723 1010.28 457.554 1034.14 465.496C1058 473.437 1077.36 470.363 1090.28 453.456C1103.2 436.549 1091.27 424.655 1089.26 430.62C1087.24 436.585 1083.29 444.526 1076.34 438.561C1069.38 432.596 1058.48 420.666 1038.61 420.666C1018.73 420.666 1009.8 438.561 1009.8 438.561C1006.62 440.11 1003.91 442.498 1001.97 445.471C1000.04 448.444 998.948 451.887 998.829 455.432C999.007 467.362 1006.81 493.199 1006.81 493.199Z" fill="#263238" stroke="#263238" stroke-width="2.7848" stroke-linecap="round" stroke-linejoin="round"/>
<path d="M1076.7 461.727C1062.65 462.276 1050.68 452.798 1038.46 444.454C1026.24 436.11 1017.96 444.454 1017.96 444.454C1018.91 439.914 1021.33 435.812 1024.85 432.783C1028.35 429.754 1032.77 427.965 1037.4 427.693C1054.01 426.632 1059.35 449.431 1074.87 451.444" stroke="white" stroke-width="2.7848" stroke-linecap="round" stroke-linejoin="round"/>
<path d="M1037.07 492.358H1003.8L1007.47 503.337C1007.79 504.387 1008.44 505.308 1009.32 505.965C1010.2 506.623 1011.27 506.984 1012.37 506.996H1029.53C1030.68 506.99 1031.79 506.601 1032.69 505.892C1033.59 505.183 1034.23 504.194 1034.51 503.081L1037.07 492.358Z" fill="white" stroke="#263238" stroke-width="2.7848" stroke-linecap="round" stroke-linejoin="round"/>
<path d="M1073.92 492.358H1040.69L1044.35 503.337C1044.67 504.387 1045.3 505.31 1046.18 505.968C1047.06 506.627 1048.12 506.987 1049.22 506.996H1066.38C1067.53 506.998 1068.66 506.613 1069.56 505.903C1070.47 505.193 1071.12 504.2 1071.39 503.081L1073.92 492.358Z" fill="white" stroke="#263238" stroke-width="2.7848" stroke-linecap="round" stroke-linejoin="round"/>
<path d="M1003.8 492.357L1002.16 476.145" stroke="#263238" stroke-width="2.7848" stroke-linecap="round" stroke-linejoin="round"/>
<path d="M1073.92 492.358L1077.73 476.987" stroke="#263238" stroke-width="2.7848" stroke-linecap="round" stroke-linejoin="round"/>
<path d="M1037.07 492.358H1040.69" stroke="#263238" stroke-width="2.7848" stroke-linecap="round" stroke-linejoin="round"/>
<path d="M1036.16 497.554H1042.04" stroke="#263238" stroke-width="2.7848" stroke-linecap="round" stroke-linejoin="round"/>
<path d="M1045.81 518.523C1045.81 518.523 1043.29 522.183 1040.36 522.183C1037.43 522.183 1034.87 518.523 1034.87 518.523" stroke="#263238" stroke-width="2.7848" stroke-linecap="round" stroke-linejoin="round"/>
<path d="M1012.3 540.884L1017.96 593.728L1017.38 712.554L984.808 600.645L1003.47 592.191L983.458 583.335L1001.68 546.044L1012.3 540.884Z" fill="white" stroke="#263238" stroke-width="2.7848" stroke-linecap="round" stroke-linejoin="round"/>
<path d="M1066.05 540.884L1057.85 590.032L1058.14 714.274L1093.57 600.645L1074.91 592.191L1094.89 583.335L1076.66 546.044L1066.05 540.884Z" fill="white" stroke="#263238" stroke-width="2.7848" stroke-linecap="round" stroke-linejoin="round"/>
<path d="M960.144 677.861L982.867 664.503V677.055L960.144 677.861Z" fill="white" stroke="#263238" stroke-width="2.7848" stroke-linecap="round" stroke-linejoin="round"/>
<path d="M1071.51 652.024C1071.51 652.024 1062.87 638.703 1059.76 638.703C1056.65 638.703 1049.55 650.451 1051.12 654.403C1052.7 658.355 1061.33 648.914 1061.33 648.914L1067.59 666.15L1071.51 652.024Z" fill="white" stroke="#263238" stroke-width="2.7848" stroke-linecap="round" stroke-linejoin="round"/>
<path d="M1068.54 655.867L1056.8 656.673C1053.49 658.971 1049.76 660.566 1045.81 661.356C1040.32 662.162 1037.18 663.735 1041.9 667.651C1046.62 671.567 1056.8 665.309 1056.8 665.309L1068.54 669.994C1069.5 669.081 1070.26 667.985 1070.77 666.771C1071.29 665.557 1071.56 664.25 1071.56 662.93C1071.56 661.61 1071.29 660.304 1070.77 659.089C1070.26 657.876 1069.5 656.78 1068.54 655.867Z" fill="white" stroke="#263238" stroke-width="2.7848" stroke-linecap="round" stroke-linejoin="round"/>
<path d="M1073.08 679.398C1075.79 682.111 1079.36 683.815 1083.18 684.228C1089.4 684.814 1102.35 675.226 1102.35 675.226L1100.09 665.089L1082.05 659.344L1073.08 679.398Z" fill="white" stroke="#263238" stroke-width="2.7848" stroke-linecap="round" stroke-linejoin="round"/>
<path d="M1071.5 647.267C1071.5 647.267 1059.76 662.93 1059.76 666.077C1059.76 669.224 1069.16 679.398 1073.08 679.398C1075.64 679.398 1082.34 674.714 1086.62 671.456C1087.14 671.07 1087.58 670.584 1087.92 670.028C1088.25 669.47 1088.47 668.853 1088.57 668.211C1088.66 667.569 1088.62 666.914 1088.47 666.284C1088.31 665.654 1088.03 665.061 1087.64 664.54C1083.18 658.392 1074.36 647.267 1071.5 647.267Z" fill="white" stroke="#263238" stroke-width="2.7848" stroke-linecap="round" stroke-linejoin="round"/>
<path d="M1064 671.858L1078.09 653.816" stroke="#263238" stroke-width="2.7848" stroke-linecap="round" stroke-linejoin="round"/>
<path d="M1084.86 662.82L1068.54 676.91" stroke="#263238" stroke-width="2.7848" stroke-linecap="round" stroke-linejoin="round"/>
<path d="M1092.62 660.844V709.443L1186.45 698.464C1190.84 697.854 1194.84 695.651 1197.7 692.276C1200.56 688.901 1202.08 684.59 1201.97 680.167V673.177C1201.92 670.759 1201.39 668.376 1200.41 666.168C1199.42 663.96 1198 661.973 1196.23 660.324C1194.47 658.675 1192.38 657.398 1190.11 656.57C1187.84 655.741 1185.42 655.378 1183.01 655.501L1092.62 660.844Z" fill="white" stroke="#263238" stroke-width="2.7848" stroke-linecap="round" stroke-linejoin="round"/>
<path d="M1038.46 729.899H989.239C987.532 729.901 985.896 729.242 984.67 728.061C983.439 726.881 982.719 725.27 982.648 723.568L979.685 643.058C979.662 642.176 979.816 641.298 980.132 640.475C980.453 639.653 980.935 638.902 981.547 638.268C982.16 637.634 982.898 637.129 983.707 636.783C984.516 636.436 985.39 636.255 986.276 636.251H1041.39C1042.27 636.25 1043.14 636.428 1043.96 636.773C1044.77 637.117 1045.51 637.622 1046.12 638.257C1046.74 638.892 1047.22 639.645 1047.54 640.47C1047.85 641.294 1048 642.174 1047.97 643.058L1045.01 723.568C1044.95 725.267 1044.24 726.878 1043.01 728.059C1041.79 729.24 1040.16 729.9 1038.46 729.899Z" fill="#263238" stroke="#263238" stroke-width="2.7848" stroke-linecap="round" stroke-linejoin="round"/>
<path d="M960.145 677.824L978.954 671.566L1008.78 672.335C1008.78 672.335 1011.89 677.824 1008.78 678.63C1005.67 679.434 992.314 680.203 992.314 680.203L1010.36 684.119C1010.36 684.119 1010.36 689.608 1007.2 689.608C1004.06 689.608 989.935 698.245 986.015 701.356C982.1 704.466 957.801 699.818 957.801 699.818L946.82 699.013V679.398L960.145 677.824Z" fill="white" stroke="#263238" stroke-width="2.7848" stroke-linecap="round" stroke-linejoin="round"/>
<path d="M953.078 675.481V724.117L880.951 714.712C876.568 714.095 872.564 711.891 869.697 708.519C866.831 705.146 865.301 700.839 865.398 696.414V689.461C865.444 687.047 865.974 684.667 866.957 682.461C867.94 680.256 869.355 678.27 871.12 676.622C872.884 674.974 874.961 673.696 877.229 672.866C879.496 672.035 881.907 671.667 884.318 671.785L953.078 675.481Z" fill="white" stroke="#263238" stroke-width="2.7848" stroke-linecap="round" stroke-linejoin="round"/>
<path d="M1119.56 802.177H1079.99V813.814H1119.56V802.177Z" fill="white" stroke="#263238" stroke-width="2.7848" stroke-linecap="round" stroke-linejoin="round"/>
<path d="M995.092 802.177H955.535V813.814H995.092V802.177Z" fill="white" stroke="#263238" stroke-width="2.7848" stroke-linecap="round" stroke-linejoin="round"/>
<path d="M1237.25 1172.34V914.012C1237.25 906.855 1238.77 899.781 1241.73 893.262C1244.68 886.743 1248.99 880.929 1254.37 876.208L1303.7 833.062C1308.99 828.432 1313.23 822.727 1316.13 816.327C1319.04 809.927 1320.54 802.981 1320.54 795.954V776.668C1320.54 773.113 1319.83 769.593 1318.48 766.31C1317.12 763.026 1315.12 760.044 1312.6 757.532C1310.09 755.02 1307.1 753.029 1303.81 751.672C1300.53 750.315 1297.01 749.619 1293.46 749.624H935.298C928.124 749.624 921.242 752.473 916.174 757.545C911.1 762.617 908.251 769.495 908.251 776.668V802.98C908.241 815.522 903.451 827.588 894.857 836.722L850.942 883.308C842.201 892.63 837.334 904.929 837.329 917.708V1172.34" stroke="#263238" stroke-width="2.7848" stroke-linecap="round" stroke-linejoin="round"/>
<path d="M833.78 1019.33V1172.34" stroke="white" stroke-width="2.7848" stroke-linecap="round" stroke-linejoin="round"/>
<path d="M904.591 791.088V802.981C904.581 815.523 899.792 827.589 891.197 836.722L847.283 883.309C838.541 892.63 833.674 904.929 833.669 917.708V996.645" stroke="white" stroke-width="2.7848" stroke-linecap="round" stroke-linejoin="round"/>
<path d="M946.82 749.624H931.634C924.466 749.624 917.584 752.473 912.513 757.545C907.441 762.617 904.592 769.495 904.592 776.668" stroke="white" stroke-width="2.7848" stroke-linecap="round" stroke-linejoin="round"/>
<path d="M1233.59 1076.02V914.013C1233.59 906.857 1235.12 899.783 1238.07 893.264C1241.02 886.745 1245.34 880.931 1250.71 876.21L1300.04 833.064C1305.33 828.434 1309.57 822.729 1312.47 816.329C1315.37 809.929 1316.88 802.983 1316.88 795.956V776.67" stroke="white" stroke-width="2.7848" stroke-linecap="round" stroke-linejoin="round"/>
<path d="M1233.59 1172.34V1095.71" stroke="white" stroke-width="2.7848" stroke-linecap="round" stroke-linejoin="round"/>
<path d="M884.464 1123.28H783.277V1196.18H884.464V1123.28Z" fill="#92E3A9" stroke="#263238" stroke-width="2.7848" stroke-linecap="round" stroke-linejoin="round"/>
<path d="M884.464 1198.23H783.277V1250.05H884.464V1198.23Z" fill="#92E3A9" stroke="#263238" stroke-width="2.7848" stroke-linecap="round" stroke-linejoin="round"/>
<path d="M1282.51 1198.23H1181.33V1250.05H1282.51V1198.23Z" fill="#92E3A9" stroke="#263238" stroke-width="2.7848" stroke-linecap="round" stroke-linejoin="round"/>
<path d="M864.265 1289.98H803.553L783.315 1250.08H884.502L864.265 1289.98Z" fill="#92E3A9" stroke="#263238" stroke-width="2.7848" stroke-linecap="round" stroke-linejoin="round"/>
<path d="M796.635 1251.51L809.919 1283.61" stroke="#263238" stroke-width="2.7848" stroke-linecap="round" stroke-linejoin="round"/>
<path d="M815.226 1266.33L816.543 1270.03" stroke="#263238" stroke-width="2.7848" stroke-linecap="round" stroke-linejoin="round"/>
<path d="M809.919 1252.44L813.433 1262.29" stroke="#263238" stroke-width="2.7848" stroke-linecap="round" stroke-linejoin="round"/>
<path d="M1262.31 1290.9H1201.57L1181.33 1251.01H1282.55L1262.31 1290.9Z" fill="#92E3A9" stroke="#263238" stroke-width="2.7848" stroke-linecap="round" stroke-linejoin="round"/>
<path d="M1191.98 1252.44L1205.26 1281.97" stroke="#263238" stroke-width="2.7848" stroke-linecap="round" stroke-linejoin="round"/>
<path d="M1205.26 1252.44L1211.26 1265.21" stroke="#263238" stroke-width="2.7848" stroke-linecap="round" stroke-linejoin="round"/>
<path d="M1261.58 1275.49L1257.08 1284.53" stroke="#263238" stroke-width="2.7848" stroke-linecap="round" stroke-linejoin="round"/>
<path d="M1273.04 1252.44L1263.85 1270.96" stroke="#263238" stroke-width="2.7848" stroke-linecap="round" stroke-linejoin="round"/>
<path d="M1282.51 1124.2H1181.33V1197.11H1282.51V1124.2Z" fill="#92E3A9" stroke="#263238" stroke-width="2.7848" stroke-linecap="round" stroke-linejoin="round"/>
<path d="M893.686 1197.07H1172.18V1237.69C1172.18 1247.4 1168.32 1256.71 1161.46 1263.57C1154.6 1270.43 1145.29 1274.28 1135.58 1274.28H929.915C920.213 1274.28 910.902 1270.43 904.039 1263.57C897.176 1256.71 893.32 1247.4 893.32 1237.69V1197.07H893.686Z" fill="#92E3A9" stroke="#263238" stroke-width="2.7848" stroke-linecap="round" stroke-linejoin="round"/>
<path d="M1333.02 1186.68H743.717V1232.5H1333.02V1186.68Z" fill="#92E3A9" stroke="#263238" stroke-width="2.7848" stroke-linecap="round" stroke-linejoin="round"/>
<path d="M743.717 1214.27H924.204L975.366 1200.18H1224.55L1236.33 1188.36" stroke="#263238" stroke-width="2.7848" stroke-linecap="round" stroke-linejoin="round"/>
<path d="M438.387 1534.53L702.278 1531.74L1306.11 1522.96L1540.98 1502.98L1582.15 1511.11C1582.15 1511.11 1604.8 1492.59 1603.04 1445.93C1601.29 1399.27 1565.02 1321.5 1454.43 1314.59C1343.84 1307.67 1281.59 1380.24 1255.68 1416.54C1229.77 1452.84 726.798 1463.2 726.798 1463.2C726.798 1463.2 716.441 1361.25 624.842 1337.06C533.243 1312.87 474.507 1343.98 439.961 1381.85C405.414 1419.73 415.771 1518.39 415.771 1518.39L438.387 1534.53Z" fill="#263238" stroke="#263238" stroke-width="2.7848" stroke-linecap="round" stroke-linejoin="round"/>
<path d="M859.64 1205.97C859.64 1205.97 882.915 1201.14 884.854 1212.78C886.794 1224.42 885.842 1230.24 880.024 1233.13C871.122 1236.84 861.246 1237.52 851.918 1235.07C849.737 1234.53 847.73 1233.44 846.089 1231.91C844.448 1230.37 843.228 1228.44 842.545 1226.3C841.863 1224.16 841.74 1221.88 842.189 1219.68C842.638 1217.48 843.645 1215.43 845.112 1213.73C849.234 1209.98 854.228 1207.31 859.64 1205.97Z" fill="white" stroke="#263238" stroke-width="2.7848" stroke-linecap="round" stroke-linejoin="round"/>
<path d="M1678.65 1367.83C1676.71 1360.08 1638.91 1339.73 1638.91 1339.73C1638.91 1339.73 1604 1288.49 1584.63 1269.94C1574.07 1259.71 1562.73 1250.32 1550.71 1241.83C1550.71 1241.83 1592.4 1237.96 1592.4 1231.19C1592.4 1224.42 1582.7 1223.42 1575.89 1221.49C1569.09 1219.55 1519.68 1220.53 1519.68 1220.53H1239.58L963.351 1236.02L878.084 1241.83C878.084 1241.83 874.205 1231.19 866.447 1231.19C859.946 1230.96 853.467 1230.31 847.051 1229.25C847.051 1229.25 843.172 1220.53 856.749 1207.91C870.326 1195.28 940.111 1152.69 940.111 1152.69C939.599 1146.15 936.857 1139.99 932.354 1135.23C927.601 1129.96 921.599 1125.95 914.901 1123.59L883.903 1118.76C879.035 1118.76 803.392 1159.46 695.874 1242.82C695.874 1242.82 550.48 1254.46 478.752 1278.69C407.025 1302.91 375.04 1329.08 360.512 1365.9C360.512 1365.9 362.451 1378.52 358.572 1382.4C354.693 1386.28 328.527 1394.99 322.708 1404.68C316.89 1414.38 327.576 1487.06 327.576 1487.06C327.576 1487.06 315.938 1494.82 320.769 1502.61C325.599 1510.41 358.572 1524.9 385.726 1529.73C402.65 1532.7 419.78 1534.33 436.96 1534.6H438.278C435.349 1520.26 433.939 1505.65 434.069 1491.01C433.774 1473.13 437.041 1455.38 443.679 1438.77C450.318 1422.17 460.195 1407.05 472.735 1394.3C485.274 1381.56 500.226 1371.43 516.718 1364.52C533.211 1357.61 550.914 1354.05 568.796 1354.05C586.678 1354.05 604.381 1357.61 620.873 1364.52C637.366 1371.43 652.317 1381.56 664.857 1394.3C677.397 1407.05 687.273 1422.17 693.912 1438.77C700.55 1455.38 703.817 1473.13 703.523 1491.01C703.523 1506.2 703.047 1519.7 702.169 1531.82H713.147L758.709 1528.93L1305.85 1523.15C1304.9 1513.37 1304.39 1502.73 1304.39 1491.12C1304.09 1472.61 1307.47 1454.22 1314.36 1437.02C1321.23 1419.82 1331.46 1404.17 1344.46 1390.97C1357.44 1377.77 1372.93 1367.29 1390.01 1360.13C1407.09 1352.98 1425.43 1349.29 1443.94 1349.29C1462.47 1349.29 1480.8 1352.98 1497.88 1360.13C1514.96 1367.29 1530.44 1377.77 1543.44 1390.97C1556.42 1404.17 1566.66 1419.82 1573.53 1437.02C1580.41 1454.22 1583.8 1472.61 1583.5 1491.12C1583.5 1497.87 1583.01 1504.61 1582.04 1511.29L1631.95 1500.82L1672.68 1457.2C1675.75 1449.82 1677.39 1441.92 1677.51 1433.93C1677.66 1421.16 1680.59 1375.59 1678.65 1367.83Z" fill="white"/>
<path d="M1677.66 1433.74C1677.66 1427.52 1678.36 1413.32 1678.87 1399.56C1474.45 1269.18 1354.67 1337.94 1201.56 1381.85C1035.59 1429.43 831.937 1348.91 645.299 1330.62C540.635 1320.37 432.532 1352.57 357.767 1383.06C351.948 1387.19 328.234 1395.5 322.708 1404.69C317.182 1413.87 327.576 1487.07 327.576 1487.07C327.576 1487.07 315.938 1494.82 320.769 1502.62C325.599 1510.41 358.572 1524.9 385.726 1529.73C402.65 1532.7 419.781 1534.33 436.96 1534.6H438.278C435.349 1520.26 433.939 1505.65 434.069 1491.02C433.774 1473.13 437.041 1455.38 443.68 1438.77C450.318 1422.17 460.195 1407.05 472.735 1394.31C485.274 1381.56 500.226 1371.43 516.718 1364.52C533.211 1357.61 550.914 1354.05 568.796 1354.05C586.678 1354.05 604.381 1357.61 620.873 1364.52C637.366 1371.43 652.317 1381.56 664.857 1394.31C677.397 1407.05 687.274 1422.17 693.912 1438.77C700.55 1455.38 703.817 1473.13 703.523 1491.02C703.523 1506.2 703.047 1519.71 702.169 1531.82H713.147L758.709 1528.93L1305.85 1523.15C1304.9 1513.38 1304.39 1502.73 1304.39 1491.12C1304.09 1472.61 1307.47 1454.22 1314.36 1437.02C1321.23 1419.83 1331.46 1404.17 1344.46 1390.98C1357.44 1377.77 1372.93 1367.29 1390.01 1360.13C1407.09 1352.98 1425.43 1349.29 1443.94 1349.29C1462.47 1349.29 1480.8 1352.98 1497.88 1360.13C1514.96 1367.29 1530.44 1377.77 1543.44 1390.98C1556.42 1404.17 1566.66 1419.83 1573.53 1437.02C1580.41 1454.22 1583.8 1472.61 1583.5 1491.12C1583.5 1497.87 1583.01 1504.61 1582.04 1511.29L1631.95 1500.82L1672.68 1457.2C1675.83 1449.77 1677.52 1441.81 1677.66 1433.74Z" fill="#92E3A9"/>
<path opacity="0.5" d="M1677.66 1433.74C1677.66 1427.52 1678.36 1413.32 1678.87 1399.56C1474.45 1269.18 1354.67 1337.94 1201.56 1381.85C1035.59 1429.43 831.937 1348.91 645.299 1330.62C540.635 1320.37 432.532 1352.57 357.767 1383.06C351.948 1387.19 328.234 1395.5 322.708 1404.69C317.182 1413.87 327.576 1487.07 327.576 1487.07C327.576 1487.07 315.938 1494.82 320.769 1502.62C325.599 1510.41 358.572 1524.9 385.726 1529.73C402.65 1532.7 419.781 1534.33 436.96 1534.6H438.278C435.349 1520.26 433.939 1505.65 434.069 1491.02C433.774 1473.13 437.041 1455.38 443.68 1438.77C450.318 1422.17 460.195 1407.05 472.735 1394.31C485.274 1381.56 500.226 1371.43 516.718 1364.52C533.211 1357.61 550.914 1354.05 568.796 1354.05C586.678 1354.05 604.381 1357.61 620.873 1364.52C637.366 1371.43 652.317 1381.56 664.857 1394.31C677.397 1407.05 687.274 1422.17 693.912 1438.77C700.55 1455.38 703.817 1473.13 703.523 1491.02C703.523 1506.2 703.047 1519.71 702.169 1531.82H713.147L758.709 1528.93L1305.85 1523.15C1304.9 1513.38 1304.39 1502.73 1304.39 1491.12C1304.09 1472.61 1307.47 1454.22 1314.36 1437.02C1321.23 1419.83 1331.46 1404.17 1344.46 1390.98C1357.44 1377.77 1372.93 1367.29 1390.01 1360.13C1407.09 1352.98 1425.43 1349.29 1443.94 1349.29C1462.47 1349.29 1480.8 1352.98 1497.88 1360.13C1514.96 1367.29 1530.44 1377.77 1543.44 1390.98C1556.42 1404.17 1566.66 1419.83 1573.53 1437.02C1580.41 1454.22 1583.8 1472.61 1583.5 1491.12C1583.5 1497.87 1583.01 1504.61 1582.04 1511.29L1631.95 1500.82L1672.68 1457.2C1675.83 1449.77 1677.52 1441.81 1677.66 1433.74Z" fill="white"/>
<path d="M1678.65 1367.83C1676.71 1360.08 1638.91 1339.73 1638.91 1339.73C1638.91 1339.73 1604 1288.49 1584.63 1269.94C1574.07 1259.71 1562.73 1250.32 1550.71 1241.83C1550.71 1241.83 1592.4 1237.96 1592.4 1231.19C1592.4 1224.42 1582.7 1223.42 1575.89 1221.49C1569.09 1219.55 1519.68 1220.53 1519.68 1220.53H1239.58L963.351 1236.02L878.084 1241.83C878.084 1241.83 874.205 1231.19 866.447 1231.19C859.946 1230.96 853.467 1230.31 847.051 1229.25C847.051 1229.25 843.172 1220.53 856.749 1207.91C870.326 1195.28 940.111 1152.69 940.111 1152.69C939.599 1146.15 936.857 1139.99 932.354 1135.23C927.601 1129.96 921.599 1125.95 914.901 1123.59L883.903 1118.76C879.035 1118.76 803.392 1159.46 695.874 1242.82C695.874 1242.82 550.48 1254.46 478.752 1278.69C407.025 1302.91 375.04 1329.08 360.512 1365.9C360.512 1365.9 362.451 1378.52 358.572 1382.4C354.693 1386.28 328.527 1394.99 322.708 1404.68C316.89 1414.38 327.576 1487.06 327.576 1487.06C327.576 1487.06 315.938 1494.82 320.769 1502.61C325.599 1510.41 358.572 1524.9 385.726 1529.73C402.65 1532.7 419.78 1534.33 436.96 1534.6H438.278C435.349 1520.26 433.939 1505.65 434.069 1491.01C433.774 1473.13 437.041 1455.38 443.679 1438.77C450.318 1422.17 460.195 1407.05 472.735 1394.3C485.274 1381.56 500.226 1371.43 516.718 1364.52C533.211 1357.61 550.914 1354.05 568.796 1354.05C586.678 1354.05 604.381 1357.61 620.873 1364.52C637.366 1371.43 652.317 1381.56 664.857 1394.3C677.397 1407.05 687.273 1422.17 693.912 1438.77C700.55 1455.38 703.817 1473.13 703.523 1491.01C703.523 1506.2 703.047 1519.7 702.169 1531.82H713.147L758.709 1528.93L1305.85 1523.15C1304.9 1513.37 1304.39 1502.73 1304.39 1491.12C1304.09 1472.61 1307.47 1454.22 1314.36 1437.02C1321.23 1419.82 1331.46 1404.17 1344.46 1390.97C1357.44 1377.77 1372.93 1367.29 1390.01 1360.13C1407.09 1352.98 1425.43 1349.29 1443.94 1349.29C1462.47 1349.29 1480.8 1352.98 1497.88 1360.13C1514.96 1367.29 1530.44 1377.77 1543.44 1390.97C1556.42 1404.17 1566.66 1419.82 1573.53 1437.02C1580.41 1454.22 1583.8 1472.61 1583.5 1491.12C1583.5 1497.87 1583.01 1504.61 1582.04 1511.29L1631.95 1500.82L1672.68 1457.2C1675.75 1449.82 1677.39 1441.92 1677.51 1433.93C1677.66 1421.16 1680.59 1375.59 1678.65 1367.83Z" stroke="#263238" stroke-width="2.7848" stroke-linecap="round" stroke-linejoin="round"/>
<path d="M904.25 1148.81C904.25 1148.81 810.236 1203.08 763.723 1267.05L1526.49 1226.36L1477.78 1220.53H1239.58L963.351 1236.02L878.084 1241.83C878.084 1241.83 874.205 1231.19 866.447 1231.19C859.946 1230.96 853.467 1230.31 847.051 1229.25C847.051 1229.25 843.172 1220.53 856.749 1207.91C870.326 1195.28 940.111 1152.69 940.111 1152.69C939.599 1146.15 936.857 1139.99 932.354 1135.23C927.601 1129.96 921.599 1125.95 914.901 1123.59L883.903 1118.76C883.903 1118.76 904.25 1131.35 904.25 1148.81Z" fill="white" stroke="#263238" stroke-width="2.7848" stroke-linecap="round" stroke-linejoin="round"/>
<path d="M1090.08 1172.05C1085.88 1171.61 1081.67 1172.77 1078.29 1175.3C1074.9 1177.81 1072.58 1181.51 1071.79 1185.66C1070.23 1192.98 1069.34 1200.43 1069.11 1207.91C1069.11 1222.55 1090.45 1233.13 1090.45 1233.13L1079.76 1248.64L1124.38 1246.7C1124.4 1242.74 1123.75 1238.8 1122.44 1235.07L1120.5 1231.19C1120.5 1231.19 1126.31 1224.42 1116.61 1204.03C1106.92 1183.65 1098.32 1173.04 1090.45 1172.05H1090.08Z" fill="#263238" stroke="#263238" stroke-width="2.7848" stroke-linecap="round" stroke-linejoin="round"/>
<path d="M1273.5 1221.49L1288.14 1237.01L1486.85 1231.19L1513.02 1229.25C1513.02 1229.25 1523.67 1229.25 1519.79 1220.53C1518.5 1217.92 1516.59 1215.67 1514.22 1213.98C1511.85 1212.29 1509.1 1211.21 1506.21 1210.84C1506.21 1210.84 1502.33 1199.2 1497.5 1195.32C1494.32 1192.39 1490.19 1190.67 1485.87 1190.49C1482.98 1190.49 1478.1 1174.98 1471.23 1174.98C1464.35 1174.98 1443.12 1182.73 1440.19 1184.67C1437.27 1186.61 1417.91 1169.16 1404.37 1172.05C1390.83 1174.94 1314.23 1206.96 1304.53 1210.84C1294.83 1214.72 1273.5 1221.49 1273.5 1221.49Z" fill="#263238" stroke="#263238" stroke-width="2.7848" stroke-linecap="round" stroke-linejoin="round"/>
<path d="M1364.62 1214.72C1364.62 1214.72 1362.68 1168.21 1356.86 1163.48C1351.05 1158.77 1340.4 1153.79 1336.52 1156.71L1332.64 1159.6C1332.64 1159.6 1327.77 1153.79 1319.06 1158.65C1310.35 1163.52 1306.47 1185.77 1306.47 1195.47C1306.52 1198.38 1307.14 1201.24 1308.3 1203.91C1309.47 1206.57 1311.14 1208.98 1313.24 1210.99L1296.77 1220.68L1305.49 1234.22L1364.62 1214.72Z" fill="#263238" stroke="#263238" stroke-width="2.7848" stroke-linecap="round" stroke-linejoin="round"/>
<path d="M878.084 1241.83C878.084 1241.83 874.205 1231.19 866.447 1231.19C859.946 1230.96 853.467 1230.31 847.051 1229.25C847.051 1229.25 843.172 1220.53 856.749 1207.91C870.326 1195.28 940.111 1152.69 940.111 1152.69C939.599 1146.15 936.857 1139.99 932.354 1135.23C927.601 1129.96 921.599 1125.95 914.901 1123.59L883.903 1118.76C883.903 1118.76 904.25 1131.35 904.25 1148.81C904.25 1148.81 810.236 1203.08 763.723 1267.05L888.55 1260.39L878.084 1241.83Z" fill="#263238" stroke="#263238" stroke-width="2.7848" stroke-linecap="round" stroke-linejoin="round"/>
<path d="M808.296 1219.55C808.296 1219.55 822.935 1215.67 831.534 1223.43C840.135 1231.19 843.172 1249.59 838.341 1252.7C833.511 1255.81 812.175 1255.59 812.175 1255.59L822.825 1265.3L798.599 1266.24L797.611 1255.59C797.611 1255.59 784.07 1246.89 786.009 1236.2C787.949 1225.51 808.296 1219.55 808.296 1219.55Z" fill="white" stroke="#263238" stroke-width="2.7848" stroke-linecap="round" stroke-linejoin="round"/>
<path d="M1605.94 1296.11C1605.94 1296.11 1552.65 1256.4 1456.7 1268C1360.74 1279.6 1285.14 1315.58 1254.14 1469.61" stroke="#263238" stroke-width="2.7848" stroke-linecap="round" stroke-linejoin="round"/>
<path d="M1264.79 1493.83C1264.79 1493.83 1273.5 1488.02 1270.61 1482.19C1268.47 1478.13 1265.26 1474.73 1261.34 1472.34C1257.41 1469.96 1252.91 1468.69 1248.32 1468.66C1236.69 1468.66 753.037 1485.13 753.037 1485.13L755.964 1506.42L1264.79 1493.83Z" stroke="#263238" stroke-width="2.7848" stroke-linecap="round" stroke-linejoin="round"/>
<path d="M753.037 1485.13C753.037 1485.13 753.037 1427.93 733.678 1391.11C714.319 1354.3 686.104 1320.37 619.28 1295.96C552.456 1271.55 434.179 1311.48 434.179 1311.48C405.837 1323.97 381.879 1344.66 365.379 1370.87L361.5 1377.64" stroke="#263238" stroke-width="2.7848" stroke-linecap="round" stroke-linejoin="round"/>
<path d="M415.479 1367.61C395.644 1385.91 374.272 1395.13 367.904 1388.07C361.537 1381.01 372.113 1360.37 391.948 1341.99C411.783 1323.63 433.118 1314.48 439.522 1321.54C445.926 1328.6 435.277 1349.25 415.479 1367.61Z" stroke="#263238" stroke-width="2.7848" stroke-linecap="round" stroke-linejoin="round"/>
<path d="M322.672 1446.37C324.612 1466.9 327.576 1487.07 327.576 1487.07C327.576 1487.07 355.682 1495.77 365.38 1494.82C375.077 1493.87 378.92 1490.94 382.799 1474.47C386.678 1458.01 377.968 1452.15 377.968 1452.15L322.709 1446.33L322.672 1446.37Z" fill="#263238" stroke="#263238" stroke-width="2.7848" stroke-linecap="round" stroke-linejoin="round"/>
<path d="M1137.32 1321.32H1127.63C1123.66 1321.31 1119.84 1319.73 1117.03 1316.92C1114.22 1314.1 1112.63 1310.3 1112.63 1306.32C1112.63 1302.34 1114.2 1298.51 1117.02 1295.69C1119.83 1292.87 1123.65 1291.28 1127.63 1291.28H1137.32C1139.31 1291.28 1141.26 1291.66 1143.08 1292.42C1144.91 1293.18 1146.57 1294.28 1147.96 1295.68C1149.36 1297.08 1150.46 1298.74 1151.23 1300.56C1151.98 1302.38 1152.37 1304.34 1152.37 1306.32C1152.36 1310.3 1150.77 1314.11 1147.95 1316.93C1145.13 1319.74 1141.31 1321.32 1137.32 1321.32Z" fill="white" stroke="#263238" stroke-width="2.7848" stroke-linecap="round" stroke-linejoin="round"/>
<path d="M1111.64 1312.72C1109.8 1312.72 1108.04 1311.99 1106.74 1310.69C1105.45 1309.4 1104.72 1307.64 1104.72 1305.81C1104.72 1303.97 1105.45 1302.21 1106.74 1300.92C1108.04 1299.62 1109.8 1298.89 1111.64 1298.89L1163.97 1297.94C1165.79 1297.93 1167.55 1298.63 1168.86 1299.89C1170.17 1301.16 1170.94 1302.88 1170.99 1304.7C1171.02 1305.62 1170.86 1306.52 1170.52 1307.36C1170.2 1308.21 1169.7 1308.99 1169.07 1309.64C1168.45 1310.3 1167.69 1310.83 1166.86 1311.19C1166.03 1311.55 1165.13 1311.75 1164.22 1311.77L1111.9 1312.72H1111.64Z" fill="white" stroke="#263238" stroke-width="2.7848" stroke-linecap="round" stroke-linejoin="round"/>
<path d="M1463.98 1607.81C1524.93 1597.96 1566.36 1540.56 1556.51 1479.62C1546.65 1418.67 1489.26 1377.24 1428.31 1387.1C1367.36 1396.95 1325.94 1454.34 1335.79 1515.28C1345.64 1576.23 1403.04 1617.66 1463.98 1607.81Z" fill="#263238" stroke="#263238" stroke-width="2.7848" stroke-linecap="round" stroke-linejoin="round"/>
<path d="M1456.46 1566.47C1498.19 1559.65 1526.49 1520.3 1519.67 1478.57C1512.85 1436.84 1473.5 1408.54 1431.77 1415.36C1390.04 1422.18 1361.74 1461.53 1368.56 1503.26C1375.37 1544.99 1414.74 1573.29 1456.46 1566.47Z" fill="white" stroke="#263238" stroke-width="2.7848" stroke-linecap="round" stroke-linejoin="round"/>
<path d="M1476.28 1523.16C1494.08 1505.37 1494.08 1476.52 1476.28 1458.73C1458.49 1440.93 1429.64 1440.93 1411.85 1458.73C1394.06 1476.52 1394.06 1505.37 1411.85 1523.16C1429.64 1540.96 1458.49 1540.96 1476.28 1523.16Z" stroke="#263238" stroke-width="2.7848" stroke-linecap="round" stroke-linejoin="round"/>
<path d="M1464.46 1490.94C1464.46 1486.91 1463.27 1482.97 1461.04 1479.6C1458.8 1476.25 1455.63 1473.63 1451.9 1472.08C1448.17 1470.53 1444.07 1470.12 1440.12 1470.91C1436.16 1471.69 1432.53 1473.63 1429.67 1476.48C1426.82 1479.33 1424.87 1482.96 1424.08 1486.92C1423.3 1490.87 1423.69 1494.97 1425.23 1498.7C1426.78 1502.42 1429.39 1505.61 1432.74 1507.85C1436.1 1510.09 1440.04 1511.29 1444.07 1511.29C1446.75 1511.29 1449.4 1510.77 1451.87 1509.75C1454.34 1508.73 1456.59 1507.23 1458.49 1505.34C1460.38 1503.45 1461.88 1501.21 1462.91 1498.74C1463.93 1496.27 1464.46 1493.61 1464.46 1490.94Z" stroke="#263238" stroke-width="2.7848" stroke-linecap="round" stroke-linejoin="round"/>
<path d="M586.058 1606.28C647.005 1596.43 688.428 1539.04 678.578 1478.09C668.728 1417.15 611.335 1375.72 550.387 1385.57C489.439 1395.42 448.017 1452.81 457.867 1513.76C467.717 1574.71 525.109 1616.13 586.058 1606.28Z" fill="#263238" stroke="#263238" stroke-width="2.7848" stroke-linecap="round" stroke-linejoin="round"/>
<path d="M586.53 1565.47C627.661 1555.67 653.061 1514.39 643.262 1473.25C633.463 1432.12 592.176 1406.72 551.046 1416.52C509.915 1426.32 484.515 1467.61 494.314 1508.74C504.113 1549.87 545.399 1575.27 586.53 1565.47Z" fill="white" stroke="#263238" stroke-width="2.7848" stroke-linecap="round" stroke-linejoin="round"/>
<path d="M579.533 1535.22C604.015 1529.4 619.148 1504.84 613.334 1480.35C607.519 1455.88 582.959 1440.74 558.477 1446.56C533.995 1452.37 518.862 1476.93 524.676 1501.41C530.49 1525.9 555.05 1541.03 579.533 1535.22Z" stroke="#263238" stroke-width="2.7848" stroke-linecap="round" stroke-linejoin="round"/>
<path d="M589.235 1490.94C589.235 1486.92 588.042 1482.99 585.806 1479.64C583.57 1476.29 580.393 1473.68 576.674 1472.15C572.957 1470.61 568.865 1470.2 564.919 1470.99C560.972 1471.77 557.346 1473.71 554.5 1476.56C551.655 1479.4 549.717 1483.03 548.932 1486.97C548.147 1490.92 548.55 1495.01 550.09 1498.73C551.63 1502.45 554.238 1505.62 557.584 1507.86C560.93 1510.1 564.864 1511.29 568.888 1511.29C574.284 1511.29 579.46 1509.15 583.276 1505.33C587.091 1501.51 589.235 1496.34 589.235 1490.94Z" stroke="#263238" stroke-width="2.7848" stroke-linecap="round" stroke-linejoin="round"/>
<path d="M1174.95 1246.45C1184.34 1272.37 1187.94 1300.04 1185.49 1327.5C1181.82 1374.79 1153.94 1471.62 1153.94 1471.62C1156.27 1475.81 1157.02 1480.7 1156.06 1485.39C1155.1 1490.09 1152.49 1494.29 1148.71 1497.24" stroke="#263238" stroke-width="2.7848" stroke-linecap="round" stroke-linejoin="round"/>
<path d="M763.723 1267.05C758.381 1273.23 753.696 1279.95 749.743 1287.1C745.022 1296.58 743.449 1412.04 743.449 1412.04" stroke="#263238" stroke-width="2.7848" stroke-linecap="round" stroke-linejoin="round"/>
<path d="M722.151 1254.68C729.47 1251.5 740.448 1236.38 779.093 1204.07C817.738 1171.76 879.512 1136.84 879.512 1136.84L867.765 1126.38C839.439 1141.71 776.714 1180.24 695.765 1242.82L683.213 1256.25C683.213 1256.25 714.831 1257.83 722.151 1254.68Z" fill="#263238" stroke="#263238" stroke-width="2.7848" stroke-linecap="round" stroke-linejoin="round"/>
<path d="M695.509 1242.79C692.947 1242.97 674.649 1244.51 648.922 1247.4C648.922 1254.24 683.322 1256.18 683.322 1256.18L695.509 1242.79Z" stroke="#263238" stroke-width="2.7848" stroke-linecap="round" stroke-linejoin="round"/>
<path d="M1634.81 1342.18C1634.81 1342.18 1628.18 1318.28 1600.3 1297.06C1572.42 1275.83 1546.58 1282.42 1543.94 1295.08C1541.31 1307.74 1560.52 1329.56 1582.4 1340.83C1604.29 1352.1 1622.4 1346.83 1634.81 1342.18Z" fill="#263238" stroke="#263238" stroke-width="2.7848" stroke-linecap="round" stroke-linejoin="round"/>
<path d="M1570.25 1378.52C1570.25 1378.52 1597.92 1406.18 1603.19 1445.93C1603.19 1445.93 1601.47 1454.56 1613.59 1454.56C1633.03 1454.56 1652.32 1451 1670.49 1444.06" stroke="#263238" stroke-width="2.7848" stroke-linecap="round" stroke-linejoin="round"/>
<path d="M1678.65 1367.83C1678.65 1367.83 1677.41 1371.49 1651.49 1383.72C1635.74 1391.02 1618.71 1395.13 1601.36 1395.83" fill="#92E3A9"/>
<path d="M322.708 1404.69C322.708 1404.69 334.529 1390.64 374.272 1409.63C389.406 1417.06 405.379 1422.65 421.846 1426.28" stroke="#263238" stroke-width="2.7848" stroke-linecap="round" stroke-linejoin="round"/>
<path d="M331.089 1499.5C356.152 1504.27 381.625 1506.53 407.135 1506.27C407.135 1506.27 400.219 1433.67 457.235 1378.19" stroke="#263238" stroke-width="2.7848" stroke-linecap="round" stroke-linejoin="round"/>
<path d="M271.564 1624.96H1728.63" stroke="#263238" stroke-width="3.38826" stroke-linecap="round" stroke-linejoin="round"/>
</g>
<defs>
<clipPath id="clip0_795_110">
<rect width="1361" height="1203.96" fill="white" transform="translate(319 421)"/>
</clipPath>
</defs>
</svg>
