<svg width="2000" height="2000" viewBox="0 0 2000 2000" fill="none" xmlns="http://www.w3.org/2000/svg">
<g clip-path="url(#clip0_796_578)">
<path d="M283.599 1585.08H1694.59" stroke="#263238" stroke-width="3.28111" stroke-linecap="round" stroke-linejoin="round"/>
<path d="M1531.57 1312.72H1149.72V1585.08H1531.57V1312.72Z" fill="#999999"/>
<path opacity="0.3" d="M1149.72 1585.11H1347.6V1429.56L1531.6 1421.6V1411.7H1149.72V1585.11Z" fill="black" fill-opacity="0.7"/>
<path d="M1531.57 1312.72H1149.72V1585.08H1531.57V1312.72Z" stroke="#263238" stroke-width="3.28111" stroke-linecap="round" stroke-linejoin="round"/>
<path d="M1540.66 1308.84H1140.66V1410.82H1540.66V1308.84Z" fill="#999999"/>
<path opacity="0.3" d="M1352.72 1308.84H1140.66V1410.82H1352.72V1308.84Z" fill="black" fill-opacity="0.7"/>
<path d="M1540.66 1308.84H1140.66V1410.82H1540.66V1308.84Z" stroke="#263238" stroke-width="3.28111" stroke-linecap="round" stroke-linejoin="round"/>
<path d="M1352.72 1384.32V1398.52" stroke="#263238" stroke-width="3.28111" stroke-linecap="round" stroke-linejoin="round"/>
<path d="M1352.72 1356.09V1371.86" stroke="#263238" stroke-width="3.28111" stroke-linecap="round" stroke-linejoin="round"/>
<path d="M1352.72 1308.84V1344.83" stroke="#263238" stroke-width="3.28111" stroke-linecap="round" stroke-linejoin="round"/>
<path d="M1347.6 1567.54V1573.43" stroke="#263238" stroke-width="3.28111" stroke-linecap="round" stroke-linejoin="round"/>
<path d="M1347.6 1480.48V1554.75" stroke="#263238" stroke-width="3.28111" stroke-linecap="round" stroke-linejoin="round"/>
<path d="M1347.6 1411.66V1454.22" stroke="#263238" stroke-width="3.28111" stroke-linecap="round" stroke-linejoin="round"/>
<path d="M1470.3 1389.14H1451.1V1439.95H1470.3V1389.14Z" fill="#BFBFBF" stroke="#263238" stroke-width="3.28111" stroke-linecap="round" stroke-linejoin="round"/>
<path d="M1189.79 967.547C1169.4 976.03 1078.94 985.903 1078.94 985.903C1093.23 954.58 1110.67 924.789 1130.98 896.992L1104.35 879.193C1104.35 879.193 1033.98 954.897 1016.67 1008.23C1016.67 1008.23 1011.49 1032.34 1014.92 1035.77C1018.35 1039.2 1047.29 1049.88 1101.95 1053.93C1156.62 1057.98 1195.81 1058.98 1195.81 1058.98" fill="white"/>
<path d="M1189.79 967.547C1169.4 976.03 1078.94 985.903 1078.94 985.903C1093.23 954.58 1110.67 924.789 1130.98 896.992L1104.35 879.193C1104.35 879.193 1033.98 954.897 1016.67 1008.23C1016.67 1008.23 1011.49 1032.34 1014.92 1035.77C1018.35 1039.2 1047.29 1049.88 1101.95 1053.93C1156.62 1057.98 1195.81 1058.98 1195.81 1058.98" stroke="#263238" stroke-width="3.28111" stroke-linecap="round" stroke-linejoin="round"/>
<path d="M1085.58 894.922C1085.58 894.922 1106.39 915.055 1123.02 914.02L1135.97 893.658C1135.97 893.658 1177.49 872.98 1172.73 862.623C1167.97 852.265 1163.74 859.384 1163.74 859.384L1182.12 846.991C1182.12 846.991 1159.11 833.299 1154.22 833.335C1149.33 833.365 1136.84 831 1128.52 834.431C1120.21 837.861 1105.03 874.501 1105.03 874.501L1085.58 894.922Z" fill="#92E3A9" stroke="#263238" stroke-width="3.28111" stroke-linecap="round" stroke-linejoin="round"/>
<path d="M1131.53 887.09C1131.53 887.09 1140.46 883.594 1143.38 877.38C1146.29 871.165 1143.38 859.449 1143.38 859.449" fill="#92E3A9"/>
<path d="M1131.53 887.09C1131.53 887.09 1140.46 883.594 1143.38 877.38C1146.29 871.165 1143.38 859.449 1143.38 859.449" stroke="#263238" stroke-width="3.28111" stroke-linecap="round" stroke-linejoin="round"/>
<path d="M1139.66 852.235C1141.42 854.75 1144.06 856.51 1147.07 857.145C1150.07 857.779 1153.21 857.252 1155.84 855.666" fill="#92E3A9"/>
<path d="M1139.66 852.235C1141.42 854.75 1144.06 856.51 1147.07 857.145C1150.07 857.779 1153.21 857.252 1155.84 855.666" stroke="#263238" stroke-width="3.28111" stroke-linecap="round" stroke-linejoin="round"/>
<path d="M1146.39 846.926C1152.36 850.727 1158.11 854.864 1163.61 859.325L1146.39 846.926Z" fill="#92E3A9"/>
<path d="M1146.39 846.926C1152.36 850.727 1158.11 854.864 1163.61 859.325" stroke="#263238" stroke-width="3.28111" stroke-linecap="round" stroke-linejoin="round"/>
<path d="M1171.57 853.947L1158.04 842.752L1171.57 853.947Z" fill="#92E3A9"/>
<path d="M1171.57 853.947L1158.04 842.752" stroke="#263238" stroke-width="3.28111" stroke-linecap="round" stroke-linejoin="round"/>
<path d="M1078.87 985.903C1078.27 998.883 1074.55 1011.53 1068.03 1022.76" stroke="#263238" stroke-width="3.28111" stroke-linecap="round" stroke-linejoin="round"/>
<path d="M1237.27 955.993C1237.27 955.993 1169.3 962.016 1156.55 969.685C1143.8 977.354 1114.7 980.24 1114.7 980.24C1114.7 980.24 1127.65 1016.71 1114.7 1054.84L1126.65 1065.26C1126.65 1065.26 1148.85 1063.16 1153.96 1065.26C1159.08 1067.37 1211.89 1082.7 1211.89 1082.7" fill="#92E3A9"/>
<path opacity="0.2" d="M1190.31 1076.39C1175.1 1071.9 1156.87 1066.46 1153.96 1065.26C1148.85 1063.16 1126.65 1065.26 1126.65 1065.26L1119.95 1059.4C1129.66 1045.1 1135.45 1027.04 1139.36 1027.04C1141.47 1027.04 1146.03 1032.89 1150.31 1039.53C1147.07 1018.98 1154.35 991.854 1157.98 1014.93C1160.66 1031.89 1176.85 1057.63 1190.31 1076.39Z" fill="black"/>
<path d="M1237.27 955.993C1237.27 955.993 1169.3 962.016 1156.55 969.685C1143.8 977.354 1114.7 980.24 1114.7 980.24C1114.7 980.24 1127.65 1016.71 1114.7 1054.84L1126.65 1065.26C1126.65 1065.26 1148.85 1063.16 1153.96 1065.26C1159.08 1067.37 1211.89 1082.7 1211.89 1082.7" stroke="#263238" stroke-width="3.28111" stroke-linecap="round" stroke-linejoin="round"/>
<path d="M1184.81 1483.61C1184.81 1483.61 1210.05 1557.02 1208.95 1580.06C1208.95 1580.06 1167.85 1590.32 1146.88 1587.77C1125.9 1585.21 1084.09 1588.57 1061.88 1588.15C1039.68 1587.73 1037.13 1582.62 1037.13 1582.62C1037.13 1582.62 1035.41 1573.23 1050.07 1564.72C1064.73 1556.21 1123.47 1551.77 1128.59 1509.18C1133.7 1466.59 1184.81 1483.61 1184.81 1483.61Z" fill="#BFBFBF" stroke="#263238" stroke-width="3.28111" stroke-linecap="round" stroke-linejoin="round"/>
<path d="M1484.02 1207.05C1484.02 1207.05 1506.32 1267.42 1493.93 1305.64C1481.53 1343.86 1392.81 1372.11 1373.11 1372.11C1353.4 1372.11 1195.78 1332.7 1195.78 1332.7L1187.88 1341.34L1163.6 1331.46L1201.83 1507.66C1201.83 1507.66 1220.31 1517.53 1201.83 1523.68C1183.35 1529.83 1113.11 1529.86 1111.89 1523.68C1111.22 1518.36 1111.22 1512.98 1111.89 1507.66L1101.46 1487.95C1101.46 1487.95 1103.37 1453.45 1101.46 1448.53C1099.55 1443.61 1020.71 1279.65 1053.86 1240.22C1086.99 1200.81 1283.65 1232.81 1283.65 1232.81L1308.73 1206.93L1484.02 1207.05Z" fill="#263238"/>
<path opacity="0.2" d="M1168.46 1333.28L1187.88 1341.17L1195.78 1332.53C1195.78 1332.53 1353.4 1372.11 1373.11 1372.11C1392.81 1372.11 1481.56 1343.8 1493.93 1305.57C1494.87 1302.62 1495.62 1299.6 1496.16 1296.54C1482.6 1309.94 1456.32 1332.92 1428.71 1340.82C1428.71 1340.82 1436.77 1332.37 1415.34 1327.87C1393.92 1323.38 1328.18 1219.16 1328.18 1219.16L1299.38 1216.89L1283.65 1232.94C1283.65 1232.94 1253.32 1227.99 1214.48 1224.4C1201.22 1261.54 1185.86 1297.89 1168.46 1333.28Z" fill="black"/>
<path opacity="0.2" d="M1101.47 1448.46C1103.38 1453.39 1101.47 1487.89 1101.47 1487.89L1111.89 1507.6C1111.22 1512.91 1111.22 1518.29 1111.89 1523.62C1113.12 1529.77 1183.35 1529.77 1201.83 1523.62C1220.31 1517.47 1201.83 1507.6 1201.83 1507.6L1165.35 1339.52C1145.94 1377.68 1122.31 1415.39 1096.9 1438.36C1099.53 1444.19 1101.21 1447.78 1101.47 1448.46Z" fill="black"/>
<path d="M1163.61 1331.4C1163.61 1331.4 1174.77 1311.23 1168.56 1296.7" stroke="white" stroke-width="3.28111" stroke-linecap="round" stroke-linejoin="round"/>
<path d="M1158.56 1300.91C1159.3 1306.85 1159.57 1312.83 1159.36 1318.81" stroke="white" stroke-width="3.28111" stroke-linecap="round" stroke-linejoin="round"/>
<path d="M1153.47 1277.67C1154.87 1281.97 1156.02 1286.35 1156.9 1290.78" stroke="white" stroke-width="3.28111" stroke-linecap="round" stroke-linejoin="round"/>
<path d="M1134.41 1359.52C1134.41 1359.52 1133.38 1418.24 1101.47 1448.46" stroke="white" stroke-width="3.28111" stroke-linecap="round" stroke-linejoin="round"/>
<path d="M1145.8 1472.03C1137.17 1484.97 1126.58 1500.83 1111.89 1507.63" stroke="white" stroke-width="3.28111" stroke-linecap="round" stroke-linejoin="round"/>
<path d="M1156.45 1454.38C1154.8 1457.43 1153.05 1460.41 1151.28 1463.38" stroke="white" stroke-width="3.28111" stroke-linecap="round" stroke-linejoin="round"/>
<path opacity="0.2" d="M1493.5 1241.39C1491.13 1229.74 1487.96 1218.27 1484.02 1207.05H1476.35L1440.14 1228.09C1440.14 1228.09 1433.56 1243.85 1493.5 1241.39Z" fill="black"/>
<path d="M1477.35 1252.07C1477.35 1252.07 1458.58 1243.62 1440.13 1247.22" stroke="white" stroke-width="3.28111" stroke-linecap="round" stroke-linejoin="round"/>
<path d="M1484.02 1207.05C1484.02 1207.05 1506.32 1267.42 1493.93 1305.64C1481.53 1343.86 1392.81 1372.11 1373.11 1372.11C1353.4 1372.11 1195.78 1332.7 1195.78 1332.7L1187.88 1341.34L1163.6 1331.46L1201.83 1507.66C1201.83 1507.66 1220.31 1517.53 1201.83 1523.68C1183.35 1529.83 1113.11 1529.86 1111.89 1523.68C1111.22 1518.36 1111.22 1512.98 1111.89 1507.66L1101.46 1487.95C1101.46 1487.95 1103.37 1453.45 1101.46 1448.53C1099.55 1443.61 1020.71 1279.65 1053.86 1240.22C1086.99 1200.81 1283.65 1232.81 1283.65 1232.81L1308.73 1206.93L1484.02 1207.05Z" stroke="#263238" stroke-width="3.28111" stroke-miterlimit="10"/>
<path d="M1339.29 1522.1C1339.29 1522.1 1342.72 1543.33 1339.29 1547.18C1335.85 1551.03 1328.96 1596.27 1328.96 1596.27C1328.96 1596.27 1239.63 1610.16 1213.03 1608.25C1177.43 1605.7 1169.11 1595.3 1169.11 1595.3C1169.11 1595.3 1168.49 1581.65 1201.99 1570.93C1243.32 1557.73 1275.17 1513.58 1275.17 1513.58L1339.29 1522.1Z" fill="#BFBFBF" stroke="#263238" stroke-width="3.28111" stroke-linecap="round" stroke-linejoin="round"/>
<path d="M1175.42 1052.93C1205.55 1105.14 1283 1186.56 1283 1186.56C1283 1186.56 1278.15 1193.95 1288.89 1207.51C1285.56 1210.88 1283.48 1215.28 1283 1220C1282.35 1227.38 1346.05 1264.34 1406.44 1254.5C1466.84 1244.66 1492.69 1227.38 1493.82 1215.05C1494.96 1202.72 1432.72 1038.01 1390.84 987.489C1357.5 963.77 1317.64 950.94 1276.72 950.754C1228.37 950.491 1190.66 966.452 1173.54 990.171" fill="#92E3A9"/>
<path opacity="0.2" d="M1416.93 1252.37C1413.69 1253.01 1410.07 1253.66 1406.44 1254.24C1346.05 1263.95 1282.35 1227.12 1283 1219.74C1283.52 1215.09 1285.6 1210.74 1288.89 1207.41C1288.5 1206.89 1288.12 1206.4 1287.79 1205.92C1317.27 1200.23 1344.27 1184.4 1331.88 1184.95C1314.88 1185.73 1304.46 1183.2 1323 1172.17C1341.55 1161.13 1336.89 1095.46 1336.89 1095.46C1336.89 1095.46 1374.5 1066.33 1413.79 1142.68C1450.88 1214.76 1434.63 1232.72 1416.93 1252.37Z" fill="black"/>
<path d="M1175.42 1052.93C1205.55 1105.14 1283 1186.56 1283 1186.56C1283 1186.56 1278.15 1193.95 1288.89 1207.51C1285.56 1210.88 1283.48 1215.28 1283 1220C1282.35 1227.38 1346.05 1264.34 1406.44 1254.5C1466.84 1244.66 1492.69 1227.38 1493.82 1215.05C1494.96 1202.72 1432.72 1038.01 1390.84 987.489C1357.5 963.77 1317.64 950.94 1276.72 950.754C1228.37 950.491 1190.66 966.452 1173.54 990.171" stroke="#263238" stroke-width="3.28111" stroke-linecap="round" stroke-linejoin="round"/>
<path d="M1176 944.409C1177.25 949.702 1178.86 954.898 1180.79 959.975" stroke="#263238" stroke-width="3.28111" stroke-linecap="round" stroke-linejoin="round"/>
<path d="M1197.53 953.665C1204.16 954.964 1209.86 961.663 1213.71 967.548C1215.7 970.643 1217.44 973.888 1218.92 977.259C1218.92 977.259 1209.21 1009.27 1241.28 1003.15C1273.35 997.033 1283.81 964.315 1283.81 964.315C1264.69 950.138 1266.53 931.202 1266.53 931.202C1246.07 924.054 1207.07 940.913 1197.78 949.426C1195.32 951.366 1194.97 953.18 1197.53 953.665Z" fill="white" stroke="#263238" stroke-width="3.28111" stroke-linecap="round" stroke-linejoin="round"/>
<path d="M1197.52 953.665C1204.16 954.964 1209.86 961.663 1213.71 967.548C1227.36 957.095 1228.08 944.409 1228.08 944.409L1197.85 949.235C1195.32 951.366 1194.97 953.18 1197.52 953.665Z" fill="#263238"/>
<path d="M1295.24 1184.4C1295.24 1184.4 1353.69 1180.19 1368.51 1146.63" stroke="#263238" stroke-width="3.28111" stroke-linecap="round" stroke-linejoin="round"/>
<path d="M1433.72 1219.41C1389.06 1224.04 1341.71 1222.82 1299.25 1206.96" stroke="#263238" stroke-width="3.28111" stroke-linecap="round" stroke-linejoin="round"/>
<path d="M1466.67 1214.56C1459.59 1216.02 1452.43 1217.12 1445.25 1218.05" stroke="#263238" stroke-width="3.28111" stroke-linecap="round" stroke-linejoin="round"/>
<path d="M1260.41 934.052C1260.41 934.052 1274.98 915.995 1278.99 903.303C1296.18 848.931 1299.18 814.043 1237.56 800.676C1194.03 791.258 1171.67 849.613 1172.67 870.717C1173.25 882.625 1167.39 894.245 1164.45 903.692C1161.21 914.247 1167.42 955.478 1180.92 959.005C1198.17 963.309 1226.65 957.358 1231.12 947.809" fill="white"/>
<path d="M1260.41 934.052C1260.41 934.052 1274.98 915.995 1278.99 903.303C1296.18 848.931 1299.18 814.043 1237.56 800.676C1194.03 791.258 1171.67 849.613 1172.67 870.717C1173.25 882.625 1167.39 894.245 1164.45 903.692C1161.21 914.247 1167.42 955.478 1180.92 959.005C1198.17 963.309 1226.65 957.358 1231.12 947.809" stroke="#263238" stroke-width="3.28111" stroke-linecap="round" stroke-linejoin="round"/>
<path d="M1208.79 886.121C1208.01 888.971 1208.95 891.719 1210.92 892.269C1212.9 892.82 1215.13 890.94 1215.91 888.097C1216.68 885.247 1215.75 882.493 1213.77 881.942C1211.8 881.397 1209.56 883.403 1208.79 886.121Z" fill="#263238"/>
<path d="M1179.01 876.249C1178.23 879.099 1179.17 881.847 1181.15 882.397C1183.12 882.948 1185.35 881.068 1186.13 878.225C1186.91 875.375 1185.97 872.627 1183.99 872.106C1182.02 871.591 1179.79 873.399 1179.01 876.249Z" fill="#263238"/>
<path d="M1189.79 883.631C1189.79 883.631 1174.39 897.191 1173.61 899.813C1172.83 902.43 1182.25 909.877 1182.25 909.877" stroke="#263238" stroke-width="3.28111" stroke-linecap="round" stroke-linejoin="round"/>
<path d="M1176.85 920.396C1184.5 924.574 1193.46 925.676 1201.89 923.467" stroke="#263238" stroke-width="3.28111" stroke-linecap="round" stroke-linejoin="round"/>
<path d="M1211.89 859.935C1211.89 859.935 1218.82 856.504 1228.08 865.892" stroke="#263238" stroke-width="3.28111" stroke-linecap="round" stroke-linejoin="round"/>
<path d="M1189.79 855.666C1189.79 855.666 1181.34 847.961 1178.79 855.666" stroke="#263238" stroke-width="3.28111" stroke-linecap="round" stroke-linejoin="round"/>
<path d="M1241.28 842.848C1241.28 842.848 1248.99 856.504 1247.75 870.166C1246.62 880.074 1244.44 889.833 1241.28 899.292L1244.52 901.849C1244.52 901.849 1257.63 895.018 1261.03 901.849C1264.42 908.68 1251.61 926.61 1251.61 926.61C1251.61 926.61 1259.08 942.792 1270.31 944.505C1270.31 944.505 1269.67 938.554 1273.55 936.836C1277.44 935.123 1291.64 922.886 1291.64 910.039C1291.64 910.039 1294.62 914.05 1291.64 922.982C1291.64 922.982 1314.3 877.189 1292.97 843.04C1271.64 808.897 1241.28 842.848 1241.28 842.848Z" fill="#263238"/>
<path d="M1251.73 903.142C1251.73 903.142 1268.11 889.325 1270.22 903.142C1272.32 916.966 1249.27 936.417 1243.74 929.652C1238.2 922.887 1243.74 921.623 1243.74 921.623" fill="white"/>
<path d="M1251.73 903.142C1251.73 903.142 1268.11 889.325 1270.22 903.142C1272.32 916.966 1249.27 936.417 1243.74 929.652C1238.2 922.887 1243.74 921.623 1243.74 921.623" stroke="#263238" stroke-width="3.28111" stroke-linecap="round" stroke-linejoin="round"/>
<path d="M1173.61 952.856C1173.61 952.856 1183.64 951.563 1189.28 956.095C1194.9 960.627 1188.27 967.488 1178.69 961.92C1169.11 956.353 1173.61 952.856 1173.61 952.856Z" fill="#263238"/>
<path d="M1188.01 955.994C1188.01 955.994 1236.98 956.353 1266.76 846.926H1271.8C1271.8 846.926 1270.12 939.392 1191.28 960.364L1188.01 955.994Z" fill="#263238"/>
<path d="M1183.02 818.219C1183.02 818.219 1166.84 825.08 1167.88 828.511C1168.91 831.941 1195.81 850.716 1250.02 851.165C1290.15 851.488 1310.61 886.769 1310.61 886.769C1314.46 875.861 1307.14 862.432 1307.14 862.432C1307.14 862.432 1312.32 825.922 1293.97 810.128C1293.97 810.128 1290.06 794.398 1265.4 784.527C1232.28 771.29 1222.29 789.673 1222.29 789.673C1213.66 790.054 1205.34 792.964 1198.36 798.04C1191.38 803.116 1186.05 810.134 1183.02 818.219Z" fill="#92E3A9" stroke="#263238" stroke-width="3.28111" stroke-linecap="round" stroke-linejoin="round"/>
<path d="M1255.94 837.669C1275.65 839.447 1295.27 845.631 1307.14 862.46" stroke="#263238" stroke-width="3.28111" stroke-linecap="round" stroke-linejoin="round"/>
<path d="M1226.27 836.664C1232.48 836.664 1238.7 836.664 1244.91 837.023" stroke="#263238" stroke-width="3.28111" stroke-linecap="round" stroke-linejoin="round"/>
<path d="M1183.02 818.218C1186.87 834.401 1201.09 835.951 1215.13 836.442" stroke="#263238" stroke-width="3.28111" stroke-linecap="round" stroke-linejoin="round"/>
<path d="M1262.09 798.023C1267.97 797.58 1273.87 798.438 1279.39 800.535C1284.9 802.633 1289.88 805.919 1293.97 810.159" stroke="#263238" stroke-width="3.28111" stroke-linecap="round" stroke-linejoin="round"/>
<path d="M1222.15 789.704C1205.23 815.596 1239.44 802.909 1251.93 799.737" stroke="#263238" stroke-width="3.28111" stroke-linecap="round" stroke-linejoin="round"/>
<path d="M1405.57 1096.46C1405.57 1096.46 1330.41 1078.79 1334.37 1105.49C1338.31 1132.19 1356.15 1186.01 1356.15 1186.01C1356.15 1186.01 1256.88 1246.8 1251.28 1251.29C1249.54 1252.69 1271.9 1274.31 1271.9 1274.31C1290.06 1264.05 1417.22 1233.24 1422.14 1211.07C1427.06 1188.89 1405.57 1096.46 1405.57 1096.46Z" fill="white" stroke="#263238" stroke-width="3.28111" stroke-linecap="round" stroke-linejoin="round"/>
<path d="M1365.72 980.24C1365.72 980.24 1400.23 1012.28 1399 1035.68C1397.77 1059.08 1413.79 1103.29 1413.79 1103.29L1406.38 1110.83C1406.38 1110.83 1357.09 1113.29 1333.68 1127.01C1333.68 1127.01 1323.39 1133.49 1326.31 1109.77C1326.06 1103.4 1324.54 1097.15 1321.86 1091.37C1319.18 1085.59 1315.38 1080.4 1310.68 1076.1C1302.03 1068.43 1302.88 1024.74 1302.88 1024.74" fill="#92E3A9"/>
<path d="M1365.72 980.24C1365.72 980.24 1400.23 1012.28 1399 1035.68C1397.77 1059.08 1413.79 1103.29 1413.79 1103.29L1406.38 1110.83C1406.38 1110.83 1357.09 1113.29 1333.68 1127.01C1333.68 1127.01 1323.39 1133.49 1326.31 1109.77C1326.06 1103.4 1324.54 1097.15 1321.86 1091.37C1319.18 1085.59 1315.38 1080.4 1310.68 1076.1C1302.03 1068.43 1302.88 1024.74 1302.88 1024.74" stroke="#263238" stroke-width="3.28111" stroke-linecap="round" stroke-linejoin="round"/>
<path d="M1424.86 1321.56C1419.94 1344.96 1401.46 1377.71 1394.08 1391.27C1386.7 1404.84 1355.85 1512.09 1355.85 1512.09C1355.85 1512.09 1357.09 1531.81 1328.77 1536.72C1300.44 1541.64 1246.72 1523.2 1260.99 1514.52C1275.26 1505.85 1290.67 1406.52 1290.67 1406.52C1290.67 1406.52 1283.13 1392.99 1296.92 1373.02C1310.71 1353.05 1311.84 1239.42 1338.67 1231.58C1385.5 1218.05 1440.2 1247.22 1440.2 1247.22C1440.2 1247.22 1455.67 1252.07 1460.78 1266.15" fill="#263238"/>
<path d="M1414.5 1272.85C1406.02 1255.44 1391.84 1239.87 1372.2 1236.08" stroke="white" stroke-width="3.28111" stroke-linecap="round" stroke-linejoin="round"/>
<path d="M1422.82 1296.25C1421.8 1291.62 1420.44 1287.07 1418.77 1282.62" stroke="white" stroke-width="3.28111" stroke-linecap="round" stroke-linejoin="round"/>
<path d="M1301.84 1406.75C1298.14 1407.22 1294.39 1407.15 1290.7 1406.55" stroke="white" stroke-width="3.28111" stroke-linecap="round" stroke-linejoin="round"/>
<path d="M1382.94 1349.07C1364.43 1371.37 1340.22 1395.19 1312.16 1404.38" stroke="white" stroke-width="3.28111" stroke-linecap="round" stroke-linejoin="round"/>
<path d="M1424.86 1321.56C1419.94 1344.96 1401.46 1377.71 1394.08 1391.27C1386.7 1404.84 1355.85 1512.09 1355.85 1512.09C1355.85 1512.09 1357.09 1531.81 1328.77 1536.72C1300.44 1541.64 1246.72 1523.2 1260.99 1514.52C1275.26 1505.85 1290.67 1406.52 1290.67 1406.52C1290.67 1406.52 1283.13 1392.99 1296.92 1373.02C1310.71 1353.05 1311.84 1239.42 1338.67 1231.58C1385.5 1218.05 1440.2 1247.22 1440.2 1247.22C1440.2 1247.22 1455.67 1252.07 1460.78 1266.15" stroke="#263238" stroke-width="3.28111" stroke-miterlimit="10"/>
<path d="M1298.44 1323.34C1298.56 1322.72 1298.82 1322.14 1299.17 1321.62C1299.52 1321.09 1299.97 1320.65 1300.5 1320.3C1301.03 1319.96 1301.62 1319.72 1302.23 1319.6C1302.85 1319.48 1303.49 1319.49 1304.1 1319.62L1319.45 1322.85C1319.21 1319.09 1317.8 1315.51 1315.4 1312.6C1313.01 1309.7 1309.75 1307.64 1306.1 1306.7C1302.45 1305.77 1298.6 1306.01 1295.1 1307.4C1291.6 1308.79 1288.64 1311.26 1286.63 1314.44L1171.99 1290.81C1171.4 1287.09 1169.66 1283.66 1166.99 1280.99C1164.33 1278.33 1160.9 1276.58 1157.17 1276C1153.46 1275.41 1149.65 1276.02 1146.3 1277.73C1142.95 1279.44 1140.23 1282.18 1138.52 1285.54L1153.86 1288.78C1154.48 1288.9 1155.07 1289.15 1155.59 1289.5C1156.11 1289.85 1156.55 1290.31 1156.9 1290.84C1157.25 1291.36 1157.49 1291.95 1157.6 1292.57C1157.72 1293.19 1157.71 1293.82 1157.59 1294.44C1157.46 1295.06 1157.21 1295.64 1156.86 1296.16C1156.5 1296.68 1156.05 1297.13 1155.53 1297.47C1155 1297.82 1154.41 1298.06 1153.79 1298.18C1153.17 1298.29 1152.54 1298.29 1151.92 1298.16L1136.58 1294.93C1136.81 1298.68 1138.23 1302.27 1140.63 1305.17C1143.03 1308.07 1146.28 1310.14 1149.93 1311.08C1153.58 1312.01 1157.43 1311.77 1160.92 1310.38C1164.42 1308.99 1167.39 1306.52 1169.4 1303.34L1284.03 1326.81C1284.63 1330.52 1286.38 1333.95 1289.05 1336.61C1291.71 1339.27 1295.15 1341.02 1298.86 1341.6C1302.58 1342.18 1306.39 1341.57 1309.74 1339.86C1313.08 1338.14 1315.81 1335.4 1317.5 1332.04L1302.16 1328.81C1300.96 1328.54 1299.91 1327.83 1299.22 1326.81C1298.52 1325.8 1298.25 1324.55 1298.44 1323.34Z" fill="#BFBFBF" stroke="#263238" stroke-width="3.28111" stroke-linecap="round" stroke-linejoin="round"/>
<path d="M1276.37 1229.71C1266.69 1235.61 1257.73 1242.63 1249.7 1250.62C1243.58 1255.44 1208.92 1284.37 1209.37 1288.74C1209.82 1293.11 1206.75 1322.37 1209.37 1325.02C1211.99 1327.68 1222.96 1319.01 1222.96 1319.01C1222.96 1319.01 1226.04 1326.9 1229.43 1327.36C1232.81 1327.51 1236.19 1327.36 1239.53 1326.9C1239.53 1326.9 1245.23 1335.67 1250.47 1334.8C1255.72 1333.92 1262.78 1323.83 1257.63 1323.41C1256.27 1323.2 1254.88 1323.37 1253.62 1323.91C1252.35 1324.45 1251.27 1325.33 1250.47 1326.45V1315.51C1254.88 1312.2 1258.99 1308.53 1262.78 1304.54C1268.47 1298.39 1271.64 1278.36 1271.64 1278.36C1274.01 1277.03 1289.8 1269.71 1295.14 1267.8L1276.37 1229.71Z" fill="#92E3A9" stroke="#263238" stroke-width="3.28111" stroke-linecap="round" stroke-linejoin="round"/>
<path d="M1222.96 1319.03L1217.62 1298.61" stroke="#263238" stroke-width="3.28111" stroke-linecap="round" stroke-linejoin="round"/>
<path d="M1239.63 1326.93L1234.94 1314.57" stroke="#263238" stroke-width="3.28111" stroke-linecap="round" stroke-linejoin="round"/>
<path d="M1220.28 1308.84L1215.82 1316.84" stroke="#263238" stroke-width="3.28111" stroke-linecap="round" stroke-linejoin="round"/>
<path d="M1233.13 1326.81C1228.56 1323.57 1225.36 1308.71 1225.36 1308.71" stroke="#263238" stroke-width="3.28111" stroke-linecap="round" stroke-linejoin="round"/>
<path d="M1279.15 1082.71C1277.05 1102.13 1275.62 1121.54 1274.75 1141.19" stroke="#263238" stroke-width="3.28111" stroke-linecap="round" stroke-linejoin="round"/>
<path d="M1285.11 1039.89C1283.39 1049.92 1281.87 1059.98 1280.64 1070.08" stroke="#263238" stroke-width="3.28111" stroke-linecap="round" stroke-linejoin="round"/>
<path d="M1137.58 1020.47C1140.1 1031.12 1144.19 1041.35 1149.72 1050.8" stroke="#263238" stroke-width="3.28111" stroke-linecap="round" stroke-linejoin="round"/>
<path d="M1131.53 984.413C1131.92 989.981 1132.63 995.513 1133.47 1001.05" stroke="#263238" stroke-width="3.28111" stroke-linecap="round" stroke-linejoin="round"/>
<path d="M1355.76 1063.74C1350.49 1068.79 1343.98 1072.34 1336.89 1074.03" stroke="#263238" stroke-width="3.28111" stroke-linecap="round" stroke-linejoin="round"/>
<path d="M1382.94 1019.33C1378.62 1032 1372.28 1043.87 1364.17 1054.52" stroke="#263238" stroke-width="3.28111" stroke-linecap="round" stroke-linejoin="round"/>
<path d="M737.603 1578.93C882.641 1545.26 972.929 1400.38 939.253 1255.34C905.583 1110.3 760.706 1020.02 615.665 1053.69C470.625 1087.36 380.342 1232.24 414.015 1377.28C447.686 1522.32 592.562 1612.61 737.603 1578.93Z" fill="#263238" stroke="#263238" stroke-width="2.13804" stroke-miterlimit="10"/>
<path d="M676.925 1121.55C638.435 1121.55 600.809 1132.97 568.809 1154.36C536.81 1175.75 511.875 1206.15 497.159 1241.72C482.443 1277.29 478.608 1316.42 486.139 1354.17C493.67 1391.91 512.229 1426.58 539.467 1453.77C566.705 1480.97 601.398 1499.47 639.157 1506.94C676.914 1514.41 716.041 1510.52 751.584 1495.75C787.127 1480.98 817.491 1456 838.831 1423.97C860.171 1391.93 871.531 1354.28 871.471 1315.8C871.364 1264.26 850.823 1214.87 814.353 1178.46C777.883 1142.05 728.461 1121.58 676.925 1121.55ZM807.898 1277.11L694.556 1298.37L726.695 1189.05C745.972 1196.66 763.277 1208.53 777.306 1223.78C791.336 1239.03 801.727 1257.27 807.697 1277.11H807.898ZM687 1306.32V1325.87H667.555V1306.32H687ZM638.338 1185.43L659.596 1298.77L550.183 1266.53C557.685 1247.28 569.451 1229.99 584.597 1215.94C599.743 1201.9 617.876 1191.46 637.633 1185.43H638.338ZM546.556 1355.09L659.898 1333.83L627.558 1443.14C608.188 1435.64 590.792 1423.8 576.701 1408.54C562.609 1393.28 552.194 1374.99 546.253 1355.09H546.556ZM716.217 1446.77L694.959 1333.53L804.07 1366.17C796.432 1385.4 784.53 1402.65 769.26 1416.61C753.99 1430.57 735.75 1440.88 715.914 1446.77H716.217Z" fill="white" stroke="#263238" stroke-width="2.13804" stroke-miterlimit="10"/>
<path d="M737.271 1315.8C737.271 1303.84 733.726 1292.16 727.084 1282.22C720.441 1272.27 711 1264.53 699.955 1259.95C688.909 1255.38 676.755 1254.18 665.029 1256.51C653.303 1258.84 642.531 1264.6 634.077 1273.06C625.623 1281.51 619.867 1292.28 617.534 1304C615.202 1315.73 616.399 1327.88 620.974 1338.93C625.549 1349.98 633.297 1359.42 643.238 1366.06C653.179 1372.7 664.866 1376.25 676.822 1376.25C692.854 1376.25 708.229 1369.88 719.566 1358.54C730.903 1347.2 737.271 1331.83 737.271 1315.8Z" fill="white" stroke="#263238" stroke-width="2.13804" stroke-miterlimit="10"/>
</g>
<defs>
<clipPath id="clip0_796_578">
<rect width="1412.29" height="1433.85" fill="white" transform="translate(283 230)"/>
</clipPath>
</defs>
</svg>
